<svg width="1024" height="555" viewBox="0 0 1024 555" fill="none" xmlns="http://www.w3.org/2000/svg">
<line x1="277.171" y1="95" x2="277.171" y2="111" stroke="#BED73C" stroke-width="1.84172" stroke-linejoin="round" stroke-dasharray="3.68 3.68"/>
<line x1="365.171" y1="149" x2="365.171" y2="165" stroke="#BED73C" stroke-width="1.84172" stroke-linejoin="round" stroke-dasharray="3.68 3.68"/>
<line x1="333.171" y1="237" x2="333.171" y2="253" stroke="#BED73C" stroke-width="1.84172" stroke-linejoin="round" stroke-dasharray="3.68 3.68"/>
<line x1="421.171" y1="413" x2="421.171" y2="429" stroke="#BED73C" stroke-width="1.84172" stroke-linejoin="round" stroke-dasharray="3.68 3.68"/>
<line x1="373.171" y1="489" x2="373.171" y2="505" stroke="#BED73C" stroke-width="1.84172" stroke-linejoin="round" stroke-dasharray="3.68 3.68"/>
<line x1="357.171" y1="325" x2="357.171" y2="341" stroke="#BED73C" stroke-width="1.84172" stroke-linejoin="round" stroke-dasharray="3.68 3.68"/>
<line y1="-0.920862" x2="16" y2="-0.920862" transform="matrix(-4.37114e-08 1 1 4.37114e-08 868.25 95)" stroke="#BED73C" stroke-width="1.84172" stroke-linejoin="round" stroke-dasharray="3.68 3.68"/>
<line y1="-0.920862" x2="16" y2="-0.920862" transform="matrix(-4.37114e-08 1 1 4.37114e-08 780.25 149)" stroke="#BED73C" stroke-width="1.84172" stroke-linejoin="round" stroke-dasharray="3.68 3.68"/>
<line y1="-0.920862" x2="16" y2="-0.920862" transform="matrix(-4.37114e-08 1 1 4.37114e-08 812.25 237)" stroke="#BED73C" stroke-width="1.84172" stroke-linejoin="round" stroke-dasharray="3.68 3.68"/>
<line y1="-0.920862" x2="16" y2="-0.920862" transform="matrix(-4.37114e-08 1 1 4.37114e-08 724.25 413)" stroke="#BED73C" stroke-width="1.84172" stroke-linejoin="round" stroke-dasharray="3.68 3.68"/>
<line y1="-0.920862" x2="16" y2="-0.920862" transform="matrix(-4.37114e-08 1 1 4.37114e-08 772.25 489)" stroke="#BED73C" stroke-width="1.84172" stroke-linejoin="round" stroke-dasharray="3.68 3.68"/>
<line y1="-0.920862" x2="16" y2="-0.920862" transform="matrix(-4.37114e-08 1 1 4.37114e-08 788.25 325)" stroke="#BED73C" stroke-width="1.84172" stroke-linejoin="round" stroke-dasharray="3.68 3.68"/>
</svg>
