<svg width="320" height="957" viewBox="0 0 320 957" fill="none" xmlns="http://www.w3.org/2000/svg">
<line x1="47.9209" y1="122" x2="47.9209" y2="152.361" stroke="#BED73C" stroke-width="1.84172" stroke-linejoin="round" stroke-dasharray="3.68 3.68"/>
<line x1="90.6816" y1="188.469" x2="90.6816" y2="218.83" stroke="#BED73C" stroke-width="1.84172" stroke-linejoin="round" stroke-dasharray="3.68 3.68"/>
<line x1="75.1328" y1="353.453" x2="75.1328" y2="383.814" stroke="#BED73C" stroke-width="1.84172" stroke-linejoin="round" stroke-dasharray="3.68 3.68"/>
<line x1="61.8935" y1="736.424" x2="61.8935" y2="766.785" stroke="#BED73C" stroke-width="1.84172" stroke-linejoin="round" stroke-dasharray="3.68 3.68"/>
<line x1="94.5693" y1="869.639" x2="94.5693" y2="900" stroke="#BED73C" stroke-width="1.84172" stroke-linejoin="round" stroke-dasharray="3.68 3.68"/>
<line x1="86.7949" y1="571.439" x2="86.7949" y2="601.8" stroke="#BED73C" stroke-width="1.84172" stroke-linejoin="round" stroke-dasharray="3.68 3.68"/>
<line y1="-0.920862" x2="30.361" y2="-0.920862" transform="matrix(-4.37114e-08 1 1 4.37114e-08 296 122)" stroke="#BED73C" stroke-width="1.84172" stroke-linejoin="round" stroke-dasharray="3.68 3.68"/>
<line y1="-0.920862" x2="30.361" y2="-0.920862" transform="matrix(-1.35174e-08 1 1 1.4135e-07 244.361 188.469)" stroke="#BED73C" stroke-width="1.84172" stroke-linejoin="round" stroke-dasharray="3.68 3.68"/>
<line y1="-0.920862" x2="30.361" y2="-0.920862" transform="matrix(-1.35174e-08 1 1 1.4135e-07 263.139 353.453)" stroke="#BED73C" stroke-width="1.84172" stroke-linejoin="round" stroke-dasharray="3.68 3.68"/>
<line y1="-0.920862" x2="30.361" y2="-0.920862" transform="matrix(-1.35174e-08 1 1 1.4135e-07 259.5 736.424)" stroke="#BED73C" stroke-width="1.84172" stroke-linejoin="round" stroke-dasharray="3.68 3.68"/>
<line y1="-0.920862" x2="30.361" y2="-0.920862" transform="matrix(-1.35174e-08 1 1 1.4135e-07 239.667 869.639)" stroke="#BED73C" stroke-width="1.84172" stroke-linejoin="round" stroke-dasharray="3.68 3.68"/>
<line y1="-0.920862" x2="30.361" y2="-0.920862" transform="matrix(-1.35174e-08 1 1 1.4135e-07 249.056 571.439)" stroke="#BED73C" stroke-width="1.84172" stroke-linejoin="round" stroke-dasharray="3.68 3.68"/>
</svg>
