<svg width="420" height="821" viewBox="0 0 420 821" fill="none" xmlns="http://www.w3.org/2000/svg">
<line x1="73.9209" y1="106" x2="73.9209" y2="131.054" stroke="#BED73C" stroke-width="1.84172" stroke-linejoin="round" stroke-dasharray="3.68 3.68"/>
<line x1="116.682" y1="160.85" x2="116.682" y2="185.903" stroke="#BED73C" stroke-width="1.84172" stroke-linejoin="round" stroke-dasharray="3.68 3.68"/>
<line x1="101.133" y1="304.105" x2="101.133" y2="335" stroke="#BED73C" stroke-width="1.84172" stroke-linejoin="round" stroke-dasharray="3.68 3.68"/>
<line x1="87.8935" y1="602" x2="87.8935" y2="632.946" stroke="#BED73C" stroke-width="1.84172" stroke-linejoin="round" stroke-dasharray="3.68 3.68"/>
<line x1="120.569" y1="717" x2="120.569" y2="748" stroke="#BED73C" stroke-width="1.84172" stroke-linejoin="round" stroke-dasharray="3.68 3.68"/>
<line x1="112.795" y1="470.007" x2="112.795" y2="501" stroke="#BED73C" stroke-width="1.84172" stroke-linejoin="round" stroke-dasharray="3.68 3.68"/>
<line y1="-0.920862" x2="25.0537" y2="-0.920862" transform="matrix(-4.37114e-08 1 1 4.37114e-08 322 106)" stroke="#BED73C" stroke-width="1.84172" stroke-linejoin="round" stroke-dasharray="3.68 3.68"/>
<line y1="-0.920862" x2="25.0537" y2="-0.920862" transform="matrix(-1.63809e-08 1 1 1.16641e-07 270.361 160.85)" stroke="#BED73C" stroke-width="1.84172" stroke-linejoin="round" stroke-dasharray="3.68 3.68"/>
<line y1="-0.920862" x2="30.8947" y2="-0.920862" transform="matrix(-1.32839e-08 1 1 1.43835e-07 289.139 304.105)" stroke="#BED73C" stroke-width="1.84172" stroke-linejoin="round" stroke-dasharray="3.68 3.68"/>
<line y1="-0.920862" x2="30.9459" y2="-0.920862" transform="matrix(-1.63809e-08 1 1 1.16641e-07 285.5 602)" stroke="#BED73C" stroke-width="1.84172" stroke-linejoin="round" stroke-dasharray="3.68 3.68"/>
<line y1="-0.920862" x2="31" y2="-0.920862" transform="matrix(-1.32387e-08 1 1 1.44325e-07 265.667 717)" stroke="#BED73C" stroke-width="1.84172" stroke-linejoin="round" stroke-dasharray="3.68 3.68"/>
<line y1="-0.920862" x2="30.993" y2="-0.920862" transform="matrix(-1.32417e-08 1 1 1.44293e-07 275.056 470.007)" stroke="#BED73C" stroke-width="1.84172" stroke-linejoin="round" stroke-dasharray="3.68 3.68"/>
</svg>
