<svg width="640" height="670" viewBox="0 0 640 670" fill="none" xmlns="http://www.w3.org/2000/svg">
<line x1="103.921" y1="107" x2="103.921" y2="135.615" stroke="#BED73C" stroke-width="1.84172" stroke-linejoin="round" stroke-dasharray="3.68 3.68"/>
<line x1="188.209" y1="173.645" x2="188.209" y2="202.26" stroke="#BED73C" stroke-width="1.84172" stroke-linejoin="round" stroke-dasharray="3.68 3.68"/>
<line x1="157.56" y1="271.14" x2="157.56" y2="299.754" stroke="#BED73C" stroke-width="1.84172" stroke-linejoin="round" stroke-dasharray="3.68 3.68"/>
<line x1="131.463" y1="386.082" x2="131.463" y2="414.696" stroke="#BED73C" stroke-width="1.84172" stroke-linejoin="round" stroke-dasharray="3.68 3.68"/>
<line x1="195.872" y1="483.634" x2="195.872" y2="512.248" stroke="#BED73C" stroke-width="1.84172" stroke-linejoin="round" stroke-dasharray="3.68 3.68"/>
<line x1="180.548" y1="582.587" x2="180.548" y2="611.202" stroke="#BED73C" stroke-width="1.84172" stroke-linejoin="round" stroke-dasharray="3.68 3.68"/>
<line y1="-0.920862" x2="28.6146" y2="-0.920862" transform="matrix(-8.61621e-08 1 1 2.21755e-08 593.818 107)" stroke="#BED73C" stroke-width="1.84172" stroke-linejoin="round" stroke-dasharray="3.68 3.68"/>
<line y1="-0.920862" x2="28.6146" y2="-0.920862" transform="matrix(-2.82711e-08 1 1 6.75844e-08 492.03 173.645)" stroke="#BED73C" stroke-width="1.84172" stroke-linejoin="round" stroke-dasharray="3.68 3.68"/>
<line y1="-0.920862" x2="28.6146" y2="-0.920862" transform="matrix(-2.82711e-08 1 1 6.75844e-08 529.044 271.14)" stroke="#BED73C" stroke-width="1.84172" stroke-linejoin="round" stroke-dasharray="3.68 3.68"/>
<line y1="-0.920862" x2="28.6146" y2="-0.920862" transform="matrix(-2.82711e-08 1 1 6.75844e-08 521.871 386.082)" stroke="#BED73C" stroke-width="1.84172" stroke-linejoin="round" stroke-dasharray="3.68 3.68"/>
<line y1="-0.920862" x2="28.6146" y2="-0.920862" transform="matrix(-2.82711e-08 1 1 6.75844e-08 482.777 483.634)" stroke="#BED73C" stroke-width="1.84172" stroke-linejoin="round" stroke-dasharray="3.68 3.68"/>
<line y1="-0.920862" x2="28.6146" y2="-0.920862" transform="matrix(-2.82711e-08 1 1 6.75844e-08 501.283 582.587)" stroke="#BED73C" stroke-width="1.84172" stroke-linejoin="round" stroke-dasharray="3.68 3.68"/>
</svg>
