<svg width="320" height="235" viewBox="0 0 320 235" fill="none" xmlns="http://www.w3.org/2000/svg">
<mask id="mask0_6258_102213" style="mask-type:alpha" maskUnits="userSpaceOnUse" x="0" y="54" width="24" height="26">
<path d="M0.958008 54.8801H23.4652V68.6914C23.4652 74.9066 18.4268 79.945 12.2116 79.945V79.945C5.99641 79.945 0.958008 74.9066 0.958008 68.6915V54.8801Z" fill="#D9D9D9"/>
</mask>
<g mask="url(#mask0_6258_102213)">
<path fill-rule="evenodd" clip-rule="evenodd" d="M15.8819 66.3607L15.2487 66.9305L16.0213 67.2892C19.4105 68.8628 21.7033 72.2481 21.7033 76.11C21.7033 77.0908 21.3173 78.6674 20.6591 79.9996C20.332 80.6616 19.9539 81.2293 19.5528 81.6236C19.1494 82.0201 18.7718 82.1954 18.4313 82.1954H5.64897C5.30842 82.1954 4.9309 82.0201 4.5275 81.6236C4.1264 81.2293 3.74828 80.6616 3.4212 79.9996C2.76292 78.6674 2.37695 77.0908 2.37695 76.11C2.37695 72.2481 4.66977 68.8628 8.05892 67.2892L8.83156 66.9305L8.19838 66.3607C7.02074 65.3008 6.21165 63.7846 6.21165 62.0494C6.21165 58.7811 8.77184 56.2209 12.0401 56.2209C15.3084 56.2209 17.8686 58.7811 17.8686 62.0494C17.8686 63.7846 17.0595 65.3008 15.8819 66.3607ZM12.0401 57.6521C9.55638 57.6521 7.64276 59.5657 7.64276 62.0494C7.64276 64.5332 9.55638 66.4468 12.0401 66.4468C14.5239 66.4468 16.4375 64.5332 16.4375 62.0494C16.4375 59.5657 14.5239 57.6521 12.0401 57.6521ZM5.64897 80.7643H18.4313C18.744 80.7643 18.9736 80.5936 19.1153 80.4438C19.2591 80.2917 19.3718 80.1008 19.4616 79.9142C19.643 79.5373 19.7898 79.0527 19.905 78.5754C20.1345 77.6241 20.2722 76.5539 20.2722 76.11C20.2722 71.5811 16.5691 67.8779 12.0401 67.8779C7.51121 67.8779 3.80806 71.5811 3.80806 76.11C3.80806 76.5539 3.94572 77.6241 4.17527 78.5754C4.29046 79.0527 4.4373 79.5373 4.61868 79.9142C4.7085 80.1008 4.82111 80.2917 4.96501 80.4438C5.10666 80.5936 5.33624 80.7643 5.64897 80.7643Z" fill="#004357"/>
</g>
<mask id="mask1_6258_102213" style="mask-type:alpha" maskUnits="userSpaceOnUse" x="32" y="54" width="23" height="26">
<path d="M32.4678 54.8801H54.9749V68.6914C54.9749 74.9066 49.9365 79.945 43.7214 79.945V79.945C37.5062 79.945 32.4678 74.9066 32.4678 68.6915V54.8801Z" fill="#D9D9D9"/>
</mask>
<g mask="url(#mask1_6258_102213)">
<path fill-rule="evenodd" clip-rule="evenodd" d="M47.3916 66.3607L46.7585 66.9305L47.5311 67.2892C50.9203 68.8628 53.2131 72.2481 53.2131 76.11C53.2131 77.0908 52.8271 78.6674 52.1688 79.9996C51.8417 80.6616 51.4636 81.2293 51.0625 81.6236C50.6591 82.0201 50.2816 82.1954 49.9411 82.1954H37.1587C36.8182 82.1954 36.4407 82.0201 36.0373 81.6236C35.6362 81.2293 35.2581 80.6616 34.931 79.9996C34.2727 78.6674 33.8867 77.0908 33.8867 76.11C33.8867 72.2481 36.1795 68.8628 39.5687 67.2892L40.3413 66.9305L39.7081 66.3607C38.5305 65.3008 37.7214 63.7846 37.7214 62.0494C37.7214 58.7811 40.2816 56.2209 43.5499 56.2209C46.8182 56.2209 49.3784 58.7811 49.3784 62.0494C49.3784 63.7846 48.5693 65.3008 47.3916 66.3607ZM43.5499 57.6521C41.0661 57.6521 39.1525 59.5657 39.1525 62.0494C39.1525 64.5332 41.0661 66.4468 43.5499 66.4468C46.0336 66.4468 47.9473 64.5332 47.9473 62.0494C47.9473 59.5657 46.0336 57.6521 43.5499 57.6521ZM37.1587 80.7643H49.9411C50.2538 80.7643 50.4834 80.5936 50.625 80.4438C50.7689 80.2917 50.8815 80.1008 50.9713 79.9142C51.1527 79.5373 51.2996 79.0527 51.4148 78.5754C51.6443 77.6241 51.782 76.5539 51.782 76.11C51.782 71.5811 48.0788 67.8779 43.5499 67.8779C39.021 67.8779 35.3178 71.5811 35.3178 76.11C35.3178 76.5539 35.4555 77.6241 35.685 78.5754C35.8002 79.0527 35.9471 79.5373 36.1284 79.9142C36.2183 80.1008 36.3309 80.2917 36.4748 80.4438C36.6164 80.5936 36.846 80.7643 37.1587 80.7643Z" fill="#004357"/>
</g>
<mask id="mask2_6258_102213" style="mask-type:alpha" maskUnits="userSpaceOnUse" x="63" y="54" width="24" height="26">
<path d="M63.9785 54.8801H86.4857V68.6914C86.4857 74.9066 81.4473 79.945 75.2321 79.945V79.945C69.0169 79.945 63.9785 74.9066 63.9785 68.6915V54.8801Z" fill="#D9D9D9"/>
</mask>
<g mask="url(#mask2_6258_102213)">
<path fill-rule="evenodd" clip-rule="evenodd" d="M78.9024 66.3607L78.2692 66.9305L79.0419 67.2892C82.431 68.8628 84.7238 72.2481 84.7238 76.11C84.7238 77.0908 84.3379 78.6674 83.6796 79.9996C83.3525 80.6616 82.9744 81.2293 82.5733 81.6236C82.1699 82.0201 81.7923 82.1954 81.4518 82.1954H68.6695C68.3289 82.1954 67.9514 82.0201 67.548 81.6236C67.1469 81.2293 66.7688 80.6616 66.4417 79.9996C65.7834 78.6674 65.3975 77.0908 65.3975 76.11C65.3975 72.2481 67.6903 68.8628 71.0794 67.2892L71.8521 66.9305L71.2189 66.3607C70.0412 65.3008 69.2322 63.7846 69.2322 62.0494C69.2322 58.7811 71.7923 56.2209 75.0606 56.2209C78.3289 56.2209 80.8891 58.7811 80.8891 62.0494C80.8891 63.7846 80.08 65.3008 78.9024 66.3607ZM75.0606 57.6521C72.5769 57.6521 70.6633 59.5657 70.6633 62.0494C70.6633 64.5332 72.5769 66.4468 75.0606 66.4468C77.5444 66.4468 79.458 64.5332 79.458 62.0494C79.458 59.5657 77.5444 57.6521 75.0606 57.6521ZM68.6695 80.7643H81.4518C81.7645 80.7643 81.9941 80.5936 82.1358 80.4438C82.2797 80.2917 82.3923 80.1008 82.4821 79.9142C82.6635 79.5373 82.8103 79.0527 82.9255 78.5754C83.155 77.6241 83.2927 76.5539 83.2927 76.11C83.2927 71.5811 79.5896 67.8779 75.0606 67.8779C70.5317 67.8779 66.8286 71.5811 66.8286 76.11C66.8286 76.5539 66.9662 77.6241 67.1958 78.5754C67.311 79.0527 67.4578 79.5373 67.6392 79.9142C67.729 80.1008 67.8416 80.2917 67.9855 80.4438C68.1272 80.5936 68.3567 80.7643 68.6695 80.7643Z" fill="#004357"/>
</g>
<mask id="mask3_6258_102213" style="mask-type:alpha" maskUnits="userSpaceOnUse" x="95" y="54" width="23" height="26">
<path d="M95.4883 54.8801H117.995V68.6914C117.995 74.9066 112.957 79.945 106.742 79.945V79.945C100.527 79.945 95.4883 74.9066 95.4883 68.6915V54.8801Z" fill="#D9D9D9"/>
</mask>
<g mask="url(#mask3_6258_102213)">
<path fill-rule="evenodd" clip-rule="evenodd" d="M110.412 66.3607L109.779 66.9305L110.552 67.2892C113.941 68.8628 116.234 72.2481 116.234 76.11C116.234 77.0908 115.848 78.6674 115.189 79.9996C114.862 80.6616 114.484 81.2293 114.083 81.6236C113.68 82.0201 113.302 82.1954 112.962 82.1954H100.179C99.8387 82.1954 99.4612 82.0201 99.0578 81.6236C98.6567 81.2293 98.2786 80.6616 97.9515 79.9996C97.2932 78.6674 96.9072 77.0908 96.9072 76.11C96.9072 72.2481 99.2 68.8628 102.589 67.2892L103.362 66.9305L102.729 66.3607C101.551 65.3008 100.742 63.7846 100.742 62.0494C100.742 58.7811 103.302 56.2209 106.57 56.2209C109.839 56.2209 112.399 58.7811 112.399 62.0494C112.399 63.7846 111.59 65.3008 110.412 66.3607ZM106.57 57.6521C104.087 57.6521 102.173 59.5657 102.173 62.0494C102.173 64.5332 104.087 66.4468 106.57 66.4468C109.054 66.4468 110.968 64.5332 110.968 62.0494C110.968 59.5657 109.054 57.6521 106.57 57.6521ZM100.179 80.7643H112.962C113.274 80.7643 113.504 80.5936 113.646 80.4438C113.789 80.2917 113.902 80.1008 113.992 79.9142C114.173 79.5373 114.32 79.0527 114.435 78.5754C114.665 77.6241 114.802 76.5539 114.802 76.11C114.802 71.5811 111.099 67.8779 106.57 67.8779C102.041 67.8779 98.3383 71.5811 98.3383 76.11C98.3383 76.5539 98.476 77.6241 98.7055 78.5754C98.8207 79.0527 98.9676 79.5373 99.149 79.9142C99.2388 80.1008 99.3514 80.2917 99.4953 80.4438C99.6369 80.5936 99.8665 80.7643 100.179 80.7643Z" fill="#004357"/>
</g>
<mask id="mask4_6258_102213" style="mask-type:alpha" maskUnits="userSpaceOnUse" x="126" y="54" width="24" height="26">
<path d="M126.998 54.8801H149.505V68.6914C149.505 74.9066 144.467 79.945 138.252 79.945V79.945C132.036 79.945 126.998 74.9066 126.998 68.6915V54.8801Z" fill="#D9D9D9"/>
</mask>
<g mask="url(#mask4_6258_102213)">
<path fill-rule="evenodd" clip-rule="evenodd" d="M141.922 66.3607L141.289 66.9305L142.061 67.2892C145.451 68.8628 147.743 72.2481 147.743 76.11C147.743 77.0908 147.357 78.6674 146.699 79.9996C146.372 80.6616 145.994 81.2293 145.593 81.6236C145.189 82.0201 144.812 82.1954 144.471 82.1954H131.689C131.348 82.1954 130.971 82.0201 130.568 81.6236C130.166 81.2293 129.788 80.6616 129.461 79.9996C128.803 78.6674 128.417 77.0908 128.417 76.11C128.417 72.2481 130.71 68.8628 134.099 67.2892L134.872 66.9305L134.238 66.3607C133.061 65.3008 132.252 63.7846 132.252 62.0494C132.252 58.7811 134.812 56.2209 138.08 56.2209C141.348 56.2209 143.909 58.7811 143.909 62.0494C143.909 63.7846 143.1 65.3008 141.922 66.3607ZM138.08 57.6521C135.596 57.6521 133.683 59.5657 133.683 62.0494C133.683 64.5332 135.596 66.4468 138.08 66.4468C140.564 66.4468 142.478 64.5332 142.478 62.0494C142.478 59.5657 140.564 57.6521 138.08 57.6521ZM131.689 80.7643H144.471C144.784 80.7643 145.014 80.5936 145.155 80.4438C145.299 80.2917 145.412 80.1008 145.502 79.9142C145.683 79.5373 145.83 79.0527 145.945 78.5754C146.175 77.6241 146.312 76.5539 146.312 76.11C146.312 71.5811 142.609 67.8779 138.08 67.8779C133.551 67.8779 129.848 71.5811 129.848 76.11C129.848 76.5539 129.986 77.6241 130.215 78.5754C130.33 79.0527 130.477 79.5373 130.659 79.9142C130.749 80.1008 130.861 80.2917 131.005 80.4438C131.147 80.5936 131.376 80.7643 131.689 80.7643Z" fill="#004357"/>
</g>
<mask id="mask5_6258_102213" style="mask-type:alpha" maskUnits="userSpaceOnUse" x="158" y="54" width="24" height="26">
<path d="M158.508 54.8801H181.015V68.6914C181.015 74.9066 175.977 79.945 169.761 79.945V79.945C163.546 79.945 158.508 74.9066 158.508 68.6915V54.8801Z" fill="#D9D9D9"/>
</mask>
<g mask="url(#mask5_6258_102213)">
<path fill-rule="evenodd" clip-rule="evenodd" d="M173.432 66.3607L172.799 66.9305L173.571 67.2892C176.96 68.8628 179.253 72.2481 179.253 76.11C179.253 77.0908 178.867 78.6674 178.209 79.9996C177.882 80.6616 177.504 81.2293 177.103 81.6236C176.699 82.0201 176.322 82.1954 175.981 82.1954H163.199C162.858 82.1954 162.481 82.0201 162.077 81.6236C161.676 81.2293 161.298 80.6616 160.971 79.9996C160.313 78.6674 159.927 77.0908 159.927 76.11C159.927 72.2481 162.22 68.8628 165.609 67.2892L166.381 66.9305L165.748 66.3607C164.571 65.3008 163.761 63.7846 163.761 62.0494C163.761 58.7811 166.322 56.2209 169.59 56.2209C172.858 56.2209 175.418 58.7811 175.418 62.0494C175.418 63.7846 174.609 65.3008 173.432 66.3607ZM169.59 57.6521C167.106 57.6521 165.193 59.5657 165.193 62.0494C165.193 64.5332 167.106 66.4468 169.59 66.4468C172.074 66.4468 173.987 64.5332 173.987 62.0494C173.987 59.5657 172.074 57.6521 169.59 57.6521ZM163.199 80.7643H175.981C176.294 80.7643 176.523 80.5936 176.665 80.4438C176.809 80.2917 176.922 80.1008 177.011 79.9142C177.193 79.5373 177.34 79.0527 177.455 78.5754C177.684 77.6241 177.822 76.5539 177.822 76.11C177.822 71.5811 174.119 67.8779 169.59 67.8779C165.061 67.8779 161.358 71.5811 161.358 76.11C161.358 76.5539 161.496 77.6241 161.725 78.5754C161.84 79.0527 161.987 79.5373 162.168 79.9142C162.258 80.1008 162.371 80.2917 162.515 80.4438C162.656 80.5936 162.886 80.7643 163.199 80.7643Z" fill="#004357"/>
</g>
<mask id="mask6_6258_102213" style="mask-type:alpha" maskUnits="userSpaceOnUse" x="190" y="54" width="23" height="26">
<path d="M190.019 54.8801H212.526V68.6914C212.526 74.9066 207.487 79.945 201.272 79.945V79.945C195.057 79.945 190.019 74.9066 190.019 68.6915V54.8801Z" fill="#D9D9D9"/>
</mask>
<g mask="url(#mask6_6258_102213)">
<path fill-rule="evenodd" clip-rule="evenodd" d="M204.942 66.3607L204.309 66.9305L205.082 67.2892C208.471 68.8628 210.764 72.2481 210.764 76.11C210.764 77.0908 210.378 78.6674 209.72 79.9996C209.393 80.6616 209.014 81.2293 208.613 81.6236C208.21 82.0201 207.832 82.1954 207.492 82.1954H194.71C194.369 82.1954 193.991 82.0201 193.588 81.6236C193.187 81.2293 192.809 80.6616 192.482 79.9996C191.823 78.6674 191.438 77.0908 191.438 76.11C191.438 72.2481 193.73 68.8628 197.119 67.2892L197.892 66.9305L197.259 66.3607C196.081 65.3008 195.272 63.7846 195.272 62.0494C195.272 58.7811 197.832 56.2209 201.101 56.2209C204.369 56.2209 206.929 58.7811 206.929 62.0494C206.929 63.7846 206.12 65.3008 204.942 66.3607ZM201.101 57.6521C198.617 57.6521 196.703 59.5657 196.703 62.0494C196.703 64.5332 198.617 66.4468 201.101 66.4468C203.584 66.4468 205.498 64.5332 205.498 62.0494C205.498 59.5657 203.584 57.6521 201.101 57.6521ZM194.71 80.7643H207.492C207.805 80.7643 208.034 80.5936 208.176 80.4438C208.32 80.2917 208.432 80.1008 208.522 79.9142C208.704 79.5373 208.85 79.0527 208.966 78.5754C209.195 77.6241 209.333 76.5539 209.333 76.11C209.333 71.5811 205.63 67.8779 201.101 67.8779C196.572 67.8779 192.869 71.5811 192.869 76.11C192.869 76.5539 193.006 77.6241 193.236 78.5754C193.351 79.0527 193.498 79.5373 193.679 79.9142C193.769 80.1008 193.882 80.2917 194.026 80.4438C194.167 80.5936 194.397 80.7643 194.71 80.7643Z" fill="#004357"/>
</g>
<mask id="mask7_6258_102213" style="mask-type:alpha" maskUnits="userSpaceOnUse" x="221" y="54" width="24" height="26">
<path d="M221.528 54.8801H244.035V68.6914C244.035 74.9066 238.997 79.945 232.782 79.945V79.945C226.567 79.945 221.528 74.9066 221.528 68.6915V54.8801Z" fill="#D9D9D9"/>
</mask>
<g mask="url(#mask7_6258_102213)">
<path fill-rule="evenodd" clip-rule="evenodd" d="M236.452 66.3607L235.819 66.9305L236.592 67.2892C239.981 68.8628 242.274 72.2481 242.274 76.11C242.274 77.0908 241.888 78.6674 241.229 79.9996C240.902 80.6616 240.524 81.2293 240.123 81.6236C239.72 82.0201 239.342 82.1954 239.002 82.1954H226.219C225.879 82.1954 225.501 82.0201 225.098 81.6236C224.697 81.2293 224.319 80.6616 223.992 79.9996C223.333 78.6674 222.947 77.0908 222.947 76.11C222.947 72.2481 225.24 68.8628 228.629 67.2892L229.402 66.9305L228.769 66.3607C227.591 65.3008 226.782 63.7846 226.782 62.0494C226.782 58.7811 229.342 56.2209 232.61 56.2209C235.879 56.2209 238.439 58.7811 238.439 62.0494C238.439 63.7846 237.63 65.3008 236.452 66.3607ZM232.61 57.6521C230.127 57.6521 228.213 59.5657 228.213 62.0494C228.213 64.5332 230.127 66.4468 232.61 66.4468C235.094 66.4468 237.008 64.5332 237.008 62.0494C237.008 59.5657 235.094 57.6521 232.61 57.6521ZM226.219 80.7643H239.002C239.314 80.7643 239.544 80.5936 239.686 80.4438C239.829 80.2917 239.942 80.1008 240.032 79.9142C240.213 79.5373 240.36 79.0527 240.475 78.5754C240.705 77.6241 240.843 76.5539 240.843 76.11C240.843 71.5811 237.139 67.8779 232.61 67.8779C228.082 67.8779 224.378 71.5811 224.378 76.11C224.378 76.5539 224.516 77.6241 224.746 78.5754C224.861 79.0527 225.008 79.5373 225.189 79.9142C225.279 80.1008 225.391 80.2917 225.535 80.4438C225.677 80.5936 225.907 80.7643 226.219 80.7643Z" fill="#004357"/>
</g>
<mask id="mask8_6258_102213" style="mask-type:alpha" maskUnits="userSpaceOnUse" x="253" y="54" width="23" height="26">
<path d="M253.038 54.8801H275.545V68.6914C275.545 74.9066 270.507 79.945 264.292 79.945V79.945C258.076 79.945 253.038 74.9066 253.038 68.6915V54.8801Z" fill="#D9D9D9"/>
</mask>
<g mask="url(#mask8_6258_102213)">
<path fill-rule="evenodd" clip-rule="evenodd" d="M267.962 66.3607L267.329 66.9305L268.101 67.2892C271.491 68.8628 273.783 72.2481 273.783 76.11C273.783 77.0908 273.397 78.6674 272.739 79.9996C272.412 80.6616 272.034 81.2293 271.633 81.6236C271.229 82.0201 270.852 82.1954 270.511 82.1954H257.729C257.389 82.1954 257.011 82.0201 256.608 81.6236C256.206 81.2293 255.828 80.6616 255.501 79.9996C254.843 78.6674 254.457 77.0908 254.457 76.11C254.457 72.2481 256.75 68.8628 260.139 67.2892L260.912 66.9305L260.278 66.3607C259.101 65.3008 258.292 63.7846 258.292 62.0494C258.292 58.7811 260.852 56.2209 264.12 56.2209C267.388 56.2209 269.949 58.7811 269.949 62.0494C269.949 63.7846 269.14 65.3008 267.962 66.3607ZM264.12 57.6521C261.636 57.6521 259.723 59.5657 259.723 62.0494C259.723 64.5332 261.636 66.4468 264.12 66.4468C266.604 66.4468 268.518 64.5332 268.518 62.0494C268.518 59.5657 266.604 57.6521 264.12 57.6521ZM257.729 80.7643H270.511C270.824 80.7643 271.054 80.5936 271.195 80.4438C271.339 80.2917 271.452 80.1008 271.542 79.9142C271.723 79.5373 271.87 79.0527 271.985 78.5754C272.215 77.6241 272.352 76.5539 272.352 76.11C272.352 71.5811 268.649 67.8779 264.12 67.8779C259.591 67.8779 255.888 71.5811 255.888 76.11C255.888 76.5539 256.026 77.6241 256.255 78.5754C256.371 79.0527 256.517 79.5373 256.699 79.9142C256.789 80.1008 256.901 80.2917 257.045 80.4438C257.187 80.5936 257.416 80.7643 257.729 80.7643Z" fill="#004357"/>
</g>
<mask id="mask9_6258_102213" style="mask-type:alpha" maskUnits="userSpaceOnUse" x="0" y="88" width="24" height="27">
<path d="M0.958008 88.9479H23.4652V102.759C23.4652 108.974 18.4268 114.013 12.2116 114.013V114.013C5.99641 114.013 0.958008 108.974 0.958008 102.759V88.9479Z" fill="#D9D9D9"/>
</mask>
<g mask="url(#mask9_6258_102213)">
<path fill-rule="evenodd" clip-rule="evenodd" d="M15.8819 100.428L15.2487 100.998L16.0213 101.357C19.4105 102.931 21.7033 106.316 21.7033 110.178C21.7033 111.159 21.3173 112.735 20.6591 114.067C20.332 114.729 19.9539 115.297 19.5528 115.691C19.1494 116.088 18.7718 116.263 18.4313 116.263H5.64897C5.30842 116.263 4.9309 116.088 4.5275 115.691C4.1264 115.297 3.74828 114.729 3.4212 114.067C2.76292 112.735 2.37695 111.159 2.37695 110.178C2.37695 106.316 4.66977 102.931 8.05892 101.357L8.83156 100.998L8.19838 100.428C7.02074 99.3685 6.21165 97.8523 6.21165 96.1172C6.21165 92.8489 8.77184 90.2887 12.0401 90.2887C15.3084 90.2887 17.8686 92.8489 17.8686 96.1172C17.8686 97.8523 17.0595 99.3685 15.8819 100.428ZM12.0401 91.7198C9.55638 91.7198 7.64276 93.6334 7.64276 96.1172C7.64276 98.6009 9.55638 100.515 12.0401 100.515C14.5239 100.515 16.4375 98.6009 16.4375 96.1172C16.4375 93.6334 14.5239 91.7198 12.0401 91.7198ZM5.64897 114.832H18.4313C18.744 114.832 18.9736 114.661 19.1153 114.512C19.2591 114.359 19.3718 114.169 19.4616 113.982C19.643 113.605 19.7898 113.12 19.905 112.643C20.1345 111.692 20.2722 110.622 20.2722 110.178C20.2722 105.649 16.5691 101.946 12.0401 101.946C7.51121 101.946 3.80806 105.649 3.80806 110.178C3.80806 110.622 3.94572 111.692 4.17527 112.643C4.29046 113.12 4.4373 113.605 4.61868 113.982C4.7085 114.169 4.82111 114.359 4.96501 114.512C5.10666 114.661 5.33624 114.832 5.64897 114.832Z" fill="#004357"/>
</g>
<mask id="mask10_6258_102213" style="mask-type:alpha" maskUnits="userSpaceOnUse" x="32" y="88" width="23" height="27">
<path d="M32.4678 88.9479H54.9749V102.759C54.9749 108.974 49.9365 114.013 43.7214 114.013V114.013C37.5062 114.013 32.4678 108.974 32.4678 102.759V88.9479Z" fill="#D9D9D9"/>
</mask>
<g mask="url(#mask10_6258_102213)">
<path fill-rule="evenodd" clip-rule="evenodd" d="M47.3916 100.428L46.7585 100.998L47.5311 101.357C50.9203 102.931 53.2131 106.316 53.2131 110.178C53.2131 111.159 52.8271 112.735 52.1688 114.067C51.8417 114.729 51.4636 115.297 51.0625 115.691C50.6591 116.088 50.2816 116.263 49.9411 116.263H37.1587C36.8182 116.263 36.4407 116.088 36.0373 115.691C35.6362 115.297 35.2581 114.729 34.931 114.067C34.2727 112.735 33.8867 111.159 33.8867 110.178C33.8867 106.316 36.1795 102.931 39.5687 101.357L40.3413 100.998L39.7081 100.428C38.5305 99.3685 37.7214 97.8523 37.7214 96.1172C37.7214 92.8489 40.2816 90.2887 43.5499 90.2887C46.8182 90.2887 49.3784 92.8489 49.3784 96.1172C49.3784 97.8523 48.5693 99.3685 47.3916 100.428ZM43.5499 91.7198C41.0661 91.7198 39.1525 93.6334 39.1525 96.1172C39.1525 98.6009 41.0661 100.515 43.5499 100.515C46.0336 100.515 47.9473 98.6009 47.9473 96.1172C47.9473 93.6334 46.0336 91.7198 43.5499 91.7198ZM37.1587 114.832H49.9411C50.2538 114.832 50.4834 114.661 50.625 114.512C50.7689 114.359 50.8815 114.169 50.9713 113.982C51.1527 113.605 51.2996 113.12 51.4148 112.643C51.6443 111.692 51.782 110.622 51.782 110.178C51.782 105.649 48.0788 101.946 43.5499 101.946C39.021 101.946 35.3178 105.649 35.3178 110.178C35.3178 110.622 35.4555 111.692 35.685 112.643C35.8002 113.12 35.9471 113.605 36.1284 113.982C36.2183 114.169 36.3309 114.359 36.4748 114.512C36.6164 114.661 36.846 114.832 37.1587 114.832Z" fill="#004357"/>
</g>
<mask id="mask11_6258_102213" style="mask-type:alpha" maskUnits="userSpaceOnUse" x="63" y="88" width="24" height="27">
<path d="M63.9785 88.9479H86.4857V102.759C86.4857 108.974 81.4473 114.013 75.2321 114.013V114.013C69.0169 114.013 63.9785 108.974 63.9785 102.759V88.9479Z" fill="#D9D9D9"/>
</mask>
<g mask="url(#mask11_6258_102213)">
<path fill-rule="evenodd" clip-rule="evenodd" d="M78.9024 100.428L78.2692 100.998L79.0419 101.357C82.431 102.931 84.7238 106.316 84.7238 110.178C84.7238 111.159 84.3379 112.735 83.6796 114.067C83.3525 114.729 82.9744 115.297 82.5733 115.691C82.1699 116.088 81.7923 116.263 81.4518 116.263H68.6695C68.3289 116.263 67.9514 116.088 67.548 115.691C67.1469 115.297 66.7688 114.729 66.4417 114.067C65.7834 112.735 65.3975 111.159 65.3975 110.178C65.3975 106.316 67.6903 102.931 71.0794 101.357L71.8521 100.998L71.2189 100.428C70.0412 99.3685 69.2322 97.8523 69.2322 96.1172C69.2322 92.8489 71.7923 90.2887 75.0606 90.2887C78.3289 90.2887 80.8891 92.8489 80.8891 96.1172C80.8891 97.8523 80.08 99.3685 78.9024 100.428ZM75.0606 91.7198C72.5769 91.7198 70.6633 93.6334 70.6633 96.1172C70.6633 98.6009 72.5769 100.515 75.0606 100.515C77.5444 100.515 79.458 98.6009 79.458 96.1172C79.458 93.6334 77.5444 91.7198 75.0606 91.7198ZM68.6695 114.832H81.4518C81.7645 114.832 81.9941 114.661 82.1358 114.512C82.2797 114.359 82.3923 114.169 82.4821 113.982C82.6635 113.605 82.8103 113.12 82.9255 112.643C83.155 111.692 83.2927 110.622 83.2927 110.178C83.2927 105.649 79.5896 101.946 75.0606 101.946C70.5317 101.946 66.8286 105.649 66.8286 110.178C66.8286 110.622 66.9662 111.692 67.1958 112.643C67.311 113.12 67.4578 113.605 67.6392 113.982C67.729 114.169 67.8416 114.359 67.9855 114.512C68.1272 114.661 68.3567 114.832 68.6695 114.832Z" fill="#004357"/>
</g>
<mask id="mask12_6258_102213" style="mask-type:alpha" maskUnits="userSpaceOnUse" x="95" y="88" width="23" height="27">
<path d="M95.4883 88.9479H117.995V102.759C117.995 108.974 112.957 114.013 106.742 114.013V114.013C100.527 114.013 95.4883 108.974 95.4883 102.759V88.9479Z" fill="#D9D9D9"/>
</mask>
<g mask="url(#mask12_6258_102213)">
<path fill-rule="evenodd" clip-rule="evenodd" d="M110.412 100.428L109.779 100.998L110.552 101.357C113.941 102.931 116.234 106.316 116.234 110.178C116.234 111.159 115.848 112.735 115.189 114.067C114.862 114.729 114.484 115.297 114.083 115.691C113.68 116.088 113.302 116.263 112.962 116.263H100.179C99.8387 116.263 99.4612 116.088 99.0578 115.691C98.6567 115.297 98.2786 114.729 97.9515 114.067C97.2932 112.735 96.9072 111.159 96.9072 110.178C96.9072 106.316 99.2 102.931 102.589 101.357L103.362 100.998L102.729 100.428C101.551 99.3685 100.742 97.8523 100.742 96.1172C100.742 92.8489 103.302 90.2887 106.57 90.2887C109.839 90.2887 112.399 92.8489 112.399 96.1172C112.399 97.8523 111.59 99.3685 110.412 100.428ZM106.57 91.7198C104.087 91.7198 102.173 93.6334 102.173 96.1172C102.173 98.6009 104.087 100.515 106.57 100.515C109.054 100.515 110.968 98.6009 110.968 96.1172C110.968 93.6334 109.054 91.7198 106.57 91.7198ZM100.179 114.832H112.962C113.274 114.832 113.504 114.661 113.646 114.512C113.789 114.359 113.902 114.169 113.992 113.982C114.173 113.605 114.32 113.12 114.435 112.643C114.665 111.692 114.802 110.622 114.802 110.178C114.802 105.649 111.099 101.946 106.57 101.946C102.041 101.946 98.3383 105.649 98.3383 110.178C98.3383 110.622 98.476 111.692 98.7055 112.643C98.8207 113.12 98.9676 113.605 99.149 113.982C99.2388 114.169 99.3514 114.359 99.4953 114.512C99.6369 114.661 99.8665 114.832 100.179 114.832Z" fill="#004357"/>
</g>
<mask id="mask13_6258_102213" style="mask-type:alpha" maskUnits="userSpaceOnUse" x="126" y="88" width="24" height="27">
<path d="M126.998 88.9479H149.505V102.759C149.505 108.974 144.467 114.013 138.252 114.013V114.013C132.036 114.013 126.998 108.974 126.998 102.759V88.9479Z" fill="#D9D9D9"/>
</mask>
<g mask="url(#mask13_6258_102213)">
<path fill-rule="evenodd" clip-rule="evenodd" d="M141.922 100.428L141.289 100.998L142.061 101.357C145.451 102.931 147.743 106.316 147.743 110.178C147.743 111.159 147.357 112.735 146.699 114.067C146.372 114.729 145.994 115.297 145.593 115.691C145.189 116.088 144.812 116.263 144.471 116.263H131.689C131.348 116.263 130.971 116.088 130.568 115.691C130.166 115.297 129.788 114.729 129.461 114.067C128.803 112.735 128.417 111.159 128.417 110.178C128.417 106.316 130.71 102.931 134.099 101.357L134.872 100.998L134.238 100.428C133.061 99.3685 132.252 97.8523 132.252 96.1172C132.252 92.8489 134.812 90.2887 138.08 90.2887C141.348 90.2887 143.909 92.8489 143.909 96.1172C143.909 97.8523 143.1 99.3685 141.922 100.428ZM138.08 91.7198C135.596 91.7198 133.683 93.6334 133.683 96.1172C133.683 98.6009 135.596 100.515 138.08 100.515C140.564 100.515 142.478 98.6009 142.478 96.1172C142.478 93.6334 140.564 91.7198 138.08 91.7198ZM131.689 114.832H144.471C144.784 114.832 145.014 114.661 145.155 114.512C145.299 114.359 145.412 114.169 145.502 113.982C145.683 113.605 145.83 113.12 145.945 112.643C146.175 111.692 146.312 110.622 146.312 110.178C146.312 105.649 142.609 101.946 138.08 101.946C133.551 101.946 129.848 105.649 129.848 110.178C129.848 110.622 129.986 111.692 130.215 112.643C130.33 113.12 130.477 113.605 130.659 113.982C130.749 114.169 130.861 114.359 131.005 114.512C131.147 114.661 131.376 114.832 131.689 114.832Z" fill="#004357"/>
</g>
<mask id="mask14_6258_102213" style="mask-type:alpha" maskUnits="userSpaceOnUse" x="158" y="88" width="24" height="27">
<path d="M158.508 88.9479H181.015V102.759C181.015 108.974 175.977 114.013 169.761 114.013V114.013C163.546 114.013 158.508 108.974 158.508 102.759V88.9479Z" fill="#D9D9D9"/>
</mask>
<g mask="url(#mask14_6258_102213)">
<path fill-rule="evenodd" clip-rule="evenodd" d="M173.432 100.428L172.799 100.998L173.571 101.357C176.96 102.931 179.253 106.316 179.253 110.178C179.253 111.159 178.867 112.735 178.209 114.067C177.882 114.729 177.504 115.297 177.103 115.691C176.699 116.088 176.322 116.263 175.981 116.263H163.199C162.858 116.263 162.481 116.088 162.077 115.691C161.676 115.297 161.298 114.729 160.971 114.067C160.313 112.735 159.927 111.159 159.927 110.178C159.927 106.316 162.22 102.931 165.609 101.357L166.381 100.998L165.748 100.428C164.571 99.3685 163.761 97.8523 163.761 96.1172C163.761 92.8489 166.322 90.2887 169.59 90.2887C172.858 90.2887 175.418 92.8489 175.418 96.1172C175.418 97.8523 174.609 99.3685 173.432 100.428ZM169.59 91.7198C167.106 91.7198 165.193 93.6334 165.193 96.1172C165.193 98.6009 167.106 100.515 169.59 100.515C172.074 100.515 173.987 98.6009 173.987 96.1172C173.987 93.6334 172.074 91.7198 169.59 91.7198ZM163.199 114.832H175.981C176.294 114.832 176.523 114.661 176.665 114.512C176.809 114.359 176.922 114.169 177.011 113.982C177.193 113.605 177.34 113.12 177.455 112.643C177.684 111.692 177.822 110.622 177.822 110.178C177.822 105.649 174.119 101.946 169.59 101.946C165.061 101.946 161.358 105.649 161.358 110.178C161.358 110.622 161.496 111.692 161.725 112.643C161.84 113.12 161.987 113.605 162.168 113.982C162.258 114.169 162.371 114.359 162.515 114.512C162.656 114.661 162.886 114.832 163.199 114.832Z" fill="#004357"/>
</g>
<mask id="mask15_6258_102213" style="mask-type:alpha" maskUnits="userSpaceOnUse" x="190" y="88" width="23" height="27">
<path d="M190.019 88.9479H212.526V102.759C212.526 108.974 207.487 114.013 201.272 114.013V114.013C195.057 114.013 190.019 108.974 190.019 102.759V88.9479Z" fill="#D9D9D9"/>
</mask>
<g mask="url(#mask15_6258_102213)">
<path fill-rule="evenodd" clip-rule="evenodd" d="M204.942 100.428L204.309 100.998L205.082 101.357C208.471 102.931 210.764 106.316 210.764 110.178C210.764 111.159 210.378 112.735 209.72 114.067C209.393 114.729 209.014 115.297 208.613 115.691C208.21 116.088 207.832 116.263 207.492 116.263H194.71C194.369 116.263 193.991 116.088 193.588 115.691C193.187 115.297 192.809 114.729 192.482 114.067C191.823 112.735 191.438 111.159 191.438 110.178C191.438 106.316 193.73 102.931 197.119 101.357L197.892 100.998L197.259 100.428C196.081 99.3685 195.272 97.8523 195.272 96.1172C195.272 92.8489 197.832 90.2887 201.101 90.2887C204.369 90.2887 206.929 92.8489 206.929 96.1172C206.929 97.8523 206.12 99.3685 204.942 100.428ZM201.101 91.7198C198.617 91.7198 196.703 93.6334 196.703 96.1172C196.703 98.6009 198.617 100.515 201.101 100.515C203.584 100.515 205.498 98.6009 205.498 96.1172C205.498 93.6334 203.584 91.7198 201.101 91.7198ZM194.71 114.832H207.492C207.805 114.832 208.034 114.661 208.176 114.512C208.32 114.359 208.432 114.169 208.522 113.982C208.704 113.605 208.85 113.12 208.966 112.643C209.195 111.692 209.333 110.622 209.333 110.178C209.333 105.649 205.63 101.946 201.101 101.946C196.572 101.946 192.869 105.649 192.869 110.178C192.869 110.622 193.006 111.692 193.236 112.643C193.351 113.12 193.498 113.605 193.679 113.982C193.769 114.169 193.882 114.359 194.026 114.512C194.167 114.661 194.397 114.832 194.71 114.832Z" fill="#004357"/>
</g>
<mask id="mask16_6258_102213" style="mask-type:alpha" maskUnits="userSpaceOnUse" x="221" y="88" width="24" height="27">
<path d="M221.528 88.9479H244.035V102.759C244.035 108.974 238.997 114.013 232.782 114.013V114.013C226.567 114.013 221.528 108.974 221.528 102.759V88.9479Z" fill="#D9D9D9"/>
</mask>
<g mask="url(#mask16_6258_102213)">
<path fill-rule="evenodd" clip-rule="evenodd" d="M236.452 100.428L235.819 100.998L236.592 101.357C239.981 102.931 242.274 106.316 242.274 110.178C242.274 111.159 241.888 112.735 241.229 114.067C240.902 114.729 240.524 115.297 240.123 115.691C239.72 116.088 239.342 116.263 239.002 116.263H226.219C225.879 116.263 225.501 116.088 225.098 115.691C224.697 115.297 224.319 114.729 223.992 114.067C223.333 112.735 222.947 111.159 222.947 110.178C222.947 106.316 225.24 102.931 228.629 101.357L229.402 100.998L228.769 100.428C227.591 99.3685 226.782 97.8523 226.782 96.1172C226.782 92.8489 229.342 90.2887 232.61 90.2887C235.879 90.2887 238.439 92.8489 238.439 96.1172C238.439 97.8523 237.63 99.3685 236.452 100.428ZM232.61 91.7198C230.127 91.7198 228.213 93.6334 228.213 96.1172C228.213 98.6009 230.127 100.515 232.61 100.515C235.094 100.515 237.008 98.6009 237.008 96.1172C237.008 93.6334 235.094 91.7198 232.61 91.7198ZM226.219 114.832H239.002C239.314 114.832 239.544 114.661 239.686 114.512C239.829 114.359 239.942 114.169 240.032 113.982C240.213 113.605 240.36 113.12 240.475 112.643C240.705 111.692 240.843 110.622 240.843 110.178C240.843 105.649 237.139 101.946 232.61 101.946C228.082 101.946 224.378 105.649 224.378 110.178C224.378 110.622 224.516 111.692 224.746 112.643C224.861 113.12 225.008 113.605 225.189 113.982C225.279 114.169 225.391 114.359 225.535 114.512C225.677 114.661 225.907 114.832 226.219 114.832Z" fill="#004357"/>
</g>
<path d="M85.7597 47.9948C85.4908 48.1506 85.1465 48.059 84.9907 47.7901L82.4518 43.4084C82.296 43.1396 82.3876 42.7953 82.6565 42.6395C82.9254 42.4837 83.2697 42.5753 83.4255 42.8442L85.6823 46.739L89.5771 44.4822C89.846 44.3264 90.1903 44.418 90.3461 44.6869C90.5019 44.9558 90.4102 45.3001 90.1413 45.4559L85.7597 47.9948ZM117.892 28.2119C110.318 26.6182 103.44 27.4253 97.9265 30.6287C92.418 33.8291 88.2024 39.4612 86.0213 47.6528L84.9338 47.3632C87.1769 38.9391 91.5493 33.0324 97.3612 29.6557C103.168 26.2819 110.343 25.4735 118.124 27.1106L117.892 28.2119Z" fill="#004357"/>
<mask id="mask17_6258_102213" style="mask-type:alpha" maskUnits="userSpaceOnUse" x="40" y="175" width="23" height="26">
<path d="M40.3701 175.293H62.8773V189.105C62.8773 195.32 57.8389 200.358 51.6237 200.358V200.358C45.4085 200.358 40.3701 195.32 40.3701 189.105V175.293Z" fill="#D9D9D9"/>
</mask>
<g mask="url(#mask17_6258_102213)">
<path fill-rule="evenodd" clip-rule="evenodd" d="M55.294 186.774L54.6608 187.344L55.4335 187.702C58.8226 189.276 61.1154 192.661 61.1154 196.523C61.1154 197.504 60.7295 199.081 60.0712 200.413C59.7441 201.075 59.366 201.642 58.9649 202.037C58.5615 202.433 58.1839 202.608 57.8434 202.608H45.0611C44.7205 202.608 44.343 202.433 43.9396 202.037C43.5385 201.642 43.1604 201.075 42.8333 200.413C42.175 199.081 41.7891 197.504 41.7891 196.523C41.7891 192.661 44.0819 189.276 47.471 187.702L48.2437 187.344L47.6105 186.774C46.4328 185.714 45.6238 184.198 45.6238 182.463C45.6238 179.194 48.1839 176.634 51.4522 176.634C54.7205 176.634 57.2807 179.194 57.2807 182.463C57.2807 184.198 56.4716 185.714 55.294 186.774ZM51.4522 178.065C48.9685 178.065 47.0549 179.979 47.0549 182.463C47.0549 184.946 48.9685 186.86 51.4522 186.86C53.936 186.86 55.8496 184.946 55.8496 182.463C55.8496 179.979 53.936 178.065 51.4522 178.065ZM45.0611 201.177H57.8434C58.1561 201.177 58.3857 201.007 58.5274 200.857C58.6713 200.705 58.7839 200.514 58.8737 200.327C59.0551 199.95 59.2019 199.466 59.3171 198.988C59.5466 198.037 59.6843 196.967 59.6843 196.523C59.6843 191.994 55.9812 188.291 51.4522 188.291C46.9233 188.291 43.2202 191.994 43.2202 196.523C43.2202 196.967 43.3578 198.037 43.5874 198.988C43.7026 199.466 43.8494 199.95 44.0308 200.327C44.1206 200.514 44.2332 200.705 44.3771 200.857C44.5188 201.007 44.7483 201.177 45.0611 201.177Z" fill="#004357"/>
</g>
<mask id="mask18_6258_102213" style="mask-type:alpha" maskUnits="userSpaceOnUse" x="71" y="175" width="24" height="26">
<path d="M71.8799 175.293H94.387V189.105C94.387 195.32 89.3486 200.358 83.1335 200.358V200.358C76.9183 200.358 71.8799 195.32 71.8799 189.105V175.293Z" fill="#D9D9D9"/>
</mask>
<g mask="url(#mask18_6258_102213)">
<path fill-rule="evenodd" clip-rule="evenodd" d="M86.8038 186.774L86.1706 187.344L86.9432 187.702C90.3324 189.276 92.6252 192.661 92.6252 196.523C92.6252 197.504 92.2392 199.081 91.5809 200.413C91.2539 201.075 90.8757 201.642 90.4746 202.037C90.0712 202.433 89.6937 202.608 89.3532 202.608H76.5708C76.2303 202.608 75.8528 202.433 75.4494 202.037C75.0483 201.642 74.6702 201.075 74.3431 200.413C73.6848 199.081 73.2988 197.504 73.2988 196.523C73.2988 192.661 75.5916 189.276 78.9808 187.702L79.7534 187.344L79.1203 186.774C77.9426 185.714 77.1335 184.198 77.1335 182.463C77.1335 179.194 79.6937 176.634 82.962 176.634C86.2303 176.634 88.7905 179.194 88.7905 182.463C88.7905 184.198 87.9814 185.714 86.8038 186.774ZM82.962 178.065C80.4783 178.065 78.5646 179.979 78.5646 182.463C78.5646 184.946 80.4783 186.86 82.962 186.86C85.4458 186.86 87.3594 184.946 87.3594 182.463C87.3594 179.979 85.4458 178.065 82.962 178.065ZM76.5708 201.177H89.3532C89.6659 201.177 89.8955 201.007 90.0371 200.857C90.181 200.705 90.2936 200.514 90.3835 200.327C90.5648 199.95 90.7117 199.466 90.8269 198.988C91.0564 198.037 91.1941 196.967 91.1941 196.523C91.1941 191.994 87.4909 188.291 82.962 188.291C78.4331 188.291 74.7299 191.994 74.7299 196.523C74.7299 196.967 74.8676 198.037 75.0971 198.988C75.2123 199.466 75.3592 199.95 75.5406 200.327C75.6304 200.514 75.743 200.705 75.8869 200.857C76.0285 201.007 76.2581 201.177 76.5708 201.177Z" fill="#004357"/>
</g>
<mask id="mask19_6258_102213" style="mask-type:alpha" maskUnits="userSpaceOnUse" x="103" y="175" width="23" height="26">
<path d="M103.391 175.293H125.898V189.105C125.898 195.32 120.859 200.358 114.644 200.358V200.358C108.429 200.358 103.391 195.32 103.391 189.105V175.293Z" fill="#D9D9D9"/>
</mask>
<g mask="url(#mask19_6258_102213)">
<path fill-rule="evenodd" clip-rule="evenodd" d="M118.314 186.774L117.681 187.344L118.454 187.702C121.843 189.276 124.136 192.661 124.136 196.523C124.136 197.504 123.75 199.081 123.092 200.413C122.765 201.075 122.386 201.642 121.985 202.037C121.582 202.433 121.204 202.608 120.864 202.608H108.082C107.741 202.608 107.364 202.433 106.96 202.037C106.559 201.642 106.181 201.075 105.854 200.413C105.196 199.081 104.81 197.504 104.81 196.523C104.81 192.661 107.102 189.276 110.492 187.702L111.264 187.344L110.631 186.774C109.453 185.714 108.644 184.198 108.644 182.463C108.644 179.194 111.204 176.634 114.473 176.634C117.741 176.634 120.301 179.194 120.301 182.463C120.301 184.198 119.492 185.714 118.314 186.774ZM114.473 178.065C111.989 178.065 110.075 179.979 110.075 182.463C110.075 184.946 111.989 186.86 114.473 186.86C116.957 186.86 118.87 184.946 118.87 182.463C118.87 179.979 116.957 178.065 114.473 178.065ZM108.082 201.177H120.864C121.177 201.177 121.406 201.007 121.548 200.857C121.692 200.705 121.804 200.514 121.894 200.327C122.076 199.95 122.222 199.466 122.338 198.988C122.567 198.037 122.705 196.967 122.705 196.523C122.705 191.994 119.002 188.291 114.473 188.291C109.944 188.291 106.241 191.994 106.241 196.523C106.241 196.967 106.378 198.037 106.608 198.988C106.723 199.466 106.87 199.95 107.051 200.327C107.141 200.514 107.254 200.705 107.398 200.857C107.539 201.007 107.769 201.177 108.082 201.177Z" fill="#004357"/>
</g>
<mask id="mask20_6258_102213" style="mask-type:alpha" maskUnits="userSpaceOnUse" x="134" y="175" width="24" height="26">
<path d="M134.9 175.293H157.408V189.105C157.408 195.32 152.369 200.358 146.154 200.358V200.358C139.939 200.358 134.9 195.32 134.9 189.105V175.293Z" fill="#D9D9D9"/>
</mask>
<g mask="url(#mask20_6258_102213)">
<path fill-rule="evenodd" clip-rule="evenodd" d="M149.824 186.774L149.191 187.344L149.964 187.702C153.353 189.276 155.646 192.661 155.646 196.523C155.646 197.504 155.26 199.081 154.601 200.413C154.274 201.075 153.896 201.642 153.495 202.037C153.092 202.433 152.714 202.608 152.374 202.608H139.591C139.251 202.608 138.873 202.433 138.47 202.037C138.069 201.642 137.691 201.075 137.364 200.413C136.705 199.081 136.319 197.504 136.319 196.523C136.319 192.661 138.612 189.276 142.001 187.702L142.774 187.344L142.141 186.774C140.963 185.714 140.154 184.198 140.154 182.463C140.154 179.194 142.714 176.634 145.983 176.634C149.251 176.634 151.811 179.194 151.811 182.463C151.811 184.198 151.002 185.714 149.824 186.774ZM145.983 178.065C143.499 178.065 141.585 179.979 141.585 182.463C141.585 184.946 143.499 186.86 145.983 186.86C148.466 186.86 150.38 184.946 150.38 182.463C150.38 179.979 148.466 178.065 145.983 178.065ZM139.591 201.177H152.374C152.686 201.177 152.916 201.007 153.058 200.857C153.202 200.705 153.314 200.514 153.404 200.327C153.585 199.95 153.732 199.466 153.847 198.988C154.077 198.037 154.215 196.967 154.215 196.523C154.215 191.994 150.511 188.291 145.983 188.291C141.454 188.291 137.75 191.994 137.75 196.523C137.75 196.967 137.888 198.037 138.118 198.988C138.233 199.466 138.38 199.95 138.561 200.327C138.651 200.514 138.763 200.705 138.907 200.857C139.049 201.007 139.279 201.177 139.591 201.177Z" fill="#004357"/>
</g>
<mask id="mask21_6258_102213" style="mask-type:alpha" maskUnits="userSpaceOnUse" x="166" y="175" width="23" height="26">
<path d="M166.41 175.293H188.917V189.105C188.917 195.32 183.879 200.358 177.664 200.358V200.358C171.449 200.358 166.41 195.32 166.41 189.105V175.293Z" fill="#D9D9D9"/>
</mask>
<g mask="url(#mask21_6258_102213)">
<path fill-rule="evenodd" clip-rule="evenodd" d="M181.334 186.774L180.701 187.344L181.473 187.702C184.863 189.276 187.155 192.661 187.155 196.523C187.155 197.504 186.769 199.081 186.111 200.413C185.784 201.075 185.406 201.642 185.005 202.037C184.602 202.433 184.224 202.608 183.883 202.608H171.101C170.761 202.608 170.383 202.433 169.98 202.037C169.579 201.642 169.2 201.075 168.873 200.413C168.215 199.081 167.829 197.504 167.829 196.523C167.829 192.661 170.122 189.276 173.511 187.702L174.284 187.344L173.651 186.774C172.473 185.714 171.664 184.198 171.664 182.463C171.664 179.194 174.224 176.634 177.492 176.634C180.761 176.634 183.321 179.194 183.321 182.463C183.321 184.198 182.512 185.714 181.334 186.774ZM177.492 178.065C175.009 178.065 173.095 179.979 173.095 182.463C173.095 184.946 175.009 186.86 177.492 186.86C179.976 186.86 181.89 184.946 181.89 182.463C181.89 179.979 179.976 178.065 177.492 178.065ZM171.101 201.177H183.883C184.196 201.177 184.426 201.007 184.567 200.857C184.711 200.705 184.824 200.514 184.914 200.327C185.095 199.95 185.242 199.466 185.357 198.988C185.587 198.037 185.724 196.967 185.724 196.523C185.724 191.994 182.021 188.291 177.492 188.291C172.963 188.291 169.26 191.994 169.26 196.523C169.26 196.967 169.398 198.037 169.627 198.988C169.743 199.466 169.889 199.95 170.071 200.327C170.161 200.514 170.273 200.705 170.417 200.857C170.559 201.007 170.788 201.177 171.101 201.177Z" fill="#004357"/>
</g>
<mask id="mask22_6258_102213" style="mask-type:alpha" maskUnits="userSpaceOnUse" x="197" y="175" width="24" height="26">
<path d="M197.92 175.293H220.427V189.105C220.427 195.32 215.389 200.358 209.174 200.358V200.358C202.958 200.358 197.92 195.32 197.92 189.105V175.293Z" fill="#D9D9D9"/>
</mask>
<g mask="url(#mask22_6258_102213)">
<path fill-rule="evenodd" clip-rule="evenodd" d="M212.844 186.774L212.211 187.344L212.983 187.702C216.372 189.276 218.665 192.661 218.665 196.523C218.665 197.504 218.279 199.081 217.621 200.413C217.294 201.075 216.916 201.642 216.515 202.037C216.111 202.433 215.734 202.608 215.393 202.608H202.611C202.27 202.608 201.893 202.433 201.489 202.037C201.088 201.642 200.71 201.075 200.383 200.413C199.725 199.081 199.339 197.504 199.339 196.523C199.339 192.661 201.632 189.276 205.021 187.702L205.793 187.344L205.16 186.774C203.983 185.714 203.174 184.198 203.174 182.463C203.174 179.194 205.734 176.634 209.002 176.634C212.27 176.634 214.831 179.194 214.831 182.463C214.831 184.198 214.021 185.714 212.844 186.774ZM209.002 178.065C206.518 178.065 204.605 179.979 204.605 182.463C204.605 184.946 206.518 186.86 209.002 186.86C211.486 186.86 213.399 184.946 213.399 182.463C213.399 179.979 211.486 178.065 209.002 178.065ZM202.611 201.177H215.393C215.706 201.177 215.936 201.007 216.077 200.857C216.221 200.705 216.334 200.514 216.423 200.327C216.605 199.95 216.752 199.466 216.867 198.988C217.096 198.037 217.234 196.967 217.234 196.523C217.234 191.994 213.531 188.291 209.002 188.291C204.473 188.291 200.77 191.994 200.77 196.523C200.77 196.967 200.908 198.037 201.137 198.988C201.252 199.466 201.399 199.95 201.581 200.327C201.67 200.514 201.783 200.705 201.927 200.857C202.069 201.007 202.298 201.177 202.611 201.177Z" fill="#004357"/>
</g>
<mask id="mask23_6258_102213" style="mask-type:alpha" maskUnits="userSpaceOnUse" x="229" y="175" width="23" height="26">
<path d="M229.431 175.293H251.938V189.105C251.938 195.32 246.899 200.358 240.684 200.358V200.358C234.469 200.358 229.431 195.32 229.431 189.105V175.293Z" fill="#D9D9D9"/>
</mask>
<g mask="url(#mask23_6258_102213)">
<path fill-rule="evenodd" clip-rule="evenodd" d="M244.355 186.774L243.721 187.344L244.494 187.702C247.883 189.276 250.176 192.661 250.176 196.523C250.176 197.504 249.79 199.081 249.132 200.413C248.805 201.075 248.427 201.642 248.025 202.037C247.622 202.433 247.244 202.608 246.904 202.608H234.122C233.781 202.608 233.404 202.433 233 202.037C232.599 201.642 232.221 201.075 231.894 200.413C231.236 199.081 230.85 197.504 230.85 196.523C230.85 192.661 233.142 189.276 236.532 187.702L237.304 187.344L236.671 186.774C235.493 185.714 234.684 184.198 234.684 182.463C234.684 179.194 237.244 176.634 240.513 176.634C243.781 176.634 246.341 179.194 246.341 182.463C246.341 184.198 245.532 185.714 244.355 186.774ZM240.513 178.065C238.029 178.065 236.115 179.979 236.115 182.463C236.115 184.946 238.029 186.86 240.513 186.86C242.997 186.86 244.91 184.946 244.91 182.463C244.91 179.979 242.997 178.065 240.513 178.065ZM234.122 201.177H246.904C247.217 201.177 247.446 201.007 247.588 200.857C247.732 200.705 247.844 200.514 247.934 200.327C248.116 199.95 248.262 199.466 248.378 198.988C248.607 198.037 248.745 196.967 248.745 196.523C248.745 191.994 245.042 188.291 240.513 188.291C235.984 188.291 232.281 191.994 232.281 196.523C232.281 196.967 232.418 198.037 232.648 198.988C232.763 199.466 232.91 199.95 233.091 200.327C233.181 200.514 233.294 200.705 233.438 200.857C233.579 201.007 233.809 201.177 234.122 201.177Z" fill="#004357"/>
</g>
<mask id="mask24_6258_102213" style="mask-type:alpha" maskUnits="userSpaceOnUse" x="260" y="175" width="24" height="26">
<path d="M260.94 175.293H283.448V189.105C283.448 195.32 278.409 200.358 272.194 200.358V200.358C265.979 200.358 260.94 195.32 260.94 189.105V175.293Z" fill="#D9D9D9"/>
</mask>
<g mask="url(#mask24_6258_102213)">
<path fill-rule="evenodd" clip-rule="evenodd" d="M275.864 186.774L275.231 187.344L276.004 187.702C279.393 189.276 281.686 192.661 281.686 196.523C281.686 197.504 281.3 199.081 280.641 200.413C280.314 201.075 279.936 201.642 279.535 202.037C279.132 202.433 278.754 202.608 278.414 202.608H265.631C265.291 202.608 264.913 202.433 264.51 202.037C264.109 201.642 263.731 201.075 263.404 200.413C262.745 199.081 262.359 197.504 262.359 196.523C262.359 192.661 264.652 189.276 268.041 187.702L268.814 187.344L268.181 186.774C267.003 185.714 266.194 184.198 266.194 182.463C266.194 179.194 268.754 176.634 272.023 176.634C275.291 176.634 277.851 179.194 277.851 182.463C277.851 184.198 277.042 185.714 275.864 186.774ZM272.023 178.065C269.539 178.065 267.625 179.979 267.625 182.463C267.625 184.946 269.539 186.86 272.023 186.86C274.506 186.86 276.42 184.946 276.42 182.463C276.42 179.979 274.506 178.065 272.023 178.065ZM265.631 201.177H278.414C278.726 201.177 278.956 201.007 279.098 200.857C279.242 200.705 279.354 200.514 279.444 200.327C279.625 199.95 279.772 199.466 279.887 198.988C280.117 198.037 280.255 196.967 280.255 196.523C280.255 191.994 276.551 188.291 272.023 188.291C267.494 188.291 263.79 191.994 263.79 196.523C263.79 196.967 263.928 198.037 264.158 198.988C264.273 199.466 264.42 199.95 264.601 200.327C264.691 200.514 264.804 200.705 264.947 200.857C265.089 201.007 265.319 201.177 265.631 201.177Z" fill="#004357"/>
</g>
<mask id="mask25_6258_102213" style="mask-type:alpha" maskUnits="userSpaceOnUse" x="292" y="175" width="23" height="26">
<path d="M292.45 175.293H314.957V189.105C314.957 195.32 309.919 200.358 303.704 200.358V200.358C297.489 200.358 292.45 195.32 292.45 189.105V175.293Z" fill="#D9D9D9"/>
</mask>
<g mask="url(#mask25_6258_102213)">
<path fill-rule="evenodd" clip-rule="evenodd" d="M307.374 186.774L306.741 187.344L307.514 187.702C310.903 189.276 313.195 192.661 313.195 196.523C313.195 197.504 312.81 199.081 312.151 200.413C311.824 201.075 311.446 201.642 311.045 202.037C310.642 202.433 310.264 202.608 309.923 202.608H297.141C296.801 202.608 296.423 202.433 296.02 202.037C295.619 201.642 295.24 201.075 294.913 200.413C294.255 199.081 293.869 197.504 293.869 196.523C293.869 192.661 296.162 189.276 299.551 187.702L300.324 187.344L299.691 186.774C298.513 185.714 297.704 184.198 297.704 182.463C297.704 179.194 300.264 176.634 303.532 176.634C306.801 176.634 309.361 179.194 309.361 182.463C309.361 184.198 308.552 185.714 307.374 186.774ZM303.532 178.065C301.049 178.065 299.135 179.979 299.135 182.463C299.135 184.946 301.049 186.86 303.532 186.86C306.016 186.86 307.93 184.946 307.93 182.463C307.93 179.979 306.016 178.065 303.532 178.065ZM297.141 201.177H309.923C310.236 201.177 310.466 201.007 310.607 200.857C310.751 200.705 310.864 200.514 310.954 200.327C311.135 199.95 311.282 199.466 311.397 198.988C311.627 198.037 311.764 196.967 311.764 196.523C311.764 191.994 308.061 188.291 303.532 188.291C299.003 188.291 295.3 191.994 295.3 196.523C295.3 196.967 295.438 198.037 295.667 198.988C295.783 199.466 295.929 199.95 296.111 200.327C296.201 200.514 296.313 200.705 296.457 200.857C296.599 201.007 296.828 201.177 297.141 201.177Z" fill="#004357"/>
</g>
<mask id="mask26_6258_102213" style="mask-type:alpha" maskUnits="userSpaceOnUse" x="71" y="209" width="24" height="26">
<path d="M71.8799 209.361H94.387V223.172C94.387 229.387 89.3486 234.426 83.1335 234.426V234.426C76.9183 234.426 71.8799 229.387 71.8799 223.172V209.361Z" fill="#D9D9D9"/>
</mask>
<g mask="url(#mask26_6258_102213)">
<path fill-rule="evenodd" clip-rule="evenodd" d="M86.8038 220.841L86.1706 221.411L86.9432 221.77C90.3324 223.344 92.6252 226.729 92.6252 230.591C92.6252 231.572 92.2392 233.148 91.5809 234.48C91.2539 235.142 90.8757 235.71 90.4746 236.104C90.0712 236.501 89.6937 236.676 89.3532 236.676H76.5708C76.2303 236.676 75.8528 236.501 75.4494 236.104C75.0483 235.71 74.6702 235.142 74.3431 234.48C73.6848 233.148 73.2988 231.572 73.2988 230.591C73.2988 226.729 75.5916 223.344 78.9808 221.77L79.7534 221.411L79.1203 220.841C77.9426 219.782 77.1335 218.265 77.1335 216.53C77.1335 213.262 79.6937 210.702 82.962 210.702C86.2303 210.702 88.7905 213.262 88.7905 216.53C88.7905 218.265 87.9814 219.782 86.8038 220.841ZM82.962 212.133C80.4783 212.133 78.5646 214.047 78.5646 216.53C78.5646 219.014 80.4783 220.928 82.962 220.928C85.4458 220.928 87.3594 219.014 87.3594 216.53C87.3594 214.047 85.4458 212.133 82.962 212.133ZM76.5708 235.245H89.3532C89.6659 235.245 89.8955 235.074 90.0371 234.925C90.181 234.773 90.2936 234.582 90.3835 234.395C90.5648 234.018 90.7117 233.534 90.8269 233.056C91.0564 232.105 91.1941 231.035 91.1941 230.591C91.1941 226.062 87.4909 222.359 82.962 222.359C78.4331 222.359 74.7299 226.062 74.7299 230.591C74.7299 231.035 74.8676 232.105 75.0971 233.056C75.2123 233.534 75.3592 234.018 75.5406 234.395C75.6304 234.582 75.743 234.773 75.8869 234.925C76.0285 235.074 76.2581 235.245 76.5708 235.245Z" fill="#004357"/>
</g>
<mask id="mask27_6258_102213" style="mask-type:alpha" maskUnits="userSpaceOnUse" x="103" y="209" width="23" height="26">
<path d="M103.391 209.361H125.898V223.172C125.898 229.387 120.859 234.426 114.644 234.426V234.426C108.429 234.426 103.391 229.387 103.391 223.172V209.361Z" fill="#D9D9D9"/>
</mask>
<g mask="url(#mask27_6258_102213)">
<path fill-rule="evenodd" clip-rule="evenodd" d="M118.314 220.841L117.681 221.411L118.454 221.77C121.843 223.344 124.136 226.729 124.136 230.591C124.136 231.572 123.75 233.148 123.092 234.48C122.765 235.142 122.386 235.71 121.985 236.104C121.582 236.501 121.204 236.676 120.864 236.676H108.082C107.741 236.676 107.364 236.501 106.96 236.104C106.559 235.71 106.181 235.142 105.854 234.48C105.196 233.148 104.81 231.572 104.81 230.591C104.81 226.729 107.102 223.344 110.492 221.77L111.264 221.411L110.631 220.841C109.453 219.782 108.644 218.265 108.644 216.53C108.644 213.262 111.204 210.702 114.473 210.702C117.741 210.702 120.301 213.262 120.301 216.53C120.301 218.265 119.492 219.782 118.314 220.841ZM114.473 212.133C111.989 212.133 110.075 214.047 110.075 216.53C110.075 219.014 111.989 220.928 114.473 220.928C116.957 220.928 118.87 219.014 118.87 216.53C118.87 214.047 116.957 212.133 114.473 212.133ZM108.082 235.245H120.864C121.177 235.245 121.406 235.074 121.548 234.925C121.692 234.773 121.804 234.582 121.894 234.395C122.076 234.018 122.222 233.534 122.338 233.056C122.567 232.105 122.705 231.035 122.705 230.591C122.705 226.062 119.002 222.359 114.473 222.359C109.944 222.359 106.241 226.062 106.241 230.591C106.241 231.035 106.378 232.105 106.608 233.056C106.723 233.534 106.87 234.018 107.051 234.395C107.141 234.582 107.254 234.773 107.398 234.925C107.539 235.074 107.769 235.245 108.082 235.245Z" fill="#004357"/>
</g>
<mask id="mask28_6258_102213" style="mask-type:alpha" maskUnits="userSpaceOnUse" x="134" y="209" width="24" height="26">
<path d="M134.9 209.361H157.408V223.172C157.408 229.387 152.369 234.426 146.154 234.426V234.426C139.939 234.426 134.9 229.387 134.9 223.172V209.361Z" fill="#D9D9D9"/>
</mask>
<g mask="url(#mask28_6258_102213)">
<path fill-rule="evenodd" clip-rule="evenodd" d="M149.824 220.841L149.191 221.411L149.964 221.77C153.353 223.344 155.646 226.729 155.646 230.591C155.646 231.572 155.26 233.148 154.601 234.48C154.274 235.142 153.896 235.71 153.495 236.104C153.092 236.501 152.714 236.676 152.374 236.676H139.591C139.251 236.676 138.873 236.501 138.47 236.104C138.069 235.71 137.691 235.142 137.364 234.48C136.705 233.148 136.319 231.572 136.319 230.591C136.319 226.729 138.612 223.344 142.001 221.77L142.774 221.411L142.141 220.841C140.963 219.782 140.154 218.265 140.154 216.53C140.154 213.262 142.714 210.702 145.983 210.702C149.251 210.702 151.811 213.262 151.811 216.53C151.811 218.265 151.002 219.782 149.824 220.841ZM145.983 212.133C143.499 212.133 141.585 214.047 141.585 216.53C141.585 219.014 143.499 220.928 145.983 220.928C148.466 220.928 150.38 219.014 150.38 216.53C150.38 214.047 148.466 212.133 145.983 212.133ZM139.591 235.245H152.374C152.686 235.245 152.916 235.074 153.058 234.925C153.202 234.773 153.314 234.582 153.404 234.395C153.585 234.018 153.732 233.534 153.847 233.056C154.077 232.105 154.215 231.035 154.215 230.591C154.215 226.062 150.511 222.359 145.983 222.359C141.454 222.359 137.75 226.062 137.75 230.591C137.75 231.035 137.888 232.105 138.118 233.056C138.233 233.534 138.38 234.018 138.561 234.395C138.651 234.582 138.763 234.773 138.907 234.925C139.049 235.074 139.279 235.245 139.591 235.245Z" fill="#004357"/>
</g>
<mask id="mask29_6258_102213" style="mask-type:alpha" maskUnits="userSpaceOnUse" x="166" y="209" width="23" height="26">
<path d="M166.41 209.361H188.917V223.172C188.917 229.387 183.879 234.426 177.664 234.426V234.426C171.449 234.426 166.41 229.387 166.41 223.172V209.361Z" fill="#D9D9D9"/>
</mask>
<g mask="url(#mask29_6258_102213)">
<path fill-rule="evenodd" clip-rule="evenodd" d="M181.334 220.841L180.701 221.411L181.473 221.77C184.863 223.344 187.155 226.729 187.155 230.591C187.155 231.572 186.769 233.148 186.111 234.48C185.784 235.142 185.406 235.71 185.005 236.104C184.602 236.501 184.224 236.676 183.883 236.676H171.101C170.761 236.676 170.383 236.501 169.98 236.104C169.579 235.71 169.2 235.142 168.873 234.48C168.215 233.148 167.829 231.572 167.829 230.591C167.829 226.729 170.122 223.344 173.511 221.77L174.284 221.411L173.651 220.841C172.473 219.782 171.664 218.265 171.664 216.53C171.664 213.262 174.224 210.702 177.492 210.702C180.761 210.702 183.321 213.262 183.321 216.53C183.321 218.265 182.512 219.782 181.334 220.841ZM177.492 212.133C175.009 212.133 173.095 214.047 173.095 216.53C173.095 219.014 175.009 220.928 177.492 220.928C179.976 220.928 181.89 219.014 181.89 216.53C181.89 214.047 179.976 212.133 177.492 212.133ZM171.101 235.245H183.883C184.196 235.245 184.426 235.074 184.567 234.925C184.711 234.773 184.824 234.582 184.914 234.395C185.095 234.018 185.242 233.534 185.357 233.056C185.587 232.105 185.724 231.035 185.724 230.591C185.724 226.062 182.021 222.359 177.492 222.359C172.963 222.359 169.26 226.062 169.26 230.591C169.26 231.035 169.398 232.105 169.627 233.056C169.743 233.534 169.889 234.018 170.071 234.395C170.161 234.582 170.273 234.773 170.417 234.925C170.559 235.074 170.788 235.245 171.101 235.245Z" fill="#004357"/>
</g>
<mask id="mask30_6258_102213" style="mask-type:alpha" maskUnits="userSpaceOnUse" x="197" y="209" width="24" height="26">
<path d="M197.92 209.361H220.427V223.172C220.427 229.387 215.389 234.426 209.174 234.426V234.426C202.958 234.426 197.92 229.387 197.92 223.172V209.361Z" fill="#D9D9D9"/>
</mask>
<g mask="url(#mask30_6258_102213)">
<path fill-rule="evenodd" clip-rule="evenodd" d="M212.844 220.841L212.211 221.411L212.983 221.77C216.372 223.344 218.665 226.729 218.665 230.591C218.665 231.572 218.279 233.148 217.621 234.48C217.294 235.142 216.916 235.71 216.515 236.104C216.111 236.501 215.734 236.676 215.393 236.676H202.611C202.27 236.676 201.893 236.501 201.489 236.104C201.088 235.71 200.71 235.142 200.383 234.48C199.725 233.148 199.339 231.572 199.339 230.591C199.339 226.729 201.632 223.344 205.021 221.77L205.793 221.411L205.16 220.841C203.983 219.782 203.174 218.265 203.174 216.53C203.174 213.262 205.734 210.702 209.002 210.702C212.27 210.702 214.831 213.262 214.831 216.53C214.831 218.265 214.021 219.782 212.844 220.841ZM209.002 212.133C206.518 212.133 204.605 214.047 204.605 216.53C204.605 219.014 206.518 220.928 209.002 220.928C211.486 220.928 213.399 219.014 213.399 216.53C213.399 214.047 211.486 212.133 209.002 212.133ZM202.611 235.245H215.393C215.706 235.245 215.936 235.074 216.077 234.925C216.221 234.773 216.334 234.582 216.423 234.395C216.605 234.018 216.752 233.534 216.867 233.056C217.096 232.105 217.234 231.035 217.234 230.591C217.234 226.062 213.531 222.359 209.002 222.359C204.473 222.359 200.77 226.062 200.77 230.591C200.77 231.035 200.908 232.105 201.137 233.056C201.252 233.534 201.399 234.018 201.581 234.395C201.67 234.582 201.783 234.773 201.927 234.925C202.069 235.074 202.298 235.245 202.611 235.245Z" fill="#004357"/>
</g>
<mask id="mask31_6258_102213" style="mask-type:alpha" maskUnits="userSpaceOnUse" x="229" y="209" width="23" height="26">
<path d="M229.431 209.361H251.938V223.172C251.938 229.387 246.899 234.426 240.684 234.426V234.426C234.469 234.426 229.431 229.387 229.431 223.172V209.361Z" fill="#D9D9D9"/>
</mask>
<g mask="url(#mask31_6258_102213)">
<path fill-rule="evenodd" clip-rule="evenodd" d="M244.355 220.841L243.721 221.411L244.494 221.77C247.883 223.344 250.176 226.729 250.176 230.591C250.176 231.572 249.79 233.148 249.132 234.48C248.805 235.142 248.427 235.71 248.025 236.104C247.622 236.501 247.244 236.676 246.904 236.676H234.122C233.781 236.676 233.404 236.501 233 236.104C232.599 235.71 232.221 235.142 231.894 234.48C231.236 233.148 230.85 231.572 230.85 230.591C230.85 226.729 233.142 223.344 236.532 221.77L237.304 221.411L236.671 220.841C235.493 219.782 234.684 218.265 234.684 216.53C234.684 213.262 237.244 210.702 240.513 210.702C243.781 210.702 246.341 213.262 246.341 216.53C246.341 218.265 245.532 219.782 244.355 220.841ZM240.513 212.133C238.029 212.133 236.115 214.047 236.115 216.53C236.115 219.014 238.029 220.928 240.513 220.928C242.997 220.928 244.91 219.014 244.91 216.53C244.91 214.047 242.997 212.133 240.513 212.133ZM234.122 235.245H246.904C247.217 235.245 247.446 235.074 247.588 234.925C247.732 234.773 247.844 234.582 247.934 234.395C248.116 234.018 248.262 233.534 248.378 233.056C248.607 232.105 248.745 231.035 248.745 230.591C248.745 226.062 245.042 222.359 240.513 222.359C235.984 222.359 232.281 226.062 232.281 230.591C232.281 231.035 232.418 232.105 232.648 233.056C232.763 233.534 232.91 234.018 233.091 234.395C233.181 234.582 233.294 234.773 233.438 234.925C233.579 235.074 233.809 235.245 234.122 235.245Z" fill="#004357"/>
</g>
<mask id="mask32_6258_102213" style="mask-type:alpha" maskUnits="userSpaceOnUse" x="260" y="209" width="24" height="26">
<path d="M260.94 209.361H283.448V223.172C283.448 229.387 278.409 234.426 272.194 234.426V234.426C265.979 234.426 260.94 229.387 260.94 223.172V209.361Z" fill="#D9D9D9"/>
</mask>
<g mask="url(#mask32_6258_102213)">
<path fill-rule="evenodd" clip-rule="evenodd" d="M275.864 220.841L275.231 221.411L276.004 221.77C279.393 223.344 281.686 226.729 281.686 230.591C281.686 231.572 281.3 233.148 280.641 234.48C280.314 235.142 279.936 235.71 279.535 236.104C279.132 236.501 278.754 236.676 278.414 236.676H265.631C265.291 236.676 264.913 236.501 264.51 236.104C264.109 235.71 263.731 235.142 263.404 234.48C262.745 233.148 262.359 231.572 262.359 230.591C262.359 226.729 264.652 223.344 268.041 221.77L268.814 221.411L268.181 220.841C267.003 219.782 266.194 218.265 266.194 216.53C266.194 213.262 268.754 210.702 272.023 210.702C275.291 210.702 277.851 213.262 277.851 216.53C277.851 218.265 277.042 219.782 275.864 220.841ZM272.023 212.133C269.539 212.133 267.625 214.047 267.625 216.53C267.625 219.014 269.539 220.928 272.023 220.928C274.506 220.928 276.42 219.014 276.42 216.53C276.42 214.047 274.506 212.133 272.023 212.133ZM265.631 235.245H278.414C278.726 235.245 278.956 235.074 279.098 234.925C279.242 234.773 279.354 234.582 279.444 234.395C279.625 234.018 279.772 233.534 279.887 233.056C280.117 232.105 280.255 231.035 280.255 230.591C280.255 226.062 276.551 222.359 272.023 222.359C267.494 222.359 263.79 226.062 263.79 230.591C263.79 231.035 263.928 232.105 264.158 233.056C264.273 233.534 264.42 234.018 264.601 234.395C264.691 234.582 264.804 234.773 264.947 234.925C265.089 235.074 265.319 235.245 265.631 235.245Z" fill="#004357"/>
</g>
<mask id="mask33_6258_102213" style="mask-type:alpha" maskUnits="userSpaceOnUse" x="292" y="209" width="23" height="26">
<path d="M292.45 209.361H314.957V223.172C314.957 229.387 309.919 234.426 303.704 234.426V234.426C297.489 234.426 292.45 229.387 292.45 223.172V209.361Z" fill="#D9D9D9"/>
</mask>
<g mask="url(#mask33_6258_102213)">
<path fill-rule="evenodd" clip-rule="evenodd" d="M307.374 220.841L306.741 221.411L307.514 221.77C310.903 223.344 313.195 226.729 313.195 230.591C313.195 231.572 312.81 233.148 312.151 234.48C311.824 235.142 311.446 235.71 311.045 236.104C310.642 236.501 310.264 236.676 309.923 236.676H297.141C296.801 236.676 296.423 236.501 296.02 236.104C295.619 235.71 295.24 235.142 294.913 234.48C294.255 233.148 293.869 231.572 293.869 230.591C293.869 226.729 296.162 223.344 299.551 221.77L300.324 221.411L299.691 220.841C298.513 219.782 297.704 218.265 297.704 216.53C297.704 213.262 300.264 210.702 303.532 210.702C306.801 210.702 309.361 213.262 309.361 216.53C309.361 218.265 308.552 219.782 307.374 220.841ZM303.532 212.133C301.049 212.133 299.135 214.047 299.135 216.53C299.135 219.014 301.049 220.928 303.532 220.928C306.016 220.928 307.93 219.014 307.93 216.53C307.93 214.047 306.016 212.133 303.532 212.133ZM297.141 235.245H309.923C310.236 235.245 310.466 235.074 310.607 234.925C310.751 234.773 310.864 234.582 310.954 234.395C311.135 234.018 311.282 233.534 311.397 233.056C311.627 232.105 311.764 231.035 311.764 230.591C311.764 226.062 308.061 222.359 303.532 222.359C299.003 222.359 295.3 226.062 295.3 230.591C295.3 231.035 295.438 232.105 295.667 233.056C295.783 233.534 295.929 234.018 296.111 234.395C296.201 234.582 296.313 234.773 296.457 234.925C296.599 235.074 296.828 235.245 297.141 235.245Z" fill="#004357"/>
</g>
<path d="M229.455 168.408C229.724 168.564 230.068 168.472 230.224 168.203L232.763 163.821C232.919 163.553 232.827 163.208 232.558 163.052C232.289 162.897 231.945 162.988 231.789 163.257L229.533 167.152L225.638 164.895C225.369 164.739 225.025 164.831 224.869 165.1C224.713 165.369 224.805 165.713 225.074 165.869L229.455 168.408ZM197.323 148.625C204.897 147.031 211.775 147.838 217.288 151.042C222.797 154.242 227.012 159.874 229.194 168.066L230.281 167.776C228.038 159.352 223.666 153.445 217.854 150.069C212.047 146.695 204.871 145.886 197.091 147.524L197.323 148.625Z" fill="#004357"/>
</svg>
