<svg width="320" height="235" viewBox="0 0 320 235" fill="none" xmlns="http://www.w3.org/2000/svg">
<mask id="mask0_6262_106858" style="mask-type:alpha" maskUnits="userSpaceOnUse" x="0" y="54" width="24" height="26">
<path d="M0.958008 54.5802H23.4652V68.3915C23.4652 74.6067 18.4268 79.6451 12.2116 79.6451V79.6451C5.99641 79.6451 0.958008 74.6067 0.958008 68.3915V54.5802Z" fill="#D9D9D9"/>
</mask>
<g mask="url(#mask0_6262_106858)">
<path fill-rule="evenodd" clip-rule="evenodd" d="M15.8819 66.0607L15.2487 66.6306L16.0213 66.9893C19.4105 68.5629 21.7033 71.9482 21.7033 75.8101C21.7033 76.7909 21.3173 78.3675 20.6591 79.6997C20.332 80.3616 19.9539 80.9294 19.5528 81.3237C19.1494 81.7202 18.7718 81.8955 18.4313 81.8955H5.64897C5.30842 81.8955 4.9309 81.7202 4.5275 81.3237C4.1264 80.9294 3.74828 80.3616 3.4212 79.6997C2.76292 78.3675 2.37695 76.7909 2.37695 75.8101C2.37695 71.9482 4.66977 68.5629 8.05892 66.9893L8.83156 66.6306L8.19838 66.0607C7.02074 65.0009 6.21165 63.4847 6.21165 61.7495C6.21165 58.4812 8.77184 55.921 12.0401 55.921C15.3084 55.921 17.8686 58.4812 17.8686 61.7495C17.8686 63.4847 17.0595 65.0009 15.8819 66.0607ZM12.0401 57.3521C9.55638 57.3521 7.64276 59.2657 7.64276 61.7495C7.64276 64.2333 9.55638 66.1469 12.0401 66.1469C14.5239 66.1469 16.4375 64.2333 16.4375 61.7495C16.4375 59.2657 14.5239 57.3521 12.0401 57.3521ZM5.64897 80.4644H18.4313C18.744 80.4644 18.9736 80.2937 19.1153 80.1439C19.2591 79.9917 19.3718 79.8008 19.4616 79.6142C19.643 79.2374 19.7898 78.7528 19.905 78.2755C20.1345 77.3241 20.2722 76.254 20.2722 75.8101C20.2722 71.2811 16.5691 67.578 12.0401 67.578C7.51121 67.578 3.80806 71.2811 3.80806 75.8101C3.80806 76.254 3.94572 77.3241 4.17527 78.2755C4.29046 78.7528 4.4373 79.2374 4.61868 79.6142C4.7085 79.8008 4.82111 79.9917 4.96501 80.1439C5.10666 80.2937 5.33624 80.4644 5.64897 80.4644Z" fill="#004357"/>
</g>
<mask id="mask1_6262_106858" style="mask-type:alpha" maskUnits="userSpaceOnUse" x="32" y="54" width="23" height="26">
<path d="M32.4678 54.5802H54.9749V68.3915C54.9749 74.6067 49.9365 79.6451 43.7214 79.6451V79.6451C37.5062 79.6451 32.4678 74.6067 32.4678 68.3915V54.5802Z" fill="#D9D9D9"/>
</mask>
<g mask="url(#mask1_6262_106858)">
<path fill-rule="evenodd" clip-rule="evenodd" d="M47.3916 66.0607L46.7585 66.6306L47.5311 66.9893C50.9203 68.5629 53.2131 71.9482 53.2131 75.8101C53.2131 76.7909 52.8271 78.3675 52.1688 79.6997C51.8417 80.3616 51.4636 80.9294 51.0625 81.3237C50.6591 81.7202 50.2816 81.8955 49.9411 81.8955H37.1587C36.8182 81.8955 36.4407 81.7202 36.0373 81.3237C35.6362 80.9294 35.2581 80.3616 34.931 79.6997C34.2727 78.3675 33.8867 76.7909 33.8867 75.8101C33.8867 71.9482 36.1795 68.5629 39.5687 66.9893L40.3413 66.6306L39.7081 66.0607C38.5305 65.0009 37.7214 63.4847 37.7214 61.7495C37.7214 58.4812 40.2816 55.921 43.5499 55.921C46.8182 55.921 49.3784 58.4812 49.3784 61.7495C49.3784 63.4847 48.5693 65.0009 47.3916 66.0607ZM43.5499 57.3521C41.0661 57.3521 39.1525 59.2657 39.1525 61.7495C39.1525 64.2333 41.0661 66.1469 43.5499 66.1469C46.0336 66.1469 47.9473 64.2333 47.9473 61.7495C47.9473 59.2657 46.0336 57.3521 43.5499 57.3521ZM37.1587 80.4644H49.9411C50.2538 80.4644 50.4834 80.2937 50.625 80.1439C50.7689 79.9917 50.8815 79.8008 50.9713 79.6142C51.1527 79.2374 51.2996 78.7528 51.4148 78.2755C51.6443 77.3241 51.782 76.254 51.782 75.8101C51.782 71.2811 48.0788 67.578 43.5499 67.578C39.021 67.578 35.3178 71.2811 35.3178 75.8101C35.3178 76.254 35.4555 77.3241 35.685 78.2755C35.8002 78.7528 35.9471 79.2374 36.1284 79.6142C36.2183 79.8008 36.3309 79.9917 36.4748 80.1439C36.6164 80.2937 36.846 80.4644 37.1587 80.4644Z" fill="#004357"/>
</g>
<mask id="mask2_6262_106858" style="mask-type:alpha" maskUnits="userSpaceOnUse" x="63" y="54" width="24" height="26">
<path d="M63.9785 54.5802H86.4857V68.3915C86.4857 74.6067 81.4473 79.6451 75.2321 79.6451V79.6451C69.0169 79.6451 63.9785 74.6067 63.9785 68.3915V54.5802Z" fill="#D9D9D9"/>
</mask>
<g mask="url(#mask2_6262_106858)">
<path fill-rule="evenodd" clip-rule="evenodd" d="M78.9024 66.0607L78.2692 66.6306L79.0419 66.9893C82.431 68.5629 84.7238 71.9482 84.7238 75.8101C84.7238 76.7909 84.3379 78.3675 83.6796 79.6997C83.3525 80.3616 82.9744 80.9294 82.5733 81.3237C82.1699 81.7202 81.7923 81.8955 81.4518 81.8955H68.6695C68.3289 81.8955 67.9514 81.7202 67.548 81.3237C67.1469 80.9294 66.7688 80.3616 66.4417 79.6997C65.7834 78.3675 65.3975 76.7909 65.3975 75.8101C65.3975 71.9482 67.6903 68.5629 71.0794 66.9893L71.8521 66.6306L71.2189 66.0607C70.0412 65.0009 69.2322 63.4847 69.2322 61.7495C69.2322 58.4812 71.7923 55.921 75.0606 55.921C78.3289 55.921 80.8891 58.4812 80.8891 61.7495C80.8891 63.4847 80.08 65.0009 78.9024 66.0607ZM75.0606 57.3521C72.5769 57.3521 70.6633 59.2657 70.6633 61.7495C70.6633 64.2333 72.5769 66.1469 75.0606 66.1469C77.5444 66.1469 79.458 64.2333 79.458 61.7495C79.458 59.2657 77.5444 57.3521 75.0606 57.3521ZM68.6695 80.4644H81.4518C81.7645 80.4644 81.9941 80.2937 82.1358 80.1439C82.2797 79.9917 82.3923 79.8008 82.4821 79.6142C82.6635 79.2374 82.8103 78.7528 82.9255 78.2755C83.155 77.3241 83.2927 76.254 83.2927 75.8101C83.2927 71.2811 79.5896 67.578 75.0606 67.578C70.5317 67.578 66.8286 71.2811 66.8286 75.8101C66.8286 76.254 66.9662 77.3241 67.1958 78.2755C67.311 78.7528 67.4578 79.2374 67.6392 79.6142C67.729 79.8008 67.8416 79.9917 67.9855 80.1439C68.1272 80.2937 68.3567 80.4644 68.6695 80.4644Z" fill="#004357"/>
</g>
<mask id="mask3_6262_106858" style="mask-type:alpha" maskUnits="userSpaceOnUse" x="95" y="54" width="23" height="26">
<path d="M95.4883 54.5802H117.995V68.3915C117.995 74.6067 112.957 79.6451 106.742 79.6451V79.6451C100.527 79.6451 95.4883 74.6067 95.4883 68.3915V54.5802Z" fill="#D9D9D9"/>
</mask>
<g mask="url(#mask3_6262_106858)">
<path fill-rule="evenodd" clip-rule="evenodd" d="M110.412 66.0607L109.779 66.6306L110.552 66.9893C113.941 68.5629 116.234 71.9482 116.234 75.8101C116.234 76.7909 115.848 78.3675 115.189 79.6997C114.862 80.3616 114.484 80.9294 114.083 81.3237C113.68 81.7202 113.302 81.8955 112.962 81.8955H100.179C99.8387 81.8955 99.4612 81.7202 99.0578 81.3237C98.6567 80.9294 98.2786 80.3616 97.9515 79.6997C97.2932 78.3675 96.9072 76.7909 96.9072 75.8101C96.9072 71.9482 99.2 68.5629 102.589 66.9893L103.362 66.6306L102.729 66.0607C101.551 65.0009 100.742 63.4847 100.742 61.7495C100.742 58.4812 103.302 55.921 106.57 55.921C109.839 55.921 112.399 58.4812 112.399 61.7495C112.399 63.4847 111.59 65.0009 110.412 66.0607ZM106.57 57.3521C104.087 57.3521 102.173 59.2657 102.173 61.7495C102.173 64.2333 104.087 66.1469 106.57 66.1469C109.054 66.1469 110.968 64.2333 110.968 61.7495C110.968 59.2657 109.054 57.3521 106.57 57.3521ZM100.179 80.4644H112.962C113.274 80.4644 113.504 80.2937 113.646 80.1439C113.789 79.9917 113.902 79.8008 113.992 79.6142C114.173 79.2374 114.32 78.7528 114.435 78.2755C114.665 77.3241 114.802 76.254 114.802 75.8101C114.802 71.2811 111.099 67.578 106.57 67.578C102.041 67.578 98.3383 71.2811 98.3383 75.8101C98.3383 76.254 98.476 77.3241 98.7055 78.2755C98.8207 78.7528 98.9676 79.2374 99.149 79.6142C99.2388 79.8008 99.3514 79.9917 99.4953 80.1439C99.6369 80.2937 99.8665 80.4644 100.179 80.4644Z" fill="#004357"/>
</g>
<mask id="mask4_6262_106858" style="mask-type:alpha" maskUnits="userSpaceOnUse" x="126" y="54" width="24" height="26">
<path d="M126.998 54.5802H149.505V68.3915C149.505 74.6067 144.467 79.6451 138.252 79.6451V79.6451C132.036 79.6451 126.998 74.6067 126.998 68.3915V54.5802Z" fill="#D9D9D9"/>
</mask>
<g mask="url(#mask4_6262_106858)">
<path fill-rule="evenodd" clip-rule="evenodd" d="M141.922 66.0607L141.289 66.6306L142.061 66.9893C145.451 68.5629 147.743 71.9482 147.743 75.8101C147.743 76.7909 147.357 78.3675 146.699 79.6997C146.372 80.3616 145.994 80.9294 145.593 81.3237C145.189 81.7202 144.812 81.8955 144.471 81.8955H131.689C131.348 81.8955 130.971 81.7202 130.568 81.3237C130.166 80.9294 129.788 80.3616 129.461 79.6997C128.803 78.3675 128.417 76.7909 128.417 75.8101C128.417 71.9482 130.71 68.5629 134.099 66.9893L134.872 66.6306L134.238 66.0607C133.061 65.0009 132.252 63.4847 132.252 61.7495C132.252 58.4812 134.812 55.921 138.08 55.921C141.348 55.921 143.909 58.4812 143.909 61.7495C143.909 63.4847 143.1 65.0009 141.922 66.0607ZM138.08 57.3521C135.596 57.3521 133.683 59.2657 133.683 61.7495C133.683 64.2333 135.596 66.1469 138.08 66.1469C140.564 66.1469 142.478 64.2333 142.478 61.7495C142.478 59.2657 140.564 57.3521 138.08 57.3521ZM131.689 80.4644H144.471C144.784 80.4644 145.014 80.2937 145.155 80.1439C145.299 79.9917 145.412 79.8008 145.502 79.6142C145.683 79.2374 145.83 78.7528 145.945 78.2755C146.175 77.3241 146.312 76.254 146.312 75.8101C146.312 71.2811 142.609 67.578 138.08 67.578C133.551 67.578 129.848 71.2811 129.848 75.8101C129.848 76.254 129.986 77.3241 130.215 78.2755C130.33 78.7528 130.477 79.2374 130.659 79.6142C130.749 79.8008 130.861 79.9917 131.005 80.1439C131.147 80.2937 131.376 80.4644 131.689 80.4644Z" fill="#004357"/>
</g>
<mask id="mask5_6262_106858" style="mask-type:alpha" maskUnits="userSpaceOnUse" x="158" y="54" width="24" height="26">
<path d="M158.508 54.5802H181.015V68.3915C181.015 74.6067 175.977 79.6451 169.761 79.6451V79.6451C163.546 79.6451 158.508 74.6067 158.508 68.3915V54.5802Z" fill="#D9D9D9"/>
</mask>
<g mask="url(#mask5_6262_106858)">
<path fill-rule="evenodd" clip-rule="evenodd" d="M173.432 66.0607L172.799 66.6306L173.571 66.9893C176.96 68.5629 179.253 71.9482 179.253 75.8101C179.253 76.7909 178.867 78.3675 178.209 79.6997C177.882 80.3616 177.504 80.9294 177.103 81.3237C176.699 81.7202 176.322 81.8955 175.981 81.8955H163.199C162.858 81.8955 162.481 81.7202 162.077 81.3237C161.676 80.9294 161.298 80.3616 160.971 79.6997C160.313 78.3675 159.927 76.7909 159.927 75.8101C159.927 71.9482 162.22 68.5629 165.609 66.9893L166.381 66.6306L165.748 66.0607C164.571 65.0009 163.761 63.4847 163.761 61.7495C163.761 58.4812 166.322 55.921 169.59 55.921C172.858 55.921 175.418 58.4812 175.418 61.7495C175.418 63.4847 174.609 65.0009 173.432 66.0607ZM169.59 57.3521C167.106 57.3521 165.193 59.2657 165.193 61.7495C165.193 64.2333 167.106 66.1469 169.59 66.1469C172.074 66.1469 173.987 64.2333 173.987 61.7495C173.987 59.2657 172.074 57.3521 169.59 57.3521ZM163.199 80.4644H175.981C176.294 80.4644 176.523 80.2937 176.665 80.1439C176.809 79.9917 176.922 79.8008 177.011 79.6142C177.193 79.2374 177.34 78.7528 177.455 78.2755C177.684 77.3241 177.822 76.254 177.822 75.8101C177.822 71.2811 174.119 67.578 169.59 67.578C165.061 67.578 161.358 71.2811 161.358 75.8101C161.358 76.254 161.496 77.3241 161.725 78.2755C161.84 78.7528 161.987 79.2374 162.168 79.6142C162.258 79.8008 162.371 79.9917 162.515 80.1439C162.656 80.2937 162.886 80.4644 163.199 80.4644Z" fill="#004357"/>
</g>
<mask id="mask6_6262_106858" style="mask-type:alpha" maskUnits="userSpaceOnUse" x="190" y="54" width="23" height="26">
<path d="M190.019 54.5802H212.526V68.3915C212.526 74.6067 207.487 79.6451 201.272 79.6451V79.6451C195.057 79.6451 190.019 74.6067 190.019 68.3915V54.5802Z" fill="#D9D9D9"/>
</mask>
<g mask="url(#mask6_6262_106858)">
<path fill-rule="evenodd" clip-rule="evenodd" d="M204.942 66.0607L204.309 66.6306L205.082 66.9893C208.471 68.5629 210.764 71.9482 210.764 75.8101C210.764 76.7909 210.378 78.3675 209.72 79.6997C209.393 80.3616 209.014 80.9294 208.613 81.3237C208.21 81.7202 207.832 81.8955 207.492 81.8955H194.71C194.369 81.8955 193.991 81.7202 193.588 81.3237C193.187 80.9294 192.809 80.3616 192.482 79.6997C191.823 78.3675 191.438 76.7909 191.438 75.8101C191.438 71.9482 193.73 68.5629 197.119 66.9893L197.892 66.6306L197.259 66.0607C196.081 65.0009 195.272 63.4847 195.272 61.7495C195.272 58.4812 197.832 55.921 201.101 55.921C204.369 55.921 206.929 58.4812 206.929 61.7495C206.929 63.4847 206.12 65.0009 204.942 66.0607ZM201.101 57.3521C198.617 57.3521 196.703 59.2657 196.703 61.7495C196.703 64.2333 198.617 66.1469 201.101 66.1469C203.584 66.1469 205.498 64.2333 205.498 61.7495C205.498 59.2657 203.584 57.3521 201.101 57.3521ZM194.71 80.4644H207.492C207.805 80.4644 208.034 80.2937 208.176 80.1439C208.32 79.9917 208.432 79.8008 208.522 79.6142C208.704 79.2374 208.85 78.7528 208.966 78.2755C209.195 77.3241 209.333 76.254 209.333 75.8101C209.333 71.2811 205.63 67.578 201.101 67.578C196.572 67.578 192.869 71.2811 192.869 75.8101C192.869 76.254 193.006 77.3241 193.236 78.2755C193.351 78.7528 193.498 79.2374 193.679 79.6142C193.769 79.8008 193.882 79.9917 194.026 80.1439C194.167 80.2937 194.397 80.4644 194.71 80.4644Z" fill="#004357"/>
</g>
<mask id="mask7_6262_106858" style="mask-type:alpha" maskUnits="userSpaceOnUse" x="221" y="54" width="24" height="26">
<path d="M221.528 54.5802H244.035V68.3915C244.035 74.6067 238.997 79.6451 232.782 79.6451V79.6451C226.567 79.6451 221.528 74.6067 221.528 68.3915V54.5802Z" fill="#D9D9D9"/>
</mask>
<g mask="url(#mask7_6262_106858)">
<path fill-rule="evenodd" clip-rule="evenodd" d="M236.452 66.0607L235.819 66.6306L236.592 66.9893C239.981 68.5629 242.274 71.9482 242.274 75.8101C242.274 76.7909 241.888 78.3675 241.229 79.6997C240.902 80.3616 240.524 80.9294 240.123 81.3237C239.72 81.7202 239.342 81.8955 239.002 81.8955H226.219C225.879 81.8955 225.501 81.7202 225.098 81.3237C224.697 80.9294 224.319 80.3616 223.992 79.6997C223.333 78.3675 222.947 76.7909 222.947 75.8101C222.947 71.9482 225.24 68.5629 228.629 66.9893L229.402 66.6306L228.769 66.0607C227.591 65.0009 226.782 63.4847 226.782 61.7495C226.782 58.4812 229.342 55.921 232.61 55.921C235.879 55.921 238.439 58.4812 238.439 61.7495C238.439 63.4847 237.63 65.0009 236.452 66.0607ZM232.61 57.3521C230.127 57.3521 228.213 59.2657 228.213 61.7495C228.213 64.2333 230.127 66.1469 232.61 66.1469C235.094 66.1469 237.008 64.2333 237.008 61.7495C237.008 59.2657 235.094 57.3521 232.61 57.3521ZM226.219 80.4644H239.002C239.314 80.4644 239.544 80.2937 239.686 80.1439C239.829 79.9917 239.942 79.8008 240.032 79.6142C240.213 79.2374 240.36 78.7528 240.475 78.2755C240.705 77.3241 240.843 76.254 240.843 75.8101C240.843 71.2811 237.139 67.578 232.61 67.578C228.082 67.578 224.378 71.2811 224.378 75.8101C224.378 76.254 224.516 77.3241 224.746 78.2755C224.861 78.7528 225.008 79.2374 225.189 79.6142C225.279 79.8008 225.391 79.9917 225.535 80.1439C225.677 80.2937 225.907 80.4644 226.219 80.4644Z" fill="#004357"/>
</g>
<mask id="mask8_6262_106858" style="mask-type:alpha" maskUnits="userSpaceOnUse" x="253" y="54" width="23" height="26">
<path d="M253.038 54.5802H275.545V68.3915C275.545 74.6067 270.507 79.6451 264.292 79.6451V79.6451C258.076 79.6451 253.038 74.6067 253.038 68.3915V54.5802Z" fill="#D9D9D9"/>
</mask>
<g mask="url(#mask8_6262_106858)">
<path fill-rule="evenodd" clip-rule="evenodd" d="M267.962 66.0607L267.329 66.6306L268.101 66.9893C271.491 68.5629 273.783 71.9482 273.783 75.8101C273.783 76.7909 273.397 78.3675 272.739 79.6997C272.412 80.3616 272.034 80.9294 271.633 81.3237C271.229 81.7202 270.852 81.8955 270.511 81.8955H257.729C257.389 81.8955 257.011 81.7202 256.608 81.3237C256.206 80.9294 255.828 80.3616 255.501 79.6997C254.843 78.3675 254.457 76.7909 254.457 75.8101C254.457 71.9482 256.75 68.5629 260.139 66.9893L260.912 66.6306L260.278 66.0607C259.101 65.0009 258.292 63.4847 258.292 61.7495C258.292 58.4812 260.852 55.921 264.12 55.921C267.388 55.921 269.949 58.4812 269.949 61.7495C269.949 63.4847 269.14 65.0009 267.962 66.0607ZM264.12 57.3521C261.636 57.3521 259.723 59.2657 259.723 61.7495C259.723 64.2333 261.636 66.1469 264.12 66.1469C266.604 66.1469 268.518 64.2333 268.518 61.7495C268.518 59.2657 266.604 57.3521 264.12 57.3521ZM257.729 80.4644H270.511C270.824 80.4644 271.054 80.2937 271.195 80.1439C271.339 79.9917 271.452 79.8008 271.542 79.6142C271.723 79.2374 271.87 78.7528 271.985 78.2755C272.215 77.3241 272.352 76.254 272.352 75.8101C272.352 71.2811 268.649 67.578 264.12 67.578C259.591 67.578 255.888 71.2811 255.888 75.8101C255.888 76.254 256.026 77.3241 256.255 78.2755C256.371 78.7528 256.517 79.2374 256.699 79.6142C256.789 79.8008 256.901 79.9917 257.045 80.1439C257.187 80.2937 257.416 80.4644 257.729 80.4644Z" fill="#004357"/>
</g>
<mask id="mask9_6262_106858" style="mask-type:alpha" maskUnits="userSpaceOnUse" x="0" y="88" width="24" height="26">
<path d="M0.958008 88.6479H23.4652V102.459C23.4652 108.674 18.4268 113.713 12.2116 113.713V113.713C5.99641 113.713 0.958008 108.674 0.958008 102.459V88.6479Z" fill="#D9D9D9"/>
</mask>
<g mask="url(#mask9_6262_106858)">
<path fill-rule="evenodd" clip-rule="evenodd" d="M15.8819 100.128L15.2487 100.698L16.0213 101.057C19.4105 102.631 21.7033 106.016 21.7033 109.878C21.7033 110.859 21.3173 112.435 20.6591 113.767C20.332 114.429 19.9539 114.997 19.5528 115.391C19.1494 115.788 18.7718 115.963 18.4313 115.963H5.64897C5.30842 115.963 4.9309 115.788 4.5275 115.391C4.1264 114.997 3.74828 114.429 3.4212 113.767C2.76292 112.435 2.37695 110.859 2.37695 109.878C2.37695 106.016 4.66977 102.631 8.05892 101.057L8.83156 100.698L8.19838 100.128C7.02074 99.0686 6.21165 97.5524 6.21165 95.8173C6.21165 92.549 8.77184 89.9888 12.0401 89.9888C15.3084 89.9888 17.8686 92.549 17.8686 95.8173C17.8686 97.5524 17.0595 99.0686 15.8819 100.128ZM12.0401 91.4199C9.55638 91.4199 7.64276 93.3335 7.64276 95.8173C7.64276 98.301 9.55638 100.215 12.0401 100.215C14.5239 100.215 16.4375 98.301 16.4375 95.8173C16.4375 93.3335 14.5239 91.4199 12.0401 91.4199ZM5.64897 114.532H18.4313C18.744 114.532 18.9736 114.361 19.1153 114.212C19.2591 114.059 19.3718 113.869 19.4616 113.682C19.643 113.305 19.7898 112.821 19.905 112.343C20.1345 111.392 20.2722 110.322 20.2722 109.878C20.2722 105.349 16.5691 101.646 12.0401 101.646C7.51121 101.646 3.80806 105.349 3.80806 109.878C3.80806 110.322 3.94572 111.392 4.17527 112.343C4.29046 112.821 4.4373 113.305 4.61868 113.682C4.7085 113.869 4.82111 114.059 4.96501 114.212C5.10666 114.361 5.33624 114.532 5.64897 114.532Z" fill="#004357"/>
</g>
<mask id="mask10_6262_106858" style="mask-type:alpha" maskUnits="userSpaceOnUse" x="32" y="88" width="23" height="26">
<path d="M32.4678 88.6479H54.9749V102.459C54.9749 108.674 49.9365 113.713 43.7214 113.713V113.713C37.5062 113.713 32.4678 108.674 32.4678 102.459V88.6479Z" fill="#D9D9D9"/>
</mask>
<g mask="url(#mask10_6262_106858)">
<path fill-rule="evenodd" clip-rule="evenodd" d="M47.3916 100.128L46.7585 100.698L47.5311 101.057C50.9203 102.631 53.2131 106.016 53.2131 109.878C53.2131 110.859 52.8271 112.435 52.1688 113.767C51.8417 114.429 51.4636 114.997 51.0625 115.391C50.6591 115.788 50.2816 115.963 49.9411 115.963H37.1587C36.8182 115.963 36.4407 115.788 36.0373 115.391C35.6362 114.997 35.2581 114.429 34.931 113.767C34.2727 112.435 33.8867 110.859 33.8867 109.878C33.8867 106.016 36.1795 102.631 39.5687 101.057L40.3413 100.698L39.7081 100.128C38.5305 99.0686 37.7214 97.5524 37.7214 95.8173C37.7214 92.549 40.2816 89.9888 43.5499 89.9888C46.8182 89.9888 49.3784 92.549 49.3784 95.8173C49.3784 97.5524 48.5693 99.0686 47.3916 100.128ZM43.5499 91.4199C41.0661 91.4199 39.1525 93.3335 39.1525 95.8173C39.1525 98.301 41.0661 100.215 43.5499 100.215C46.0336 100.215 47.9473 98.301 47.9473 95.8173C47.9473 93.3335 46.0336 91.4199 43.5499 91.4199ZM37.1587 114.532H49.9411C50.2538 114.532 50.4834 114.361 50.625 114.212C50.7689 114.059 50.8815 113.869 50.9713 113.682C51.1527 113.305 51.2996 112.821 51.4148 112.343C51.6443 111.392 51.782 110.322 51.782 109.878C51.782 105.349 48.0788 101.646 43.5499 101.646C39.021 101.646 35.3178 105.349 35.3178 109.878C35.3178 110.322 35.4555 111.392 35.685 112.343C35.8002 112.821 35.9471 113.305 36.1284 113.682C36.2183 113.869 36.3309 114.059 36.4748 114.212C36.6164 114.361 36.846 114.532 37.1587 114.532Z" fill="#004357"/>
</g>
<mask id="mask11_6262_106858" style="mask-type:alpha" maskUnits="userSpaceOnUse" x="63" y="88" width="24" height="26">
<path d="M63.9785 88.6479H86.4857V102.459C86.4857 108.674 81.4473 113.713 75.2321 113.713V113.713C69.0169 113.713 63.9785 108.674 63.9785 102.459V88.6479Z" fill="#D9D9D9"/>
</mask>
<g mask="url(#mask11_6262_106858)">
<path fill-rule="evenodd" clip-rule="evenodd" d="M78.9024 100.128L78.2692 100.698L79.0419 101.057C82.431 102.631 84.7238 106.016 84.7238 109.878C84.7238 110.859 84.3379 112.435 83.6796 113.767C83.3525 114.429 82.9744 114.997 82.5733 115.391C82.1699 115.788 81.7923 115.963 81.4518 115.963H68.6695C68.3289 115.963 67.9514 115.788 67.548 115.391C67.1469 114.997 66.7688 114.429 66.4417 113.767C65.7834 112.435 65.3975 110.859 65.3975 109.878C65.3975 106.016 67.6903 102.631 71.0794 101.057L71.8521 100.698L71.2189 100.128C70.0412 99.0686 69.2322 97.5524 69.2322 95.8173C69.2322 92.549 71.7923 89.9888 75.0606 89.9888C78.3289 89.9888 80.8891 92.549 80.8891 95.8173C80.8891 97.5524 80.08 99.0686 78.9024 100.128ZM75.0606 91.4199C72.5769 91.4199 70.6633 93.3335 70.6633 95.8173C70.6633 98.301 72.5769 100.215 75.0606 100.215C77.5444 100.215 79.458 98.301 79.458 95.8173C79.458 93.3335 77.5444 91.4199 75.0606 91.4199ZM68.6695 114.532H81.4518C81.7645 114.532 81.9941 114.361 82.1358 114.212C82.2797 114.059 82.3923 113.869 82.4821 113.682C82.6635 113.305 82.8103 112.821 82.9255 112.343C83.155 111.392 83.2927 110.322 83.2927 109.878C83.2927 105.349 79.5896 101.646 75.0606 101.646C70.5317 101.646 66.8286 105.349 66.8286 109.878C66.8286 110.322 66.9662 111.392 67.1958 112.343C67.311 112.821 67.4578 113.305 67.6392 113.682C67.729 113.869 67.8416 114.059 67.9855 114.212C68.1272 114.361 68.3567 114.532 68.6695 114.532Z" fill="#004357"/>
</g>
<mask id="mask12_6262_106858" style="mask-type:alpha" maskUnits="userSpaceOnUse" x="95" y="88" width="23" height="26">
<path d="M95.4883 88.6479H117.995V102.459C117.995 108.674 112.957 113.713 106.742 113.713V113.713C100.527 113.713 95.4883 108.674 95.4883 102.459V88.6479Z" fill="#D9D9D9"/>
</mask>
<g mask="url(#mask12_6262_106858)">
<path fill-rule="evenodd" clip-rule="evenodd" d="M110.412 100.128L109.779 100.698L110.552 101.057C113.941 102.631 116.234 106.016 116.234 109.878C116.234 110.859 115.848 112.435 115.189 113.767C114.862 114.429 114.484 114.997 114.083 115.391C113.68 115.788 113.302 115.963 112.962 115.963H100.179C99.8387 115.963 99.4612 115.788 99.0578 115.391C98.6567 114.997 98.2786 114.429 97.9515 113.767C97.2932 112.435 96.9072 110.859 96.9072 109.878C96.9072 106.016 99.2 102.631 102.589 101.057L103.362 100.698L102.729 100.128C101.551 99.0686 100.742 97.5524 100.742 95.8173C100.742 92.549 103.302 89.9888 106.57 89.9888C109.839 89.9888 112.399 92.549 112.399 95.8173C112.399 97.5524 111.59 99.0686 110.412 100.128ZM106.57 91.4199C104.087 91.4199 102.173 93.3335 102.173 95.8173C102.173 98.301 104.087 100.215 106.57 100.215C109.054 100.215 110.968 98.301 110.968 95.8173C110.968 93.3335 109.054 91.4199 106.57 91.4199ZM100.179 114.532H112.962C113.274 114.532 113.504 114.361 113.646 114.212C113.789 114.059 113.902 113.869 113.992 113.682C114.173 113.305 114.32 112.821 114.435 112.343C114.665 111.392 114.802 110.322 114.802 109.878C114.802 105.349 111.099 101.646 106.57 101.646C102.041 101.646 98.3383 105.349 98.3383 109.878C98.3383 110.322 98.476 111.392 98.7055 112.343C98.8207 112.821 98.9676 113.305 99.149 113.682C99.2388 113.869 99.3514 114.059 99.4953 114.212C99.6369 114.361 99.8665 114.532 100.179 114.532Z" fill="#004357"/>
</g>
<mask id="mask13_6262_106858" style="mask-type:alpha" maskUnits="userSpaceOnUse" x="126" y="88" width="24" height="26">
<path d="M126.998 88.6479H149.505V102.459C149.505 108.674 144.467 113.713 138.252 113.713V113.713C132.036 113.713 126.998 108.674 126.998 102.459V88.6479Z" fill="#D9D9D9"/>
</mask>
<g mask="url(#mask13_6262_106858)">
<path fill-rule="evenodd" clip-rule="evenodd" d="M141.922 100.128L141.289 100.698L142.061 101.057C145.451 102.631 147.743 106.016 147.743 109.878C147.743 110.859 147.357 112.435 146.699 113.767C146.372 114.429 145.994 114.997 145.593 115.391C145.189 115.788 144.812 115.963 144.471 115.963H131.689C131.348 115.963 130.971 115.788 130.568 115.391C130.166 114.997 129.788 114.429 129.461 113.767C128.803 112.435 128.417 110.859 128.417 109.878C128.417 106.016 130.71 102.631 134.099 101.057L134.872 100.698L134.238 100.128C133.061 99.0686 132.252 97.5524 132.252 95.8173C132.252 92.549 134.812 89.9888 138.08 89.9888C141.348 89.9888 143.909 92.549 143.909 95.8173C143.909 97.5524 143.1 99.0686 141.922 100.128ZM138.08 91.4199C135.596 91.4199 133.683 93.3335 133.683 95.8173C133.683 98.301 135.596 100.215 138.08 100.215C140.564 100.215 142.478 98.301 142.478 95.8173C142.478 93.3335 140.564 91.4199 138.08 91.4199ZM131.689 114.532H144.471C144.784 114.532 145.014 114.361 145.155 114.212C145.299 114.059 145.412 113.869 145.502 113.682C145.683 113.305 145.83 112.821 145.945 112.343C146.175 111.392 146.312 110.322 146.312 109.878C146.312 105.349 142.609 101.646 138.08 101.646C133.551 101.646 129.848 105.349 129.848 109.878C129.848 110.322 129.986 111.392 130.215 112.343C130.33 112.821 130.477 113.305 130.659 113.682C130.749 113.869 130.861 114.059 131.005 114.212C131.147 114.361 131.376 114.532 131.689 114.532Z" fill="#004357"/>
</g>
<mask id="mask14_6262_106858" style="mask-type:alpha" maskUnits="userSpaceOnUse" x="158" y="88" width="24" height="26">
<path d="M158.508 88.6479H181.015V102.459C181.015 108.674 175.977 113.713 169.761 113.713V113.713C163.546 113.713 158.508 108.674 158.508 102.459V88.6479Z" fill="#D9D9D9"/>
</mask>
<g mask="url(#mask14_6262_106858)">
<path fill-rule="evenodd" clip-rule="evenodd" d="M173.432 100.128L172.799 100.698L173.571 101.057C176.96 102.631 179.253 106.016 179.253 109.878C179.253 110.859 178.867 112.435 178.209 113.767C177.882 114.429 177.504 114.997 177.103 115.391C176.699 115.788 176.322 115.963 175.981 115.963H163.199C162.858 115.963 162.481 115.788 162.077 115.391C161.676 114.997 161.298 114.429 160.971 113.767C160.313 112.435 159.927 110.859 159.927 109.878C159.927 106.016 162.22 102.631 165.609 101.057L166.381 100.698L165.748 100.128C164.571 99.0686 163.761 97.5524 163.761 95.8173C163.761 92.549 166.322 89.9888 169.59 89.9888C172.858 89.9888 175.418 92.549 175.418 95.8173C175.418 97.5524 174.609 99.0686 173.432 100.128ZM169.59 91.4199C167.106 91.4199 165.193 93.3335 165.193 95.8173C165.193 98.301 167.106 100.215 169.59 100.215C172.074 100.215 173.987 98.301 173.987 95.8173C173.987 93.3335 172.074 91.4199 169.59 91.4199ZM163.199 114.532H175.981C176.294 114.532 176.523 114.361 176.665 114.212C176.809 114.059 176.922 113.869 177.011 113.682C177.193 113.305 177.34 112.821 177.455 112.343C177.684 111.392 177.822 110.322 177.822 109.878C177.822 105.349 174.119 101.646 169.59 101.646C165.061 101.646 161.358 105.349 161.358 109.878C161.358 110.322 161.496 111.392 161.725 112.343C161.84 112.821 161.987 113.305 162.168 113.682C162.258 113.869 162.371 114.059 162.515 114.212C162.656 114.361 162.886 114.532 163.199 114.532Z" fill="#004357"/>
</g>
<mask id="mask15_6262_106858" style="mask-type:alpha" maskUnits="userSpaceOnUse" x="190" y="88" width="23" height="26">
<path d="M190.019 88.6479H212.526V102.459C212.526 108.674 207.487 113.713 201.272 113.713V113.713C195.057 113.713 190.019 108.674 190.019 102.459V88.6479Z" fill="#D9D9D9"/>
</mask>
<g mask="url(#mask15_6262_106858)">
<path fill-rule="evenodd" clip-rule="evenodd" d="M204.942 100.128L204.309 100.698L205.082 101.057C208.471 102.631 210.764 106.016 210.764 109.878C210.764 110.859 210.378 112.435 209.72 113.767C209.393 114.429 209.014 114.997 208.613 115.391C208.21 115.788 207.832 115.963 207.492 115.963H194.71C194.369 115.963 193.991 115.788 193.588 115.391C193.187 114.997 192.809 114.429 192.482 113.767C191.823 112.435 191.438 110.859 191.438 109.878C191.438 106.016 193.73 102.631 197.119 101.057L197.892 100.698L197.259 100.128C196.081 99.0686 195.272 97.5524 195.272 95.8173C195.272 92.549 197.832 89.9888 201.101 89.9888C204.369 89.9888 206.929 92.549 206.929 95.8173C206.929 97.5524 206.12 99.0686 204.942 100.128ZM201.101 91.4199C198.617 91.4199 196.703 93.3335 196.703 95.8173C196.703 98.301 198.617 100.215 201.101 100.215C203.584 100.215 205.498 98.301 205.498 95.8173C205.498 93.3335 203.584 91.4199 201.101 91.4199ZM194.71 114.532H207.492C207.805 114.532 208.034 114.361 208.176 114.212C208.32 114.059 208.432 113.869 208.522 113.682C208.704 113.305 208.85 112.821 208.966 112.343C209.195 111.392 209.333 110.322 209.333 109.878C209.333 105.349 205.63 101.646 201.101 101.646C196.572 101.646 192.869 105.349 192.869 109.878C192.869 110.322 193.006 111.392 193.236 112.343C193.351 112.821 193.498 113.305 193.679 113.682C193.769 113.869 193.882 114.059 194.026 114.212C194.167 114.361 194.397 114.532 194.71 114.532Z" fill="#004357"/>
</g>
<mask id="mask16_6262_106858" style="mask-type:alpha" maskUnits="userSpaceOnUse" x="221" y="88" width="24" height="26">
<path d="M221.528 88.6479H244.035V102.459C244.035 108.674 238.997 113.713 232.782 113.713V113.713C226.567 113.713 221.528 108.674 221.528 102.459V88.6479Z" fill="#D9D9D9"/>
</mask>
<g mask="url(#mask16_6262_106858)">
<path fill-rule="evenodd" clip-rule="evenodd" d="M236.452 100.128L235.819 100.698L236.592 101.057C239.981 102.631 242.274 106.016 242.274 109.878C242.274 110.859 241.888 112.435 241.229 113.767C240.902 114.429 240.524 114.997 240.123 115.391C239.72 115.788 239.342 115.963 239.002 115.963H226.219C225.879 115.963 225.501 115.788 225.098 115.391C224.697 114.997 224.319 114.429 223.992 113.767C223.333 112.435 222.947 110.859 222.947 109.878C222.947 106.016 225.24 102.631 228.629 101.057L229.402 100.698L228.769 100.128C227.591 99.0686 226.782 97.5524 226.782 95.8173C226.782 92.549 229.342 89.9888 232.61 89.9888C235.879 89.9888 238.439 92.549 238.439 95.8173C238.439 97.5524 237.63 99.0686 236.452 100.128ZM232.61 91.4199C230.127 91.4199 228.213 93.3335 228.213 95.8173C228.213 98.301 230.127 100.215 232.61 100.215C235.094 100.215 237.008 98.301 237.008 95.8173C237.008 93.3335 235.094 91.4199 232.61 91.4199ZM226.219 114.532H239.002C239.314 114.532 239.544 114.361 239.686 114.212C239.829 114.059 239.942 113.869 240.032 113.682C240.213 113.305 240.36 112.821 240.475 112.343C240.705 111.392 240.843 110.322 240.843 109.878C240.843 105.349 237.139 101.646 232.61 101.646C228.082 101.646 224.378 105.349 224.378 109.878C224.378 110.322 224.516 111.392 224.746 112.343C224.861 112.821 225.008 113.305 225.189 113.682C225.279 113.869 225.391 114.059 225.535 114.212C225.677 114.361 225.907 114.532 226.219 114.532Z" fill="#004357"/>
</g>
<path d="M85.7597 47.6949C85.4908 47.8507 85.1465 47.759 84.9907 47.4902L82.4518 43.1085C82.296 42.8396 82.3876 42.4954 82.6565 42.3396C82.9254 42.1837 83.2697 42.2754 83.4255 42.5443L85.6823 46.4391L89.5771 44.1823C89.846 44.0265 90.1903 44.1181 90.3461 44.387C90.5019 44.6559 90.4102 45.0002 90.1413 45.156L85.7597 47.6949ZM117.892 27.9119C110.318 26.3182 103.44 27.1254 97.9265 30.3288C92.418 33.5292 88.2024 39.1612 86.0213 47.3528L84.9338 47.0633C87.1769 38.6392 91.5493 32.7324 97.3612 29.3557C103.168 25.9819 110.343 25.1736 118.124 26.8107L117.892 27.9119Z" fill="#004357"/>
<mask id="mask17_6262_106858" style="mask-type:alpha" maskUnits="userSpaceOnUse" x="40" y="174" width="23" height="27">
<path d="M40.3701 174.993H62.8773V188.805C62.8773 195.02 57.8389 200.058 51.6237 200.058V200.058C45.4085 200.058 40.3701 195.02 40.3701 188.805V174.993Z" fill="#D9D9D9"/>
</mask>
<g mask="url(#mask17_6262_106858)">
<path fill-rule="evenodd" clip-rule="evenodd" d="M55.294 186.474L54.6608 187.044L55.4335 187.402C58.8226 188.976 61.1154 192.361 61.1154 196.223C61.1154 197.204 60.7295 198.781 60.0712 200.113C59.7441 200.775 59.366 201.343 58.9649 201.737C58.5615 202.133 58.1839 202.309 57.8434 202.309H45.0611C44.7205 202.309 44.343 202.133 43.9396 201.737C43.5385 201.343 43.1604 200.775 42.8333 200.113C42.175 198.781 41.7891 197.204 41.7891 196.223C41.7891 192.361 44.0819 188.976 47.471 187.402L48.2437 187.044L47.6105 186.474C46.4328 185.414 45.6238 183.898 45.6238 182.163C45.6238 178.894 48.1839 176.334 51.4522 176.334C54.7205 176.334 57.2807 178.894 57.2807 182.163C57.2807 183.898 56.4716 185.414 55.294 186.474ZM51.4522 177.765C48.9685 177.765 47.0549 179.679 47.0549 182.163C47.0549 184.646 48.9685 186.56 51.4522 186.56C53.936 186.56 55.8496 184.646 55.8496 182.163C55.8496 179.679 53.936 177.765 51.4522 177.765ZM45.0611 200.877H57.8434C58.1561 200.877 58.3857 200.707 58.5274 200.557C58.6713 200.405 58.7839 200.214 58.8737 200.027C59.0551 199.65 59.2019 199.166 59.3171 198.689C59.5466 197.737 59.6843 196.667 59.6843 196.223C59.6843 191.694 55.9812 187.991 51.4522 187.991C46.9233 187.991 43.2202 191.694 43.2202 196.223C43.2202 196.667 43.3578 197.737 43.5874 198.689C43.7026 199.166 43.8494 199.65 44.0308 200.027C44.1206 200.214 44.2332 200.405 44.3771 200.557C44.5188 200.707 44.7483 200.877 45.0611 200.877Z" fill="#004357"/>
</g>
<mask id="mask18_6262_106858" style="mask-type:alpha" maskUnits="userSpaceOnUse" x="71" y="174" width="24" height="27">
<path d="M71.8799 174.993H94.387V188.805C94.387 195.02 89.3486 200.058 83.1335 200.058V200.058C76.9183 200.058 71.8799 195.02 71.8799 188.805V174.993Z" fill="#D9D9D9"/>
</mask>
<g mask="url(#mask18_6262_106858)">
<path fill-rule="evenodd" clip-rule="evenodd" d="M86.8038 186.474L86.1706 187.044L86.9432 187.402C90.3324 188.976 92.6252 192.361 92.6252 196.223C92.6252 197.204 92.2392 198.781 91.5809 200.113C91.2539 200.775 90.8757 201.343 90.4746 201.737C90.0712 202.133 89.6937 202.309 89.3532 202.309H76.5708C76.2303 202.309 75.8528 202.133 75.4494 201.737C75.0483 201.343 74.6702 200.775 74.3431 200.113C73.6848 198.781 73.2988 197.204 73.2988 196.223C73.2988 192.361 75.5916 188.976 78.9808 187.402L79.7534 187.044L79.1203 186.474C77.9426 185.414 77.1335 183.898 77.1335 182.163C77.1335 178.894 79.6937 176.334 82.962 176.334C86.2303 176.334 88.7905 178.894 88.7905 182.163C88.7905 183.898 87.9814 185.414 86.8038 186.474ZM82.962 177.765C80.4783 177.765 78.5646 179.679 78.5646 182.163C78.5646 184.646 80.4783 186.56 82.962 186.56C85.4458 186.56 87.3594 184.646 87.3594 182.163C87.3594 179.679 85.4458 177.765 82.962 177.765ZM76.5708 200.877H89.3532C89.6659 200.877 89.8955 200.707 90.0371 200.557C90.181 200.405 90.2936 200.214 90.3835 200.027C90.5648 199.65 90.7117 199.166 90.8269 198.689C91.0564 197.737 91.1941 196.667 91.1941 196.223C91.1941 191.694 87.4909 187.991 82.962 187.991C78.4331 187.991 74.7299 191.694 74.7299 196.223C74.7299 196.667 74.8676 197.737 75.0971 198.689C75.2123 199.166 75.3592 199.65 75.5406 200.027C75.6304 200.214 75.743 200.405 75.8869 200.557C76.0285 200.707 76.2581 200.877 76.5708 200.877Z" fill="#004357"/>
</g>
<mask id="mask19_6262_106858" style="mask-type:alpha" maskUnits="userSpaceOnUse" x="103" y="174" width="23" height="27">
<path d="M103.391 174.993H125.898V188.805C125.898 195.02 120.859 200.058 114.644 200.058V200.058C108.429 200.058 103.391 195.02 103.391 188.805V174.993Z" fill="#D9D9D9"/>
</mask>
<g mask="url(#mask19_6262_106858)">
<path fill-rule="evenodd" clip-rule="evenodd" d="M118.314 186.474L117.681 187.044L118.454 187.402C121.843 188.976 124.136 192.361 124.136 196.223C124.136 197.204 123.75 198.781 123.092 200.113C122.765 200.775 122.386 201.343 121.985 201.737C121.582 202.133 121.204 202.309 120.864 202.309H108.082C107.741 202.309 107.364 202.133 106.96 201.737C106.559 201.343 106.181 200.775 105.854 200.113C105.196 198.781 104.81 197.204 104.81 196.223C104.81 192.361 107.102 188.976 110.492 187.402L111.264 187.044L110.631 186.474C109.453 185.414 108.644 183.898 108.644 182.163C108.644 178.894 111.204 176.334 114.473 176.334C117.741 176.334 120.301 178.894 120.301 182.163C120.301 183.898 119.492 185.414 118.314 186.474ZM114.473 177.765C111.989 177.765 110.075 179.679 110.075 182.163C110.075 184.646 111.989 186.56 114.473 186.56C116.957 186.56 118.87 184.646 118.87 182.163C118.87 179.679 116.957 177.765 114.473 177.765ZM108.082 200.877H120.864C121.177 200.877 121.406 200.707 121.548 200.557C121.692 200.405 121.804 200.214 121.894 200.027C122.076 199.65 122.222 199.166 122.338 198.689C122.567 197.737 122.705 196.667 122.705 196.223C122.705 191.694 119.002 187.991 114.473 187.991C109.944 187.991 106.241 191.694 106.241 196.223C106.241 196.667 106.378 197.737 106.608 198.689C106.723 199.166 106.87 199.65 107.051 200.027C107.141 200.214 107.254 200.405 107.398 200.557C107.539 200.707 107.769 200.877 108.082 200.877Z" fill="#004357"/>
</g>
<mask id="mask20_6262_106858" style="mask-type:alpha" maskUnits="userSpaceOnUse" x="134" y="174" width="24" height="27">
<path d="M134.9 174.993H157.408V188.805C157.408 195.02 152.369 200.058 146.154 200.058V200.058C139.939 200.058 134.9 195.02 134.9 188.805V174.993Z" fill="#D9D9D9"/>
</mask>
<g mask="url(#mask20_6262_106858)">
<path fill-rule="evenodd" clip-rule="evenodd" d="M149.824 186.474L149.191 187.044L149.964 187.402C153.353 188.976 155.646 192.361 155.646 196.223C155.646 197.204 155.26 198.781 154.601 200.113C154.274 200.775 153.896 201.343 153.495 201.737C153.092 202.133 152.714 202.309 152.374 202.309H139.591C139.251 202.309 138.873 202.133 138.47 201.737C138.069 201.343 137.691 200.775 137.364 200.113C136.705 198.781 136.319 197.204 136.319 196.223C136.319 192.361 138.612 188.976 142.001 187.402L142.774 187.044L142.141 186.474C140.963 185.414 140.154 183.898 140.154 182.163C140.154 178.894 142.714 176.334 145.983 176.334C149.251 176.334 151.811 178.894 151.811 182.163C151.811 183.898 151.002 185.414 149.824 186.474ZM145.983 177.765C143.499 177.765 141.585 179.679 141.585 182.163C141.585 184.646 143.499 186.56 145.983 186.56C148.466 186.56 150.38 184.646 150.38 182.163C150.38 179.679 148.466 177.765 145.983 177.765ZM139.591 200.877H152.374C152.686 200.877 152.916 200.707 153.058 200.557C153.202 200.405 153.314 200.214 153.404 200.027C153.585 199.65 153.732 199.166 153.847 198.689C154.077 197.737 154.215 196.667 154.215 196.223C154.215 191.694 150.511 187.991 145.983 187.991C141.454 187.991 137.75 191.694 137.75 196.223C137.75 196.667 137.888 197.737 138.118 198.689C138.233 199.166 138.38 199.65 138.561 200.027C138.651 200.214 138.763 200.405 138.907 200.557C139.049 200.707 139.279 200.877 139.591 200.877Z" fill="#004357"/>
</g>
<mask id="mask21_6262_106858" style="mask-type:alpha" maskUnits="userSpaceOnUse" x="166" y="174" width="23" height="27">
<path d="M166.41 174.993H188.917V188.805C188.917 195.02 183.879 200.058 177.664 200.058V200.058C171.449 200.058 166.41 195.02 166.41 188.805V174.993Z" fill="#D9D9D9"/>
</mask>
<g mask="url(#mask21_6262_106858)">
<path fill-rule="evenodd" clip-rule="evenodd" d="M181.334 186.474L180.701 187.044L181.473 187.402C184.863 188.976 187.155 192.361 187.155 196.223C187.155 197.204 186.769 198.781 186.111 200.113C185.784 200.775 185.406 201.343 185.005 201.737C184.602 202.133 184.224 202.309 183.883 202.309H171.101C170.761 202.309 170.383 202.133 169.98 201.737C169.579 201.343 169.2 200.775 168.873 200.113C168.215 198.781 167.829 197.204 167.829 196.223C167.829 192.361 170.122 188.976 173.511 187.402L174.284 187.044L173.651 186.474C172.473 185.414 171.664 183.898 171.664 182.163C171.664 178.894 174.224 176.334 177.492 176.334C180.761 176.334 183.321 178.894 183.321 182.163C183.321 183.898 182.512 185.414 181.334 186.474ZM177.492 177.765C175.009 177.765 173.095 179.679 173.095 182.163C173.095 184.646 175.009 186.56 177.492 186.56C179.976 186.56 181.89 184.646 181.89 182.163C181.89 179.679 179.976 177.765 177.492 177.765ZM171.101 200.877H183.883C184.196 200.877 184.426 200.707 184.567 200.557C184.711 200.405 184.824 200.214 184.914 200.027C185.095 199.65 185.242 199.166 185.357 198.689C185.587 197.737 185.724 196.667 185.724 196.223C185.724 191.694 182.021 187.991 177.492 187.991C172.963 187.991 169.26 191.694 169.26 196.223C169.26 196.667 169.398 197.737 169.627 198.689C169.743 199.166 169.889 199.65 170.071 200.027C170.161 200.214 170.273 200.405 170.417 200.557C170.559 200.707 170.788 200.877 171.101 200.877Z" fill="#004357"/>
</g>
<mask id="mask22_6262_106858" style="mask-type:alpha" maskUnits="userSpaceOnUse" x="197" y="174" width="24" height="27">
<path d="M197.92 174.993H220.427V188.805C220.427 195.02 215.389 200.058 209.174 200.058V200.058C202.958 200.058 197.92 195.02 197.92 188.805V174.993Z" fill="#D9D9D9"/>
</mask>
<g mask="url(#mask22_6262_106858)">
<path fill-rule="evenodd" clip-rule="evenodd" d="M212.844 186.474L212.211 187.044L212.983 187.402C216.372 188.976 218.665 192.361 218.665 196.223C218.665 197.204 218.279 198.781 217.621 200.113C217.294 200.775 216.916 201.343 216.515 201.737C216.111 202.133 215.734 202.309 215.393 202.309H202.611C202.27 202.309 201.893 202.133 201.489 201.737C201.088 201.343 200.71 200.775 200.383 200.113C199.725 198.781 199.339 197.204 199.339 196.223C199.339 192.361 201.632 188.976 205.021 187.402L205.793 187.044L205.16 186.474C203.983 185.414 203.174 183.898 203.174 182.163C203.174 178.894 205.734 176.334 209.002 176.334C212.27 176.334 214.831 178.894 214.831 182.163C214.831 183.898 214.021 185.414 212.844 186.474ZM209.002 177.765C206.518 177.765 204.605 179.679 204.605 182.163C204.605 184.646 206.518 186.56 209.002 186.56C211.486 186.56 213.399 184.646 213.399 182.163C213.399 179.679 211.486 177.765 209.002 177.765ZM202.611 200.877H215.393C215.706 200.877 215.936 200.707 216.077 200.557C216.221 200.405 216.334 200.214 216.423 200.027C216.605 199.65 216.752 199.166 216.867 198.689C217.096 197.737 217.234 196.667 217.234 196.223C217.234 191.694 213.531 187.991 209.002 187.991C204.473 187.991 200.77 191.694 200.77 196.223C200.77 196.667 200.908 197.737 201.137 198.689C201.252 199.166 201.399 199.65 201.581 200.027C201.67 200.214 201.783 200.405 201.927 200.557C202.069 200.707 202.298 200.877 202.611 200.877Z" fill="#004357"/>
</g>
<mask id="mask23_6262_106858" style="mask-type:alpha" maskUnits="userSpaceOnUse" x="229" y="174" width="23" height="27">
<path d="M229.431 174.993H251.938V188.805C251.938 195.02 246.899 200.058 240.684 200.058V200.058C234.469 200.058 229.431 195.02 229.431 188.805V174.993Z" fill="#D9D9D9"/>
</mask>
<g mask="url(#mask23_6262_106858)">
<path fill-rule="evenodd" clip-rule="evenodd" d="M244.355 186.474L243.721 187.044L244.494 187.402C247.883 188.976 250.176 192.361 250.176 196.223C250.176 197.204 249.79 198.781 249.132 200.113C248.805 200.775 248.427 201.343 248.025 201.737C247.622 202.133 247.244 202.309 246.904 202.309H234.122C233.781 202.309 233.404 202.133 233 201.737C232.599 201.343 232.221 200.775 231.894 200.113C231.236 198.781 230.85 197.204 230.85 196.223C230.85 192.361 233.142 188.976 236.532 187.402L237.304 187.044L236.671 186.474C235.493 185.414 234.684 183.898 234.684 182.163C234.684 178.894 237.244 176.334 240.513 176.334C243.781 176.334 246.341 178.894 246.341 182.163C246.341 183.898 245.532 185.414 244.355 186.474ZM240.513 177.765C238.029 177.765 236.115 179.679 236.115 182.163C236.115 184.646 238.029 186.56 240.513 186.56C242.997 186.56 244.91 184.646 244.91 182.163C244.91 179.679 242.997 177.765 240.513 177.765ZM234.122 200.877H246.904C247.217 200.877 247.446 200.707 247.588 200.557C247.732 200.405 247.844 200.214 247.934 200.027C248.116 199.65 248.262 199.166 248.378 198.689C248.607 197.737 248.745 196.667 248.745 196.223C248.745 191.694 245.042 187.991 240.513 187.991C235.984 187.991 232.281 191.694 232.281 196.223C232.281 196.667 232.418 197.737 232.648 198.689C232.763 199.166 232.91 199.65 233.091 200.027C233.181 200.214 233.294 200.405 233.438 200.557C233.579 200.707 233.809 200.877 234.122 200.877Z" fill="#004357"/>
</g>
<mask id="mask24_6262_106858" style="mask-type:alpha" maskUnits="userSpaceOnUse" x="260" y="174" width="24" height="27">
<path d="M260.94 174.993H283.448V188.805C283.448 195.02 278.409 200.058 272.194 200.058V200.058C265.979 200.058 260.94 195.02 260.94 188.805V174.993Z" fill="#D9D9D9"/>
</mask>
<g mask="url(#mask24_6262_106858)">
<path fill-rule="evenodd" clip-rule="evenodd" d="M275.864 186.474L275.231 187.044L276.004 187.402C279.393 188.976 281.686 192.361 281.686 196.223C281.686 197.204 281.3 198.781 280.641 200.113C280.314 200.775 279.936 201.343 279.535 201.737C279.132 202.133 278.754 202.309 278.414 202.309H265.631C265.291 202.309 264.913 202.133 264.51 201.737C264.109 201.343 263.731 200.775 263.404 200.113C262.745 198.781 262.359 197.204 262.359 196.223C262.359 192.361 264.652 188.976 268.041 187.402L268.814 187.044L268.181 186.474C267.003 185.414 266.194 183.898 266.194 182.163C266.194 178.894 268.754 176.334 272.023 176.334C275.291 176.334 277.851 178.894 277.851 182.163C277.851 183.898 277.042 185.414 275.864 186.474ZM272.023 177.765C269.539 177.765 267.625 179.679 267.625 182.163C267.625 184.646 269.539 186.56 272.023 186.56C274.506 186.56 276.42 184.646 276.42 182.163C276.42 179.679 274.506 177.765 272.023 177.765ZM265.631 200.877H278.414C278.726 200.877 278.956 200.707 279.098 200.557C279.242 200.405 279.354 200.214 279.444 200.027C279.625 199.65 279.772 199.166 279.887 198.689C280.117 197.737 280.255 196.667 280.255 196.223C280.255 191.694 276.551 187.991 272.023 187.991C267.494 187.991 263.79 191.694 263.79 196.223C263.79 196.667 263.928 197.737 264.158 198.689C264.273 199.166 264.42 199.65 264.601 200.027C264.691 200.214 264.804 200.405 264.947 200.557C265.089 200.707 265.319 200.877 265.631 200.877Z" fill="#004357"/>
</g>
<mask id="mask25_6262_106858" style="mask-type:alpha" maskUnits="userSpaceOnUse" x="292" y="174" width="23" height="27">
<path d="M292.45 174.993H314.957V188.805C314.957 195.02 309.919 200.058 303.704 200.058V200.058C297.489 200.058 292.45 195.02 292.45 188.805V174.993Z" fill="#D9D9D9"/>
</mask>
<g mask="url(#mask25_6262_106858)">
<path fill-rule="evenodd" clip-rule="evenodd" d="M307.374 186.474L306.741 187.044L307.514 187.402C310.903 188.976 313.195 192.361 313.195 196.223C313.195 197.204 312.81 198.781 312.151 200.113C311.824 200.775 311.446 201.343 311.045 201.737C310.642 202.133 310.264 202.309 309.923 202.309H297.141C296.801 202.309 296.423 202.133 296.02 201.737C295.619 201.343 295.24 200.775 294.913 200.113C294.255 198.781 293.869 197.204 293.869 196.223C293.869 192.361 296.162 188.976 299.551 187.402L300.324 187.044L299.691 186.474C298.513 185.414 297.704 183.898 297.704 182.163C297.704 178.894 300.264 176.334 303.532 176.334C306.801 176.334 309.361 178.894 309.361 182.163C309.361 183.898 308.552 185.414 307.374 186.474ZM303.532 177.765C301.049 177.765 299.135 179.679 299.135 182.163C299.135 184.646 301.049 186.56 303.532 186.56C306.016 186.56 307.93 184.646 307.93 182.163C307.93 179.679 306.016 177.765 303.532 177.765ZM297.141 200.877H309.923C310.236 200.877 310.466 200.707 310.607 200.557C310.751 200.405 310.864 200.214 310.954 200.027C311.135 199.65 311.282 199.166 311.397 198.689C311.627 197.737 311.764 196.667 311.764 196.223C311.764 191.694 308.061 187.991 303.532 187.991C299.003 187.991 295.3 191.694 295.3 196.223C295.3 196.667 295.438 197.737 295.667 198.689C295.783 199.166 295.929 199.65 296.111 200.027C296.201 200.214 296.313 200.405 296.457 200.557C296.599 200.707 296.828 200.877 297.141 200.877Z" fill="#004357"/>
</g>
<mask id="mask26_6262_106858" style="mask-type:alpha" maskUnits="userSpaceOnUse" x="71" y="209" width="24" height="26">
<path d="M71.8799 209.061H94.387V222.872C94.387 229.088 89.3486 234.126 83.1335 234.126V234.126C76.9183 234.126 71.8799 229.088 71.8799 222.872V209.061Z" fill="#D9D9D9"/>
</mask>
<g mask="url(#mask26_6262_106858)">
<path fill-rule="evenodd" clip-rule="evenodd" d="M86.8038 220.542L86.1706 221.111L86.9432 221.47C90.3324 223.044 92.6252 226.429 92.6252 230.291C92.6252 231.272 92.2392 232.848 91.5809 234.181C91.2539 234.842 90.8757 235.41 90.4746 235.805C90.0712 236.201 89.6937 236.376 89.3532 236.376H76.5708C76.2303 236.376 75.8528 236.201 75.4494 235.805C75.0483 235.41 74.6702 234.842 74.3431 234.181C73.6848 232.848 73.2988 231.272 73.2988 230.291C73.2988 226.429 75.5916 223.044 78.9808 221.47L79.7534 221.111L79.1203 220.542C77.9426 219.482 77.1335 217.965 77.1335 216.23C77.1335 212.962 79.6937 210.402 82.962 210.402C86.2303 210.402 88.7905 212.962 88.7905 216.23C88.7905 217.965 87.9814 219.482 86.8038 220.542ZM82.962 211.833C80.4783 211.833 78.5646 213.747 78.5646 216.23C78.5646 218.714 80.4783 220.628 82.962 220.628C85.4458 220.628 87.3594 218.714 87.3594 216.23C87.3594 213.747 85.4458 211.833 82.962 211.833ZM76.5708 234.945H89.3532C89.6659 234.945 89.8955 234.775 90.0371 234.625C90.181 234.473 90.2936 234.282 90.3835 234.095C90.5648 233.718 90.7117 233.234 90.8269 232.756C91.0564 231.805 91.1941 230.735 91.1941 230.291C91.1941 225.762 87.4909 222.059 82.962 222.059C78.4331 222.059 74.7299 225.762 74.7299 230.291C74.7299 230.735 74.8676 231.805 75.0971 232.756C75.2123 233.234 75.3592 233.718 75.5406 234.095C75.6304 234.282 75.743 234.473 75.8869 234.625C76.0285 234.775 76.2581 234.945 76.5708 234.945Z" fill="#004357"/>
</g>
<mask id="mask27_6262_106858" style="mask-type:alpha" maskUnits="userSpaceOnUse" x="103" y="209" width="23" height="26">
<path d="M103.391 209.061H125.898V222.872C125.898 229.088 120.859 234.126 114.644 234.126V234.126C108.429 234.126 103.391 229.088 103.391 222.872V209.061Z" fill="#D9D9D9"/>
</mask>
<g mask="url(#mask27_6262_106858)">
<path fill-rule="evenodd" clip-rule="evenodd" d="M118.314 220.542L117.681 221.111L118.454 221.47C121.843 223.044 124.136 226.429 124.136 230.291C124.136 231.272 123.75 232.848 123.092 234.181C122.765 234.842 122.386 235.41 121.985 235.805C121.582 236.201 121.204 236.376 120.864 236.376H108.082C107.741 236.376 107.364 236.201 106.96 235.805C106.559 235.41 106.181 234.842 105.854 234.181C105.196 232.848 104.81 231.272 104.81 230.291C104.81 226.429 107.102 223.044 110.492 221.47L111.264 221.111L110.631 220.542C109.453 219.482 108.644 217.965 108.644 216.23C108.644 212.962 111.204 210.402 114.473 210.402C117.741 210.402 120.301 212.962 120.301 216.23C120.301 217.965 119.492 219.482 118.314 220.542ZM114.473 211.833C111.989 211.833 110.075 213.747 110.075 216.23C110.075 218.714 111.989 220.628 114.473 220.628C116.957 220.628 118.87 218.714 118.87 216.23C118.87 213.747 116.957 211.833 114.473 211.833ZM108.082 234.945H120.864C121.177 234.945 121.406 234.775 121.548 234.625C121.692 234.473 121.804 234.282 121.894 234.095C122.076 233.718 122.222 233.234 122.338 232.756C122.567 231.805 122.705 230.735 122.705 230.291C122.705 225.762 119.002 222.059 114.473 222.059C109.944 222.059 106.241 225.762 106.241 230.291C106.241 230.735 106.378 231.805 106.608 232.756C106.723 233.234 106.87 233.718 107.051 234.095C107.141 234.282 107.254 234.473 107.398 234.625C107.539 234.775 107.769 234.945 108.082 234.945Z" fill="#004357"/>
</g>
<mask id="mask28_6262_106858" style="mask-type:alpha" maskUnits="userSpaceOnUse" x="134" y="209" width="24" height="26">
<path d="M134.9 209.061H157.408V222.872C157.408 229.088 152.369 234.126 146.154 234.126V234.126C139.939 234.126 134.9 229.088 134.9 222.872V209.061Z" fill="#D9D9D9"/>
</mask>
<g mask="url(#mask28_6262_106858)">
<path fill-rule="evenodd" clip-rule="evenodd" d="M149.824 220.542L149.191 221.111L149.964 221.47C153.353 223.044 155.646 226.429 155.646 230.291C155.646 231.272 155.26 232.848 154.601 234.181C154.274 234.842 153.896 235.41 153.495 235.805C153.092 236.201 152.714 236.376 152.374 236.376H139.591C139.251 236.376 138.873 236.201 138.47 235.805C138.069 235.41 137.691 234.842 137.364 234.181C136.705 232.848 136.319 231.272 136.319 230.291C136.319 226.429 138.612 223.044 142.001 221.47L142.774 221.111L142.141 220.542C140.963 219.482 140.154 217.965 140.154 216.23C140.154 212.962 142.714 210.402 145.983 210.402C149.251 210.402 151.811 212.962 151.811 216.23C151.811 217.965 151.002 219.482 149.824 220.542ZM145.983 211.833C143.499 211.833 141.585 213.747 141.585 216.23C141.585 218.714 143.499 220.628 145.983 220.628C148.466 220.628 150.38 218.714 150.38 216.23C150.38 213.747 148.466 211.833 145.983 211.833ZM139.591 234.945H152.374C152.686 234.945 152.916 234.775 153.058 234.625C153.202 234.473 153.314 234.282 153.404 234.095C153.585 233.718 153.732 233.234 153.847 232.756C154.077 231.805 154.215 230.735 154.215 230.291C154.215 225.762 150.511 222.059 145.983 222.059C141.454 222.059 137.75 225.762 137.75 230.291C137.75 230.735 137.888 231.805 138.118 232.756C138.233 233.234 138.38 233.718 138.561 234.095C138.651 234.282 138.763 234.473 138.907 234.625C139.049 234.775 139.279 234.945 139.591 234.945Z" fill="#004357"/>
</g>
<mask id="mask29_6262_106858" style="mask-type:alpha" maskUnits="userSpaceOnUse" x="166" y="209" width="23" height="26">
<path d="M166.41 209.061H188.917V222.872C188.917 229.088 183.879 234.126 177.664 234.126V234.126C171.449 234.126 166.41 229.088 166.41 222.872V209.061Z" fill="#D9D9D9"/>
</mask>
<g mask="url(#mask29_6262_106858)">
<path fill-rule="evenodd" clip-rule="evenodd" d="M181.334 220.542L180.701 221.111L181.473 221.47C184.863 223.044 187.155 226.429 187.155 230.291C187.155 231.272 186.769 232.848 186.111 234.181C185.784 234.842 185.406 235.41 185.005 235.805C184.602 236.201 184.224 236.376 183.883 236.376H171.101C170.761 236.376 170.383 236.201 169.98 235.805C169.579 235.41 169.2 234.842 168.873 234.181C168.215 232.848 167.829 231.272 167.829 230.291C167.829 226.429 170.122 223.044 173.511 221.47L174.284 221.111L173.651 220.542C172.473 219.482 171.664 217.965 171.664 216.23C171.664 212.962 174.224 210.402 177.492 210.402C180.761 210.402 183.321 212.962 183.321 216.23C183.321 217.965 182.512 219.482 181.334 220.542ZM177.492 211.833C175.009 211.833 173.095 213.747 173.095 216.23C173.095 218.714 175.009 220.628 177.492 220.628C179.976 220.628 181.89 218.714 181.89 216.23C181.89 213.747 179.976 211.833 177.492 211.833ZM171.101 234.945H183.883C184.196 234.945 184.426 234.775 184.567 234.625C184.711 234.473 184.824 234.282 184.914 234.095C185.095 233.718 185.242 233.234 185.357 232.756C185.587 231.805 185.724 230.735 185.724 230.291C185.724 225.762 182.021 222.059 177.492 222.059C172.963 222.059 169.26 225.762 169.26 230.291C169.26 230.735 169.398 231.805 169.627 232.756C169.743 233.234 169.889 233.718 170.071 234.095C170.161 234.282 170.273 234.473 170.417 234.625C170.559 234.775 170.788 234.945 171.101 234.945Z" fill="#004357"/>
</g>
<mask id="mask30_6262_106858" style="mask-type:alpha" maskUnits="userSpaceOnUse" x="197" y="209" width="24" height="26">
<path d="M197.92 209.061H220.427V222.872C220.427 229.088 215.389 234.126 209.174 234.126V234.126C202.958 234.126 197.92 229.088 197.92 222.872V209.061Z" fill="#D9D9D9"/>
</mask>
<g mask="url(#mask30_6262_106858)">
<path fill-rule="evenodd" clip-rule="evenodd" d="M212.844 220.542L212.211 221.111L212.983 221.47C216.372 223.044 218.665 226.429 218.665 230.291C218.665 231.272 218.279 232.848 217.621 234.181C217.294 234.842 216.916 235.41 216.515 235.805C216.111 236.201 215.734 236.376 215.393 236.376H202.611C202.27 236.376 201.893 236.201 201.489 235.805C201.088 235.41 200.71 234.842 200.383 234.181C199.725 232.848 199.339 231.272 199.339 230.291C199.339 226.429 201.632 223.044 205.021 221.47L205.793 221.111L205.16 220.542C203.983 219.482 203.174 217.965 203.174 216.23C203.174 212.962 205.734 210.402 209.002 210.402C212.27 210.402 214.831 212.962 214.831 216.23C214.831 217.965 214.021 219.482 212.844 220.542ZM209.002 211.833C206.518 211.833 204.605 213.747 204.605 216.23C204.605 218.714 206.518 220.628 209.002 220.628C211.486 220.628 213.399 218.714 213.399 216.23C213.399 213.747 211.486 211.833 209.002 211.833ZM202.611 234.945H215.393C215.706 234.945 215.936 234.775 216.077 234.625C216.221 234.473 216.334 234.282 216.423 234.095C216.605 233.718 216.752 233.234 216.867 232.756C217.096 231.805 217.234 230.735 217.234 230.291C217.234 225.762 213.531 222.059 209.002 222.059C204.473 222.059 200.77 225.762 200.77 230.291C200.77 230.735 200.908 231.805 201.137 232.756C201.252 233.234 201.399 233.718 201.581 234.095C201.67 234.282 201.783 234.473 201.927 234.625C202.069 234.775 202.298 234.945 202.611 234.945Z" fill="#004357"/>
</g>
<mask id="mask31_6262_106858" style="mask-type:alpha" maskUnits="userSpaceOnUse" x="229" y="209" width="23" height="26">
<path d="M229.431 209.061H251.938V222.872C251.938 229.088 246.899 234.126 240.684 234.126V234.126C234.469 234.126 229.431 229.088 229.431 222.872V209.061Z" fill="#D9D9D9"/>
</mask>
<g mask="url(#mask31_6262_106858)">
<path fill-rule="evenodd" clip-rule="evenodd" d="M244.355 220.542L243.721 221.111L244.494 221.47C247.883 223.044 250.176 226.429 250.176 230.291C250.176 231.272 249.79 232.848 249.132 234.181C248.805 234.842 248.427 235.41 248.025 235.805C247.622 236.201 247.244 236.376 246.904 236.376H234.122C233.781 236.376 233.404 236.201 233 235.805C232.599 235.41 232.221 234.842 231.894 234.181C231.236 232.848 230.85 231.272 230.85 230.291C230.85 226.429 233.142 223.044 236.532 221.47L237.304 221.111L236.671 220.542C235.493 219.482 234.684 217.965 234.684 216.23C234.684 212.962 237.244 210.402 240.513 210.402C243.781 210.402 246.341 212.962 246.341 216.23C246.341 217.965 245.532 219.482 244.355 220.542ZM240.513 211.833C238.029 211.833 236.115 213.747 236.115 216.23C236.115 218.714 238.029 220.628 240.513 220.628C242.997 220.628 244.91 218.714 244.91 216.23C244.91 213.747 242.997 211.833 240.513 211.833ZM234.122 234.945H246.904C247.217 234.945 247.446 234.775 247.588 234.625C247.732 234.473 247.844 234.282 247.934 234.095C248.116 233.718 248.262 233.234 248.378 232.756C248.607 231.805 248.745 230.735 248.745 230.291C248.745 225.762 245.042 222.059 240.513 222.059C235.984 222.059 232.281 225.762 232.281 230.291C232.281 230.735 232.418 231.805 232.648 232.756C232.763 233.234 232.91 233.718 233.091 234.095C233.181 234.282 233.294 234.473 233.438 234.625C233.579 234.775 233.809 234.945 234.122 234.945Z" fill="#004357"/>
</g>
<mask id="mask32_6262_106858" style="mask-type:alpha" maskUnits="userSpaceOnUse" x="260" y="209" width="24" height="26">
<path d="M260.94 209.061H283.448V222.872C283.448 229.088 278.409 234.126 272.194 234.126V234.126C265.979 234.126 260.94 229.088 260.94 222.872V209.061Z" fill="#D9D9D9"/>
</mask>
<g mask="url(#mask32_6262_106858)">
<path fill-rule="evenodd" clip-rule="evenodd" d="M275.864 220.542L275.231 221.111L276.004 221.47C279.393 223.044 281.686 226.429 281.686 230.291C281.686 231.272 281.3 232.848 280.641 234.181C280.314 234.842 279.936 235.41 279.535 235.805C279.132 236.201 278.754 236.376 278.414 236.376H265.631C265.291 236.376 264.913 236.201 264.51 235.805C264.109 235.41 263.731 234.842 263.404 234.181C262.745 232.848 262.359 231.272 262.359 230.291C262.359 226.429 264.652 223.044 268.041 221.47L268.814 221.111L268.181 220.542C267.003 219.482 266.194 217.965 266.194 216.23C266.194 212.962 268.754 210.402 272.023 210.402C275.291 210.402 277.851 212.962 277.851 216.23C277.851 217.965 277.042 219.482 275.864 220.542ZM272.023 211.833C269.539 211.833 267.625 213.747 267.625 216.23C267.625 218.714 269.539 220.628 272.023 220.628C274.506 220.628 276.42 218.714 276.42 216.23C276.42 213.747 274.506 211.833 272.023 211.833ZM265.631 234.945H278.414C278.726 234.945 278.956 234.775 279.098 234.625C279.242 234.473 279.354 234.282 279.444 234.095C279.625 233.718 279.772 233.234 279.887 232.756C280.117 231.805 280.255 230.735 280.255 230.291C280.255 225.762 276.551 222.059 272.023 222.059C267.494 222.059 263.79 225.762 263.79 230.291C263.79 230.735 263.928 231.805 264.158 232.756C264.273 233.234 264.42 233.718 264.601 234.095C264.691 234.282 264.804 234.473 264.947 234.625C265.089 234.775 265.319 234.945 265.631 234.945Z" fill="#004357"/>
</g>
<mask id="mask33_6262_106858" style="mask-type:alpha" maskUnits="userSpaceOnUse" x="292" y="209" width="23" height="26">
<path d="M292.45 209.061H314.957V222.872C314.957 229.088 309.919 234.126 303.704 234.126V234.126C297.489 234.126 292.45 229.088 292.45 222.872V209.061Z" fill="#D9D9D9"/>
</mask>
<g mask="url(#mask33_6262_106858)">
<path fill-rule="evenodd" clip-rule="evenodd" d="M307.374 220.542L306.741 221.111L307.514 221.47C310.903 223.044 313.195 226.429 313.195 230.291C313.195 231.272 312.81 232.848 312.151 234.181C311.824 234.842 311.446 235.41 311.045 235.805C310.642 236.201 310.264 236.376 309.923 236.376H297.141C296.801 236.376 296.423 236.201 296.02 235.805C295.619 235.41 295.24 234.842 294.913 234.181C294.255 232.848 293.869 231.272 293.869 230.291C293.869 226.429 296.162 223.044 299.551 221.47L300.324 221.111L299.691 220.542C298.513 219.482 297.704 217.965 297.704 216.23C297.704 212.962 300.264 210.402 303.532 210.402C306.801 210.402 309.361 212.962 309.361 216.23C309.361 217.965 308.552 219.482 307.374 220.542ZM303.532 211.833C301.049 211.833 299.135 213.747 299.135 216.23C299.135 218.714 301.049 220.628 303.532 220.628C306.016 220.628 307.93 218.714 307.93 216.23C307.93 213.747 306.016 211.833 303.532 211.833ZM297.141 234.945H309.923C310.236 234.945 310.466 234.775 310.607 234.625C310.751 234.473 310.864 234.282 310.954 234.095C311.135 233.718 311.282 233.234 311.397 232.756C311.627 231.805 311.764 230.735 311.764 230.291C311.764 225.762 308.061 222.059 303.532 222.059C299.003 222.059 295.3 225.762 295.3 230.291C295.3 230.735 295.438 231.805 295.667 232.756C295.783 233.234 295.929 233.718 296.111 234.095C296.201 234.282 296.313 234.473 296.457 234.625C296.599 234.775 296.828 234.945 297.141 234.945Z" fill="#004357"/>
</g>
<path d="M229.455 168.108C229.724 168.264 230.068 168.172 230.224 167.903L232.763 163.521C232.919 163.253 232.827 162.908 232.558 162.753C232.289 162.597 231.945 162.688 231.789 162.957L229.533 166.852L225.638 164.595C225.369 164.439 225.025 164.531 224.869 164.8C224.713 165.069 224.805 165.413 225.074 165.569L229.455 168.108ZM197.323 148.325C204.897 146.731 211.775 147.538 217.288 150.742C222.797 153.942 227.012 159.574 229.194 167.766L230.281 167.476C228.038 159.052 223.666 153.145 217.854 149.769C212.047 146.395 204.871 145.587 197.091 147.224L197.323 148.325Z" fill="#004357"/>
</svg>
