<svg width="420" height="308" viewBox="0 0 420 308" fill="none" xmlns="http://www.w3.org/2000/svg">
<mask id="mask0_6258_102668" style="mask-type:alpha" maskUnits="userSpaceOnUse" x="1" y="71" width="30" height="34">
<path d="M1.25586 71.5536H30.7965V89.681C30.7965 97.8384 24.1836 104.451 16.0262 104.451V104.451C7.86876 104.451 1.25586 97.8384 1.25586 89.6809V71.5536Z" fill="#D9D9D9"/>
</mask>
<g mask="url(#mask0_6258_102668)">
<path fill-rule="evenodd" clip-rule="evenodd" d="M20.8434 86.6217L20.0123 87.3697L21.0264 87.8405C25.4747 89.9058 28.484 94.349 28.484 99.4177C28.484 100.705 27.9774 102.774 27.1134 104.523C26.6841 105.392 26.1879 106.137 25.6614 106.654C25.1319 107.175 24.6364 107.405 24.1895 107.405H7.41269C6.96572 107.405 6.47022 107.175 5.94076 106.654C5.41432 106.137 4.91804 105.392 4.48874 104.523C3.62474 102.774 3.11816 100.705 3.11816 99.4177C3.11816 94.349 6.12748 89.9058 10.5757 87.8405L11.5898 87.3697L10.7588 86.6217C9.21313 85.2306 8.1512 83.2406 8.1512 80.9632C8.1512 76.6736 11.5115 73.3134 15.8011 73.3134C20.0907 73.3134 23.451 76.6736 23.451 80.9632C23.451 83.2406 22.389 85.2306 20.8434 86.6217ZM15.8011 75.1917C12.5412 75.1917 10.0295 77.7033 10.0295 80.9632C10.0295 84.2232 12.5412 86.7348 15.8011 86.7348C19.061 86.7348 21.5726 84.2232 21.5726 80.9632C21.5726 77.7033 19.061 75.1917 15.8011 75.1917ZM7.41269 105.526H24.1895C24.5999 105.526 24.9013 105.303 25.0872 105.106C25.276 104.906 25.4239 104.656 25.5417 104.411C25.7798 103.916 25.9725 103.28 26.1237 102.654C26.425 101.405 26.6057 100 26.6057 99.4177C26.6057 93.4735 21.7453 88.6131 15.8011 88.6131C9.85687 88.6131 4.99649 93.4735 4.99649 99.4177C4.99649 100 5.17717 101.405 5.47846 102.654C5.62964 103.28 5.82237 103.916 6.06044 104.411C6.17831 104.656 6.32613 104.906 6.51499 105.106C6.7009 105.303 7.00223 105.526 7.41269 105.526Z" fill="#004357"/>
</g>
<mask id="mask1_6258_102668" style="mask-type:alpha" maskUnits="userSpaceOnUse" x="42" y="71" width="31" height="34">
<path d="M42.6123 71.5536H72.1529V89.681C72.1529 97.8384 65.5401 104.451 57.3826 104.451V104.451C49.2252 104.451 42.6123 97.8384 42.6123 89.6809V71.5536Z" fill="#D9D9D9"/>
</mask>
<g mask="url(#mask1_6258_102668)">
<path fill-rule="evenodd" clip-rule="evenodd" d="M62.1998 86.6217L61.3688 87.3697L62.3829 87.8405C66.8311 89.9058 69.8404 94.349 69.8404 99.4177C69.8404 100.705 69.3339 102.774 68.4699 104.523C68.0406 105.392 67.5443 106.137 67.0179 106.654C66.4884 107.175 65.9929 107.405 65.5459 107.405H48.7691C48.3222 107.405 47.8267 107.175 47.2972 106.654C46.7708 106.137 46.2745 105.392 45.8452 104.523C44.9812 102.774 44.4746 100.705 44.4746 99.4177C44.4746 94.349 47.4839 89.9058 51.9322 87.8405L52.9463 87.3697L52.1152 86.6217C50.5696 85.2306 49.5076 83.2406 49.5076 80.9632C49.5076 76.6736 52.8679 73.3134 57.1575 73.3134C61.4472 73.3134 64.8074 76.6736 64.8074 80.9632C64.8074 83.2406 63.7455 85.2306 62.1998 86.6217ZM57.1575 75.1917C53.8976 75.1917 51.386 77.7033 51.386 80.9632C51.386 84.2232 53.8976 86.7348 57.1575 86.7348C60.4175 86.7348 62.9291 84.2232 62.9291 80.9632C62.9291 77.7033 60.4175 75.1917 57.1575 75.1917ZM48.7691 105.526H65.5459C65.9564 105.526 66.2577 105.303 66.4436 105.106C66.6325 104.906 66.7803 104.656 66.8982 104.411C67.1362 103.916 67.329 103.28 67.4802 102.654C67.7814 101.405 67.9621 100 67.9621 99.4177C67.9621 93.4735 63.1017 88.6131 57.1575 88.6131C51.2133 88.6131 46.3529 93.4735 46.3529 99.4177C46.3529 100 46.5336 101.405 46.8349 102.654C46.9861 103.28 47.1788 103.916 47.4169 104.411C47.5348 104.656 47.6826 104.906 47.8714 105.106C48.0573 105.303 48.3587 105.526 48.7691 105.526Z" fill="#004357"/>
</g>
<mask id="mask2_6258_102668" style="mask-type:alpha" maskUnits="userSpaceOnUse" x="83" y="71" width="31" height="34">
<path d="M83.9697 71.5536H113.51V89.681C113.51 97.8384 106.897 104.451 98.74 104.451V104.451C90.5826 104.451 83.9697 97.8384 83.9697 89.6809V71.5536Z" fill="#D9D9D9"/>
</mask>
<g mask="url(#mask2_6258_102668)">
<path fill-rule="evenodd" clip-rule="evenodd" d="M103.557 86.6217L102.726 87.3697L103.74 87.8405C108.189 89.9058 111.198 94.349 111.198 99.4177C111.198 100.705 110.691 102.774 109.827 104.523C109.398 105.392 108.902 106.137 108.375 106.654C107.846 107.175 107.35 107.405 106.903 107.405H90.1266C89.6796 107.405 89.1841 107.175 88.6546 106.654C88.1282 106.137 87.6319 105.392 87.2026 104.523C86.3386 102.774 85.832 100.705 85.832 99.4177C85.832 94.349 88.8413 89.9058 93.2896 87.8405L94.3037 87.3697L93.4727 86.6217C91.927 85.2306 90.8651 83.2406 90.8651 80.9632C90.8651 76.6736 94.2253 73.3134 98.515 73.3134C102.805 73.3134 106.165 76.6736 106.165 80.9632C106.165 83.2406 105.103 85.2306 103.557 86.6217ZM98.515 75.1917C95.255 75.1917 92.7434 77.7033 92.7434 80.9632C92.7434 84.2232 95.255 86.7348 98.515 86.7348C101.775 86.7348 104.287 84.2232 104.287 80.9632C104.287 77.7033 101.775 75.1917 98.515 75.1917ZM90.1266 105.526H106.903C107.314 105.526 107.615 105.303 107.801 105.106C107.99 104.906 108.138 104.656 108.256 104.411C108.494 103.916 108.686 103.28 108.838 102.654C109.139 101.405 109.32 100 109.32 99.4177C109.32 93.4735 104.459 88.6131 98.515 88.6131C92.5707 88.6131 87.7104 93.4735 87.7104 99.4177C87.7104 100 87.891 101.405 88.1923 102.654C88.3435 103.28 88.5362 103.916 88.7743 104.411C88.8922 104.656 89.04 104.906 89.2289 105.106C89.4148 105.303 89.7161 105.526 90.1266 105.526Z" fill="#004357"/>
</g>
<mask id="mask3_6258_102668" style="mask-type:alpha" maskUnits="userSpaceOnUse" x="125" y="71" width="30" height="34">
<path d="M125.326 71.5536H154.867V89.681C154.867 97.8384 148.254 104.451 140.096 104.451V104.451C131.939 104.451 125.326 97.8384 125.326 89.6809V71.5536Z" fill="#D9D9D9"/>
</mask>
<g mask="url(#mask3_6258_102668)">
<path fill-rule="evenodd" clip-rule="evenodd" d="M144.914 86.6217L144.083 87.3697L145.097 87.8405C149.545 89.9058 152.554 94.349 152.554 99.4177C152.554 100.705 152.048 102.774 151.184 104.523C150.754 105.392 150.258 106.137 149.732 106.654C149.202 107.175 148.707 107.405 148.26 107.405H131.483C131.036 107.405 130.541 107.175 130.011 106.654C129.485 106.137 128.988 105.392 128.559 104.523C127.695 102.774 127.188 100.705 127.188 99.4177C127.188 94.349 130.198 89.9058 134.646 87.8405L135.66 87.3697L134.829 86.6217C133.283 85.2306 132.222 83.2406 132.222 80.9632C132.222 76.6736 135.582 73.3134 139.871 73.3134C144.161 73.3134 147.521 76.6736 147.521 80.9632C147.521 83.2406 146.459 85.2306 144.914 86.6217ZM139.871 75.1917C136.611 75.1917 134.1 77.7033 134.1 80.9632C134.1 84.2232 136.611 86.7348 139.871 86.7348C143.131 86.7348 145.643 84.2232 145.643 80.9632C145.643 77.7033 143.131 75.1917 139.871 75.1917ZM131.483 105.526H148.26C148.67 105.526 148.972 105.303 149.157 105.106C149.346 104.906 149.494 104.656 149.612 104.411C149.85 103.916 150.043 103.28 150.194 102.654C150.495 101.405 150.676 100 150.676 99.4177C150.676 93.4735 145.816 88.6131 139.871 88.6131C133.927 88.6131 129.067 93.4735 129.067 99.4177C129.067 100 129.247 101.405 129.549 102.654C129.7 103.28 129.893 103.916 130.131 104.411C130.249 104.656 130.396 104.906 130.585 105.106C130.771 105.303 131.073 105.526 131.483 105.526Z" fill="#004357"/>
</g>
<mask id="mask4_6258_102668" style="mask-type:alpha" maskUnits="userSpaceOnUse" x="166" y="71" width="31" height="34">
<path d="M166.684 71.5536H196.224V89.681C196.224 97.8384 189.611 104.451 181.454 104.451V104.451C173.296 104.451 166.684 97.8384 166.684 89.6809V71.5536Z" fill="#D9D9D9"/>
</mask>
<g mask="url(#mask4_6258_102668)">
<path fill-rule="evenodd" clip-rule="evenodd" d="M186.271 86.6217L185.44 87.3697L186.454 87.8405C190.902 89.9058 193.912 94.349 193.912 99.4177C193.912 100.705 193.405 102.774 192.541 104.523C192.112 105.392 191.616 106.137 191.089 106.654C190.56 107.175 190.064 107.405 189.617 107.405H172.84C172.393 107.405 171.898 107.175 171.368 106.654C170.842 106.137 170.346 105.392 169.916 104.523C169.052 102.774 168.546 100.705 168.546 99.4177C168.546 94.349 171.555 89.9058 176.003 87.8405L177.018 87.3697L176.187 86.6217C174.641 85.2306 173.579 83.2406 173.579 80.9632C173.579 76.6736 176.939 73.3134 181.229 73.3134C185.518 73.3134 188.879 76.6736 188.879 80.9632C188.879 83.2406 187.817 85.2306 186.271 86.6217ZM181.229 75.1917C177.969 75.1917 175.457 77.7033 175.457 80.9632C175.457 84.2232 177.969 86.7348 181.229 86.7348C184.489 86.7348 187 84.2232 187 80.9632C187 77.7033 184.489 75.1917 181.229 75.1917ZM172.84 105.526H189.617C190.028 105.526 190.329 105.303 190.515 105.106C190.704 104.906 190.852 104.656 190.969 104.411C191.208 103.916 191.4 103.28 191.551 102.654C191.853 101.405 192.033 100 192.033 99.4177C192.033 93.4735 187.173 88.6131 181.229 88.6131C175.285 88.6131 170.424 93.4735 170.424 99.4177C170.424 100 170.605 101.405 170.906 102.654C171.057 103.28 171.25 103.916 171.488 104.411C171.606 104.656 171.754 104.906 171.943 105.106C172.129 105.303 172.43 105.526 172.84 105.526Z" fill="#004357"/>
</g>
<mask id="mask5_6258_102668" style="mask-type:alpha" maskUnits="userSpaceOnUse" x="208" y="71" width="30" height="34">
<path d="M208.04 71.5536H237.581V89.681C237.581 97.8384 230.968 104.451 222.81 104.451V104.451C214.653 104.451 208.04 97.8384 208.04 89.6809V71.5536Z" fill="#D9D9D9"/>
</mask>
<g mask="url(#mask5_6258_102668)">
<path fill-rule="evenodd" clip-rule="evenodd" d="M227.628 86.6217L226.797 87.3697L227.811 87.8405C232.259 89.9058 235.268 94.349 235.268 99.4177C235.268 100.705 234.762 102.774 233.898 104.523C233.468 105.392 232.972 106.137 232.446 106.654C231.916 107.175 231.421 107.405 230.974 107.405H214.197C213.75 107.405 213.254 107.175 212.725 106.654C212.198 106.137 211.702 105.392 211.273 104.523C210.409 102.774 209.902 100.705 209.902 99.4177C209.902 94.349 212.912 89.9058 217.36 87.8405L218.374 87.3697L217.543 86.6217C215.997 85.2306 214.935 83.2406 214.935 80.9632C214.935 76.6736 218.296 73.3134 222.585 73.3134C226.875 73.3134 230.235 76.6736 230.235 80.9632C230.235 83.2406 229.173 85.2306 227.628 86.6217ZM222.585 75.1917C219.325 75.1917 216.814 77.7033 216.814 80.9632C216.814 84.2232 219.325 86.7348 222.585 86.7348C225.845 86.7348 228.357 84.2232 228.357 80.9632C228.357 77.7033 225.845 75.1917 222.585 75.1917ZM214.197 105.526H230.974C231.384 105.526 231.685 105.303 231.871 105.106C232.06 104.906 232.208 104.656 232.326 104.411C232.564 103.916 232.757 103.28 232.908 102.654C233.209 101.405 233.39 100 233.39 99.4177C233.39 93.4735 228.529 88.6131 222.585 88.6131C216.641 88.6131 211.781 93.4735 211.781 99.4177C211.781 100 211.961 101.405 212.263 102.654C212.414 103.28 212.607 103.916 212.845 104.411C212.962 104.656 213.11 104.906 213.299 105.106C213.485 105.303 213.786 105.526 214.197 105.526Z" fill="#004357"/>
</g>
<mask id="mask6_6258_102668" style="mask-type:alpha" maskUnits="userSpaceOnUse" x="249" y="71" width="30" height="34">
<path d="M249.397 71.5536H278.938V89.681C278.938 97.8384 272.325 104.451 264.168 104.451V104.451C256.01 104.451 249.397 97.8384 249.397 89.6809V71.5536Z" fill="#D9D9D9"/>
</mask>
<g mask="url(#mask6_6258_102668)">
<path fill-rule="evenodd" clip-rule="evenodd" d="M268.985 86.6217L268.154 87.3697L269.168 87.8405C273.616 89.9058 276.626 94.349 276.626 99.4177C276.626 100.705 276.119 102.774 275.255 104.523C274.826 105.392 274.329 106.137 273.803 106.654C273.274 107.175 272.778 107.405 272.331 107.405H255.554C255.107 107.405 254.612 107.175 254.082 106.654C253.556 106.137 253.06 105.392 252.63 104.523C251.766 102.774 251.26 100.705 251.26 99.4177C251.26 94.349 254.269 89.9058 258.717 87.8405L259.731 87.3697L258.9 86.6217C257.355 85.2306 256.293 83.2406 256.293 80.9632C256.293 76.6736 259.653 73.3134 263.943 73.3134C268.232 73.3134 271.593 76.6736 271.593 80.9632C271.593 83.2406 270.531 85.2306 268.985 86.6217ZM263.943 75.1917C260.683 75.1917 258.171 77.7033 258.171 80.9632C258.171 84.2232 260.683 86.7348 263.943 86.7348C267.203 86.7348 269.714 84.2232 269.714 80.9632C269.714 77.7033 267.203 75.1917 263.943 75.1917ZM255.554 105.526H272.331C272.742 105.526 273.043 105.303 273.229 105.106C273.418 104.906 273.565 104.656 273.683 104.411C273.921 103.916 274.114 103.28 274.265 102.654C274.567 101.405 274.747 100 274.747 99.4177C274.747 93.4735 269.887 88.6131 263.943 88.6131C257.998 88.6131 253.138 93.4735 253.138 99.4177C253.138 100 253.319 101.405 253.62 102.654C253.771 103.28 253.964 103.916 254.202 104.411C254.32 104.656 254.468 104.906 254.657 105.106C254.843 105.303 255.144 105.526 255.554 105.526Z" fill="#004357"/>
</g>
<mask id="mask7_6258_102668" style="mask-type:alpha" maskUnits="userSpaceOnUse" x="290" y="71" width="31" height="34">
<path d="M290.754 71.5536H320.295V89.681C320.295 97.8384 313.682 104.451 305.524 104.451V104.451C297.367 104.451 290.754 97.8384 290.754 89.6809V71.5536Z" fill="#D9D9D9"/>
</mask>
<g mask="url(#mask7_6258_102668)">
<path fill-rule="evenodd" clip-rule="evenodd" d="M310.341 86.6217L309.51 87.3697L310.524 87.8405C314.973 89.9058 317.982 94.349 317.982 99.4177C317.982 100.705 317.475 102.774 316.611 104.523C316.182 105.392 315.686 106.137 315.159 106.654C314.63 107.175 314.134 107.405 313.688 107.405H296.911C296.464 107.405 295.968 107.175 295.439 106.654C294.912 106.137 294.416 105.392 293.987 104.523C293.123 102.774 292.616 100.705 292.616 99.4177C292.616 94.349 295.626 89.9058 300.074 87.8405L301.088 87.3697L300.257 86.6217C298.711 85.2306 297.649 83.2406 297.649 80.9632C297.649 76.6736 301.009 73.3134 305.299 73.3134C309.589 73.3134 312.949 76.6736 312.949 80.9632C312.949 83.2406 311.887 85.2306 310.341 86.6217ZM305.299 75.1917C302.039 75.1917 299.528 77.7033 299.528 80.9632C299.528 84.2232 302.039 86.7348 305.299 86.7348C308.559 86.7348 311.071 84.2232 311.071 80.9632C311.071 77.7033 308.559 75.1917 305.299 75.1917ZM296.911 105.526H313.688C314.098 105.526 314.399 105.303 314.585 105.106C314.774 104.906 314.922 104.656 315.04 104.411C315.278 103.916 315.471 103.28 315.622 102.654C315.923 101.405 316.104 100 316.104 99.4177C316.104 93.4735 311.243 88.6131 305.299 88.6131C299.355 88.6131 294.495 93.4735 294.495 99.4177C294.495 100 294.675 101.405 294.977 102.654C295.128 103.28 295.32 103.916 295.558 104.411C295.676 104.656 295.824 104.906 296.013 105.106C296.199 105.303 296.5 105.526 296.911 105.526Z" fill="#004357"/>
</g>
<mask id="mask8_6258_102668" style="mask-type:alpha" maskUnits="userSpaceOnUse" x="332" y="71" width="30" height="34">
<path d="M332.111 71.5536H361.652V89.681C361.652 97.8384 355.039 104.451 346.882 104.451V104.451C338.724 104.451 332.111 97.8384 332.111 89.6809V71.5536Z" fill="#D9D9D9"/>
</mask>
<g mask="url(#mask8_6258_102668)">
<path fill-rule="evenodd" clip-rule="evenodd" d="M351.699 86.6217L350.868 87.3697L351.882 87.8405C356.33 89.9058 359.339 94.349 359.339 99.4177C359.339 100.705 358.833 102.774 357.969 104.523C357.54 105.392 357.043 106.137 356.517 106.654C355.987 107.175 355.492 107.405 355.045 107.405H338.268C337.821 107.405 337.326 107.175 336.796 106.654C336.27 106.137 335.774 105.392 335.344 104.523C334.48 102.774 333.974 100.705 333.974 99.4177C333.974 94.349 336.983 89.9058 341.431 87.8405L342.445 87.3697L341.614 86.6217C340.069 85.2306 339.007 83.2406 339.007 80.9632C339.007 76.6736 342.367 73.3134 346.657 73.3134C350.946 73.3134 354.306 76.6736 354.306 80.9632C354.306 83.2406 353.245 85.2306 351.699 86.6217ZM346.657 75.1917C343.397 75.1917 340.885 77.7033 340.885 80.9632C340.885 84.2232 343.397 86.7348 346.657 86.7348C349.916 86.7348 352.428 84.2232 352.428 80.9632C352.428 77.7033 349.916 75.1917 346.657 75.1917ZM338.268 105.526H355.045C355.455 105.526 355.757 105.303 355.943 105.106C356.132 104.906 356.279 104.656 356.397 104.411C356.635 103.916 356.828 103.28 356.979 102.654C357.28 101.405 357.461 100 357.461 99.4177C357.461 93.4735 352.601 88.6131 346.657 88.6131C340.712 88.6131 335.852 93.4735 335.852 99.4177C335.852 100 336.033 101.405 336.334 102.654C336.485 103.28 336.678 103.916 336.916 104.411C337.034 104.656 337.182 104.906 337.37 105.106C337.556 105.303 337.858 105.526 338.268 105.526Z" fill="#004357"/>
</g>
<mask id="mask9_6258_102668" style="mask-type:alpha" maskUnits="userSpaceOnUse" x="1" y="116" width="30" height="34">
<path d="M1.25586 116.268H30.7965V134.395C30.7965 142.552 24.1836 149.165 16.0262 149.165V149.165C7.86876 149.165 1.25586 142.552 1.25586 134.395V116.268Z" fill="#D9D9D9"/>
</mask>
<g mask="url(#mask9_6258_102668)">
<path fill-rule="evenodd" clip-rule="evenodd" d="M20.8434 131.336L20.0123 132.084L21.0264 132.554C25.4747 134.62 28.484 139.063 28.484 144.132C28.484 145.419 27.9774 147.488 27.1134 149.237C26.6841 150.106 26.1879 150.851 25.6614 151.368C25.1319 151.889 24.6364 152.119 24.1895 152.119H7.41269C6.96572 152.119 6.47022 151.889 5.94076 151.368C5.41432 150.851 4.91804 150.106 4.48874 149.237C3.62474 147.488 3.11816 145.419 3.11816 144.132C3.11816 139.063 6.12748 134.62 10.5757 132.554L11.5898 132.084L10.7588 131.336C9.21313 129.945 8.1512 127.955 8.1512 125.677C8.1512 121.388 11.5115 118.027 15.8011 118.027C20.0907 118.027 23.451 121.388 23.451 125.677C23.451 127.955 22.389 129.945 20.8434 131.336ZM15.8011 119.906C12.5412 119.906 10.0295 122.417 10.0295 125.677C10.0295 128.937 12.5412 131.449 15.8011 131.449C19.061 131.449 21.5726 128.937 21.5726 125.677C21.5726 122.417 19.061 119.906 15.8011 119.906ZM7.41269 150.24H24.1895C24.5999 150.24 24.9013 150.017 25.0872 149.82C25.276 149.62 25.4239 149.37 25.5417 149.125C25.7798 148.63 25.9725 147.994 26.1237 147.368C26.425 146.119 26.6057 144.714 26.6057 144.132C26.6057 138.187 21.7453 133.327 15.8011 133.327C9.85687 133.327 4.99649 138.187 4.99649 144.132C4.99649 144.714 5.17717 146.119 5.47846 147.368C5.62964 147.994 5.82237 148.63 6.06044 149.125C6.17831 149.37 6.32613 149.62 6.51499 149.82C6.7009 150.017 7.00223 150.24 7.41269 150.24Z" fill="#004357"/>
</g>
<mask id="mask10_6258_102668" style="mask-type:alpha" maskUnits="userSpaceOnUse" x="42" y="116" width="31" height="34">
<path d="M42.6123 116.268H72.1529V134.395C72.1529 142.552 65.5401 149.165 57.3826 149.165V149.165C49.2252 149.165 42.6123 142.552 42.6123 134.395V116.268Z" fill="#D9D9D9"/>
</mask>
<g mask="url(#mask10_6258_102668)">
<path fill-rule="evenodd" clip-rule="evenodd" d="M62.1998 131.336L61.3688 132.084L62.3829 132.554C66.8311 134.62 69.8404 139.063 69.8404 144.132C69.8404 145.419 69.3339 147.488 68.4699 149.237C68.0406 150.106 67.5443 150.851 67.0179 151.368C66.4884 151.889 65.9929 152.119 65.5459 152.119H48.7691C48.3222 152.119 47.8267 151.889 47.2972 151.368C46.7708 150.851 46.2745 150.106 45.8452 149.237C44.9812 147.488 44.4746 145.419 44.4746 144.132C44.4746 139.063 47.4839 134.62 51.9322 132.554L52.9463 132.084L52.1152 131.336C50.5696 129.945 49.5076 127.955 49.5076 125.677C49.5076 121.388 52.8679 118.027 57.1575 118.027C61.4472 118.027 64.8074 121.388 64.8074 125.677C64.8074 127.955 63.7455 129.945 62.1998 131.336ZM57.1575 119.906C53.8976 119.906 51.386 122.417 51.386 125.677C51.386 128.937 53.8976 131.449 57.1575 131.449C60.4175 131.449 62.9291 128.937 62.9291 125.677C62.9291 122.417 60.4175 119.906 57.1575 119.906ZM48.7691 150.24H65.5459C65.9564 150.24 66.2577 150.017 66.4436 149.82C66.6325 149.62 66.7803 149.37 66.8982 149.125C67.1362 148.63 67.329 147.994 67.4802 147.368C67.7814 146.119 67.9621 144.714 67.9621 144.132C67.9621 138.187 63.1017 133.327 57.1575 133.327C51.2133 133.327 46.3529 138.187 46.3529 144.132C46.3529 144.714 46.5336 146.119 46.8349 147.368C46.9861 147.994 47.1788 148.63 47.4169 149.125C47.5348 149.37 47.6826 149.62 47.8714 149.82C48.0573 150.017 48.3587 150.24 48.7691 150.24Z" fill="#004357"/>
</g>
<mask id="mask11_6258_102668" style="mask-type:alpha" maskUnits="userSpaceOnUse" x="83" y="116" width="31" height="34">
<path d="M83.9697 116.268H113.51V134.395C113.51 142.552 106.897 149.165 98.74 149.165V149.165C90.5826 149.165 83.9697 142.552 83.9697 134.395V116.268Z" fill="#D9D9D9"/>
</mask>
<g mask="url(#mask11_6258_102668)">
<path fill-rule="evenodd" clip-rule="evenodd" d="M103.557 131.336L102.726 132.084L103.74 132.554C108.189 134.62 111.198 139.063 111.198 144.132C111.198 145.419 110.691 147.488 109.827 149.237C109.398 150.106 108.902 150.851 108.375 151.368C107.846 151.889 107.35 152.119 106.903 152.119H90.1266C89.6796 152.119 89.1841 151.889 88.6546 151.368C88.1282 150.851 87.6319 150.106 87.2026 149.237C86.3386 147.488 85.832 145.419 85.832 144.132C85.832 139.063 88.8413 134.62 93.2896 132.554L94.3037 132.084L93.4727 131.336C91.927 129.945 90.8651 127.955 90.8651 125.677C90.8651 121.388 94.2253 118.027 98.515 118.027C102.805 118.027 106.165 121.388 106.165 125.677C106.165 127.955 105.103 129.945 103.557 131.336ZM98.515 119.906C95.255 119.906 92.7434 122.417 92.7434 125.677C92.7434 128.937 95.255 131.449 98.515 131.449C101.775 131.449 104.287 128.937 104.287 125.677C104.287 122.417 101.775 119.906 98.515 119.906ZM90.1266 150.24H106.903C107.314 150.24 107.615 150.017 107.801 149.82C107.99 149.62 108.138 149.37 108.256 149.125C108.494 148.63 108.686 147.994 108.838 147.368C109.139 146.119 109.32 144.714 109.32 144.132C109.32 138.187 104.459 133.327 98.515 133.327C92.5707 133.327 87.7104 138.187 87.7104 144.132C87.7104 144.714 87.891 146.119 88.1923 147.368C88.3435 147.994 88.5362 148.63 88.7743 149.125C88.8922 149.37 89.04 149.62 89.2289 149.82C89.4148 150.017 89.7161 150.24 90.1266 150.24Z" fill="#004357"/>
</g>
<mask id="mask12_6258_102668" style="mask-type:alpha" maskUnits="userSpaceOnUse" x="125" y="116" width="30" height="34">
<path d="M125.326 116.268H154.867V134.395C154.867 142.552 148.254 149.165 140.096 149.165V149.165C131.939 149.165 125.326 142.552 125.326 134.395V116.268Z" fill="#D9D9D9"/>
</mask>
<g mask="url(#mask12_6258_102668)">
<path fill-rule="evenodd" clip-rule="evenodd" d="M144.914 131.336L144.083 132.084L145.097 132.554C149.545 134.62 152.554 139.063 152.554 144.132C152.554 145.419 152.048 147.488 151.184 149.237C150.754 150.106 150.258 150.851 149.732 151.368C149.202 151.889 148.707 152.119 148.26 152.119H131.483C131.036 152.119 130.541 151.889 130.011 151.368C129.485 150.851 128.988 150.106 128.559 149.237C127.695 147.488 127.188 145.419 127.188 144.132C127.188 139.063 130.198 134.62 134.646 132.554L135.66 132.084L134.829 131.336C133.283 129.945 132.222 127.955 132.222 125.677C132.222 121.388 135.582 118.027 139.871 118.027C144.161 118.027 147.521 121.388 147.521 125.677C147.521 127.955 146.459 129.945 144.914 131.336ZM139.871 119.906C136.611 119.906 134.1 122.417 134.1 125.677C134.1 128.937 136.611 131.449 139.871 131.449C143.131 131.449 145.643 128.937 145.643 125.677C145.643 122.417 143.131 119.906 139.871 119.906ZM131.483 150.24H148.26C148.67 150.24 148.972 150.017 149.157 149.82C149.346 149.62 149.494 149.37 149.612 149.125C149.85 148.63 150.043 147.994 150.194 147.368C150.495 146.119 150.676 144.714 150.676 144.132C150.676 138.187 145.816 133.327 139.871 133.327C133.927 133.327 129.067 138.187 129.067 144.132C129.067 144.714 129.247 146.119 129.549 147.368C129.7 147.994 129.893 148.63 130.131 149.125C130.249 149.37 130.396 149.62 130.585 149.82C130.771 150.017 131.073 150.24 131.483 150.24Z" fill="#004357"/>
</g>
<mask id="mask13_6258_102668" style="mask-type:alpha" maskUnits="userSpaceOnUse" x="166" y="116" width="31" height="34">
<path d="M166.684 116.268H196.224V134.395C196.224 142.552 189.611 149.165 181.454 149.165V149.165C173.296 149.165 166.684 142.552 166.684 134.395V116.268Z" fill="#D9D9D9"/>
</mask>
<g mask="url(#mask13_6258_102668)">
<path fill-rule="evenodd" clip-rule="evenodd" d="M186.271 131.336L185.44 132.084L186.454 132.554C190.902 134.62 193.912 139.063 193.912 144.132C193.912 145.419 193.405 147.488 192.541 149.237C192.112 150.106 191.616 150.851 191.089 151.368C190.56 151.889 190.064 152.119 189.617 152.119H172.84C172.393 152.119 171.898 151.889 171.368 151.368C170.842 150.851 170.346 150.106 169.916 149.237C169.052 147.488 168.546 145.419 168.546 144.132C168.546 139.063 171.555 134.62 176.003 132.554L177.018 132.084L176.187 131.336C174.641 129.945 173.579 127.955 173.579 125.677C173.579 121.388 176.939 118.027 181.229 118.027C185.518 118.027 188.879 121.388 188.879 125.677C188.879 127.955 187.817 129.945 186.271 131.336ZM181.229 119.906C177.969 119.906 175.457 122.417 175.457 125.677C175.457 128.937 177.969 131.449 181.229 131.449C184.489 131.449 187 128.937 187 125.677C187 122.417 184.489 119.906 181.229 119.906ZM172.84 150.24H189.617C190.028 150.24 190.329 150.017 190.515 149.82C190.704 149.62 190.852 149.37 190.969 149.125C191.208 148.63 191.4 147.994 191.551 147.368C191.853 146.119 192.033 144.714 192.033 144.132C192.033 138.187 187.173 133.327 181.229 133.327C175.285 133.327 170.424 138.187 170.424 144.132C170.424 144.714 170.605 146.119 170.906 147.368C171.057 147.994 171.25 148.63 171.488 149.125C171.606 149.37 171.754 149.62 171.943 149.82C172.129 150.017 172.43 150.24 172.84 150.24Z" fill="#004357"/>
</g>
<mask id="mask14_6258_102668" style="mask-type:alpha" maskUnits="userSpaceOnUse" x="208" y="116" width="30" height="34">
<path d="M208.04 116.268H237.581V134.395C237.581 142.552 230.968 149.165 222.81 149.165V149.165C214.653 149.165 208.04 142.552 208.04 134.395V116.268Z" fill="#D9D9D9"/>
</mask>
<g mask="url(#mask14_6258_102668)">
<path fill-rule="evenodd" clip-rule="evenodd" d="M227.628 131.336L226.797 132.084L227.811 132.554C232.259 134.62 235.268 139.063 235.268 144.132C235.268 145.419 234.762 147.488 233.898 149.237C233.468 150.106 232.972 150.851 232.446 151.368C231.916 151.889 231.421 152.119 230.974 152.119H214.197C213.75 152.119 213.254 151.889 212.725 151.368C212.198 150.851 211.702 150.106 211.273 149.237C210.409 147.488 209.902 145.419 209.902 144.132C209.902 139.063 212.912 134.62 217.36 132.554L218.374 132.084L217.543 131.336C215.997 129.945 214.935 127.955 214.935 125.677C214.935 121.388 218.296 118.027 222.585 118.027C226.875 118.027 230.235 121.388 230.235 125.677C230.235 127.955 229.173 129.945 227.628 131.336ZM222.585 119.906C219.325 119.906 216.814 122.417 216.814 125.677C216.814 128.937 219.325 131.449 222.585 131.449C225.845 131.449 228.357 128.937 228.357 125.677C228.357 122.417 225.845 119.906 222.585 119.906ZM214.197 150.24H230.974C231.384 150.24 231.685 150.017 231.871 149.82C232.06 149.62 232.208 149.37 232.326 149.125C232.564 148.63 232.757 147.994 232.908 147.368C233.209 146.119 233.39 144.714 233.39 144.132C233.39 138.187 228.529 133.327 222.585 133.327C216.641 133.327 211.781 138.187 211.781 144.132C211.781 144.714 211.961 146.119 212.263 147.368C212.414 147.994 212.607 148.63 212.845 149.125C212.962 149.37 213.11 149.62 213.299 149.82C213.485 150.017 213.786 150.24 214.197 150.24Z" fill="#004357"/>
</g>
<mask id="mask15_6258_102668" style="mask-type:alpha" maskUnits="userSpaceOnUse" x="249" y="116" width="30" height="34">
<path d="M249.397 116.268H278.938V134.395C278.938 142.552 272.325 149.165 264.168 149.165V149.165C256.01 149.165 249.397 142.552 249.397 134.395V116.268Z" fill="#D9D9D9"/>
</mask>
<g mask="url(#mask15_6258_102668)">
<path fill-rule="evenodd" clip-rule="evenodd" d="M268.985 131.336L268.154 132.084L269.168 132.554C273.616 134.62 276.626 139.063 276.626 144.132C276.626 145.419 276.119 147.488 275.255 149.237C274.826 150.106 274.329 150.851 273.803 151.368C273.274 151.889 272.778 152.119 272.331 152.119H255.554C255.107 152.119 254.612 151.889 254.082 151.368C253.556 150.851 253.06 150.106 252.63 149.237C251.766 147.488 251.26 145.419 251.26 144.132C251.26 139.063 254.269 134.62 258.717 132.554L259.731 132.084L258.9 131.336C257.355 129.945 256.293 127.955 256.293 125.677C256.293 121.388 259.653 118.027 263.943 118.027C268.232 118.027 271.593 121.388 271.593 125.677C271.593 127.955 270.531 129.945 268.985 131.336ZM263.943 119.906C260.683 119.906 258.171 122.417 258.171 125.677C258.171 128.937 260.683 131.449 263.943 131.449C267.203 131.449 269.714 128.937 269.714 125.677C269.714 122.417 267.203 119.906 263.943 119.906ZM255.554 150.24H272.331C272.742 150.24 273.043 150.017 273.229 149.82C273.418 149.62 273.565 149.37 273.683 149.125C273.921 148.63 274.114 147.994 274.265 147.368C274.567 146.119 274.747 144.714 274.747 144.132C274.747 138.187 269.887 133.327 263.943 133.327C257.998 133.327 253.138 138.187 253.138 144.132C253.138 144.714 253.319 146.119 253.62 147.368C253.771 147.994 253.964 148.63 254.202 149.125C254.32 149.37 254.468 149.62 254.657 149.82C254.843 150.017 255.144 150.24 255.554 150.24Z" fill="#004357"/>
</g>
<mask id="mask16_6258_102668" style="mask-type:alpha" maskUnits="userSpaceOnUse" x="290" y="116" width="31" height="34">
<path d="M290.754 116.268H320.295V134.395C320.295 142.552 313.682 149.165 305.524 149.165V149.165C297.367 149.165 290.754 142.552 290.754 134.395V116.268Z" fill="#D9D9D9"/>
</mask>
<g mask="url(#mask16_6258_102668)">
<path fill-rule="evenodd" clip-rule="evenodd" d="M310.341 131.336L309.51 132.084L310.524 132.554C314.973 134.62 317.982 139.063 317.982 144.132C317.982 145.419 317.475 147.488 316.611 149.237C316.182 150.106 315.686 150.851 315.159 151.368C314.63 151.889 314.134 152.119 313.688 152.119H296.911C296.464 152.119 295.968 151.889 295.439 151.368C294.912 150.851 294.416 150.106 293.987 149.237C293.123 147.488 292.616 145.419 292.616 144.132C292.616 139.063 295.626 134.62 300.074 132.554L301.088 132.084L300.257 131.336C298.711 129.945 297.649 127.955 297.649 125.677C297.649 121.388 301.009 118.027 305.299 118.027C309.589 118.027 312.949 121.388 312.949 125.677C312.949 127.955 311.887 129.945 310.341 131.336ZM305.299 119.906C302.039 119.906 299.528 122.417 299.528 125.677C299.528 128.937 302.039 131.449 305.299 131.449C308.559 131.449 311.071 128.937 311.071 125.677C311.071 122.417 308.559 119.906 305.299 119.906ZM296.911 150.24H313.688C314.098 150.24 314.399 150.017 314.585 149.82C314.774 149.62 314.922 149.37 315.04 149.125C315.278 148.63 315.471 147.994 315.622 147.368C315.923 146.119 316.104 144.714 316.104 144.132C316.104 138.187 311.243 133.327 305.299 133.327C299.355 133.327 294.495 138.187 294.495 144.132C294.495 144.714 294.675 146.119 294.977 147.368C295.128 147.994 295.32 148.63 295.558 149.125C295.676 149.37 295.824 149.62 296.013 149.82C296.199 150.017 296.5 150.24 296.911 150.24Z" fill="#004357"/>
</g>
<path d="M112.559 62.5166C112.206 62.7211 111.754 62.6008 111.55 62.2479L108.217 56.497C108.013 56.1441 108.133 55.6922 108.486 55.4877C108.839 55.2832 109.291 55.4035 109.495 55.7564L112.458 60.8684L117.569 57.9063C117.922 57.7018 118.374 57.8221 118.579 58.175C118.783 58.5279 118.663 58.9798 118.31 59.1842L112.559 62.5166ZM154.733 36.5515C144.792 34.4597 135.765 35.5192 128.528 39.7236C121.298 43.9242 115.765 51.3162 112.902 62.0677L111.475 61.6876C114.419 50.631 120.158 42.8784 127.786 38.4464C135.408 34.0184 144.825 32.9574 155.037 35.1061L154.733 36.5515Z" fill="#004357"/>
<mask id="mask17_6258_102668" style="mask-type:alpha" maskUnits="userSpaceOnUse" x="52" y="229" width="31" height="34">
<path d="M52.9854 229.596H82.526V247.723C82.526 255.881 75.9131 262.494 67.7557 262.494V262.494C59.5982 262.494 52.9854 255.881 52.9854 247.723V229.596Z" fill="#D9D9D9"/>
</mask>
<g mask="url(#mask17_6258_102668)">
<path fill-rule="evenodd" clip-rule="evenodd" d="M72.5729 244.664L71.7418 245.412L72.7559 245.883C77.2042 247.948 80.2135 252.391 80.2135 257.46C80.2135 258.747 79.7069 260.817 78.8429 262.565C78.4136 263.434 77.9173 264.179 77.3909 264.697C76.8614 265.217 76.3659 265.447 75.919 265.447H59.1422C58.6952 265.447 58.1997 265.217 57.6703 264.697C57.1438 264.179 56.6475 263.434 56.2182 262.565C55.3542 260.817 54.8477 258.747 54.8477 257.46C54.8477 252.391 57.857 247.948 62.3052 245.883L63.3193 245.412L62.4883 244.664C60.9426 243.273 59.8807 241.283 59.8807 239.005C59.8807 234.716 63.2409 231.356 67.5306 231.356C71.8202 231.356 75.1805 234.716 75.1805 239.005C75.1805 241.283 74.1185 243.273 72.5729 244.664ZM67.5306 233.234C64.2706 233.234 61.759 235.746 61.759 239.005C61.759 242.265 64.2706 244.777 67.5306 244.777C70.7905 244.777 73.3021 242.265 73.3021 239.005C73.3021 235.746 70.7905 233.234 67.5306 233.234ZM59.1422 263.569H75.919C76.3294 263.569 76.6308 263.345 76.8167 263.148C77.0055 262.948 77.1533 262.698 77.2712 262.453C77.5093 261.958 77.702 261.322 77.8532 260.696C78.1545 259.447 78.3352 258.043 78.3352 257.46C78.3352 251.516 73.4748 246.655 67.5306 246.655C61.5864 246.655 56.726 251.516 56.726 257.46C56.726 258.043 56.9067 259.447 57.2079 260.696C57.3591 261.322 57.5519 261.958 57.7899 262.453C57.9078 262.698 58.0556 262.948 58.2445 263.148C58.4304 263.345 58.7317 263.569 59.1422 263.569Z" fill="#004357"/>
</g>
<mask id="mask18_6258_102668" style="mask-type:alpha" maskUnits="userSpaceOnUse" x="94" y="229" width="30" height="34">
<path d="M94.3428 229.596H123.883V247.723C123.883 255.881 117.271 262.494 109.113 262.494V262.494C100.956 262.494 94.3428 255.881 94.3428 247.723V229.596Z" fill="#D9D9D9"/>
</mask>
<g mask="url(#mask18_6258_102668)">
<path fill-rule="evenodd" clip-rule="evenodd" d="M113.93 244.664L113.099 245.412L114.113 245.883C118.562 247.948 121.571 252.391 121.571 257.46C121.571 258.747 121.064 260.817 120.2 262.565C119.771 263.434 119.275 264.179 118.748 264.697C118.219 265.217 117.723 265.447 117.276 265.447H100.5C100.053 265.447 99.5571 265.217 99.0277 264.697C98.5012 264.179 98.005 263.434 97.5757 262.565C96.7117 260.817 96.2051 258.747 96.2051 257.46C96.2051 252.391 99.2144 247.948 103.663 245.883L104.677 245.412L103.846 244.664C102.3 243.273 101.238 241.283 101.238 239.005C101.238 234.716 104.598 231.356 108.888 231.356C113.178 231.356 116.538 234.716 116.538 239.005C116.538 241.283 115.476 243.273 113.93 244.664ZM108.888 233.234C105.628 233.234 103.116 235.746 103.116 239.005C103.116 242.265 105.628 244.777 108.888 244.777C112.148 244.777 114.66 242.265 114.66 239.005C114.66 235.746 112.148 233.234 108.888 233.234ZM100.5 263.569H117.276C117.687 263.569 117.988 263.345 118.174 263.148C118.363 262.948 118.511 262.698 118.629 262.453C118.867 261.958 119.059 261.322 119.211 260.696C119.512 259.447 119.693 258.043 119.693 257.46C119.693 251.516 114.832 246.655 108.888 246.655C102.944 246.655 98.0834 251.516 98.0834 257.46C98.0834 258.043 98.2641 259.447 98.5654 260.696C98.7166 261.322 98.9093 261.958 99.1473 262.453C99.2652 262.698 99.413 262.948 99.6019 263.148C99.7878 263.345 100.089 263.569 100.5 263.569Z" fill="#004357"/>
</g>
<mask id="mask19_6258_102668" style="mask-type:alpha" maskUnits="userSpaceOnUse" x="135" y="229" width="31" height="34">
<path d="M135.699 229.596H165.24V247.723C165.24 255.881 158.627 262.494 150.47 262.494V262.494C142.312 262.494 135.699 255.881 135.699 247.723V229.596Z" fill="#D9D9D9"/>
</mask>
<g mask="url(#mask19_6258_102668)">
<path fill-rule="evenodd" clip-rule="evenodd" d="M155.287 244.664L154.456 245.412L155.47 245.883C159.918 247.948 162.927 252.391 162.927 257.46C162.927 258.747 162.421 260.817 161.557 262.565C161.127 263.434 160.631 264.179 160.105 264.697C159.575 265.217 159.08 265.447 158.633 265.447H141.856C141.409 265.447 140.914 265.217 140.384 264.697C139.858 264.179 139.361 263.434 138.932 262.565C138.068 260.817 137.562 258.747 137.562 257.46C137.562 252.391 140.571 247.948 145.019 245.883L146.033 245.412L145.202 244.664C143.656 243.273 142.595 241.283 142.595 239.005C142.595 234.716 145.955 231.356 150.244 231.356C154.534 231.356 157.894 234.716 157.894 239.005C157.894 241.283 156.832 243.273 155.287 244.664ZM150.244 233.234C146.985 233.234 144.473 235.746 144.473 239.005C144.473 242.265 146.985 244.777 150.244 244.777C153.504 244.777 156.016 242.265 156.016 239.005C156.016 235.746 153.504 233.234 150.244 233.234ZM141.856 263.569H158.633C159.043 263.569 159.345 263.345 159.531 263.148C159.719 262.948 159.867 262.698 159.985 262.453C160.223 261.958 160.416 261.322 160.567 260.696C160.868 259.447 161.049 258.043 161.049 257.46C161.049 251.516 156.189 246.655 150.244 246.655C144.3 246.655 139.44 251.516 139.44 257.46C139.44 258.043 139.621 259.447 139.922 260.696C140.073 261.322 140.266 261.958 140.504 262.453C140.622 262.698 140.769 262.948 140.958 263.148C141.144 263.345 141.446 263.569 141.856 263.569Z" fill="#004357"/>
</g>
<mask id="mask20_6258_102668" style="mask-type:alpha" maskUnits="userSpaceOnUse" x="177" y="229" width="30" height="34">
<path d="M177.057 229.596H206.597V247.723C206.597 255.881 199.984 262.494 191.827 262.494V262.494C183.67 262.494 177.057 255.881 177.057 247.723V229.596Z" fill="#D9D9D9"/>
</mask>
<g mask="url(#mask20_6258_102668)">
<path fill-rule="evenodd" clip-rule="evenodd" d="M196.644 244.664L195.813 245.412L196.827 245.883C201.275 247.948 204.285 252.391 204.285 257.46C204.285 258.747 203.778 260.817 202.914 262.565C202.485 263.434 201.989 264.179 201.462 264.697C200.933 265.217 200.437 265.447 199.99 265.447H183.213C182.767 265.447 182.271 265.217 181.742 264.697C181.215 264.179 180.719 263.434 180.29 262.565C179.426 260.817 178.919 258.747 178.919 257.46C178.919 252.391 181.928 247.948 186.377 245.883L187.391 245.412L186.56 244.664C185.014 243.273 183.952 241.283 183.952 239.005C183.952 234.716 187.312 231.356 191.602 231.356C195.891 231.356 199.252 234.716 199.252 239.005C199.252 241.283 198.19 243.273 196.644 244.664ZM191.602 233.234C188.342 233.234 185.83 235.746 185.83 239.005C185.83 242.265 188.342 244.777 191.602 244.777C194.862 244.777 197.373 242.265 197.373 239.005C197.373 235.746 194.862 233.234 191.602 233.234ZM183.213 263.569H199.99C200.401 263.569 200.702 263.345 200.888 263.148C201.077 262.948 201.225 262.698 201.343 262.453C201.581 261.958 201.773 261.322 201.924 260.696C202.226 259.447 202.406 258.043 202.406 257.46C202.406 251.516 197.546 246.655 191.602 246.655C185.658 246.655 180.797 251.516 180.797 257.46C180.797 258.043 180.978 259.447 181.279 260.696C181.43 261.322 181.623 261.958 181.861 262.453C181.979 262.698 182.127 262.948 182.316 263.148C182.502 263.345 182.803 263.569 183.213 263.569Z" fill="#004357"/>
</g>
<mask id="mask21_6258_102668" style="mask-type:alpha" maskUnits="userSpaceOnUse" x="218" y="229" width="30" height="34">
<path d="M218.413 229.596H247.954V247.723C247.954 255.881 241.341 262.494 233.183 262.494V262.494C225.026 262.494 218.413 255.881 218.413 247.723V229.596Z" fill="#D9D9D9"/>
</mask>
<g mask="url(#mask21_6258_102668)">
<path fill-rule="evenodd" clip-rule="evenodd" d="M238.001 244.664L237.17 245.412L238.184 245.883C242.632 247.948 245.641 252.391 245.641 257.46C245.641 258.747 245.135 260.817 244.271 262.565C243.841 263.434 243.345 264.179 242.819 264.697C242.289 265.217 241.794 265.447 241.347 265.447H224.57C224.123 265.447 223.627 265.217 223.098 264.697C222.572 264.179 222.075 263.434 221.646 262.565C220.782 260.817 220.275 258.747 220.275 257.46C220.275 252.391 223.285 247.948 227.733 245.883L228.747 245.412L227.916 244.664C226.37 243.273 225.308 241.283 225.308 239.005C225.308 234.716 228.669 231.356 232.958 231.356C237.248 231.356 240.608 234.716 240.608 239.005C240.608 241.283 239.546 243.273 238.001 244.664ZM232.958 233.234C229.698 233.234 227.187 235.746 227.187 239.005C227.187 242.265 229.698 244.777 232.958 244.777C236.218 244.777 238.73 242.265 238.73 239.005C238.73 235.746 236.218 233.234 232.958 233.234ZM224.57 263.569H241.347C241.757 263.569 242.058 263.345 242.244 263.148C242.433 262.948 242.581 262.698 242.699 262.453C242.937 261.958 243.13 261.322 243.281 260.696C243.582 259.447 243.763 258.043 243.763 257.46C243.763 251.516 238.903 246.655 232.958 246.655C227.014 246.655 222.154 251.516 222.154 257.46C222.154 258.043 222.334 259.447 222.636 260.696C222.787 261.322 222.98 261.958 223.218 262.453C223.336 262.698 223.483 262.948 223.672 263.148C223.858 263.345 224.159 263.569 224.57 263.569Z" fill="#004357"/>
</g>
<mask id="mask22_6258_102668" style="mask-type:alpha" maskUnits="userSpaceOnUse" x="259" y="229" width="31" height="34">
<path d="M259.771 229.596H289.311V247.723C289.311 255.881 282.698 262.494 274.541 262.494V262.494C266.383 262.494 259.771 255.881 259.771 247.723V229.596Z" fill="#D9D9D9"/>
</mask>
<g mask="url(#mask22_6258_102668)">
<path fill-rule="evenodd" clip-rule="evenodd" d="M279.358 244.664L278.527 245.412L279.541 245.883C283.989 247.948 286.999 252.391 286.999 257.46C286.999 258.747 286.492 260.817 285.628 262.565C285.199 263.434 284.702 264.179 284.176 264.697C283.647 265.217 283.151 265.447 282.704 265.447H265.927C265.48 265.447 264.985 265.217 264.455 264.697C263.929 264.179 263.433 263.434 263.003 262.565C262.139 260.817 261.633 258.747 261.633 257.46C261.633 252.391 264.642 247.948 269.09 245.883L270.104 245.412L269.273 244.664C267.728 243.273 266.666 241.283 266.666 239.005C266.666 234.716 270.026 231.356 274.316 231.356C278.605 231.356 281.966 234.716 281.966 239.005C281.966 241.283 280.904 243.273 279.358 244.664ZM274.316 233.234C271.056 233.234 268.544 235.746 268.544 239.005C268.544 242.265 271.056 244.777 274.316 244.777C277.576 244.777 280.087 242.265 280.087 239.005C280.087 235.746 277.576 233.234 274.316 233.234ZM265.927 263.569H282.704C283.115 263.569 283.416 263.345 283.602 263.148C283.791 262.948 283.939 262.698 284.056 262.453C284.294 261.958 284.487 261.322 284.638 260.696C284.94 259.447 285.12 258.043 285.12 257.46C285.12 251.516 280.26 246.655 274.316 246.655C268.372 246.655 263.511 251.516 263.511 257.46C263.511 258.043 263.692 259.447 263.993 260.696C264.144 261.322 264.337 261.958 264.575 262.453C264.693 262.698 264.841 262.948 265.03 263.148C265.216 263.345 265.517 263.569 265.927 263.569Z" fill="#004357"/>
</g>
<mask id="mask23_6258_102668" style="mask-type:alpha" maskUnits="userSpaceOnUse" x="301" y="229" width="30" height="34">
<path d="M301.127 229.596H330.668V247.723C330.668 255.881 324.055 262.494 315.897 262.494V262.494C307.74 262.494 301.127 255.881 301.127 247.723V229.596Z" fill="#D9D9D9"/>
</mask>
<g mask="url(#mask23_6258_102668)">
<path fill-rule="evenodd" clip-rule="evenodd" d="M320.714 244.664L319.883 245.412L320.898 245.883C325.346 247.948 328.355 252.391 328.355 257.46C328.355 258.747 327.849 260.817 326.985 262.565C326.555 263.434 326.059 264.179 325.533 264.697C325.003 265.217 324.508 265.447 324.061 265.447H307.284C306.837 265.447 306.341 265.217 305.812 264.697C305.285 264.179 304.789 263.434 304.36 262.565C303.496 260.817 302.989 258.747 302.989 257.46C302.989 252.391 305.999 247.948 310.447 245.883L311.461 245.412L310.63 244.664C309.084 243.273 308.022 241.283 308.022 239.005C308.022 234.716 311.383 231.356 315.672 231.356C319.962 231.356 323.322 234.716 323.322 239.005C323.322 241.283 322.26 243.273 320.714 244.664ZM315.672 233.234C312.412 233.234 309.901 235.746 309.901 239.005C309.901 242.265 312.412 244.777 315.672 244.777C318.932 244.777 321.444 242.265 321.444 239.005C321.444 235.746 318.932 233.234 315.672 233.234ZM307.284 263.569H324.061C324.471 263.569 324.772 263.345 324.958 263.148C325.147 262.948 325.295 262.698 325.413 262.453C325.651 261.958 325.844 261.322 325.995 260.696C326.296 259.447 326.477 258.043 326.477 257.46C326.477 251.516 321.616 246.655 315.672 246.655C309.728 246.655 304.868 251.516 304.868 257.46C304.868 258.043 305.048 259.447 305.35 260.696C305.501 261.322 305.693 261.958 305.932 262.453C306.049 262.698 306.197 262.948 306.386 263.148C306.572 263.345 306.873 263.569 307.284 263.569Z" fill="#004357"/>
</g>
<mask id="mask24_6258_102668" style="mask-type:alpha" maskUnits="userSpaceOnUse" x="342" y="229" width="31" height="34">
<path d="M342.484 229.596H372.025V247.723C372.025 255.881 365.412 262.494 357.255 262.494V262.494C349.097 262.494 342.484 255.881 342.484 247.723V229.596Z" fill="#D9D9D9"/>
</mask>
<g mask="url(#mask24_6258_102668)">
<path fill-rule="evenodd" clip-rule="evenodd" d="M362.072 244.664L361.241 245.412L362.255 245.883C366.703 247.948 369.713 252.391 369.713 257.46C369.713 258.747 369.206 260.817 368.342 262.565C367.913 263.434 367.416 264.179 366.89 264.697C366.36 265.217 365.865 265.447 365.418 265.447H348.641C348.194 265.447 347.699 265.217 347.169 264.697C346.643 264.179 346.147 263.434 345.717 262.565C344.853 260.817 344.347 258.747 344.347 257.46C344.347 252.391 347.356 247.948 351.804 245.883L352.818 245.412L351.987 244.664C350.442 243.273 349.38 241.283 349.38 239.005C349.38 234.716 352.74 231.356 357.03 231.356C361.319 231.356 364.679 234.716 364.679 239.005C364.679 241.283 363.618 243.273 362.072 244.664ZM357.03 233.234C353.77 233.234 351.258 235.746 351.258 239.005C351.258 242.265 353.77 244.777 357.03 244.777C360.29 244.777 362.801 242.265 362.801 239.005C362.801 235.746 360.29 233.234 357.03 233.234ZM348.641 263.569H365.418C365.828 263.569 366.13 263.345 366.316 263.148C366.505 262.948 366.652 262.698 366.77 262.453C367.008 261.958 367.201 261.322 367.352 260.696C367.654 259.447 367.834 258.043 367.834 257.46C367.834 251.516 362.974 246.655 357.03 246.655C351.085 246.655 346.225 251.516 346.225 257.46C346.225 258.043 346.406 259.447 346.707 260.696C346.858 261.322 347.051 261.958 347.289 262.453C347.407 262.698 347.555 262.948 347.744 263.148C347.929 263.345 348.231 263.569 348.641 263.569Z" fill="#004357"/>
</g>
<mask id="mask25_6258_102668" style="mask-type:alpha" maskUnits="userSpaceOnUse" x="383" y="229" width="31" height="34">
<path d="M383.841 229.596H413.381V247.723C413.381 255.881 406.769 262.494 398.611 262.494V262.494C390.454 262.494 383.841 255.881 383.841 247.723V229.596Z" fill="#D9D9D9"/>
</mask>
<g mask="url(#mask25_6258_102668)">
<path fill-rule="evenodd" clip-rule="evenodd" d="M403.428 244.664L402.597 245.412L403.611 245.883C408.06 247.948 411.069 252.391 411.069 257.46C411.069 258.747 410.562 260.817 409.698 262.565C409.269 263.434 408.773 264.179 408.246 264.697C407.717 265.217 407.221 265.447 406.774 265.447H389.998C389.551 265.447 389.055 265.217 388.526 264.697C387.999 264.179 387.503 263.434 387.074 262.565C386.21 260.817 385.703 258.747 385.703 257.46C385.703 252.391 388.712 247.948 393.161 245.883L394.175 245.412L393.344 244.664C391.798 243.273 390.736 241.283 390.736 239.005C390.736 234.716 394.096 231.356 398.386 231.356C402.676 231.356 406.036 234.716 406.036 239.005C406.036 241.283 404.974 243.273 403.428 244.664ZM398.386 233.234C395.126 233.234 392.614 235.746 392.614 239.005C392.614 242.265 395.126 244.777 398.386 244.777C401.646 244.777 404.158 242.265 404.158 239.005C404.158 235.746 401.646 233.234 398.386 233.234ZM389.998 263.569H406.774C407.185 263.569 407.486 263.345 407.672 263.148C407.861 262.948 408.009 262.698 408.127 262.453C408.365 261.958 408.557 261.322 408.709 260.696C409.01 259.447 409.191 258.043 409.191 257.46C409.191 251.516 404.33 246.655 398.386 246.655C392.442 246.655 387.581 251.516 387.581 257.46C387.581 258.043 387.762 259.447 388.063 260.696C388.215 261.322 388.407 261.958 388.645 262.453C388.763 262.698 388.911 262.948 389.1 263.148C389.286 263.345 389.587 263.569 389.998 263.569Z" fill="#004357"/>
</g>
<mask id="mask26_6258_102668" style="mask-type:alpha" maskUnits="userSpaceOnUse" x="94" y="274" width="30" height="34">
<path d="M94.3428 274.31H123.883V292.437C123.883 300.595 117.271 307.207 109.113 307.207V307.207C100.956 307.207 94.3428 300.595 94.3428 292.437V274.31Z" fill="#D9D9D9"/>
</mask>
<g mask="url(#mask26_6258_102668)">
<path fill-rule="evenodd" clip-rule="evenodd" d="M113.93 289.378L113.099 290.126L114.113 290.597C118.562 292.662 121.571 297.105 121.571 302.174C121.571 303.461 121.064 305.531 120.2 307.279C119.771 308.148 119.275 308.893 118.748 309.411C118.219 309.931 117.723 310.161 117.276 310.161H100.5C100.053 310.161 99.5571 309.931 99.0277 309.411C98.5012 308.893 98.005 308.148 97.5757 307.279C96.7117 305.531 96.2051 303.461 96.2051 302.174C96.2051 297.105 99.2144 292.662 103.663 290.597L104.677 290.126L103.846 289.378C102.3 287.987 101.238 285.997 101.238 283.719C101.238 279.43 104.598 276.07 108.888 276.07C113.178 276.07 116.538 279.43 116.538 283.719C116.538 285.997 115.476 287.987 113.93 289.378ZM108.888 277.948C105.628 277.948 103.116 280.46 103.116 283.719C103.116 286.979 105.628 289.491 108.888 289.491C112.148 289.491 114.66 286.979 114.66 283.719C114.66 280.46 112.148 277.948 108.888 277.948ZM100.5 308.283H117.276C117.687 308.283 117.988 308.059 118.174 307.862C118.363 307.662 118.511 307.412 118.629 307.167C118.867 306.672 119.059 306.036 119.211 305.41C119.512 304.161 119.693 302.757 119.693 302.174C119.693 296.23 114.832 291.369 108.888 291.369C102.944 291.369 98.0834 296.23 98.0834 302.174C98.0834 302.757 98.2641 304.161 98.5654 305.41C98.7166 306.036 98.9093 306.672 99.1473 307.167C99.2652 307.412 99.413 307.662 99.6019 307.862C99.7878 308.059 100.089 308.283 100.5 308.283Z" fill="#004357"/>
</g>
<mask id="mask27_6258_102668" style="mask-type:alpha" maskUnits="userSpaceOnUse" x="135" y="274" width="31" height="34">
<path d="M135.699 274.31H165.24V292.437C165.24 300.595 158.627 307.207 150.47 307.207V307.207C142.312 307.207 135.699 300.595 135.699 292.437V274.31Z" fill="#D9D9D9"/>
</mask>
<g mask="url(#mask27_6258_102668)">
<path fill-rule="evenodd" clip-rule="evenodd" d="M155.287 289.378L154.456 290.126L155.47 290.597C159.918 292.662 162.927 297.105 162.927 302.174C162.927 303.461 162.421 305.531 161.557 307.279C161.127 308.148 160.631 308.893 160.105 309.411C159.575 309.931 159.08 310.161 158.633 310.161H141.856C141.409 310.161 140.914 309.931 140.384 309.411C139.858 308.893 139.361 308.148 138.932 307.279C138.068 305.531 137.562 303.461 137.562 302.174C137.562 297.105 140.571 292.662 145.019 290.597L146.033 290.126L145.202 289.378C143.656 287.987 142.595 285.997 142.595 283.719C142.595 279.43 145.955 276.07 150.244 276.07C154.534 276.07 157.894 279.43 157.894 283.719C157.894 285.997 156.832 287.987 155.287 289.378ZM150.244 277.948C146.985 277.948 144.473 280.46 144.473 283.719C144.473 286.979 146.985 289.491 150.244 289.491C153.504 289.491 156.016 286.979 156.016 283.719C156.016 280.46 153.504 277.948 150.244 277.948ZM141.856 308.283H158.633C159.043 308.283 159.345 308.059 159.531 307.862C159.719 307.662 159.867 307.412 159.985 307.167C160.223 306.672 160.416 306.036 160.567 305.41C160.868 304.161 161.049 302.757 161.049 302.174C161.049 296.23 156.189 291.369 150.244 291.369C144.3 291.369 139.44 296.23 139.44 302.174C139.44 302.757 139.621 304.161 139.922 305.41C140.073 306.036 140.266 306.672 140.504 307.167C140.622 307.412 140.769 307.662 140.958 307.862C141.144 308.059 141.446 308.283 141.856 308.283Z" fill="#004357"/>
</g>
<mask id="mask28_6258_102668" style="mask-type:alpha" maskUnits="userSpaceOnUse" x="177" y="274" width="30" height="34">
<path d="M177.057 274.31H206.597V292.437C206.597 300.595 199.984 307.207 191.827 307.207V307.207C183.67 307.207 177.057 300.595 177.057 292.437V274.31Z" fill="#D9D9D9"/>
</mask>
<g mask="url(#mask28_6258_102668)">
<path fill-rule="evenodd" clip-rule="evenodd" d="M196.644 289.378L195.813 290.126L196.827 290.597C201.275 292.662 204.285 297.105 204.285 302.174C204.285 303.461 203.778 305.531 202.914 307.279C202.485 308.148 201.989 308.893 201.462 309.411C200.933 309.931 200.437 310.161 199.99 310.161H183.213C182.767 310.161 182.271 309.931 181.742 309.411C181.215 308.893 180.719 308.148 180.29 307.279C179.426 305.531 178.919 303.461 178.919 302.174C178.919 297.105 181.928 292.662 186.377 290.597L187.391 290.126L186.56 289.378C185.014 287.987 183.952 285.997 183.952 283.719C183.952 279.43 187.312 276.07 191.602 276.07C195.891 276.07 199.252 279.43 199.252 283.719C199.252 285.997 198.19 287.987 196.644 289.378ZM191.602 277.948C188.342 277.948 185.83 280.46 185.83 283.719C185.83 286.979 188.342 289.491 191.602 289.491C194.862 289.491 197.373 286.979 197.373 283.719C197.373 280.46 194.862 277.948 191.602 277.948ZM183.213 308.283H199.99C200.401 308.283 200.702 308.059 200.888 307.862C201.077 307.662 201.225 307.412 201.343 307.167C201.581 306.672 201.773 306.036 201.924 305.41C202.226 304.161 202.406 302.757 202.406 302.174C202.406 296.23 197.546 291.369 191.602 291.369C185.658 291.369 180.797 296.23 180.797 302.174C180.797 302.757 180.978 304.161 181.279 305.41C181.43 306.036 181.623 306.672 181.861 307.167C181.979 307.412 182.127 307.662 182.316 307.862C182.502 308.059 182.803 308.283 183.213 308.283Z" fill="#004357"/>
</g>
<mask id="mask29_6258_102668" style="mask-type:alpha" maskUnits="userSpaceOnUse" x="218" y="274" width="30" height="34">
<path d="M218.413 274.31H247.954V292.437C247.954 300.595 241.341 307.207 233.183 307.207V307.207C225.026 307.207 218.413 300.595 218.413 292.437V274.31Z" fill="#D9D9D9"/>
</mask>
<g mask="url(#mask29_6258_102668)">
<path fill-rule="evenodd" clip-rule="evenodd" d="M238.001 289.378L237.17 290.126L238.184 290.597C242.632 292.662 245.641 297.105 245.641 302.174C245.641 303.461 245.135 305.531 244.271 307.279C243.841 308.148 243.345 308.893 242.819 309.411C242.289 309.931 241.794 310.161 241.347 310.161H224.57C224.123 310.161 223.627 309.931 223.098 309.411C222.572 308.893 222.075 308.148 221.646 307.279C220.782 305.531 220.275 303.461 220.275 302.174C220.275 297.105 223.285 292.662 227.733 290.597L228.747 290.126L227.916 289.378C226.37 287.987 225.308 285.997 225.308 283.719C225.308 279.43 228.669 276.07 232.958 276.07C237.248 276.07 240.608 279.43 240.608 283.719C240.608 285.997 239.546 287.987 238.001 289.378ZM232.958 277.948C229.698 277.948 227.187 280.46 227.187 283.719C227.187 286.979 229.698 289.491 232.958 289.491C236.218 289.491 238.73 286.979 238.73 283.719C238.73 280.46 236.218 277.948 232.958 277.948ZM224.57 308.283H241.347C241.757 308.283 242.058 308.059 242.244 307.862C242.433 307.662 242.581 307.412 242.699 307.167C242.937 306.672 243.13 306.036 243.281 305.41C243.582 304.161 243.763 302.757 243.763 302.174C243.763 296.23 238.903 291.369 232.958 291.369C227.014 291.369 222.154 296.23 222.154 302.174C222.154 302.757 222.334 304.161 222.636 305.41C222.787 306.036 222.98 306.672 223.218 307.167C223.336 307.412 223.483 307.662 223.672 307.862C223.858 308.059 224.159 308.283 224.57 308.283Z" fill="#004357"/>
</g>
<mask id="mask30_6258_102668" style="mask-type:alpha" maskUnits="userSpaceOnUse" x="259" y="274" width="31" height="34">
<path d="M259.771 274.31H289.311V292.437C289.311 300.595 282.698 307.207 274.541 307.207V307.207C266.383 307.207 259.771 300.595 259.771 292.437V274.31Z" fill="#D9D9D9"/>
</mask>
<g mask="url(#mask30_6258_102668)">
<path fill-rule="evenodd" clip-rule="evenodd" d="M279.358 289.378L278.527 290.126L279.541 290.597C283.989 292.662 286.999 297.105 286.999 302.174C286.999 303.461 286.492 305.531 285.628 307.279C285.199 308.148 284.702 308.893 284.176 309.411C283.647 309.931 283.151 310.161 282.704 310.161H265.927C265.48 310.161 264.985 309.931 264.455 309.411C263.929 308.893 263.433 308.148 263.003 307.279C262.139 305.531 261.633 303.461 261.633 302.174C261.633 297.105 264.642 292.662 269.09 290.597L270.104 290.126L269.273 289.378C267.728 287.987 266.666 285.997 266.666 283.719C266.666 279.43 270.026 276.07 274.316 276.07C278.605 276.07 281.966 279.43 281.966 283.719C281.966 285.997 280.904 287.987 279.358 289.378ZM274.316 277.948C271.056 277.948 268.544 280.46 268.544 283.719C268.544 286.979 271.056 289.491 274.316 289.491C277.576 289.491 280.087 286.979 280.087 283.719C280.087 280.46 277.576 277.948 274.316 277.948ZM265.927 308.283H282.704C283.115 308.283 283.416 308.059 283.602 307.862C283.791 307.662 283.939 307.412 284.056 307.167C284.294 306.672 284.487 306.036 284.638 305.41C284.94 304.161 285.12 302.757 285.12 302.174C285.12 296.23 280.26 291.369 274.316 291.369C268.372 291.369 263.511 296.23 263.511 302.174C263.511 302.757 263.692 304.161 263.993 305.41C264.144 306.036 264.337 306.672 264.575 307.167C264.693 307.412 264.841 307.662 265.03 307.862C265.216 308.059 265.517 308.283 265.927 308.283Z" fill="#004357"/>
</g>
<mask id="mask31_6258_102668" style="mask-type:alpha" maskUnits="userSpaceOnUse" x="301" y="274" width="30" height="34">
<path d="M301.127 274.31H330.668V292.437C330.668 300.595 324.055 307.207 315.897 307.207V307.207C307.74 307.207 301.127 300.595 301.127 292.437V274.31Z" fill="#D9D9D9"/>
</mask>
<g mask="url(#mask31_6258_102668)">
<path fill-rule="evenodd" clip-rule="evenodd" d="M320.714 289.378L319.883 290.126L320.898 290.597C325.346 292.662 328.355 297.105 328.355 302.174C328.355 303.461 327.849 305.531 326.985 307.279C326.555 308.148 326.059 308.893 325.533 309.411C325.003 309.931 324.508 310.161 324.061 310.161H307.284C306.837 310.161 306.341 309.931 305.812 309.411C305.285 308.893 304.789 308.148 304.36 307.279C303.496 305.531 302.989 303.461 302.989 302.174C302.989 297.105 305.999 292.662 310.447 290.597L311.461 290.126L310.63 289.378C309.084 287.987 308.022 285.997 308.022 283.719C308.022 279.43 311.383 276.07 315.672 276.07C319.962 276.07 323.322 279.43 323.322 283.719C323.322 285.997 322.26 287.987 320.714 289.378ZM315.672 277.948C312.412 277.948 309.901 280.46 309.901 283.719C309.901 286.979 312.412 289.491 315.672 289.491C318.932 289.491 321.444 286.979 321.444 283.719C321.444 280.46 318.932 277.948 315.672 277.948ZM307.284 308.283H324.061C324.471 308.283 324.772 308.059 324.958 307.862C325.147 307.662 325.295 307.412 325.413 307.167C325.651 306.672 325.844 306.036 325.995 305.41C326.296 304.161 326.477 302.757 326.477 302.174C326.477 296.23 321.616 291.369 315.672 291.369C309.728 291.369 304.868 296.23 304.868 302.174C304.868 302.757 305.048 304.161 305.35 305.41C305.501 306.036 305.693 306.672 305.932 307.167C306.049 307.412 306.197 307.662 306.386 307.862C306.572 308.059 306.873 308.283 307.284 308.283Z" fill="#004357"/>
</g>
<mask id="mask32_6258_102668" style="mask-type:alpha" maskUnits="userSpaceOnUse" x="342" y="274" width="31" height="34">
<path d="M342.484 274.31H372.025V292.437C372.025 300.595 365.412 307.207 357.255 307.207V307.207C349.097 307.207 342.484 300.595 342.484 292.437V274.31Z" fill="#D9D9D9"/>
</mask>
<g mask="url(#mask32_6258_102668)">
<path fill-rule="evenodd" clip-rule="evenodd" d="M362.072 289.378L361.241 290.126L362.255 290.597C366.703 292.662 369.713 297.105 369.713 302.174C369.713 303.461 369.206 305.531 368.342 307.279C367.913 308.148 367.416 308.893 366.89 309.411C366.36 309.931 365.865 310.161 365.418 310.161H348.641C348.194 310.161 347.699 309.931 347.169 309.411C346.643 308.893 346.147 308.148 345.717 307.279C344.853 305.531 344.347 303.461 344.347 302.174C344.347 297.105 347.356 292.662 351.804 290.597L352.818 290.126L351.987 289.378C350.442 287.987 349.38 285.997 349.38 283.719C349.38 279.43 352.74 276.07 357.03 276.07C361.319 276.07 364.679 279.43 364.679 283.719C364.679 285.997 363.618 287.987 362.072 289.378ZM357.03 277.948C353.77 277.948 351.258 280.46 351.258 283.719C351.258 286.979 353.77 289.491 357.03 289.491C360.29 289.491 362.801 286.979 362.801 283.719C362.801 280.46 360.29 277.948 357.03 277.948ZM348.641 308.283H365.418C365.828 308.283 366.13 308.059 366.316 307.862C366.505 307.662 366.652 307.412 366.77 307.167C367.008 306.672 367.201 306.036 367.352 305.41C367.654 304.161 367.834 302.757 367.834 302.174C367.834 296.23 362.974 291.369 357.03 291.369C351.085 291.369 346.225 296.23 346.225 302.174C346.225 302.757 346.406 304.161 346.707 305.41C346.858 306.036 347.051 306.672 347.289 307.167C347.407 307.412 347.555 307.662 347.744 307.862C347.929 308.059 348.231 308.283 348.641 308.283Z" fill="#004357"/>
</g>
<mask id="mask33_6258_102668" style="mask-type:alpha" maskUnits="userSpaceOnUse" x="383" y="274" width="31" height="34">
<path d="M383.841 274.31H413.381V292.437C413.381 300.595 406.769 307.207 398.611 307.207V307.207C390.454 307.207 383.841 300.595 383.841 292.437V274.31Z" fill="#D9D9D9"/>
</mask>
<g mask="url(#mask33_6258_102668)">
<path fill-rule="evenodd" clip-rule="evenodd" d="M403.428 289.378L402.597 290.126L403.611 290.597C408.06 292.662 411.069 297.105 411.069 302.174C411.069 303.461 410.562 305.531 409.698 307.279C409.269 308.148 408.773 308.893 408.246 309.411C407.717 309.931 407.221 310.161 406.774 310.161H389.998C389.551 310.161 389.055 309.931 388.526 309.411C387.999 308.893 387.503 308.148 387.074 307.279C386.21 305.531 385.703 303.461 385.703 302.174C385.703 297.105 388.712 292.662 393.161 290.597L394.175 290.126L393.344 289.378C391.798 287.987 390.736 285.997 390.736 283.719C390.736 279.43 394.096 276.07 398.386 276.07C402.676 276.07 406.036 279.43 406.036 283.719C406.036 285.997 404.974 287.987 403.428 289.378ZM398.386 277.948C395.126 277.948 392.614 280.46 392.614 283.719C392.614 286.979 395.126 289.491 398.386 289.491C401.646 289.491 404.158 286.979 404.158 283.719C404.158 280.46 401.646 277.948 398.386 277.948ZM389.998 308.283H406.774C407.185 308.283 407.486 308.059 407.672 307.862C407.861 307.662 408.009 307.412 408.127 307.167C408.365 306.672 408.557 306.036 408.709 305.41C409.01 304.161 409.191 302.757 409.191 302.174C409.191 296.23 404.33 291.369 398.386 291.369C392.442 291.369 387.581 296.23 387.581 302.174C387.581 302.757 387.762 304.161 388.063 305.41C388.215 306.036 388.407 306.672 388.645 307.167C388.763 307.412 388.911 307.662 389.1 307.862C389.286 308.059 389.587 308.283 389.998 308.283Z" fill="#004357"/>
</g>
<path d="M301.16 220.559C301.513 220.763 301.964 220.643 302.169 220.29L305.501 214.539C305.706 214.186 305.585 213.734 305.233 213.53C304.88 213.325 304.428 213.446 304.223 213.799L301.261 218.91L296.149 215.948C295.796 215.744 295.344 215.864 295.14 216.217C294.936 216.57 295.056 217.022 295.409 217.226L301.16 220.559ZM258.986 194.594C268.927 192.502 277.954 193.561 285.191 197.766C292.421 201.966 297.954 209.358 300.816 220.11L302.244 219.73C299.3 208.673 293.561 200.92 285.933 196.489C278.311 192.06 268.894 191 258.682 193.148L258.986 194.594Z" fill="#004357"/>
</svg>
