<svg width="420" height="255" viewBox="0 0 420 255" fill="none" xmlns="http://www.w3.org/2000/svg">
<path d="M0.65625 64.3125C0.65625 57.0638 6.53251 51.1875 13.7812 51.1875V51.1875C21.03 51.1875 26.9062 57.0638 26.9062 64.3125V64.3125C26.9062 71.5612 21.03 77.4375 13.7812 77.4375V77.4375C6.53251 77.4375 0.65625 71.5612 0.65625 64.3125V64.3125Z" fill="#BED73C"/>
<circle cx="13.7812" cy="64.3125" r="13.125" fill="#BED73C"/>
<mask id="mask0_6262_112447" style="mask-type:alpha" maskUnits="userSpaceOnUse" x="0" y="48" width="27" height="30">
<path d="M0.65625 48.2036H26.9062V64.3117C26.9062 71.5604 21.03 77.4367 13.7812 77.4367V77.4367C6.53251 77.4367 0.65625 71.5604 0.65625 64.3117V48.2036Z" fill="#D9D9D9"/>
</mask>
<g mask="url(#mask0_6262_112447)">
<path fill-rule="evenodd" clip-rule="evenodd" d="M18.0623 61.5932L17.3238 62.2579L18.2249 62.6762C22.1777 64.5114 24.8518 68.4598 24.8518 72.9638C24.8518 74.1077 24.4016 75.9466 23.6339 77.5003C23.2524 78.2723 22.8114 78.9345 22.3436 79.3943C21.8731 79.8568 21.4328 80.0612 21.0356 80.0612H6.12766C5.73049 80.0612 5.29018 79.8568 4.8197 79.3943C4.3519 78.9345 3.9109 78.2723 3.52943 77.5003C2.76167 75.9466 2.31152 74.1077 2.31152 72.9638C2.31152 68.4598 4.98562 64.5114 8.93837 62.6762L9.8395 62.2579L9.10103 61.5932C7.72755 60.3571 6.78391 58.5888 6.78391 56.5651C6.78391 52.7533 9.76985 49.7673 13.5816 49.7673C17.3934 49.7673 20.3794 52.7533 20.3794 56.5651C20.3794 58.5888 19.4357 60.3571 18.0623 61.5932ZM13.5816 51.4364C10.6849 51.4364 8.45301 53.6683 8.45301 56.5651C8.45301 59.4619 10.6849 61.6937 13.5816 61.6937C16.4784 61.6937 18.7103 59.4619 18.7103 56.5651C18.7103 53.6683 16.4784 51.4364 13.5816 51.4364ZM6.12766 78.3921H21.0356C21.4004 78.3921 21.6681 78.1931 21.8333 78.0184C22.0012 77.8409 22.1325 77.6183 22.2372 77.4006C22.4488 76.9611 22.6201 76.396 22.7544 75.8392C23.0221 74.7297 23.1827 73.4816 23.1827 72.9638C23.1827 67.6818 18.8637 63.3628 13.5816 63.3628C8.29958 63.3628 3.98062 67.6818 3.98062 72.9638C3.98062 73.4816 4.14117 74.7297 4.40889 75.8392C4.54324 76.396 4.7145 76.9611 4.92604 77.4006C5.03079 77.6183 5.16214 77.8409 5.32996 78.0184C5.49516 78.1931 5.76293 78.3921 6.12766 78.3921Z" fill="#004357"/>
</g>
<path d="M37.4062 64.3125C37.4062 57.0638 43.2825 51.1875 50.5312 51.1875V51.1875C57.78 51.1875 63.6562 57.0638 63.6562 64.3125V64.3125C63.6562 71.5612 57.78 77.4375 50.5312 77.4375V77.4375C43.2825 77.4375 37.4062 71.5612 37.4062 64.3125V64.3125Z" fill="#BED73C"/>
<circle cx="50.5312" cy="64.3125" r="13.125" fill="#BED73C"/>
<mask id="mask1_6262_112447" style="mask-type:alpha" maskUnits="userSpaceOnUse" x="37" y="48" width="27" height="30">
<path d="M37.4062 48.2036H63.6562V64.3117C63.6562 71.5604 57.78 77.4367 50.5312 77.4367V77.4367C43.2825 77.4367 37.4062 71.5604 37.4062 64.3117V48.2036Z" fill="#D9D9D9"/>
</mask>
<g mask="url(#mask1_6262_112447)">
<path fill-rule="evenodd" clip-rule="evenodd" d="M54.8123 61.5932L54.0738 62.2579L54.9749 62.6762C58.9277 64.5114 61.6018 68.4598 61.6018 72.9638C61.6018 74.1077 61.1516 75.9466 60.3839 77.5003C60.0024 78.2723 59.5614 78.9345 59.0936 79.3943C58.6231 79.8568 58.1828 80.0612 57.7856 80.0612H42.8777C42.4805 80.0612 42.0402 79.8568 41.5697 79.3943C41.1019 78.9345 40.6609 78.2723 40.2794 77.5003C39.5117 75.9466 39.0615 74.1077 39.0615 72.9638C39.0615 68.4598 41.7356 64.5114 45.6884 62.6762L46.5895 62.2579L45.851 61.5932C44.4776 60.3571 43.5339 58.5888 43.5339 56.5651C43.5339 52.7533 46.5199 49.7673 50.3316 49.7673C54.1434 49.7673 57.1294 52.7533 57.1294 56.5651C57.1294 58.5888 56.1857 60.3571 54.8123 61.5932ZM50.3316 51.4364C47.4349 51.4364 45.203 53.6683 45.203 56.5651C45.203 59.4619 47.4349 61.6937 50.3316 61.6937C53.2284 61.6937 55.4603 59.4619 55.4603 56.5651C55.4603 53.6683 53.2284 51.4364 50.3316 51.4364ZM42.8777 78.3921H57.7856C58.1504 78.3921 58.4181 78.1931 58.5833 78.0184C58.7512 77.8409 58.8825 77.6183 58.9872 77.4006C59.1988 76.9611 59.3701 76.396 59.5044 75.8392C59.7721 74.7297 59.9327 73.4816 59.9327 72.9638C59.9327 67.6818 55.6137 63.3628 50.3316 63.3628C45.0496 63.3628 40.7306 67.6818 40.7306 72.9638C40.7306 73.4816 40.8912 74.7297 41.1589 75.8392C41.2932 76.396 41.4645 76.9611 41.676 77.4006C41.7808 77.6183 41.9121 77.8409 42.08 78.0184C42.2452 78.1931 42.5129 78.3921 42.8777 78.3921Z" fill="#004357"/>
</g>
<path d="M74.1562 64.3125C74.1562 57.0638 80.0325 51.1875 87.2812 51.1875V51.1875C94.53 51.1875 100.406 57.0638 100.406 64.3125V64.3125C100.406 71.5612 94.53 77.4375 87.2812 77.4375V77.4375C80.0325 77.4375 74.1562 71.5612 74.1562 64.3125V64.3125Z" fill="#BED73C"/>
<circle cx="87.2812" cy="64.3125" r="13.125" fill="#BED73C"/>
<mask id="mask2_6262_112447" style="mask-type:alpha" maskUnits="userSpaceOnUse" x="74" y="48" width="27" height="30">
<path d="M74.1562 48.2036H100.406V64.3117C100.406 71.5604 94.53 77.4367 87.2812 77.4367V77.4367C80.0325 77.4367 74.1562 71.5604 74.1562 64.3117V48.2036Z" fill="#D9D9D9"/>
</mask>
<g mask="url(#mask2_6262_112447)">
<path fill-rule="evenodd" clip-rule="evenodd" d="M91.5623 61.5932L90.8238 62.2579L91.7249 62.6762C95.6777 64.5114 98.3518 68.4598 98.3518 72.9638C98.3518 74.1077 97.9016 75.9466 97.1339 77.5003C96.7524 78.2723 96.3114 78.9345 95.8436 79.3943C95.3731 79.8568 94.9328 80.0612 94.5356 80.0612H79.6277C79.2305 80.0612 78.7902 79.8568 78.3197 79.3943C77.8519 78.9345 77.4109 78.2723 77.0294 77.5003C76.2617 75.9466 75.8115 74.1077 75.8115 72.9638C75.8115 68.4598 78.4856 64.5114 82.4384 62.6762L83.3395 62.2579L82.601 61.5932C81.2276 60.3571 80.2839 58.5888 80.2839 56.5651C80.2839 52.7533 83.2699 49.7673 87.0816 49.7673C90.8934 49.7673 93.8794 52.7533 93.8794 56.5651C93.8794 58.5888 92.9357 60.3571 91.5623 61.5932ZM87.0816 51.4364C84.1849 51.4364 81.953 53.6683 81.953 56.5651C81.953 59.4619 84.1849 61.6937 87.0816 61.6937C89.9784 61.6937 92.2103 59.4619 92.2103 56.5651C92.2103 53.6683 89.9784 51.4364 87.0816 51.4364ZM79.6277 78.3921H94.5356C94.9004 78.3921 95.1681 78.1931 95.3333 78.0184C95.5012 77.8409 95.6325 77.6183 95.7372 77.4006C95.9488 76.9611 96.1201 76.396 96.2544 75.8392C96.5221 74.7297 96.6827 73.4816 96.6827 72.9638C96.6827 67.6818 92.3637 63.3628 87.0816 63.3628C81.7996 63.3628 77.4806 67.6818 77.4806 72.9638C77.4806 73.4816 77.6412 74.7297 77.9089 75.8392C78.0432 76.396 78.2145 76.9611 78.426 77.4006C78.5308 77.6183 78.6621 77.8409 78.83 78.0184C78.9952 78.1931 79.2629 78.3921 79.6277 78.3921Z" fill="#004357"/>
</g>
<path d="M110.906 64.3125C110.906 57.0638 116.783 51.1875 124.031 51.1875V51.1875C131.28 51.1875 137.156 57.0638 137.156 64.3125V64.3125C137.156 71.5612 131.28 77.4375 124.031 77.4375V77.4375C116.783 77.4375 110.906 71.5612 110.906 64.3125V64.3125Z" fill="#BED73C"/>
<circle cx="124.031" cy="64.3125" r="13.125" fill="#BED73C"/>
<mask id="mask3_6262_112447" style="mask-type:alpha" maskUnits="userSpaceOnUse" x="110" y="48" width="28" height="30">
<path d="M110.906 48.2036H137.156V64.3117C137.156 71.5604 131.28 77.4367 124.031 77.4367V77.4367C116.783 77.4367 110.906 71.5604 110.906 64.3117V48.2036Z" fill="#D9D9D9"/>
</mask>
<g mask="url(#mask3_6262_112447)">
<path fill-rule="evenodd" clip-rule="evenodd" d="M128.312 61.5932L127.574 62.2579L128.475 62.6762C132.428 64.5114 135.102 68.4598 135.102 72.9638C135.102 74.1077 134.652 75.9466 133.884 77.5003C133.502 78.2723 133.061 78.9345 132.594 79.3943C132.123 79.8568 131.683 80.0612 131.286 80.0612H116.378C115.98 80.0612 115.54 79.8568 115.07 79.3943C114.602 78.9345 114.161 78.2723 113.779 77.5003C113.012 75.9466 112.562 74.1077 112.562 72.9638C112.562 68.4598 115.236 64.5114 119.188 62.6762L120.09 62.2579L119.351 61.5932C117.978 60.3571 117.034 58.5888 117.034 56.5651C117.034 52.7533 120.02 49.7673 123.832 49.7673C127.643 49.7673 130.629 52.7533 130.629 56.5651C130.629 58.5888 129.686 60.3571 128.312 61.5932ZM123.832 51.4364C120.935 51.4364 118.703 53.6683 118.703 56.5651C118.703 59.4619 120.935 61.6937 123.832 61.6937C126.728 61.6937 128.96 59.4619 128.96 56.5651C128.96 53.6683 126.728 51.4364 123.832 51.4364ZM116.378 78.3921H131.286C131.65 78.3921 131.918 78.1931 132.083 78.0184C132.251 77.8409 132.382 77.6183 132.487 77.4006C132.699 76.9611 132.87 76.396 133.004 75.8392C133.272 74.7297 133.433 73.4816 133.433 72.9638C133.433 67.6818 129.114 63.3628 123.832 63.3628C118.55 63.3628 114.231 67.6818 114.231 72.9638C114.231 73.4816 114.391 74.7297 114.659 75.8392C114.793 76.396 114.964 76.9611 115.176 77.4006C115.281 77.6183 115.412 77.8409 115.58 78.0184C115.745 78.1931 116.013 78.3921 116.378 78.3921Z" fill="#004357"/>
</g>
<path d="M147.656 64.3125C147.656 57.0638 153.533 51.1875 160.781 51.1875V51.1875C168.03 51.1875 173.906 57.0638 173.906 64.3125V64.3125C173.906 71.5612 168.03 77.4375 160.781 77.4375V77.4375C153.533 77.4375 147.656 71.5612 147.656 64.3125V64.3125Z" fill="#BED73C"/>
<circle cx="160.781" cy="64.3125" r="13.125" fill="#BED73C"/>
<mask id="mask4_6262_112447" style="mask-type:alpha" maskUnits="userSpaceOnUse" x="147" y="48" width="27" height="30">
<path d="M147.656 48.2036H173.906V64.3117C173.906 71.5604 168.03 77.4367 160.781 77.4367V77.4367C153.533 77.4367 147.656 71.5604 147.656 64.3117V48.2036Z" fill="#D9D9D9"/>
</mask>
<g mask="url(#mask4_6262_112447)">
<path fill-rule="evenodd" clip-rule="evenodd" d="M165.062 61.5932L164.324 62.2579L165.225 62.6762C169.178 64.5114 171.852 68.4598 171.852 72.9638C171.852 74.1077 171.402 75.9466 170.634 77.5003C170.252 78.2723 169.811 78.9345 169.344 79.3943C168.873 79.8568 168.433 80.0612 168.036 80.0612H153.128C152.73 80.0612 152.29 79.8568 151.82 79.3943C151.352 78.9345 150.911 78.2723 150.529 77.5003C149.762 75.9466 149.312 74.1077 149.312 72.9638C149.312 68.4598 151.986 64.5114 155.938 62.6762L156.84 62.2579L156.101 61.5932C154.728 60.3571 153.784 58.5888 153.784 56.5651C153.784 52.7533 156.77 49.7673 160.582 49.7673C164.393 49.7673 167.379 52.7533 167.379 56.5651C167.379 58.5888 166.436 60.3571 165.062 61.5932ZM160.582 51.4364C157.685 51.4364 155.453 53.6683 155.453 56.5651C155.453 59.4619 157.685 61.6937 160.582 61.6937C163.478 61.6937 165.71 59.4619 165.71 56.5651C165.71 53.6683 163.478 51.4364 160.582 51.4364ZM153.128 78.3921H168.036C168.4 78.3921 168.668 78.1931 168.833 78.0184C169.001 77.8409 169.132 77.6183 169.237 77.4006C169.449 76.9611 169.62 76.396 169.754 75.8392C170.022 74.7297 170.183 73.4816 170.183 72.9638C170.183 67.6818 165.864 63.3628 160.582 63.3628C155.3 63.3628 150.981 67.6818 150.981 72.9638C150.981 73.4816 151.141 74.7297 151.409 75.8392C151.543 76.396 151.714 76.9611 151.926 77.4006C152.031 77.6183 152.162 77.8409 152.33 78.0184C152.495 78.1931 152.763 78.3921 153.128 78.3921Z" fill="#004357"/>
</g>
<path d="M184.406 64.3125C184.406 57.0638 190.283 51.1875 197.531 51.1875V51.1875C204.78 51.1875 210.656 57.0638 210.656 64.3125V64.3125C210.656 71.5612 204.78 77.4375 197.531 77.4375V77.4375C190.283 77.4375 184.406 71.5612 184.406 64.3125V64.3125Z" fill="#F3F4F6"/>
<circle cx="197.531" cy="64.3125" r="13.125" fill="#F3F4F6"/>
<mask id="mask5_6262_112447" style="mask-type:alpha" maskUnits="userSpaceOnUse" x="184" y="48" width="27" height="30">
<path d="M184.406 48.2036H210.656V64.3117C210.656 71.5604 204.78 77.4367 197.531 77.4367V77.4367C190.283 77.4367 184.406 71.5604 184.406 64.3117V48.2036Z" fill="#D9D9D9"/>
</mask>
<g mask="url(#mask5_6262_112447)">
<path fill-rule="evenodd" clip-rule="evenodd" d="M201.812 61.5932L201.074 62.2579L201.975 62.6762C205.928 64.5114 208.602 68.4598 208.602 72.9638C208.602 74.1077 208.152 75.9466 207.384 77.5003C207.002 78.2723 206.561 78.9345 206.094 79.3943C205.623 79.8568 205.183 80.0612 204.786 80.0612H189.878C189.48 80.0612 189.04 79.8568 188.57 79.3943C188.102 78.9345 187.661 78.2723 187.279 77.5003C186.512 75.9466 186.062 74.1077 186.062 72.9638C186.062 68.4598 188.736 64.5114 192.688 62.6762L193.59 62.2579L192.851 61.5932C191.478 60.3571 190.534 58.5888 190.534 56.5651C190.534 52.7533 193.52 49.7673 197.332 49.7673C201.143 49.7673 204.129 52.7533 204.129 56.5651C204.129 58.5888 203.186 60.3571 201.812 61.5932ZM197.332 51.4364C194.435 51.4364 192.203 53.6683 192.203 56.5651C192.203 59.4619 194.435 61.6937 197.332 61.6937C200.228 61.6937 202.46 59.4619 202.46 56.5651C202.46 53.6683 200.228 51.4364 197.332 51.4364ZM189.878 78.3921H204.786C205.15 78.3921 205.418 78.1931 205.583 78.0184C205.751 77.8409 205.882 77.6183 205.987 77.4006C206.199 76.9611 206.37 76.396 206.504 75.8392C206.772 74.7297 206.933 73.4816 206.933 72.9638C206.933 67.6818 202.614 63.3628 197.332 63.3628C192.05 63.3628 187.731 67.6818 187.731 72.9638C187.731 73.4816 187.891 74.7297 188.159 75.8392C188.293 76.396 188.464 76.9611 188.676 77.4006C188.781 77.6183 188.912 77.8409 189.08 78.0184C189.245 78.1931 189.513 78.3921 189.878 78.3921Z" fill="#004357"/>
</g>
<path d="M221.156 64.3125C221.156 57.0638 227.033 51.1875 234.281 51.1875V51.1875C241.53 51.1875 247.406 57.0638 247.406 64.3125V64.3125C247.406 71.5612 241.53 77.4375 234.281 77.4375V77.4375C227.033 77.4375 221.156 71.5612 221.156 64.3125V64.3125Z" fill="#F3F4F6"/>
<circle cx="234.281" cy="64.3125" r="13.125" fill="#F3F4F6"/>
<mask id="mask6_6262_112447" style="mask-type:alpha" maskUnits="userSpaceOnUse" x="221" y="48" width="27" height="30">
<path d="M221.156 48.2036H247.406V64.3117C247.406 71.5604 241.53 77.4367 234.281 77.4367V77.4367C227.033 77.4367 221.156 71.5604 221.156 64.3117V48.2036Z" fill="#D9D9D9"/>
</mask>
<g mask="url(#mask6_6262_112447)">
<path fill-rule="evenodd" clip-rule="evenodd" d="M238.562 61.5932L237.824 62.2579L238.725 62.6762C242.678 64.5114 245.352 68.4598 245.352 72.9638C245.352 74.1077 244.902 75.9466 244.134 77.5003C243.752 78.2723 243.311 78.9345 242.844 79.3943C242.373 79.8568 241.933 80.0612 241.536 80.0612H226.628C226.23 80.0612 225.79 79.8568 225.32 79.3943C224.852 78.9345 224.411 78.2723 224.029 77.5003C223.262 75.9466 222.812 74.1077 222.812 72.9638C222.812 68.4598 225.486 64.5114 229.438 62.6762L230.34 62.2579L229.601 61.5932C228.228 60.3571 227.284 58.5888 227.284 56.5651C227.284 52.7533 230.27 49.7673 234.082 49.7673C237.893 49.7673 240.879 52.7533 240.879 56.5651C240.879 58.5888 239.936 60.3571 238.562 61.5932ZM234.082 51.4364C231.185 51.4364 228.953 53.6683 228.953 56.5651C228.953 59.4619 231.185 61.6937 234.082 61.6937C236.978 61.6937 239.21 59.4619 239.21 56.5651C239.21 53.6683 236.978 51.4364 234.082 51.4364ZM226.628 78.3921H241.536C241.9 78.3921 242.168 78.1931 242.333 78.0184C242.501 77.8409 242.632 77.6183 242.737 77.4006C242.949 76.9611 243.12 76.396 243.254 75.8392C243.522 74.7297 243.683 73.4816 243.683 72.9638C243.683 67.6818 239.364 63.3628 234.082 63.3628C228.8 63.3628 224.481 67.6818 224.481 72.9638C224.481 73.4816 224.641 74.7297 224.909 75.8392C225.043 76.396 225.214 76.9611 225.426 77.4006C225.531 77.6183 225.662 77.8409 225.83 78.0184C225.995 78.1931 226.263 78.3921 226.628 78.3921Z" fill="#004357"/>
</g>
<path d="M257.906 64.3125C257.906 57.0638 263.783 51.1875 271.031 51.1875V51.1875C278.28 51.1875 284.156 57.0638 284.156 64.3125V64.3125C284.156 71.5612 278.28 77.4375 271.031 77.4375V77.4375C263.783 77.4375 257.906 71.5612 257.906 64.3125V64.3125Z" fill="#F3F4F6"/>
<circle cx="271.031" cy="64.3125" r="13.125" fill="#F3F4F6"/>
<mask id="mask7_6262_112447" style="mask-type:alpha" maskUnits="userSpaceOnUse" x="257" y="48" width="28" height="30">
<path d="M257.906 48.2036H284.156V64.3117C284.156 71.5604 278.28 77.4367 271.031 77.4367V77.4367C263.783 77.4367 257.906 71.5604 257.906 64.3117V48.2036Z" fill="#D9D9D9"/>
</mask>
<g mask="url(#mask7_6262_112447)">
<path fill-rule="evenodd" clip-rule="evenodd" d="M275.312 61.5932L274.574 62.2579L275.475 62.6762C279.428 64.5114 282.102 68.4598 282.102 72.9638C282.102 74.1077 281.652 75.9466 280.884 77.5003C280.502 78.2723 280.061 78.9345 279.594 79.3943C279.123 79.8568 278.683 80.0612 278.286 80.0612H263.378C262.98 80.0612 262.54 79.8568 262.07 79.3943C261.602 78.9345 261.161 78.2723 260.779 77.5003C260.012 75.9466 259.562 74.1077 259.562 72.9638C259.562 68.4598 262.236 64.5114 266.188 62.6762L267.09 62.2579L266.351 61.5932C264.978 60.3571 264.034 58.5888 264.034 56.5651C264.034 52.7533 267.02 49.7673 270.832 49.7673C274.643 49.7673 277.629 52.7533 277.629 56.5651C277.629 58.5888 276.686 60.3571 275.312 61.5932ZM270.832 51.4364C267.935 51.4364 265.703 53.6683 265.703 56.5651C265.703 59.4619 267.935 61.6937 270.832 61.6937C273.728 61.6937 275.96 59.4619 275.96 56.5651C275.96 53.6683 273.728 51.4364 270.832 51.4364ZM263.378 78.3921H278.286C278.65 78.3921 278.918 78.1931 279.083 78.0184C279.251 77.8409 279.382 77.6183 279.487 77.4006C279.699 76.9611 279.87 76.396 280.004 75.8392C280.272 74.7297 280.433 73.4816 280.433 72.9638C280.433 67.6818 276.114 63.3628 270.832 63.3628C265.55 63.3628 261.231 67.6818 261.231 72.9638C261.231 73.4816 261.391 74.7297 261.659 75.8392C261.793 76.396 261.964 76.9611 262.176 77.4006C262.281 77.6183 262.412 77.8409 262.58 78.0184C262.745 78.1931 263.013 78.3921 263.378 78.3921Z" fill="#004357"/>
</g>
<path d="M294.656 64.3125C294.656 57.0638 300.533 51.1875 307.781 51.1875V51.1875C315.03 51.1875 320.906 57.0638 320.906 64.3125V64.3125C320.906 71.5612 315.03 77.4375 307.781 77.4375V77.4375C300.533 77.4375 294.656 71.5612 294.656 64.3125V64.3125Z" fill="#F3F4F6"/>
<circle cx="307.781" cy="64.3125" r="13.125" fill="#F3F4F6"/>
<mask id="mask8_6262_112447" style="mask-type:alpha" maskUnits="userSpaceOnUse" x="294" y="48" width="27" height="30">
<path d="M294.656 48.2036H320.906V64.3117C320.906 71.5604 315.03 77.4367 307.781 77.4367V77.4367C300.533 77.4367 294.656 71.5604 294.656 64.3117V48.2036Z" fill="#D9D9D9"/>
</mask>
<g mask="url(#mask8_6262_112447)">
<path fill-rule="evenodd" clip-rule="evenodd" d="M312.062 61.5932L311.324 62.2579L312.225 62.6762C316.178 64.5114 318.852 68.4598 318.852 72.9638C318.852 74.1077 318.402 75.9466 317.634 77.5003C317.252 78.2723 316.811 78.9345 316.344 79.3943C315.873 79.8568 315.433 80.0612 315.036 80.0612H300.128C299.73 80.0612 299.29 79.8568 298.82 79.3943C298.352 78.9345 297.911 78.2723 297.529 77.5003C296.762 75.9466 296.312 74.1077 296.312 72.9638C296.312 68.4598 298.986 64.5114 302.938 62.6762L303.84 62.2579L303.101 61.5932C301.728 60.3571 300.784 58.5888 300.784 56.5651C300.784 52.7533 303.77 49.7673 307.582 49.7673C311.393 49.7673 314.379 52.7533 314.379 56.5651C314.379 58.5888 313.436 60.3571 312.062 61.5932ZM307.582 51.4364C304.685 51.4364 302.453 53.6683 302.453 56.5651C302.453 59.4619 304.685 61.6937 307.582 61.6937C310.478 61.6937 312.71 59.4619 312.71 56.5651C312.71 53.6683 310.478 51.4364 307.582 51.4364ZM300.128 78.3921H315.036C315.4 78.3921 315.668 78.1931 315.833 78.0184C316.001 77.8409 316.132 77.6183 316.237 77.4006C316.449 76.9611 316.62 76.396 316.754 75.8392C317.022 74.7297 317.183 73.4816 317.183 72.9638C317.183 67.6818 312.864 63.3628 307.582 63.3628C302.3 63.3628 297.981 67.6818 297.981 72.9638C297.981 73.4816 298.141 74.7297 298.409 75.8392C298.543 76.396 298.714 76.9611 298.926 77.4006C299.031 77.6183 299.162 77.8409 299.33 78.0184C299.495 78.1931 299.763 78.3921 300.128 78.3921Z" fill="#004357"/>
</g>
<path d="M0.65625 101.062C0.65625 93.8138 6.53251 87.9375 13.7812 87.9375V87.9375C21.03 87.9375 26.9062 93.8138 26.9062 101.062V101.062C26.9062 108.311 21.03 114.188 13.7812 114.188V114.188C6.53251 114.188 0.65625 108.311 0.65625 101.062V101.062Z" fill="#F3F4F6"/>
<circle cx="13.7812" cy="101.062" r="13.125" fill="#F3F4F6"/>
<mask id="mask9_6262_112447" style="mask-type:alpha" maskUnits="userSpaceOnUse" x="0" y="84" width="27" height="31">
<path d="M0.65625 84.9536H26.9062V101.062C26.9062 108.31 21.03 114.187 13.7812 114.187V114.187C6.53251 114.187 0.65625 108.31 0.65625 101.062V84.9536Z" fill="#D9D9D9"/>
</mask>
<g mask="url(#mask9_6262_112447)">
<path fill-rule="evenodd" clip-rule="evenodd" d="M18.0623 98.3432L17.3238 99.0079L18.2249 99.4262C22.1777 101.261 24.8518 105.21 24.8518 109.714C24.8518 110.858 24.4016 112.697 23.6339 114.25C23.2524 115.022 22.8114 115.685 22.3436 116.144C21.8731 116.607 21.4328 116.811 21.0356 116.811H6.12766C5.73049 116.811 5.29018 116.607 4.8197 116.144C4.3519 115.685 3.9109 115.022 3.52943 114.25C2.76167 112.697 2.31152 110.858 2.31152 109.714C2.31152 105.21 4.98562 101.261 8.93837 99.4262L9.8395 99.0079L9.10103 98.3432C7.72755 97.1071 6.78391 95.3388 6.78391 93.3151C6.78391 89.5033 9.76985 86.5173 13.5816 86.5173C17.3934 86.5173 20.3794 89.5033 20.3794 93.3151C20.3794 95.3388 19.4357 97.1071 18.0623 98.3432ZM13.5816 88.1864C10.6849 88.1864 8.45301 90.4183 8.45301 93.3151C8.45301 96.2119 10.6849 98.4437 13.5816 98.4437C16.4784 98.4437 18.7103 96.2119 18.7103 93.3151C18.7103 90.4183 16.4784 88.1864 13.5816 88.1864ZM6.12766 115.142H21.0356C21.4004 115.142 21.6681 114.943 21.8333 114.768C22.0012 114.591 22.1325 114.368 22.2372 114.151C22.4488 113.711 22.6201 113.146 22.7544 112.589C23.0221 111.48 23.1827 110.232 23.1827 109.714C23.1827 104.432 18.8637 100.113 13.5816 100.113C8.29958 100.113 3.98062 104.432 3.98062 109.714C3.98062 110.232 4.14117 111.48 4.40889 112.589C4.54324 113.146 4.7145 113.711 4.92604 114.151C5.03079 114.368 5.16214 114.591 5.32996 114.768C5.49516 114.943 5.76293 115.142 6.12766 115.142Z" fill="#004357"/>
</g>
<path d="M37.4062 101.062C37.4062 93.8138 43.2825 87.9375 50.5312 87.9375V87.9375C57.78 87.9375 63.6562 93.8138 63.6562 101.062V101.062C63.6562 108.311 57.78 114.188 50.5312 114.188V114.188C43.2825 114.188 37.4062 108.311 37.4062 101.062V101.062Z" fill="#F3F4F6"/>
<circle cx="50.5312" cy="101.062" r="13.125" fill="#F3F4F6"/>
<mask id="mask10_6262_112447" style="mask-type:alpha" maskUnits="userSpaceOnUse" x="37" y="84" width="27" height="31">
<path d="M37.4062 84.9536H63.6562V101.062C63.6562 108.31 57.78 114.187 50.5312 114.187V114.187C43.2825 114.187 37.4062 108.31 37.4062 101.062V84.9536Z" fill="#D9D9D9"/>
</mask>
<g mask="url(#mask10_6262_112447)">
<path fill-rule="evenodd" clip-rule="evenodd" d="M54.8123 98.3432L54.0738 99.0079L54.9749 99.4262C58.9277 101.261 61.6018 105.21 61.6018 109.714C61.6018 110.858 61.1516 112.697 60.3839 114.25C60.0024 115.022 59.5614 115.685 59.0936 116.144C58.6231 116.607 58.1828 116.811 57.7856 116.811H42.8777C42.4805 116.811 42.0402 116.607 41.5697 116.144C41.1019 115.685 40.6609 115.022 40.2794 114.25C39.5117 112.697 39.0615 110.858 39.0615 109.714C39.0615 105.21 41.7356 101.261 45.6884 99.4262L46.5895 99.0079L45.851 98.3432C44.4776 97.1071 43.5339 95.3388 43.5339 93.3151C43.5339 89.5033 46.5199 86.5173 50.3316 86.5173C54.1434 86.5173 57.1294 89.5033 57.1294 93.3151C57.1294 95.3388 56.1857 97.1071 54.8123 98.3432ZM50.3316 88.1864C47.4349 88.1864 45.203 90.4183 45.203 93.3151C45.203 96.2119 47.4349 98.4437 50.3316 98.4437C53.2284 98.4437 55.4603 96.2119 55.4603 93.3151C55.4603 90.4183 53.2284 88.1864 50.3316 88.1864ZM42.8777 115.142H57.7856C58.1504 115.142 58.4181 114.943 58.5833 114.768C58.7512 114.591 58.8825 114.368 58.9872 114.151C59.1988 113.711 59.3701 113.146 59.5044 112.589C59.7721 111.48 59.9327 110.232 59.9327 109.714C59.9327 104.432 55.6137 100.113 50.3316 100.113C45.0496 100.113 40.7306 104.432 40.7306 109.714C40.7306 110.232 40.8912 111.48 41.1589 112.589C41.2932 113.146 41.4645 113.711 41.676 114.151C41.7808 114.368 41.9121 114.591 42.08 114.768C42.2452 114.943 42.5129 115.142 42.8777 115.142Z" fill="#004357"/>
</g>
<path d="M74.1562 101.062C74.1562 93.8138 80.0325 87.9375 87.2812 87.9375V87.9375C94.53 87.9375 100.406 93.8138 100.406 101.062V101.062C100.406 108.311 94.53 114.188 87.2812 114.188V114.188C80.0325 114.188 74.1562 108.311 74.1562 101.062V101.062Z" fill="#F3F4F6"/>
<circle cx="87.2812" cy="101.062" r="13.125" fill="#F3F4F6"/>
<mask id="mask11_6262_112447" style="mask-type:alpha" maskUnits="userSpaceOnUse" x="74" y="84" width="27" height="31">
<path d="M74.1562 84.9536H100.406V101.062C100.406 108.31 94.53 114.187 87.2812 114.187V114.187C80.0325 114.187 74.1562 108.31 74.1562 101.062V84.9536Z" fill="#D9D9D9"/>
</mask>
<g mask="url(#mask11_6262_112447)">
<path fill-rule="evenodd" clip-rule="evenodd" d="M91.5623 98.3432L90.8238 99.0079L91.7249 99.4262C95.6777 101.261 98.3518 105.21 98.3518 109.714C98.3518 110.858 97.9016 112.697 97.1339 114.25C96.7524 115.022 96.3114 115.685 95.8436 116.144C95.3731 116.607 94.9328 116.811 94.5356 116.811H79.6277C79.2305 116.811 78.7902 116.607 78.3197 116.144C77.8519 115.685 77.4109 115.022 77.0294 114.25C76.2617 112.697 75.8115 110.858 75.8115 109.714C75.8115 105.21 78.4856 101.261 82.4384 99.4262L83.3395 99.0079L82.601 98.3432C81.2276 97.1071 80.2839 95.3388 80.2839 93.3151C80.2839 89.5033 83.2699 86.5173 87.0816 86.5173C90.8934 86.5173 93.8794 89.5033 93.8794 93.3151C93.8794 95.3388 92.9357 97.1071 91.5623 98.3432ZM87.0816 88.1864C84.1849 88.1864 81.953 90.4183 81.953 93.3151C81.953 96.2119 84.1849 98.4437 87.0816 98.4437C89.9784 98.4437 92.2103 96.2119 92.2103 93.3151C92.2103 90.4183 89.9784 88.1864 87.0816 88.1864ZM79.6277 115.142H94.5356C94.9004 115.142 95.1681 114.943 95.3333 114.768C95.5012 114.591 95.6325 114.368 95.7372 114.151C95.9488 113.711 96.1201 113.146 96.2544 112.589C96.5221 111.48 96.6827 110.232 96.6827 109.714C96.6827 104.432 92.3637 100.113 87.0816 100.113C81.7996 100.113 77.4806 104.432 77.4806 109.714C77.4806 110.232 77.6412 111.48 77.9089 112.589C78.0432 113.146 78.2145 113.711 78.426 114.151C78.5308 114.368 78.6621 114.591 78.83 114.768C78.9952 114.943 79.2629 115.142 79.6277 115.142Z" fill="#004357"/>
</g>
<path d="M110.906 101.062C110.906 93.8138 116.783 87.9375 124.031 87.9375V87.9375C131.28 87.9375 137.156 93.8138 137.156 101.062V101.062C137.156 108.311 131.28 114.188 124.031 114.188V114.188C116.783 114.188 110.906 108.311 110.906 101.062V101.062Z" fill="#F3F4F6"/>
<circle cx="124.031" cy="101.062" r="13.125" fill="#F3F4F6"/>
<mask id="mask12_6262_112447" style="mask-type:alpha" maskUnits="userSpaceOnUse" x="110" y="84" width="28" height="31">
<path d="M110.906 84.9536H137.156V101.062C137.156 108.31 131.28 114.187 124.031 114.187V114.187C116.783 114.187 110.906 108.31 110.906 101.062V84.9536Z" fill="#D9D9D9"/>
</mask>
<g mask="url(#mask12_6262_112447)">
<path fill-rule="evenodd" clip-rule="evenodd" d="M128.312 98.3432L127.574 99.0079L128.475 99.4262C132.428 101.261 135.102 105.21 135.102 109.714C135.102 110.858 134.652 112.697 133.884 114.25C133.502 115.022 133.061 115.685 132.594 116.144C132.123 116.607 131.683 116.811 131.286 116.811H116.378C115.98 116.811 115.54 116.607 115.07 116.144C114.602 115.685 114.161 115.022 113.779 114.25C113.012 112.697 112.562 110.858 112.562 109.714C112.562 105.21 115.236 101.261 119.188 99.4262L120.09 99.0079L119.351 98.3432C117.978 97.1071 117.034 95.3388 117.034 93.3151C117.034 89.5033 120.02 86.5173 123.832 86.5173C127.643 86.5173 130.629 89.5033 130.629 93.3151C130.629 95.3388 129.686 97.1071 128.312 98.3432ZM123.832 88.1864C120.935 88.1864 118.703 90.4183 118.703 93.3151C118.703 96.2119 120.935 98.4437 123.832 98.4437C126.728 98.4437 128.96 96.2119 128.96 93.3151C128.96 90.4183 126.728 88.1864 123.832 88.1864ZM116.378 115.142H131.286C131.65 115.142 131.918 114.943 132.083 114.768C132.251 114.591 132.382 114.368 132.487 114.151C132.699 113.711 132.87 113.146 133.004 112.589C133.272 111.48 133.433 110.232 133.433 109.714C133.433 104.432 129.114 100.113 123.832 100.113C118.55 100.113 114.231 104.432 114.231 109.714C114.231 110.232 114.391 111.48 114.659 112.589C114.793 113.146 114.964 113.711 115.176 114.151C115.281 114.368 115.412 114.591 115.58 114.768C115.745 114.943 116.013 115.142 116.378 115.142Z" fill="#004357"/>
</g>
<path d="M147.656 101.062C147.656 93.8138 153.533 87.9375 160.781 87.9375V87.9375C168.03 87.9375 173.906 93.8138 173.906 101.062V101.062C173.906 108.311 168.03 114.188 160.781 114.188V114.188C153.533 114.188 147.656 108.311 147.656 101.062V101.062Z" fill="#F3F4F6"/>
<circle cx="160.781" cy="101.062" r="13.125" fill="#F3F4F6"/>
<mask id="mask13_6262_112447" style="mask-type:alpha" maskUnits="userSpaceOnUse" x="147" y="84" width="27" height="31">
<path d="M147.656 84.9536H173.906V101.062C173.906 108.31 168.03 114.187 160.781 114.187V114.187C153.533 114.187 147.656 108.31 147.656 101.062V84.9536Z" fill="#D9D9D9"/>
</mask>
<g mask="url(#mask13_6262_112447)">
<path fill-rule="evenodd" clip-rule="evenodd" d="M165.062 98.3432L164.324 99.0079L165.225 99.4262C169.178 101.261 171.852 105.21 171.852 109.714C171.852 110.858 171.402 112.697 170.634 114.25C170.252 115.022 169.811 115.685 169.344 116.144C168.873 116.607 168.433 116.811 168.036 116.811H153.128C152.73 116.811 152.29 116.607 151.82 116.144C151.352 115.685 150.911 115.022 150.529 114.25C149.762 112.697 149.312 110.858 149.312 109.714C149.312 105.21 151.986 101.261 155.938 99.4262L156.84 99.0079L156.101 98.3432C154.728 97.1071 153.784 95.3388 153.784 93.3151C153.784 89.5033 156.77 86.5173 160.582 86.5173C164.393 86.5173 167.379 89.5033 167.379 93.3151C167.379 95.3388 166.436 97.1071 165.062 98.3432ZM160.582 88.1864C157.685 88.1864 155.453 90.4183 155.453 93.3151C155.453 96.2119 157.685 98.4437 160.582 98.4437C163.478 98.4437 165.71 96.2119 165.71 93.3151C165.71 90.4183 163.478 88.1864 160.582 88.1864ZM153.128 115.142H168.036C168.4 115.142 168.668 114.943 168.833 114.768C169.001 114.591 169.132 114.368 169.237 114.151C169.449 113.711 169.62 113.146 169.754 112.589C170.022 111.48 170.183 110.232 170.183 109.714C170.183 104.432 165.864 100.113 160.582 100.113C155.3 100.113 150.981 104.432 150.981 109.714C150.981 110.232 151.141 111.48 151.409 112.589C151.543 113.146 151.714 113.711 151.926 114.151C152.031 114.368 152.162 114.591 152.33 114.768C152.495 114.943 152.763 115.142 153.128 115.142Z" fill="#004357"/>
</g>
<path d="M184.406 101.062C184.406 93.8138 190.283 87.9375 197.531 87.9375V87.9375C204.78 87.9375 210.656 93.8138 210.656 101.062V101.062C210.656 108.311 204.78 114.188 197.531 114.188V114.188C190.283 114.188 184.406 108.311 184.406 101.062V101.062Z" fill="#F3F4F6"/>
<circle cx="197.531" cy="101.062" r="13.125" fill="#F3F4F6"/>
<mask id="mask14_6262_112447" style="mask-type:alpha" maskUnits="userSpaceOnUse" x="184" y="84" width="27" height="31">
<path d="M184.406 84.9536H210.656V101.062C210.656 108.31 204.78 114.187 197.531 114.187V114.187C190.283 114.187 184.406 108.31 184.406 101.062V84.9536Z" fill="#D9D9D9"/>
</mask>
<g mask="url(#mask14_6262_112447)">
<path fill-rule="evenodd" clip-rule="evenodd" d="M201.812 98.3432L201.074 99.0079L201.975 99.4262C205.928 101.261 208.602 105.21 208.602 109.714C208.602 110.858 208.152 112.697 207.384 114.25C207.002 115.022 206.561 115.685 206.094 116.144C205.623 116.607 205.183 116.811 204.786 116.811H189.878C189.48 116.811 189.04 116.607 188.57 116.144C188.102 115.685 187.661 115.022 187.279 114.25C186.512 112.697 186.062 110.858 186.062 109.714C186.062 105.21 188.736 101.261 192.688 99.4262L193.59 99.0079L192.851 98.3432C191.478 97.1071 190.534 95.3388 190.534 93.3151C190.534 89.5033 193.52 86.5173 197.332 86.5173C201.143 86.5173 204.129 89.5033 204.129 93.3151C204.129 95.3388 203.186 97.1071 201.812 98.3432ZM197.332 88.1864C194.435 88.1864 192.203 90.4183 192.203 93.3151C192.203 96.2119 194.435 98.4437 197.332 98.4437C200.228 98.4437 202.46 96.2119 202.46 93.3151C202.46 90.4183 200.228 88.1864 197.332 88.1864ZM189.878 115.142H204.786C205.15 115.142 205.418 114.943 205.583 114.768C205.751 114.591 205.882 114.368 205.987 114.151C206.199 113.711 206.37 113.146 206.504 112.589C206.772 111.48 206.933 110.232 206.933 109.714C206.933 104.432 202.614 100.113 197.332 100.113C192.05 100.113 187.731 104.432 187.731 109.714C187.731 110.232 187.891 111.48 188.159 112.589C188.293 113.146 188.464 113.711 188.676 114.151C188.781 114.368 188.912 114.591 189.08 114.768C189.245 114.943 189.513 115.142 189.878 115.142Z" fill="#004357"/>
</g>
<path d="M221.156 101.062C221.156 93.8138 227.033 87.9375 234.281 87.9375V87.9375C241.53 87.9375 247.406 93.8138 247.406 101.062V101.062C247.406 108.311 241.53 114.188 234.281 114.188V114.188C227.033 114.188 221.156 108.311 221.156 101.062V101.062Z" fill="#F3F4F6"/>
<circle cx="234.281" cy="101.062" r="13.125" fill="#F3F4F6"/>
<mask id="mask15_6262_112447" style="mask-type:alpha" maskUnits="userSpaceOnUse" x="221" y="84" width="27" height="31">
<path d="M221.156 84.9536H247.406V101.062C247.406 108.31 241.53 114.187 234.281 114.187V114.187C227.033 114.187 221.156 108.31 221.156 101.062V84.9536Z" fill="#D9D9D9"/>
</mask>
<g mask="url(#mask15_6262_112447)">
<path fill-rule="evenodd" clip-rule="evenodd" d="M238.562 98.3432L237.824 99.0079L238.725 99.4262C242.678 101.261 245.352 105.21 245.352 109.714C245.352 110.858 244.902 112.697 244.134 114.25C243.752 115.022 243.311 115.685 242.844 116.144C242.373 116.607 241.933 116.811 241.536 116.811H226.628C226.23 116.811 225.79 116.607 225.32 116.144C224.852 115.685 224.411 115.022 224.029 114.25C223.262 112.697 222.812 110.858 222.812 109.714C222.812 105.21 225.486 101.261 229.438 99.4262L230.34 99.0079L229.601 98.3432C228.228 97.1071 227.284 95.3388 227.284 93.3151C227.284 89.5033 230.27 86.5173 234.082 86.5173C237.893 86.5173 240.879 89.5033 240.879 93.3151C240.879 95.3388 239.936 97.1071 238.562 98.3432ZM234.082 88.1864C231.185 88.1864 228.953 90.4183 228.953 93.3151C228.953 96.2119 231.185 98.4437 234.082 98.4437C236.978 98.4437 239.21 96.2119 239.21 93.3151C239.21 90.4183 236.978 88.1864 234.082 88.1864ZM226.628 115.142H241.536C241.9 115.142 242.168 114.943 242.333 114.768C242.501 114.591 242.632 114.368 242.737 114.151C242.949 113.711 243.12 113.146 243.254 112.589C243.522 111.48 243.683 110.232 243.683 109.714C243.683 104.432 239.364 100.113 234.082 100.113C228.8 100.113 224.481 104.432 224.481 109.714C224.481 110.232 224.641 111.48 224.909 112.589C225.043 113.146 225.214 113.711 225.426 114.151C225.531 114.368 225.662 114.591 225.83 114.768C225.995 114.943 226.263 115.142 226.628 115.142Z" fill="#004357"/>
</g>
<path d="M257.906 101.062C257.906 93.8138 263.783 87.9375 271.031 87.9375V87.9375C278.28 87.9375 284.156 93.8138 284.156 101.062V101.062C284.156 108.311 278.28 114.188 271.031 114.188V114.188C263.783 114.188 257.906 108.311 257.906 101.062V101.062Z" fill="#F3F4F6"/>
<circle cx="271.031" cy="101.062" r="13.125" fill="#F3F4F6"/>
<mask id="mask16_6262_112447" style="mask-type:alpha" maskUnits="userSpaceOnUse" x="257" y="84" width="28" height="31">
<path d="M257.906 84.9536H284.156V101.062C284.156 108.31 278.28 114.187 271.031 114.187V114.187C263.783 114.187 257.906 108.31 257.906 101.062V84.9536Z" fill="#D9D9D9"/>
</mask>
<g mask="url(#mask16_6262_112447)">
<path fill-rule="evenodd" clip-rule="evenodd" d="M275.312 98.3432L274.574 99.0079L275.475 99.4262C279.428 101.261 282.102 105.21 282.102 109.714C282.102 110.858 281.652 112.697 280.884 114.25C280.502 115.022 280.061 115.685 279.594 116.144C279.123 116.607 278.683 116.811 278.286 116.811H263.378C262.98 116.811 262.54 116.607 262.07 116.144C261.602 115.685 261.161 115.022 260.779 114.25C260.012 112.697 259.562 110.858 259.562 109.714C259.562 105.21 262.236 101.261 266.188 99.4262L267.09 99.0079L266.351 98.3432C264.978 97.1071 264.034 95.3388 264.034 93.3151C264.034 89.5033 267.02 86.5173 270.832 86.5173C274.643 86.5173 277.629 89.5033 277.629 93.3151C277.629 95.3388 276.686 97.1071 275.312 98.3432ZM270.832 88.1864C267.935 88.1864 265.703 90.4183 265.703 93.3151C265.703 96.2119 267.935 98.4437 270.832 98.4437C273.728 98.4437 275.96 96.2119 275.96 93.3151C275.96 90.4183 273.728 88.1864 270.832 88.1864ZM263.378 115.142H278.286C278.65 115.142 278.918 114.943 279.083 114.768C279.251 114.591 279.382 114.368 279.487 114.151C279.699 113.711 279.87 113.146 280.004 112.589C280.272 111.48 280.433 110.232 280.433 109.714C280.433 104.432 276.114 100.113 270.832 100.113C265.55 100.113 261.231 104.432 261.231 109.714C261.231 110.232 261.391 111.48 261.659 112.589C261.793 113.146 261.964 113.711 262.176 114.151C262.281 114.368 262.412 114.591 262.58 114.768C262.745 114.943 263.013 115.142 263.378 115.142Z" fill="#004357"/>
</g>
<path d="M108.89 40.1739C108.577 40.3556 108.175 40.2487 107.993 39.9351L105.032 34.8248C104.85 34.5112 104.957 34.1097 105.271 33.928C105.585 33.7463 105.986 33.8532 106.168 34.1668L108.8 38.7093L113.342 36.0771C113.656 35.8954 114.058 36.0023 114.239 36.3159C114.421 36.6295 114.314 37.031 114 37.2127L108.89 40.1739ZM146.366 17.1011C137.532 15.2424 129.511 16.1838 123.08 19.9199C116.656 23.6525 111.739 30.2211 109.195 39.7749L107.927 39.4372C110.543 29.6122 115.642 22.7232 122.421 18.785C129.194 14.8502 137.562 13.9074 146.636 15.8167L146.366 17.1011Z" fill="#004357"/>
<path d="M99.75 204.75C99.75 197.501 105.626 191.625 112.875 191.625V191.625C120.124 191.625 126 197.501 126 204.75V204.75C126 211.999 120.124 217.875 112.875 217.875V217.875C105.626 217.875 99.75 211.999 99.75 204.75V204.75Z" fill="#F3F4F6"/>
<circle cx="112.875" cy="204.75" r="13.125" fill="#F3F4F6"/>
<mask id="mask17_6262_112447" style="mask-type:alpha" maskUnits="userSpaceOnUse" x="99" y="188" width="27" height="30">
<path d="M99.75 188.641H126V204.749C126 211.998 120.124 217.874 112.875 217.874V217.874C105.626 217.874 99.75 211.998 99.75 204.749V188.641Z" fill="#D9D9D9"/>
</mask>
<g mask="url(#mask17_6262_112447)">
<path fill-rule="evenodd" clip-rule="evenodd" d="M117.156 202.031L116.418 202.695L117.319 203.114C121.271 204.949 123.946 208.897 123.946 213.401C123.946 214.545 123.495 216.384 122.728 217.938C122.346 218.71 121.905 219.372 121.437 219.832C120.967 220.294 120.527 220.499 120.129 220.499H105.221C104.824 220.499 104.384 220.294 103.913 219.832C103.446 219.372 103.005 218.71 102.623 217.938C101.855 216.384 101.405 214.545 101.405 213.401C101.405 208.897 104.079 204.949 108.032 203.114L108.933 202.695L108.195 202.031C106.821 200.795 105.878 199.026 105.878 197.003C105.878 193.191 108.864 190.205 112.675 190.205C116.487 190.205 119.473 193.191 119.473 197.003C119.473 199.026 118.529 200.795 117.156 202.031ZM112.675 191.874C109.779 191.874 107.547 194.106 107.547 197.003C107.547 199.899 109.779 202.131 112.675 202.131C115.572 202.131 117.804 199.899 117.804 197.003C117.804 194.106 115.572 191.874 112.675 191.874ZM105.221 218.83H120.129C120.494 218.83 120.762 218.631 120.927 218.456C121.095 218.278 121.226 218.056 121.331 217.838C121.543 217.399 121.714 216.833 121.848 216.277C122.116 215.167 122.276 213.919 122.276 213.401C122.276 208.119 117.957 203.8 112.675 203.8C107.393 203.8 103.074 208.119 103.074 213.401C103.074 213.919 103.235 215.167 103.503 216.277C103.637 216.833 103.808 217.399 104.02 217.838C104.125 218.056 104.256 218.278 104.424 218.456C104.589 218.631 104.857 218.83 105.221 218.83Z" fill="#004357"/>
</g>
<path d="M136.5 204.75C136.5 197.501 142.376 191.625 149.625 191.625V191.625C156.874 191.625 162.75 197.501 162.75 204.75V204.75C162.75 211.999 156.874 217.875 149.625 217.875V217.875C142.376 217.875 136.5 211.999 136.5 204.75V204.75Z" fill="#F3F4F6"/>
<circle cx="149.625" cy="204.75" r="13.125" fill="#F3F4F6"/>
<mask id="mask18_6262_112447" style="mask-type:alpha" maskUnits="userSpaceOnUse" x="136" y="188" width="27" height="30">
<path d="M136.5 188.641H162.75V204.749C162.75 211.998 156.874 217.874 149.625 217.874V217.874C142.376 217.874 136.5 211.998 136.5 204.749V188.641Z" fill="#D9D9D9"/>
</mask>
<g mask="url(#mask18_6262_112447)">
<path fill-rule="evenodd" clip-rule="evenodd" d="M153.906 202.031L153.168 202.695L154.069 203.114C158.021 204.949 160.696 208.897 160.696 213.401C160.696 214.545 160.245 216.384 159.478 217.938C159.096 218.71 158.655 219.372 158.187 219.832C157.717 220.294 157.277 220.499 156.879 220.499H141.971C141.574 220.499 141.134 220.294 140.663 219.832C140.196 219.372 139.755 218.71 139.373 217.938C138.605 216.384 138.155 214.545 138.155 213.401C138.155 208.897 140.829 204.949 144.782 203.114L145.683 202.695L144.945 202.031C143.571 200.795 142.628 199.026 142.628 197.003C142.628 193.191 145.614 190.205 149.425 190.205C153.237 190.205 156.223 193.191 156.223 197.003C156.223 199.026 155.279 200.795 153.906 202.031ZM149.425 191.874C146.529 191.874 144.297 194.106 144.297 197.003C144.297 199.899 146.529 202.131 149.425 202.131C152.322 202.131 154.554 199.899 154.554 197.003C154.554 194.106 152.322 191.874 149.425 191.874ZM141.971 218.83H156.879C157.244 218.83 157.512 218.631 157.677 218.456C157.845 218.278 157.976 218.056 158.081 217.838C158.293 217.399 158.464 216.833 158.598 216.277C158.866 215.167 159.026 213.919 159.026 213.401C159.026 208.119 154.707 203.8 149.425 203.8C144.143 203.8 139.824 208.119 139.824 213.401C139.824 213.919 139.985 215.167 140.253 216.277C140.387 216.833 140.558 217.399 140.77 217.838C140.875 218.056 141.006 218.278 141.174 218.456C141.339 218.631 141.607 218.83 141.971 218.83Z" fill="#004357"/>
</g>
<path d="M173.25 204.75C173.25 197.501 179.126 191.625 186.375 191.625V191.625C193.624 191.625 199.5 197.501 199.5 204.75V204.75C199.5 211.999 193.624 217.875 186.375 217.875V217.875C179.126 217.875 173.25 211.999 173.25 204.75V204.75Z" fill="#F3F4F6"/>
<circle cx="186.375" cy="204.75" r="13.125" fill="#F3F4F6"/>
<mask id="mask19_6262_112447" style="mask-type:alpha" maskUnits="userSpaceOnUse" x="173" y="188" width="27" height="30">
<path d="M173.25 188.641H199.5V204.749C199.5 211.998 193.624 217.874 186.375 217.874V217.874C179.126 217.874 173.25 211.998 173.25 204.749V188.641Z" fill="#D9D9D9"/>
</mask>
<g mask="url(#mask19_6262_112447)">
<path fill-rule="evenodd" clip-rule="evenodd" d="M190.656 202.031L189.918 202.695L190.819 203.114C194.771 204.949 197.446 208.897 197.446 213.401C197.446 214.545 196.995 216.384 196.228 217.938C195.846 218.71 195.405 219.372 194.937 219.832C194.467 220.294 194.027 220.499 193.629 220.499H178.721C178.324 220.499 177.884 220.294 177.413 219.832C176.946 219.372 176.505 218.71 176.123 217.938C175.355 216.384 174.905 214.545 174.905 213.401C174.905 208.897 177.579 204.949 181.532 203.114L182.433 202.695L181.695 202.031C180.321 200.795 179.378 199.026 179.378 197.003C179.378 193.191 182.364 190.205 186.175 190.205C189.987 190.205 192.973 193.191 192.973 197.003C192.973 199.026 192.029 200.795 190.656 202.031ZM186.175 191.874C183.279 191.874 181.047 194.106 181.047 197.003C181.047 199.899 183.279 202.131 186.175 202.131C189.072 202.131 191.304 199.899 191.304 197.003C191.304 194.106 189.072 191.874 186.175 191.874ZM178.721 218.83H193.629C193.994 218.83 194.262 218.631 194.427 218.456C194.595 218.278 194.726 218.056 194.831 217.838C195.043 217.399 195.214 216.833 195.348 216.277C195.616 215.167 195.776 213.919 195.776 213.401C195.776 208.119 191.457 203.8 186.175 203.8C180.893 203.8 176.574 208.119 176.574 213.401C176.574 213.919 176.735 215.167 177.003 216.277C177.137 216.833 177.308 217.399 177.52 217.838C177.625 218.056 177.756 218.278 177.924 218.456C178.089 218.631 178.357 218.83 178.721 218.83Z" fill="#004357"/>
</g>
<path d="M210 204.75C210 197.501 215.876 191.625 223.125 191.625V191.625C230.374 191.625 236.25 197.501 236.25 204.75V204.75C236.25 211.999 230.374 217.875 223.125 217.875V217.875C215.876 217.875 210 211.999 210 204.75V204.75Z" fill="#BED73C"/>
<circle cx="223.125" cy="204.75" r="13.125" fill="#BED73C"/>
<mask id="mask20_6262_112447" style="mask-type:alpha" maskUnits="userSpaceOnUse" x="210" y="188" width="27" height="30">
<path d="M210 188.641H236.25V204.749C236.25 211.998 230.374 217.874 223.125 217.874V217.874C215.876 217.874 210 211.998 210 204.749V188.641Z" fill="#D9D9D9"/>
</mask>
<g mask="url(#mask20_6262_112447)">
<path fill-rule="evenodd" clip-rule="evenodd" d="M227.406 202.031L226.668 202.695L227.569 203.114C231.521 204.949 234.196 208.897 234.196 213.401C234.196 214.545 233.745 216.384 232.978 217.938C232.596 218.71 232.155 219.372 231.687 219.832C231.217 220.294 230.777 220.499 230.379 220.499H215.471C215.074 220.499 214.634 220.294 214.163 219.832C213.696 219.372 213.255 218.71 212.873 217.938C212.105 216.384 211.655 214.545 211.655 213.401C211.655 208.897 214.329 204.949 218.282 203.114L219.183 202.695L218.445 202.031C217.071 200.795 216.128 199.026 216.128 197.003C216.128 193.191 219.114 190.205 222.925 190.205C226.737 190.205 229.723 193.191 229.723 197.003C229.723 199.026 228.779 200.795 227.406 202.031ZM222.925 191.874C220.029 191.874 217.797 194.106 217.797 197.003C217.797 199.899 220.029 202.131 222.925 202.131C225.822 202.131 228.054 199.899 228.054 197.003C228.054 194.106 225.822 191.874 222.925 191.874ZM215.471 218.83H230.379C230.744 218.83 231.012 218.631 231.177 218.456C231.345 218.278 231.476 218.056 231.581 217.838C231.793 217.399 231.964 216.833 232.098 216.277C232.366 215.167 232.526 213.919 232.526 213.401C232.526 208.119 228.207 203.8 222.925 203.8C217.643 203.8 213.324 208.119 213.324 213.401C213.324 213.919 213.485 215.167 213.753 216.277C213.887 216.833 214.058 217.399 214.27 217.838C214.375 218.056 214.506 218.278 214.674 218.456C214.839 218.631 215.107 218.83 215.471 218.83Z" fill="#004357"/>
</g>
<path d="M246.75 204.75C246.75 197.501 252.626 191.625 259.875 191.625V191.625C267.124 191.625 273 197.501 273 204.75V204.75C273 211.999 267.124 217.875 259.875 217.875V217.875C252.626 217.875 246.75 211.999 246.75 204.75V204.75Z" fill="#BED73C"/>
<circle cx="259.875" cy="204.75" r="13.125" fill="#BED73C"/>
<mask id="mask21_6262_112447" style="mask-type:alpha" maskUnits="userSpaceOnUse" x="246" y="188" width="27" height="30">
<path d="M246.75 188.641H273V204.749C273 211.998 267.124 217.874 259.875 217.874V217.874C252.626 217.874 246.75 211.998 246.75 204.749V188.641Z" fill="#D9D9D9"/>
</mask>
<g mask="url(#mask21_6262_112447)">
<path fill-rule="evenodd" clip-rule="evenodd" d="M264.156 202.031L263.418 202.695L264.319 203.114C268.271 204.949 270.946 208.897 270.946 213.401C270.946 214.545 270.495 216.384 269.728 217.938C269.346 218.71 268.905 219.372 268.437 219.832C267.967 220.294 267.527 220.499 267.129 220.499H252.221C251.824 220.499 251.384 220.294 250.913 219.832C250.446 219.372 250.005 218.71 249.623 217.938C248.855 216.384 248.405 214.545 248.405 213.401C248.405 208.897 251.079 204.949 255.032 203.114L255.933 202.695L255.195 202.031C253.821 200.795 252.878 199.026 252.878 197.003C252.878 193.191 255.864 190.205 259.675 190.205C263.487 190.205 266.473 193.191 266.473 197.003C266.473 199.026 265.529 200.795 264.156 202.031ZM259.675 191.874C256.779 191.874 254.547 194.106 254.547 197.003C254.547 199.899 256.779 202.131 259.675 202.131C262.572 202.131 264.804 199.899 264.804 197.003C264.804 194.106 262.572 191.874 259.675 191.874ZM252.221 218.83H267.129C267.494 218.83 267.762 218.631 267.927 218.456C268.095 218.278 268.226 218.056 268.331 217.838C268.543 217.399 268.714 216.833 268.848 216.277C269.116 215.167 269.276 213.919 269.276 213.401C269.276 208.119 264.957 203.8 259.675 203.8C254.393 203.8 250.074 208.119 250.074 213.401C250.074 213.919 250.235 215.167 250.503 216.277C250.637 216.833 250.808 217.399 251.02 217.838C251.125 218.056 251.256 218.278 251.424 218.456C251.589 218.631 251.857 218.83 252.221 218.83Z" fill="#004357"/>
</g>
<path d="M283.5 204.75C283.5 197.501 289.376 191.625 296.625 191.625V191.625C303.874 191.625 309.75 197.501 309.75 204.75V204.75C309.75 211.999 303.874 217.875 296.625 217.875V217.875C289.376 217.875 283.5 211.999 283.5 204.75V204.75Z" fill="#BED73C"/>
<circle cx="296.625" cy="204.75" r="13.125" fill="#BED73C"/>
<mask id="mask22_6262_112447" style="mask-type:alpha" maskUnits="userSpaceOnUse" x="283" y="188" width="27" height="30">
<path d="M283.5 188.641H309.75V204.749C309.75 211.998 303.874 217.874 296.625 217.874V217.874C289.376 217.874 283.5 211.998 283.5 204.749V188.641Z" fill="#D9D9D9"/>
</mask>
<g mask="url(#mask22_6262_112447)">
<path fill-rule="evenodd" clip-rule="evenodd" d="M300.906 202.031L300.168 202.695L301.069 203.114C305.021 204.949 307.696 208.897 307.696 213.401C307.696 214.545 307.245 216.384 306.478 217.938C306.096 218.71 305.655 219.372 305.187 219.832C304.717 220.294 304.277 220.499 303.879 220.499H288.971C288.574 220.499 288.134 220.294 287.663 219.832C287.196 219.372 286.755 218.71 286.373 217.938C285.605 216.384 285.155 214.545 285.155 213.401C285.155 208.897 287.829 204.949 291.782 203.114L292.683 202.695L291.945 202.031C290.571 200.795 289.628 199.026 289.628 197.003C289.628 193.191 292.614 190.205 296.425 190.205C300.237 190.205 303.223 193.191 303.223 197.003C303.223 199.026 302.279 200.795 300.906 202.031ZM296.425 191.874C293.529 191.874 291.297 194.106 291.297 197.003C291.297 199.899 293.529 202.131 296.425 202.131C299.322 202.131 301.554 199.899 301.554 197.003C301.554 194.106 299.322 191.874 296.425 191.874ZM288.971 218.83H303.879C304.244 218.83 304.512 218.631 304.677 218.456C304.845 218.278 304.976 218.056 305.081 217.838C305.293 217.399 305.464 216.833 305.598 216.277C305.866 215.167 306.026 213.919 306.026 213.401C306.026 208.119 301.707 203.8 296.425 203.8C291.143 203.8 286.824 208.119 286.824 213.401C286.824 213.919 286.985 215.167 287.253 216.277C287.387 216.833 287.558 217.399 287.77 217.838C287.875 218.056 288.006 218.278 288.174 218.456C288.339 218.631 288.607 218.83 288.971 218.83Z" fill="#004357"/>
</g>
<path d="M320.25 204.75C320.25 197.501 326.126 191.625 333.375 191.625V191.625C340.624 191.625 346.5 197.501 346.5 204.75V204.75C346.5 211.999 340.624 217.875 333.375 217.875V217.875C326.126 217.875 320.25 211.999 320.25 204.75V204.75Z" fill="#BED73C"/>
<circle cx="333.375" cy="204.75" r="13.125" fill="#BED73C"/>
<mask id="mask23_6262_112447" style="mask-type:alpha" maskUnits="userSpaceOnUse" x="320" y="188" width="27" height="30">
<path d="M320.25 188.641H346.5V204.749C346.5 211.998 340.624 217.874 333.375 217.874V217.874C326.126 217.874 320.25 211.998 320.25 204.749V188.641Z" fill="#D9D9D9"/>
</mask>
<g mask="url(#mask23_6262_112447)">
<path fill-rule="evenodd" clip-rule="evenodd" d="M337.656 202.031L336.918 202.695L337.819 203.114C341.771 204.949 344.446 208.897 344.446 213.401C344.446 214.545 343.995 216.384 343.228 217.938C342.846 218.71 342.405 219.372 341.937 219.832C341.467 220.294 341.027 220.499 340.629 220.499H325.721C325.324 220.499 324.884 220.294 324.413 219.832C323.946 219.372 323.505 218.71 323.123 217.938C322.355 216.384 321.905 214.545 321.905 213.401C321.905 208.897 324.579 204.949 328.532 203.114L329.433 202.695L328.695 202.031C327.321 200.795 326.378 199.026 326.378 197.003C326.378 193.191 329.364 190.205 333.175 190.205C336.987 190.205 339.973 193.191 339.973 197.003C339.973 199.026 339.029 200.795 337.656 202.031ZM333.175 191.874C330.279 191.874 328.047 194.106 328.047 197.003C328.047 199.899 330.279 202.131 333.175 202.131C336.072 202.131 338.304 199.899 338.304 197.003C338.304 194.106 336.072 191.874 333.175 191.874ZM325.721 218.83H340.629C340.994 218.83 341.262 218.631 341.427 218.456C341.595 218.278 341.726 218.056 341.831 217.838C342.043 217.399 342.214 216.833 342.348 216.277C342.616 215.167 342.776 213.919 342.776 213.401C342.776 208.119 338.457 203.8 333.175 203.8C327.893 203.8 323.574 208.119 323.574 213.401C323.574 213.919 323.735 215.167 324.003 216.277C324.137 216.833 324.308 217.399 324.52 217.838C324.625 218.056 324.756 218.278 324.924 218.456C325.089 218.631 325.357 218.83 325.721 218.83Z" fill="#004357"/>
</g>
<path d="M357 204.75C357 197.501 362.876 191.625 370.125 191.625V191.625C377.374 191.625 383.25 197.501 383.25 204.75V204.75C383.25 211.999 377.374 217.875 370.125 217.875V217.875C362.876 217.875 357 211.999 357 204.75V204.75Z" fill="#BED73C"/>
<circle cx="370.125" cy="204.75" r="13.125" fill="#BED73C"/>
<mask id="mask24_6262_112447" style="mask-type:alpha" maskUnits="userSpaceOnUse" x="357" y="188" width="27" height="30">
<path d="M357 188.641H383.25V204.749C383.25 211.998 377.374 217.874 370.125 217.874V217.874C362.876 217.874 357 211.998 357 204.749V188.641Z" fill="#D9D9D9"/>
</mask>
<g mask="url(#mask24_6262_112447)">
<path fill-rule="evenodd" clip-rule="evenodd" d="M374.406 202.031L373.668 202.695L374.569 203.114C378.521 204.949 381.196 208.897 381.196 213.401C381.196 214.545 380.745 216.384 379.978 217.938C379.596 218.71 379.155 219.372 378.687 219.832C378.217 220.294 377.777 220.499 377.379 220.499H362.471C362.074 220.499 361.634 220.294 361.163 219.832C360.696 219.372 360.255 218.71 359.873 217.938C359.105 216.384 358.655 214.545 358.655 213.401C358.655 208.897 361.329 204.949 365.282 203.114L366.183 202.695L365.445 202.031C364.071 200.795 363.128 199.026 363.128 197.003C363.128 193.191 366.114 190.205 369.925 190.205C373.737 190.205 376.723 193.191 376.723 197.003C376.723 199.026 375.779 200.795 374.406 202.031ZM369.925 191.874C367.029 191.874 364.797 194.106 364.797 197.003C364.797 199.899 367.029 202.131 369.925 202.131C372.822 202.131 375.054 199.899 375.054 197.003C375.054 194.106 372.822 191.874 369.925 191.874ZM362.471 218.83H377.379C377.744 218.83 378.012 218.631 378.177 218.456C378.345 218.278 378.476 218.056 378.581 217.838C378.793 217.399 378.964 216.833 379.098 216.277C379.366 215.167 379.526 213.919 379.526 213.401C379.526 208.119 375.207 203.8 369.925 203.8C364.643 203.8 360.324 208.119 360.324 213.401C360.324 213.919 360.485 215.167 360.753 216.277C360.887 216.833 361.058 217.399 361.27 217.838C361.375 218.056 361.506 218.278 361.674 218.456C361.839 218.631 362.107 218.83 362.471 218.83Z" fill="#004357"/>
</g>
<path d="M393.75 204.75C393.75 197.501 399.626 191.625 406.875 191.625V191.625C414.124 191.625 420 197.501 420 204.75V204.75C420 211.999 414.124 217.875 406.875 217.875V217.875C399.626 217.875 393.75 211.999 393.75 204.75V204.75Z" fill="#BED73C"/>
<circle cx="406.875" cy="204.75" r="13.125" fill="#BED73C"/>
<mask id="mask25_6262_112447" style="mask-type:alpha" maskUnits="userSpaceOnUse" x="393" y="188" width="27" height="30">
<path d="M393.75 188.641H420V204.749C420 211.998 414.124 217.874 406.875 217.874V217.874C399.626 217.874 393.75 211.998 393.75 204.749V188.641Z" fill="#D9D9D9"/>
</mask>
<g mask="url(#mask25_6262_112447)">
<path fill-rule="evenodd" clip-rule="evenodd" d="M411.156 202.031L410.418 202.695L411.319 203.114C415.271 204.949 417.946 208.897 417.946 213.401C417.946 214.545 417.495 216.384 416.728 217.938C416.346 218.71 415.905 219.372 415.437 219.832C414.967 220.294 414.527 220.499 414.129 220.499H399.221C398.824 220.499 398.384 220.294 397.913 219.832C397.446 219.372 397.005 218.71 396.623 217.938C395.855 216.384 395.405 214.545 395.405 213.401C395.405 208.897 398.079 204.949 402.032 203.114L402.933 202.695L402.195 202.031C400.821 200.795 399.878 199.026 399.878 197.003C399.878 193.191 402.864 190.205 406.675 190.205C410.487 190.205 413.473 193.191 413.473 197.003C413.473 199.026 412.529 200.795 411.156 202.031ZM406.675 191.874C403.779 191.874 401.547 194.106 401.547 197.003C401.547 199.899 403.779 202.131 406.675 202.131C409.572 202.131 411.804 199.899 411.804 197.003C411.804 194.106 409.572 191.874 406.675 191.874ZM399.221 218.83H414.129C414.494 218.83 414.762 218.631 414.927 218.456C415.095 218.278 415.226 218.056 415.331 217.838C415.543 217.399 415.714 216.833 415.848 216.277C416.116 215.167 416.276 213.919 416.276 213.401C416.276 208.119 411.957 203.8 406.675 203.8C401.393 203.8 397.074 208.119 397.074 213.401C397.074 213.919 397.235 215.167 397.503 216.277C397.637 216.833 397.808 217.399 398.02 217.838C398.125 218.056 398.256 218.278 398.424 218.456C398.589 218.631 398.857 218.83 399.221 218.83Z" fill="#004357"/>
</g>
<path d="M136.5 241.5C136.5 234.251 142.376 228.375 149.625 228.375V228.375C156.874 228.375 162.75 234.251 162.75 241.5V241.5C162.75 248.749 156.874 254.625 149.625 254.625V254.625C142.376 254.625 136.5 248.749 136.5 241.5V241.5Z" fill="#F3F4F6"/>
<circle cx="149.625" cy="241.5" r="13.125" fill="#F3F4F6"/>
<mask id="mask26_6262_112447" style="mask-type:alpha" maskUnits="userSpaceOnUse" x="136" y="225" width="27" height="30">
<path d="M136.5 225.391H162.75V241.499C162.75 248.748 156.874 254.624 149.625 254.624V254.624C142.376 254.624 136.5 248.748 136.5 241.499V225.391Z" fill="#D9D9D9"/>
</mask>
<g mask="url(#mask26_6262_112447)">
<path fill-rule="evenodd" clip-rule="evenodd" d="M153.906 238.781L153.168 239.445L154.069 239.864C158.021 241.699 160.696 245.647 160.696 250.151C160.696 251.295 160.245 253.134 159.478 254.688C159.096 255.46 158.655 256.122 158.187 256.582C157.717 257.044 157.277 257.249 156.879 257.249H141.971C141.574 257.249 141.134 257.044 140.663 256.582C140.196 256.122 139.755 255.46 139.373 254.688C138.605 253.134 138.155 251.295 138.155 250.151C138.155 245.647 140.829 241.699 144.782 239.864L145.683 239.445L144.945 238.781C143.571 237.545 142.628 235.776 142.628 233.753C142.628 229.941 145.614 226.955 149.425 226.955C153.237 226.955 156.223 229.941 156.223 233.753C156.223 235.776 155.279 237.545 153.906 238.781ZM149.425 228.624C146.529 228.624 144.297 230.856 144.297 233.753C144.297 236.649 146.529 238.881 149.425 238.881C152.322 238.881 154.554 236.649 154.554 233.753C154.554 230.856 152.322 228.624 149.425 228.624ZM141.971 255.58H156.879C157.244 255.58 157.512 255.381 157.677 255.206C157.845 255.028 157.976 254.806 158.081 254.588C158.293 254.149 158.464 253.583 158.598 253.027C158.866 251.917 159.026 250.669 159.026 250.151C159.026 244.869 154.707 240.55 149.425 240.55C144.143 240.55 139.824 244.869 139.824 250.151C139.824 250.669 139.985 251.917 140.253 253.027C140.387 253.583 140.558 254.149 140.77 254.588C140.875 254.806 141.006 255.028 141.174 255.206C141.339 255.381 141.607 255.58 141.971 255.58Z" fill="#004357"/>
</g>
<path d="M173.25 241.5C173.25 234.251 179.126 228.375 186.375 228.375V228.375C193.624 228.375 199.5 234.251 199.5 241.5V241.5C199.5 248.749 193.624 254.625 186.375 254.625V254.625C179.126 254.625 173.25 248.749 173.25 241.5V241.5Z" fill="#F3F4F6"/>
<circle cx="186.375" cy="241.5" r="13.125" fill="#F3F4F6"/>
<mask id="mask27_6262_112447" style="mask-type:alpha" maskUnits="userSpaceOnUse" x="173" y="225" width="27" height="30">
<path d="M173.25 225.391H199.5V241.499C199.5 248.748 193.624 254.624 186.375 254.624V254.624C179.126 254.624 173.25 248.748 173.25 241.499V225.391Z" fill="#D9D9D9"/>
</mask>
<g mask="url(#mask27_6262_112447)">
<path fill-rule="evenodd" clip-rule="evenodd" d="M190.656 238.781L189.918 239.445L190.819 239.864C194.771 241.699 197.446 245.647 197.446 250.151C197.446 251.295 196.995 253.134 196.228 254.688C195.846 255.46 195.405 256.122 194.937 256.582C194.467 257.044 194.027 257.249 193.629 257.249H178.721C178.324 257.249 177.884 257.044 177.413 256.582C176.946 256.122 176.505 255.46 176.123 254.688C175.355 253.134 174.905 251.295 174.905 250.151C174.905 245.647 177.579 241.699 181.532 239.864L182.433 239.445L181.695 238.781C180.321 237.545 179.378 235.776 179.378 233.753C179.378 229.941 182.364 226.955 186.175 226.955C189.987 226.955 192.973 229.941 192.973 233.753C192.973 235.776 192.029 237.545 190.656 238.781ZM186.175 228.624C183.279 228.624 181.047 230.856 181.047 233.753C181.047 236.649 183.279 238.881 186.175 238.881C189.072 238.881 191.304 236.649 191.304 233.753C191.304 230.856 189.072 228.624 186.175 228.624ZM178.721 255.58H193.629C193.994 255.58 194.262 255.381 194.427 255.206C194.595 255.028 194.726 254.806 194.831 254.588C195.043 254.149 195.214 253.583 195.348 253.027C195.616 251.917 195.776 250.669 195.776 250.151C195.776 244.869 191.457 240.55 186.175 240.55C180.893 240.55 176.574 244.869 176.574 250.151C176.574 250.669 176.735 251.917 177.003 253.027C177.137 253.583 177.308 254.149 177.52 254.588C177.625 254.806 177.756 255.028 177.924 255.206C178.089 255.381 178.357 255.58 178.721 255.58Z" fill="#004357"/>
</g>
<path d="M210 241.5C210 234.251 215.876 228.375 223.125 228.375V228.375C230.374 228.375 236.25 234.251 236.25 241.5V241.5C236.25 248.749 230.374 254.625 223.125 254.625V254.625C215.876 254.625 210 248.749 210 241.5V241.5Z" fill="#F3F4F6"/>
<circle cx="223.125" cy="241.5" r="13.125" fill="#F3F4F6"/>
<mask id="mask28_6262_112447" style="mask-type:alpha" maskUnits="userSpaceOnUse" x="210" y="225" width="27" height="30">
<path d="M210 225.391H236.25V241.499C236.25 248.748 230.374 254.624 223.125 254.624V254.624C215.876 254.624 210 248.748 210 241.499V225.391Z" fill="#D9D9D9"/>
</mask>
<g mask="url(#mask28_6262_112447)">
<path fill-rule="evenodd" clip-rule="evenodd" d="M227.406 238.781L226.668 239.445L227.569 239.864C231.521 241.699 234.196 245.647 234.196 250.151C234.196 251.295 233.745 253.134 232.978 254.688C232.596 255.46 232.155 256.122 231.687 256.582C231.217 257.044 230.777 257.249 230.379 257.249H215.471C215.074 257.249 214.634 257.044 214.163 256.582C213.696 256.122 213.255 255.46 212.873 254.688C212.105 253.134 211.655 251.295 211.655 250.151C211.655 245.647 214.329 241.699 218.282 239.864L219.183 239.445L218.445 238.781C217.071 237.545 216.128 235.776 216.128 233.753C216.128 229.941 219.114 226.955 222.925 226.955C226.737 226.955 229.723 229.941 229.723 233.753C229.723 235.776 228.779 237.545 227.406 238.781ZM222.925 228.624C220.029 228.624 217.797 230.856 217.797 233.753C217.797 236.649 220.029 238.881 222.925 238.881C225.822 238.881 228.054 236.649 228.054 233.753C228.054 230.856 225.822 228.624 222.925 228.624ZM215.471 255.58H230.379C230.744 255.58 231.012 255.381 231.177 255.206C231.345 255.028 231.476 254.806 231.581 254.588C231.793 254.149 231.964 253.583 232.098 253.027C232.366 251.917 232.526 250.669 232.526 250.151C232.526 244.869 228.207 240.55 222.925 240.55C217.643 240.55 213.324 244.869 213.324 250.151C213.324 250.669 213.485 251.917 213.753 253.027C213.887 253.583 214.058 254.149 214.27 254.588C214.375 254.806 214.506 255.028 214.674 255.206C214.839 255.381 215.107 255.58 215.471 255.58Z" fill="#004357"/>
</g>
<path d="M246.75 241.5C246.75 234.251 252.626 228.375 259.875 228.375V228.375C267.124 228.375 273 234.251 273 241.5V241.5C273 248.749 267.124 254.625 259.875 254.625V254.625C252.626 254.625 246.75 248.749 246.75 241.5V241.5Z" fill="#F3F4F6"/>
<circle cx="259.875" cy="241.5" r="13.125" fill="#F3F4F6"/>
<mask id="mask29_6262_112447" style="mask-type:alpha" maskUnits="userSpaceOnUse" x="246" y="225" width="27" height="30">
<path d="M246.75 225.391H273V241.499C273 248.748 267.124 254.624 259.875 254.624V254.624C252.626 254.624 246.75 248.748 246.75 241.499V225.391Z" fill="#D9D9D9"/>
</mask>
<g mask="url(#mask29_6262_112447)">
<path fill-rule="evenodd" clip-rule="evenodd" d="M264.156 238.781L263.418 239.445L264.319 239.864C268.271 241.699 270.946 245.647 270.946 250.151C270.946 251.295 270.495 253.134 269.728 254.688C269.346 255.46 268.905 256.122 268.437 256.582C267.967 257.044 267.527 257.249 267.129 257.249H252.221C251.824 257.249 251.384 257.044 250.913 256.582C250.446 256.122 250.005 255.46 249.623 254.688C248.855 253.134 248.405 251.295 248.405 250.151C248.405 245.647 251.079 241.699 255.032 239.864L255.933 239.445L255.195 238.781C253.821 237.545 252.878 235.776 252.878 233.753C252.878 229.941 255.864 226.955 259.675 226.955C263.487 226.955 266.473 229.941 266.473 233.753C266.473 235.776 265.529 237.545 264.156 238.781ZM259.675 228.624C256.779 228.624 254.547 230.856 254.547 233.753C254.547 236.649 256.779 238.881 259.675 238.881C262.572 238.881 264.804 236.649 264.804 233.753C264.804 230.856 262.572 228.624 259.675 228.624ZM252.221 255.58H267.129C267.494 255.58 267.762 255.381 267.927 255.206C268.095 255.028 268.226 254.806 268.331 254.588C268.543 254.149 268.714 253.583 268.848 253.027C269.116 251.917 269.276 250.669 269.276 250.151C269.276 244.869 264.957 240.55 259.675 240.55C254.393 240.55 250.074 244.869 250.074 250.151C250.074 250.669 250.235 251.917 250.503 253.027C250.637 253.583 250.808 254.149 251.02 254.588C251.125 254.806 251.256 255.028 251.424 255.206C251.589 255.381 251.857 255.58 252.221 255.58Z" fill="#004357"/>
</g>
<path d="M283.5 241.5C283.5 234.251 289.376 228.375 296.625 228.375V228.375C303.874 228.375 309.75 234.251 309.75 241.5V241.5C309.75 248.749 303.874 254.625 296.625 254.625V254.625C289.376 254.625 283.5 248.749 283.5 241.5V241.5Z" fill="#F3F4F6"/>
<circle cx="296.625" cy="241.5" r="13.125" fill="#F3F4F6"/>
<mask id="mask30_6262_112447" style="mask-type:alpha" maskUnits="userSpaceOnUse" x="283" y="225" width="27" height="30">
<path d="M283.5 225.391H309.75V241.499C309.75 248.748 303.874 254.624 296.625 254.624V254.624C289.376 254.624 283.5 248.748 283.5 241.499V225.391Z" fill="#D9D9D9"/>
</mask>
<g mask="url(#mask30_6262_112447)">
<path fill-rule="evenodd" clip-rule="evenodd" d="M300.906 238.781L300.168 239.445L301.069 239.864C305.021 241.699 307.696 245.647 307.696 250.151C307.696 251.295 307.245 253.134 306.478 254.688C306.096 255.46 305.655 256.122 305.187 256.582C304.717 257.044 304.277 257.249 303.879 257.249H288.971C288.574 257.249 288.134 257.044 287.663 256.582C287.196 256.122 286.755 255.46 286.373 254.688C285.605 253.134 285.155 251.295 285.155 250.151C285.155 245.647 287.829 241.699 291.782 239.864L292.683 239.445L291.945 238.781C290.571 237.545 289.628 235.776 289.628 233.753C289.628 229.941 292.614 226.955 296.425 226.955C300.237 226.955 303.223 229.941 303.223 233.753C303.223 235.776 302.279 237.545 300.906 238.781ZM296.425 228.624C293.529 228.624 291.297 230.856 291.297 233.753C291.297 236.649 293.529 238.881 296.425 238.881C299.322 238.881 301.554 236.649 301.554 233.753C301.554 230.856 299.322 228.624 296.425 228.624ZM288.971 255.58H303.879C304.244 255.58 304.512 255.381 304.677 255.206C304.845 255.028 304.976 254.806 305.081 254.588C305.293 254.149 305.464 253.583 305.598 253.027C305.866 251.917 306.026 250.669 306.026 250.151C306.026 244.869 301.707 240.55 296.425 240.55C291.143 240.55 286.824 244.869 286.824 250.151C286.824 250.669 286.985 251.917 287.253 253.027C287.387 253.583 287.558 254.149 287.77 254.588C287.875 254.806 288.006 255.028 288.174 255.206C288.339 255.381 288.607 255.58 288.971 255.58Z" fill="#004357"/>
</g>
<path d="M320.25 241.5C320.25 234.251 326.126 228.375 333.375 228.375V228.375C340.624 228.375 346.5 234.251 346.5 241.5V241.5C346.5 248.749 340.624 254.625 333.375 254.625V254.625C326.126 254.625 320.25 248.749 320.25 241.5V241.5Z" fill="#F3F4F6"/>
<circle cx="333.375" cy="241.5" r="13.125" fill="#F3F4F6"/>
<mask id="mask31_6262_112447" style="mask-type:alpha" maskUnits="userSpaceOnUse" x="320" y="225" width="27" height="30">
<path d="M320.25 225.391H346.5V241.499C346.5 248.748 340.624 254.624 333.375 254.624V254.624C326.126 254.624 320.25 248.748 320.25 241.499V225.391Z" fill="#D9D9D9"/>
</mask>
<g mask="url(#mask31_6262_112447)">
<path fill-rule="evenodd" clip-rule="evenodd" d="M337.656 238.781L336.918 239.445L337.819 239.864C341.771 241.699 344.446 245.647 344.446 250.151C344.446 251.295 343.995 253.134 343.228 254.688C342.846 255.46 342.405 256.122 341.937 256.582C341.467 257.044 341.027 257.249 340.629 257.249H325.721C325.324 257.249 324.884 257.044 324.413 256.582C323.946 256.122 323.505 255.46 323.123 254.688C322.355 253.134 321.905 251.295 321.905 250.151C321.905 245.647 324.579 241.699 328.532 239.864L329.433 239.445L328.695 238.781C327.321 237.545 326.378 235.776 326.378 233.753C326.378 229.941 329.364 226.955 333.175 226.955C336.987 226.955 339.973 229.941 339.973 233.753C339.973 235.776 339.029 237.545 337.656 238.781ZM333.175 228.624C330.279 228.624 328.047 230.856 328.047 233.753C328.047 236.649 330.279 238.881 333.175 238.881C336.072 238.881 338.304 236.649 338.304 233.753C338.304 230.856 336.072 228.624 333.175 228.624ZM325.721 255.58H340.629C340.994 255.58 341.262 255.381 341.427 255.206C341.595 255.028 341.726 254.806 341.831 254.588C342.043 254.149 342.214 253.583 342.348 253.027C342.616 251.917 342.776 250.669 342.776 250.151C342.776 244.869 338.457 240.55 333.175 240.55C327.893 240.55 323.574 244.869 323.574 250.151C323.574 250.669 323.735 251.917 324.003 253.027C324.137 253.583 324.308 254.149 324.52 254.588C324.625 254.806 324.756 255.028 324.924 255.206C325.089 255.381 325.357 255.58 325.721 255.58Z" fill="#004357"/>
</g>
<path d="M357 241.5C357 234.251 362.876 228.375 370.125 228.375V228.375C377.374 228.375 383.25 234.251 383.25 241.5V241.5C383.25 248.749 377.374 254.625 370.125 254.625V254.625C362.876 254.625 357 248.749 357 241.5V241.5Z" fill="#F3F4F6"/>
<circle cx="370.125" cy="241.5" r="13.125" fill="#F3F4F6"/>
<mask id="mask32_6262_112447" style="mask-type:alpha" maskUnits="userSpaceOnUse" x="357" y="225" width="27" height="30">
<path d="M357 225.391H383.25V241.499C383.25 248.748 377.374 254.624 370.125 254.624V254.624C362.876 254.624 357 248.748 357 241.499V225.391Z" fill="#D9D9D9"/>
</mask>
<g mask="url(#mask32_6262_112447)">
<path fill-rule="evenodd" clip-rule="evenodd" d="M374.406 238.781L373.668 239.445L374.569 239.864C378.521 241.699 381.196 245.647 381.196 250.151C381.196 251.295 380.745 253.134 379.978 254.688C379.596 255.46 379.155 256.122 378.687 256.582C378.217 257.044 377.777 257.249 377.379 257.249H362.471C362.074 257.249 361.634 257.044 361.163 256.582C360.696 256.122 360.255 255.46 359.873 254.688C359.105 253.134 358.655 251.295 358.655 250.151C358.655 245.647 361.329 241.699 365.282 239.864L366.183 239.445L365.445 238.781C364.071 237.545 363.128 235.776 363.128 233.753C363.128 229.941 366.114 226.955 369.925 226.955C373.737 226.955 376.723 229.941 376.723 233.753C376.723 235.776 375.779 237.545 374.406 238.781ZM369.925 228.624C367.029 228.624 364.797 230.856 364.797 233.753C364.797 236.649 367.029 238.881 369.925 238.881C372.822 238.881 375.054 236.649 375.054 233.753C375.054 230.856 372.822 228.624 369.925 228.624ZM362.471 255.58H377.379C377.744 255.58 378.012 255.381 378.177 255.206C378.345 255.028 378.476 254.806 378.581 254.588C378.793 254.149 378.964 253.583 379.098 253.027C379.366 251.917 379.526 250.669 379.526 250.151C379.526 244.869 375.207 240.55 369.925 240.55C364.643 240.55 360.324 244.869 360.324 250.151C360.324 250.669 360.485 251.917 360.753 253.027C360.887 253.583 361.058 254.149 361.27 254.588C361.375 254.806 361.506 255.028 361.674 255.206C361.839 255.381 362.107 255.58 362.471 255.58Z" fill="#004357"/>
</g>
<path d="M393.75 241.5C393.75 234.251 399.626 228.375 406.875 228.375V228.375C414.124 228.375 420 234.251 420 241.5V241.5C420 248.749 414.124 254.625 406.875 254.625V254.625C399.626 254.625 393.75 248.749 393.75 241.5V241.5Z" fill="#F3F4F6"/>
<circle cx="406.875" cy="241.5" r="13.125" fill="#F3F4F6"/>
<mask id="mask33_6262_112447" style="mask-type:alpha" maskUnits="userSpaceOnUse" x="393" y="225" width="27" height="30">
<path d="M393.75 225.391H420V241.499C420 248.748 414.124 254.624 406.875 254.624V254.624C399.626 254.624 393.75 248.748 393.75 241.499V225.391Z" fill="#D9D9D9"/>
</mask>
<g mask="url(#mask33_6262_112447)">
<path fill-rule="evenodd" clip-rule="evenodd" d="M411.156 238.781L410.418 239.445L411.319 239.864C415.271 241.699 417.946 245.647 417.946 250.151C417.946 251.295 417.495 253.134 416.728 254.688C416.346 255.46 415.905 256.122 415.437 256.582C414.967 257.044 414.527 257.249 414.129 257.249H399.221C398.824 257.249 398.384 257.044 397.913 256.582C397.446 256.122 397.005 255.46 396.623 254.688C395.855 253.134 395.405 251.295 395.405 250.151C395.405 245.647 398.079 241.699 402.032 239.864L402.933 239.445L402.195 238.781C400.821 237.545 399.878 235.776 399.878 233.753C399.878 229.941 402.864 226.955 406.675 226.955C410.487 226.955 413.473 229.941 413.473 233.753C413.473 235.776 412.529 237.545 411.156 238.781ZM406.675 228.624C403.779 228.624 401.547 230.856 401.547 233.753C401.547 236.649 403.779 238.881 406.675 238.881C409.572 238.881 411.804 236.649 411.804 233.753C411.804 230.856 409.572 228.624 406.675 228.624ZM399.221 255.58H414.129C414.494 255.58 414.762 255.381 414.927 255.206C415.095 255.028 415.226 254.806 415.331 254.588C415.543 254.149 415.714 253.583 415.848 253.027C416.116 251.917 416.276 250.669 416.276 250.151C416.276 244.869 411.957 240.55 406.675 240.55C401.393 240.55 397.074 244.869 397.074 250.151C397.074 250.669 397.235 251.917 397.503 253.027C397.637 253.583 397.808 254.149 398.02 254.588C398.125 254.806 398.256 255.028 398.424 255.206C398.589 255.381 398.857 255.58 399.221 255.58Z" fill="#004357"/>
</g>
<path d="M323.67 180.611C323.984 180.793 324.386 180.686 324.567 180.372L327.528 175.262C327.71 174.949 327.603 174.547 327.29 174.365C326.976 174.184 326.575 174.291 326.393 174.604L323.761 179.147L319.218 176.514C318.905 176.333 318.503 176.44 318.321 176.753C318.14 177.067 318.247 177.468 318.56 177.65L323.67 180.611ZM286.195 157.538C295.028 155.68 303.05 156.621 309.48 160.357C315.905 164.09 320.821 170.659 323.365 180.212L324.634 179.875C322.018 170.05 316.918 163.161 310.14 159.222C303.367 155.288 294.999 154.345 285.924 156.254L286.195 157.538Z" fill="#004357"/>
</svg>
