<svg width="424" height="255" viewBox="0 0 424 255" fill="none" xmlns="http://www.w3.org/2000/svg">
<path d="M0.65625 64.3125C0.65625 57.0638 6.53251 51.1875 13.7812 51.1875V51.1875C21.03 51.1875 26.9062 57.0638 26.9062 64.3125V64.3125C26.9062 71.5612 21.03 77.4375 13.7812 77.4375V77.4375C6.53251 77.4375 0.65625 71.5612 0.65625 64.3125V64.3125Z" fill="#BED73C"/>
<circle cx="13.7812" cy="64.3125" r="13.125" fill="#BED73C"/>
<mask id="mask0_6262_106607" style="mask-type:alpha" maskUnits="userSpaceOnUse" x="0" y="48" width="27" height="30">
<path d="M0.65625 48.2036H26.9062V64.3117C26.9062 71.5604 21.03 77.4367 13.7812 77.4367V77.4367C6.53251 77.4367 0.65625 71.5604 0.65625 64.3117V48.2036Z" fill="#D9D9D9"/>
</mask>
<g mask="url(#mask0_6262_106607)">
<path fill-rule="evenodd" clip-rule="evenodd" d="M18.0623 61.5932L17.3238 62.2579L18.2249 62.6762C22.1777 64.5114 24.8518 68.4598 24.8518 72.9638C24.8518 74.1077 24.4016 75.9466 23.6339 77.5003C23.2524 78.2723 22.8114 78.9345 22.3436 79.3943C21.8731 79.8568 21.4328 80.0612 21.0356 80.0612H6.12766C5.73049 80.0612 5.29018 79.8568 4.8197 79.3943C4.3519 78.9345 3.9109 78.2723 3.52943 77.5003C2.76167 75.9466 2.31152 74.1077 2.31152 72.9638C2.31152 68.4598 4.98562 64.5114 8.93837 62.6762L9.8395 62.2579L9.10103 61.5932C7.72755 60.3571 6.78391 58.5888 6.78391 56.5651C6.78391 52.7533 9.76985 49.7673 13.5816 49.7673C17.3934 49.7673 20.3794 52.7533 20.3794 56.5651C20.3794 58.5888 19.4357 60.3571 18.0623 61.5932ZM13.5816 51.4364C10.6849 51.4364 8.45301 53.6683 8.45301 56.5651C8.45301 59.4619 10.6849 61.6937 13.5816 61.6937C16.4784 61.6937 18.7103 59.4619 18.7103 56.5651C18.7103 53.6683 16.4784 51.4364 13.5816 51.4364ZM6.12766 78.3921H21.0356C21.4004 78.3921 21.6681 78.1931 21.8333 78.0184C22.0012 77.8409 22.1325 77.6183 22.2372 77.4006C22.4488 76.9611 22.6201 76.396 22.7544 75.8392C23.0221 74.7297 23.1827 73.4816 23.1827 72.9638C23.1827 67.6818 18.8637 63.3628 13.5816 63.3628C8.29958 63.3628 3.98062 67.6818 3.98062 72.9638C3.98062 73.4816 4.14117 74.7297 4.40889 75.8392C4.54324 76.396 4.7145 76.9611 4.92604 77.4006C5.03079 77.6183 5.16214 77.8409 5.32996 78.0184C5.49516 78.1931 5.76293 78.3921 6.12766 78.3921Z" fill="#004357"/>
</g>
<path d="M37.4062 64.3125C37.4062 57.0638 43.2825 51.1875 50.5312 51.1875V51.1875C57.78 51.1875 63.6562 57.0638 63.6562 64.3125V64.3125C63.6562 71.5612 57.78 77.4375 50.5312 77.4375V77.4375C43.2825 77.4375 37.4062 71.5612 37.4062 64.3125V64.3125Z" fill="#BED73C"/>
<circle cx="50.5312" cy="64.3125" r="13.125" fill="#BED73C"/>
<mask id="mask1_6262_106607" style="mask-type:alpha" maskUnits="userSpaceOnUse" x="37" y="48" width="27" height="30">
<path d="M37.4062 48.2036H63.6562V64.3117C63.6562 71.5604 57.78 77.4367 50.5312 77.4367V77.4367C43.2825 77.4367 37.4062 71.5604 37.4062 64.3117V48.2036Z" fill="#D9D9D9"/>
</mask>
<g mask="url(#mask1_6262_106607)">
<path fill-rule="evenodd" clip-rule="evenodd" d="M54.8123 61.5932L54.0738 62.2579L54.9749 62.6762C58.9277 64.5114 61.6018 68.4598 61.6018 72.9638C61.6018 74.1077 61.1516 75.9466 60.3839 77.5003C60.0024 78.2723 59.5614 78.9345 59.0936 79.3943C58.6231 79.8568 58.1828 80.0612 57.7856 80.0612H42.8777C42.4805 80.0612 42.0402 79.8568 41.5697 79.3943C41.1019 78.9345 40.6609 78.2723 40.2794 77.5003C39.5117 75.9466 39.0615 74.1077 39.0615 72.9638C39.0615 68.4598 41.7356 64.5114 45.6884 62.6762L46.5895 62.2579L45.851 61.5932C44.4776 60.3571 43.5339 58.5888 43.5339 56.5651C43.5339 52.7533 46.5199 49.7673 50.3316 49.7673C54.1434 49.7673 57.1294 52.7533 57.1294 56.5651C57.1294 58.5888 56.1857 60.3571 54.8123 61.5932ZM50.3316 51.4364C47.4349 51.4364 45.203 53.6683 45.203 56.5651C45.203 59.4619 47.4349 61.6937 50.3316 61.6937C53.2284 61.6937 55.4603 59.4619 55.4603 56.5651C55.4603 53.6683 53.2284 51.4364 50.3316 51.4364ZM42.8777 78.3921H57.7856C58.1504 78.3921 58.4181 78.1931 58.5833 78.0184C58.7512 77.8409 58.8825 77.6183 58.9872 77.4006C59.1988 76.9611 59.3701 76.396 59.5044 75.8392C59.7721 74.7297 59.9327 73.4816 59.9327 72.9638C59.9327 67.6818 55.6137 63.3628 50.3316 63.3628C45.0496 63.3628 40.7306 67.6818 40.7306 72.9638C40.7306 73.4816 40.8912 74.7297 41.1589 75.8392C41.2932 76.396 41.4645 76.9611 41.676 77.4006C41.7808 77.6183 41.9121 77.8409 42.08 78.0184C42.2452 78.1931 42.5129 78.3921 42.8777 78.3921Z" fill="#004357"/>
</g>
<path d="M74.1562 64.3125C74.1562 57.0638 80.0325 51.1875 87.2812 51.1875V51.1875C94.53 51.1875 100.406 57.0638 100.406 64.3125V64.3125C100.406 71.5612 94.53 77.4375 87.2812 77.4375V77.4375C80.0325 77.4375 74.1562 71.5612 74.1562 64.3125V64.3125Z" fill="#BED73C"/>
<circle cx="87.2812" cy="64.3125" r="13.125" fill="#BED73C"/>
<mask id="mask2_6262_106607" style="mask-type:alpha" maskUnits="userSpaceOnUse" x="74" y="48" width="27" height="30">
<path d="M74.1562 48.2036H100.406V64.3117C100.406 71.5604 94.53 77.4367 87.2812 77.4367V77.4367C80.0325 77.4367 74.1562 71.5604 74.1562 64.3117V48.2036Z" fill="#D9D9D9"/>
</mask>
<g mask="url(#mask2_6262_106607)">
<path fill-rule="evenodd" clip-rule="evenodd" d="M91.5623 61.5932L90.8238 62.2579L91.7249 62.6762C95.6777 64.5114 98.3518 68.4598 98.3518 72.9638C98.3518 74.1077 97.9016 75.9466 97.1339 77.5003C96.7524 78.2723 96.3114 78.9345 95.8436 79.3943C95.3731 79.8568 94.9328 80.0612 94.5356 80.0612H79.6277C79.2305 80.0612 78.7902 79.8568 78.3197 79.3943C77.8519 78.9345 77.4109 78.2723 77.0294 77.5003C76.2617 75.9466 75.8115 74.1077 75.8115 72.9638C75.8115 68.4598 78.4856 64.5114 82.4384 62.6762L83.3395 62.2579L82.601 61.5932C81.2276 60.3571 80.2839 58.5888 80.2839 56.5651C80.2839 52.7533 83.2699 49.7673 87.0816 49.7673C90.8934 49.7673 93.8794 52.7533 93.8794 56.5651C93.8794 58.5888 92.9357 60.3571 91.5623 61.5932ZM87.0816 51.4364C84.1849 51.4364 81.953 53.6683 81.953 56.5651C81.953 59.4619 84.1849 61.6937 87.0816 61.6937C89.9784 61.6937 92.2103 59.4619 92.2103 56.5651C92.2103 53.6683 89.9784 51.4364 87.0816 51.4364ZM79.6277 78.3921H94.5356C94.9004 78.3921 95.1681 78.1931 95.3333 78.0184C95.5012 77.8409 95.6325 77.6183 95.7372 77.4006C95.9488 76.9611 96.1201 76.396 96.2544 75.8392C96.5221 74.7297 96.6827 73.4816 96.6827 72.9638C96.6827 67.6818 92.3637 63.3628 87.0816 63.3628C81.7996 63.3628 77.4806 67.6818 77.4806 72.9638C77.4806 73.4816 77.6412 74.7297 77.9089 75.8392C78.0432 76.396 78.2145 76.9611 78.426 77.4006C78.5308 77.6183 78.6621 77.8409 78.83 78.0184C78.9952 78.1931 79.2629 78.3921 79.6277 78.3921Z" fill="#004357"/>
</g>
<path d="M110.906 64.3125C110.906 57.0638 116.783 51.1875 124.031 51.1875V51.1875C131.28 51.1875 137.156 57.0638 137.156 64.3125V64.3125C137.156 71.5612 131.28 77.4375 124.031 77.4375V77.4375C116.783 77.4375 110.906 71.5612 110.906 64.3125V64.3125Z" fill="#BED73C"/>
<circle cx="124.031" cy="64.3125" r="13.125" fill="#BED73C"/>
<mask id="mask3_6262_106607" style="mask-type:alpha" maskUnits="userSpaceOnUse" x="110" y="48" width="28" height="30">
<path d="M110.906 48.2036H137.156V64.3117C137.156 71.5604 131.28 77.4367 124.031 77.4367V77.4367C116.783 77.4367 110.906 71.5604 110.906 64.3117V48.2036Z" fill="#D9D9D9"/>
</mask>
<g mask="url(#mask3_6262_106607)">
<path fill-rule="evenodd" clip-rule="evenodd" d="M128.312 61.5932L127.574 62.2579L128.475 62.6762C132.428 64.5114 135.102 68.4598 135.102 72.9638C135.102 74.1077 134.652 75.9466 133.884 77.5003C133.502 78.2723 133.061 78.9345 132.594 79.3943C132.123 79.8568 131.683 80.0612 131.286 80.0612H116.378C115.98 80.0612 115.54 79.8568 115.07 79.3943C114.602 78.9345 114.161 78.2723 113.779 77.5003C113.012 75.9466 112.562 74.1077 112.562 72.9638C112.562 68.4598 115.236 64.5114 119.188 62.6762L120.09 62.2579L119.351 61.5932C117.978 60.3571 117.034 58.5888 117.034 56.5651C117.034 52.7533 120.02 49.7673 123.832 49.7673C127.643 49.7673 130.629 52.7533 130.629 56.5651C130.629 58.5888 129.686 60.3571 128.312 61.5932ZM123.832 51.4364C120.935 51.4364 118.703 53.6683 118.703 56.5651C118.703 59.4619 120.935 61.6937 123.832 61.6937C126.728 61.6937 128.96 59.4619 128.96 56.5651C128.96 53.6683 126.728 51.4364 123.832 51.4364ZM116.378 78.3921H131.286C131.65 78.3921 131.918 78.1931 132.083 78.0184C132.251 77.8409 132.382 77.6183 132.487 77.4006C132.699 76.9611 132.87 76.396 133.004 75.8392C133.272 74.7297 133.433 73.4816 133.433 72.9638C133.433 67.6818 129.114 63.3628 123.832 63.3628C118.55 63.3628 114.231 67.6818 114.231 72.9638C114.231 73.4816 114.391 74.7297 114.659 75.8392C114.793 76.396 114.964 76.9611 115.176 77.4006C115.281 77.6183 115.412 77.8409 115.58 78.0184C115.745 78.1931 116.013 78.3921 116.378 78.3921Z" fill="#004357"/>
</g>
<path d="M147.656 64.3125C147.656 57.0638 153.533 51.1875 160.781 51.1875V51.1875C168.03 51.1875 173.906 57.0638 173.906 64.3125V64.3125C173.906 71.5612 168.03 77.4375 160.781 77.4375V77.4375C153.533 77.4375 147.656 71.5612 147.656 64.3125V64.3125Z" fill="#BED73C"/>
<circle cx="160.781" cy="64.3125" r="13.125" fill="#BED73C"/>
<mask id="mask4_6262_106607" style="mask-type:alpha" maskUnits="userSpaceOnUse" x="147" y="48" width="27" height="30">
<path d="M147.656 48.2036H173.906V64.3117C173.906 71.5604 168.03 77.4367 160.781 77.4367V77.4367C153.533 77.4367 147.656 71.5604 147.656 64.3117V48.2036Z" fill="#D9D9D9"/>
</mask>
<g mask="url(#mask4_6262_106607)">
<path fill-rule="evenodd" clip-rule="evenodd" d="M165.062 61.5932L164.324 62.2579L165.225 62.6762C169.178 64.5114 171.852 68.4598 171.852 72.9638C171.852 74.1077 171.402 75.9466 170.634 77.5003C170.252 78.2723 169.811 78.9345 169.344 79.3943C168.873 79.8568 168.433 80.0612 168.036 80.0612H153.128C152.73 80.0612 152.29 79.8568 151.82 79.3943C151.352 78.9345 150.911 78.2723 150.529 77.5003C149.762 75.9466 149.312 74.1077 149.312 72.9638C149.312 68.4598 151.986 64.5114 155.938 62.6762L156.84 62.2579L156.101 61.5932C154.728 60.3571 153.784 58.5888 153.784 56.5651C153.784 52.7533 156.77 49.7673 160.582 49.7673C164.393 49.7673 167.379 52.7533 167.379 56.5651C167.379 58.5888 166.436 60.3571 165.062 61.5932ZM160.582 51.4364C157.685 51.4364 155.453 53.6683 155.453 56.5651C155.453 59.4619 157.685 61.6937 160.582 61.6937C163.478 61.6937 165.71 59.4619 165.71 56.5651C165.71 53.6683 163.478 51.4364 160.582 51.4364ZM153.128 78.3921H168.036C168.4 78.3921 168.668 78.1931 168.833 78.0184C169.001 77.8409 169.132 77.6183 169.237 77.4006C169.449 76.9611 169.62 76.396 169.754 75.8392C170.022 74.7297 170.183 73.4816 170.183 72.9638C170.183 67.6818 165.864 63.3628 160.582 63.3628C155.3 63.3628 150.981 67.6818 150.981 72.9638C150.981 73.4816 151.141 74.7297 151.409 75.8392C151.543 76.396 151.714 76.9611 151.926 77.4006C152.031 77.6183 152.162 77.8409 152.33 78.0184C152.495 78.1931 152.763 78.3921 153.128 78.3921Z" fill="#004357"/>
</g>
<path d="M184.406 64.3125C184.406 57.0638 190.283 51.1875 197.531 51.1875V51.1875C204.78 51.1875 210.656 57.0638 210.656 64.3125V64.3125C210.656 71.5612 204.78 77.4375 197.531 77.4375V77.4375C190.283 77.4375 184.406 71.5612 184.406 64.3125V64.3125Z" fill="#F3F4F6"/>
<circle cx="197.531" cy="64.3125" r="13.125" fill="#F3F4F6"/>
<mask id="mask5_6262_106607" style="mask-type:alpha" maskUnits="userSpaceOnUse" x="184" y="48" width="27" height="30">
<path d="M184.406 48.2036H210.656V64.3117C210.656 71.5604 204.78 77.4367 197.531 77.4367V77.4367C190.283 77.4367 184.406 71.5604 184.406 64.3117V48.2036Z" fill="#D9D9D9"/>
</mask>
<g mask="url(#mask5_6262_106607)">
<path fill-rule="evenodd" clip-rule="evenodd" d="M201.812 61.5932L201.074 62.2579L201.975 62.6762C205.928 64.5114 208.602 68.4598 208.602 72.9638C208.602 74.1077 208.152 75.9466 207.384 77.5003C207.002 78.2723 206.561 78.9345 206.094 79.3943C205.623 79.8568 205.183 80.0612 204.786 80.0612H189.878C189.48 80.0612 189.04 79.8568 188.57 79.3943C188.102 78.9345 187.661 78.2723 187.279 77.5003C186.512 75.9466 186.062 74.1077 186.062 72.9638C186.062 68.4598 188.736 64.5114 192.688 62.6762L193.59 62.2579L192.851 61.5932C191.478 60.3571 190.534 58.5888 190.534 56.5651C190.534 52.7533 193.52 49.7673 197.332 49.7673C201.143 49.7673 204.129 52.7533 204.129 56.5651C204.129 58.5888 203.186 60.3571 201.812 61.5932ZM197.332 51.4364C194.435 51.4364 192.203 53.6683 192.203 56.5651C192.203 59.4619 194.435 61.6937 197.332 61.6937C200.228 61.6937 202.46 59.4619 202.46 56.5651C202.46 53.6683 200.228 51.4364 197.332 51.4364ZM189.878 78.3921H204.786C205.15 78.3921 205.418 78.1931 205.583 78.0184C205.751 77.8409 205.882 77.6183 205.987 77.4006C206.199 76.9611 206.37 76.396 206.504 75.8392C206.772 74.7297 206.933 73.4816 206.933 72.9638C206.933 67.6818 202.614 63.3628 197.332 63.3628C192.05 63.3628 187.731 67.6818 187.731 72.9638C187.731 73.4816 187.891 74.7297 188.159 75.8392C188.293 76.396 188.464 76.9611 188.676 77.4006C188.781 77.6183 188.912 77.8409 189.08 78.0184C189.245 78.1931 189.513 78.3921 189.878 78.3921Z" fill="#004357"/>
</g>
<path d="M221.156 64.3125C221.156 57.0638 227.033 51.1875 234.281 51.1875V51.1875C241.53 51.1875 247.406 57.0638 247.406 64.3125V64.3125C247.406 71.5612 241.53 77.4375 234.281 77.4375V77.4375C227.033 77.4375 221.156 71.5612 221.156 64.3125V64.3125Z" fill="#F3F4F6"/>
<circle cx="234.281" cy="64.3125" r="13.125" fill="#F3F4F6"/>
<mask id="mask6_6262_106607" style="mask-type:alpha" maskUnits="userSpaceOnUse" x="221" y="48" width="27" height="30">
<path d="M221.156 48.2036H247.406V64.3117C247.406 71.5604 241.53 77.4367 234.281 77.4367V77.4367C227.033 77.4367 221.156 71.5604 221.156 64.3117V48.2036Z" fill="#D9D9D9"/>
</mask>
<g mask="url(#mask6_6262_106607)">
<path fill-rule="evenodd" clip-rule="evenodd" d="M238.562 61.5932L237.824 62.2579L238.725 62.6762C242.678 64.5114 245.352 68.4598 245.352 72.9638C245.352 74.1077 244.902 75.9466 244.134 77.5003C243.752 78.2723 243.311 78.9345 242.844 79.3943C242.373 79.8568 241.933 80.0612 241.536 80.0612H226.628C226.23 80.0612 225.79 79.8568 225.32 79.3943C224.852 78.9345 224.411 78.2723 224.029 77.5003C223.262 75.9466 222.812 74.1077 222.812 72.9638C222.812 68.4598 225.486 64.5114 229.438 62.6762L230.34 62.2579L229.601 61.5932C228.228 60.3571 227.284 58.5888 227.284 56.5651C227.284 52.7533 230.27 49.7673 234.082 49.7673C237.893 49.7673 240.879 52.7533 240.879 56.5651C240.879 58.5888 239.936 60.3571 238.562 61.5932ZM234.082 51.4364C231.185 51.4364 228.953 53.6683 228.953 56.5651C228.953 59.4619 231.185 61.6937 234.082 61.6937C236.978 61.6937 239.21 59.4619 239.21 56.5651C239.21 53.6683 236.978 51.4364 234.082 51.4364ZM226.628 78.3921H241.536C241.9 78.3921 242.168 78.1931 242.333 78.0184C242.501 77.8409 242.632 77.6183 242.737 77.4006C242.949 76.9611 243.12 76.396 243.254 75.8392C243.522 74.7297 243.683 73.4816 243.683 72.9638C243.683 67.6818 239.364 63.3628 234.082 63.3628C228.8 63.3628 224.481 67.6818 224.481 72.9638C224.481 73.4816 224.641 74.7297 224.909 75.8392C225.043 76.396 225.214 76.9611 225.426 77.4006C225.531 77.6183 225.662 77.8409 225.83 78.0184C225.995 78.1931 226.263 78.3921 226.628 78.3921Z" fill="#004357"/>
</g>
<path d="M257.906 64.3125C257.906 57.0638 263.783 51.1875 271.031 51.1875V51.1875C278.28 51.1875 284.156 57.0638 284.156 64.3125V64.3125C284.156 71.5612 278.28 77.4375 271.031 77.4375V77.4375C263.783 77.4375 257.906 71.5612 257.906 64.3125V64.3125Z" fill="#F3F4F6"/>
<circle cx="271.031" cy="64.3125" r="13.125" fill="#F3F4F6"/>
<mask id="mask7_6262_106607" style="mask-type:alpha" maskUnits="userSpaceOnUse" x="257" y="48" width="28" height="30">
<path d="M257.906 48.2036H284.156V64.3117C284.156 71.5604 278.28 77.4367 271.031 77.4367V77.4367C263.783 77.4367 257.906 71.5604 257.906 64.3117V48.2036Z" fill="#D9D9D9"/>
</mask>
<g mask="url(#mask7_6262_106607)">
<path fill-rule="evenodd" clip-rule="evenodd" d="M275.312 61.5932L274.574 62.2579L275.475 62.6762C279.428 64.5114 282.102 68.4598 282.102 72.9638C282.102 74.1077 281.652 75.9466 280.884 77.5003C280.502 78.2723 280.061 78.9345 279.594 79.3943C279.123 79.8568 278.683 80.0612 278.286 80.0612H263.378C262.98 80.0612 262.54 79.8568 262.07 79.3943C261.602 78.9345 261.161 78.2723 260.779 77.5003C260.012 75.9466 259.562 74.1077 259.562 72.9638C259.562 68.4598 262.236 64.5114 266.188 62.6762L267.09 62.2579L266.351 61.5932C264.978 60.3571 264.034 58.5888 264.034 56.5651C264.034 52.7533 267.02 49.7673 270.832 49.7673C274.643 49.7673 277.629 52.7533 277.629 56.5651C277.629 58.5888 276.686 60.3571 275.312 61.5932ZM270.832 51.4364C267.935 51.4364 265.703 53.6683 265.703 56.5651C265.703 59.4619 267.935 61.6937 270.832 61.6937C273.728 61.6937 275.96 59.4619 275.96 56.5651C275.96 53.6683 273.728 51.4364 270.832 51.4364ZM263.378 78.3921H278.286C278.65 78.3921 278.918 78.1931 279.083 78.0184C279.251 77.8409 279.382 77.6183 279.487 77.4006C279.699 76.9611 279.87 76.396 280.004 75.8392C280.272 74.7297 280.433 73.4816 280.433 72.9638C280.433 67.6818 276.114 63.3628 270.832 63.3628C265.55 63.3628 261.231 67.6818 261.231 72.9638C261.231 73.4816 261.391 74.7297 261.659 75.8392C261.793 76.396 261.964 76.9611 262.176 77.4006C262.281 77.6183 262.412 77.8409 262.58 78.0184C262.745 78.1931 263.013 78.3921 263.378 78.3921Z" fill="#004357"/>
</g>
<path d="M294.656 64.3125C294.656 57.0638 300.533 51.1875 307.781 51.1875V51.1875C315.03 51.1875 320.906 57.0638 320.906 64.3125V64.3125C320.906 71.5612 315.03 77.4375 307.781 77.4375V77.4375C300.533 77.4375 294.656 71.5612 294.656 64.3125V64.3125Z" fill="#F3F4F6"/>
<circle cx="307.781" cy="64.3125" r="13.125" fill="#F3F4F6"/>
<mask id="mask8_6262_106607" style="mask-type:alpha" maskUnits="userSpaceOnUse" x="294" y="48" width="27" height="30">
<path d="M294.656 48.2036H320.906V64.3117C320.906 71.5604 315.03 77.4367 307.781 77.4367V77.4367C300.533 77.4367 294.656 71.5604 294.656 64.3117V48.2036Z" fill="#D9D9D9"/>
</mask>
<g mask="url(#mask8_6262_106607)">
<path fill-rule="evenodd" clip-rule="evenodd" d="M312.062 61.5932L311.324 62.2579L312.225 62.6762C316.178 64.5114 318.852 68.4598 318.852 72.9638C318.852 74.1077 318.402 75.9466 317.634 77.5003C317.252 78.2723 316.811 78.9345 316.344 79.3943C315.873 79.8568 315.433 80.0612 315.036 80.0612H300.128C299.73 80.0612 299.29 79.8568 298.82 79.3943C298.352 78.9345 297.911 78.2723 297.529 77.5003C296.762 75.9466 296.312 74.1077 296.312 72.9638C296.312 68.4598 298.986 64.5114 302.938 62.6762L303.84 62.2579L303.101 61.5932C301.728 60.3571 300.784 58.5888 300.784 56.5651C300.784 52.7533 303.77 49.7673 307.582 49.7673C311.393 49.7673 314.379 52.7533 314.379 56.5651C314.379 58.5888 313.436 60.3571 312.062 61.5932ZM307.582 51.4364C304.685 51.4364 302.453 53.6683 302.453 56.5651C302.453 59.4619 304.685 61.6937 307.582 61.6937C310.478 61.6937 312.71 59.4619 312.71 56.5651C312.71 53.6683 310.478 51.4364 307.582 51.4364ZM300.128 78.3921H315.036C315.4 78.3921 315.668 78.1931 315.833 78.0184C316.001 77.8409 316.132 77.6183 316.237 77.4006C316.449 76.9611 316.62 76.396 316.754 75.8392C317.022 74.7297 317.183 73.4816 317.183 72.9638C317.183 67.6818 312.864 63.3628 307.582 63.3628C302.3 63.3628 297.981 67.6818 297.981 72.9638C297.981 73.4816 298.141 74.7297 298.409 75.8392C298.543 76.396 298.714 76.9611 298.926 77.4006C299.031 77.6183 299.162 77.8409 299.33 78.0184C299.495 78.1931 299.763 78.3921 300.128 78.3921Z" fill="#004357"/>
</g>
<path d="M0.65625 101.062C0.65625 93.8138 6.53251 87.9375 13.7812 87.9375V87.9375C21.03 87.9375 26.9062 93.8138 26.9062 101.062V101.062C26.9062 108.311 21.03 114.188 13.7812 114.188V114.188C6.53251 114.188 0.65625 108.311 0.65625 101.062V101.062Z" fill="#F3F4F6"/>
<circle cx="13.7812" cy="101.062" r="13.125" fill="#F3F4F6"/>
<mask id="mask9_6262_106607" style="mask-type:alpha" maskUnits="userSpaceOnUse" x="0" y="84" width="27" height="31">
<path d="M0.65625 84.9536H26.9062V101.062C26.9062 108.31 21.03 114.187 13.7812 114.187V114.187C6.53251 114.187 0.65625 108.31 0.65625 101.062V84.9536Z" fill="#D9D9D9"/>
</mask>
<g mask="url(#mask9_6262_106607)">
<path fill-rule="evenodd" clip-rule="evenodd" d="M18.0623 98.3432L17.3238 99.0079L18.2249 99.4262C22.1777 101.261 24.8518 105.21 24.8518 109.714C24.8518 110.858 24.4016 112.697 23.6339 114.25C23.2524 115.022 22.8114 115.685 22.3436 116.144C21.8731 116.607 21.4328 116.811 21.0356 116.811H6.12766C5.73049 116.811 5.29018 116.607 4.8197 116.144C4.3519 115.685 3.9109 115.022 3.52943 114.25C2.76167 112.697 2.31152 110.858 2.31152 109.714C2.31152 105.21 4.98562 101.261 8.93837 99.4262L9.8395 99.0079L9.10103 98.3432C7.72755 97.1071 6.78391 95.3388 6.78391 93.3151C6.78391 89.5033 9.76985 86.5173 13.5816 86.5173C17.3934 86.5173 20.3794 89.5033 20.3794 93.3151C20.3794 95.3388 19.4357 97.1071 18.0623 98.3432ZM13.5816 88.1864C10.6849 88.1864 8.45301 90.4183 8.45301 93.3151C8.45301 96.2119 10.6849 98.4437 13.5816 98.4437C16.4784 98.4437 18.7103 96.2119 18.7103 93.3151C18.7103 90.4183 16.4784 88.1864 13.5816 88.1864ZM6.12766 115.142H21.0356C21.4004 115.142 21.6681 114.943 21.8333 114.768C22.0012 114.591 22.1325 114.368 22.2372 114.151C22.4488 113.711 22.6201 113.146 22.7544 112.589C23.0221 111.48 23.1827 110.232 23.1827 109.714C23.1827 104.432 18.8637 100.113 13.5816 100.113C8.29958 100.113 3.98062 104.432 3.98062 109.714C3.98062 110.232 4.14117 111.48 4.40889 112.589C4.54324 113.146 4.7145 113.711 4.92604 114.151C5.03079 114.368 5.16214 114.591 5.32996 114.768C5.49516 114.943 5.76293 115.142 6.12766 115.142Z" fill="#004357"/>
</g>
<path d="M37.4062 101.062C37.4062 93.8138 43.2825 87.9375 50.5312 87.9375V87.9375C57.78 87.9375 63.6562 93.8138 63.6562 101.062V101.062C63.6562 108.311 57.78 114.188 50.5312 114.188V114.188C43.2825 114.188 37.4062 108.311 37.4062 101.062V101.062Z" fill="#F3F4F6"/>
<circle cx="50.5312" cy="101.062" r="13.125" fill="#F3F4F6"/>
<mask id="mask10_6262_106607" style="mask-type:alpha" maskUnits="userSpaceOnUse" x="37" y="84" width="27" height="31">
<path d="M37.4062 84.9536H63.6562V101.062C63.6562 108.31 57.78 114.187 50.5312 114.187V114.187C43.2825 114.187 37.4062 108.31 37.4062 101.062V84.9536Z" fill="#D9D9D9"/>
</mask>
<g mask="url(#mask10_6262_106607)">
<path fill-rule="evenodd" clip-rule="evenodd" d="M54.8123 98.3432L54.0738 99.0079L54.9749 99.4262C58.9277 101.261 61.6018 105.21 61.6018 109.714C61.6018 110.858 61.1516 112.697 60.3839 114.25C60.0024 115.022 59.5614 115.685 59.0936 116.144C58.6231 116.607 58.1828 116.811 57.7856 116.811H42.8777C42.4805 116.811 42.0402 116.607 41.5697 116.144C41.1019 115.685 40.6609 115.022 40.2794 114.25C39.5117 112.697 39.0615 110.858 39.0615 109.714C39.0615 105.21 41.7356 101.261 45.6884 99.4262L46.5895 99.0079L45.851 98.3432C44.4776 97.1071 43.5339 95.3388 43.5339 93.3151C43.5339 89.5033 46.5199 86.5173 50.3316 86.5173C54.1434 86.5173 57.1294 89.5033 57.1294 93.3151C57.1294 95.3388 56.1857 97.1071 54.8123 98.3432ZM50.3316 88.1864C47.4349 88.1864 45.203 90.4183 45.203 93.3151C45.203 96.2119 47.4349 98.4437 50.3316 98.4437C53.2284 98.4437 55.4603 96.2119 55.4603 93.3151C55.4603 90.4183 53.2284 88.1864 50.3316 88.1864ZM42.8777 115.142H57.7856C58.1504 115.142 58.4181 114.943 58.5833 114.768C58.7512 114.591 58.8825 114.368 58.9872 114.151C59.1988 113.711 59.3701 113.146 59.5044 112.589C59.7721 111.48 59.9327 110.232 59.9327 109.714C59.9327 104.432 55.6137 100.113 50.3316 100.113C45.0496 100.113 40.7306 104.432 40.7306 109.714C40.7306 110.232 40.8912 111.48 41.1589 112.589C41.2932 113.146 41.4645 113.711 41.676 114.151C41.7808 114.368 41.9121 114.591 42.08 114.768C42.2452 114.943 42.5129 115.142 42.8777 115.142Z" fill="#004357"/>
</g>
<path d="M74.1562 101.062C74.1562 93.8138 80.0325 87.9375 87.2812 87.9375V87.9375C94.53 87.9375 100.406 93.8138 100.406 101.062V101.062C100.406 108.311 94.53 114.188 87.2812 114.188V114.188C80.0325 114.188 74.1562 108.311 74.1562 101.062V101.062Z" fill="#F3F4F6"/>
<circle cx="87.2812" cy="101.062" r="13.125" fill="#F3F4F6"/>
<mask id="mask11_6262_106607" style="mask-type:alpha" maskUnits="userSpaceOnUse" x="74" y="84" width="27" height="31">
<path d="M74.1562 84.9536H100.406V101.062C100.406 108.31 94.53 114.187 87.2812 114.187V114.187C80.0325 114.187 74.1562 108.31 74.1562 101.062V84.9536Z" fill="#D9D9D9"/>
</mask>
<g mask="url(#mask11_6262_106607)">
<path fill-rule="evenodd" clip-rule="evenodd" d="M91.5623 98.3432L90.8238 99.0079L91.7249 99.4262C95.6777 101.261 98.3518 105.21 98.3518 109.714C98.3518 110.858 97.9016 112.697 97.1339 114.25C96.7524 115.022 96.3114 115.685 95.8436 116.144C95.3731 116.607 94.9328 116.811 94.5356 116.811H79.6277C79.2305 116.811 78.7902 116.607 78.3197 116.144C77.8519 115.685 77.4109 115.022 77.0294 114.25C76.2617 112.697 75.8115 110.858 75.8115 109.714C75.8115 105.21 78.4856 101.261 82.4384 99.4262L83.3395 99.0079L82.601 98.3432C81.2276 97.1071 80.2839 95.3388 80.2839 93.3151C80.2839 89.5033 83.2699 86.5173 87.0816 86.5173C90.8934 86.5173 93.8794 89.5033 93.8794 93.3151C93.8794 95.3388 92.9357 97.1071 91.5623 98.3432ZM87.0816 88.1864C84.1849 88.1864 81.953 90.4183 81.953 93.3151C81.953 96.2119 84.1849 98.4437 87.0816 98.4437C89.9784 98.4437 92.2103 96.2119 92.2103 93.3151C92.2103 90.4183 89.9784 88.1864 87.0816 88.1864ZM79.6277 115.142H94.5356C94.9004 115.142 95.1681 114.943 95.3333 114.768C95.5012 114.591 95.6325 114.368 95.7372 114.151C95.9488 113.711 96.1201 113.146 96.2544 112.589C96.5221 111.48 96.6827 110.232 96.6827 109.714C96.6827 104.432 92.3637 100.113 87.0816 100.113C81.7996 100.113 77.4806 104.432 77.4806 109.714C77.4806 110.232 77.6412 111.48 77.9089 112.589C78.0432 113.146 78.2145 113.711 78.426 114.151C78.5308 114.368 78.6621 114.591 78.83 114.768C78.9952 114.943 79.2629 115.142 79.6277 115.142Z" fill="#004357"/>
</g>
<path d="M110.906 101.062C110.906 93.8138 116.783 87.9375 124.031 87.9375V87.9375C131.28 87.9375 137.156 93.8138 137.156 101.062V101.062C137.156 108.311 131.28 114.188 124.031 114.188V114.188C116.783 114.188 110.906 108.311 110.906 101.062V101.062Z" fill="#F3F4F6"/>
<circle cx="124.031" cy="101.062" r="13.125" fill="#F3F4F6"/>
<mask id="mask12_6262_106607" style="mask-type:alpha" maskUnits="userSpaceOnUse" x="110" y="84" width="28" height="31">
<path d="M110.906 84.9536H137.156V101.062C137.156 108.31 131.28 114.187 124.031 114.187V114.187C116.783 114.187 110.906 108.31 110.906 101.062V84.9536Z" fill="#D9D9D9"/>
</mask>
<g mask="url(#mask12_6262_106607)">
<path fill-rule="evenodd" clip-rule="evenodd" d="M128.312 98.3432L127.574 99.0079L128.475 99.4262C132.428 101.261 135.102 105.21 135.102 109.714C135.102 110.858 134.652 112.697 133.884 114.25C133.502 115.022 133.061 115.685 132.594 116.144C132.123 116.607 131.683 116.811 131.286 116.811H116.378C115.98 116.811 115.54 116.607 115.07 116.144C114.602 115.685 114.161 115.022 113.779 114.25C113.012 112.697 112.562 110.858 112.562 109.714C112.562 105.21 115.236 101.261 119.188 99.4262L120.09 99.0079L119.351 98.3432C117.978 97.1071 117.034 95.3388 117.034 93.3151C117.034 89.5033 120.02 86.5173 123.832 86.5173C127.643 86.5173 130.629 89.5033 130.629 93.3151C130.629 95.3388 129.686 97.1071 128.312 98.3432ZM123.832 88.1864C120.935 88.1864 118.703 90.4183 118.703 93.3151C118.703 96.2119 120.935 98.4437 123.832 98.4437C126.728 98.4437 128.96 96.2119 128.96 93.3151C128.96 90.4183 126.728 88.1864 123.832 88.1864ZM116.378 115.142H131.286C131.65 115.142 131.918 114.943 132.083 114.768C132.251 114.591 132.382 114.368 132.487 114.151C132.699 113.711 132.87 113.146 133.004 112.589C133.272 111.48 133.433 110.232 133.433 109.714C133.433 104.432 129.114 100.113 123.832 100.113C118.55 100.113 114.231 104.432 114.231 109.714C114.231 110.232 114.391 111.48 114.659 112.589C114.793 113.146 114.964 113.711 115.176 114.151C115.281 114.368 115.412 114.591 115.58 114.768C115.745 114.943 116.013 115.142 116.378 115.142Z" fill="#004357"/>
</g>
<path d="M147.656 101.062C147.656 93.8138 153.533 87.9375 160.781 87.9375V87.9375C168.03 87.9375 173.906 93.8138 173.906 101.062V101.062C173.906 108.311 168.03 114.188 160.781 114.188V114.188C153.533 114.188 147.656 108.311 147.656 101.062V101.062Z" fill="#F3F4F6"/>
<circle cx="160.781" cy="101.062" r="13.125" fill="#F3F4F6"/>
<mask id="mask13_6262_106607" style="mask-type:alpha" maskUnits="userSpaceOnUse" x="147" y="84" width="27" height="31">
<path d="M147.656 84.9536H173.906V101.062C173.906 108.31 168.03 114.187 160.781 114.187V114.187C153.533 114.187 147.656 108.31 147.656 101.062V84.9536Z" fill="#D9D9D9"/>
</mask>
<g mask="url(#mask13_6262_106607)">
<path fill-rule="evenodd" clip-rule="evenodd" d="M165.062 98.3432L164.324 99.0079L165.225 99.4262C169.178 101.261 171.852 105.21 171.852 109.714C171.852 110.858 171.402 112.697 170.634 114.25C170.252 115.022 169.811 115.685 169.344 116.144C168.873 116.607 168.433 116.811 168.036 116.811H153.128C152.73 116.811 152.29 116.607 151.82 116.144C151.352 115.685 150.911 115.022 150.529 114.25C149.762 112.697 149.312 110.858 149.312 109.714C149.312 105.21 151.986 101.261 155.938 99.4262L156.84 99.0079L156.101 98.3432C154.728 97.1071 153.784 95.3388 153.784 93.3151C153.784 89.5033 156.77 86.5173 160.582 86.5173C164.393 86.5173 167.379 89.5033 167.379 93.3151C167.379 95.3388 166.436 97.1071 165.062 98.3432ZM160.582 88.1864C157.685 88.1864 155.453 90.4183 155.453 93.3151C155.453 96.2119 157.685 98.4437 160.582 98.4437C163.478 98.4437 165.71 96.2119 165.71 93.3151C165.71 90.4183 163.478 88.1864 160.582 88.1864ZM153.128 115.142H168.036C168.4 115.142 168.668 114.943 168.833 114.768C169.001 114.591 169.132 114.368 169.237 114.151C169.449 113.711 169.62 113.146 169.754 112.589C170.022 111.48 170.183 110.232 170.183 109.714C170.183 104.432 165.864 100.113 160.582 100.113C155.3 100.113 150.981 104.432 150.981 109.714C150.981 110.232 151.141 111.48 151.409 112.589C151.543 113.146 151.714 113.711 151.926 114.151C152.031 114.368 152.162 114.591 152.33 114.768C152.495 114.943 152.763 115.142 153.128 115.142Z" fill="#004357"/>
</g>
<path d="M184.406 101.062C184.406 93.8138 190.283 87.9375 197.531 87.9375V87.9375C204.78 87.9375 210.656 93.8138 210.656 101.062V101.062C210.656 108.311 204.78 114.188 197.531 114.188V114.188C190.283 114.188 184.406 108.311 184.406 101.062V101.062Z" fill="#F3F4F6"/>
<circle cx="197.531" cy="101.062" r="13.125" fill="#F3F4F6"/>
<mask id="mask14_6262_106607" style="mask-type:alpha" maskUnits="userSpaceOnUse" x="184" y="84" width="27" height="31">
<path d="M184.406 84.9536H210.656V101.062C210.656 108.31 204.78 114.187 197.531 114.187V114.187C190.283 114.187 184.406 108.31 184.406 101.062V84.9536Z" fill="#D9D9D9"/>
</mask>
<g mask="url(#mask14_6262_106607)">
<path fill-rule="evenodd" clip-rule="evenodd" d="M201.812 98.3432L201.074 99.0079L201.975 99.4262C205.928 101.261 208.602 105.21 208.602 109.714C208.602 110.858 208.152 112.697 207.384 114.25C207.002 115.022 206.561 115.685 206.094 116.144C205.623 116.607 205.183 116.811 204.786 116.811H189.878C189.48 116.811 189.04 116.607 188.57 116.144C188.102 115.685 187.661 115.022 187.279 114.25C186.512 112.697 186.062 110.858 186.062 109.714C186.062 105.21 188.736 101.261 192.688 99.4262L193.59 99.0079L192.851 98.3432C191.478 97.1071 190.534 95.3388 190.534 93.3151C190.534 89.5033 193.52 86.5173 197.332 86.5173C201.143 86.5173 204.129 89.5033 204.129 93.3151C204.129 95.3388 203.186 97.1071 201.812 98.3432ZM197.332 88.1864C194.435 88.1864 192.203 90.4183 192.203 93.3151C192.203 96.2119 194.435 98.4437 197.332 98.4437C200.228 98.4437 202.46 96.2119 202.46 93.3151C202.46 90.4183 200.228 88.1864 197.332 88.1864ZM189.878 115.142H204.786C205.15 115.142 205.418 114.943 205.583 114.768C205.751 114.591 205.882 114.368 205.987 114.151C206.199 113.711 206.37 113.146 206.504 112.589C206.772 111.48 206.933 110.232 206.933 109.714C206.933 104.432 202.614 100.113 197.332 100.113C192.05 100.113 187.731 104.432 187.731 109.714C187.731 110.232 187.891 111.48 188.159 112.589C188.293 113.146 188.464 113.711 188.676 114.151C188.781 114.368 188.912 114.591 189.08 114.768C189.245 114.943 189.513 115.142 189.878 115.142Z" fill="#004357"/>
</g>
<path d="M221.156 101.062C221.156 93.8138 227.033 87.9375 234.281 87.9375V87.9375C241.53 87.9375 247.406 93.8138 247.406 101.062V101.062C247.406 108.311 241.53 114.188 234.281 114.188V114.188C227.033 114.188 221.156 108.311 221.156 101.062V101.062Z" fill="#F3F4F6"/>
<circle cx="234.281" cy="101.062" r="13.125" fill="#F3F4F6"/>
<mask id="mask15_6262_106607" style="mask-type:alpha" maskUnits="userSpaceOnUse" x="221" y="84" width="27" height="31">
<path d="M221.156 84.9536H247.406V101.062C247.406 108.31 241.53 114.187 234.281 114.187V114.187C227.033 114.187 221.156 108.31 221.156 101.062V84.9536Z" fill="#D9D9D9"/>
</mask>
<g mask="url(#mask15_6262_106607)">
<path fill-rule="evenodd" clip-rule="evenodd" d="M238.562 98.3432L237.824 99.0079L238.725 99.4262C242.678 101.261 245.352 105.21 245.352 109.714C245.352 110.858 244.902 112.697 244.134 114.25C243.752 115.022 243.311 115.685 242.844 116.144C242.373 116.607 241.933 116.811 241.536 116.811H226.628C226.23 116.811 225.79 116.607 225.32 116.144C224.852 115.685 224.411 115.022 224.029 114.25C223.262 112.697 222.812 110.858 222.812 109.714C222.812 105.21 225.486 101.261 229.438 99.4262L230.34 99.0079L229.601 98.3432C228.228 97.1071 227.284 95.3388 227.284 93.3151C227.284 89.5033 230.27 86.5173 234.082 86.5173C237.893 86.5173 240.879 89.5033 240.879 93.3151C240.879 95.3388 239.936 97.1071 238.562 98.3432ZM234.082 88.1864C231.185 88.1864 228.953 90.4183 228.953 93.3151C228.953 96.2119 231.185 98.4437 234.082 98.4437C236.978 98.4437 239.21 96.2119 239.21 93.3151C239.21 90.4183 236.978 88.1864 234.082 88.1864ZM226.628 115.142H241.536C241.9 115.142 242.168 114.943 242.333 114.768C242.501 114.591 242.632 114.368 242.737 114.151C242.949 113.711 243.12 113.146 243.254 112.589C243.522 111.48 243.683 110.232 243.683 109.714C243.683 104.432 239.364 100.113 234.082 100.113C228.8 100.113 224.481 104.432 224.481 109.714C224.481 110.232 224.641 111.48 224.909 112.589C225.043 113.146 225.214 113.711 225.426 114.151C225.531 114.368 225.662 114.591 225.83 114.768C225.995 114.943 226.263 115.142 226.628 115.142Z" fill="#004357"/>
</g>
<path d="M257.906 101.062C257.906 93.8138 263.783 87.9375 271.031 87.9375V87.9375C278.28 87.9375 284.156 93.8138 284.156 101.062V101.062C284.156 108.311 278.28 114.188 271.031 114.188V114.188C263.783 114.188 257.906 108.311 257.906 101.062V101.062Z" fill="#F3F4F6"/>
<circle cx="271.031" cy="101.062" r="13.125" fill="#F3F4F6"/>
<mask id="mask16_6262_106607" style="mask-type:alpha" maskUnits="userSpaceOnUse" x="257" y="84" width="28" height="31">
<path d="M257.906 84.9536H284.156V101.062C284.156 108.31 278.28 114.187 271.031 114.187V114.187C263.783 114.187 257.906 108.31 257.906 101.062V84.9536Z" fill="#D9D9D9"/>
</mask>
<g mask="url(#mask16_6262_106607)">
<path fill-rule="evenodd" clip-rule="evenodd" d="M275.312 98.3432L274.574 99.0079L275.475 99.4262C279.428 101.261 282.102 105.21 282.102 109.714C282.102 110.858 281.652 112.697 280.884 114.25C280.502 115.022 280.061 115.685 279.594 116.144C279.123 116.607 278.683 116.811 278.286 116.811H263.378C262.98 116.811 262.54 116.607 262.07 116.144C261.602 115.685 261.161 115.022 260.779 114.25C260.012 112.697 259.562 110.858 259.562 109.714C259.562 105.21 262.236 101.261 266.188 99.4262L267.09 99.0079L266.351 98.3432C264.978 97.1071 264.034 95.3388 264.034 93.3151C264.034 89.5033 267.02 86.5173 270.832 86.5173C274.643 86.5173 277.629 89.5033 277.629 93.3151C277.629 95.3388 276.686 97.1071 275.312 98.3432ZM270.832 88.1864C267.935 88.1864 265.703 90.4183 265.703 93.3151C265.703 96.2119 267.935 98.4437 270.832 98.4437C273.728 98.4437 275.96 96.2119 275.96 93.3151C275.96 90.4183 273.728 88.1864 270.832 88.1864ZM263.378 115.142H278.286C278.65 115.142 278.918 114.943 279.083 114.768C279.251 114.591 279.382 114.368 279.487 114.151C279.699 113.711 279.87 113.146 280.004 112.589C280.272 111.48 280.433 110.232 280.433 109.714C280.433 104.432 276.114 100.113 270.832 100.113C265.55 100.113 261.231 104.432 261.231 109.714C261.231 110.232 261.391 111.48 261.659 112.589C261.793 113.146 261.964 113.711 262.176 114.151C262.281 114.368 262.412 114.591 262.58 114.768C262.745 114.943 263.013 115.142 263.378 115.142Z" fill="#004357"/>
</g>
<path d="M108.89 40.1739C108.577 40.3556 108.175 40.2487 107.993 39.9351L105.032 34.8248C104.85 34.5112 104.957 34.1097 105.271 33.928C105.585 33.7463 105.986 33.8532 106.168 34.1668L108.8 38.7093L113.342 36.0771C113.656 35.8954 114.058 36.0023 114.239 36.3159C114.421 36.6295 114.314 37.031 114 37.2127L108.89 40.1739ZM146.366 17.1011C137.532 15.2424 129.511 16.1838 123.08 19.9199C116.656 23.6525 111.739 30.2211 109.195 39.7749L107.927 39.4372C110.543 29.6122 115.642 22.7232 122.421 18.785C129.194 14.8502 137.562 13.9074 146.636 15.8167L146.366 17.1011Z" fill="#004357"/>
<path d="M49.875 204.75C49.875 197.501 55.7513 191.625 63 191.625V191.625C70.2487 191.625 76.125 197.501 76.125 204.75V204.75C76.125 211.999 70.2487 217.875 63 217.875V217.875C55.7513 217.875 49.875 211.999 49.875 204.75V204.75Z" fill="#F3F4F6"/>
<circle cx="63" cy="204.75" r="13.125" fill="#F3F4F6"/>
<mask id="mask17_6262_106607" style="mask-type:alpha" maskUnits="userSpaceOnUse" x="49" y="188" width="28" height="30">
<path d="M49.875 188.641H76.125V204.749C76.125 211.998 70.2487 217.874 63 217.874V217.874C55.7513 217.874 49.875 211.998 49.875 204.749V188.641Z" fill="#D9D9D9"/>
</mask>
<g mask="url(#mask17_6262_106607)">
<path fill-rule="evenodd" clip-rule="evenodd" d="M67.281 202.031L66.5425 202.695L67.4437 203.114C71.3964 204.949 74.0705 208.897 74.0705 213.401C74.0705 214.545 73.6204 216.384 72.8526 217.938C72.4711 218.71 72.0301 219.372 71.5623 219.832C71.0919 220.294 70.6516 220.499 70.2544 220.499H55.3464C54.9492 220.499 54.5089 220.294 54.0385 219.832C53.5707 219.372 53.1297 218.71 52.7482 217.938C51.9804 216.384 51.5303 214.545 51.5303 213.401C51.5303 208.897 54.2044 204.949 58.1571 203.114L59.0583 202.695L58.3198 202.031C56.9463 200.795 56.0027 199.026 56.0027 197.003C56.0027 193.191 58.9886 190.205 62.8004 190.205C66.6122 190.205 69.5981 193.191 69.5981 197.003C69.5981 199.026 68.6545 200.795 67.281 202.031ZM62.8004 191.874C59.9036 191.874 57.6718 194.106 57.6718 197.003C57.6718 199.899 59.9036 202.131 62.8004 202.131C65.6972 202.131 67.929 199.899 67.929 197.003C67.929 194.106 65.6972 191.874 62.8004 191.874ZM55.3464 218.83H70.2544C70.6191 218.83 70.8869 218.631 71.0521 218.456C71.2199 218.278 71.3512 218.056 71.456 217.838C71.6675 217.399 71.8388 216.833 71.9731 216.277C72.2409 215.167 72.4014 213.919 72.4014 213.401C72.4014 208.119 68.0825 203.8 62.8004 203.8C57.5183 203.8 53.1994 208.119 53.1994 213.401C53.1994 213.919 53.3599 215.167 53.6276 216.277C53.762 216.833 53.9332 217.399 54.1448 217.838C54.2495 218.056 54.3809 218.278 54.5487 218.456C54.7139 218.631 54.9817 218.83 55.3464 218.83Z" fill="#004357"/>
</g>
<path d="M86.625 204.75C86.625 197.501 92.5013 191.625 99.75 191.625V191.625C106.999 191.625 112.875 197.501 112.875 204.75V204.75C112.875 211.999 106.999 217.875 99.75 217.875V217.875C92.5013 217.875 86.625 211.999 86.625 204.75V204.75Z" fill="#F3F4F6"/>
<circle cx="99.75" cy="204.75" r="13.125" fill="#F3F4F6"/>
<mask id="mask18_6262_106607" style="mask-type:alpha" maskUnits="userSpaceOnUse" x="86" y="188" width="27" height="30">
<path d="M86.625 188.641H112.875V204.749C112.875 211.998 106.999 217.874 99.75 217.874V217.874C92.5013 217.874 86.625 211.998 86.625 204.749V188.641Z" fill="#D9D9D9"/>
</mask>
<g mask="url(#mask18_6262_106607)">
<path fill-rule="evenodd" clip-rule="evenodd" d="M104.031 202.031L103.293 202.695L104.194 203.114C108.146 204.949 110.821 208.897 110.821 213.401C110.821 214.545 110.37 216.384 109.603 217.938C109.221 218.71 108.78 219.372 108.312 219.832C107.842 220.294 107.402 220.499 107.004 220.499H92.0964C91.6992 220.499 91.2589 220.294 90.7885 219.832C90.3207 219.372 89.8797 218.71 89.4982 217.938C88.7304 216.384 88.2803 214.545 88.2803 213.401C88.2803 208.897 90.9544 204.949 94.9071 203.114L95.8083 202.695L95.0698 202.031C93.6963 200.795 92.7527 199.026 92.7527 197.003C92.7527 193.191 95.7386 190.205 99.5504 190.205C103.362 190.205 106.348 193.191 106.348 197.003C106.348 199.026 105.404 200.795 104.031 202.031ZM99.5504 191.874C96.6536 191.874 94.4218 194.106 94.4218 197.003C94.4218 199.899 96.6536 202.131 99.5504 202.131C102.447 202.131 104.679 199.899 104.679 197.003C104.679 194.106 102.447 191.874 99.5504 191.874ZM92.0964 218.83H107.004C107.369 218.83 107.637 218.631 107.802 218.456C107.97 218.278 108.101 218.056 108.206 217.838C108.418 217.399 108.589 216.833 108.723 216.277C108.991 215.167 109.151 213.919 109.151 213.401C109.151 208.119 104.832 203.8 99.5504 203.8C94.2683 203.8 89.9494 208.119 89.9494 213.401C89.9494 213.919 90.1099 215.167 90.3776 216.277C90.512 216.833 90.6832 217.399 90.8948 217.838C90.9995 218.056 91.1309 218.278 91.2987 218.456C91.4639 218.631 91.7317 218.83 92.0964 218.83Z" fill="#004357"/>
</g>
<path d="M123.375 204.75C123.375 197.501 129.251 191.625 136.5 191.625V191.625C143.749 191.625 149.625 197.501 149.625 204.75V204.75C149.625 211.999 143.749 217.875 136.5 217.875V217.875C129.251 217.875 123.375 211.999 123.375 204.75V204.75Z" fill="#F3F4F6"/>
<circle cx="136.5" cy="204.75" r="13.125" fill="#F3F4F6"/>
<mask id="mask19_6262_106607" style="mask-type:alpha" maskUnits="userSpaceOnUse" x="123" y="188" width="27" height="30">
<path d="M123.375 188.641H149.625V204.749C149.625 211.998 143.749 217.874 136.5 217.874V217.874C129.251 217.874 123.375 211.998 123.375 204.749V188.641Z" fill="#D9D9D9"/>
</mask>
<g mask="url(#mask19_6262_106607)">
<path fill-rule="evenodd" clip-rule="evenodd" d="M140.781 202.031L140.043 202.695L140.944 203.114C144.896 204.949 147.571 208.897 147.571 213.401C147.571 214.545 147.12 216.384 146.353 217.938C145.971 218.71 145.53 219.372 145.062 219.832C144.592 220.294 144.152 220.499 143.754 220.499H128.846C128.449 220.499 128.009 220.294 127.538 219.832C127.071 219.372 126.63 218.71 126.248 217.938C125.48 216.384 125.03 214.545 125.03 213.401C125.03 208.897 127.704 204.949 131.657 203.114L132.558 202.695L131.82 202.031C130.446 200.795 129.503 199.026 129.503 197.003C129.503 193.191 132.489 190.205 136.3 190.205C140.112 190.205 143.098 193.191 143.098 197.003C143.098 199.026 142.154 200.795 140.781 202.031ZM136.3 191.874C133.404 191.874 131.172 194.106 131.172 197.003C131.172 199.899 133.404 202.131 136.3 202.131C139.197 202.131 141.429 199.899 141.429 197.003C141.429 194.106 139.197 191.874 136.3 191.874ZM128.846 218.83H143.754C144.119 218.83 144.387 218.631 144.552 218.456C144.72 218.278 144.851 218.056 144.956 217.838C145.168 217.399 145.339 216.833 145.473 216.277C145.741 215.167 145.901 213.919 145.901 213.401C145.901 208.119 141.582 203.8 136.3 203.8C131.018 203.8 126.699 208.119 126.699 213.401C126.699 213.919 126.86 215.167 127.128 216.277C127.262 216.833 127.433 217.399 127.645 217.838C127.75 218.056 127.881 218.278 128.049 218.456C128.214 218.631 128.482 218.83 128.846 218.83Z" fill="#004357"/>
</g>
<path d="M160.125 204.75C160.125 197.501 166.001 191.625 173.25 191.625V191.625C180.499 191.625 186.375 197.501 186.375 204.75V204.75C186.375 211.999 180.499 217.875 173.25 217.875V217.875C166.001 217.875 160.125 211.999 160.125 204.75V204.75Z" fill="#BED73C"/>
<circle cx="173.25" cy="204.75" r="13.125" fill="#BED73C"/>
<mask id="mask20_6262_106607" style="mask-type:alpha" maskUnits="userSpaceOnUse" x="160" y="188" width="27" height="30">
<path d="M160.125 188.641H186.375V204.749C186.375 211.998 180.499 217.874 173.25 217.874V217.874C166.001 217.874 160.125 211.998 160.125 204.749V188.641Z" fill="#D9D9D9"/>
</mask>
<g mask="url(#mask20_6262_106607)">
<path fill-rule="evenodd" clip-rule="evenodd" d="M177.531 202.031L176.793 202.695L177.694 203.114C181.646 204.949 184.321 208.897 184.321 213.401C184.321 214.545 183.87 216.384 183.103 217.938C182.721 218.71 182.28 219.372 181.812 219.832C181.342 220.294 180.902 220.499 180.504 220.499H165.596C165.199 220.499 164.759 220.294 164.288 219.832C163.821 219.372 163.38 218.71 162.998 217.938C162.23 216.384 161.78 214.545 161.78 213.401C161.78 208.897 164.454 204.949 168.407 203.114L169.308 202.695L168.57 202.031C167.196 200.795 166.253 199.026 166.253 197.003C166.253 193.191 169.239 190.205 173.05 190.205C176.862 190.205 179.848 193.191 179.848 197.003C179.848 199.026 178.904 200.795 177.531 202.031ZM173.05 191.874C170.154 191.874 167.922 194.106 167.922 197.003C167.922 199.899 170.154 202.131 173.05 202.131C175.947 202.131 178.179 199.899 178.179 197.003C178.179 194.106 175.947 191.874 173.05 191.874ZM165.596 218.83H180.504C180.869 218.83 181.137 218.631 181.302 218.456C181.47 218.278 181.601 218.056 181.706 217.838C181.918 217.399 182.089 216.833 182.223 216.277C182.491 215.167 182.651 213.919 182.651 213.401C182.651 208.119 178.332 203.8 173.05 203.8C167.768 203.8 163.449 208.119 163.449 213.401C163.449 213.919 163.61 215.167 163.878 216.277C164.012 216.833 164.183 217.399 164.395 217.838C164.5 218.056 164.631 218.278 164.799 218.456C164.964 218.631 165.232 218.83 165.596 218.83Z" fill="#004357"/>
</g>
<path d="M196.875 204.75C196.875 197.501 202.751 191.625 210 191.625V191.625C217.249 191.625 223.125 197.501 223.125 204.75V204.75C223.125 211.999 217.249 217.875 210 217.875V217.875C202.751 217.875 196.875 211.999 196.875 204.75V204.75Z" fill="#BED73C"/>
<circle cx="210" cy="204.75" r="13.125" fill="#BED73C"/>
<mask id="mask21_6262_106607" style="mask-type:alpha" maskUnits="userSpaceOnUse" x="196" y="188" width="28" height="30">
<path d="M196.875 188.641H223.125V204.749C223.125 211.998 217.249 217.874 210 217.874V217.874C202.751 217.874 196.875 211.998 196.875 204.749V188.641Z" fill="#D9D9D9"/>
</mask>
<g mask="url(#mask21_6262_106607)">
<path fill-rule="evenodd" clip-rule="evenodd" d="M214.281 202.031L213.543 202.695L214.444 203.114C218.396 204.949 221.071 208.897 221.071 213.401C221.071 214.545 220.62 216.384 219.853 217.938C219.471 218.71 219.03 219.372 218.562 219.832C218.092 220.294 217.652 220.499 217.254 220.499H202.346C201.949 220.499 201.509 220.294 201.038 219.832C200.571 219.372 200.13 218.71 199.748 217.938C198.98 216.384 198.53 214.545 198.53 213.401C198.53 208.897 201.204 204.949 205.157 203.114L206.058 202.695L205.32 202.031C203.946 200.795 203.003 199.026 203.003 197.003C203.003 193.191 205.989 190.205 209.8 190.205C213.612 190.205 216.598 193.191 216.598 197.003C216.598 199.026 215.654 200.795 214.281 202.031ZM209.8 191.874C206.904 191.874 204.672 194.106 204.672 197.003C204.672 199.899 206.904 202.131 209.8 202.131C212.697 202.131 214.929 199.899 214.929 197.003C214.929 194.106 212.697 191.874 209.8 191.874ZM202.346 218.83H217.254C217.619 218.83 217.887 218.631 218.052 218.456C218.22 218.278 218.351 218.056 218.456 217.838C218.668 217.399 218.839 216.833 218.973 216.277C219.241 215.167 219.401 213.919 219.401 213.401C219.401 208.119 215.082 203.8 209.8 203.8C204.518 203.8 200.199 208.119 200.199 213.401C200.199 213.919 200.36 215.167 200.628 216.277C200.762 216.833 200.933 217.399 201.145 217.838C201.25 218.056 201.381 218.278 201.549 218.456C201.714 218.631 201.982 218.83 202.346 218.83Z" fill="#004357"/>
</g>
<path d="M233.625 204.75C233.625 197.501 239.501 191.625 246.75 191.625V191.625C253.999 191.625 259.875 197.501 259.875 204.75V204.75C259.875 211.999 253.999 217.875 246.75 217.875V217.875C239.501 217.875 233.625 211.999 233.625 204.75V204.75Z" fill="#BED73C"/>
<circle cx="246.75" cy="204.75" r="13.125" fill="#BED73C"/>
<mask id="mask22_6262_106607" style="mask-type:alpha" maskUnits="userSpaceOnUse" x="233" y="188" width="27" height="30">
<path d="M233.625 188.641H259.875V204.749C259.875 211.998 253.999 217.874 246.75 217.874V217.874C239.501 217.874 233.625 211.998 233.625 204.749V188.641Z" fill="#D9D9D9"/>
</mask>
<g mask="url(#mask22_6262_106607)">
<path fill-rule="evenodd" clip-rule="evenodd" d="M251.031 202.031L250.293 202.695L251.194 203.114C255.146 204.949 257.821 208.897 257.821 213.401C257.821 214.545 257.37 216.384 256.603 217.938C256.221 218.71 255.78 219.372 255.312 219.832C254.842 220.294 254.402 220.499 254.004 220.499H239.096C238.699 220.499 238.259 220.294 237.788 219.832C237.321 219.372 236.88 218.71 236.498 217.938C235.73 216.384 235.28 214.545 235.28 213.401C235.28 208.897 237.954 204.949 241.907 203.114L242.808 202.695L242.07 202.031C240.696 200.795 239.753 199.026 239.753 197.003C239.753 193.191 242.739 190.205 246.55 190.205C250.362 190.205 253.348 193.191 253.348 197.003C253.348 199.026 252.404 200.795 251.031 202.031ZM246.55 191.874C243.654 191.874 241.422 194.106 241.422 197.003C241.422 199.899 243.654 202.131 246.55 202.131C249.447 202.131 251.679 199.899 251.679 197.003C251.679 194.106 249.447 191.874 246.55 191.874ZM239.096 218.83H254.004C254.369 218.83 254.637 218.631 254.802 218.456C254.97 218.278 255.101 218.056 255.206 217.838C255.418 217.399 255.589 216.833 255.723 216.277C255.991 215.167 256.151 213.919 256.151 213.401C256.151 208.119 251.832 203.8 246.55 203.8C241.268 203.8 236.949 208.119 236.949 213.401C236.949 213.919 237.11 215.167 237.378 216.277C237.512 216.833 237.683 217.399 237.895 217.838C238 218.056 238.131 218.278 238.299 218.456C238.464 218.631 238.732 218.83 239.096 218.83Z" fill="#004357"/>
</g>
<path d="M270.375 204.75C270.375 197.501 276.251 191.625 283.5 191.625V191.625C290.749 191.625 296.625 197.501 296.625 204.75V204.75C296.625 211.999 290.749 217.875 283.5 217.875V217.875C276.251 217.875 270.375 211.999 270.375 204.75V204.75Z" fill="#BED73C"/>
<circle cx="283.5" cy="204.75" r="13.125" fill="#BED73C"/>
<mask id="mask23_6262_106607" style="mask-type:alpha" maskUnits="userSpaceOnUse" x="270" y="188" width="27" height="30">
<path d="M270.375 188.641H296.625V204.749C296.625 211.998 290.749 217.874 283.5 217.874V217.874C276.251 217.874 270.375 211.998 270.375 204.749V188.641Z" fill="#D9D9D9"/>
</mask>
<g mask="url(#mask23_6262_106607)">
<path fill-rule="evenodd" clip-rule="evenodd" d="M287.781 202.031L287.043 202.695L287.944 203.114C291.896 204.949 294.571 208.897 294.571 213.401C294.571 214.545 294.12 216.384 293.353 217.938C292.971 218.71 292.53 219.372 292.062 219.832C291.592 220.294 291.152 220.499 290.754 220.499H275.846C275.449 220.499 275.009 220.294 274.538 219.832C274.071 219.372 273.63 218.71 273.248 217.938C272.48 216.384 272.03 214.545 272.03 213.401C272.03 208.897 274.704 204.949 278.657 203.114L279.558 202.695L278.82 202.031C277.446 200.795 276.503 199.026 276.503 197.003C276.503 193.191 279.489 190.205 283.3 190.205C287.112 190.205 290.098 193.191 290.098 197.003C290.098 199.026 289.154 200.795 287.781 202.031ZM283.3 191.874C280.404 191.874 278.172 194.106 278.172 197.003C278.172 199.899 280.404 202.131 283.3 202.131C286.197 202.131 288.429 199.899 288.429 197.003C288.429 194.106 286.197 191.874 283.3 191.874ZM275.846 218.83H290.754C291.119 218.83 291.387 218.631 291.552 218.456C291.72 218.278 291.851 218.056 291.956 217.838C292.168 217.399 292.339 216.833 292.473 216.277C292.741 215.167 292.901 213.919 292.901 213.401C292.901 208.119 288.582 203.8 283.3 203.8C278.018 203.8 273.699 208.119 273.699 213.401C273.699 213.919 273.86 215.167 274.128 216.277C274.262 216.833 274.433 217.399 274.645 217.838C274.75 218.056 274.881 218.278 275.049 218.456C275.214 218.631 275.482 218.83 275.846 218.83Z" fill="#004357"/>
</g>
<path d="M307.125 204.75C307.125 197.501 313.001 191.625 320.25 191.625V191.625C327.499 191.625 333.375 197.501 333.375 204.75V204.75C333.375 211.999 327.499 217.875 320.25 217.875V217.875C313.001 217.875 307.125 211.999 307.125 204.75V204.75Z" fill="#BED73C"/>
<circle cx="320.25" cy="204.75" r="13.125" fill="#BED73C"/>
<mask id="mask24_6262_106607" style="mask-type:alpha" maskUnits="userSpaceOnUse" x="307" y="188" width="27" height="30">
<path d="M307.125 188.641H333.375V204.749C333.375 211.998 327.499 217.874 320.25 217.874V217.874C313.001 217.874 307.125 211.998 307.125 204.749V188.641Z" fill="#D9D9D9"/>
</mask>
<g mask="url(#mask24_6262_106607)">
<path fill-rule="evenodd" clip-rule="evenodd" d="M324.531 202.031L323.793 202.695L324.694 203.114C328.646 204.949 331.321 208.897 331.321 213.401C331.321 214.545 330.87 216.384 330.103 217.938C329.721 218.71 329.28 219.372 328.812 219.832C328.342 220.294 327.902 220.499 327.504 220.499H312.596C312.199 220.499 311.759 220.294 311.288 219.832C310.821 219.372 310.38 218.71 309.998 217.938C309.23 216.384 308.78 214.545 308.78 213.401C308.78 208.897 311.454 204.949 315.407 203.114L316.308 202.695L315.57 202.031C314.196 200.795 313.253 199.026 313.253 197.003C313.253 193.191 316.239 190.205 320.05 190.205C323.862 190.205 326.848 193.191 326.848 197.003C326.848 199.026 325.904 200.795 324.531 202.031ZM320.05 191.874C317.154 191.874 314.922 194.106 314.922 197.003C314.922 199.899 317.154 202.131 320.05 202.131C322.947 202.131 325.179 199.899 325.179 197.003C325.179 194.106 322.947 191.874 320.05 191.874ZM312.596 218.83H327.504C327.869 218.83 328.137 218.631 328.302 218.456C328.47 218.278 328.601 218.056 328.706 217.838C328.918 217.399 329.089 216.833 329.223 216.277C329.491 215.167 329.651 213.919 329.651 213.401C329.651 208.119 325.332 203.8 320.05 203.8C314.768 203.8 310.449 208.119 310.449 213.401C310.449 213.919 310.61 215.167 310.878 216.277C311.012 216.833 311.183 217.399 311.395 217.838C311.5 218.056 311.631 218.278 311.799 218.456C311.964 218.631 312.232 218.83 312.596 218.83Z" fill="#004357"/>
</g>
<path d="M343.875 204.75C343.875 197.501 349.751 191.625 357 191.625V191.625C364.249 191.625 370.125 197.501 370.125 204.75V204.75C370.125 211.999 364.249 217.875 357 217.875V217.875C349.751 217.875 343.875 211.999 343.875 204.75V204.75Z" fill="#BED73C"/>
<circle cx="357" cy="204.75" r="13.125" fill="#BED73C"/>
<mask id="mask25_6262_106607" style="mask-type:alpha" maskUnits="userSpaceOnUse" x="343" y="188" width="28" height="30">
<path d="M343.875 188.641H370.125V204.749C370.125 211.998 364.249 217.874 357 217.874V217.874C349.751 217.874 343.875 211.998 343.875 204.749V188.641Z" fill="#D9D9D9"/>
</mask>
<g mask="url(#mask25_6262_106607)">
<path fill-rule="evenodd" clip-rule="evenodd" d="M361.281 202.031L360.543 202.695L361.444 203.114C365.396 204.949 368.071 208.897 368.071 213.401C368.071 214.545 367.62 216.384 366.853 217.938C366.471 218.71 366.03 219.372 365.562 219.832C365.092 220.294 364.652 220.499 364.254 220.499H349.346C348.949 220.499 348.509 220.294 348.038 219.832C347.571 219.372 347.13 218.71 346.748 217.938C345.98 216.384 345.53 214.545 345.53 213.401C345.53 208.897 348.204 204.949 352.157 203.114L353.058 202.695L352.32 202.031C350.946 200.795 350.003 199.026 350.003 197.003C350.003 193.191 352.989 190.205 356.8 190.205C360.612 190.205 363.598 193.191 363.598 197.003C363.598 199.026 362.654 200.795 361.281 202.031ZM356.8 191.874C353.904 191.874 351.672 194.106 351.672 197.003C351.672 199.899 353.904 202.131 356.8 202.131C359.697 202.131 361.929 199.899 361.929 197.003C361.929 194.106 359.697 191.874 356.8 191.874ZM349.346 218.83H364.254C364.619 218.83 364.887 218.631 365.052 218.456C365.22 218.278 365.351 218.056 365.456 217.838C365.668 217.399 365.839 216.833 365.973 216.277C366.241 215.167 366.401 213.919 366.401 213.401C366.401 208.119 362.082 203.8 356.8 203.8C351.518 203.8 347.199 208.119 347.199 213.401C347.199 213.919 347.36 215.167 347.628 216.277C347.762 216.833 347.933 217.399 348.145 217.838C348.25 218.056 348.381 218.278 348.549 218.456C348.714 218.631 348.982 218.83 349.346 218.83Z" fill="#004357"/>
</g>
<path d="M86.625 241.5C86.625 234.251 92.5013 228.375 99.75 228.375V228.375C106.999 228.375 112.875 234.251 112.875 241.5V241.5C112.875 248.749 106.999 254.625 99.75 254.625V254.625C92.5013 254.625 86.625 248.749 86.625 241.5V241.5Z" fill="#F3F4F6"/>
<circle cx="99.75" cy="241.5" r="13.125" fill="#F3F4F6"/>
<mask id="mask26_6262_106607" style="mask-type:alpha" maskUnits="userSpaceOnUse" x="86" y="225" width="27" height="30">
<path d="M86.625 225.391H112.875V241.499C112.875 248.748 106.999 254.624 99.75 254.624V254.624C92.5013 254.624 86.625 248.748 86.625 241.499V225.391Z" fill="#D9D9D9"/>
</mask>
<g mask="url(#mask26_6262_106607)">
<path fill-rule="evenodd" clip-rule="evenodd" d="M104.031 238.781L103.293 239.445L104.194 239.864C108.146 241.699 110.821 245.647 110.821 250.151C110.821 251.295 110.37 253.134 109.603 254.688C109.221 255.46 108.78 256.122 108.312 256.582C107.842 257.044 107.402 257.249 107.004 257.249H92.0964C91.6992 257.249 91.2589 257.044 90.7885 256.582C90.3207 256.122 89.8797 255.46 89.4982 254.688C88.7304 253.134 88.2803 251.295 88.2803 250.151C88.2803 245.647 90.9544 241.699 94.9071 239.864L95.8083 239.445L95.0698 238.781C93.6963 237.545 92.7527 235.776 92.7527 233.753C92.7527 229.941 95.7386 226.955 99.5504 226.955C103.362 226.955 106.348 229.941 106.348 233.753C106.348 235.776 105.404 237.545 104.031 238.781ZM99.5504 228.624C96.6536 228.624 94.4218 230.856 94.4218 233.753C94.4218 236.649 96.6536 238.881 99.5504 238.881C102.447 238.881 104.679 236.649 104.679 233.753C104.679 230.856 102.447 228.624 99.5504 228.624ZM92.0964 255.58H107.004C107.369 255.58 107.637 255.381 107.802 255.206C107.97 255.028 108.101 254.806 108.206 254.588C108.418 254.149 108.589 253.583 108.723 253.027C108.991 251.917 109.151 250.669 109.151 250.151C109.151 244.869 104.832 240.55 99.5504 240.55C94.2683 240.55 89.9494 244.869 89.9494 250.151C89.9494 250.669 90.1099 251.917 90.3776 253.027C90.512 253.583 90.6832 254.149 90.8948 254.588C90.9995 254.806 91.1309 255.028 91.2987 255.206C91.4639 255.381 91.7317 255.58 92.0964 255.58Z" fill="#004357"/>
</g>
<path d="M123.375 241.5C123.375 234.251 129.251 228.375 136.5 228.375V228.375C143.749 228.375 149.625 234.251 149.625 241.5V241.5C149.625 248.749 143.749 254.625 136.5 254.625V254.625C129.251 254.625 123.375 248.749 123.375 241.5V241.5Z" fill="#F3F4F6"/>
<circle cx="136.5" cy="241.5" r="13.125" fill="#F3F4F6"/>
<mask id="mask27_6262_106607" style="mask-type:alpha" maskUnits="userSpaceOnUse" x="123" y="225" width="27" height="30">
<path d="M123.375 225.391H149.625V241.499C149.625 248.748 143.749 254.624 136.5 254.624V254.624C129.251 254.624 123.375 248.748 123.375 241.499V225.391Z" fill="#D9D9D9"/>
</mask>
<g mask="url(#mask27_6262_106607)">
<path fill-rule="evenodd" clip-rule="evenodd" d="M140.781 238.781L140.043 239.445L140.944 239.864C144.896 241.699 147.571 245.647 147.571 250.151C147.571 251.295 147.12 253.134 146.353 254.688C145.971 255.46 145.53 256.122 145.062 256.582C144.592 257.044 144.152 257.249 143.754 257.249H128.846C128.449 257.249 128.009 257.044 127.538 256.582C127.071 256.122 126.63 255.46 126.248 254.688C125.48 253.134 125.03 251.295 125.03 250.151C125.03 245.647 127.704 241.699 131.657 239.864L132.558 239.445L131.82 238.781C130.446 237.545 129.503 235.776 129.503 233.753C129.503 229.941 132.489 226.955 136.3 226.955C140.112 226.955 143.098 229.941 143.098 233.753C143.098 235.776 142.154 237.545 140.781 238.781ZM136.3 228.624C133.404 228.624 131.172 230.856 131.172 233.753C131.172 236.649 133.404 238.881 136.3 238.881C139.197 238.881 141.429 236.649 141.429 233.753C141.429 230.856 139.197 228.624 136.3 228.624ZM128.846 255.58H143.754C144.119 255.58 144.387 255.381 144.552 255.206C144.72 255.028 144.851 254.806 144.956 254.588C145.168 254.149 145.339 253.583 145.473 253.027C145.741 251.917 145.901 250.669 145.901 250.151C145.901 244.869 141.582 240.55 136.3 240.55C131.018 240.55 126.699 244.869 126.699 250.151C126.699 250.669 126.86 251.917 127.128 253.027C127.262 253.583 127.433 254.149 127.645 254.588C127.75 254.806 127.881 255.028 128.049 255.206C128.214 255.381 128.482 255.58 128.846 255.58Z" fill="#004357"/>
</g>
<path d="M160.125 241.5C160.125 234.251 166.001 228.375 173.25 228.375V228.375C180.499 228.375 186.375 234.251 186.375 241.5V241.5C186.375 248.749 180.499 254.625 173.25 254.625V254.625C166.001 254.625 160.125 248.749 160.125 241.5V241.5Z" fill="#F3F4F6"/>
<circle cx="173.25" cy="241.5" r="13.125" fill="#F3F4F6"/>
<mask id="mask28_6262_106607" style="mask-type:alpha" maskUnits="userSpaceOnUse" x="160" y="225" width="27" height="30">
<path d="M160.125 225.391H186.375V241.499C186.375 248.748 180.499 254.624 173.25 254.624V254.624C166.001 254.624 160.125 248.748 160.125 241.499V225.391Z" fill="#D9D9D9"/>
</mask>
<g mask="url(#mask28_6262_106607)">
<path fill-rule="evenodd" clip-rule="evenodd" d="M177.531 238.781L176.793 239.445L177.694 239.864C181.646 241.699 184.321 245.647 184.321 250.151C184.321 251.295 183.87 253.134 183.103 254.688C182.721 255.46 182.28 256.122 181.812 256.582C181.342 257.044 180.902 257.249 180.504 257.249H165.596C165.199 257.249 164.759 257.044 164.288 256.582C163.821 256.122 163.38 255.46 162.998 254.688C162.23 253.134 161.78 251.295 161.78 250.151C161.78 245.647 164.454 241.699 168.407 239.864L169.308 239.445L168.57 238.781C167.196 237.545 166.253 235.776 166.253 233.753C166.253 229.941 169.239 226.955 173.05 226.955C176.862 226.955 179.848 229.941 179.848 233.753C179.848 235.776 178.904 237.545 177.531 238.781ZM173.05 228.624C170.154 228.624 167.922 230.856 167.922 233.753C167.922 236.649 170.154 238.881 173.05 238.881C175.947 238.881 178.179 236.649 178.179 233.753C178.179 230.856 175.947 228.624 173.05 228.624ZM165.596 255.58H180.504C180.869 255.58 181.137 255.381 181.302 255.206C181.47 255.028 181.601 254.806 181.706 254.588C181.918 254.149 182.089 253.583 182.223 253.027C182.491 251.917 182.651 250.669 182.651 250.151C182.651 244.869 178.332 240.55 173.05 240.55C167.768 240.55 163.449 244.869 163.449 250.151C163.449 250.669 163.61 251.917 163.878 253.027C164.012 253.583 164.183 254.149 164.395 254.588C164.5 254.806 164.631 255.028 164.799 255.206C164.964 255.381 165.232 255.58 165.596 255.58Z" fill="#004357"/>
</g>
<path d="M196.875 241.5C196.875 234.251 202.751 228.375 210 228.375V228.375C217.249 228.375 223.125 234.251 223.125 241.5V241.5C223.125 248.749 217.249 254.625 210 254.625V254.625C202.751 254.625 196.875 248.749 196.875 241.5V241.5Z" fill="#F3F4F6"/>
<circle cx="210" cy="241.5" r="13.125" fill="#F3F4F6"/>
<mask id="mask29_6262_106607" style="mask-type:alpha" maskUnits="userSpaceOnUse" x="196" y="225" width="28" height="30">
<path d="M196.875 225.391H223.125V241.499C223.125 248.748 217.249 254.624 210 254.624V254.624C202.751 254.624 196.875 248.748 196.875 241.499V225.391Z" fill="#D9D9D9"/>
</mask>
<g mask="url(#mask29_6262_106607)">
<path fill-rule="evenodd" clip-rule="evenodd" d="M214.281 238.781L213.543 239.445L214.444 239.864C218.396 241.699 221.071 245.647 221.071 250.151C221.071 251.295 220.62 253.134 219.853 254.688C219.471 255.46 219.03 256.122 218.562 256.582C218.092 257.044 217.652 257.249 217.254 257.249H202.346C201.949 257.249 201.509 257.044 201.038 256.582C200.571 256.122 200.13 255.46 199.748 254.688C198.98 253.134 198.53 251.295 198.53 250.151C198.53 245.647 201.204 241.699 205.157 239.864L206.058 239.445L205.32 238.781C203.946 237.545 203.003 235.776 203.003 233.753C203.003 229.941 205.989 226.955 209.8 226.955C213.612 226.955 216.598 229.941 216.598 233.753C216.598 235.776 215.654 237.545 214.281 238.781ZM209.8 228.624C206.904 228.624 204.672 230.856 204.672 233.753C204.672 236.649 206.904 238.881 209.8 238.881C212.697 238.881 214.929 236.649 214.929 233.753C214.929 230.856 212.697 228.624 209.8 228.624ZM202.346 255.58H217.254C217.619 255.58 217.887 255.381 218.052 255.206C218.22 255.028 218.351 254.806 218.456 254.588C218.668 254.149 218.839 253.583 218.973 253.027C219.241 251.917 219.401 250.669 219.401 250.151C219.401 244.869 215.082 240.55 209.8 240.55C204.518 240.55 200.199 244.869 200.199 250.151C200.199 250.669 200.36 251.917 200.628 253.027C200.762 253.583 200.933 254.149 201.145 254.588C201.25 254.806 201.381 255.028 201.549 255.206C201.714 255.381 201.982 255.58 202.346 255.58Z" fill="#004357"/>
</g>
<path d="M233.625 241.5C233.625 234.251 239.501 228.375 246.75 228.375V228.375C253.999 228.375 259.875 234.251 259.875 241.5V241.5C259.875 248.749 253.999 254.625 246.75 254.625V254.625C239.501 254.625 233.625 248.749 233.625 241.5V241.5Z" fill="#F3F4F6"/>
<circle cx="246.75" cy="241.5" r="13.125" fill="#F3F4F6"/>
<mask id="mask30_6262_106607" style="mask-type:alpha" maskUnits="userSpaceOnUse" x="233" y="225" width="27" height="30">
<path d="M233.625 225.391H259.875V241.499C259.875 248.748 253.999 254.624 246.75 254.624V254.624C239.501 254.624 233.625 248.748 233.625 241.499V225.391Z" fill="#D9D9D9"/>
</mask>
<g mask="url(#mask30_6262_106607)">
<path fill-rule="evenodd" clip-rule="evenodd" d="M251.031 238.781L250.293 239.445L251.194 239.864C255.146 241.699 257.821 245.647 257.821 250.151C257.821 251.295 257.37 253.134 256.603 254.688C256.221 255.46 255.78 256.122 255.312 256.582C254.842 257.044 254.402 257.249 254.004 257.249H239.096C238.699 257.249 238.259 257.044 237.788 256.582C237.321 256.122 236.88 255.46 236.498 254.688C235.73 253.134 235.28 251.295 235.28 250.151C235.28 245.647 237.954 241.699 241.907 239.864L242.808 239.445L242.07 238.781C240.696 237.545 239.753 235.776 239.753 233.753C239.753 229.941 242.739 226.955 246.55 226.955C250.362 226.955 253.348 229.941 253.348 233.753C253.348 235.776 252.404 237.545 251.031 238.781ZM246.55 228.624C243.654 228.624 241.422 230.856 241.422 233.753C241.422 236.649 243.654 238.881 246.55 238.881C249.447 238.881 251.679 236.649 251.679 233.753C251.679 230.856 249.447 228.624 246.55 228.624ZM239.096 255.58H254.004C254.369 255.58 254.637 255.381 254.802 255.206C254.97 255.028 255.101 254.806 255.206 254.588C255.418 254.149 255.589 253.583 255.723 253.027C255.991 251.917 256.151 250.669 256.151 250.151C256.151 244.869 251.832 240.55 246.55 240.55C241.268 240.55 236.949 244.869 236.949 250.151C236.949 250.669 237.11 251.917 237.378 253.027C237.512 253.583 237.683 254.149 237.895 254.588C238 254.806 238.131 255.028 238.299 255.206C238.464 255.381 238.732 255.58 239.096 255.58Z" fill="#004357"/>
</g>
<path d="M270.375 241.5C270.375 234.251 276.251 228.375 283.5 228.375V228.375C290.749 228.375 296.625 234.251 296.625 241.5V241.5C296.625 248.749 290.749 254.625 283.5 254.625V254.625C276.251 254.625 270.375 248.749 270.375 241.5V241.5Z" fill="#F3F4F6"/>
<circle cx="283.5" cy="241.5" r="13.125" fill="#F3F4F6"/>
<mask id="mask31_6262_106607" style="mask-type:alpha" maskUnits="userSpaceOnUse" x="270" y="225" width="27" height="30">
<path d="M270.375 225.391H296.625V241.499C296.625 248.748 290.749 254.624 283.5 254.624V254.624C276.251 254.624 270.375 248.748 270.375 241.499V225.391Z" fill="#D9D9D9"/>
</mask>
<g mask="url(#mask31_6262_106607)">
<path fill-rule="evenodd" clip-rule="evenodd" d="M287.781 238.781L287.043 239.445L287.944 239.864C291.896 241.699 294.571 245.647 294.571 250.151C294.571 251.295 294.12 253.134 293.353 254.688C292.971 255.46 292.53 256.122 292.062 256.582C291.592 257.044 291.152 257.249 290.754 257.249H275.846C275.449 257.249 275.009 257.044 274.538 256.582C274.071 256.122 273.63 255.46 273.248 254.688C272.48 253.134 272.03 251.295 272.03 250.151C272.03 245.647 274.704 241.699 278.657 239.864L279.558 239.445L278.82 238.781C277.446 237.545 276.503 235.776 276.503 233.753C276.503 229.941 279.489 226.955 283.3 226.955C287.112 226.955 290.098 229.941 290.098 233.753C290.098 235.776 289.154 237.545 287.781 238.781ZM283.3 228.624C280.404 228.624 278.172 230.856 278.172 233.753C278.172 236.649 280.404 238.881 283.3 238.881C286.197 238.881 288.429 236.649 288.429 233.753C288.429 230.856 286.197 228.624 283.3 228.624ZM275.846 255.58H290.754C291.119 255.58 291.387 255.381 291.552 255.206C291.72 255.028 291.851 254.806 291.956 254.588C292.168 254.149 292.339 253.583 292.473 253.027C292.741 251.917 292.901 250.669 292.901 250.151C292.901 244.869 288.582 240.55 283.3 240.55C278.018 240.55 273.699 244.869 273.699 250.151C273.699 250.669 273.86 251.917 274.128 253.027C274.262 253.583 274.433 254.149 274.645 254.588C274.75 254.806 274.881 255.028 275.049 255.206C275.214 255.381 275.482 255.58 275.846 255.58Z" fill="#004357"/>
</g>
<path d="M307.125 241.5C307.125 234.251 313.001 228.375 320.25 228.375V228.375C327.499 228.375 333.375 234.251 333.375 241.5V241.5C333.375 248.749 327.499 254.625 320.25 254.625V254.625C313.001 254.625 307.125 248.749 307.125 241.5V241.5Z" fill="#F3F4F6"/>
<circle cx="320.25" cy="241.5" r="13.125" fill="#F3F4F6"/>
<mask id="mask32_6262_106607" style="mask-type:alpha" maskUnits="userSpaceOnUse" x="307" y="225" width="27" height="30">
<path d="M307.125 225.391H333.375V241.499C333.375 248.748 327.499 254.624 320.25 254.624V254.624C313.001 254.624 307.125 248.748 307.125 241.499V225.391Z" fill="#D9D9D9"/>
</mask>
<g mask="url(#mask32_6262_106607)">
<path fill-rule="evenodd" clip-rule="evenodd" d="M324.531 238.781L323.793 239.445L324.694 239.864C328.646 241.699 331.321 245.647 331.321 250.151C331.321 251.295 330.87 253.134 330.103 254.688C329.721 255.46 329.28 256.122 328.812 256.582C328.342 257.044 327.902 257.249 327.504 257.249H312.596C312.199 257.249 311.759 257.044 311.288 256.582C310.821 256.122 310.38 255.46 309.998 254.688C309.23 253.134 308.78 251.295 308.78 250.151C308.78 245.647 311.454 241.699 315.407 239.864L316.308 239.445L315.57 238.781C314.196 237.545 313.253 235.776 313.253 233.753C313.253 229.941 316.239 226.955 320.05 226.955C323.862 226.955 326.848 229.941 326.848 233.753C326.848 235.776 325.904 237.545 324.531 238.781ZM320.05 228.624C317.154 228.624 314.922 230.856 314.922 233.753C314.922 236.649 317.154 238.881 320.05 238.881C322.947 238.881 325.179 236.649 325.179 233.753C325.179 230.856 322.947 228.624 320.05 228.624ZM312.596 255.58H327.504C327.869 255.58 328.137 255.381 328.302 255.206C328.47 255.028 328.601 254.806 328.706 254.588C328.918 254.149 329.089 253.583 329.223 253.027C329.491 251.917 329.651 250.669 329.651 250.151C329.651 244.869 325.332 240.55 320.05 240.55C314.768 240.55 310.449 244.869 310.449 250.151C310.449 250.669 310.61 251.917 310.878 253.027C311.012 253.583 311.183 254.149 311.395 254.588C311.5 254.806 311.631 255.028 311.799 255.206C311.964 255.381 312.232 255.58 312.596 255.58Z" fill="#004357"/>
</g>
<path d="M343.875 241.5C343.875 234.251 349.751 228.375 357 228.375V228.375C364.249 228.375 370.125 234.251 370.125 241.5V241.5C370.125 248.749 364.249 254.625 357 254.625V254.625C349.751 254.625 343.875 248.749 343.875 241.5V241.5Z" fill="#F3F4F6"/>
<circle cx="357" cy="241.5" r="13.125" fill="#F3F4F6"/>
<mask id="mask33_6262_106607" style="mask-type:alpha" maskUnits="userSpaceOnUse" x="343" y="225" width="28" height="30">
<path d="M343.875 225.391H370.125V241.499C370.125 248.748 364.249 254.624 357 254.624V254.624C349.751 254.624 343.875 248.748 343.875 241.499V225.391Z" fill="#D9D9D9"/>
</mask>
<g mask="url(#mask33_6262_106607)">
<path fill-rule="evenodd" clip-rule="evenodd" d="M361.281 238.781L360.543 239.445L361.444 239.864C365.396 241.699 368.071 245.647 368.071 250.151C368.071 251.295 367.62 253.134 366.853 254.688C366.471 255.46 366.03 256.122 365.562 256.582C365.092 257.044 364.652 257.249 364.254 257.249H349.346C348.949 257.249 348.509 257.044 348.038 256.582C347.571 256.122 347.13 255.46 346.748 254.688C345.98 253.134 345.53 251.295 345.53 250.151C345.53 245.647 348.204 241.699 352.157 239.864L353.058 239.445L352.32 238.781C350.946 237.545 350.003 235.776 350.003 233.753C350.003 229.941 352.989 226.955 356.8 226.955C360.612 226.955 363.598 229.941 363.598 233.753C363.598 235.776 362.654 237.545 361.281 238.781ZM356.8 228.624C353.904 228.624 351.672 230.856 351.672 233.753C351.672 236.649 353.904 238.881 356.8 238.881C359.697 238.881 361.929 236.649 361.929 233.753C361.929 230.856 359.697 228.624 356.8 228.624ZM349.346 255.58H364.254C364.619 255.58 364.887 255.381 365.052 255.206C365.22 255.028 365.351 254.806 365.456 254.588C365.668 254.149 365.839 253.583 365.973 253.027C366.241 251.917 366.401 250.669 366.401 250.151C366.401 244.869 362.082 240.55 356.8 240.55C351.518 240.55 347.199 244.869 347.199 250.151C347.199 250.669 347.36 251.917 347.628 253.027C347.762 253.583 347.933 254.149 348.145 254.588C348.25 254.806 348.381 255.028 348.549 255.206C348.714 255.381 348.982 255.58 349.346 255.58Z" fill="#004357"/>
</g>
<path d="M419.67 180.611C419.984 180.793 420.386 180.686 420.567 180.372L423.528 175.262C423.71 174.949 423.603 174.547 423.29 174.365C422.976 174.184 422.575 174.291 422.393 174.604L419.761 179.147L415.218 176.514C414.905 176.333 414.503 176.44 414.321 176.753C414.14 177.067 414.247 177.468 414.56 177.65L419.67 180.611ZM382.195 157.538C391.028 155.68 399.05 156.621 405.48 160.357C411.905 164.09 416.821 170.659 419.365 180.212L420.634 179.875C418.018 170.05 412.918 163.161 406.14 159.222C399.367 155.288 390.999 154.345 381.924 156.254L382.195 157.538Z" fill="#004357"/>
</svg>
