<svg width="640" height="388" viewBox="0 0 640 388" fill="none" xmlns="http://www.w3.org/2000/svg">
<path d="M1 98C1 86.9543 9.95431 78 21 78V78C32.0457 78 41 86.9543 41 98V98C41 109.046 32.0457 118 21 118V118C9.95431 118 1 109.046 1 98V98Z" fill="#BED73C"/>
<circle cx="21" cy="98" r="20" fill="#BED73C"/>
<mask id="mask0_6262_112196" style="mask-type:alpha" maskUnits="userSpaceOnUse" x="1" y="73" width="40" height="45">
<path d="M1 73.4531H41V97.9988C41 109.044 32.0457 117.999 21 117.999V117.999C9.95431 117.999 1 109.044 1 97.9988V73.4531Z" fill="#D9D9D9"/>
</mask>
<g mask="url(#mask0_6262_112196)">
<path fill-rule="evenodd" clip-rule="evenodd" d="M27.5226 93.8563L26.3973 94.8691L27.7705 95.5067C33.7937 98.3032 37.8685 104.32 37.8685 111.183C37.8685 112.926 37.1826 115.728 36.0127 118.096C35.4314 119.272 34.7594 120.281 34.0465 120.982C33.3296 121.687 32.6587 121.998 32.0535 121.998H9.33655C8.73133 121.998 8.06039 121.687 7.34347 120.982C6.63063 120.281 5.95863 119.272 5.37734 118.096C4.20742 115.728 3.52148 112.926 3.52148 111.183C3.52148 104.32 7.5963 98.3032 13.6195 95.5067L14.9927 94.8691L13.8674 93.8563C11.7745 91.9727 10.3366 89.2781 10.3366 86.1944C10.3366 80.3859 14.8866 75.8359 20.695 75.8359C26.5035 75.8359 31.0535 80.3859 31.0535 86.1944C31.0535 89.2781 29.6155 91.9727 27.5226 93.8563ZM20.695 78.3793C16.2808 78.3793 12.8799 81.7802 12.8799 86.1944C12.8799 90.6085 16.2808 94.0095 20.695 94.0095C25.1092 94.0095 28.5101 90.6085 28.5101 86.1944C28.5101 81.7802 25.1092 78.3793 20.695 78.3793ZM9.33655 119.455H32.0535C32.6092 119.455 33.0173 119.151 33.269 118.885C33.5247 118.615 33.7249 118.275 33.8845 117.944C34.2069 117.274 34.4678 116.413 34.6725 115.565C35.0805 113.874 35.3251 111.972 35.3251 111.183C35.3251 103.134 28.7439 96.5528 20.695 96.5528C12.6461 96.5528 6.06486 103.134 6.06486 111.183C6.06486 111.972 6.30952 113.874 6.71748 115.565C6.92219 116.413 7.18316 117.274 7.50552 117.944C7.66513 118.275 7.86528 118.615 8.12101 118.885C8.37275 119.151 8.78076 119.455 9.33655 119.455Z" fill="#004357"/>
</g>
<path d="M57 98C57 86.9543 65.9543 78 77 78V78C88.0457 78 97 86.9543 97 98V98C97 109.046 88.0457 118 77 118V118C65.9543 118 57 109.046 57 98V98Z" fill="#BED73C"/>
<circle cx="77" cy="98" r="20" fill="#BED73C"/>
<mask id="mask1_6262_112196" style="mask-type:alpha" maskUnits="userSpaceOnUse" x="57" y="73" width="40" height="45">
<path d="M57 73.4531H97V97.9988C97 109.044 88.0457 117.999 77 117.999V117.999C65.9543 117.999 57 109.044 57 97.9988V73.4531Z" fill="#D9D9D9"/>
</mask>
<g mask="url(#mask1_6262_112196)">
<path fill-rule="evenodd" clip-rule="evenodd" d="M83.5226 93.8563L82.3973 94.8691L83.7705 95.5067C89.7937 98.3032 93.8685 104.32 93.8685 111.183C93.8685 112.926 93.1826 115.728 92.0127 118.096C91.4314 119.272 90.7594 120.281 90.0465 120.982C89.3296 121.687 88.6587 121.998 88.0535 121.998H65.3366C64.7313 121.998 64.0604 121.687 63.3435 120.982C62.6306 120.281 61.9586 119.272 61.3773 118.096C60.2074 115.728 59.5215 112.926 59.5215 111.183C59.5215 104.32 63.5963 98.3032 69.6195 95.5067L70.9927 94.8691L69.8674 93.8563C67.7745 91.9727 66.3366 89.2781 66.3366 86.1944C66.3366 80.3859 70.8866 75.8359 76.695 75.8359C82.5035 75.8359 87.0535 80.3859 87.0535 86.1944C87.0535 89.2781 85.6155 91.9727 83.5226 93.8563ZM76.695 78.3793C72.2808 78.3793 68.8799 81.7802 68.8799 86.1944C68.8799 90.6085 72.2808 94.0095 76.695 94.0095C81.1092 94.0095 84.5101 90.6085 84.5101 86.1944C84.5101 81.7802 81.1092 78.3793 76.695 78.3793ZM65.3366 119.455H88.0535C88.6092 119.455 89.0173 119.151 89.269 118.885C89.5247 118.615 89.7249 118.275 89.8845 117.944C90.2069 117.274 90.4678 116.413 90.6725 115.565C91.0805 113.874 91.3251 111.972 91.3251 111.183C91.3251 103.134 84.7439 96.5528 76.695 96.5528C68.6461 96.5528 62.0649 103.134 62.0649 111.183C62.0649 111.972 62.3095 113.874 62.7175 115.565C62.9222 116.413 63.1832 117.274 63.5055 117.944C63.6651 118.275 63.8653 118.615 64.121 118.885C64.3727 119.151 64.7808 119.455 65.3366 119.455Z" fill="#004357"/>
</g>
<path d="M113 98C113 86.9543 121.954 78 133 78V78C144.046 78 153 86.9543 153 98V98C153 109.046 144.046 118 133 118V118C121.954 118 113 109.046 113 98V98Z" fill="#BED73C"/>
<circle cx="133" cy="98" r="20" fill="#BED73C"/>
<mask id="mask2_6262_112196" style="mask-type:alpha" maskUnits="userSpaceOnUse" x="113" y="73" width="40" height="45">
<path d="M113 73.4531H153V97.9988C153 109.044 144.046 117.999 133 117.999V117.999C121.954 117.999 113 109.044 113 97.9988V73.4531Z" fill="#D9D9D9"/>
</mask>
<g mask="url(#mask2_6262_112196)">
<path fill-rule="evenodd" clip-rule="evenodd" d="M139.523 93.8563L138.397 94.8691L139.77 95.5067C145.794 98.3032 149.869 104.32 149.869 111.183C149.869 112.926 149.183 115.728 148.013 118.096C147.431 119.272 146.759 120.281 146.047 120.982C145.33 121.687 144.659 121.998 144.053 121.998H121.337C120.731 121.998 120.06 121.687 119.343 120.982C118.631 120.281 117.959 119.272 117.377 118.096C116.207 115.728 115.521 112.926 115.521 111.183C115.521 104.32 119.596 98.3032 125.62 95.5067L126.993 94.8691L125.867 93.8563C123.774 91.9727 122.337 89.2781 122.337 86.1944C122.337 80.3859 126.887 75.8359 132.695 75.8359C138.503 75.8359 143.053 80.3859 143.053 86.1944C143.053 89.2781 141.616 91.9727 139.523 93.8563ZM132.695 78.3793C128.281 78.3793 124.88 81.7802 124.88 86.1944C124.88 90.6085 128.281 94.0095 132.695 94.0095C137.109 94.0095 140.51 90.6085 140.51 86.1944C140.51 81.7802 137.109 78.3793 132.695 78.3793ZM121.337 119.455H144.053C144.609 119.455 145.017 119.151 145.269 118.885C145.525 118.615 145.725 118.275 145.884 117.944C146.207 117.274 146.468 116.413 146.673 115.565C147.08 113.874 147.325 111.972 147.325 111.183C147.325 103.134 140.744 96.5528 132.695 96.5528C124.646 96.5528 118.065 103.134 118.065 111.183C118.065 111.972 118.31 113.874 118.717 115.565C118.922 116.413 119.183 117.274 119.506 117.944C119.665 118.275 119.865 118.615 120.121 118.885C120.373 119.151 120.781 119.455 121.337 119.455Z" fill="#004357"/>
</g>
<path d="M169 98C169 86.9543 177.954 78 189 78V78C200.046 78 209 86.9543 209 98V98C209 109.046 200.046 118 189 118V118C177.954 118 169 109.046 169 98V98Z" fill="#BED73C"/>
<circle cx="189" cy="98" r="20" fill="#BED73C"/>
<mask id="mask3_6262_112196" style="mask-type:alpha" maskUnits="userSpaceOnUse" x="169" y="73" width="40" height="45">
<path d="M169 73.4531H209V97.9988C209 109.044 200.046 117.999 189 117.999V117.999C177.954 117.999 169 109.044 169 97.9988V73.4531Z" fill="#D9D9D9"/>
</mask>
<g mask="url(#mask3_6262_112196)">
<path fill-rule="evenodd" clip-rule="evenodd" d="M195.523 93.8563L194.397 94.8691L195.77 95.5067C201.794 98.3032 205.869 104.32 205.869 111.183C205.869 112.926 205.183 115.728 204.013 118.096C203.431 119.272 202.759 120.281 202.047 120.982C201.33 121.687 200.659 121.998 200.053 121.998H177.337C176.731 121.998 176.06 121.687 175.343 120.982C174.631 120.281 173.959 119.272 173.377 118.096C172.207 115.728 171.521 112.926 171.521 111.183C171.521 104.32 175.596 98.3032 181.62 95.5067L182.993 94.8691L181.867 93.8563C179.774 91.9727 178.337 89.2781 178.337 86.1944C178.337 80.3859 182.887 75.8359 188.695 75.8359C194.503 75.8359 199.053 80.3859 199.053 86.1944C199.053 89.2781 197.616 91.9727 195.523 93.8563ZM188.695 78.3793C184.281 78.3793 180.88 81.7802 180.88 86.1944C180.88 90.6085 184.281 94.0095 188.695 94.0095C193.109 94.0095 196.51 90.6085 196.51 86.1944C196.51 81.7802 193.109 78.3793 188.695 78.3793ZM177.337 119.455H200.053C200.609 119.455 201.017 119.151 201.269 118.885C201.525 118.615 201.725 118.275 201.884 117.944C202.207 117.274 202.468 116.413 202.673 115.565C203.08 113.874 203.325 111.972 203.325 111.183C203.325 103.134 196.744 96.5528 188.695 96.5528C180.646 96.5528 174.065 103.134 174.065 111.183C174.065 111.972 174.31 113.874 174.717 115.565C174.922 116.413 175.183 117.274 175.506 117.944C175.665 118.275 175.865 118.615 176.121 118.885C176.373 119.151 176.781 119.455 177.337 119.455Z" fill="#004357"/>
</g>
<path d="M225 98C225 86.9543 233.954 78 245 78V78C256.046 78 265 86.9543 265 98V98C265 109.046 256.046 118 245 118V118C233.954 118 225 109.046 225 98V98Z" fill="#BED73C"/>
<circle cx="245" cy="98" r="20" fill="#BED73C"/>
<mask id="mask4_6262_112196" style="mask-type:alpha" maskUnits="userSpaceOnUse" x="225" y="73" width="40" height="45">
<path d="M225 73.4531H265V97.9988C265 109.044 256.046 117.999 245 117.999V117.999C233.954 117.999 225 109.044 225 97.9988V73.4531Z" fill="#D9D9D9"/>
</mask>
<g mask="url(#mask4_6262_112196)">
<path fill-rule="evenodd" clip-rule="evenodd" d="M251.523 93.8563L250.397 94.8691L251.77 95.5067C257.794 98.3032 261.869 104.32 261.869 111.183C261.869 112.926 261.183 115.728 260.013 118.096C259.431 119.272 258.759 120.281 258.047 120.982C257.33 121.687 256.659 121.998 256.053 121.998H233.337C232.731 121.998 232.06 121.687 231.343 120.982C230.631 120.281 229.959 119.272 229.377 118.096C228.207 115.728 227.521 112.926 227.521 111.183C227.521 104.32 231.596 98.3032 237.62 95.5067L238.993 94.8691L237.867 93.8563C235.774 91.9727 234.337 89.2781 234.337 86.1944C234.337 80.3859 238.887 75.8359 244.695 75.8359C250.503 75.8359 255.053 80.3859 255.053 86.1944C255.053 89.2781 253.616 91.9727 251.523 93.8563ZM244.695 78.3793C240.281 78.3793 236.88 81.7802 236.88 86.1944C236.88 90.6085 240.281 94.0095 244.695 94.0095C249.109 94.0095 252.51 90.6085 252.51 86.1944C252.51 81.7802 249.109 78.3793 244.695 78.3793ZM233.337 119.455H256.053C256.609 119.455 257.017 119.151 257.269 118.885C257.525 118.615 257.725 118.275 257.884 117.944C258.207 117.274 258.468 116.413 258.673 115.565C259.08 113.874 259.325 111.972 259.325 111.183C259.325 103.134 252.744 96.5528 244.695 96.5528C236.646 96.5528 230.065 103.134 230.065 111.183C230.065 111.972 230.31 113.874 230.717 115.565C230.922 116.413 231.183 117.274 231.506 117.944C231.665 118.275 231.865 118.615 232.121 118.885C232.373 119.151 232.781 119.455 233.337 119.455Z" fill="#004357"/>
</g>
<path d="M281 98C281 86.9543 289.954 78 301 78V78C312.046 78 321 86.9543 321 98V98C321 109.046 312.046 118 301 118V118C289.954 118 281 109.046 281 98V98Z" fill="#F3F4F6"/>
<circle cx="301" cy="98" r="20" fill="#F3F4F6"/>
<mask id="mask5_6262_112196" style="mask-type:alpha" maskUnits="userSpaceOnUse" x="281" y="73" width="40" height="45">
<path d="M281 73.4531H321V97.9988C321 109.044 312.046 117.999 301 117.999V117.999C289.954 117.999 281 109.044 281 97.9988V73.4531Z" fill="#D9D9D9"/>
</mask>
<g mask="url(#mask5_6262_112196)">
<path fill-rule="evenodd" clip-rule="evenodd" d="M307.523 93.8563L306.397 94.8691L307.77 95.5067C313.794 98.3032 317.869 104.32 317.869 111.183C317.869 112.926 317.183 115.728 316.013 118.096C315.431 119.272 314.759 120.281 314.047 120.982C313.33 121.687 312.659 121.998 312.053 121.998H289.337C288.731 121.998 288.06 121.687 287.343 120.982C286.631 120.281 285.959 119.272 285.377 118.096C284.207 115.728 283.521 112.926 283.521 111.183C283.521 104.32 287.596 98.3032 293.62 95.5067L294.993 94.8691L293.867 93.8563C291.774 91.9727 290.337 89.2781 290.337 86.1944C290.337 80.3859 294.887 75.8359 300.695 75.8359C306.503 75.8359 311.053 80.3859 311.053 86.1944C311.053 89.2781 309.616 91.9727 307.523 93.8563ZM300.695 78.3793C296.281 78.3793 292.88 81.7802 292.88 86.1944C292.88 90.6085 296.281 94.0095 300.695 94.0095C305.109 94.0095 308.51 90.6085 308.51 86.1944C308.51 81.7802 305.109 78.3793 300.695 78.3793ZM289.337 119.455H312.053C312.609 119.455 313.017 119.151 313.269 118.885C313.525 118.615 313.725 118.275 313.884 117.944C314.207 117.274 314.468 116.413 314.673 115.565C315.08 113.874 315.325 111.972 315.325 111.183C315.325 103.134 308.744 96.5528 300.695 96.5528C292.646 96.5528 286.065 103.134 286.065 111.183C286.065 111.972 286.31 113.874 286.717 115.565C286.922 116.413 287.183 117.274 287.506 117.944C287.665 118.275 287.865 118.615 288.121 118.885C288.373 119.151 288.781 119.455 289.337 119.455Z" fill="#004357"/>
</g>
<path d="M337 98C337 86.9543 345.954 78 357 78V78C368.046 78 377 86.9543 377 98V98C377 109.046 368.046 118 357 118V118C345.954 118 337 109.046 337 98V98Z" fill="#F3F4F6"/>
<circle cx="357" cy="98" r="20" fill="#F3F4F6"/>
<mask id="mask6_6262_112196" style="mask-type:alpha" maskUnits="userSpaceOnUse" x="337" y="73" width="40" height="45">
<path d="M337 73.4531H377V97.9988C377 109.044 368.046 117.999 357 117.999V117.999C345.954 117.999 337 109.044 337 97.9988V73.4531Z" fill="#D9D9D9"/>
</mask>
<g mask="url(#mask6_6262_112196)">
<path fill-rule="evenodd" clip-rule="evenodd" d="M363.523 93.8563L362.397 94.8691L363.77 95.5067C369.794 98.3032 373.869 104.32 373.869 111.183C373.869 112.926 373.183 115.728 372.013 118.096C371.431 119.272 370.759 120.281 370.047 120.982C369.33 121.687 368.659 121.998 368.053 121.998H345.337C344.731 121.998 344.06 121.687 343.343 120.982C342.631 120.281 341.959 119.272 341.377 118.096C340.207 115.728 339.521 112.926 339.521 111.183C339.521 104.32 343.596 98.3032 349.62 95.5067L350.993 94.8691L349.867 93.8563C347.774 91.9727 346.337 89.2781 346.337 86.1944C346.337 80.3859 350.887 75.8359 356.695 75.8359C362.503 75.8359 367.053 80.3859 367.053 86.1944C367.053 89.2781 365.616 91.9727 363.523 93.8563ZM356.695 78.3793C352.281 78.3793 348.88 81.7802 348.88 86.1944C348.88 90.6085 352.281 94.0095 356.695 94.0095C361.109 94.0095 364.51 90.6085 364.51 86.1944C364.51 81.7802 361.109 78.3793 356.695 78.3793ZM345.337 119.455H368.053C368.609 119.455 369.017 119.151 369.269 118.885C369.525 118.615 369.725 118.275 369.884 117.944C370.207 117.274 370.468 116.413 370.673 115.565C371.08 113.874 371.325 111.972 371.325 111.183C371.325 103.134 364.744 96.5528 356.695 96.5528C348.646 96.5528 342.065 103.134 342.065 111.183C342.065 111.972 342.31 113.874 342.717 115.565C342.922 116.413 343.183 117.274 343.506 117.944C343.665 118.275 343.865 118.615 344.121 118.885C344.373 119.151 344.781 119.455 345.337 119.455Z" fill="#004357"/>
</g>
<path d="M393 98C393 86.9543 401.954 78 413 78V78C424.046 78 433 86.9543 433 98V98C433 109.046 424.046 118 413 118V118C401.954 118 393 109.046 393 98V98Z" fill="#F3F4F6"/>
<circle cx="413" cy="98" r="20" fill="#F3F4F6"/>
<mask id="mask7_6262_112196" style="mask-type:alpha" maskUnits="userSpaceOnUse" x="393" y="73" width="40" height="45">
<path d="M393 73.4531H433V97.9988C433 109.044 424.046 117.999 413 117.999V117.999C401.954 117.999 393 109.044 393 97.9988V73.4531Z" fill="#D9D9D9"/>
</mask>
<g mask="url(#mask7_6262_112196)">
<path fill-rule="evenodd" clip-rule="evenodd" d="M419.523 93.8563L418.397 94.8691L419.77 95.5067C425.794 98.3032 429.869 104.32 429.869 111.183C429.869 112.926 429.183 115.728 428.013 118.096C427.431 119.272 426.759 120.281 426.047 120.982C425.33 121.687 424.659 121.998 424.053 121.998H401.337C400.731 121.998 400.06 121.687 399.343 120.982C398.631 120.281 397.959 119.272 397.377 118.096C396.207 115.728 395.521 112.926 395.521 111.183C395.521 104.32 399.596 98.3032 405.62 95.5067L406.993 94.8691L405.867 93.8563C403.774 91.9727 402.337 89.2781 402.337 86.1944C402.337 80.3859 406.887 75.8359 412.695 75.8359C418.503 75.8359 423.053 80.3859 423.053 86.1944C423.053 89.2781 421.616 91.9727 419.523 93.8563ZM412.695 78.3793C408.281 78.3793 404.88 81.7802 404.88 86.1944C404.88 90.6085 408.281 94.0095 412.695 94.0095C417.109 94.0095 420.51 90.6085 420.51 86.1944C420.51 81.7802 417.109 78.3793 412.695 78.3793ZM401.337 119.455H424.053C424.609 119.455 425.017 119.151 425.269 118.885C425.525 118.615 425.725 118.275 425.884 117.944C426.207 117.274 426.468 116.413 426.673 115.565C427.08 113.874 427.325 111.972 427.325 111.183C427.325 103.134 420.744 96.5528 412.695 96.5528C404.646 96.5528 398.065 103.134 398.065 111.183C398.065 111.972 398.31 113.874 398.717 115.565C398.922 116.413 399.183 117.274 399.506 117.944C399.665 118.275 399.865 118.615 400.121 118.885C400.373 119.151 400.781 119.455 401.337 119.455Z" fill="#004357"/>
</g>
<path d="M449 98C449 86.9543 457.954 78 469 78V78C480.046 78 489 86.9543 489 98V98C489 109.046 480.046 118 469 118V118C457.954 118 449 109.046 449 98V98Z" fill="#F3F4F6"/>
<circle cx="469" cy="98" r="20" fill="#F3F4F6"/>
<mask id="mask8_6262_112196" style="mask-type:alpha" maskUnits="userSpaceOnUse" x="449" y="73" width="40" height="45">
<path d="M449 73.4531H489V97.9988C489 109.044 480.046 117.999 469 117.999V117.999C457.954 117.999 449 109.044 449 97.9988V73.4531Z" fill="#D9D9D9"/>
</mask>
<g mask="url(#mask8_6262_112196)">
<path fill-rule="evenodd" clip-rule="evenodd" d="M475.523 93.8563L474.397 94.8691L475.77 95.5067C481.794 98.3032 485.869 104.32 485.869 111.183C485.869 112.926 485.183 115.728 484.013 118.096C483.431 119.272 482.759 120.281 482.047 120.982C481.33 121.687 480.659 121.998 480.053 121.998H457.337C456.731 121.998 456.06 121.687 455.343 120.982C454.631 120.281 453.959 119.272 453.377 118.096C452.207 115.728 451.521 112.926 451.521 111.183C451.521 104.32 455.596 98.3032 461.62 95.5067L462.993 94.8691L461.867 93.8563C459.774 91.9727 458.337 89.2781 458.337 86.1944C458.337 80.3859 462.887 75.8359 468.695 75.8359C474.503 75.8359 479.053 80.3859 479.053 86.1944C479.053 89.2781 477.616 91.9727 475.523 93.8563ZM468.695 78.3793C464.281 78.3793 460.88 81.7802 460.88 86.1944C460.88 90.6085 464.281 94.0095 468.695 94.0095C473.109 94.0095 476.51 90.6085 476.51 86.1944C476.51 81.7802 473.109 78.3793 468.695 78.3793ZM457.337 119.455H480.053C480.609 119.455 481.017 119.151 481.269 118.885C481.525 118.615 481.725 118.275 481.884 117.944C482.207 117.274 482.468 116.413 482.673 115.565C483.08 113.874 483.325 111.972 483.325 111.183C483.325 103.134 476.744 96.5528 468.695 96.5528C460.646 96.5528 454.065 103.134 454.065 111.183C454.065 111.972 454.31 113.874 454.717 115.565C454.922 116.413 455.183 117.274 455.506 117.944C455.665 118.275 455.865 118.615 456.121 118.885C456.373 119.151 456.781 119.455 457.337 119.455Z" fill="#004357"/>
</g>
<path d="M1 154C1 142.954 9.95431 134 21 134V134C32.0457 134 41 142.954 41 154V154C41 165.046 32.0457 174 21 174V174C9.95431 174 1 165.046 1 154V154Z" fill="#F3F4F6"/>
<circle cx="21" cy="154" r="20" fill="#F3F4F6"/>
<mask id="mask9_6262_112196" style="mask-type:alpha" maskUnits="userSpaceOnUse" x="1" y="129" width="40" height="45">
<path d="M1 129.453H41V153.999C41 165.044 32.0457 173.999 21 173.999V173.999C9.95431 173.999 1 165.044 1 153.999V129.453Z" fill="#D9D9D9"/>
</mask>
<g mask="url(#mask9_6262_112196)">
<path fill-rule="evenodd" clip-rule="evenodd" d="M27.5226 149.856L26.3973 150.869L27.7705 151.507C33.7937 154.303 37.8685 160.32 37.8685 167.183C37.8685 168.926 37.1826 171.728 36.0127 174.096C35.4314 175.272 34.7594 176.281 34.0465 176.982C33.3296 177.687 32.6587 177.998 32.0535 177.998H9.33655C8.73133 177.998 8.06039 177.687 7.34347 176.982C6.63063 176.281 5.95863 175.272 5.37734 174.096C4.20742 171.728 3.52148 168.926 3.52148 167.183C3.52148 160.32 7.5963 154.303 13.6195 151.507L14.9927 150.869L13.8674 149.856C11.7745 147.973 10.3366 145.278 10.3366 142.194C10.3366 136.386 14.8866 131.836 20.695 131.836C26.5035 131.836 31.0535 136.386 31.0535 142.194C31.0535 145.278 29.6155 147.973 27.5226 149.856ZM20.695 134.379C16.2808 134.379 12.8799 137.78 12.8799 142.194C12.8799 146.609 16.2808 150.009 20.695 150.009C25.1092 150.009 28.5101 146.609 28.5101 142.194C28.5101 137.78 25.1092 134.379 20.695 134.379ZM9.33655 175.455H32.0535C32.6092 175.455 33.0173 175.151 33.269 174.885C33.5247 174.615 33.7249 174.275 33.8845 173.944C34.2069 173.274 34.4678 172.413 34.6725 171.565C35.0805 169.874 35.3251 167.972 35.3251 167.183C35.3251 159.134 28.7439 152.553 20.695 152.553C12.6461 152.553 6.06486 159.134 6.06486 167.183C6.06486 167.972 6.30952 169.874 6.71748 171.565C6.92219 172.413 7.18316 173.274 7.50552 173.944C7.66513 174.275 7.86528 174.615 8.12101 174.885C8.37275 175.151 8.78076 175.455 9.33655 175.455Z" fill="#004357"/>
</g>
<path d="M57 154C57 142.954 65.9543 134 77 134V134C88.0457 134 97 142.954 97 154V154C97 165.046 88.0457 174 77 174V174C65.9543 174 57 165.046 57 154V154Z" fill="#F3F4F6"/>
<circle cx="77" cy="154" r="20" fill="#F3F4F6"/>
<mask id="mask10_6262_112196" style="mask-type:alpha" maskUnits="userSpaceOnUse" x="57" y="129" width="40" height="45">
<path d="M57 129.453H97V153.999C97 165.044 88.0457 173.999 77 173.999V173.999C65.9543 173.999 57 165.044 57 153.999V129.453Z" fill="#D9D9D9"/>
</mask>
<g mask="url(#mask10_6262_112196)">
<path fill-rule="evenodd" clip-rule="evenodd" d="M83.5226 149.856L82.3973 150.869L83.7705 151.507C89.7937 154.303 93.8685 160.32 93.8685 167.183C93.8685 168.926 93.1826 171.728 92.0127 174.096C91.4314 175.272 90.7594 176.281 90.0465 176.982C89.3296 177.687 88.6587 177.998 88.0535 177.998H65.3366C64.7313 177.998 64.0604 177.687 63.3435 176.982C62.6306 176.281 61.9586 175.272 61.3773 174.096C60.2074 171.728 59.5215 168.926 59.5215 167.183C59.5215 160.32 63.5963 154.303 69.6195 151.507L70.9927 150.869L69.8674 149.856C67.7745 147.973 66.3366 145.278 66.3366 142.194C66.3366 136.386 70.8866 131.836 76.695 131.836C82.5035 131.836 87.0535 136.386 87.0535 142.194C87.0535 145.278 85.6155 147.973 83.5226 149.856ZM76.695 134.379C72.2808 134.379 68.8799 137.78 68.8799 142.194C68.8799 146.609 72.2808 150.009 76.695 150.009C81.1092 150.009 84.5101 146.609 84.5101 142.194C84.5101 137.78 81.1092 134.379 76.695 134.379ZM65.3366 175.455H88.0535C88.6092 175.455 89.0173 175.151 89.269 174.885C89.5247 174.615 89.7249 174.275 89.8845 173.944C90.2069 173.274 90.4678 172.413 90.6725 171.565C91.0805 169.874 91.3251 167.972 91.3251 167.183C91.3251 159.134 84.7439 152.553 76.695 152.553C68.6461 152.553 62.0649 159.134 62.0649 167.183C62.0649 167.972 62.3095 169.874 62.7175 171.565C62.9222 172.413 63.1832 173.274 63.5055 173.944C63.6651 174.275 63.8653 174.615 64.121 174.885C64.3727 175.151 64.7808 175.455 65.3366 175.455Z" fill="#004357"/>
</g>
<path d="M113 154C113 142.954 121.954 134 133 134V134C144.046 134 153 142.954 153 154V154C153 165.046 144.046 174 133 174V174C121.954 174 113 165.046 113 154V154Z" fill="#F3F4F6"/>
<circle cx="133" cy="154" r="20" fill="#F3F4F6"/>
<mask id="mask11_6262_112196" style="mask-type:alpha" maskUnits="userSpaceOnUse" x="113" y="129" width="40" height="45">
<path d="M113 129.453H153V153.999C153 165.044 144.046 173.999 133 173.999V173.999C121.954 173.999 113 165.044 113 153.999V129.453Z" fill="#D9D9D9"/>
</mask>
<g mask="url(#mask11_6262_112196)">
<path fill-rule="evenodd" clip-rule="evenodd" d="M139.523 149.856L138.397 150.869L139.77 151.507C145.794 154.303 149.869 160.32 149.869 167.183C149.869 168.926 149.183 171.728 148.013 174.096C147.431 175.272 146.759 176.281 146.047 176.982C145.33 177.687 144.659 177.998 144.053 177.998H121.337C120.731 177.998 120.06 177.687 119.343 176.982C118.631 176.281 117.959 175.272 117.377 174.096C116.207 171.728 115.521 168.926 115.521 167.183C115.521 160.32 119.596 154.303 125.62 151.507L126.993 150.869L125.867 149.856C123.774 147.973 122.337 145.278 122.337 142.194C122.337 136.386 126.887 131.836 132.695 131.836C138.503 131.836 143.053 136.386 143.053 142.194C143.053 145.278 141.616 147.973 139.523 149.856ZM132.695 134.379C128.281 134.379 124.88 137.78 124.88 142.194C124.88 146.609 128.281 150.009 132.695 150.009C137.109 150.009 140.51 146.609 140.51 142.194C140.51 137.78 137.109 134.379 132.695 134.379ZM121.337 175.455H144.053C144.609 175.455 145.017 175.151 145.269 174.885C145.525 174.615 145.725 174.275 145.884 173.944C146.207 173.274 146.468 172.413 146.673 171.565C147.08 169.874 147.325 167.972 147.325 167.183C147.325 159.134 140.744 152.553 132.695 152.553C124.646 152.553 118.065 159.134 118.065 167.183C118.065 167.972 118.31 169.874 118.717 171.565C118.922 172.413 119.183 173.274 119.506 173.944C119.665 174.275 119.865 174.615 120.121 174.885C120.373 175.151 120.781 175.455 121.337 175.455Z" fill="#004357"/>
</g>
<path d="M169 154C169 142.954 177.954 134 189 134V134C200.046 134 209 142.954 209 154V154C209 165.046 200.046 174 189 174V174C177.954 174 169 165.046 169 154V154Z" fill="#F3F4F6"/>
<circle cx="189" cy="154" r="20" fill="#F3F4F6"/>
<mask id="mask12_6262_112196" style="mask-type:alpha" maskUnits="userSpaceOnUse" x="169" y="129" width="40" height="45">
<path d="M169 129.453H209V153.999C209 165.044 200.046 173.999 189 173.999V173.999C177.954 173.999 169 165.044 169 153.999V129.453Z" fill="#D9D9D9"/>
</mask>
<g mask="url(#mask12_6262_112196)">
<path fill-rule="evenodd" clip-rule="evenodd" d="M195.523 149.856L194.397 150.869L195.77 151.507C201.794 154.303 205.869 160.32 205.869 167.183C205.869 168.926 205.183 171.728 204.013 174.096C203.431 175.272 202.759 176.281 202.047 176.982C201.33 177.687 200.659 177.998 200.053 177.998H177.337C176.731 177.998 176.06 177.687 175.343 176.982C174.631 176.281 173.959 175.272 173.377 174.096C172.207 171.728 171.521 168.926 171.521 167.183C171.521 160.32 175.596 154.303 181.62 151.507L182.993 150.869L181.867 149.856C179.774 147.973 178.337 145.278 178.337 142.194C178.337 136.386 182.887 131.836 188.695 131.836C194.503 131.836 199.053 136.386 199.053 142.194C199.053 145.278 197.616 147.973 195.523 149.856ZM188.695 134.379C184.281 134.379 180.88 137.78 180.88 142.194C180.88 146.609 184.281 150.009 188.695 150.009C193.109 150.009 196.51 146.609 196.51 142.194C196.51 137.78 193.109 134.379 188.695 134.379ZM177.337 175.455H200.053C200.609 175.455 201.017 175.151 201.269 174.885C201.525 174.615 201.725 174.275 201.884 173.944C202.207 173.274 202.468 172.413 202.673 171.565C203.08 169.874 203.325 167.972 203.325 167.183C203.325 159.134 196.744 152.553 188.695 152.553C180.646 152.553 174.065 159.134 174.065 167.183C174.065 167.972 174.31 169.874 174.717 171.565C174.922 172.413 175.183 173.274 175.506 173.944C175.665 174.275 175.865 174.615 176.121 174.885C176.373 175.151 176.781 175.455 177.337 175.455Z" fill="#004357"/>
</g>
<path d="M225 154C225 142.954 233.954 134 245 134V134C256.046 134 265 142.954 265 154V154C265 165.046 256.046 174 245 174V174C233.954 174 225 165.046 225 154V154Z" fill="#F3F4F6"/>
<circle cx="245" cy="154" r="20" fill="#F3F4F6"/>
<mask id="mask13_6262_112196" style="mask-type:alpha" maskUnits="userSpaceOnUse" x="225" y="129" width="40" height="45">
<path d="M225 129.453H265V153.999C265 165.044 256.046 173.999 245 173.999V173.999C233.954 173.999 225 165.044 225 153.999V129.453Z" fill="#D9D9D9"/>
</mask>
<g mask="url(#mask13_6262_112196)">
<path fill-rule="evenodd" clip-rule="evenodd" d="M251.523 149.856L250.397 150.869L251.77 151.507C257.794 154.303 261.869 160.32 261.869 167.183C261.869 168.926 261.183 171.728 260.013 174.096C259.431 175.272 258.759 176.281 258.047 176.982C257.33 177.687 256.659 177.998 256.053 177.998H233.337C232.731 177.998 232.06 177.687 231.343 176.982C230.631 176.281 229.959 175.272 229.377 174.096C228.207 171.728 227.521 168.926 227.521 167.183C227.521 160.32 231.596 154.303 237.62 151.507L238.993 150.869L237.867 149.856C235.774 147.973 234.337 145.278 234.337 142.194C234.337 136.386 238.887 131.836 244.695 131.836C250.503 131.836 255.053 136.386 255.053 142.194C255.053 145.278 253.616 147.973 251.523 149.856ZM244.695 134.379C240.281 134.379 236.88 137.78 236.88 142.194C236.88 146.609 240.281 150.009 244.695 150.009C249.109 150.009 252.51 146.609 252.51 142.194C252.51 137.78 249.109 134.379 244.695 134.379ZM233.337 175.455H256.053C256.609 175.455 257.017 175.151 257.269 174.885C257.525 174.615 257.725 174.275 257.884 173.944C258.207 173.274 258.468 172.413 258.673 171.565C259.08 169.874 259.325 167.972 259.325 167.183C259.325 159.134 252.744 152.553 244.695 152.553C236.646 152.553 230.065 159.134 230.065 167.183C230.065 167.972 230.31 169.874 230.717 171.565C230.922 172.413 231.183 173.274 231.506 173.944C231.665 174.275 231.865 174.615 232.121 174.885C232.373 175.151 232.781 175.455 233.337 175.455Z" fill="#004357"/>
</g>
<path d="M281 154C281 142.954 289.954 134 301 134V134C312.046 134 321 142.954 321 154V154C321 165.046 312.046 174 301 174V174C289.954 174 281 165.046 281 154V154Z" fill="#F3F4F6"/>
<circle cx="301" cy="154" r="20" fill="#F3F4F6"/>
<mask id="mask14_6262_112196" style="mask-type:alpha" maskUnits="userSpaceOnUse" x="281" y="129" width="40" height="45">
<path d="M281 129.453H321V153.999C321 165.044 312.046 173.999 301 173.999V173.999C289.954 173.999 281 165.044 281 153.999V129.453Z" fill="#D9D9D9"/>
</mask>
<g mask="url(#mask14_6262_112196)">
<path fill-rule="evenodd" clip-rule="evenodd" d="M307.523 149.856L306.397 150.869L307.77 151.507C313.794 154.303 317.869 160.32 317.869 167.183C317.869 168.926 317.183 171.728 316.013 174.096C315.431 175.272 314.759 176.281 314.047 176.982C313.33 177.687 312.659 177.998 312.053 177.998H289.337C288.731 177.998 288.06 177.687 287.343 176.982C286.631 176.281 285.959 175.272 285.377 174.096C284.207 171.728 283.521 168.926 283.521 167.183C283.521 160.32 287.596 154.303 293.62 151.507L294.993 150.869L293.867 149.856C291.774 147.973 290.337 145.278 290.337 142.194C290.337 136.386 294.887 131.836 300.695 131.836C306.503 131.836 311.053 136.386 311.053 142.194C311.053 145.278 309.616 147.973 307.523 149.856ZM300.695 134.379C296.281 134.379 292.88 137.78 292.88 142.194C292.88 146.609 296.281 150.009 300.695 150.009C305.109 150.009 308.51 146.609 308.51 142.194C308.51 137.78 305.109 134.379 300.695 134.379ZM289.337 175.455H312.053C312.609 175.455 313.017 175.151 313.269 174.885C313.525 174.615 313.725 174.275 313.884 173.944C314.207 173.274 314.468 172.413 314.673 171.565C315.08 169.874 315.325 167.972 315.325 167.183C315.325 159.134 308.744 152.553 300.695 152.553C292.646 152.553 286.065 159.134 286.065 167.183C286.065 167.972 286.31 169.874 286.717 171.565C286.922 172.413 287.183 173.274 287.506 173.944C287.665 174.275 287.865 174.615 288.121 174.885C288.373 175.151 288.781 175.455 289.337 175.455Z" fill="#004357"/>
</g>
<path d="M337 154C337 142.954 345.954 134 357 134V134C368.046 134 377 142.954 377 154V154C377 165.046 368.046 174 357 174V174C345.954 174 337 165.046 337 154V154Z" fill="#F3F4F6"/>
<circle cx="357" cy="154" r="20" fill="#F3F4F6"/>
<mask id="mask15_6262_112196" style="mask-type:alpha" maskUnits="userSpaceOnUse" x="337" y="129" width="40" height="45">
<path d="M337 129.453H377V153.999C377 165.044 368.046 173.999 357 173.999V173.999C345.954 173.999 337 165.044 337 153.999V129.453Z" fill="#D9D9D9"/>
</mask>
<g mask="url(#mask15_6262_112196)">
<path fill-rule="evenodd" clip-rule="evenodd" d="M363.523 149.856L362.397 150.869L363.77 151.507C369.794 154.303 373.869 160.32 373.869 167.183C373.869 168.926 373.183 171.728 372.013 174.096C371.431 175.272 370.759 176.281 370.047 176.982C369.33 177.687 368.659 177.998 368.053 177.998H345.337C344.731 177.998 344.06 177.687 343.343 176.982C342.631 176.281 341.959 175.272 341.377 174.096C340.207 171.728 339.521 168.926 339.521 167.183C339.521 160.32 343.596 154.303 349.62 151.507L350.993 150.869L349.867 149.856C347.774 147.973 346.337 145.278 346.337 142.194C346.337 136.386 350.887 131.836 356.695 131.836C362.503 131.836 367.053 136.386 367.053 142.194C367.053 145.278 365.616 147.973 363.523 149.856ZM356.695 134.379C352.281 134.379 348.88 137.78 348.88 142.194C348.88 146.609 352.281 150.009 356.695 150.009C361.109 150.009 364.51 146.609 364.51 142.194C364.51 137.78 361.109 134.379 356.695 134.379ZM345.337 175.455H368.053C368.609 175.455 369.017 175.151 369.269 174.885C369.525 174.615 369.725 174.275 369.884 173.944C370.207 173.274 370.468 172.413 370.673 171.565C371.08 169.874 371.325 167.972 371.325 167.183C371.325 159.134 364.744 152.553 356.695 152.553C348.646 152.553 342.065 159.134 342.065 167.183C342.065 167.972 342.31 169.874 342.717 171.565C342.922 172.413 343.183 173.274 343.506 173.944C343.665 174.275 343.865 174.615 344.121 174.885C344.373 175.151 344.781 175.455 345.337 175.455Z" fill="#004357"/>
</g>
<path d="M393 154C393 142.954 401.954 134 413 134V134C424.046 134 433 142.954 433 154V154C433 165.046 424.046 174 413 174V174C401.954 174 393 165.046 393 154V154Z" fill="#F3F4F6"/>
<circle cx="413" cy="154" r="20" fill="#F3F4F6"/>
<mask id="mask16_6262_112196" style="mask-type:alpha" maskUnits="userSpaceOnUse" x="393" y="129" width="40" height="45">
<path d="M393 129.453H433V153.999C433 165.044 424.046 173.999 413 173.999V173.999C401.954 173.999 393 165.044 393 153.999V129.453Z" fill="#D9D9D9"/>
</mask>
<g mask="url(#mask16_6262_112196)">
<path fill-rule="evenodd" clip-rule="evenodd" d="M419.523 149.856L418.397 150.869L419.77 151.507C425.794 154.303 429.869 160.32 429.869 167.183C429.869 168.926 429.183 171.728 428.013 174.096C427.431 175.272 426.759 176.281 426.047 176.982C425.33 177.687 424.659 177.998 424.053 177.998H401.337C400.731 177.998 400.06 177.687 399.343 176.982C398.631 176.281 397.959 175.272 397.377 174.096C396.207 171.728 395.521 168.926 395.521 167.183C395.521 160.32 399.596 154.303 405.62 151.507L406.993 150.869L405.867 149.856C403.774 147.973 402.337 145.278 402.337 142.194C402.337 136.386 406.887 131.836 412.695 131.836C418.503 131.836 423.053 136.386 423.053 142.194C423.053 145.278 421.616 147.973 419.523 149.856ZM412.695 134.379C408.281 134.379 404.88 137.78 404.88 142.194C404.88 146.609 408.281 150.009 412.695 150.009C417.109 150.009 420.51 146.609 420.51 142.194C420.51 137.78 417.109 134.379 412.695 134.379ZM401.337 175.455H424.053C424.609 175.455 425.017 175.151 425.269 174.885C425.525 174.615 425.725 174.275 425.884 173.944C426.207 173.274 426.468 172.413 426.673 171.565C427.08 169.874 427.325 167.972 427.325 167.183C427.325 159.134 420.744 152.553 412.695 152.553C404.646 152.553 398.065 159.134 398.065 167.183C398.065 167.972 398.31 169.874 398.717 171.565C398.922 172.413 399.183 173.274 399.506 173.944C399.665 174.275 399.865 174.615 400.121 174.885C400.373 175.151 400.781 175.455 401.337 175.455Z" fill="#004357"/>
</g>
<path d="M165.929 61.2174C165.452 61.4943 164.84 61.3314 164.563 60.8535L160.051 53.0664C159.774 52.5885 159.937 51.9767 160.414 51.6998C160.892 51.4229 161.504 51.5858 161.781 52.0636L165.792 58.9855L172.714 54.9746C173.192 54.6977 173.804 54.8607 174.08 55.3385C174.357 55.8164 174.194 56.4282 173.717 56.7051L165.929 61.2174ZM223.035 26.0588C209.575 23.2265 197.351 24.661 187.553 30.3541C177.763 36.0419 170.271 46.0512 166.394 60.6094L164.462 60.0948C168.448 45.1234 176.219 34.6259 186.548 28.6247C196.868 22.6288 209.62 21.1922 223.447 24.1017L223.035 26.0588Z" fill="#004357"/>
<path d="M152 312C152 300.954 160.954 292 172 292V292C183.046 292 192 300.954 192 312V312C192 323.046 183.046 332 172 332V332C160.954 332 152 323.046 152 312V312Z" fill="#F3F4F6"/>
<circle cx="172" cy="312" r="20" fill="#F3F4F6"/>
<mask id="mask17_6262_112196" style="mask-type:alpha" maskUnits="userSpaceOnUse" x="152" y="287" width="40" height="45">
<path d="M152 287.453H192V311.999C192 323.044 183.046 331.999 172 331.999V331.999C160.954 331.999 152 323.044 152 311.999V287.453Z" fill="#D9D9D9"/>
</mask>
<g mask="url(#mask17_6262_112196)">
<path fill-rule="evenodd" clip-rule="evenodd" d="M178.523 307.856L177.397 308.869L178.77 309.507C184.794 312.303 188.869 318.32 188.869 325.183C188.869 326.926 188.183 329.728 187.013 332.096C186.431 333.272 185.759 334.281 185.047 334.982C184.33 335.687 183.659 335.998 183.053 335.998H160.337C159.731 335.998 159.06 335.687 158.343 334.982C157.631 334.281 156.959 333.272 156.377 332.096C155.207 329.728 154.521 326.926 154.521 325.183C154.521 318.32 158.596 312.303 164.62 309.507L165.993 308.869L164.867 307.856C162.774 305.973 161.337 303.278 161.337 300.194C161.337 294.386 165.887 289.836 171.695 289.836C177.503 289.836 182.053 294.386 182.053 300.194C182.053 303.278 180.616 305.973 178.523 307.856ZM171.695 292.379C167.281 292.379 163.88 295.78 163.88 300.194C163.88 304.609 167.281 308.009 171.695 308.009C176.109 308.009 179.51 304.609 179.51 300.194C179.51 295.78 176.109 292.379 171.695 292.379ZM160.337 333.455H183.053C183.609 333.455 184.017 333.151 184.269 332.885C184.525 332.615 184.725 332.275 184.884 331.944C185.207 331.274 185.468 330.413 185.673 329.565C186.08 327.874 186.325 325.972 186.325 325.183C186.325 317.134 179.744 310.553 171.695 310.553C163.646 310.553 157.065 317.134 157.065 325.183C157.065 325.972 157.31 327.874 157.717 329.565C157.922 330.413 158.183 331.274 158.506 331.944C158.665 332.275 158.865 332.615 159.121 332.885C159.373 333.151 159.781 333.455 160.337 333.455Z" fill="#004357"/>
</g>
<path d="M208 312C208 300.954 216.954 292 228 292V292C239.046 292 248 300.954 248 312V312C248 323.046 239.046 332 228 332V332C216.954 332 208 323.046 208 312V312Z" fill="#F3F4F6"/>
<circle cx="228" cy="312" r="20" fill="#F3F4F6"/>
<mask id="mask18_6262_112196" style="mask-type:alpha" maskUnits="userSpaceOnUse" x="208" y="287" width="40" height="45">
<path d="M208 287.453H248V311.999C248 323.044 239.046 331.999 228 331.999V331.999C216.954 331.999 208 323.044 208 311.999V287.453Z" fill="#D9D9D9"/>
</mask>
<g mask="url(#mask18_6262_112196)">
<path fill-rule="evenodd" clip-rule="evenodd" d="M234.523 307.856L233.397 308.869L234.77 309.507C240.794 312.303 244.869 318.32 244.869 325.183C244.869 326.926 244.183 329.728 243.013 332.096C242.431 333.272 241.759 334.281 241.047 334.982C240.33 335.687 239.659 335.998 239.053 335.998H216.337C215.731 335.998 215.06 335.687 214.343 334.982C213.631 334.281 212.959 333.272 212.377 332.096C211.207 329.728 210.521 326.926 210.521 325.183C210.521 318.32 214.596 312.303 220.62 309.507L221.993 308.869L220.867 307.856C218.774 305.973 217.337 303.278 217.337 300.194C217.337 294.386 221.887 289.836 227.695 289.836C233.503 289.836 238.053 294.386 238.053 300.194C238.053 303.278 236.616 305.973 234.523 307.856ZM227.695 292.379C223.281 292.379 219.88 295.78 219.88 300.194C219.88 304.609 223.281 308.009 227.695 308.009C232.109 308.009 235.51 304.609 235.51 300.194C235.51 295.78 232.109 292.379 227.695 292.379ZM216.337 333.455H239.053C239.609 333.455 240.017 333.151 240.269 332.885C240.525 332.615 240.725 332.275 240.884 331.944C241.207 331.274 241.468 330.413 241.673 329.565C242.08 327.874 242.325 325.972 242.325 325.183C242.325 317.134 235.744 310.553 227.695 310.553C219.646 310.553 213.065 317.134 213.065 325.183C213.065 325.972 213.31 327.874 213.717 329.565C213.922 330.413 214.183 331.274 214.506 331.944C214.665 332.275 214.865 332.615 215.121 332.885C215.373 333.151 215.781 333.455 216.337 333.455Z" fill="#004357"/>
</g>
<path d="M264 312C264 300.954 272.954 292 284 292V292C295.046 292 304 300.954 304 312V312C304 323.046 295.046 332 284 332V332C272.954 332 264 323.046 264 312V312Z" fill="#F3F4F6"/>
<circle cx="284" cy="312" r="20" fill="#F3F4F6"/>
<mask id="mask19_6262_112196" style="mask-type:alpha" maskUnits="userSpaceOnUse" x="264" y="287" width="40" height="45">
<path d="M264 287.453H304V311.999C304 323.044 295.046 331.999 284 331.999V331.999C272.954 331.999 264 323.044 264 311.999V287.453Z" fill="#D9D9D9"/>
</mask>
<g mask="url(#mask19_6262_112196)">
<path fill-rule="evenodd" clip-rule="evenodd" d="M290.523 307.856L289.397 308.869L290.77 309.507C296.794 312.303 300.869 318.32 300.869 325.183C300.869 326.926 300.183 329.728 299.013 332.096C298.431 333.272 297.759 334.281 297.047 334.982C296.33 335.687 295.659 335.998 295.053 335.998H272.337C271.731 335.998 271.06 335.687 270.343 334.982C269.631 334.281 268.959 333.272 268.377 332.096C267.207 329.728 266.521 326.926 266.521 325.183C266.521 318.32 270.596 312.303 276.62 309.507L277.993 308.869L276.867 307.856C274.774 305.973 273.337 303.278 273.337 300.194C273.337 294.386 277.887 289.836 283.695 289.836C289.503 289.836 294.053 294.386 294.053 300.194C294.053 303.278 292.616 305.973 290.523 307.856ZM283.695 292.379C279.281 292.379 275.88 295.78 275.88 300.194C275.88 304.609 279.281 308.009 283.695 308.009C288.109 308.009 291.51 304.609 291.51 300.194C291.51 295.78 288.109 292.379 283.695 292.379ZM272.337 333.455H295.053C295.609 333.455 296.017 333.151 296.269 332.885C296.525 332.615 296.725 332.275 296.884 331.944C297.207 331.274 297.468 330.413 297.673 329.565C298.08 327.874 298.325 325.972 298.325 325.183C298.325 317.134 291.744 310.553 283.695 310.553C275.646 310.553 269.065 317.134 269.065 325.183C269.065 325.972 269.31 327.874 269.717 329.565C269.922 330.413 270.183 331.274 270.506 331.944C270.665 332.275 270.865 332.615 271.121 332.885C271.373 333.151 271.781 333.455 272.337 333.455Z" fill="#004357"/>
</g>
<path d="M320 312C320 300.954 328.954 292 340 292V292C351.046 292 360 300.954 360 312V312C360 323.046 351.046 332 340 332V332C328.954 332 320 323.046 320 312V312Z" fill="#BED73C"/>
<circle cx="340" cy="312" r="20" fill="#BED73C"/>
<mask id="mask20_6262_112196" style="mask-type:alpha" maskUnits="userSpaceOnUse" x="320" y="287" width="40" height="45">
<path d="M320 287.453H360V311.999C360 323.044 351.046 331.999 340 331.999V331.999C328.954 331.999 320 323.044 320 311.999V287.453Z" fill="#D9D9D9"/>
</mask>
<g mask="url(#mask20_6262_112196)">
<path fill-rule="evenodd" clip-rule="evenodd" d="M346.523 307.856L345.397 308.869L346.77 309.507C352.794 312.303 356.869 318.32 356.869 325.183C356.869 326.926 356.183 329.728 355.013 332.096C354.431 333.272 353.759 334.281 353.047 334.982C352.33 335.687 351.659 335.998 351.053 335.998H328.337C327.731 335.998 327.06 335.687 326.343 334.982C325.631 334.281 324.959 333.272 324.377 332.096C323.207 329.728 322.521 326.926 322.521 325.183C322.521 318.32 326.596 312.303 332.62 309.507L333.993 308.869L332.867 307.856C330.774 305.973 329.337 303.278 329.337 300.194C329.337 294.386 333.887 289.836 339.695 289.836C345.503 289.836 350.053 294.386 350.053 300.194C350.053 303.278 348.616 305.973 346.523 307.856ZM339.695 292.379C335.281 292.379 331.88 295.78 331.88 300.194C331.88 304.609 335.281 308.009 339.695 308.009C344.109 308.009 347.51 304.609 347.51 300.194C347.51 295.78 344.109 292.379 339.695 292.379ZM328.337 333.455H351.053C351.609 333.455 352.017 333.151 352.269 332.885C352.525 332.615 352.725 332.275 352.884 331.944C353.207 331.274 353.468 330.413 353.673 329.565C354.08 327.874 354.325 325.972 354.325 325.183C354.325 317.134 347.744 310.553 339.695 310.553C331.646 310.553 325.065 317.134 325.065 325.183C325.065 325.972 325.31 327.874 325.717 329.565C325.922 330.413 326.183 331.274 326.506 331.944C326.665 332.275 326.865 332.615 327.121 332.885C327.373 333.151 327.781 333.455 328.337 333.455Z" fill="#004357"/>
</g>
<path d="M376 312C376 300.954 384.954 292 396 292V292C407.046 292 416 300.954 416 312V312C416 323.046 407.046 332 396 332V332C384.954 332 376 323.046 376 312V312Z" fill="#BED73C"/>
<circle cx="396" cy="312" r="20" fill="#BED73C"/>
<mask id="mask21_6262_112196" style="mask-type:alpha" maskUnits="userSpaceOnUse" x="376" y="287" width="40" height="45">
<path d="M376 287.453H416V311.999C416 323.044 407.046 331.999 396 331.999V331.999C384.954 331.999 376 323.044 376 311.999V287.453Z" fill="#D9D9D9"/>
</mask>
<g mask="url(#mask21_6262_112196)">
<path fill-rule="evenodd" clip-rule="evenodd" d="M402.523 307.856L401.397 308.869L402.77 309.507C408.794 312.303 412.869 318.32 412.869 325.183C412.869 326.926 412.183 329.728 411.013 332.096C410.431 333.272 409.759 334.281 409.047 334.982C408.33 335.687 407.659 335.998 407.053 335.998H384.337C383.731 335.998 383.06 335.687 382.343 334.982C381.631 334.281 380.959 333.272 380.377 332.096C379.207 329.728 378.521 326.926 378.521 325.183C378.521 318.32 382.596 312.303 388.62 309.507L389.993 308.869L388.867 307.856C386.774 305.973 385.337 303.278 385.337 300.194C385.337 294.386 389.887 289.836 395.695 289.836C401.503 289.836 406.053 294.386 406.053 300.194C406.053 303.278 404.616 305.973 402.523 307.856ZM395.695 292.379C391.281 292.379 387.88 295.78 387.88 300.194C387.88 304.609 391.281 308.009 395.695 308.009C400.109 308.009 403.51 304.609 403.51 300.194C403.51 295.78 400.109 292.379 395.695 292.379ZM384.337 333.455H407.053C407.609 333.455 408.017 333.151 408.269 332.885C408.525 332.615 408.725 332.275 408.884 331.944C409.207 331.274 409.468 330.413 409.673 329.565C410.08 327.874 410.325 325.972 410.325 325.183C410.325 317.134 403.744 310.553 395.695 310.553C387.646 310.553 381.065 317.134 381.065 325.183C381.065 325.972 381.31 327.874 381.717 329.565C381.922 330.413 382.183 331.274 382.506 331.944C382.665 332.275 382.865 332.615 383.121 332.885C383.373 333.151 383.781 333.455 384.337 333.455Z" fill="#004357"/>
</g>
<path d="M432 312C432 300.954 440.954 292 452 292V292C463.046 292 472 300.954 472 312V312C472 323.046 463.046 332 452 332V332C440.954 332 432 323.046 432 312V312Z" fill="#BED73C"/>
<circle cx="452" cy="312" r="20" fill="#BED73C"/>
<mask id="mask22_6262_112196" style="mask-type:alpha" maskUnits="userSpaceOnUse" x="432" y="287" width="40" height="45">
<path d="M432 287.453H472V311.999C472 323.044 463.046 331.999 452 331.999V331.999C440.954 331.999 432 323.044 432 311.999V287.453Z" fill="#D9D9D9"/>
</mask>
<g mask="url(#mask22_6262_112196)">
<path fill-rule="evenodd" clip-rule="evenodd" d="M458.523 307.856L457.397 308.869L458.77 309.507C464.794 312.303 468.869 318.32 468.869 325.183C468.869 326.926 468.183 329.728 467.013 332.096C466.431 333.272 465.759 334.281 465.047 334.982C464.33 335.687 463.659 335.998 463.053 335.998H440.337C439.731 335.998 439.06 335.687 438.343 334.982C437.631 334.281 436.959 333.272 436.377 332.096C435.207 329.728 434.521 326.926 434.521 325.183C434.521 318.32 438.596 312.303 444.62 309.507L445.993 308.869L444.867 307.856C442.774 305.973 441.337 303.278 441.337 300.194C441.337 294.386 445.887 289.836 451.695 289.836C457.503 289.836 462.053 294.386 462.053 300.194C462.053 303.278 460.616 305.973 458.523 307.856ZM451.695 292.379C447.281 292.379 443.88 295.78 443.88 300.194C443.88 304.609 447.281 308.009 451.695 308.009C456.109 308.009 459.51 304.609 459.51 300.194C459.51 295.78 456.109 292.379 451.695 292.379ZM440.337 333.455H463.053C463.609 333.455 464.017 333.151 464.269 332.885C464.525 332.615 464.725 332.275 464.884 331.944C465.207 331.274 465.468 330.413 465.673 329.565C466.08 327.874 466.325 325.972 466.325 325.183C466.325 317.134 459.744 310.553 451.695 310.553C443.646 310.553 437.065 317.134 437.065 325.183C437.065 325.972 437.31 327.874 437.717 329.565C437.922 330.413 438.183 331.274 438.506 331.944C438.665 332.275 438.865 332.615 439.121 332.885C439.373 333.151 439.781 333.455 440.337 333.455Z" fill="#004357"/>
</g>
<path d="M488 312C488 300.954 496.954 292 508 292V292C519.046 292 528 300.954 528 312V312C528 323.046 519.046 332 508 332V332C496.954 332 488 323.046 488 312V312Z" fill="#BED73C"/>
<circle cx="508" cy="312" r="20" fill="#BED73C"/>
<mask id="mask23_6262_112196" style="mask-type:alpha" maskUnits="userSpaceOnUse" x="488" y="287" width="40" height="45">
<path d="M488 287.453H528V311.999C528 323.044 519.046 331.999 508 331.999V331.999C496.954 331.999 488 323.044 488 311.999V287.453Z" fill="#D9D9D9"/>
</mask>
<g mask="url(#mask23_6262_112196)">
<path fill-rule="evenodd" clip-rule="evenodd" d="M514.523 307.856L513.397 308.869L514.77 309.507C520.794 312.303 524.869 318.32 524.869 325.183C524.869 326.926 524.183 329.728 523.013 332.096C522.431 333.272 521.759 334.281 521.047 334.982C520.33 335.687 519.659 335.998 519.053 335.998H496.337C495.731 335.998 495.06 335.687 494.343 334.982C493.631 334.281 492.959 333.272 492.377 332.096C491.207 329.728 490.521 326.926 490.521 325.183C490.521 318.32 494.596 312.303 500.62 309.507L501.993 308.869L500.867 307.856C498.774 305.973 497.337 303.278 497.337 300.194C497.337 294.386 501.887 289.836 507.695 289.836C513.503 289.836 518.053 294.386 518.053 300.194C518.053 303.278 516.616 305.973 514.523 307.856ZM507.695 292.379C503.281 292.379 499.88 295.78 499.88 300.194C499.88 304.609 503.281 308.009 507.695 308.009C512.109 308.009 515.51 304.609 515.51 300.194C515.51 295.78 512.109 292.379 507.695 292.379ZM496.337 333.455H519.053C519.609 333.455 520.017 333.151 520.269 332.885C520.525 332.615 520.725 332.275 520.884 331.944C521.207 331.274 521.468 330.413 521.673 329.565C522.08 327.874 522.325 325.972 522.325 325.183C522.325 317.134 515.744 310.553 507.695 310.553C499.646 310.553 493.065 317.134 493.065 325.183C493.065 325.972 493.31 327.874 493.717 329.565C493.922 330.413 494.183 331.274 494.506 331.944C494.665 332.275 494.865 332.615 495.121 332.885C495.373 333.151 495.781 333.455 496.337 333.455Z" fill="#004357"/>
</g>
<path d="M544 312C544 300.954 552.954 292 564 292V292C575.046 292 584 300.954 584 312V312C584 323.046 575.046 332 564 332V332C552.954 332 544 323.046 544 312V312Z" fill="#BED73C"/>
<circle cx="564" cy="312" r="20" fill="#BED73C"/>
<mask id="mask24_6262_112196" style="mask-type:alpha" maskUnits="userSpaceOnUse" x="544" y="287" width="40" height="45">
<path d="M544 287.453H584V311.999C584 323.044 575.046 331.999 564 331.999V331.999C552.954 331.999 544 323.044 544 311.999V287.453Z" fill="#D9D9D9"/>
</mask>
<g mask="url(#mask24_6262_112196)">
<path fill-rule="evenodd" clip-rule="evenodd" d="M570.523 307.856L569.397 308.869L570.77 309.507C576.794 312.303 580.869 318.32 580.869 325.183C580.869 326.926 580.183 329.728 579.013 332.096C578.431 333.272 577.759 334.281 577.047 334.982C576.33 335.687 575.659 335.998 575.053 335.998H552.337C551.731 335.998 551.06 335.687 550.343 334.982C549.631 334.281 548.959 333.272 548.377 332.096C547.207 329.728 546.521 326.926 546.521 325.183C546.521 318.32 550.596 312.303 556.62 309.507L557.993 308.869L556.867 307.856C554.774 305.973 553.337 303.278 553.337 300.194C553.337 294.386 557.887 289.836 563.695 289.836C569.503 289.836 574.053 294.386 574.053 300.194C574.053 303.278 572.616 305.973 570.523 307.856ZM563.695 292.379C559.281 292.379 555.88 295.78 555.88 300.194C555.88 304.609 559.281 308.009 563.695 308.009C568.109 308.009 571.51 304.609 571.51 300.194C571.51 295.78 568.109 292.379 563.695 292.379ZM552.337 333.455H575.053C575.609 333.455 576.017 333.151 576.269 332.885C576.525 332.615 576.725 332.275 576.884 331.944C577.207 331.274 577.468 330.413 577.673 329.565C578.08 327.874 578.325 325.972 578.325 325.183C578.325 317.134 571.744 310.553 563.695 310.553C555.646 310.553 549.065 317.134 549.065 325.183C549.065 325.972 549.31 327.874 549.717 329.565C549.922 330.413 550.183 331.274 550.506 331.944C550.665 332.275 550.865 332.615 551.121 332.885C551.373 333.151 551.781 333.455 552.337 333.455Z" fill="#004357"/>
</g>
<path d="M600 312C600 300.954 608.954 292 620 292V292C631.046 292 640 300.954 640 312V312C640 323.046 631.046 332 620 332V332C608.954 332 600 323.046 600 312V312Z" fill="#BED73C"/>
<circle cx="620" cy="312" r="20" fill="#BED73C"/>
<mask id="mask25_6262_112196" style="mask-type:alpha" maskUnits="userSpaceOnUse" x="600" y="287" width="40" height="45">
<path d="M600 287.453H640V311.999C640 323.044 631.046 331.999 620 331.999V331.999C608.954 331.999 600 323.044 600 311.999V287.453Z" fill="#D9D9D9"/>
</mask>
<g mask="url(#mask25_6262_112196)">
<path fill-rule="evenodd" clip-rule="evenodd" d="M626.523 307.856L625.397 308.869L626.77 309.507C632.794 312.303 636.869 318.32 636.869 325.183C636.869 326.926 636.183 329.728 635.013 332.096C634.431 333.272 633.759 334.281 633.047 334.982C632.33 335.687 631.659 335.998 631.053 335.998H608.337C607.731 335.998 607.06 335.687 606.343 334.982C605.631 334.281 604.959 333.272 604.377 332.096C603.207 329.728 602.521 326.926 602.521 325.183C602.521 318.32 606.596 312.303 612.62 309.507L613.993 308.869L612.867 307.856C610.774 305.973 609.337 303.278 609.337 300.194C609.337 294.386 613.887 289.836 619.695 289.836C625.503 289.836 630.053 294.386 630.053 300.194C630.053 303.278 628.616 305.973 626.523 307.856ZM619.695 292.379C615.281 292.379 611.88 295.78 611.88 300.194C611.88 304.609 615.281 308.009 619.695 308.009C624.109 308.009 627.51 304.609 627.51 300.194C627.51 295.78 624.109 292.379 619.695 292.379ZM608.337 333.455H631.053C631.609 333.455 632.017 333.151 632.269 332.885C632.525 332.615 632.725 332.275 632.884 331.944C633.207 331.274 633.468 330.413 633.673 329.565C634.08 327.874 634.325 325.972 634.325 325.183C634.325 317.134 627.744 310.553 619.695 310.553C611.646 310.553 605.065 317.134 605.065 325.183C605.065 325.972 605.31 327.874 605.717 329.565C605.922 330.413 606.183 331.274 606.506 331.944C606.665 332.275 606.865 332.615 607.121 332.885C607.373 333.151 607.781 333.455 608.337 333.455Z" fill="#004357"/>
</g>
<path d="M208 368C208 356.954 216.954 348 228 348V348C239.046 348 248 356.954 248 368V368C248 379.046 239.046 388 228 388V388C216.954 388 208 379.046 208 368V368Z" fill="#F3F4F6"/>
<circle cx="228" cy="368" r="20" fill="#F3F4F6"/>
<mask id="mask26_6262_112196" style="mask-type:alpha" maskUnits="userSpaceOnUse" x="208" y="343" width="40" height="45">
<path d="M208 343.453H248V367.999C248 379.044 239.046 387.999 228 387.999V387.999C216.954 387.999 208 379.044 208 367.999V343.453Z" fill="#D9D9D9"/>
</mask>
<g mask="url(#mask26_6262_112196)">
<path fill-rule="evenodd" clip-rule="evenodd" d="M234.523 363.856L233.397 364.869L234.77 365.507C240.794 368.303 244.869 374.32 244.869 381.183C244.869 382.926 244.183 385.728 243.013 388.096C242.431 389.272 241.759 390.281 241.047 390.982C240.33 391.687 239.659 391.998 239.053 391.998H216.337C215.731 391.998 215.06 391.687 214.343 390.982C213.631 390.281 212.959 389.272 212.377 388.096C211.207 385.728 210.521 382.926 210.521 381.183C210.521 374.32 214.596 368.303 220.62 365.507L221.993 364.869L220.867 363.856C218.774 361.973 217.337 359.278 217.337 356.194C217.337 350.386 221.887 345.836 227.695 345.836C233.503 345.836 238.053 350.386 238.053 356.194C238.053 359.278 236.616 361.973 234.523 363.856ZM227.695 348.379C223.281 348.379 219.88 351.78 219.88 356.194C219.88 360.609 223.281 364.009 227.695 364.009C232.109 364.009 235.51 360.609 235.51 356.194C235.51 351.78 232.109 348.379 227.695 348.379ZM216.337 389.455H239.053C239.609 389.455 240.017 389.151 240.269 388.885C240.525 388.615 240.725 388.275 240.884 387.944C241.207 387.274 241.468 386.413 241.673 385.565C242.08 383.874 242.325 381.972 242.325 381.183C242.325 373.134 235.744 366.553 227.695 366.553C219.646 366.553 213.065 373.134 213.065 381.183C213.065 381.972 213.31 383.874 213.717 385.565C213.922 386.413 214.183 387.274 214.506 387.944C214.665 388.275 214.865 388.615 215.121 388.885C215.373 389.151 215.781 389.455 216.337 389.455Z" fill="#004357"/>
</g>
<path d="M264 368C264 356.954 272.954 348 284 348V348C295.046 348 304 356.954 304 368V368C304 379.046 295.046 388 284 388V388C272.954 388 264 379.046 264 368V368Z" fill="#F3F4F6"/>
<circle cx="284" cy="368" r="20" fill="#F3F4F6"/>
<mask id="mask27_6262_112196" style="mask-type:alpha" maskUnits="userSpaceOnUse" x="264" y="343" width="40" height="45">
<path d="M264 343.453H304V367.999C304 379.044 295.046 387.999 284 387.999V387.999C272.954 387.999 264 379.044 264 367.999V343.453Z" fill="#D9D9D9"/>
</mask>
<g mask="url(#mask27_6262_112196)">
<path fill-rule="evenodd" clip-rule="evenodd" d="M290.523 363.856L289.397 364.869L290.77 365.507C296.794 368.303 300.869 374.32 300.869 381.183C300.869 382.926 300.183 385.728 299.013 388.096C298.431 389.272 297.759 390.281 297.047 390.982C296.33 391.687 295.659 391.998 295.053 391.998H272.337C271.731 391.998 271.06 391.687 270.343 390.982C269.631 390.281 268.959 389.272 268.377 388.096C267.207 385.728 266.521 382.926 266.521 381.183C266.521 374.32 270.596 368.303 276.62 365.507L277.993 364.869L276.867 363.856C274.774 361.973 273.337 359.278 273.337 356.194C273.337 350.386 277.887 345.836 283.695 345.836C289.503 345.836 294.053 350.386 294.053 356.194C294.053 359.278 292.616 361.973 290.523 363.856ZM283.695 348.379C279.281 348.379 275.88 351.78 275.88 356.194C275.88 360.609 279.281 364.009 283.695 364.009C288.109 364.009 291.51 360.609 291.51 356.194C291.51 351.78 288.109 348.379 283.695 348.379ZM272.337 389.455H295.053C295.609 389.455 296.017 389.151 296.269 388.885C296.525 388.615 296.725 388.275 296.884 387.944C297.207 387.274 297.468 386.413 297.673 385.565C298.08 383.874 298.325 381.972 298.325 381.183C298.325 373.134 291.744 366.553 283.695 366.553C275.646 366.553 269.065 373.134 269.065 381.183C269.065 381.972 269.31 383.874 269.717 385.565C269.922 386.413 270.183 387.274 270.506 387.944C270.665 388.275 270.865 388.615 271.121 388.885C271.373 389.151 271.781 389.455 272.337 389.455Z" fill="#004357"/>
</g>
<path d="M320 368C320 356.954 328.954 348 340 348V348C351.046 348 360 356.954 360 368V368C360 379.046 351.046 388 340 388V388C328.954 388 320 379.046 320 368V368Z" fill="#F3F4F6"/>
<circle cx="340" cy="368" r="20" fill="#F3F4F6"/>
<mask id="mask28_6262_112196" style="mask-type:alpha" maskUnits="userSpaceOnUse" x="320" y="343" width="40" height="45">
<path d="M320 343.453H360V367.999C360 379.044 351.046 387.999 340 387.999V387.999C328.954 387.999 320 379.044 320 367.999V343.453Z" fill="#D9D9D9"/>
</mask>
<g mask="url(#mask28_6262_112196)">
<path fill-rule="evenodd" clip-rule="evenodd" d="M346.523 363.856L345.397 364.869L346.77 365.507C352.794 368.303 356.869 374.32 356.869 381.183C356.869 382.926 356.183 385.728 355.013 388.096C354.431 389.272 353.759 390.281 353.047 390.982C352.33 391.687 351.659 391.998 351.053 391.998H328.337C327.731 391.998 327.06 391.687 326.343 390.982C325.631 390.281 324.959 389.272 324.377 388.096C323.207 385.728 322.521 382.926 322.521 381.183C322.521 374.32 326.596 368.303 332.62 365.507L333.993 364.869L332.867 363.856C330.774 361.973 329.337 359.278 329.337 356.194C329.337 350.386 333.887 345.836 339.695 345.836C345.503 345.836 350.053 350.386 350.053 356.194C350.053 359.278 348.616 361.973 346.523 363.856ZM339.695 348.379C335.281 348.379 331.88 351.78 331.88 356.194C331.88 360.609 335.281 364.009 339.695 364.009C344.109 364.009 347.51 360.609 347.51 356.194C347.51 351.78 344.109 348.379 339.695 348.379ZM328.337 389.455H351.053C351.609 389.455 352.017 389.151 352.269 388.885C352.525 388.615 352.725 388.275 352.884 387.944C353.207 387.274 353.468 386.413 353.673 385.565C354.08 383.874 354.325 381.972 354.325 381.183C354.325 373.134 347.744 366.553 339.695 366.553C331.646 366.553 325.065 373.134 325.065 381.183C325.065 381.972 325.31 383.874 325.717 385.565C325.922 386.413 326.183 387.274 326.506 387.944C326.665 388.275 326.865 388.615 327.121 388.885C327.373 389.151 327.781 389.455 328.337 389.455Z" fill="#004357"/>
</g>
<path d="M376 368C376 356.954 384.954 348 396 348V348C407.046 348 416 356.954 416 368V368C416 379.046 407.046 388 396 388V388C384.954 388 376 379.046 376 368V368Z" fill="#F3F4F6"/>
<circle cx="396" cy="368" r="20" fill="#F3F4F6"/>
<mask id="mask29_6262_112196" style="mask-type:alpha" maskUnits="userSpaceOnUse" x="376" y="343" width="40" height="45">
<path d="M376 343.453H416V367.999C416 379.044 407.046 387.999 396 387.999V387.999C384.954 387.999 376 379.044 376 367.999V343.453Z" fill="#D9D9D9"/>
</mask>
<g mask="url(#mask29_6262_112196)">
<path fill-rule="evenodd" clip-rule="evenodd" d="M402.523 363.856L401.397 364.869L402.77 365.507C408.794 368.303 412.869 374.32 412.869 381.183C412.869 382.926 412.183 385.728 411.013 388.096C410.431 389.272 409.759 390.281 409.047 390.982C408.33 391.687 407.659 391.998 407.053 391.998H384.337C383.731 391.998 383.06 391.687 382.343 390.982C381.631 390.281 380.959 389.272 380.377 388.096C379.207 385.728 378.521 382.926 378.521 381.183C378.521 374.32 382.596 368.303 388.62 365.507L389.993 364.869L388.867 363.856C386.774 361.973 385.337 359.278 385.337 356.194C385.337 350.386 389.887 345.836 395.695 345.836C401.503 345.836 406.053 350.386 406.053 356.194C406.053 359.278 404.616 361.973 402.523 363.856ZM395.695 348.379C391.281 348.379 387.88 351.78 387.88 356.194C387.88 360.609 391.281 364.009 395.695 364.009C400.109 364.009 403.51 360.609 403.51 356.194C403.51 351.78 400.109 348.379 395.695 348.379ZM384.337 389.455H407.053C407.609 389.455 408.017 389.151 408.269 388.885C408.525 388.615 408.725 388.275 408.884 387.944C409.207 387.274 409.468 386.413 409.673 385.565C410.08 383.874 410.325 381.972 410.325 381.183C410.325 373.134 403.744 366.553 395.695 366.553C387.646 366.553 381.065 373.134 381.065 381.183C381.065 381.972 381.31 383.874 381.717 385.565C381.922 386.413 382.183 387.274 382.506 387.944C382.665 388.275 382.865 388.615 383.121 388.885C383.373 389.151 383.781 389.455 384.337 389.455Z" fill="#004357"/>
</g>
<path d="M432 368C432 356.954 440.954 348 452 348V348C463.046 348 472 356.954 472 368V368C472 379.046 463.046 388 452 388V388C440.954 388 432 379.046 432 368V368Z" fill="#F3F4F6"/>
<circle cx="452" cy="368" r="20" fill="#F3F4F6"/>
<mask id="mask30_6262_112196" style="mask-type:alpha" maskUnits="userSpaceOnUse" x="432" y="343" width="40" height="45">
<path d="M432 343.453H472V367.999C472 379.044 463.046 387.999 452 387.999V387.999C440.954 387.999 432 379.044 432 367.999V343.453Z" fill="#D9D9D9"/>
</mask>
<g mask="url(#mask30_6262_112196)">
<path fill-rule="evenodd" clip-rule="evenodd" d="M458.523 363.856L457.397 364.869L458.77 365.507C464.794 368.303 468.869 374.32 468.869 381.183C468.869 382.926 468.183 385.728 467.013 388.096C466.431 389.272 465.759 390.281 465.047 390.982C464.33 391.687 463.659 391.998 463.053 391.998H440.337C439.731 391.998 439.06 391.687 438.343 390.982C437.631 390.281 436.959 389.272 436.377 388.096C435.207 385.728 434.521 382.926 434.521 381.183C434.521 374.32 438.596 368.303 444.62 365.507L445.993 364.869L444.867 363.856C442.774 361.973 441.337 359.278 441.337 356.194C441.337 350.386 445.887 345.836 451.695 345.836C457.503 345.836 462.053 350.386 462.053 356.194C462.053 359.278 460.616 361.973 458.523 363.856ZM451.695 348.379C447.281 348.379 443.88 351.78 443.88 356.194C443.88 360.609 447.281 364.009 451.695 364.009C456.109 364.009 459.51 360.609 459.51 356.194C459.51 351.78 456.109 348.379 451.695 348.379ZM440.337 389.455H463.053C463.609 389.455 464.017 389.151 464.269 388.885C464.525 388.615 464.725 388.275 464.884 387.944C465.207 387.274 465.468 386.413 465.673 385.565C466.08 383.874 466.325 381.972 466.325 381.183C466.325 373.134 459.744 366.553 451.695 366.553C443.646 366.553 437.065 373.134 437.065 381.183C437.065 381.972 437.31 383.874 437.717 385.565C437.922 386.413 438.183 387.274 438.506 387.944C438.665 388.275 438.865 388.615 439.121 388.885C439.373 389.151 439.781 389.455 440.337 389.455Z" fill="#004357"/>
</g>
<path d="M488 368C488 356.954 496.954 348 508 348V348C519.046 348 528 356.954 528 368V368C528 379.046 519.046 388 508 388V388C496.954 388 488 379.046 488 368V368Z" fill="#F3F4F6"/>
<circle cx="508" cy="368" r="20" fill="#F3F4F6"/>
<mask id="mask31_6262_112196" style="mask-type:alpha" maskUnits="userSpaceOnUse" x="488" y="343" width="40" height="45">
<path d="M488 343.453H528V367.999C528 379.044 519.046 387.999 508 387.999V387.999C496.954 387.999 488 379.044 488 367.999V343.453Z" fill="#D9D9D9"/>
</mask>
<g mask="url(#mask31_6262_112196)">
<path fill-rule="evenodd" clip-rule="evenodd" d="M514.523 363.856L513.397 364.869L514.77 365.507C520.794 368.303 524.869 374.32 524.869 381.183C524.869 382.926 524.183 385.728 523.013 388.096C522.431 389.272 521.759 390.281 521.047 390.982C520.33 391.687 519.659 391.998 519.053 391.998H496.337C495.731 391.998 495.06 391.687 494.343 390.982C493.631 390.281 492.959 389.272 492.377 388.096C491.207 385.728 490.521 382.926 490.521 381.183C490.521 374.32 494.596 368.303 500.62 365.507L501.993 364.869L500.867 363.856C498.774 361.973 497.337 359.278 497.337 356.194C497.337 350.386 501.887 345.836 507.695 345.836C513.503 345.836 518.053 350.386 518.053 356.194C518.053 359.278 516.616 361.973 514.523 363.856ZM507.695 348.379C503.281 348.379 499.88 351.78 499.88 356.194C499.88 360.609 503.281 364.009 507.695 364.009C512.109 364.009 515.51 360.609 515.51 356.194C515.51 351.78 512.109 348.379 507.695 348.379ZM496.337 389.455H519.053C519.609 389.455 520.017 389.151 520.269 388.885C520.525 388.615 520.725 388.275 520.884 387.944C521.207 387.274 521.468 386.413 521.673 385.565C522.08 383.874 522.325 381.972 522.325 381.183C522.325 373.134 515.744 366.553 507.695 366.553C499.646 366.553 493.065 373.134 493.065 381.183C493.065 381.972 493.31 383.874 493.717 385.565C493.922 386.413 494.183 387.274 494.506 387.944C494.665 388.275 494.865 388.615 495.121 388.885C495.373 389.151 495.781 389.455 496.337 389.455Z" fill="#004357"/>
</g>
<path d="M544 368C544 356.954 552.954 348 564 348V348C575.046 348 584 356.954 584 368V368C584 379.046 575.046 388 564 388V388C552.954 388 544 379.046 544 368V368Z" fill="#F3F4F6"/>
<circle cx="564" cy="368" r="20" fill="#F3F4F6"/>
<mask id="mask32_6262_112196" style="mask-type:alpha" maskUnits="userSpaceOnUse" x="544" y="343" width="40" height="45">
<path d="M544 343.453H584V367.999C584 379.044 575.046 387.999 564 387.999V387.999C552.954 387.999 544 379.044 544 367.999V343.453Z" fill="#D9D9D9"/>
</mask>
<g mask="url(#mask32_6262_112196)">
<path fill-rule="evenodd" clip-rule="evenodd" d="M570.523 363.856L569.397 364.869L570.77 365.507C576.794 368.303 580.869 374.32 580.869 381.183C580.869 382.926 580.183 385.728 579.013 388.096C578.431 389.272 577.759 390.281 577.047 390.982C576.33 391.687 575.659 391.998 575.053 391.998H552.337C551.731 391.998 551.06 391.687 550.343 390.982C549.631 390.281 548.959 389.272 548.377 388.096C547.207 385.728 546.521 382.926 546.521 381.183C546.521 374.32 550.596 368.303 556.62 365.507L557.993 364.869L556.867 363.856C554.774 361.973 553.337 359.278 553.337 356.194C553.337 350.386 557.887 345.836 563.695 345.836C569.503 345.836 574.053 350.386 574.053 356.194C574.053 359.278 572.616 361.973 570.523 363.856ZM563.695 348.379C559.281 348.379 555.88 351.78 555.88 356.194C555.88 360.609 559.281 364.009 563.695 364.009C568.109 364.009 571.51 360.609 571.51 356.194C571.51 351.78 568.109 348.379 563.695 348.379ZM552.337 389.455H575.053C575.609 389.455 576.017 389.151 576.269 388.885C576.525 388.615 576.725 388.275 576.884 387.944C577.207 387.274 577.468 386.413 577.673 385.565C578.08 383.874 578.325 381.972 578.325 381.183C578.325 373.134 571.744 366.553 563.695 366.553C555.646 366.553 549.065 373.134 549.065 381.183C549.065 381.972 549.31 383.874 549.717 385.565C549.922 386.413 550.183 387.274 550.506 387.944C550.665 388.275 550.865 388.615 551.121 388.885C551.373 389.151 551.781 389.455 552.337 389.455Z" fill="#004357"/>
</g>
<path d="M600 368C600 356.954 608.954 348 620 348V348C631.046 348 640 356.954 640 368V368C640 379.046 631.046 388 620 388V388C608.954 388 600 379.046 600 368V368Z" fill="#F3F4F6"/>
<circle cx="620" cy="368" r="20" fill="#F3F4F6"/>
<mask id="mask33_6262_112196" style="mask-type:alpha" maskUnits="userSpaceOnUse" x="600" y="343" width="40" height="45">
<path d="M600 343.453H640V367.999C640 379.044 631.046 387.999 620 387.999V387.999C608.954 387.999 600 379.044 600 367.999V343.453Z" fill="#D9D9D9"/>
</mask>
<g mask="url(#mask33_6262_112196)">
<path fill-rule="evenodd" clip-rule="evenodd" d="M626.523 363.856L625.397 364.869L626.77 365.507C632.794 368.303 636.869 374.32 636.869 381.183C636.869 382.926 636.183 385.728 635.013 388.096C634.431 389.272 633.759 390.281 633.047 390.982C632.33 391.687 631.659 391.998 631.053 391.998H608.337C607.731 391.998 607.06 391.687 606.343 390.982C605.631 390.281 604.959 389.272 604.377 388.096C603.207 385.728 602.521 382.926 602.521 381.183C602.521 374.32 606.596 368.303 612.62 365.507L613.993 364.869L612.867 363.856C610.774 361.973 609.337 359.278 609.337 356.194C609.337 350.386 613.887 345.836 619.695 345.836C625.503 345.836 630.053 350.386 630.053 356.194C630.053 359.278 628.616 361.973 626.523 363.856ZM619.695 348.379C615.281 348.379 611.88 351.78 611.88 356.194C611.88 360.609 615.281 364.009 619.695 364.009C624.109 364.009 627.51 360.609 627.51 356.194C627.51 351.78 624.109 348.379 619.695 348.379ZM608.337 389.455H631.053C631.609 389.455 632.017 389.151 632.269 388.885C632.525 388.615 632.725 388.275 632.884 387.944C633.207 387.274 633.468 386.413 633.673 385.565C634.08 383.874 634.325 381.972 634.325 381.183C634.325 373.134 627.744 366.553 619.695 366.553C611.646 366.553 605.065 373.134 605.065 381.183C605.065 381.972 605.31 383.874 605.717 385.565C605.922 386.413 606.183 387.274 606.506 387.944C606.665 388.275 606.865 388.615 607.121 388.885C607.373 389.151 607.781 389.455 608.337 389.455Z" fill="#004357"/>
</g>
<path d="M519.498 275.217C519.976 275.494 520.588 275.331 520.865 274.853L525.377 267.066C525.654 266.589 525.491 265.977 525.013 265.7C524.535 265.423 523.924 265.586 523.647 266.064L519.636 272.986L512.714 268.975C512.236 268.698 511.624 268.861 511.347 269.339C511.07 269.816 511.233 270.428 511.711 270.705L519.498 275.217ZM462.392 240.059C475.853 237.226 488.076 238.661 497.875 244.354C507.665 250.042 515.157 260.051 519.033 274.609L520.966 274.095C516.98 259.123 509.209 248.626 498.88 242.625C488.56 236.629 475.808 235.192 461.981 238.102L462.392 240.059Z" fill="#004357"/>
</svg>
