<svg width="646" height="388" viewBox="0 0 646 388" fill="none" xmlns="http://www.w3.org/2000/svg">
<path d="M1 98C1 86.9543 9.95431 78 21 78V78C32.0457 78 41 86.9543 41 98V98C41 109.046 32.0457 118 21 118V118C9.95431 118 1 109.046 1 98V98Z" fill="#BED73C"/>
<circle cx="21" cy="98" r="20" fill="#BED73C"/>
<mask id="mask0_6262_109276" style="mask-type:alpha" maskUnits="userSpaceOnUse" x="1" y="73" width="40" height="45">
<path d="M1 73.4531H41V97.9988C41 109.044 32.0457 117.999 21 117.999V117.999C9.95431 117.999 1 109.044 1 97.9988V73.4531Z" fill="#D9D9D9"/>
</mask>
<g mask="url(#mask0_6262_109276)">
<path fill-rule="evenodd" clip-rule="evenodd" d="M27.5226 93.8563L26.3973 94.8691L27.7705 95.5067C33.7937 98.3032 37.8685 104.32 37.8685 111.183C37.8685 112.926 37.1826 115.728 36.0127 118.096C35.4314 119.272 34.7594 120.281 34.0465 120.982C33.3296 121.687 32.6587 121.998 32.0535 121.998H9.33655C8.73133 121.998 8.06039 121.687 7.34347 120.982C6.63063 120.281 5.95863 119.272 5.37734 118.096C4.20742 115.728 3.52148 112.926 3.52148 111.183C3.52148 104.32 7.5963 98.3032 13.6195 95.5067L14.9927 94.8691L13.8674 93.8563C11.7745 91.9727 10.3366 89.2781 10.3366 86.1944C10.3366 80.3859 14.8866 75.8359 20.695 75.8359C26.5035 75.8359 31.0535 80.3859 31.0535 86.1944C31.0535 89.2781 29.6155 91.9727 27.5226 93.8563ZM20.695 78.3793C16.2808 78.3793 12.8799 81.7802 12.8799 86.1944C12.8799 90.6085 16.2808 94.0095 20.695 94.0095C25.1092 94.0095 28.5101 90.6085 28.5101 86.1944C28.5101 81.7802 25.1092 78.3793 20.695 78.3793ZM9.33655 119.455H32.0535C32.6092 119.455 33.0173 119.151 33.269 118.885C33.5247 118.615 33.7249 118.275 33.8845 117.944C34.2069 117.274 34.4678 116.413 34.6725 115.565C35.0805 113.874 35.3251 111.972 35.3251 111.183C35.3251 103.134 28.7439 96.5528 20.695 96.5528C12.6461 96.5528 6.06486 103.134 6.06486 111.183C6.06486 111.972 6.30952 113.874 6.71748 115.565C6.92219 116.413 7.18316 117.274 7.50552 117.944C7.66513 118.275 7.86528 118.615 8.12101 118.885C8.37275 119.151 8.78076 119.455 9.33655 119.455Z" fill="#004357"/>
</g>
<path d="M57 98C57 86.9543 65.9543 78 77 78V78C88.0457 78 97 86.9543 97 98V98C97 109.046 88.0457 118 77 118V118C65.9543 118 57 109.046 57 98V98Z" fill="#BED73C"/>
<circle cx="77" cy="98" r="20" fill="#BED73C"/>
<mask id="mask1_6262_109276" style="mask-type:alpha" maskUnits="userSpaceOnUse" x="57" y="73" width="40" height="45">
<path d="M57 73.4531H97V97.9988C97 109.044 88.0457 117.999 77 117.999V117.999C65.9543 117.999 57 109.044 57 97.9988V73.4531Z" fill="#D9D9D9"/>
</mask>
<g mask="url(#mask1_6262_109276)">
<path fill-rule="evenodd" clip-rule="evenodd" d="M83.5226 93.8563L82.3973 94.8691L83.7705 95.5067C89.7937 98.3032 93.8685 104.32 93.8685 111.183C93.8685 112.926 93.1826 115.728 92.0127 118.096C91.4314 119.272 90.7594 120.281 90.0465 120.982C89.3296 121.687 88.6587 121.998 88.0535 121.998H65.3366C64.7313 121.998 64.0604 121.687 63.3435 120.982C62.6306 120.281 61.9586 119.272 61.3773 118.096C60.2074 115.728 59.5215 112.926 59.5215 111.183C59.5215 104.32 63.5963 98.3032 69.6195 95.5067L70.9927 94.8691L69.8674 93.8563C67.7745 91.9727 66.3366 89.2781 66.3366 86.1944C66.3366 80.3859 70.8866 75.8359 76.695 75.8359C82.5035 75.8359 87.0535 80.3859 87.0535 86.1944C87.0535 89.2781 85.6155 91.9727 83.5226 93.8563ZM76.695 78.3793C72.2808 78.3793 68.8799 81.7802 68.8799 86.1944C68.8799 90.6085 72.2808 94.0095 76.695 94.0095C81.1092 94.0095 84.5101 90.6085 84.5101 86.1944C84.5101 81.7802 81.1092 78.3793 76.695 78.3793ZM65.3366 119.455H88.0535C88.6092 119.455 89.0173 119.151 89.269 118.885C89.5247 118.615 89.7249 118.275 89.8845 117.944C90.2069 117.274 90.4678 116.413 90.6725 115.565C91.0805 113.874 91.3251 111.972 91.3251 111.183C91.3251 103.134 84.7439 96.5528 76.695 96.5528C68.6461 96.5528 62.0649 103.134 62.0649 111.183C62.0649 111.972 62.3095 113.874 62.7175 115.565C62.9222 116.413 63.1832 117.274 63.5055 117.944C63.6651 118.275 63.8653 118.615 64.121 118.885C64.3727 119.151 64.7808 119.455 65.3366 119.455Z" fill="#004357"/>
</g>
<path d="M113 98C113 86.9543 121.954 78 133 78V78C144.046 78 153 86.9543 153 98V98C153 109.046 144.046 118 133 118V118C121.954 118 113 109.046 113 98V98Z" fill="#BED73C"/>
<circle cx="133" cy="98" r="20" fill="#BED73C"/>
<mask id="mask2_6262_109276" style="mask-type:alpha" maskUnits="userSpaceOnUse" x="113" y="73" width="40" height="45">
<path d="M113 73.4531H153V97.9988C153 109.044 144.046 117.999 133 117.999V117.999C121.954 117.999 113 109.044 113 97.9988V73.4531Z" fill="#D9D9D9"/>
</mask>
<g mask="url(#mask2_6262_109276)">
<path fill-rule="evenodd" clip-rule="evenodd" d="M139.523 93.8563L138.397 94.8691L139.77 95.5067C145.794 98.3032 149.869 104.32 149.869 111.183C149.869 112.926 149.183 115.728 148.013 118.096C147.431 119.272 146.759 120.281 146.047 120.982C145.33 121.687 144.659 121.998 144.053 121.998H121.337C120.731 121.998 120.06 121.687 119.343 120.982C118.631 120.281 117.959 119.272 117.377 118.096C116.207 115.728 115.521 112.926 115.521 111.183C115.521 104.32 119.596 98.3032 125.62 95.5067L126.993 94.8691L125.867 93.8563C123.774 91.9727 122.337 89.2781 122.337 86.1944C122.337 80.3859 126.887 75.8359 132.695 75.8359C138.503 75.8359 143.053 80.3859 143.053 86.1944C143.053 89.2781 141.616 91.9727 139.523 93.8563ZM132.695 78.3793C128.281 78.3793 124.88 81.7802 124.88 86.1944C124.88 90.6085 128.281 94.0095 132.695 94.0095C137.109 94.0095 140.51 90.6085 140.51 86.1944C140.51 81.7802 137.109 78.3793 132.695 78.3793ZM121.337 119.455H144.053C144.609 119.455 145.017 119.151 145.269 118.885C145.525 118.615 145.725 118.275 145.884 117.944C146.207 117.274 146.468 116.413 146.673 115.565C147.08 113.874 147.325 111.972 147.325 111.183C147.325 103.134 140.744 96.5528 132.695 96.5528C124.646 96.5528 118.065 103.134 118.065 111.183C118.065 111.972 118.31 113.874 118.717 115.565C118.922 116.413 119.183 117.274 119.506 117.944C119.665 118.275 119.865 118.615 120.121 118.885C120.373 119.151 120.781 119.455 121.337 119.455Z" fill="#004357"/>
</g>
<path d="M169 98C169 86.9543 177.954 78 189 78V78C200.046 78 209 86.9543 209 98V98C209 109.046 200.046 118 189 118V118C177.954 118 169 109.046 169 98V98Z" fill="#BED73C"/>
<circle cx="189" cy="98" r="20" fill="#BED73C"/>
<mask id="mask3_6262_109276" style="mask-type:alpha" maskUnits="userSpaceOnUse" x="169" y="73" width="40" height="45">
<path d="M169 73.4531H209V97.9988C209 109.044 200.046 117.999 189 117.999V117.999C177.954 117.999 169 109.044 169 97.9988V73.4531Z" fill="#D9D9D9"/>
</mask>
<g mask="url(#mask3_6262_109276)">
<path fill-rule="evenodd" clip-rule="evenodd" d="M195.523 93.8563L194.397 94.8691L195.77 95.5067C201.794 98.3032 205.869 104.32 205.869 111.183C205.869 112.926 205.183 115.728 204.013 118.096C203.431 119.272 202.759 120.281 202.047 120.982C201.33 121.687 200.659 121.998 200.053 121.998H177.337C176.731 121.998 176.06 121.687 175.343 120.982C174.631 120.281 173.959 119.272 173.377 118.096C172.207 115.728 171.521 112.926 171.521 111.183C171.521 104.32 175.596 98.3032 181.62 95.5067L182.993 94.8691L181.867 93.8563C179.774 91.9727 178.337 89.2781 178.337 86.1944C178.337 80.3859 182.887 75.8359 188.695 75.8359C194.503 75.8359 199.053 80.3859 199.053 86.1944C199.053 89.2781 197.616 91.9727 195.523 93.8563ZM188.695 78.3793C184.281 78.3793 180.88 81.7802 180.88 86.1944C180.88 90.6085 184.281 94.0095 188.695 94.0095C193.109 94.0095 196.51 90.6085 196.51 86.1944C196.51 81.7802 193.109 78.3793 188.695 78.3793ZM177.337 119.455H200.053C200.609 119.455 201.017 119.151 201.269 118.885C201.525 118.615 201.725 118.275 201.884 117.944C202.207 117.274 202.468 116.413 202.673 115.565C203.08 113.874 203.325 111.972 203.325 111.183C203.325 103.134 196.744 96.5528 188.695 96.5528C180.646 96.5528 174.065 103.134 174.065 111.183C174.065 111.972 174.31 113.874 174.717 115.565C174.922 116.413 175.183 117.274 175.506 117.944C175.665 118.275 175.865 118.615 176.121 118.885C176.373 119.151 176.781 119.455 177.337 119.455Z" fill="#004357"/>
</g>
<path d="M225 98C225 86.9543 233.954 78 245 78V78C256.046 78 265 86.9543 265 98V98C265 109.046 256.046 118 245 118V118C233.954 118 225 109.046 225 98V98Z" fill="#BED73C"/>
<circle cx="245" cy="98" r="20" fill="#BED73C"/>
<mask id="mask4_6262_109276" style="mask-type:alpha" maskUnits="userSpaceOnUse" x="225" y="73" width="40" height="45">
<path d="M225 73.4531H265V97.9988C265 109.044 256.046 117.999 245 117.999V117.999C233.954 117.999 225 109.044 225 97.9988V73.4531Z" fill="#D9D9D9"/>
</mask>
<g mask="url(#mask4_6262_109276)">
<path fill-rule="evenodd" clip-rule="evenodd" d="M251.523 93.8563L250.397 94.8691L251.77 95.5067C257.794 98.3032 261.869 104.32 261.869 111.183C261.869 112.926 261.183 115.728 260.013 118.096C259.431 119.272 258.759 120.281 258.047 120.982C257.33 121.687 256.659 121.998 256.053 121.998H233.337C232.731 121.998 232.06 121.687 231.343 120.982C230.631 120.281 229.959 119.272 229.377 118.096C228.207 115.728 227.521 112.926 227.521 111.183C227.521 104.32 231.596 98.3032 237.62 95.5067L238.993 94.8691L237.867 93.8563C235.774 91.9727 234.337 89.2781 234.337 86.1944C234.337 80.3859 238.887 75.8359 244.695 75.8359C250.503 75.8359 255.053 80.3859 255.053 86.1944C255.053 89.2781 253.616 91.9727 251.523 93.8563ZM244.695 78.3793C240.281 78.3793 236.88 81.7802 236.88 86.1944C236.88 90.6085 240.281 94.0095 244.695 94.0095C249.109 94.0095 252.51 90.6085 252.51 86.1944C252.51 81.7802 249.109 78.3793 244.695 78.3793ZM233.337 119.455H256.053C256.609 119.455 257.017 119.151 257.269 118.885C257.525 118.615 257.725 118.275 257.884 117.944C258.207 117.274 258.468 116.413 258.673 115.565C259.08 113.874 259.325 111.972 259.325 111.183C259.325 103.134 252.744 96.5528 244.695 96.5528C236.646 96.5528 230.065 103.134 230.065 111.183C230.065 111.972 230.31 113.874 230.717 115.565C230.922 116.413 231.183 117.274 231.506 117.944C231.665 118.275 231.865 118.615 232.121 118.885C232.373 119.151 232.781 119.455 233.337 119.455Z" fill="#004357"/>
</g>
<path d="M281 98C281 86.9543 289.954 78 301 78V78C312.046 78 321 86.9543 321 98V98C321 109.046 312.046 118 301 118V118C289.954 118 281 109.046 281 98V98Z" fill="#F3F4F6"/>
<circle cx="301" cy="98" r="20" fill="#F3F4F6"/>
<mask id="mask5_6262_109276" style="mask-type:alpha" maskUnits="userSpaceOnUse" x="281" y="73" width="40" height="45">
<path d="M281 73.4531H321V97.9988C321 109.044 312.046 117.999 301 117.999V117.999C289.954 117.999 281 109.044 281 97.9988V73.4531Z" fill="#D9D9D9"/>
</mask>
<g mask="url(#mask5_6262_109276)">
<path fill-rule="evenodd" clip-rule="evenodd" d="M307.523 93.8563L306.397 94.8691L307.77 95.5067C313.794 98.3032 317.869 104.32 317.869 111.183C317.869 112.926 317.183 115.728 316.013 118.096C315.431 119.272 314.759 120.281 314.047 120.982C313.33 121.687 312.659 121.998 312.053 121.998H289.337C288.731 121.998 288.06 121.687 287.343 120.982C286.631 120.281 285.959 119.272 285.377 118.096C284.207 115.728 283.521 112.926 283.521 111.183C283.521 104.32 287.596 98.3032 293.62 95.5067L294.993 94.8691L293.867 93.8563C291.774 91.9727 290.337 89.2781 290.337 86.1944C290.337 80.3859 294.887 75.8359 300.695 75.8359C306.503 75.8359 311.053 80.3859 311.053 86.1944C311.053 89.2781 309.616 91.9727 307.523 93.8563ZM300.695 78.3793C296.281 78.3793 292.88 81.7802 292.88 86.1944C292.88 90.6085 296.281 94.0095 300.695 94.0095C305.109 94.0095 308.51 90.6085 308.51 86.1944C308.51 81.7802 305.109 78.3793 300.695 78.3793ZM289.337 119.455H312.053C312.609 119.455 313.017 119.151 313.269 118.885C313.525 118.615 313.725 118.275 313.884 117.944C314.207 117.274 314.468 116.413 314.673 115.565C315.08 113.874 315.325 111.972 315.325 111.183C315.325 103.134 308.744 96.5528 300.695 96.5528C292.646 96.5528 286.065 103.134 286.065 111.183C286.065 111.972 286.31 113.874 286.717 115.565C286.922 116.413 287.183 117.274 287.506 117.944C287.665 118.275 287.865 118.615 288.121 118.885C288.373 119.151 288.781 119.455 289.337 119.455Z" fill="#004357"/>
</g>
<path d="M337 98C337 86.9543 345.954 78 357 78V78C368.046 78 377 86.9543 377 98V98C377 109.046 368.046 118 357 118V118C345.954 118 337 109.046 337 98V98Z" fill="#F3F4F6"/>
<circle cx="357" cy="98" r="20" fill="#F3F4F6"/>
<mask id="mask6_6262_109276" style="mask-type:alpha" maskUnits="userSpaceOnUse" x="337" y="73" width="40" height="45">
<path d="M337 73.4531H377V97.9988C377 109.044 368.046 117.999 357 117.999V117.999C345.954 117.999 337 109.044 337 97.9988V73.4531Z" fill="#D9D9D9"/>
</mask>
<g mask="url(#mask6_6262_109276)">
<path fill-rule="evenodd" clip-rule="evenodd" d="M363.523 93.8563L362.397 94.8691L363.77 95.5067C369.794 98.3032 373.869 104.32 373.869 111.183C373.869 112.926 373.183 115.728 372.013 118.096C371.431 119.272 370.759 120.281 370.047 120.982C369.33 121.687 368.659 121.998 368.053 121.998H345.337C344.731 121.998 344.06 121.687 343.343 120.982C342.631 120.281 341.959 119.272 341.377 118.096C340.207 115.728 339.521 112.926 339.521 111.183C339.521 104.32 343.596 98.3032 349.62 95.5067L350.993 94.8691L349.867 93.8563C347.774 91.9727 346.337 89.2781 346.337 86.1944C346.337 80.3859 350.887 75.8359 356.695 75.8359C362.503 75.8359 367.053 80.3859 367.053 86.1944C367.053 89.2781 365.616 91.9727 363.523 93.8563ZM356.695 78.3793C352.281 78.3793 348.88 81.7802 348.88 86.1944C348.88 90.6085 352.281 94.0095 356.695 94.0095C361.109 94.0095 364.51 90.6085 364.51 86.1944C364.51 81.7802 361.109 78.3793 356.695 78.3793ZM345.337 119.455H368.053C368.609 119.455 369.017 119.151 369.269 118.885C369.525 118.615 369.725 118.275 369.884 117.944C370.207 117.274 370.468 116.413 370.673 115.565C371.08 113.874 371.325 111.972 371.325 111.183C371.325 103.134 364.744 96.5528 356.695 96.5528C348.646 96.5528 342.065 103.134 342.065 111.183C342.065 111.972 342.31 113.874 342.717 115.565C342.922 116.413 343.183 117.274 343.506 117.944C343.665 118.275 343.865 118.615 344.121 118.885C344.373 119.151 344.781 119.455 345.337 119.455Z" fill="#004357"/>
</g>
<path d="M393 98C393 86.9543 401.954 78 413 78V78C424.046 78 433 86.9543 433 98V98C433 109.046 424.046 118 413 118V118C401.954 118 393 109.046 393 98V98Z" fill="#F3F4F6"/>
<circle cx="413" cy="98" r="20" fill="#F3F4F6"/>
<mask id="mask7_6262_109276" style="mask-type:alpha" maskUnits="userSpaceOnUse" x="393" y="73" width="40" height="45">
<path d="M393 73.4531H433V97.9988C433 109.044 424.046 117.999 413 117.999V117.999C401.954 117.999 393 109.044 393 97.9988V73.4531Z" fill="#D9D9D9"/>
</mask>
<g mask="url(#mask7_6262_109276)">
<path fill-rule="evenodd" clip-rule="evenodd" d="M419.523 93.8563L418.397 94.8691L419.77 95.5067C425.794 98.3032 429.869 104.32 429.869 111.183C429.869 112.926 429.183 115.728 428.013 118.096C427.431 119.272 426.759 120.281 426.047 120.982C425.33 121.687 424.659 121.998 424.053 121.998H401.337C400.731 121.998 400.06 121.687 399.343 120.982C398.631 120.281 397.959 119.272 397.377 118.096C396.207 115.728 395.521 112.926 395.521 111.183C395.521 104.32 399.596 98.3032 405.62 95.5067L406.993 94.8691L405.867 93.8563C403.774 91.9727 402.337 89.2781 402.337 86.1944C402.337 80.3859 406.887 75.8359 412.695 75.8359C418.503 75.8359 423.053 80.3859 423.053 86.1944C423.053 89.2781 421.616 91.9727 419.523 93.8563ZM412.695 78.3793C408.281 78.3793 404.88 81.7802 404.88 86.1944C404.88 90.6085 408.281 94.0095 412.695 94.0095C417.109 94.0095 420.51 90.6085 420.51 86.1944C420.51 81.7802 417.109 78.3793 412.695 78.3793ZM401.337 119.455H424.053C424.609 119.455 425.017 119.151 425.269 118.885C425.525 118.615 425.725 118.275 425.884 117.944C426.207 117.274 426.468 116.413 426.673 115.565C427.08 113.874 427.325 111.972 427.325 111.183C427.325 103.134 420.744 96.5528 412.695 96.5528C404.646 96.5528 398.065 103.134 398.065 111.183C398.065 111.972 398.31 113.874 398.717 115.565C398.922 116.413 399.183 117.274 399.506 117.944C399.665 118.275 399.865 118.615 400.121 118.885C400.373 119.151 400.781 119.455 401.337 119.455Z" fill="#004357"/>
</g>
<path d="M449 98C449 86.9543 457.954 78 469 78V78C480.046 78 489 86.9543 489 98V98C489 109.046 480.046 118 469 118V118C457.954 118 449 109.046 449 98V98Z" fill="#F3F4F6"/>
<circle cx="469" cy="98" r="20" fill="#F3F4F6"/>
<mask id="mask8_6262_109276" style="mask-type:alpha" maskUnits="userSpaceOnUse" x="449" y="73" width="40" height="45">
<path d="M449 73.4531H489V97.9988C489 109.044 480.046 117.999 469 117.999V117.999C457.954 117.999 449 109.044 449 97.9988V73.4531Z" fill="#D9D9D9"/>
</mask>
<g mask="url(#mask8_6262_109276)">
<path fill-rule="evenodd" clip-rule="evenodd" d="M475.523 93.8563L474.397 94.8691L475.77 95.5067C481.794 98.3032 485.869 104.32 485.869 111.183C485.869 112.926 485.183 115.728 484.013 118.096C483.431 119.272 482.759 120.281 482.047 120.982C481.33 121.687 480.659 121.998 480.053 121.998H457.337C456.731 121.998 456.06 121.687 455.343 120.982C454.631 120.281 453.959 119.272 453.377 118.096C452.207 115.728 451.521 112.926 451.521 111.183C451.521 104.32 455.596 98.3032 461.62 95.5067L462.993 94.8691L461.867 93.8563C459.774 91.9727 458.337 89.2781 458.337 86.1944C458.337 80.3859 462.887 75.8359 468.695 75.8359C474.503 75.8359 479.053 80.3859 479.053 86.1944C479.053 89.2781 477.616 91.9727 475.523 93.8563ZM468.695 78.3793C464.281 78.3793 460.88 81.7802 460.88 86.1944C460.88 90.6085 464.281 94.0095 468.695 94.0095C473.109 94.0095 476.51 90.6085 476.51 86.1944C476.51 81.7802 473.109 78.3793 468.695 78.3793ZM457.337 119.455H480.053C480.609 119.455 481.017 119.151 481.269 118.885C481.525 118.615 481.725 118.275 481.884 117.944C482.207 117.274 482.468 116.413 482.673 115.565C483.08 113.874 483.325 111.972 483.325 111.183C483.325 103.134 476.744 96.5528 468.695 96.5528C460.646 96.5528 454.065 103.134 454.065 111.183C454.065 111.972 454.31 113.874 454.717 115.565C454.922 116.413 455.183 117.274 455.506 117.944C455.665 118.275 455.865 118.615 456.121 118.885C456.373 119.151 456.781 119.455 457.337 119.455Z" fill="#004357"/>
</g>
<path d="M1 154C1 142.954 9.95431 134 21 134V134C32.0457 134 41 142.954 41 154V154C41 165.046 32.0457 174 21 174V174C9.95431 174 1 165.046 1 154V154Z" fill="#F3F4F6"/>
<circle cx="21" cy="154" r="20" fill="#F3F4F6"/>
<mask id="mask9_6262_109276" style="mask-type:alpha" maskUnits="userSpaceOnUse" x="1" y="129" width="40" height="45">
<path d="M1 129.453H41V153.999C41 165.044 32.0457 173.999 21 173.999V173.999C9.95431 173.999 1 165.044 1 153.999V129.453Z" fill="#D9D9D9"/>
</mask>
<g mask="url(#mask9_6262_109276)">
<path fill-rule="evenodd" clip-rule="evenodd" d="M27.5226 149.856L26.3973 150.869L27.7705 151.507C33.7937 154.303 37.8685 160.32 37.8685 167.183C37.8685 168.926 37.1826 171.728 36.0127 174.096C35.4314 175.272 34.7594 176.281 34.0465 176.982C33.3296 177.687 32.6587 177.998 32.0535 177.998H9.33655C8.73133 177.998 8.06039 177.687 7.34347 176.982C6.63063 176.281 5.95863 175.272 5.37734 174.096C4.20742 171.728 3.52148 168.926 3.52148 167.183C3.52148 160.32 7.5963 154.303 13.6195 151.507L14.9927 150.869L13.8674 149.856C11.7745 147.973 10.3366 145.278 10.3366 142.194C10.3366 136.386 14.8866 131.836 20.695 131.836C26.5035 131.836 31.0535 136.386 31.0535 142.194C31.0535 145.278 29.6155 147.973 27.5226 149.856ZM20.695 134.379C16.2808 134.379 12.8799 137.78 12.8799 142.194C12.8799 146.609 16.2808 150.009 20.695 150.009C25.1092 150.009 28.5101 146.609 28.5101 142.194C28.5101 137.78 25.1092 134.379 20.695 134.379ZM9.33655 175.455H32.0535C32.6092 175.455 33.0173 175.151 33.269 174.885C33.5247 174.615 33.7249 174.275 33.8845 173.944C34.2069 173.274 34.4678 172.413 34.6725 171.565C35.0805 169.874 35.3251 167.972 35.3251 167.183C35.3251 159.134 28.7439 152.553 20.695 152.553C12.6461 152.553 6.06486 159.134 6.06486 167.183C6.06486 167.972 6.30952 169.874 6.71748 171.565C6.92219 172.413 7.18316 173.274 7.50552 173.944C7.66513 174.275 7.86528 174.615 8.12101 174.885C8.37275 175.151 8.78076 175.455 9.33655 175.455Z" fill="#004357"/>
</g>
<path d="M57 154C57 142.954 65.9543 134 77 134V134C88.0457 134 97 142.954 97 154V154C97 165.046 88.0457 174 77 174V174C65.9543 174 57 165.046 57 154V154Z" fill="#F3F4F6"/>
<circle cx="77" cy="154" r="20" fill="#F3F4F6"/>
<mask id="mask10_6262_109276" style="mask-type:alpha" maskUnits="userSpaceOnUse" x="57" y="129" width="40" height="45">
<path d="M57 129.453H97V153.999C97 165.044 88.0457 173.999 77 173.999V173.999C65.9543 173.999 57 165.044 57 153.999V129.453Z" fill="#D9D9D9"/>
</mask>
<g mask="url(#mask10_6262_109276)">
<path fill-rule="evenodd" clip-rule="evenodd" d="M83.5226 149.856L82.3973 150.869L83.7705 151.507C89.7937 154.303 93.8685 160.32 93.8685 167.183C93.8685 168.926 93.1826 171.728 92.0127 174.096C91.4314 175.272 90.7594 176.281 90.0465 176.982C89.3296 177.687 88.6587 177.998 88.0535 177.998H65.3366C64.7313 177.998 64.0604 177.687 63.3435 176.982C62.6306 176.281 61.9586 175.272 61.3773 174.096C60.2074 171.728 59.5215 168.926 59.5215 167.183C59.5215 160.32 63.5963 154.303 69.6195 151.507L70.9927 150.869L69.8674 149.856C67.7745 147.973 66.3366 145.278 66.3366 142.194C66.3366 136.386 70.8866 131.836 76.695 131.836C82.5035 131.836 87.0535 136.386 87.0535 142.194C87.0535 145.278 85.6155 147.973 83.5226 149.856ZM76.695 134.379C72.2808 134.379 68.8799 137.78 68.8799 142.194C68.8799 146.609 72.2808 150.009 76.695 150.009C81.1092 150.009 84.5101 146.609 84.5101 142.194C84.5101 137.78 81.1092 134.379 76.695 134.379ZM65.3366 175.455H88.0535C88.6092 175.455 89.0173 175.151 89.269 174.885C89.5247 174.615 89.7249 174.275 89.8845 173.944C90.2069 173.274 90.4678 172.413 90.6725 171.565C91.0805 169.874 91.3251 167.972 91.3251 167.183C91.3251 159.134 84.7439 152.553 76.695 152.553C68.6461 152.553 62.0649 159.134 62.0649 167.183C62.0649 167.972 62.3095 169.874 62.7175 171.565C62.9222 172.413 63.1832 173.274 63.5055 173.944C63.6651 174.275 63.8653 174.615 64.121 174.885C64.3727 175.151 64.7808 175.455 65.3366 175.455Z" fill="#004357"/>
</g>
<path d="M113 154C113 142.954 121.954 134 133 134V134C144.046 134 153 142.954 153 154V154C153 165.046 144.046 174 133 174V174C121.954 174 113 165.046 113 154V154Z" fill="#F3F4F6"/>
<circle cx="133" cy="154" r="20" fill="#F3F4F6"/>
<mask id="mask11_6262_109276" style="mask-type:alpha" maskUnits="userSpaceOnUse" x="113" y="129" width="40" height="45">
<path d="M113 129.453H153V153.999C153 165.044 144.046 173.999 133 173.999V173.999C121.954 173.999 113 165.044 113 153.999V129.453Z" fill="#D9D9D9"/>
</mask>
<g mask="url(#mask11_6262_109276)">
<path fill-rule="evenodd" clip-rule="evenodd" d="M139.523 149.856L138.397 150.869L139.77 151.507C145.794 154.303 149.869 160.32 149.869 167.183C149.869 168.926 149.183 171.728 148.013 174.096C147.431 175.272 146.759 176.281 146.047 176.982C145.33 177.687 144.659 177.998 144.053 177.998H121.337C120.731 177.998 120.06 177.687 119.343 176.982C118.631 176.281 117.959 175.272 117.377 174.096C116.207 171.728 115.521 168.926 115.521 167.183C115.521 160.32 119.596 154.303 125.62 151.507L126.993 150.869L125.867 149.856C123.774 147.973 122.337 145.278 122.337 142.194C122.337 136.386 126.887 131.836 132.695 131.836C138.503 131.836 143.053 136.386 143.053 142.194C143.053 145.278 141.616 147.973 139.523 149.856ZM132.695 134.379C128.281 134.379 124.88 137.78 124.88 142.194C124.88 146.609 128.281 150.009 132.695 150.009C137.109 150.009 140.51 146.609 140.51 142.194C140.51 137.78 137.109 134.379 132.695 134.379ZM121.337 175.455H144.053C144.609 175.455 145.017 175.151 145.269 174.885C145.525 174.615 145.725 174.275 145.884 173.944C146.207 173.274 146.468 172.413 146.673 171.565C147.08 169.874 147.325 167.972 147.325 167.183C147.325 159.134 140.744 152.553 132.695 152.553C124.646 152.553 118.065 159.134 118.065 167.183C118.065 167.972 118.31 169.874 118.717 171.565C118.922 172.413 119.183 173.274 119.506 173.944C119.665 174.275 119.865 174.615 120.121 174.885C120.373 175.151 120.781 175.455 121.337 175.455Z" fill="#004357"/>
</g>
<path d="M169 154C169 142.954 177.954 134 189 134V134C200.046 134 209 142.954 209 154V154C209 165.046 200.046 174 189 174V174C177.954 174 169 165.046 169 154V154Z" fill="#F3F4F6"/>
<circle cx="189" cy="154" r="20" fill="#F3F4F6"/>
<mask id="mask12_6262_109276" style="mask-type:alpha" maskUnits="userSpaceOnUse" x="169" y="129" width="40" height="45">
<path d="M169 129.453H209V153.999C209 165.044 200.046 173.999 189 173.999V173.999C177.954 173.999 169 165.044 169 153.999V129.453Z" fill="#D9D9D9"/>
</mask>
<g mask="url(#mask12_6262_109276)">
<path fill-rule="evenodd" clip-rule="evenodd" d="M195.523 149.856L194.397 150.869L195.77 151.507C201.794 154.303 205.869 160.32 205.869 167.183C205.869 168.926 205.183 171.728 204.013 174.096C203.431 175.272 202.759 176.281 202.047 176.982C201.33 177.687 200.659 177.998 200.053 177.998H177.337C176.731 177.998 176.06 177.687 175.343 176.982C174.631 176.281 173.959 175.272 173.377 174.096C172.207 171.728 171.521 168.926 171.521 167.183C171.521 160.32 175.596 154.303 181.62 151.507L182.993 150.869L181.867 149.856C179.774 147.973 178.337 145.278 178.337 142.194C178.337 136.386 182.887 131.836 188.695 131.836C194.503 131.836 199.053 136.386 199.053 142.194C199.053 145.278 197.616 147.973 195.523 149.856ZM188.695 134.379C184.281 134.379 180.88 137.78 180.88 142.194C180.88 146.609 184.281 150.009 188.695 150.009C193.109 150.009 196.51 146.609 196.51 142.194C196.51 137.78 193.109 134.379 188.695 134.379ZM177.337 175.455H200.053C200.609 175.455 201.017 175.151 201.269 174.885C201.525 174.615 201.725 174.275 201.884 173.944C202.207 173.274 202.468 172.413 202.673 171.565C203.08 169.874 203.325 167.972 203.325 167.183C203.325 159.134 196.744 152.553 188.695 152.553C180.646 152.553 174.065 159.134 174.065 167.183C174.065 167.972 174.31 169.874 174.717 171.565C174.922 172.413 175.183 173.274 175.506 173.944C175.665 174.275 175.865 174.615 176.121 174.885C176.373 175.151 176.781 175.455 177.337 175.455Z" fill="#004357"/>
</g>
<path d="M225 154C225 142.954 233.954 134 245 134V134C256.046 134 265 142.954 265 154V154C265 165.046 256.046 174 245 174V174C233.954 174 225 165.046 225 154V154Z" fill="#F3F4F6"/>
<circle cx="245" cy="154" r="20" fill="#F3F4F6"/>
<mask id="mask13_6262_109276" style="mask-type:alpha" maskUnits="userSpaceOnUse" x="225" y="129" width="40" height="45">
<path d="M225 129.453H265V153.999C265 165.044 256.046 173.999 245 173.999V173.999C233.954 173.999 225 165.044 225 153.999V129.453Z" fill="#D9D9D9"/>
</mask>
<g mask="url(#mask13_6262_109276)">
<path fill-rule="evenodd" clip-rule="evenodd" d="M251.523 149.856L250.397 150.869L251.77 151.507C257.794 154.303 261.869 160.32 261.869 167.183C261.869 168.926 261.183 171.728 260.013 174.096C259.431 175.272 258.759 176.281 258.047 176.982C257.33 177.687 256.659 177.998 256.053 177.998H233.337C232.731 177.998 232.06 177.687 231.343 176.982C230.631 176.281 229.959 175.272 229.377 174.096C228.207 171.728 227.521 168.926 227.521 167.183C227.521 160.32 231.596 154.303 237.62 151.507L238.993 150.869L237.867 149.856C235.774 147.973 234.337 145.278 234.337 142.194C234.337 136.386 238.887 131.836 244.695 131.836C250.503 131.836 255.053 136.386 255.053 142.194C255.053 145.278 253.616 147.973 251.523 149.856ZM244.695 134.379C240.281 134.379 236.88 137.78 236.88 142.194C236.88 146.609 240.281 150.009 244.695 150.009C249.109 150.009 252.51 146.609 252.51 142.194C252.51 137.78 249.109 134.379 244.695 134.379ZM233.337 175.455H256.053C256.609 175.455 257.017 175.151 257.269 174.885C257.525 174.615 257.725 174.275 257.884 173.944C258.207 173.274 258.468 172.413 258.673 171.565C259.08 169.874 259.325 167.972 259.325 167.183C259.325 159.134 252.744 152.553 244.695 152.553C236.646 152.553 230.065 159.134 230.065 167.183C230.065 167.972 230.31 169.874 230.717 171.565C230.922 172.413 231.183 173.274 231.506 173.944C231.665 174.275 231.865 174.615 232.121 174.885C232.373 175.151 232.781 175.455 233.337 175.455Z" fill="#004357"/>
</g>
<path d="M281 154C281 142.954 289.954 134 301 134V134C312.046 134 321 142.954 321 154V154C321 165.046 312.046 174 301 174V174C289.954 174 281 165.046 281 154V154Z" fill="#F3F4F6"/>
<circle cx="301" cy="154" r="20" fill="#F3F4F6"/>
<mask id="mask14_6262_109276" style="mask-type:alpha" maskUnits="userSpaceOnUse" x="281" y="129" width="40" height="45">
<path d="M281 129.453H321V153.999C321 165.044 312.046 173.999 301 173.999V173.999C289.954 173.999 281 165.044 281 153.999V129.453Z" fill="#D9D9D9"/>
</mask>
<g mask="url(#mask14_6262_109276)">
<path fill-rule="evenodd" clip-rule="evenodd" d="M307.523 149.856L306.397 150.869L307.77 151.507C313.794 154.303 317.869 160.32 317.869 167.183C317.869 168.926 317.183 171.728 316.013 174.096C315.431 175.272 314.759 176.281 314.047 176.982C313.33 177.687 312.659 177.998 312.053 177.998H289.337C288.731 177.998 288.06 177.687 287.343 176.982C286.631 176.281 285.959 175.272 285.377 174.096C284.207 171.728 283.521 168.926 283.521 167.183C283.521 160.32 287.596 154.303 293.62 151.507L294.993 150.869L293.867 149.856C291.774 147.973 290.337 145.278 290.337 142.194C290.337 136.386 294.887 131.836 300.695 131.836C306.503 131.836 311.053 136.386 311.053 142.194C311.053 145.278 309.616 147.973 307.523 149.856ZM300.695 134.379C296.281 134.379 292.88 137.78 292.88 142.194C292.88 146.609 296.281 150.009 300.695 150.009C305.109 150.009 308.51 146.609 308.51 142.194C308.51 137.78 305.109 134.379 300.695 134.379ZM289.337 175.455H312.053C312.609 175.455 313.017 175.151 313.269 174.885C313.525 174.615 313.725 174.275 313.884 173.944C314.207 173.274 314.468 172.413 314.673 171.565C315.08 169.874 315.325 167.972 315.325 167.183C315.325 159.134 308.744 152.553 300.695 152.553C292.646 152.553 286.065 159.134 286.065 167.183C286.065 167.972 286.31 169.874 286.717 171.565C286.922 172.413 287.183 173.274 287.506 173.944C287.665 174.275 287.865 174.615 288.121 174.885C288.373 175.151 288.781 175.455 289.337 175.455Z" fill="#004357"/>
</g>
<path d="M337 154C337 142.954 345.954 134 357 134V134C368.046 134 377 142.954 377 154V154C377 165.046 368.046 174 357 174V174C345.954 174 337 165.046 337 154V154Z" fill="#F3F4F6"/>
<circle cx="357" cy="154" r="20" fill="#F3F4F6"/>
<mask id="mask15_6262_109276" style="mask-type:alpha" maskUnits="userSpaceOnUse" x="337" y="129" width="40" height="45">
<path d="M337 129.453H377V153.999C377 165.044 368.046 173.999 357 173.999V173.999C345.954 173.999 337 165.044 337 153.999V129.453Z" fill="#D9D9D9"/>
</mask>
<g mask="url(#mask15_6262_109276)">
<path fill-rule="evenodd" clip-rule="evenodd" d="M363.523 149.856L362.397 150.869L363.77 151.507C369.794 154.303 373.869 160.32 373.869 167.183C373.869 168.926 373.183 171.728 372.013 174.096C371.431 175.272 370.759 176.281 370.047 176.982C369.33 177.687 368.659 177.998 368.053 177.998H345.337C344.731 177.998 344.06 177.687 343.343 176.982C342.631 176.281 341.959 175.272 341.377 174.096C340.207 171.728 339.521 168.926 339.521 167.183C339.521 160.32 343.596 154.303 349.62 151.507L350.993 150.869L349.867 149.856C347.774 147.973 346.337 145.278 346.337 142.194C346.337 136.386 350.887 131.836 356.695 131.836C362.503 131.836 367.053 136.386 367.053 142.194C367.053 145.278 365.616 147.973 363.523 149.856ZM356.695 134.379C352.281 134.379 348.88 137.78 348.88 142.194C348.88 146.609 352.281 150.009 356.695 150.009C361.109 150.009 364.51 146.609 364.51 142.194C364.51 137.78 361.109 134.379 356.695 134.379ZM345.337 175.455H368.053C368.609 175.455 369.017 175.151 369.269 174.885C369.525 174.615 369.725 174.275 369.884 173.944C370.207 173.274 370.468 172.413 370.673 171.565C371.08 169.874 371.325 167.972 371.325 167.183C371.325 159.134 364.744 152.553 356.695 152.553C348.646 152.553 342.065 159.134 342.065 167.183C342.065 167.972 342.31 169.874 342.717 171.565C342.922 172.413 343.183 173.274 343.506 173.944C343.665 174.275 343.865 174.615 344.121 174.885C344.373 175.151 344.781 175.455 345.337 175.455Z" fill="#004357"/>
</g>
<path d="M393 154C393 142.954 401.954 134 413 134V134C424.046 134 433 142.954 433 154V154C433 165.046 424.046 174 413 174V174C401.954 174 393 165.046 393 154V154Z" fill="#F3F4F6"/>
<circle cx="413" cy="154" r="20" fill="#F3F4F6"/>
<mask id="mask16_6262_109276" style="mask-type:alpha" maskUnits="userSpaceOnUse" x="393" y="129" width="40" height="45">
<path d="M393 129.453H433V153.999C433 165.044 424.046 173.999 413 173.999V173.999C401.954 173.999 393 165.044 393 153.999V129.453Z" fill="#D9D9D9"/>
</mask>
<g mask="url(#mask16_6262_109276)">
<path fill-rule="evenodd" clip-rule="evenodd" d="M419.523 149.856L418.397 150.869L419.77 151.507C425.794 154.303 429.869 160.32 429.869 167.183C429.869 168.926 429.183 171.728 428.013 174.096C427.431 175.272 426.759 176.281 426.047 176.982C425.33 177.687 424.659 177.998 424.053 177.998H401.337C400.731 177.998 400.06 177.687 399.343 176.982C398.631 176.281 397.959 175.272 397.377 174.096C396.207 171.728 395.521 168.926 395.521 167.183C395.521 160.32 399.596 154.303 405.62 151.507L406.993 150.869L405.867 149.856C403.774 147.973 402.337 145.278 402.337 142.194C402.337 136.386 406.887 131.836 412.695 131.836C418.503 131.836 423.053 136.386 423.053 142.194C423.053 145.278 421.616 147.973 419.523 149.856ZM412.695 134.379C408.281 134.379 404.88 137.78 404.88 142.194C404.88 146.609 408.281 150.009 412.695 150.009C417.109 150.009 420.51 146.609 420.51 142.194C420.51 137.78 417.109 134.379 412.695 134.379ZM401.337 175.455H424.053C424.609 175.455 425.017 175.151 425.269 174.885C425.525 174.615 425.725 174.275 425.884 173.944C426.207 173.274 426.468 172.413 426.673 171.565C427.08 169.874 427.325 167.972 427.325 167.183C427.325 159.134 420.744 152.553 412.695 152.553C404.646 152.553 398.065 159.134 398.065 167.183C398.065 167.972 398.31 169.874 398.717 171.565C398.922 172.413 399.183 173.274 399.506 173.944C399.665 174.275 399.865 174.615 400.121 174.885C400.373 175.151 400.781 175.455 401.337 175.455Z" fill="#004357"/>
</g>
<path d="M165.929 61.2174C165.452 61.4943 164.84 61.3314 164.563 60.8535L160.051 53.0664C159.774 52.5885 159.937 51.9767 160.414 51.6998C160.892 51.4229 161.504 51.5858 161.781 52.0636L165.792 58.9855L172.714 54.9746C173.192 54.6977 173.804 54.8607 174.08 55.3385C174.357 55.8164 174.194 56.4282 173.717 56.7051L165.929 61.2174ZM223.035 26.0588C209.575 23.2265 197.351 24.661 187.553 30.3541C177.763 36.0419 170.271 46.0512 166.394 60.6094L164.462 60.0948C168.448 45.1234 176.219 34.6259 186.548 28.6247C196.868 22.6288 209.62 21.1922 223.447 24.1017L223.035 26.0588Z" fill="#004357"/>
<path d="M76 312C76 300.954 84.9543 292 96 292V292C107.046 292 116 300.954 116 312V312C116 323.046 107.046 332 96 332V332C84.9543 332 76 323.046 76 312V312Z" fill="#F3F4F6"/>
<circle cx="96" cy="312" r="20" fill="#F3F4F6"/>
<mask id="mask17_6262_109276" style="mask-type:alpha" maskUnits="userSpaceOnUse" x="76" y="287" width="40" height="45">
<path d="M76 287.453H116V311.999C116 323.045 107.046 331.999 96 331.999V331.999C84.9543 331.999 76 323.045 76 311.999V287.453Z" fill="#D9D9D9"/>
</mask>
<g mask="url(#mask17_6262_109276)">
<path fill-rule="evenodd" clip-rule="evenodd" d="M102.523 307.856L101.397 308.869L102.77 309.507C108.794 312.303 112.869 318.32 112.869 325.183C112.869 326.926 112.183 329.728 111.013 332.096C110.431 333.272 109.759 334.281 109.047 334.982C108.33 335.687 107.659 335.998 107.053 335.998H84.3366C83.7313 335.998 83.0604 335.687 82.3435 334.982C81.6306 334.281 80.9586 333.272 80.3773 332.096C79.2074 329.728 78.5215 326.926 78.5215 325.183C78.5215 318.32 82.5963 312.303 88.6195 309.507L89.9927 308.869L88.8674 307.856C86.7745 305.973 85.3366 303.278 85.3366 300.195C85.3366 294.386 89.8866 289.836 95.695 289.836C101.503 289.836 106.053 294.386 106.053 300.195C106.053 303.278 104.616 305.973 102.523 307.856ZM95.695 292.379C91.2808 292.379 87.8799 295.78 87.8799 300.195C87.8799 304.609 91.2808 308.01 95.695 308.01C100.109 308.01 103.51 304.609 103.51 300.195C103.51 295.78 100.109 292.379 95.695 292.379ZM84.3366 333.455H107.053C107.609 333.455 108.017 333.152 108.269 332.885C108.525 332.615 108.725 332.276 108.884 331.944C109.207 331.274 109.468 330.413 109.673 329.565C110.08 327.874 110.325 325.972 110.325 325.183C110.325 317.134 103.744 310.553 95.695 310.553C87.6461 310.553 81.0649 317.134 81.0649 325.183C81.0649 325.972 81.3095 327.874 81.7175 329.565C81.9222 330.413 82.1832 331.274 82.5055 331.944C82.6651 332.276 82.8653 332.615 83.121 332.885C83.3727 333.152 83.7808 333.455 84.3366 333.455Z" fill="#004357"/>
</g>
<path d="M132 312C132 300.954 140.954 292 152 292V292C163.046 292 172 300.954 172 312V312C172 323.046 163.046 332 152 332V332C140.954 332 132 323.046 132 312V312Z" fill="#F3F4F6"/>
<circle cx="152" cy="312" r="20" fill="#F3F4F6"/>
<mask id="mask18_6262_109276" style="mask-type:alpha" maskUnits="userSpaceOnUse" x="132" y="287" width="40" height="45">
<path d="M132 287.453H172V311.999C172 323.045 163.046 331.999 152 331.999V331.999C140.954 331.999 132 323.045 132 311.999V287.453Z" fill="#D9D9D9"/>
</mask>
<g mask="url(#mask18_6262_109276)">
<path fill-rule="evenodd" clip-rule="evenodd" d="M158.523 307.856L157.397 308.869L158.77 309.507C164.794 312.303 168.869 318.32 168.869 325.183C168.869 326.926 168.183 329.728 167.013 332.096C166.431 333.272 165.759 334.281 165.047 334.982C164.33 335.687 163.659 335.998 163.053 335.998H140.337C139.731 335.998 139.06 335.687 138.343 334.982C137.631 334.281 136.959 333.272 136.377 332.096C135.207 329.728 134.521 326.926 134.521 325.183C134.521 318.32 138.596 312.303 144.62 309.507L145.993 308.869L144.867 307.856C142.774 305.973 141.337 303.278 141.337 300.195C141.337 294.386 145.887 289.836 151.695 289.836C157.503 289.836 162.053 294.386 162.053 300.195C162.053 303.278 160.616 305.973 158.523 307.856ZM151.695 292.379C147.281 292.379 143.88 295.78 143.88 300.195C143.88 304.609 147.281 308.01 151.695 308.01C156.109 308.01 159.51 304.609 159.51 300.195C159.51 295.78 156.109 292.379 151.695 292.379ZM140.337 333.455H163.053C163.609 333.455 164.017 333.152 164.269 332.885C164.525 332.615 164.725 332.276 164.884 331.944C165.207 331.274 165.468 330.413 165.673 329.565C166.08 327.874 166.325 325.972 166.325 325.183C166.325 317.134 159.744 310.553 151.695 310.553C143.646 310.553 137.065 317.134 137.065 325.183C137.065 325.972 137.31 327.874 137.717 329.565C137.922 330.413 138.183 331.274 138.506 331.944C138.665 332.276 138.865 332.615 139.121 332.885C139.373 333.152 139.781 333.455 140.337 333.455Z" fill="#004357"/>
</g>
<path d="M188 312C188 300.954 196.954 292 208 292V292C219.046 292 228 300.954 228 312V312C228 323.046 219.046 332 208 332V332C196.954 332 188 323.046 188 312V312Z" fill="#F3F4F6"/>
<circle cx="208" cy="312" r="20" fill="#F3F4F6"/>
<mask id="mask19_6262_109276" style="mask-type:alpha" maskUnits="userSpaceOnUse" x="188" y="287" width="40" height="45">
<path d="M188 287.453H228V311.999C228 323.045 219.046 331.999 208 331.999V331.999C196.954 331.999 188 323.045 188 311.999V287.453Z" fill="#D9D9D9"/>
</mask>
<g mask="url(#mask19_6262_109276)">
<path fill-rule="evenodd" clip-rule="evenodd" d="M214.523 307.856L213.397 308.869L214.77 309.507C220.794 312.303 224.869 318.32 224.869 325.183C224.869 326.926 224.183 329.728 223.013 332.096C222.431 333.272 221.759 334.281 221.047 334.982C220.33 335.687 219.659 335.998 219.053 335.998H196.337C195.731 335.998 195.06 335.687 194.343 334.982C193.631 334.281 192.959 333.272 192.377 332.096C191.207 329.728 190.521 326.926 190.521 325.183C190.521 318.32 194.596 312.303 200.62 309.507L201.993 308.869L200.867 307.856C198.774 305.973 197.337 303.278 197.337 300.195C197.337 294.386 201.887 289.836 207.695 289.836C213.503 289.836 218.053 294.386 218.053 300.195C218.053 303.278 216.616 305.973 214.523 307.856ZM207.695 292.379C203.281 292.379 199.88 295.78 199.88 300.195C199.88 304.609 203.281 308.01 207.695 308.01C212.109 308.01 215.51 304.609 215.51 300.195C215.51 295.78 212.109 292.379 207.695 292.379ZM196.337 333.455H219.053C219.609 333.455 220.017 333.152 220.269 332.885C220.525 332.615 220.725 332.276 220.884 331.944C221.207 331.274 221.468 330.413 221.673 329.565C222.08 327.874 222.325 325.972 222.325 325.183C222.325 317.134 215.744 310.553 207.695 310.553C199.646 310.553 193.065 317.134 193.065 325.183C193.065 325.972 193.31 327.874 193.717 329.565C193.922 330.413 194.183 331.274 194.506 331.944C194.665 332.276 194.865 332.615 195.121 332.885C195.373 333.152 195.781 333.455 196.337 333.455Z" fill="#004357"/>
</g>
<path d="M244 312C244 300.954 252.954 292 264 292V292C275.046 292 284 300.954 284 312V312C284 323.046 275.046 332 264 332V332C252.954 332 244 323.046 244 312V312Z" fill="#BED73C"/>
<circle cx="264" cy="312" r="20" fill="#BED73C"/>
<mask id="mask20_6262_109276" style="mask-type:alpha" maskUnits="userSpaceOnUse" x="244" y="287" width="40" height="45">
<path d="M244 287.453H284V311.999C284 323.045 275.046 331.999 264 331.999V331.999C252.954 331.999 244 323.045 244 311.999V287.453Z" fill="#D9D9D9"/>
</mask>
<g mask="url(#mask20_6262_109276)">
<path fill-rule="evenodd" clip-rule="evenodd" d="M270.523 307.856L269.397 308.869L270.77 309.507C276.794 312.303 280.869 318.32 280.869 325.183C280.869 326.926 280.183 329.728 279.013 332.096C278.431 333.272 277.759 334.281 277.047 334.982C276.33 335.687 275.659 335.998 275.053 335.998H252.337C251.731 335.998 251.06 335.687 250.343 334.982C249.631 334.281 248.959 333.272 248.377 332.096C247.207 329.728 246.521 326.926 246.521 325.183C246.521 318.32 250.596 312.303 256.62 309.507L257.993 308.869L256.867 307.856C254.774 305.973 253.337 303.278 253.337 300.195C253.337 294.386 257.887 289.836 263.695 289.836C269.503 289.836 274.053 294.386 274.053 300.195C274.053 303.278 272.616 305.973 270.523 307.856ZM263.695 292.379C259.281 292.379 255.88 295.78 255.88 300.195C255.88 304.609 259.281 308.01 263.695 308.01C268.109 308.01 271.51 304.609 271.51 300.195C271.51 295.78 268.109 292.379 263.695 292.379ZM252.337 333.455H275.053C275.609 333.455 276.017 333.152 276.269 332.885C276.525 332.615 276.725 332.276 276.884 331.944C277.207 331.274 277.468 330.413 277.673 329.565C278.08 327.874 278.325 325.972 278.325 325.183C278.325 317.134 271.744 310.553 263.695 310.553C255.646 310.553 249.065 317.134 249.065 325.183C249.065 325.972 249.31 327.874 249.717 329.565C249.922 330.413 250.183 331.274 250.506 331.944C250.665 332.276 250.865 332.615 251.121 332.885C251.373 333.152 251.781 333.455 252.337 333.455Z" fill="#004357"/>
</g>
<path d="M300 312C300 300.954 308.954 292 320 292V292C331.046 292 340 300.954 340 312V312C340 323.046 331.046 332 320 332V332C308.954 332 300 323.046 300 312V312Z" fill="#BED73C"/>
<circle cx="320" cy="312" r="20" fill="#BED73C"/>
<mask id="mask21_6262_109276" style="mask-type:alpha" maskUnits="userSpaceOnUse" x="300" y="287" width="40" height="45">
<path d="M300 287.453H340V311.999C340 323.045 331.046 331.999 320 331.999V331.999C308.954 331.999 300 323.045 300 311.999V287.453Z" fill="#D9D9D9"/>
</mask>
<g mask="url(#mask21_6262_109276)">
<path fill-rule="evenodd" clip-rule="evenodd" d="M326.523 307.856L325.397 308.869L326.77 309.507C332.794 312.303 336.869 318.32 336.869 325.183C336.869 326.926 336.183 329.728 335.013 332.096C334.431 333.272 333.759 334.281 333.047 334.982C332.33 335.687 331.659 335.998 331.053 335.998H308.337C307.731 335.998 307.06 335.687 306.343 334.982C305.631 334.281 304.959 333.272 304.377 332.096C303.207 329.728 302.521 326.926 302.521 325.183C302.521 318.32 306.596 312.303 312.62 309.507L313.993 308.869L312.867 307.856C310.774 305.973 309.337 303.278 309.337 300.195C309.337 294.386 313.887 289.836 319.695 289.836C325.503 289.836 330.053 294.386 330.053 300.195C330.053 303.278 328.616 305.973 326.523 307.856ZM319.695 292.379C315.281 292.379 311.88 295.78 311.88 300.195C311.88 304.609 315.281 308.01 319.695 308.01C324.109 308.01 327.51 304.609 327.51 300.195C327.51 295.78 324.109 292.379 319.695 292.379ZM308.337 333.455H331.053C331.609 333.455 332.017 333.152 332.269 332.885C332.525 332.615 332.725 332.276 332.884 331.944C333.207 331.274 333.468 330.413 333.673 329.565C334.08 327.874 334.325 325.972 334.325 325.183C334.325 317.134 327.744 310.553 319.695 310.553C311.646 310.553 305.065 317.134 305.065 325.183C305.065 325.972 305.31 327.874 305.717 329.565C305.922 330.413 306.183 331.274 306.506 331.944C306.665 332.276 306.865 332.615 307.121 332.885C307.373 333.152 307.781 333.455 308.337 333.455Z" fill="#004357"/>
</g>
<path d="M356 312C356 300.954 364.954 292 376 292V292C387.046 292 396 300.954 396 312V312C396 323.046 387.046 332 376 332V332C364.954 332 356 323.046 356 312V312Z" fill="#BED73C"/>
<circle cx="376" cy="312" r="20" fill="#BED73C"/>
<mask id="mask22_6262_109276" style="mask-type:alpha" maskUnits="userSpaceOnUse" x="356" y="287" width="40" height="45">
<path d="M356 287.453H396V311.999C396 323.045 387.046 331.999 376 331.999V331.999C364.954 331.999 356 323.045 356 311.999V287.453Z" fill="#D9D9D9"/>
</mask>
<g mask="url(#mask22_6262_109276)">
<path fill-rule="evenodd" clip-rule="evenodd" d="M382.523 307.856L381.397 308.869L382.77 309.507C388.794 312.303 392.869 318.32 392.869 325.183C392.869 326.926 392.183 329.728 391.013 332.096C390.431 333.272 389.759 334.281 389.047 334.982C388.33 335.687 387.659 335.998 387.053 335.998H364.337C363.731 335.998 363.06 335.687 362.343 334.982C361.631 334.281 360.959 333.272 360.377 332.096C359.207 329.728 358.521 326.926 358.521 325.183C358.521 318.32 362.596 312.303 368.62 309.507L369.993 308.869L368.867 307.856C366.774 305.973 365.337 303.278 365.337 300.195C365.337 294.386 369.887 289.836 375.695 289.836C381.503 289.836 386.053 294.386 386.053 300.195C386.053 303.278 384.616 305.973 382.523 307.856ZM375.695 292.379C371.281 292.379 367.88 295.78 367.88 300.195C367.88 304.609 371.281 308.01 375.695 308.01C380.109 308.01 383.51 304.609 383.51 300.195C383.51 295.78 380.109 292.379 375.695 292.379ZM364.337 333.455H387.053C387.609 333.455 388.017 333.152 388.269 332.885C388.525 332.615 388.725 332.276 388.884 331.944C389.207 331.274 389.468 330.413 389.673 329.565C390.08 327.874 390.325 325.972 390.325 325.183C390.325 317.134 383.744 310.553 375.695 310.553C367.646 310.553 361.065 317.134 361.065 325.183C361.065 325.972 361.31 327.874 361.717 329.565C361.922 330.413 362.183 331.274 362.506 331.944C362.665 332.276 362.865 332.615 363.121 332.885C363.373 333.152 363.781 333.455 364.337 333.455Z" fill="#004357"/>
</g>
<path d="M412 312C412 300.954 420.954 292 432 292V292C443.046 292 452 300.954 452 312V312C452 323.046 443.046 332 432 332V332C420.954 332 412 323.046 412 312V312Z" fill="#BED73C"/>
<circle cx="432" cy="312" r="20" fill="#BED73C"/>
<mask id="mask23_6262_109276" style="mask-type:alpha" maskUnits="userSpaceOnUse" x="412" y="287" width="40" height="45">
<path d="M412 287.453H452V311.999C452 323.045 443.046 331.999 432 331.999V331.999C420.954 331.999 412 323.045 412 311.999V287.453Z" fill="#D9D9D9"/>
</mask>
<g mask="url(#mask23_6262_109276)">
<path fill-rule="evenodd" clip-rule="evenodd" d="M438.523 307.856L437.397 308.869L438.77 309.507C444.794 312.303 448.869 318.32 448.869 325.183C448.869 326.926 448.183 329.728 447.013 332.096C446.431 333.272 445.759 334.281 445.047 334.982C444.33 335.687 443.659 335.998 443.053 335.998H420.337C419.731 335.998 419.06 335.687 418.343 334.982C417.631 334.281 416.959 333.272 416.377 332.096C415.207 329.728 414.521 326.926 414.521 325.183C414.521 318.32 418.596 312.303 424.62 309.507L425.993 308.869L424.867 307.856C422.774 305.973 421.337 303.278 421.337 300.195C421.337 294.386 425.887 289.836 431.695 289.836C437.503 289.836 442.053 294.386 442.053 300.195C442.053 303.278 440.616 305.973 438.523 307.856ZM431.695 292.379C427.281 292.379 423.88 295.78 423.88 300.195C423.88 304.609 427.281 308.01 431.695 308.01C436.109 308.01 439.51 304.609 439.51 300.195C439.51 295.78 436.109 292.379 431.695 292.379ZM420.337 333.455H443.053C443.609 333.455 444.017 333.152 444.269 332.885C444.525 332.615 444.725 332.276 444.884 331.944C445.207 331.274 445.468 330.413 445.673 329.565C446.08 327.874 446.325 325.972 446.325 325.183C446.325 317.134 439.744 310.553 431.695 310.553C423.646 310.553 417.065 317.134 417.065 325.183C417.065 325.972 417.31 327.874 417.717 329.565C417.922 330.413 418.183 331.274 418.506 331.944C418.665 332.276 418.865 332.615 419.121 332.885C419.373 333.152 419.781 333.455 420.337 333.455Z" fill="#004357"/>
</g>
<path d="M468 312C468 300.954 476.954 292 488 292V292C499.046 292 508 300.954 508 312V312C508 323.046 499.046 332 488 332V332C476.954 332 468 323.046 468 312V312Z" fill="#BED73C"/>
<circle cx="488" cy="312" r="20" fill="#BED73C"/>
<mask id="mask24_6262_109276" style="mask-type:alpha" maskUnits="userSpaceOnUse" x="468" y="287" width="40" height="45">
<path d="M468 287.453H508V311.999C508 323.045 499.046 331.999 488 331.999V331.999C476.954 331.999 468 323.045 468 311.999V287.453Z" fill="#D9D9D9"/>
</mask>
<g mask="url(#mask24_6262_109276)">
<path fill-rule="evenodd" clip-rule="evenodd" d="M494.523 307.856L493.397 308.869L494.77 309.507C500.794 312.303 504.869 318.32 504.869 325.183C504.869 326.926 504.183 329.728 503.013 332.096C502.431 333.272 501.759 334.281 501.047 334.982C500.33 335.687 499.659 335.998 499.053 335.998H476.337C475.731 335.998 475.06 335.687 474.343 334.982C473.631 334.281 472.959 333.272 472.377 332.096C471.207 329.728 470.521 326.926 470.521 325.183C470.521 318.32 474.596 312.303 480.62 309.507L481.993 308.869L480.867 307.856C478.774 305.973 477.337 303.278 477.337 300.195C477.337 294.386 481.887 289.836 487.695 289.836C493.503 289.836 498.053 294.386 498.053 300.195C498.053 303.278 496.616 305.973 494.523 307.856ZM487.695 292.379C483.281 292.379 479.88 295.78 479.88 300.195C479.88 304.609 483.281 308.01 487.695 308.01C492.109 308.01 495.51 304.609 495.51 300.195C495.51 295.78 492.109 292.379 487.695 292.379ZM476.337 333.455H499.053C499.609 333.455 500.017 333.152 500.269 332.885C500.525 332.615 500.725 332.276 500.884 331.944C501.207 331.274 501.468 330.413 501.673 329.565C502.08 327.874 502.325 325.972 502.325 325.183C502.325 317.134 495.744 310.553 487.695 310.553C479.646 310.553 473.065 317.134 473.065 325.183C473.065 325.972 473.31 327.874 473.717 329.565C473.922 330.413 474.183 331.274 474.506 331.944C474.665 332.276 474.865 332.615 475.121 332.885C475.373 333.152 475.781 333.455 476.337 333.455Z" fill="#004357"/>
</g>
<path d="M524 312C524 300.954 532.954 292 544 292V292C555.046 292 564 300.954 564 312V312C564 323.046 555.046 332 544 332V332C532.954 332 524 323.046 524 312V312Z" fill="#BED73C"/>
<circle cx="544" cy="312" r="20" fill="#BED73C"/>
<mask id="mask25_6262_109276" style="mask-type:alpha" maskUnits="userSpaceOnUse" x="524" y="287" width="40" height="45">
<path d="M524 287.453H564V311.999C564 323.045 555.046 331.999 544 331.999V331.999C532.954 331.999 524 323.045 524 311.999V287.453Z" fill="#D9D9D9"/>
</mask>
<g mask="url(#mask25_6262_109276)">
<path fill-rule="evenodd" clip-rule="evenodd" d="M550.523 307.856L549.397 308.869L550.77 309.507C556.794 312.303 560.869 318.32 560.869 325.183C560.869 326.926 560.183 329.728 559.013 332.096C558.431 333.272 557.759 334.281 557.047 334.982C556.33 335.687 555.659 335.998 555.053 335.998H532.337C531.731 335.998 531.06 335.687 530.343 334.982C529.631 334.281 528.959 333.272 528.377 332.096C527.207 329.728 526.521 326.926 526.521 325.183C526.521 318.32 530.596 312.303 536.62 309.507L537.993 308.869L536.867 307.856C534.774 305.973 533.337 303.278 533.337 300.195C533.337 294.386 537.887 289.836 543.695 289.836C549.503 289.836 554.053 294.386 554.053 300.195C554.053 303.278 552.616 305.973 550.523 307.856ZM543.695 292.379C539.281 292.379 535.88 295.78 535.88 300.195C535.88 304.609 539.281 308.01 543.695 308.01C548.109 308.01 551.51 304.609 551.51 300.195C551.51 295.78 548.109 292.379 543.695 292.379ZM532.337 333.455H555.053C555.609 333.455 556.017 333.152 556.269 332.885C556.525 332.615 556.725 332.276 556.884 331.944C557.207 331.274 557.468 330.413 557.673 329.565C558.08 327.874 558.325 325.972 558.325 325.183C558.325 317.134 551.744 310.553 543.695 310.553C535.646 310.553 529.065 317.134 529.065 325.183C529.065 325.972 529.31 327.874 529.717 329.565C529.922 330.413 530.183 331.274 530.506 331.944C530.665 332.276 530.865 332.615 531.121 332.885C531.373 333.152 531.781 333.455 532.337 333.455Z" fill="#004357"/>
</g>
<path d="M132 368C132 356.954 140.954 348 152 348V348C163.046 348 172 356.954 172 368V368C172 379.046 163.046 388 152 388V388C140.954 388 132 379.046 132 368V368Z" fill="#F3F4F6"/>
<circle cx="152" cy="368" r="20" fill="#F3F4F6"/>
<mask id="mask26_6262_109276" style="mask-type:alpha" maskUnits="userSpaceOnUse" x="132" y="343" width="40" height="45">
<path d="M132 343.453H172V367.999C172 379.045 163.046 387.999 152 387.999V387.999C140.954 387.999 132 379.045 132 367.999V343.453Z" fill="#D9D9D9"/>
</mask>
<g mask="url(#mask26_6262_109276)">
<path fill-rule="evenodd" clip-rule="evenodd" d="M158.523 363.856L157.397 364.869L158.77 365.507C164.794 368.303 168.869 374.32 168.869 381.183C168.869 382.926 168.183 385.728 167.013 388.096C166.431 389.272 165.759 390.281 165.047 390.982C164.33 391.687 163.659 391.998 163.053 391.998H140.337C139.731 391.998 139.06 391.687 138.343 390.982C137.631 390.281 136.959 389.272 136.377 388.096C135.207 385.728 134.521 382.926 134.521 381.183C134.521 374.32 138.596 368.303 144.62 365.507L145.993 364.869L144.867 363.856C142.774 361.973 141.337 359.278 141.337 356.195C141.337 350.386 145.887 345.836 151.695 345.836C157.503 345.836 162.053 350.386 162.053 356.195C162.053 359.278 160.616 361.973 158.523 363.856ZM151.695 348.379C147.281 348.379 143.88 351.78 143.88 356.195C143.88 360.609 147.281 364.01 151.695 364.01C156.109 364.01 159.51 360.609 159.51 356.195C159.51 351.78 156.109 348.379 151.695 348.379ZM140.337 389.455H163.053C163.609 389.455 164.017 389.152 164.269 388.885C164.525 388.615 164.725 388.276 164.884 387.944C165.207 387.274 165.468 386.413 165.673 385.565C166.08 383.874 166.325 381.972 166.325 381.183C166.325 373.134 159.744 366.553 151.695 366.553C143.646 366.553 137.065 373.134 137.065 381.183C137.065 381.972 137.31 383.874 137.717 385.565C137.922 386.413 138.183 387.274 138.506 387.944C138.665 388.276 138.865 388.615 139.121 388.885C139.373 389.152 139.781 389.455 140.337 389.455Z" fill="#004357"/>
</g>
<path d="M188 368C188 356.954 196.954 348 208 348V348C219.046 348 228 356.954 228 368V368C228 379.046 219.046 388 208 388V388C196.954 388 188 379.046 188 368V368Z" fill="#F3F4F6"/>
<circle cx="208" cy="368" r="20" fill="#F3F4F6"/>
<mask id="mask27_6262_109276" style="mask-type:alpha" maskUnits="userSpaceOnUse" x="188" y="343" width="40" height="45">
<path d="M188 343.453H228V367.999C228 379.045 219.046 387.999 208 387.999V387.999C196.954 387.999 188 379.045 188 367.999V343.453Z" fill="#D9D9D9"/>
</mask>
<g mask="url(#mask27_6262_109276)">
<path fill-rule="evenodd" clip-rule="evenodd" d="M214.523 363.856L213.397 364.869L214.77 365.507C220.794 368.303 224.869 374.32 224.869 381.183C224.869 382.926 224.183 385.728 223.013 388.096C222.431 389.272 221.759 390.281 221.047 390.982C220.33 391.687 219.659 391.998 219.053 391.998H196.337C195.731 391.998 195.06 391.687 194.343 390.982C193.631 390.281 192.959 389.272 192.377 388.096C191.207 385.728 190.521 382.926 190.521 381.183C190.521 374.32 194.596 368.303 200.62 365.507L201.993 364.869L200.867 363.856C198.774 361.973 197.337 359.278 197.337 356.195C197.337 350.386 201.887 345.836 207.695 345.836C213.503 345.836 218.053 350.386 218.053 356.195C218.053 359.278 216.616 361.973 214.523 363.856ZM207.695 348.379C203.281 348.379 199.88 351.78 199.88 356.195C199.88 360.609 203.281 364.01 207.695 364.01C212.109 364.01 215.51 360.609 215.51 356.195C215.51 351.78 212.109 348.379 207.695 348.379ZM196.337 389.455H219.053C219.609 389.455 220.017 389.152 220.269 388.885C220.525 388.615 220.725 388.276 220.884 387.944C221.207 387.274 221.468 386.413 221.673 385.565C222.08 383.874 222.325 381.972 222.325 381.183C222.325 373.134 215.744 366.553 207.695 366.553C199.646 366.553 193.065 373.134 193.065 381.183C193.065 381.972 193.31 383.874 193.717 385.565C193.922 386.413 194.183 387.274 194.506 387.944C194.665 388.276 194.865 388.615 195.121 388.885C195.373 389.152 195.781 389.455 196.337 389.455Z" fill="#004357"/>
</g>
<path d="M244 368C244 356.954 252.954 348 264 348V348C275.046 348 284 356.954 284 368V368C284 379.046 275.046 388 264 388V388C252.954 388 244 379.046 244 368V368Z" fill="#F3F4F6"/>
<circle cx="264" cy="368" r="20" fill="#F3F4F6"/>
<mask id="mask28_6262_109276" style="mask-type:alpha" maskUnits="userSpaceOnUse" x="244" y="343" width="40" height="45">
<path d="M244 343.453H284V367.999C284 379.045 275.046 387.999 264 387.999V387.999C252.954 387.999 244 379.045 244 367.999V343.453Z" fill="#D9D9D9"/>
</mask>
<g mask="url(#mask28_6262_109276)">
<path fill-rule="evenodd" clip-rule="evenodd" d="M270.523 363.856L269.397 364.869L270.77 365.507C276.794 368.303 280.869 374.32 280.869 381.183C280.869 382.926 280.183 385.728 279.013 388.096C278.431 389.272 277.759 390.281 277.047 390.982C276.33 391.687 275.659 391.998 275.053 391.998H252.337C251.731 391.998 251.06 391.687 250.343 390.982C249.631 390.281 248.959 389.272 248.377 388.096C247.207 385.728 246.521 382.926 246.521 381.183C246.521 374.32 250.596 368.303 256.62 365.507L257.993 364.869L256.867 363.856C254.774 361.973 253.337 359.278 253.337 356.195C253.337 350.386 257.887 345.836 263.695 345.836C269.503 345.836 274.053 350.386 274.053 356.195C274.053 359.278 272.616 361.973 270.523 363.856ZM263.695 348.379C259.281 348.379 255.88 351.78 255.88 356.195C255.88 360.609 259.281 364.01 263.695 364.01C268.109 364.01 271.51 360.609 271.51 356.195C271.51 351.78 268.109 348.379 263.695 348.379ZM252.337 389.455H275.053C275.609 389.455 276.017 389.152 276.269 388.885C276.525 388.615 276.725 388.276 276.884 387.944C277.207 387.274 277.468 386.413 277.673 385.565C278.08 383.874 278.325 381.972 278.325 381.183C278.325 373.134 271.744 366.553 263.695 366.553C255.646 366.553 249.065 373.134 249.065 381.183C249.065 381.972 249.31 383.874 249.717 385.565C249.922 386.413 250.183 387.274 250.506 387.944C250.665 388.276 250.865 388.615 251.121 388.885C251.373 389.152 251.781 389.455 252.337 389.455Z" fill="#004357"/>
</g>
<path d="M300 368C300 356.954 308.954 348 320 348V348C331.046 348 340 356.954 340 368V368C340 379.046 331.046 388 320 388V388C308.954 388 300 379.046 300 368V368Z" fill="#F3F4F6"/>
<circle cx="320" cy="368" r="20" fill="#F3F4F6"/>
<mask id="mask29_6262_109276" style="mask-type:alpha" maskUnits="userSpaceOnUse" x="300" y="343" width="40" height="45">
<path d="M300 343.453H340V367.999C340 379.045 331.046 387.999 320 387.999V387.999C308.954 387.999 300 379.045 300 367.999V343.453Z" fill="#D9D9D9"/>
</mask>
<g mask="url(#mask29_6262_109276)">
<path fill-rule="evenodd" clip-rule="evenodd" d="M326.523 363.856L325.397 364.869L326.77 365.507C332.794 368.303 336.869 374.32 336.869 381.183C336.869 382.926 336.183 385.728 335.013 388.096C334.431 389.272 333.759 390.281 333.047 390.982C332.33 391.687 331.659 391.998 331.053 391.998H308.337C307.731 391.998 307.06 391.687 306.343 390.982C305.631 390.281 304.959 389.272 304.377 388.096C303.207 385.728 302.521 382.926 302.521 381.183C302.521 374.32 306.596 368.303 312.62 365.507L313.993 364.869L312.867 363.856C310.774 361.973 309.337 359.278 309.337 356.195C309.337 350.386 313.887 345.836 319.695 345.836C325.503 345.836 330.053 350.386 330.053 356.195C330.053 359.278 328.616 361.973 326.523 363.856ZM319.695 348.379C315.281 348.379 311.88 351.78 311.88 356.195C311.88 360.609 315.281 364.01 319.695 364.01C324.109 364.01 327.51 360.609 327.51 356.195C327.51 351.78 324.109 348.379 319.695 348.379ZM308.337 389.455H331.053C331.609 389.455 332.017 389.152 332.269 388.885C332.525 388.615 332.725 388.276 332.884 387.944C333.207 387.274 333.468 386.413 333.673 385.565C334.08 383.874 334.325 381.972 334.325 381.183C334.325 373.134 327.744 366.553 319.695 366.553C311.646 366.553 305.065 373.134 305.065 381.183C305.065 381.972 305.31 383.874 305.717 385.565C305.922 386.413 306.183 387.274 306.506 387.944C306.665 388.276 306.865 388.615 307.121 388.885C307.373 389.152 307.781 389.455 308.337 389.455Z" fill="#004357"/>
</g>
<path d="M356 368C356 356.954 364.954 348 376 348V348C387.046 348 396 356.954 396 368V368C396 379.046 387.046 388 376 388V388C364.954 388 356 379.046 356 368V368Z" fill="#F3F4F6"/>
<circle cx="376" cy="368" r="20" fill="#F3F4F6"/>
<mask id="mask30_6262_109276" style="mask-type:alpha" maskUnits="userSpaceOnUse" x="356" y="343" width="40" height="45">
<path d="M356 343.453H396V367.999C396 379.045 387.046 387.999 376 387.999V387.999C364.954 387.999 356 379.045 356 367.999V343.453Z" fill="#D9D9D9"/>
</mask>
<g mask="url(#mask30_6262_109276)">
<path fill-rule="evenodd" clip-rule="evenodd" d="M382.523 363.856L381.397 364.869L382.77 365.507C388.794 368.303 392.869 374.32 392.869 381.183C392.869 382.926 392.183 385.728 391.013 388.096C390.431 389.272 389.759 390.281 389.047 390.982C388.33 391.687 387.659 391.998 387.053 391.998H364.337C363.731 391.998 363.06 391.687 362.343 390.982C361.631 390.281 360.959 389.272 360.377 388.096C359.207 385.728 358.521 382.926 358.521 381.183C358.521 374.32 362.596 368.303 368.62 365.507L369.993 364.869L368.867 363.856C366.774 361.973 365.337 359.278 365.337 356.195C365.337 350.386 369.887 345.836 375.695 345.836C381.503 345.836 386.053 350.386 386.053 356.195C386.053 359.278 384.616 361.973 382.523 363.856ZM375.695 348.379C371.281 348.379 367.88 351.78 367.88 356.195C367.88 360.609 371.281 364.01 375.695 364.01C380.109 364.01 383.51 360.609 383.51 356.195C383.51 351.78 380.109 348.379 375.695 348.379ZM364.337 389.455H387.053C387.609 389.455 388.017 389.152 388.269 388.885C388.525 388.615 388.725 388.276 388.884 387.944C389.207 387.274 389.468 386.413 389.673 385.565C390.08 383.874 390.325 381.972 390.325 381.183C390.325 373.134 383.744 366.553 375.695 366.553C367.646 366.553 361.065 373.134 361.065 381.183C361.065 381.972 361.31 383.874 361.717 385.565C361.922 386.413 362.183 387.274 362.506 387.944C362.665 388.276 362.865 388.615 363.121 388.885C363.373 389.152 363.781 389.455 364.337 389.455Z" fill="#004357"/>
</g>
<path d="M412 368C412 356.954 420.954 348 432 348V348C443.046 348 452 356.954 452 368V368C452 379.046 443.046 388 432 388V388C420.954 388 412 379.046 412 368V368Z" fill="#F3F4F6"/>
<circle cx="432" cy="368" r="20" fill="#F3F4F6"/>
<mask id="mask31_6262_109276" style="mask-type:alpha" maskUnits="userSpaceOnUse" x="412" y="343" width="40" height="45">
<path d="M412 343.453H452V367.999C452 379.045 443.046 387.999 432 387.999V387.999C420.954 387.999 412 379.045 412 367.999V343.453Z" fill="#D9D9D9"/>
</mask>
<g mask="url(#mask31_6262_109276)">
<path fill-rule="evenodd" clip-rule="evenodd" d="M438.523 363.856L437.397 364.869L438.77 365.507C444.794 368.303 448.869 374.32 448.869 381.183C448.869 382.926 448.183 385.728 447.013 388.096C446.431 389.272 445.759 390.281 445.047 390.982C444.33 391.687 443.659 391.998 443.053 391.998H420.337C419.731 391.998 419.06 391.687 418.343 390.982C417.631 390.281 416.959 389.272 416.377 388.096C415.207 385.728 414.521 382.926 414.521 381.183C414.521 374.32 418.596 368.303 424.62 365.507L425.993 364.869L424.867 363.856C422.774 361.973 421.337 359.278 421.337 356.195C421.337 350.386 425.887 345.836 431.695 345.836C437.503 345.836 442.053 350.386 442.053 356.195C442.053 359.278 440.616 361.973 438.523 363.856ZM431.695 348.379C427.281 348.379 423.88 351.78 423.88 356.195C423.88 360.609 427.281 364.01 431.695 364.01C436.109 364.01 439.51 360.609 439.51 356.195C439.51 351.78 436.109 348.379 431.695 348.379ZM420.337 389.455H443.053C443.609 389.455 444.017 389.152 444.269 388.885C444.525 388.615 444.725 388.276 444.884 387.944C445.207 387.274 445.468 386.413 445.673 385.565C446.08 383.874 446.325 381.972 446.325 381.183C446.325 373.134 439.744 366.553 431.695 366.553C423.646 366.553 417.065 373.134 417.065 381.183C417.065 381.972 417.31 383.874 417.717 385.565C417.922 386.413 418.183 387.274 418.506 387.944C418.665 388.276 418.865 388.615 419.121 388.885C419.373 389.152 419.781 389.455 420.337 389.455Z" fill="#004357"/>
</g>
<path d="M468 368C468 356.954 476.954 348 488 348V348C499.046 348 508 356.954 508 368V368C508 379.046 499.046 388 488 388V388C476.954 388 468 379.046 468 368V368Z" fill="#F3F4F6"/>
<circle cx="488" cy="368" r="20" fill="#F3F4F6"/>
<mask id="mask32_6262_109276" style="mask-type:alpha" maskUnits="userSpaceOnUse" x="468" y="343" width="40" height="45">
<path d="M468 343.453H508V367.999C508 379.045 499.046 387.999 488 387.999V387.999C476.954 387.999 468 379.045 468 367.999V343.453Z" fill="#D9D9D9"/>
</mask>
<g mask="url(#mask32_6262_109276)">
<path fill-rule="evenodd" clip-rule="evenodd" d="M494.523 363.856L493.397 364.869L494.77 365.507C500.794 368.303 504.869 374.32 504.869 381.183C504.869 382.926 504.183 385.728 503.013 388.096C502.431 389.272 501.759 390.281 501.047 390.982C500.33 391.687 499.659 391.998 499.053 391.998H476.337C475.731 391.998 475.06 391.687 474.343 390.982C473.631 390.281 472.959 389.272 472.377 388.096C471.207 385.728 470.521 382.926 470.521 381.183C470.521 374.32 474.596 368.303 480.62 365.507L481.993 364.869L480.867 363.856C478.774 361.973 477.337 359.278 477.337 356.195C477.337 350.386 481.887 345.836 487.695 345.836C493.503 345.836 498.053 350.386 498.053 356.195C498.053 359.278 496.616 361.973 494.523 363.856ZM487.695 348.379C483.281 348.379 479.88 351.78 479.88 356.195C479.88 360.609 483.281 364.01 487.695 364.01C492.109 364.01 495.51 360.609 495.51 356.195C495.51 351.78 492.109 348.379 487.695 348.379ZM476.337 389.455H499.053C499.609 389.455 500.017 389.152 500.269 388.885C500.525 388.615 500.725 388.276 500.884 387.944C501.207 387.274 501.468 386.413 501.673 385.565C502.08 383.874 502.325 381.972 502.325 381.183C502.325 373.134 495.744 366.553 487.695 366.553C479.646 366.553 473.065 373.134 473.065 381.183C473.065 381.972 473.31 383.874 473.717 385.565C473.922 386.413 474.183 387.274 474.506 387.944C474.665 388.276 474.865 388.615 475.121 388.885C475.373 389.152 475.781 389.455 476.337 389.455Z" fill="#004357"/>
</g>
<path d="M524 368C524 356.954 532.954 348 544 348V348C555.046 348 564 356.954 564 368V368C564 379.046 555.046 388 544 388V388C532.954 388 524 379.046 524 368V368Z" fill="#F3F4F6"/>
<circle cx="544" cy="368" r="20" fill="#F3F4F6"/>
<mask id="mask33_6262_109276" style="mask-type:alpha" maskUnits="userSpaceOnUse" x="524" y="343" width="40" height="45">
<path d="M524 343.453H564V367.999C564 379.045 555.046 387.999 544 387.999V387.999C532.954 387.999 524 379.045 524 367.999V343.453Z" fill="#D9D9D9"/>
</mask>
<g mask="url(#mask33_6262_109276)">
<path fill-rule="evenodd" clip-rule="evenodd" d="M550.523 363.856L549.397 364.869L550.77 365.507C556.794 368.303 560.869 374.32 560.869 381.183C560.869 382.926 560.183 385.728 559.013 388.096C558.431 389.272 557.759 390.281 557.047 390.982C556.33 391.687 555.659 391.998 555.053 391.998H532.337C531.731 391.998 531.06 391.687 530.343 390.982C529.631 390.281 528.959 389.272 528.377 388.096C527.207 385.728 526.521 382.926 526.521 381.183C526.521 374.32 530.596 368.303 536.62 365.507L537.993 364.869L536.867 363.856C534.774 361.973 533.337 359.278 533.337 356.195C533.337 350.386 537.887 345.836 543.695 345.836C549.503 345.836 554.053 350.386 554.053 356.195C554.053 359.278 552.616 361.973 550.523 363.856ZM543.695 348.379C539.281 348.379 535.88 351.78 535.88 356.195C535.88 360.609 539.281 364.01 543.695 364.01C548.109 364.01 551.51 360.609 551.51 356.195C551.51 351.78 548.109 348.379 543.695 348.379ZM532.337 389.455H555.053C555.609 389.455 556.017 389.152 556.269 388.885C556.525 388.615 556.725 388.276 556.884 387.944C557.207 387.274 557.468 386.413 557.673 385.565C558.08 383.874 558.325 381.972 558.325 381.183C558.325 373.134 551.744 366.553 543.695 366.553C535.646 366.553 529.065 373.134 529.065 381.183C529.065 381.972 529.31 383.874 529.717 385.565C529.922 386.413 530.183 387.274 530.506 387.944C530.665 388.276 530.865 388.615 531.121 388.885C531.373 389.152 531.781 389.455 532.337 389.455Z" fill="#004357"/>
</g>
<path d="M639.498 275.217C639.976 275.494 640.588 275.331 640.865 274.853L645.377 267.066C645.654 266.589 645.491 265.977 645.013 265.7C644.535 265.423 643.924 265.586 643.647 266.064L639.636 272.986L632.714 268.975C632.236 268.698 631.624 268.861 631.347 269.339C631.07 269.816 631.233 270.428 631.711 270.705L639.498 275.217ZM582.392 240.059C595.853 237.226 608.076 238.661 617.875 244.354C627.665 250.042 635.157 260.051 639.033 274.609L640.966 274.095C636.98 259.123 629.209 248.626 618.88 242.625C608.56 236.629 595.808 235.192 581.981 238.102L582.392 240.059Z" fill="#004357"/>
</svg>
