<svg width="640" height="317" viewBox="0 0 640 317" fill="none" xmlns="http://www.w3.org/2000/svg">
<mask id="mask0_6258_101758" style="mask-type:alpha" maskUnits="userSpaceOnUse" x="0" y="62" width="33" height="37">
<path d="M0.797852 62.5613H32.6915V82.1326C32.6915 90.9398 25.5519 98.0794 16.7447 98.0794V98.0794C7.9375 98.0794 0.797852 90.9398 0.797852 82.1326V62.5613Z" fill="#D9D9D9"/>
</mask>
<g mask="url(#mask0_6258_101758)">
<path fill-rule="evenodd" clip-rule="evenodd" d="M9.76138 79.8032C9.76138 79.8032 9.76138 79.8032 9.76138 79.8032C9.76214 79.8028 9.7629 79.8024 9.76366 79.802C9.7629 79.8024 9.76214 79.8028 9.76138 79.8032ZM21.9447 78.8299L21.0475 79.6374L22.1424 80.1457C26.9449 82.3755 30.194 87.1727 30.194 92.6451C30.194 94.035 29.647 96.2692 28.7142 98.1569C28.2507 99.0949 27.7149 99.8995 27.1465 100.458C26.5749 101.02 26.0399 101.268 25.5574 101.268H7.44422C6.96165 101.268 6.42668 101.02 5.85505 100.458C5.28667 99.8995 4.75086 99.0949 4.28737 98.1569C3.35454 96.2692 2.80762 94.035 2.80762 92.6451C2.80762 87.1727 6.05664 82.3755 10.8592 80.1457L11.9541 79.6374L11.0568 78.8299C9.38808 77.328 8.24156 75.1795 8.24156 72.7207C8.24156 68.0893 11.8695 64.4614 16.5008 64.4614C21.1321 64.4614 24.76 68.0893 24.76 72.7207C24.76 75.1795 23.6135 77.328 21.9447 78.8299ZM16.5008 66.4894C12.9812 66.4894 10.2695 69.2011 10.2695 72.7207C10.2695 76.2402 12.9812 78.9519 16.5008 78.9519C20.0204 78.9519 22.7321 76.2402 22.7321 72.7207C22.7321 69.2011 20.0204 66.4894 16.5008 66.4894ZM7.44422 99.2405H25.5574C26.0005 99.2405 26.3258 98.9987 26.5266 98.7864C26.7305 98.5708 26.8901 98.3002 27.0173 98.0358C27.2744 97.5018 27.4824 96.8151 27.6457 96.1387C27.9709 94.7906 28.166 93.2742 28.166 92.6451C28.166 86.2274 22.9185 80.9799 16.5008 80.9799C10.0831 80.9799 4.83556 86.2274 4.83556 92.6451C4.83556 93.2742 5.03064 94.7906 5.35592 96.1387C5.51914 96.8151 5.72722 97.5018 5.98425 98.0358C6.11152 98.3002 6.27111 98.5708 6.47501 98.7864C6.67573 98.9987 7.00106 99.2405 7.44422 99.2405Z" fill="#004357"/>
</g>
<mask id="mask1_6258_101758" style="mask-type:alpha" maskUnits="userSpaceOnUse" x="45" y="62" width="33" height="37">
<path d="M45.4492 62.5613H77.3429V82.1326C77.3429 90.9398 70.2033 98.0794 61.3961 98.0794V98.0794C52.5889 98.0794 45.4492 90.9398 45.4492 82.1326V62.5613Z" fill="#D9D9D9"/>
</mask>
<g mask="url(#mask1_6258_101758)">
<path fill-rule="evenodd" clip-rule="evenodd" d="M54.4127 79.8032C54.4127 79.8032 54.4127 79.8032 54.4128 79.8032C54.4135 79.8028 54.4143 79.8024 54.415 79.802C54.4143 79.8024 54.4135 79.8028 54.4127 79.8032ZM66.5961 78.8299L65.6988 79.6374L66.7937 80.1457C71.5963 82.3755 74.8453 87.1727 74.8453 92.6451C74.8453 94.035 74.2984 96.2692 73.3656 98.1569C72.9021 99.0949 72.3663 99.8995 71.7979 100.458C71.2263 101.02 70.6913 101.268 70.2087 101.268H52.0956C51.613 101.268 51.078 101.02 50.5064 100.458C49.938 99.8995 49.4022 99.0949 48.9387 98.1569C48.0059 96.2692 47.459 94.035 47.459 92.6451C47.459 87.1727 50.708 82.3755 55.5106 80.1457L56.6055 79.6374L55.7082 78.8299C54.0394 77.328 52.8929 75.1795 52.8929 72.7207C52.8929 68.0893 56.5208 64.4614 61.1522 64.4614C65.7835 64.4614 69.4114 68.0893 69.4114 72.7207C69.4114 75.1795 68.2649 77.328 66.5961 78.8299ZM61.1522 66.4894C57.6326 66.4894 54.9209 69.2011 54.9209 72.7207C54.9209 76.2402 57.6326 78.9519 61.1522 78.9519C64.6717 78.9519 67.3834 76.2402 67.3834 72.7207C67.3834 69.2011 64.6717 66.4894 61.1522 66.4894ZM52.0956 99.2405H70.2087C70.6519 99.2405 70.9772 98.9987 71.1779 98.7864C71.3818 98.5708 71.5414 98.3002 71.6687 98.0358C71.9257 97.5018 72.1338 96.8151 72.297 96.1387C72.6223 94.7906 72.8174 93.2742 72.8174 92.6451C72.8174 86.2274 67.5699 80.9799 61.1522 80.9799C54.7345 80.9799 49.4869 86.2274 49.4869 92.6451C49.4869 93.2742 49.682 94.7906 50.0073 96.1387C50.1705 96.8151 50.3786 97.5018 50.6356 98.0358C50.7629 98.3002 50.9225 98.5708 51.1264 98.7864C51.3271 98.9987 51.6524 99.2405 52.0956 99.2405Z" fill="#004357"/>
</g>
<mask id="mask2_6258_101758" style="mask-type:alpha" maskUnits="userSpaceOnUse" x="90" y="62" width="32" height="37">
<path d="M90.1006 62.5613H121.994V82.1326C121.994 90.9398 114.855 98.0794 106.047 98.0794V98.0794C97.2402 98.0794 90.1006 90.9398 90.1006 82.1326V62.5613Z" fill="#D9D9D9"/>
</mask>
<g mask="url(#mask2_6258_101758)">
<path fill-rule="evenodd" clip-rule="evenodd" d="M99.0641 79.8032C99.0641 79.8032 99.0641 79.8032 99.0641 79.8032C99.0649 79.8028 99.0656 79.8024 99.0664 79.802C99.0656 79.8024 99.0649 79.8028 99.0641 79.8032ZM111.247 78.8299L110.35 79.6374L111.445 80.1457C116.248 82.3755 119.497 87.1727 119.497 92.6451C119.497 94.035 118.95 96.2692 118.017 98.1569C117.553 99.0949 117.018 99.8995 116.449 100.458C115.878 101.02 115.343 101.268 114.86 101.268H96.747C96.2644 101.268 95.7294 101.02 95.1578 100.458C94.5894 99.8995 94.0536 99.0949 93.5901 98.1569C92.6573 96.2692 92.1104 94.035 92.1104 92.6451C92.1104 87.1727 95.3594 82.3755 100.162 80.1457L101.257 79.6374L100.36 78.8299C98.6908 77.328 97.5443 75.1795 97.5443 72.7207C97.5443 68.0893 101.172 64.4614 105.804 64.4614C110.435 64.4614 114.063 68.0893 114.063 72.7207C114.063 75.1795 112.916 77.328 111.247 78.8299ZM105.804 66.4894C102.284 66.4894 99.5722 69.2011 99.5722 72.7207C99.5722 76.2402 102.284 78.9519 105.804 78.9519C109.323 78.9519 112.035 76.2402 112.035 72.7207C112.035 69.2011 109.323 66.4894 105.804 66.4894ZM96.747 99.2405H114.86C115.303 99.2405 115.629 98.9987 115.829 98.7864C116.033 98.5708 116.193 98.3002 116.32 98.0358C116.577 97.5018 116.785 96.8151 116.948 96.1387C117.274 94.7906 117.469 93.2742 117.469 92.6451C117.469 86.2274 112.221 80.9799 105.804 80.9799C99.3858 80.9799 94.1383 86.2274 94.1383 92.6451C94.1383 93.2742 94.3334 94.7906 94.6587 96.1387C94.8219 96.8151 95.03 97.5018 95.287 98.0358C95.4143 98.3002 95.5738 98.5708 95.7777 98.7864C95.9785 98.9987 96.3038 99.2405 96.747 99.2405Z" fill="#004357"/>
</g>
<mask id="mask3_6258_101758" style="mask-type:alpha" maskUnits="userSpaceOnUse" x="134" y="62" width="33" height="37">
<path d="M134.751 62.5613H166.645V82.1326C166.645 90.9398 159.505 98.0794 150.698 98.0794V98.0794C141.891 98.0794 134.751 90.9398 134.751 82.1326V62.5613Z" fill="#D9D9D9"/>
</mask>
<g mask="url(#mask3_6258_101758)">
<path fill-rule="evenodd" clip-rule="evenodd" d="M143.715 79.8032C143.715 79.8032 143.715 79.8032 143.715 79.8032C143.715 79.8028 143.716 79.8024 143.717 79.802C143.716 79.8024 143.715 79.8028 143.715 79.8032ZM155.898 78.8299L155.001 79.6374L156.095 80.1457C160.898 82.3755 164.147 87.1727 164.147 92.6451C164.147 94.035 163.6 96.2692 162.667 98.1569C162.204 99.0949 161.668 99.8995 161.1 100.458C160.528 101.02 159.993 101.268 159.51 101.268H141.397C140.915 101.268 140.38 101.02 139.808 100.458C139.24 99.8995 138.704 99.0949 138.24 98.1569C137.308 96.2692 136.761 94.035 136.761 92.6451C136.761 87.1727 140.01 82.3755 144.812 80.1457L145.907 79.6374L145.01 78.8299C143.341 77.328 142.195 75.1795 142.195 72.7207C142.195 68.0893 145.823 64.4614 150.454 64.4614C155.085 64.4614 158.713 68.0893 158.713 72.7207C158.713 75.1795 157.567 77.328 155.898 78.8299ZM150.454 66.4894C146.934 66.4894 144.223 69.2011 144.223 72.7207C144.223 76.2402 146.934 78.9519 150.454 78.9519C153.974 78.9519 156.685 76.2402 156.685 72.7207C156.685 69.2011 153.974 66.4894 150.454 66.4894ZM141.397 99.2405H159.51C159.954 99.2405 160.279 98.9987 160.48 98.7864C160.684 98.5708 160.843 98.3002 160.97 98.0358C161.227 97.5018 161.436 96.8151 161.599 96.1387C161.924 94.7906 162.119 93.2742 162.119 92.6451C162.119 86.2274 156.872 80.9799 150.454 80.9799C144.036 80.9799 138.789 86.2274 138.789 92.6451C138.789 93.2742 138.984 94.7906 139.309 96.1387C139.472 96.8151 139.68 97.5018 139.937 98.0358C140.065 98.3002 140.224 98.5708 140.428 98.7864C140.629 98.9987 140.954 99.2405 141.397 99.2405Z" fill="#004357"/>
</g>
<mask id="mask4_6258_101758" style="mask-type:alpha" maskUnits="userSpaceOnUse" x="179" y="62" width="33" height="37">
<path d="M179.402 62.5613H211.296V82.1326C211.296 90.9398 204.156 98.0794 195.349 98.0794V98.0794C186.542 98.0794 179.402 90.9398 179.402 82.1326V62.5613Z" fill="#D9D9D9"/>
</mask>
<g mask="url(#mask4_6258_101758)">
<path fill-rule="evenodd" clip-rule="evenodd" d="M188.366 79.8032C188.366 79.8032 188.366 79.8032 188.366 79.8032C188.367 79.8028 188.367 79.8024 188.368 79.802C188.367 79.8024 188.367 79.8028 188.366 79.8032ZM200.549 78.8299L199.652 79.6374L200.747 80.1457C205.549 82.3755 208.798 87.1727 208.798 92.6451C208.798 94.035 208.252 96.2692 207.319 98.1569C206.855 99.0949 206.319 99.8995 205.751 100.458C205.179 101.02 204.644 101.268 204.162 101.268H186.049C185.566 101.268 185.031 101.02 184.46 100.458C183.891 99.8995 183.355 99.0949 182.892 98.1569C181.959 96.2692 181.412 94.035 181.412 92.6451C181.412 87.1727 184.661 82.3755 189.464 80.1457L190.559 79.6374L189.661 78.8299C187.993 77.328 186.846 75.1795 186.846 72.7207C186.846 68.0893 190.474 64.4614 195.105 64.4614C199.737 64.4614 203.365 68.0893 203.365 72.7207C203.365 75.1795 202.218 77.328 200.549 78.8299ZM195.105 66.4894C191.586 66.4894 188.874 69.2011 188.874 72.7207C188.874 76.2402 191.586 78.9519 195.105 78.9519C198.625 78.9519 201.337 76.2402 201.337 72.7207C201.337 69.2011 198.625 66.4894 195.105 66.4894ZM186.049 99.2405H204.162C204.605 99.2405 204.93 98.9987 205.131 98.7864C205.335 98.5708 205.495 98.3002 205.622 98.0358C205.879 97.5018 206.087 96.8151 206.25 96.1387C206.575 94.7906 206.771 93.2742 206.771 92.6451C206.771 86.2274 201.523 80.9799 195.105 80.9799C188.688 80.9799 183.44 86.2274 183.44 92.6451C183.44 93.2742 183.635 94.7906 183.96 96.1387C184.124 96.8151 184.332 97.5018 184.589 98.0358C184.716 98.3002 184.876 98.5708 185.08 98.7864C185.28 98.9987 185.606 99.2405 186.049 99.2405Z" fill="#004357"/>
</g>
<mask id="mask5_6258_101758" style="mask-type:alpha" maskUnits="userSpaceOnUse" x="224" y="62" width="32" height="37">
<path d="M224.054 62.5613H255.947V82.1326C255.947 90.9398 248.808 98.0794 240.001 98.0794V98.0794C231.193 98.0794 224.054 90.9398 224.054 82.1326V62.5613Z" fill="#D9D9D9"/>
</mask>
<g mask="url(#mask5_6258_101758)">
<path fill-rule="evenodd" clip-rule="evenodd" d="M233.017 79.8032C233.017 79.8032 233.017 79.8032 233.017 79.8032C233.018 79.8028 233.019 79.8024 233.02 79.802C233.019 79.8024 233.018 79.8028 233.017 79.8032ZM245.201 78.8299L244.303 79.6374L245.398 80.1457C250.201 82.3755 253.45 87.1727 253.45 92.6451C253.45 94.035 252.903 96.2692 251.97 98.1569C251.507 99.0949 250.971 99.8995 250.402 100.458C249.831 101.02 249.296 101.268 248.813 101.268H230.7C230.218 101.268 229.683 101.02 229.111 100.458C228.543 99.8995 228.007 99.0949 227.543 98.1569C226.61 96.2692 226.063 94.035 226.063 92.6451C226.063 87.1727 229.312 82.3755 234.115 80.1457L235.21 79.6374L234.313 78.8299C232.644 77.328 231.497 75.1795 231.497 72.7207C231.497 68.0893 235.125 64.4614 239.757 64.4614C244.388 64.4614 248.016 68.0893 248.016 72.7207C248.016 75.1795 246.869 77.328 245.201 78.8299ZM239.757 66.4894C236.237 66.4894 233.525 69.2011 233.525 72.7207C233.525 76.2402 236.237 78.9519 239.757 78.9519C243.276 78.9519 245.988 76.2402 245.988 72.7207C245.988 69.2011 243.276 66.4894 239.757 66.4894ZM230.7 99.2405H248.813C249.256 99.2405 249.582 98.9987 249.782 98.7864C249.986 98.5708 250.146 98.3002 250.273 98.0358C250.53 97.5018 250.738 96.8151 250.902 96.1387C251.227 94.7906 251.422 93.2742 251.422 92.6451C251.422 86.2274 246.174 80.9799 239.757 80.9799C233.339 80.9799 228.091 86.2274 228.091 92.6451C228.091 93.2742 228.286 94.7906 228.612 96.1387C228.775 96.8151 228.983 97.5018 229.24 98.0358C229.367 98.3002 229.527 98.5708 229.731 98.7864C229.932 98.9987 230.257 99.2405 230.7 99.2405Z" fill="#004357"/>
</g>
<mask id="mask6_6258_101758" style="mask-type:alpha" maskUnits="userSpaceOnUse" x="268" y="62" width="33" height="37">
<path d="M268.705 62.5613H300.599V82.1326C300.599 90.9398 293.459 98.0794 284.652 98.0794V98.0794C275.845 98.0794 268.705 90.9398 268.705 82.1326V62.5613Z" fill="#D9D9D9"/>
</mask>
<g mask="url(#mask6_6258_101758)">
<path fill-rule="evenodd" clip-rule="evenodd" d="M277.669 79.8032C277.669 79.8032 277.669 79.8032 277.669 79.8032C277.669 79.8028 277.67 79.8024 277.671 79.802C277.67 79.8024 277.669 79.8028 277.669 79.8032ZM289.852 78.8299L288.955 79.6374L290.05 80.1457C294.852 82.3755 298.101 87.1727 298.101 92.6451C298.101 94.035 297.554 96.2692 296.621 98.1569C296.158 99.0949 295.622 99.8995 295.054 100.458C294.482 101.02 293.947 101.268 293.465 101.268H275.351C274.869 101.268 274.334 101.02 273.762 100.458C273.194 99.8995 272.658 99.0949 272.195 98.1569C271.262 96.2692 270.715 94.035 270.715 92.6451C270.715 87.1727 273.964 82.3755 278.766 80.1457L279.861 79.6374L278.964 78.8299C277.295 77.328 276.149 75.1795 276.149 72.7207C276.149 68.0893 279.777 64.4614 284.408 64.4614C289.039 64.4614 292.667 68.0893 292.667 72.7207C292.667 75.1795 291.521 77.328 289.852 78.8299ZM284.408 66.4894C280.888 66.4894 278.177 69.2011 278.177 72.7207C278.177 76.2402 280.888 78.9519 284.408 78.9519C287.928 78.9519 290.639 76.2402 290.639 72.7207C290.639 69.2011 287.928 66.4894 284.408 66.4894ZM275.351 99.2405H293.465C293.908 99.2405 294.233 98.9987 294.434 98.7864C294.638 98.5708 294.797 98.3002 294.925 98.0358C295.182 97.5018 295.39 96.8151 295.553 96.1387C295.878 94.7906 296.073 93.2742 296.073 92.6451C296.073 86.2274 290.826 80.9799 284.408 80.9799C277.99 80.9799 272.743 86.2274 272.743 92.6451C272.743 93.2742 272.938 94.7906 273.263 96.1387C273.426 96.8151 273.634 97.5018 273.891 98.0358C274.019 98.3002 274.178 98.5708 274.382 98.7864C274.583 98.9987 274.908 99.2405 275.351 99.2405Z" fill="#004357"/>
</g>
<mask id="mask7_6258_101758" style="mask-type:alpha" maskUnits="userSpaceOnUse" x="313" y="62" width="33" height="37">
<path d="M313.355 62.5613H345.249V82.1326C345.249 90.9398 338.11 98.0794 329.302 98.0794V98.0794C320.495 98.0794 313.355 90.9398 313.355 82.1326V62.5613Z" fill="#D9D9D9"/>
</mask>
<g mask="url(#mask7_6258_101758)">
<path fill-rule="evenodd" clip-rule="evenodd" d="M322.319 79.8032C322.319 79.8032 322.319 79.8032 322.319 79.8032C322.32 79.8028 322.321 79.8024 322.321 79.802C322.321 79.8024 322.32 79.8028 322.319 79.8032ZM334.502 78.8299L333.605 79.6374L334.7 80.1457C339.503 82.3755 342.752 87.1727 342.752 92.6451C342.752 94.035 342.205 96.2692 341.272 98.1569C340.808 99.0949 340.273 99.8995 339.704 100.458C339.133 101.02 338.598 101.268 338.115 101.268H320.002C319.519 101.268 318.984 101.02 318.413 100.458C317.844 99.8995 317.308 99.0949 316.845 98.1569C315.912 96.2692 315.365 94.035 315.365 92.6451C315.365 87.1727 318.614 82.3755 323.417 80.1457L324.512 79.6374L323.614 78.8299C321.946 77.328 320.799 75.1795 320.799 72.7207C320.799 68.0893 324.427 64.4614 329.058 64.4614C333.69 64.4614 337.318 68.0893 337.318 72.7207C337.318 75.1795 336.171 77.328 334.502 78.8299ZM329.058 66.4894C325.539 66.4894 322.827 69.2011 322.827 72.7207C322.827 76.2402 325.539 78.9519 329.058 78.9519C332.578 78.9519 335.29 76.2402 335.29 72.7207C335.29 69.2011 332.578 66.4894 329.058 66.4894ZM320.002 99.2405H338.115C338.558 99.2405 338.883 98.9987 339.084 98.7864C339.288 98.5708 339.448 98.3002 339.575 98.0358C339.832 97.5018 340.04 96.8151 340.203 96.1387C340.529 94.7906 340.724 93.2742 340.724 92.6451C340.724 86.2274 335.476 80.9799 329.058 80.9799C322.641 80.9799 317.393 86.2274 317.393 92.6451C317.393 93.2742 317.588 94.7906 317.914 96.1387C318.077 96.8151 318.285 97.5018 318.542 98.0358C318.669 98.3002 318.829 98.5708 319.033 98.7864C319.233 98.9987 319.559 99.2405 320.002 99.2405Z" fill="#004357"/>
</g>
<mask id="mask8_6258_101758" style="mask-type:alpha" maskUnits="userSpaceOnUse" x="358" y="62" width="32" height="37">
<path d="M358.007 62.5613H389.901V82.1326C389.901 90.9398 382.761 98.0794 373.954 98.0794V98.0794C365.146 98.0794 358.007 90.9398 358.007 82.1326V62.5613Z" fill="#D9D9D9"/>
</mask>
<g mask="url(#mask8_6258_101758)">
<path fill-rule="evenodd" clip-rule="evenodd" d="M366.97 79.8032C366.97 79.8032 366.97 79.8032 366.97 79.8032C366.971 79.8028 366.972 79.8024 366.973 79.802C366.972 79.8024 366.971 79.8028 366.97 79.8032ZM379.154 78.8299L378.256 79.6374L379.351 80.1457C384.154 82.3755 387.403 87.1727 387.403 92.6451C387.403 94.035 386.856 96.2692 385.923 98.1569C385.46 99.0949 384.924 99.8995 384.356 100.458C383.784 101.02 383.249 101.268 382.766 101.268H364.653C364.171 101.268 363.636 101.02 363.064 100.458C362.496 99.8995 361.96 99.0949 361.496 98.1569C360.564 96.2692 360.017 94.035 360.017 92.6451C360.017 87.1727 363.266 82.3755 368.068 80.1457L369.163 79.6374L368.266 78.8299C366.597 77.328 365.451 75.1795 365.451 72.7207C365.451 68.0893 369.078 64.4614 373.71 64.4614C378.341 64.4614 381.969 68.0893 381.969 72.7207C381.969 75.1795 380.822 77.328 379.154 78.8299ZM373.71 66.4894C370.19 66.4894 367.478 69.2011 367.478 72.7207C367.478 76.2402 370.19 78.9519 373.71 78.9519C377.229 78.9519 379.941 76.2402 379.941 72.7207C379.941 69.2011 377.229 66.4894 373.71 66.4894ZM364.653 99.2405H382.766C383.209 99.2405 383.535 98.9987 383.736 98.7864C383.939 98.5708 384.099 98.3002 384.226 98.0358C384.483 97.5018 384.691 96.8151 384.855 96.1387C385.18 94.7906 385.375 93.2742 385.375 92.6451C385.375 86.2274 380.127 80.9799 373.71 80.9799C367.292 80.9799 362.045 86.2274 362.045 92.6451C362.045 93.2742 362.24 94.7906 362.565 96.1387C362.728 96.8151 362.936 97.5018 363.193 98.0358C363.321 98.3002 363.48 98.5708 363.684 98.7864C363.885 98.9987 364.21 99.2405 364.653 99.2405Z" fill="#004357"/>
</g>
<mask id="mask9_6258_101758" style="mask-type:alpha" maskUnits="userSpaceOnUse" x="0" y="110" width="33" height="37">
<path d="M0.797852 110.837H32.6915V130.408C32.6915 139.215 25.5519 146.355 16.7447 146.355V146.355C7.9375 146.355 0.797852 139.215 0.797852 130.408V110.837Z" fill="#D9D9D9"/>
</mask>
<g mask="url(#mask9_6258_101758)">
<path fill-rule="evenodd" clip-rule="evenodd" d="M9.76138 128.079C9.76138 128.079 9.76138 128.079 9.76138 128.079C9.76214 128.078 9.7629 128.078 9.76366 128.078C9.7629 128.078 9.76214 128.078 9.76138 128.079ZM21.9447 127.105L21.0475 127.913L22.1424 128.421C26.9449 130.651 30.194 135.448 30.194 140.921C30.194 142.311 29.647 144.545 28.7142 146.433C28.2507 147.371 27.7149 148.175 27.1465 148.734C26.5749 149.296 26.0399 149.544 25.5574 149.544H7.44422C6.96165 149.544 6.42668 149.296 5.85505 148.734C5.28667 148.175 4.75086 147.371 4.28737 146.433C3.35454 144.545 2.80762 142.311 2.80762 140.921C2.80762 135.448 6.05664 130.651 10.8592 128.421L11.9541 127.913L11.0568 127.105C9.38808 125.604 8.24156 123.455 8.24156 120.996C8.24156 116.365 11.8695 112.737 16.5008 112.737C21.1321 112.737 24.76 116.365 24.76 120.996C24.76 123.455 23.6135 125.604 21.9447 127.105ZM16.5008 114.765C12.9812 114.765 10.2695 117.477 10.2695 120.996C10.2695 124.516 12.9812 127.228 16.5008 127.228C20.0204 127.228 22.7321 124.516 22.7321 120.996C22.7321 117.477 20.0204 114.765 16.5008 114.765ZM7.44422 147.516H25.5574C26.0005 147.516 26.3258 147.274 26.5266 147.062C26.7305 146.846 26.8901 146.576 27.0173 146.311C27.2744 145.777 27.4824 145.091 27.6457 144.414C27.9709 143.066 28.166 141.55 28.166 140.921C28.166 134.503 22.9185 129.256 16.5008 129.256C10.0831 129.256 4.83556 134.503 4.83556 140.921C4.83556 141.55 5.03064 143.066 5.35592 144.414C5.51914 145.091 5.72722 145.777 5.98425 146.311C6.11152 146.576 6.27111 146.846 6.47501 147.062C6.67573 147.274 7.00106 147.516 7.44422 147.516Z" fill="#004357"/>
</g>
<mask id="mask10_6258_101758" style="mask-type:alpha" maskUnits="userSpaceOnUse" x="45" y="110" width="33" height="37">
<path d="M45.4492 110.837H77.3429V130.408C77.3429 139.215 70.2033 146.355 61.3961 146.355V146.355C52.5889 146.355 45.4492 139.215 45.4492 130.408V110.837Z" fill="#D9D9D9"/>
</mask>
<g mask="url(#mask10_6258_101758)">
<path fill-rule="evenodd" clip-rule="evenodd" d="M54.4127 128.079C54.4127 128.079 54.4127 128.079 54.4128 128.079C54.4135 128.078 54.4143 128.078 54.415 128.078C54.4143 128.078 54.4135 128.078 54.4127 128.079ZM66.5961 127.105L65.6988 127.913L66.7937 128.421C71.5963 130.651 74.8453 135.448 74.8453 140.921C74.8453 142.311 74.2984 144.545 73.3656 146.433C72.9021 147.371 72.3663 148.175 71.7979 148.734C71.2263 149.296 70.6913 149.544 70.2087 149.544H52.0956C51.613 149.544 51.078 149.296 50.5064 148.734C49.938 148.175 49.4022 147.371 48.9387 146.433C48.0059 144.545 47.459 142.311 47.459 140.921C47.459 135.448 50.708 130.651 55.5106 128.421L56.6055 127.913L55.7082 127.105C54.0394 125.604 52.8929 123.455 52.8929 120.996C52.8929 116.365 56.5208 112.737 61.1522 112.737C65.7835 112.737 69.4114 116.365 69.4114 120.996C69.4114 123.455 68.2649 125.604 66.5961 127.105ZM61.1522 114.765C57.6326 114.765 54.9209 117.477 54.9209 120.996C54.9209 124.516 57.6326 127.228 61.1522 127.228C64.6717 127.228 67.3834 124.516 67.3834 120.996C67.3834 117.477 64.6717 114.765 61.1522 114.765ZM52.0956 147.516H70.2087C70.6519 147.516 70.9772 147.274 71.1779 147.062C71.3818 146.846 71.5414 146.576 71.6687 146.311C71.9257 145.777 72.1338 145.091 72.297 144.414C72.6223 143.066 72.8174 141.55 72.8174 140.921C72.8174 134.503 67.5699 129.256 61.1522 129.256C54.7345 129.256 49.4869 134.503 49.4869 140.921C49.4869 141.55 49.682 143.066 50.0073 144.414C50.1705 145.091 50.3786 145.777 50.6356 146.311C50.7629 146.576 50.9225 146.846 51.1264 147.062C51.3271 147.274 51.6524 147.516 52.0956 147.516Z" fill="#004357"/>
</g>
<mask id="mask11_6258_101758" style="mask-type:alpha" maskUnits="userSpaceOnUse" x="90" y="110" width="32" height="37">
<path d="M90.1006 110.837H121.994V130.408C121.994 139.215 114.855 146.355 106.047 146.355V146.355C97.2402 146.355 90.1006 139.215 90.1006 130.408V110.837Z" fill="#D9D9D9"/>
</mask>
<g mask="url(#mask11_6258_101758)">
<path fill-rule="evenodd" clip-rule="evenodd" d="M99.0641 128.079C99.0641 128.079 99.0641 128.079 99.0641 128.079C99.0649 128.078 99.0656 128.078 99.0664 128.078C99.0656 128.078 99.0649 128.078 99.0641 128.079ZM111.247 127.105L110.35 127.913L111.445 128.421C116.248 130.651 119.497 135.448 119.497 140.921C119.497 142.311 118.95 144.545 118.017 146.433C117.553 147.371 117.018 148.175 116.449 148.734C115.878 149.296 115.343 149.544 114.86 149.544H96.747C96.2644 149.544 95.7294 149.296 95.1578 148.734C94.5894 148.175 94.0536 147.371 93.5901 146.433C92.6573 144.545 92.1104 142.311 92.1104 140.921C92.1104 135.448 95.3594 130.651 100.162 128.421L101.257 127.913L100.36 127.105C98.6908 125.604 97.5443 123.455 97.5443 120.996C97.5443 116.365 101.172 112.737 105.804 112.737C110.435 112.737 114.063 116.365 114.063 120.996C114.063 123.455 112.916 125.604 111.247 127.105ZM105.804 114.765C102.284 114.765 99.5722 117.477 99.5722 120.996C99.5722 124.516 102.284 127.228 105.804 127.228C109.323 127.228 112.035 124.516 112.035 120.996C112.035 117.477 109.323 114.765 105.804 114.765ZM96.747 147.516H114.86C115.303 147.516 115.629 147.274 115.829 147.062C116.033 146.846 116.193 146.576 116.32 146.311C116.577 145.777 116.785 145.091 116.948 144.414C117.274 143.066 117.469 141.55 117.469 140.921C117.469 134.503 112.221 129.256 105.804 129.256C99.3858 129.256 94.1383 134.503 94.1383 140.921C94.1383 141.55 94.3334 143.066 94.6587 144.414C94.8219 145.091 95.03 145.777 95.287 146.311C95.4143 146.576 95.5738 146.846 95.7777 147.062C95.9785 147.274 96.3038 147.516 96.747 147.516Z" fill="#004357"/>
</g>
<mask id="mask12_6258_101758" style="mask-type:alpha" maskUnits="userSpaceOnUse" x="134" y="110" width="33" height="37">
<path d="M134.751 110.837H166.645V130.408C166.645 139.215 159.505 146.355 150.698 146.355V146.355C141.891 146.355 134.751 139.215 134.751 130.408V110.837Z" fill="#D9D9D9"/>
</mask>
<g mask="url(#mask12_6258_101758)">
<path fill-rule="evenodd" clip-rule="evenodd" d="M143.715 128.079C143.715 128.079 143.715 128.079 143.715 128.079C143.715 128.078 143.716 128.078 143.717 128.078C143.716 128.078 143.715 128.078 143.715 128.079ZM155.898 127.105L155.001 127.913L156.095 128.421C160.898 130.651 164.147 135.448 164.147 140.921C164.147 142.311 163.6 144.545 162.667 146.433C162.204 147.371 161.668 148.175 161.1 148.734C160.528 149.296 159.993 149.544 159.51 149.544H141.397C140.915 149.544 140.38 149.296 139.808 148.734C139.24 148.175 138.704 147.371 138.24 146.433C137.308 144.545 136.761 142.311 136.761 140.921C136.761 135.448 140.01 130.651 144.812 128.421L145.907 127.913L145.01 127.105C143.341 125.604 142.195 123.455 142.195 120.996C142.195 116.365 145.823 112.737 150.454 112.737C155.085 112.737 158.713 116.365 158.713 120.996C158.713 123.455 157.567 125.604 155.898 127.105ZM150.454 114.765C146.934 114.765 144.223 117.477 144.223 120.996C144.223 124.516 146.934 127.228 150.454 127.228C153.974 127.228 156.685 124.516 156.685 120.996C156.685 117.477 153.974 114.765 150.454 114.765ZM141.397 147.516H159.51C159.954 147.516 160.279 147.274 160.48 147.062C160.684 146.846 160.843 146.576 160.97 146.311C161.227 145.777 161.436 145.091 161.599 144.414C161.924 143.066 162.119 141.55 162.119 140.921C162.119 134.503 156.872 129.256 150.454 129.256C144.036 129.256 138.789 134.503 138.789 140.921C138.789 141.55 138.984 143.066 139.309 144.414C139.472 145.091 139.68 145.777 139.937 146.311C140.065 146.576 140.224 146.846 140.428 147.062C140.629 147.274 140.954 147.516 141.397 147.516Z" fill="#004357"/>
</g>
<mask id="mask13_6258_101758" style="mask-type:alpha" maskUnits="userSpaceOnUse" x="179" y="110" width="33" height="37">
<path d="M179.402 110.837H211.296V130.408C211.296 139.215 204.156 146.355 195.349 146.355V146.355C186.542 146.355 179.402 139.215 179.402 130.408V110.837Z" fill="#D9D9D9"/>
</mask>
<g mask="url(#mask13_6258_101758)">
<path fill-rule="evenodd" clip-rule="evenodd" d="M188.366 128.079C188.366 128.079 188.366 128.079 188.366 128.079C188.367 128.078 188.367 128.078 188.368 128.078C188.367 128.078 188.367 128.078 188.366 128.079ZM200.549 127.105L199.652 127.913L200.747 128.421C205.549 130.651 208.798 135.448 208.798 140.921C208.798 142.311 208.252 144.545 207.319 146.433C206.855 147.371 206.319 148.175 205.751 148.734C205.179 149.296 204.644 149.544 204.162 149.544H186.049C185.566 149.544 185.031 149.296 184.46 148.734C183.891 148.175 183.355 147.371 182.892 146.433C181.959 144.545 181.412 142.311 181.412 140.921C181.412 135.448 184.661 130.651 189.464 128.421L190.559 127.913L189.661 127.105C187.993 125.604 186.846 123.455 186.846 120.996C186.846 116.365 190.474 112.737 195.105 112.737C199.737 112.737 203.365 116.365 203.365 120.996C203.365 123.455 202.218 125.604 200.549 127.105ZM195.105 114.765C191.586 114.765 188.874 117.477 188.874 120.996C188.874 124.516 191.586 127.228 195.105 127.228C198.625 127.228 201.337 124.516 201.337 120.996C201.337 117.477 198.625 114.765 195.105 114.765ZM186.049 147.516H204.162C204.605 147.516 204.93 147.274 205.131 147.062C205.335 146.846 205.495 146.576 205.622 146.311C205.879 145.777 206.087 145.091 206.25 144.414C206.575 143.066 206.771 141.55 206.771 140.921C206.771 134.503 201.523 129.256 195.105 129.256C188.688 129.256 183.44 134.503 183.44 140.921C183.44 141.55 183.635 143.066 183.96 144.414C184.124 145.091 184.332 145.777 184.589 146.311C184.716 146.576 184.876 146.846 185.08 147.062C185.28 147.274 185.606 147.516 186.049 147.516Z" fill="#004357"/>
</g>
<mask id="mask14_6258_101758" style="mask-type:alpha" maskUnits="userSpaceOnUse" x="224" y="110" width="32" height="37">
<path d="M224.054 110.837H255.947V130.408C255.947 139.215 248.808 146.355 240.001 146.355V146.355C231.193 146.355 224.054 139.215 224.054 130.408V110.837Z" fill="#D9D9D9"/>
</mask>
<g mask="url(#mask14_6258_101758)">
<path fill-rule="evenodd" clip-rule="evenodd" d="M233.017 128.079C233.017 128.079 233.017 128.079 233.017 128.079C233.018 128.078 233.019 128.078 233.02 128.078C233.019 128.078 233.018 128.078 233.017 128.079ZM245.201 127.105L244.303 127.913L245.398 128.421C250.201 130.651 253.45 135.448 253.45 140.921C253.45 142.311 252.903 144.545 251.97 146.433C251.507 147.371 250.971 148.175 250.402 148.734C249.831 149.296 249.296 149.544 248.813 149.544H230.7C230.218 149.544 229.683 149.296 229.111 148.734C228.543 148.175 228.007 147.371 227.543 146.433C226.61 144.545 226.063 142.311 226.063 140.921C226.063 135.448 229.312 130.651 234.115 128.421L235.21 127.913L234.313 127.105C232.644 125.604 231.497 123.455 231.497 120.996C231.497 116.365 235.125 112.737 239.757 112.737C244.388 112.737 248.016 116.365 248.016 120.996C248.016 123.455 246.869 125.604 245.201 127.105ZM239.757 114.765C236.237 114.765 233.525 117.477 233.525 120.996C233.525 124.516 236.237 127.228 239.757 127.228C243.276 127.228 245.988 124.516 245.988 120.996C245.988 117.477 243.276 114.765 239.757 114.765ZM230.7 147.516H248.813C249.256 147.516 249.582 147.274 249.782 147.062C249.986 146.846 250.146 146.576 250.273 146.311C250.53 145.777 250.738 145.091 250.902 144.414C251.227 143.066 251.422 141.55 251.422 140.921C251.422 134.503 246.174 129.256 239.757 129.256C233.339 129.256 228.091 134.503 228.091 140.921C228.091 141.55 228.286 143.066 228.612 144.414C228.775 145.091 228.983 145.777 229.24 146.311C229.367 146.576 229.527 146.846 229.731 147.062C229.932 147.274 230.257 147.516 230.7 147.516Z" fill="#004357"/>
</g>
<mask id="mask15_6258_101758" style="mask-type:alpha" maskUnits="userSpaceOnUse" x="268" y="110" width="33" height="37">
<path d="M268.705 110.837H300.599V130.408C300.599 139.215 293.459 146.355 284.652 146.355V146.355C275.845 146.355 268.705 139.215 268.705 130.408V110.837Z" fill="#D9D9D9"/>
</mask>
<g mask="url(#mask15_6258_101758)">
<path fill-rule="evenodd" clip-rule="evenodd" d="M277.669 128.079C277.669 128.079 277.669 128.079 277.669 128.079C277.669 128.078 277.67 128.078 277.671 128.078C277.67 128.078 277.669 128.078 277.669 128.079ZM289.852 127.105L288.955 127.913L290.05 128.421C294.852 130.651 298.101 135.448 298.101 140.921C298.101 142.311 297.554 144.545 296.621 146.433C296.158 147.371 295.622 148.175 295.054 148.734C294.482 149.296 293.947 149.544 293.465 149.544H275.351C274.869 149.544 274.334 149.296 273.762 148.734C273.194 148.175 272.658 147.371 272.195 146.433C271.262 144.545 270.715 142.311 270.715 140.921C270.715 135.448 273.964 130.651 278.766 128.421L279.861 127.913L278.964 127.105C277.295 125.604 276.149 123.455 276.149 120.996C276.149 116.365 279.777 112.737 284.408 112.737C289.039 112.737 292.667 116.365 292.667 120.996C292.667 123.455 291.521 125.604 289.852 127.105ZM284.408 114.765C280.888 114.765 278.177 117.477 278.177 120.996C278.177 124.516 280.888 127.228 284.408 127.228C287.928 127.228 290.639 124.516 290.639 120.996C290.639 117.477 287.928 114.765 284.408 114.765ZM275.351 147.516H293.465C293.908 147.516 294.233 147.274 294.434 147.062C294.638 146.846 294.797 146.576 294.925 146.311C295.182 145.777 295.39 145.091 295.553 144.414C295.878 143.066 296.073 141.55 296.073 140.921C296.073 134.503 290.826 129.256 284.408 129.256C277.99 129.256 272.743 134.503 272.743 140.921C272.743 141.55 272.938 143.066 273.263 144.414C273.426 145.091 273.634 145.777 273.891 146.311C274.019 146.576 274.178 146.846 274.382 147.062C274.583 147.274 274.908 147.516 275.351 147.516Z" fill="#004357"/>
</g>
<mask id="mask16_6258_101758" style="mask-type:alpha" maskUnits="userSpaceOnUse" x="313" y="110" width="33" height="37">
<path d="M313.355 110.837H345.249V130.408C345.249 139.215 338.11 146.355 329.302 146.355V146.355C320.495 146.355 313.355 139.215 313.355 130.408V110.837Z" fill="#D9D9D9"/>
</mask>
<g mask="url(#mask16_6258_101758)">
<path fill-rule="evenodd" clip-rule="evenodd" d="M322.319 128.079C322.319 128.079 322.319 128.079 322.319 128.079C322.32 128.078 322.321 128.078 322.321 128.078C322.321 128.078 322.32 128.078 322.319 128.079ZM334.502 127.105L333.605 127.913L334.7 128.421C339.503 130.651 342.752 135.448 342.752 140.921C342.752 142.311 342.205 144.545 341.272 146.433C340.808 147.371 340.273 148.175 339.704 148.734C339.133 149.296 338.598 149.544 338.115 149.544H320.002C319.519 149.544 318.984 149.296 318.413 148.734C317.844 148.175 317.308 147.371 316.845 146.433C315.912 144.545 315.365 142.311 315.365 140.921C315.365 135.448 318.614 130.651 323.417 128.421L324.512 127.913L323.614 127.105C321.946 125.604 320.799 123.455 320.799 120.996C320.799 116.365 324.427 112.737 329.058 112.737C333.69 112.737 337.318 116.365 337.318 120.996C337.318 123.455 336.171 125.604 334.502 127.105ZM329.058 114.765C325.539 114.765 322.827 117.477 322.827 120.996C322.827 124.516 325.539 127.228 329.058 127.228C332.578 127.228 335.29 124.516 335.29 120.996C335.29 117.477 332.578 114.765 329.058 114.765ZM320.002 147.516H338.115C338.558 147.516 338.883 147.274 339.084 147.062C339.288 146.846 339.448 146.576 339.575 146.311C339.832 145.777 340.04 145.091 340.203 144.414C340.529 143.066 340.724 141.55 340.724 140.921C340.724 134.503 335.476 129.256 329.058 129.256C322.641 129.256 317.393 134.503 317.393 140.921C317.393 141.55 317.588 143.066 317.914 144.414C318.077 145.091 318.285 145.777 318.542 146.311C318.669 146.576 318.829 146.846 319.033 147.062C319.233 147.274 319.559 147.516 320.002 147.516Z" fill="#004357"/>
</g>
<path d="M132.303 49.1797C131.922 49.4004 131.434 49.2705 131.213 48.8895L127.615 42.6805C127.395 42.2995 127.525 41.8116 127.906 41.5909C128.287 41.3701 128.774 41.5 128.995 41.881L132.193 47.4001L137.712 44.2021C138.093 43.9813 138.581 44.1112 138.802 44.4922C139.023 44.8732 138.893 45.3611 138.512 45.5818L132.303 49.1797ZM177.836 21.1463C167.103 18.8879 157.357 20.0317 149.544 24.571C141.738 29.1062 135.764 37.0871 132.674 48.6949L131.133 48.2846C134.311 36.3473 140.507 27.9771 148.743 23.1922C156.971 18.4114 167.139 17.2659 178.164 19.5858L177.836 21.1463Z" fill="#004357"/>
<mask id="mask17_6258_101758" style="mask-type:alpha" maskUnits="userSpaceOnUse" x="250" y="233" width="33" height="36">
<path d="M250.896 233.192H282.79V252.764C282.79 261.571 275.651 268.711 266.843 268.711V268.711C258.036 268.711 250.896 261.571 250.896 252.764V233.192Z" fill="#D9D9D9"/>
</mask>
<g mask="url(#mask17_6258_101758)">
<path fill-rule="evenodd" clip-rule="evenodd" d="M259.86 250.434C259.86 250.434 259.86 250.434 259.86 250.434C259.861 250.434 259.862 250.434 259.862 250.433C259.862 250.434 259.861 250.434 259.86 250.434ZM272.043 249.461L271.146 250.268L272.241 250.777C277.044 253.007 280.293 257.804 280.293 263.276C280.293 264.666 279.746 266.9 278.813 268.788C278.349 269.726 277.814 270.531 277.245 271.089C276.674 271.651 276.139 271.9 275.656 271.9H257.543C257.06 271.9 256.525 271.651 255.954 271.089C255.385 270.531 254.849 269.726 254.386 268.788C253.453 266.9 252.906 264.666 252.906 263.276C252.906 257.804 256.155 253.007 260.958 250.777L262.053 250.268L261.155 249.461C259.487 247.959 258.34 245.811 258.34 243.352C258.34 238.72 261.968 235.093 266.599 235.093C271.231 235.093 274.859 238.72 274.859 243.352C274.859 245.811 273.712 247.959 272.043 249.461ZM266.599 237.12C263.08 237.12 260.368 239.832 260.368 243.352C260.368 246.871 263.08 249.583 266.599 249.583C270.119 249.583 272.831 246.871 272.831 243.352C272.831 239.832 270.119 237.12 266.599 237.12ZM257.543 269.872H275.656C276.099 269.872 276.424 269.63 276.625 269.418C276.829 269.202 276.989 268.931 277.116 268.667C277.373 268.133 277.581 267.446 277.744 266.77C278.07 265.422 278.265 263.905 278.265 263.276C278.265 256.859 273.017 251.611 266.599 251.611C260.182 251.611 254.934 256.859 254.934 263.276C254.934 263.905 255.129 265.422 255.455 266.77C255.618 267.446 255.826 268.133 256.083 268.667C256.21 268.931 256.37 269.202 256.574 269.418C256.774 269.63 257.1 269.872 257.543 269.872Z" fill="#004357"/>
</g>
<mask id="mask18_6258_101758" style="mask-type:alpha" maskUnits="userSpaceOnUse" x="295" y="233" width="33" height="36">
<path d="M295.548 233.192H327.442V252.764C327.442 261.571 320.302 268.711 311.495 268.711V268.711C302.687 268.711 295.548 261.571 295.548 252.764V233.192Z" fill="#D9D9D9"/>
</mask>
<g mask="url(#mask18_6258_101758)">
<path fill-rule="evenodd" clip-rule="evenodd" d="M304.511 250.434C304.511 250.434 304.511 250.434 304.511 250.434C304.512 250.434 304.513 250.434 304.514 250.433C304.513 250.434 304.512 250.434 304.511 250.434ZM316.695 249.461L315.797 250.268L316.892 250.777C321.695 253.007 324.944 257.804 324.944 263.276C324.944 264.666 324.397 266.9 323.464 268.788C323.001 269.726 322.465 270.531 321.897 271.089C321.325 271.651 320.79 271.9 320.307 271.9H302.194C301.712 271.9 301.177 271.651 300.605 271.089C300.037 270.531 299.501 269.726 299.037 268.788C298.105 266.9 297.558 264.666 297.558 263.276C297.558 257.804 300.807 253.007 305.609 250.777L306.704 250.268L305.807 249.461C304.138 247.959 302.992 245.811 302.992 243.352C302.992 238.72 306.619 235.093 311.251 235.093C315.882 235.093 319.51 238.72 319.51 243.352C319.51 245.811 318.363 247.959 316.695 249.461ZM311.251 237.12C307.731 237.12 305.02 239.832 305.02 243.352C305.02 246.871 307.731 249.583 311.251 249.583C314.77 249.583 317.482 246.871 317.482 243.352C317.482 239.832 314.77 237.12 311.251 237.12ZM302.194 269.872H320.307C320.751 269.872 321.076 269.63 321.277 269.418C321.48 269.202 321.64 268.931 321.767 268.667C322.024 268.133 322.232 267.446 322.396 266.77C322.721 265.422 322.916 263.905 322.916 263.276C322.916 256.859 317.668 251.611 311.251 251.611C304.833 251.611 299.586 256.859 299.586 263.276C299.586 263.905 299.781 265.422 300.106 266.77C300.269 267.446 300.477 268.133 300.734 268.667C300.862 268.931 301.021 269.202 301.225 269.418C301.426 269.63 301.751 269.872 302.194 269.872Z" fill="#004357"/>
</g>
<mask id="mask19_6258_101758" style="mask-type:alpha" maskUnits="userSpaceOnUse" x="340" y="233" width="33" height="36">
<path d="M340.199 233.192H372.093V252.764C372.093 261.571 364.953 268.711 356.146 268.711V268.711C347.339 268.711 340.199 261.571 340.199 252.764V233.192Z" fill="#D9D9D9"/>
</mask>
<g mask="url(#mask19_6258_101758)">
<path fill-rule="evenodd" clip-rule="evenodd" d="M349.163 250.434C349.163 250.434 349.163 250.434 349.163 250.434C349.164 250.434 349.164 250.434 349.165 250.433C349.164 250.434 349.164 250.434 349.163 250.434ZM361.346 249.461L360.449 250.268L361.544 250.777C366.346 253.007 369.595 257.804 369.595 263.276C369.595 264.666 369.048 266.9 368.116 268.788C367.652 269.726 367.116 270.531 366.548 271.089C365.976 271.651 365.441 271.9 364.959 271.9H346.846C346.363 271.9 345.828 271.651 345.256 271.089C344.688 270.531 344.152 269.726 343.689 268.788C342.756 266.9 342.209 264.666 342.209 263.276C342.209 257.804 345.458 253.007 350.261 250.777L351.355 250.268L350.458 249.461C348.789 247.959 347.643 245.811 347.643 243.352C347.643 238.72 351.271 235.093 355.902 235.093C360.533 235.093 364.161 238.72 364.161 243.352C364.161 245.811 363.015 247.959 361.346 249.461ZM355.902 237.12C352.383 237.12 349.671 239.832 349.671 243.352C349.671 246.871 352.383 249.583 355.902 249.583C359.422 249.583 362.133 246.871 362.133 243.352C362.133 239.832 359.422 237.12 355.902 237.12ZM346.846 269.872H364.959C365.402 269.872 365.727 269.63 365.928 269.418C366.132 269.202 366.291 268.931 366.419 268.667C366.676 268.133 366.884 267.446 367.047 266.77C367.372 265.422 367.567 263.905 367.567 263.276C367.567 256.859 362.32 251.611 355.902 251.611C349.484 251.611 344.237 256.859 344.237 263.276C344.237 263.905 344.432 265.422 344.757 266.77C344.921 267.446 345.129 268.133 345.386 268.667C345.513 268.931 345.672 269.202 345.876 269.418C346.077 269.63 346.402 269.872 346.846 269.872Z" fill="#004357"/>
</g>
<mask id="mask20_6258_101758" style="mask-type:alpha" maskUnits="userSpaceOnUse" x="384" y="233" width="33" height="36">
<path d="M384.851 233.192H416.744V252.764C416.744 261.571 409.605 268.711 400.797 268.711V268.711C391.99 268.711 384.851 261.571 384.851 252.764V233.192Z" fill="#D9D9D9"/>
</mask>
<g mask="url(#mask20_6258_101758)">
<path fill-rule="evenodd" clip-rule="evenodd" d="M393.814 250.434C393.814 250.434 393.814 250.434 393.814 250.434C393.815 250.434 393.816 250.434 393.816 250.433C393.816 250.434 393.815 250.434 393.814 250.434ZM405.997 249.461L405.1 250.268L406.195 250.777C410.998 253.007 414.247 257.804 414.247 263.276C414.247 264.666 413.7 266.9 412.767 268.788C412.303 269.726 411.768 270.531 411.199 271.089C410.628 271.651 410.093 271.9 409.61 271.9H391.497C391.014 271.9 390.479 271.651 389.908 271.089C389.339 270.531 388.804 269.726 388.34 268.788C387.407 266.9 386.86 264.666 386.86 263.276C386.86 257.804 390.109 253.007 394.912 250.777L396.007 250.268L395.11 249.461C393.441 247.959 392.294 245.811 392.294 243.352C392.294 238.72 395.922 235.093 400.554 235.093C405.185 235.093 408.813 238.72 408.813 243.352C408.813 245.811 407.666 247.959 405.997 249.461ZM400.554 237.12C397.034 237.12 394.322 239.832 394.322 243.352C394.322 246.871 397.034 249.583 400.554 249.583C404.073 249.583 406.785 246.871 406.785 243.352C406.785 239.832 404.073 237.12 400.554 237.12ZM391.497 269.872H409.61C410.053 269.872 410.379 269.63 410.579 269.418C410.783 269.202 410.943 268.931 411.07 268.667C411.327 268.133 411.535 267.446 411.698 266.77C412.024 265.422 412.219 263.905 412.219 263.276C412.219 256.859 406.971 251.611 400.554 251.611C394.136 251.611 388.888 256.859 388.888 263.276C388.888 263.905 389.083 265.422 389.409 266.77C389.572 267.446 389.78 268.133 390.037 268.667C390.164 268.931 390.324 269.202 390.528 269.418C390.728 269.63 391.054 269.872 391.497 269.872Z" fill="#004357"/>
</g>
<mask id="mask21_6258_101758" style="mask-type:alpha" maskUnits="userSpaceOnUse" x="429" y="233" width="33" height="36">
<path d="M429.502 233.192H461.396V252.764C461.396 261.571 454.256 268.711 445.449 268.711V268.711C436.642 268.711 429.502 261.571 429.502 252.764V233.192Z" fill="#D9D9D9"/>
</mask>
<g mask="url(#mask21_6258_101758)">
<path fill-rule="evenodd" clip-rule="evenodd" d="M438.465 250.434C438.465 250.434 438.465 250.434 438.465 250.434C438.466 250.434 438.467 250.434 438.468 250.433C438.467 250.434 438.466 250.434 438.465 250.434ZM450.649 249.461L449.752 250.268L450.846 250.777C455.649 253.007 458.898 257.804 458.898 263.276C458.898 264.666 458.351 266.9 457.418 268.788C456.955 269.726 456.419 270.531 455.851 271.089C455.279 271.651 454.744 271.9 454.261 271.9H436.148C435.666 271.9 435.131 271.651 434.559 271.089C433.991 270.531 433.455 269.726 432.991 268.788C432.059 266.9 431.512 264.666 431.512 263.276C431.512 257.804 434.761 253.007 439.563 250.777L440.658 250.268L439.761 249.461C438.092 247.959 436.946 245.811 436.946 243.352C436.946 238.72 440.574 235.093 445.205 235.093C449.836 235.093 453.464 238.72 453.464 243.352C453.464 245.811 452.318 247.959 450.649 249.461ZM445.205 237.12C441.685 237.12 438.974 239.832 438.974 243.352C438.974 246.871 441.685 249.583 445.205 249.583C448.724 249.583 451.436 246.871 451.436 243.352C451.436 239.832 448.724 237.12 445.205 237.12ZM436.148 269.872H454.261C454.705 269.872 455.03 269.63 455.231 269.418C455.435 269.202 455.594 268.931 455.721 268.667C455.978 268.133 456.187 267.446 456.35 266.77C456.675 265.422 456.87 263.905 456.87 263.276C456.87 256.859 451.623 251.611 445.205 251.611C438.787 251.611 433.54 256.859 433.54 263.276C433.54 263.905 433.735 265.422 434.06 266.77C434.223 267.446 434.431 268.133 434.688 268.667C434.816 268.931 434.975 269.202 435.179 269.418C435.38 269.63 435.705 269.872 436.148 269.872Z" fill="#004357"/>
</g>
<mask id="mask22_6258_101758" style="mask-type:alpha" maskUnits="userSpaceOnUse" x="474" y="233" width="33" height="36">
<path d="M474.152 233.192H506.046V252.764C506.046 261.571 498.906 268.711 490.099 268.711V268.711C481.292 268.711 474.152 261.571 474.152 252.764V233.192Z" fill="#D9D9D9"/>
</mask>
<g mask="url(#mask22_6258_101758)">
<path fill-rule="evenodd" clip-rule="evenodd" d="M483.116 250.434C483.116 250.434 483.116 250.434 483.116 250.434C483.117 250.434 483.117 250.434 483.118 250.433C483.117 250.434 483.117 250.434 483.116 250.434ZM495.299 249.461L494.402 250.268L495.497 250.777C500.299 253.007 503.548 257.804 503.548 263.276C503.548 264.666 503.002 266.9 502.069 268.788C501.605 269.726 501.069 270.531 500.501 271.089C499.929 271.651 499.394 271.9 498.912 271.9H480.799C480.316 271.9 479.781 271.651 479.21 271.089C478.641 270.531 478.105 269.726 477.642 268.788C476.709 266.9 476.162 264.666 476.162 263.276C476.162 257.804 479.411 253.007 484.214 250.777L485.309 250.268L484.411 249.461C482.743 247.959 481.596 245.811 481.596 243.352C481.596 238.72 485.224 235.093 489.855 235.093C494.487 235.093 498.115 238.72 498.115 243.352C498.115 245.811 496.968 247.959 495.299 249.461ZM489.855 237.12C486.336 237.12 483.624 239.832 483.624 243.352C483.624 246.871 486.336 249.583 489.855 249.583C493.375 249.583 496.087 246.871 496.087 243.352C496.087 239.832 493.375 237.12 489.855 237.12ZM480.799 269.872H498.912C499.355 269.872 499.68 269.63 499.881 269.418C500.085 269.202 500.245 268.931 500.372 268.667C500.629 268.133 500.837 267.446 501 266.77C501.325 265.422 501.521 263.905 501.521 263.276C501.521 256.859 496.273 251.611 489.855 251.611C483.438 251.611 478.19 256.859 478.19 263.276C478.19 263.905 478.385 265.422 478.71 266.77C478.874 267.446 479.082 268.133 479.339 268.667C479.466 268.931 479.626 269.202 479.83 269.418C480.03 269.63 480.356 269.872 480.799 269.872Z" fill="#004357"/>
</g>
<mask id="mask23_6258_101758" style="mask-type:alpha" maskUnits="userSpaceOnUse" x="518" y="233" width="33" height="36">
<path d="M518.804 233.192H550.697V252.764C550.697 261.571 543.558 268.711 534.751 268.711V268.711C525.943 268.711 518.804 261.571 518.804 252.764V233.192Z" fill="#D9D9D9"/>
</mask>
<g mask="url(#mask23_6258_101758)">
<path fill-rule="evenodd" clip-rule="evenodd" d="M527.767 250.434C527.767 250.434 527.767 250.434 527.767 250.434C527.768 250.434 527.769 250.434 527.77 250.433C527.769 250.434 527.768 250.434 527.767 250.434ZM539.951 249.461L539.053 250.268L540.148 250.777C544.951 253.007 548.2 257.804 548.2 263.276C548.2 264.666 547.653 266.9 546.72 268.788C546.257 269.726 545.721 270.531 545.152 271.089C544.581 271.651 544.046 271.9 543.563 271.9H525.45C524.968 271.9 524.433 271.651 523.861 271.089C523.293 270.531 522.757 269.726 522.293 268.788C521.36 266.9 520.813 264.666 520.813 263.276C520.813 257.804 524.062 253.007 528.865 250.777L529.96 250.268L529.063 249.461C527.394 247.959 526.247 245.811 526.247 243.352C526.247 238.72 529.875 235.093 534.507 235.093C539.138 235.093 542.766 238.72 542.766 243.352C542.766 245.811 541.619 247.959 539.951 249.461ZM534.507 237.12C530.987 237.12 528.275 239.832 528.275 243.352C528.275 246.871 530.987 249.583 534.507 249.583C538.026 249.583 540.738 246.871 540.738 243.352C540.738 239.832 538.026 237.12 534.507 237.12ZM525.45 269.872H543.563C544.006 269.872 544.332 269.63 544.532 269.418C544.736 269.202 544.896 268.931 545.023 268.667C545.28 268.133 545.488 267.446 545.652 266.77C545.977 265.422 546.172 263.905 546.172 263.276C546.172 256.859 540.924 251.611 534.507 251.611C528.089 251.611 522.841 256.859 522.841 263.276C522.841 263.905 523.036 265.422 523.362 266.77C523.525 267.446 523.733 268.133 523.99 268.667C524.117 268.931 524.277 269.202 524.481 269.418C524.682 269.63 525.007 269.872 525.45 269.872Z" fill="#004357"/>
</g>
<mask id="mask24_6258_101758" style="mask-type:alpha" maskUnits="userSpaceOnUse" x="563" y="233" width="33" height="36">
<path d="M563.455 233.192H595.349V252.764C595.349 261.571 588.209 268.711 579.402 268.711V268.711C570.595 268.711 563.455 261.571 563.455 252.764V233.192Z" fill="#D9D9D9"/>
</mask>
<g mask="url(#mask24_6258_101758)">
<path fill-rule="evenodd" clip-rule="evenodd" d="M572.419 250.434C572.419 250.434 572.419 250.434 572.419 250.434C572.419 250.434 572.42 250.434 572.421 250.433C572.42 250.434 572.419 250.434 572.419 250.434ZM584.602 249.461L583.705 250.268L584.8 250.777C589.602 253.007 592.851 257.804 592.851 263.276C592.851 264.666 592.304 266.9 591.371 268.788C590.908 269.726 590.372 270.531 589.804 271.089C589.232 271.651 588.697 271.9 588.215 271.9H570.101C569.619 271.9 569.084 271.651 568.512 271.089C567.944 270.531 567.408 269.726 566.945 268.788C566.012 266.9 565.465 264.666 565.465 263.276C565.465 257.804 568.714 253.007 573.516 250.777L574.611 250.268L573.714 249.461C572.045 247.959 570.899 245.811 570.899 243.352C570.899 238.72 574.527 235.093 579.158 235.093C583.789 235.093 587.417 238.72 587.417 243.352C587.417 245.811 586.271 247.959 584.602 249.461ZM579.158 237.12C575.638 237.12 572.927 239.832 572.927 243.352C572.927 246.871 575.638 249.583 579.158 249.583C582.678 249.583 585.389 246.871 585.389 243.352C585.389 239.832 582.678 237.12 579.158 237.12ZM570.101 269.872H588.215C588.658 269.872 588.983 269.63 589.184 269.418C589.388 269.202 589.547 268.931 589.675 268.667C589.932 268.133 590.14 267.446 590.303 266.77C590.628 265.422 590.823 263.905 590.823 263.276C590.823 256.859 585.576 251.611 579.158 251.611C572.74 251.611 567.493 256.859 567.493 263.276C567.493 263.905 567.688 265.422 568.013 266.77C568.176 267.446 568.384 268.133 568.641 268.667C568.769 268.931 568.928 269.202 569.132 269.418C569.333 269.63 569.658 269.872 570.101 269.872Z" fill="#004357"/>
</g>
<mask id="mask25_6258_101758" style="mask-type:alpha" maskUnits="userSpaceOnUse" x="608" y="233" width="32" height="36">
<path d="M608.106 233.192H640V252.764C640 261.571 632.86 268.711 624.053 268.711V268.711C615.246 268.711 608.106 261.571 608.106 252.764V233.192Z" fill="#D9D9D9"/>
</mask>
<g mask="url(#mask25_6258_101758)">
<path fill-rule="evenodd" clip-rule="evenodd" d="M617.07 250.434C617.07 250.434 617.07 250.434 617.07 250.434C617.071 250.434 617.071 250.434 617.072 250.433C617.071 250.434 617.071 250.434 617.07 250.434ZM629.253 249.461L628.356 250.268L629.451 250.777C634.254 253.007 637.503 257.804 637.503 263.276C637.503 264.666 636.956 266.9 636.023 268.788C635.559 269.726 635.024 270.531 634.455 271.089C633.883 271.651 633.349 271.9 632.866 271.9H614.753C614.27 271.9 613.735 271.651 613.164 271.089C612.595 270.531 612.059 269.726 611.596 268.788C610.663 266.9 610.116 264.666 610.116 263.276C610.116 257.804 613.365 253.007 618.168 250.777L619.263 250.268L618.365 249.461C616.697 247.959 615.55 245.811 615.55 243.352C615.55 238.72 619.178 235.093 623.809 235.093C628.441 235.093 632.069 238.72 632.069 243.352C632.069 245.811 630.922 247.959 629.253 249.461ZM623.809 237.12C620.29 237.12 617.578 239.832 617.578 243.352C617.578 246.871 620.29 249.583 623.809 249.583C627.329 249.583 630.041 246.871 630.041 243.352C630.041 239.832 627.329 237.12 623.809 237.12ZM614.753 269.872H632.866C633.309 269.872 633.634 269.63 633.835 269.418C634.039 269.202 634.199 268.931 634.326 268.667C634.583 268.133 634.791 267.446 634.954 266.77C635.28 265.422 635.475 263.905 635.475 263.276C635.475 256.859 630.227 251.611 623.809 251.611C617.392 251.611 612.144 256.859 612.144 263.276C612.144 263.905 612.339 265.422 612.665 266.77C612.828 267.446 613.036 268.133 613.293 268.667C613.42 268.931 613.58 269.202 613.784 269.418C613.984 269.63 614.31 269.872 614.753 269.872Z" fill="#004357"/>
</g>
<mask id="mask26_6258_101758" style="mask-type:alpha" maskUnits="userSpaceOnUse" x="295" y="281" width="33" height="36">
<path d="M295.548 281.468H327.442V301.039C327.442 309.846 320.302 316.986 311.495 316.986V316.986C302.687 316.986 295.548 309.847 295.548 301.039V281.468Z" fill="#D9D9D9"/>
</mask>
<g mask="url(#mask26_6258_101758)">
<path fill-rule="evenodd" clip-rule="evenodd" d="M304.511 298.71C304.511 298.71 304.511 298.71 304.511 298.71C304.512 298.71 304.513 298.709 304.514 298.709C304.513 298.709 304.512 298.71 304.511 298.71ZM316.695 297.737L315.797 298.544L316.892 299.052C321.695 301.282 324.944 306.079 324.944 311.552C324.944 312.942 324.397 315.176 323.464 317.064C323.001 318.002 322.465 318.806 321.897 319.365C321.325 319.927 320.79 320.175 320.307 320.175H302.194C301.712 320.175 301.177 319.927 300.605 319.365C300.037 318.806 299.501 318.002 299.037 317.064C298.105 315.176 297.558 312.942 297.558 311.552C297.558 306.079 300.807 301.282 305.609 299.052L306.704 298.544L305.807 297.737C304.138 296.235 302.992 294.086 302.992 291.627C302.992 286.996 306.619 283.368 311.251 283.368C315.882 283.368 319.51 286.996 319.51 291.627C319.51 294.086 318.363 296.235 316.695 297.737ZM311.251 285.396C307.731 285.396 305.02 288.108 305.02 291.627C305.02 295.147 307.731 297.859 311.251 297.859C314.77 297.859 317.482 295.147 317.482 291.627C317.482 288.108 314.77 285.396 311.251 285.396ZM302.194 318.147H320.307C320.751 318.147 321.076 317.905 321.277 317.693C321.48 317.478 321.64 317.207 321.767 316.943C322.024 316.409 322.232 315.722 322.396 315.045C322.721 313.697 322.916 312.181 322.916 311.552C322.916 305.134 317.668 299.887 311.251 299.887C304.833 299.887 299.586 305.134 299.586 311.552C299.586 312.181 299.781 313.697 300.106 315.045C300.269 315.722 300.477 316.409 300.734 316.943C300.862 317.207 301.021 317.478 301.225 317.693C301.426 317.905 301.751 318.147 302.194 318.147Z" fill="#004357"/>
</g>
<mask id="mask27_6258_101758" style="mask-type:alpha" maskUnits="userSpaceOnUse" x="340" y="281" width="33" height="36">
<path d="M340.199 281.468H372.093V301.039C372.093 309.846 364.953 316.986 356.146 316.986V316.986C347.339 316.986 340.199 309.847 340.199 301.039V281.468Z" fill="#D9D9D9"/>
</mask>
<g mask="url(#mask27_6258_101758)">
<path fill-rule="evenodd" clip-rule="evenodd" d="M349.163 298.71C349.163 298.71 349.163 298.71 349.163 298.71C349.164 298.71 349.164 298.709 349.165 298.709C349.164 298.709 349.164 298.71 349.163 298.71ZM361.346 297.737L360.449 298.544L361.544 299.052C366.346 301.282 369.595 306.079 369.595 311.552C369.595 312.942 369.048 315.176 368.116 317.064C367.652 318.002 367.116 318.806 366.548 319.365C365.976 319.927 365.441 320.175 364.959 320.175H346.846C346.363 320.175 345.828 319.927 345.256 319.365C344.688 318.806 344.152 318.002 343.689 317.064C342.756 315.176 342.209 312.942 342.209 311.552C342.209 306.079 345.458 301.282 350.261 299.052L351.355 298.544L350.458 297.737C348.789 296.235 347.643 294.086 347.643 291.627C347.643 286.996 351.271 283.368 355.902 283.368C360.533 283.368 364.161 286.996 364.161 291.627C364.161 294.086 363.015 296.235 361.346 297.737ZM355.902 285.396C352.383 285.396 349.671 288.108 349.671 291.627C349.671 295.147 352.383 297.859 355.902 297.859C359.422 297.859 362.133 295.147 362.133 291.627C362.133 288.108 359.422 285.396 355.902 285.396ZM346.846 318.147H364.959C365.402 318.147 365.727 317.905 365.928 317.693C366.132 317.478 366.291 317.207 366.419 316.943C366.676 316.409 366.884 315.722 367.047 315.045C367.372 313.697 367.567 312.181 367.567 311.552C367.567 305.134 362.32 299.887 355.902 299.887C349.484 299.887 344.237 305.134 344.237 311.552C344.237 312.181 344.432 313.697 344.757 315.045C344.921 315.722 345.129 316.409 345.386 316.943C345.513 317.207 345.672 317.478 345.876 317.693C346.077 317.905 346.402 318.147 346.846 318.147Z" fill="#004357"/>
</g>
<mask id="mask28_6258_101758" style="mask-type:alpha" maskUnits="userSpaceOnUse" x="384" y="281" width="33" height="36">
<path d="M384.851 281.468H416.744V301.039C416.744 309.846 409.605 316.986 400.797 316.986V316.986C391.99 316.986 384.851 309.847 384.851 301.039V281.468Z" fill="#D9D9D9"/>
</mask>
<g mask="url(#mask28_6258_101758)">
<path fill-rule="evenodd" clip-rule="evenodd" d="M393.814 298.71C393.814 298.71 393.814 298.71 393.814 298.71C393.815 298.71 393.816 298.709 393.816 298.709C393.816 298.709 393.815 298.71 393.814 298.71ZM405.997 297.737L405.1 298.544L406.195 299.052C410.998 301.282 414.247 306.079 414.247 311.552C414.247 312.942 413.7 315.176 412.767 317.064C412.303 318.002 411.768 318.806 411.199 319.365C410.628 319.927 410.093 320.175 409.61 320.175H391.497C391.014 320.175 390.479 319.927 389.908 319.365C389.339 318.806 388.804 318.002 388.34 317.064C387.407 315.176 386.86 312.942 386.86 311.552C386.86 306.079 390.109 301.282 394.912 299.052L396.007 298.544L395.11 297.737C393.441 296.235 392.294 294.086 392.294 291.627C392.294 286.996 395.922 283.368 400.554 283.368C405.185 283.368 408.813 286.996 408.813 291.627C408.813 294.086 407.666 296.235 405.997 297.737ZM400.554 285.396C397.034 285.396 394.322 288.108 394.322 291.627C394.322 295.147 397.034 297.859 400.554 297.859C404.073 297.859 406.785 295.147 406.785 291.627C406.785 288.108 404.073 285.396 400.554 285.396ZM391.497 318.147H409.61C410.053 318.147 410.379 317.905 410.579 317.693C410.783 317.478 410.943 317.207 411.07 316.943C411.327 316.409 411.535 315.722 411.698 315.045C412.024 313.697 412.219 312.181 412.219 311.552C412.219 305.134 406.971 299.887 400.554 299.887C394.136 299.887 388.888 305.134 388.888 311.552C388.888 312.181 389.083 313.697 389.409 315.045C389.572 315.722 389.78 316.409 390.037 316.943C390.164 317.207 390.324 317.478 390.528 317.693C390.728 317.905 391.054 318.147 391.497 318.147Z" fill="#004357"/>
</g>
<mask id="mask29_6258_101758" style="mask-type:alpha" maskUnits="userSpaceOnUse" x="429" y="281" width="33" height="36">
<path d="M429.502 281.468H461.396V301.039C461.396 309.846 454.256 316.986 445.449 316.986V316.986C436.642 316.986 429.502 309.847 429.502 301.039V281.468Z" fill="#D9D9D9"/>
</mask>
<g mask="url(#mask29_6258_101758)">
<path fill-rule="evenodd" clip-rule="evenodd" d="M438.465 298.71C438.465 298.71 438.465 298.71 438.465 298.71C438.466 298.71 438.467 298.709 438.468 298.709C438.467 298.709 438.466 298.71 438.465 298.71ZM450.649 297.737L449.752 298.544L450.846 299.052C455.649 301.282 458.898 306.079 458.898 311.552C458.898 312.942 458.351 315.176 457.418 317.064C456.955 318.002 456.419 318.806 455.851 319.365C455.279 319.927 454.744 320.175 454.261 320.175H436.148C435.666 320.175 435.131 319.927 434.559 319.365C433.991 318.806 433.455 318.002 432.991 317.064C432.059 315.176 431.512 312.942 431.512 311.552C431.512 306.079 434.761 301.282 439.563 299.052L440.658 298.544L439.761 297.737C438.092 296.235 436.946 294.086 436.946 291.627C436.946 286.996 440.574 283.368 445.205 283.368C449.836 283.368 453.464 286.996 453.464 291.627C453.464 294.086 452.318 296.235 450.649 297.737ZM445.205 285.396C441.685 285.396 438.974 288.108 438.974 291.627C438.974 295.147 441.685 297.859 445.205 297.859C448.724 297.859 451.436 295.147 451.436 291.627C451.436 288.108 448.724 285.396 445.205 285.396ZM436.148 318.147H454.261C454.705 318.147 455.03 317.905 455.231 317.693C455.435 317.478 455.594 317.207 455.721 316.943C455.978 316.409 456.187 315.722 456.35 315.045C456.675 313.697 456.87 312.181 456.87 311.552C456.87 305.134 451.623 299.887 445.205 299.887C438.787 299.887 433.54 305.134 433.54 311.552C433.54 312.181 433.735 313.697 434.06 315.045C434.223 315.722 434.431 316.409 434.688 316.943C434.816 317.207 434.975 317.478 435.179 317.693C435.38 317.905 435.705 318.147 436.148 318.147Z" fill="#004357"/>
</g>
<mask id="mask30_6258_101758" style="mask-type:alpha" maskUnits="userSpaceOnUse" x="474" y="281" width="33" height="36">
<path d="M474.152 281.468H506.046V301.039C506.046 309.846 498.906 316.986 490.099 316.986V316.986C481.292 316.986 474.152 309.847 474.152 301.039V281.468Z" fill="#D9D9D9"/>
</mask>
<g mask="url(#mask30_6258_101758)">
<path fill-rule="evenodd" clip-rule="evenodd" d="M483.116 298.71C483.116 298.71 483.116 298.71 483.116 298.71C483.117 298.71 483.117 298.709 483.118 298.709C483.117 298.709 483.117 298.71 483.116 298.71ZM495.299 297.737L494.402 298.544L495.497 299.052C500.299 301.282 503.548 306.079 503.548 311.552C503.548 312.942 503.002 315.176 502.069 317.064C501.605 318.002 501.069 318.806 500.501 319.365C499.929 319.927 499.394 320.175 498.912 320.175H480.799C480.316 320.175 479.781 319.927 479.21 319.365C478.641 318.806 478.105 318.002 477.642 317.064C476.709 315.176 476.162 312.942 476.162 311.552C476.162 306.079 479.411 301.282 484.214 299.052L485.309 298.544L484.411 297.737C482.743 296.235 481.596 294.086 481.596 291.627C481.596 286.996 485.224 283.368 489.855 283.368C494.487 283.368 498.115 286.996 498.115 291.627C498.115 294.086 496.968 296.235 495.299 297.737ZM489.855 285.396C486.336 285.396 483.624 288.108 483.624 291.627C483.624 295.147 486.336 297.859 489.855 297.859C493.375 297.859 496.087 295.147 496.087 291.627C496.087 288.108 493.375 285.396 489.855 285.396ZM480.799 318.147H498.912C499.355 318.147 499.68 317.905 499.881 317.693C500.085 317.478 500.245 317.207 500.372 316.943C500.629 316.409 500.837 315.722 501 315.045C501.325 313.697 501.521 312.181 501.521 311.552C501.521 305.134 496.273 299.887 489.855 299.887C483.438 299.887 478.19 305.134 478.19 311.552C478.19 312.181 478.385 313.697 478.71 315.045C478.874 315.722 479.082 316.409 479.339 316.943C479.466 317.207 479.626 317.478 479.83 317.693C480.03 317.905 480.356 318.147 480.799 318.147Z" fill="#004357"/>
</g>
<mask id="mask31_6258_101758" style="mask-type:alpha" maskUnits="userSpaceOnUse" x="518" y="281" width="33" height="36">
<path d="M518.804 281.468H550.697V301.039C550.697 309.846 543.558 316.986 534.751 316.986V316.986C525.943 316.986 518.804 309.847 518.804 301.039V281.468Z" fill="#D9D9D9"/>
</mask>
<g mask="url(#mask31_6258_101758)">
<path fill-rule="evenodd" clip-rule="evenodd" d="M527.767 298.71C527.767 298.71 527.767 298.71 527.767 298.71C527.768 298.71 527.769 298.709 527.77 298.709C527.769 298.709 527.768 298.71 527.767 298.71ZM539.951 297.737L539.053 298.544L540.148 299.052C544.951 301.282 548.2 306.079 548.2 311.552C548.2 312.942 547.653 315.176 546.72 317.064C546.257 318.002 545.721 318.806 545.152 319.365C544.581 319.927 544.046 320.175 543.563 320.175H525.45C524.968 320.175 524.433 319.927 523.861 319.365C523.293 318.806 522.757 318.002 522.293 317.064C521.36 315.176 520.813 312.942 520.813 311.552C520.813 306.079 524.062 301.282 528.865 299.052L529.96 298.544L529.063 297.737C527.394 296.235 526.247 294.086 526.247 291.627C526.247 286.996 529.875 283.368 534.507 283.368C539.138 283.368 542.766 286.996 542.766 291.627C542.766 294.086 541.619 296.235 539.951 297.737ZM534.507 285.396C530.987 285.396 528.275 288.108 528.275 291.627C528.275 295.147 530.987 297.859 534.507 297.859C538.026 297.859 540.738 295.147 540.738 291.627C540.738 288.108 538.026 285.396 534.507 285.396ZM525.45 318.147H543.563C544.006 318.147 544.332 317.905 544.532 317.693C544.736 317.478 544.896 317.207 545.023 316.943C545.28 316.409 545.488 315.722 545.652 315.045C545.977 313.697 546.172 312.181 546.172 311.552C546.172 305.134 540.924 299.887 534.507 299.887C528.089 299.887 522.841 305.134 522.841 311.552C522.841 312.181 523.036 313.697 523.362 315.045C523.525 315.722 523.733 316.409 523.99 316.943C524.117 317.207 524.277 317.478 524.481 317.693C524.682 317.905 525.007 318.147 525.45 318.147Z" fill="#004357"/>
</g>
<mask id="mask32_6258_101758" style="mask-type:alpha" maskUnits="userSpaceOnUse" x="563" y="281" width="33" height="36">
<path d="M563.455 281.468H595.349V301.039C595.349 309.846 588.209 316.986 579.402 316.986V316.986C570.595 316.986 563.455 309.847 563.455 301.039V281.468Z" fill="#D9D9D9"/>
</mask>
<g mask="url(#mask32_6258_101758)">
<path fill-rule="evenodd" clip-rule="evenodd" d="M572.419 298.71C572.419 298.71 572.419 298.71 572.419 298.71C572.419 298.71 572.42 298.709 572.421 298.709C572.42 298.709 572.419 298.71 572.419 298.71ZM584.602 297.737L583.705 298.544L584.8 299.052C589.602 301.282 592.851 306.079 592.851 311.552C592.851 312.942 592.304 315.176 591.371 317.064C590.908 318.002 590.372 318.806 589.804 319.365C589.232 319.927 588.697 320.175 588.215 320.175H570.101C569.619 320.175 569.084 319.927 568.512 319.365C567.944 318.806 567.408 318.002 566.945 317.064C566.012 315.176 565.465 312.942 565.465 311.552C565.465 306.079 568.714 301.282 573.516 299.052L574.611 298.544L573.714 297.737C572.045 296.235 570.899 294.086 570.899 291.627C570.899 286.996 574.527 283.368 579.158 283.368C583.789 283.368 587.417 286.996 587.417 291.627C587.417 294.086 586.271 296.235 584.602 297.737ZM579.158 285.396C575.638 285.396 572.927 288.108 572.927 291.627C572.927 295.147 575.638 297.859 579.158 297.859C582.678 297.859 585.389 295.147 585.389 291.627C585.389 288.108 582.678 285.396 579.158 285.396ZM570.101 318.147H588.215C588.658 318.147 588.983 317.905 589.184 317.693C589.388 317.478 589.547 317.207 589.675 316.943C589.932 316.409 590.14 315.722 590.303 315.045C590.628 313.697 590.823 312.181 590.823 311.552C590.823 305.134 585.576 299.887 579.158 299.887C572.74 299.887 567.493 305.134 567.493 311.552C567.493 312.181 567.688 313.697 568.013 315.045C568.176 315.722 568.384 316.409 568.641 316.943C568.769 317.207 568.928 317.478 569.132 317.693C569.333 317.905 569.658 318.147 570.101 318.147Z" fill="#004357"/>
</g>
<mask id="mask33_6258_101758" style="mask-type:alpha" maskUnits="userSpaceOnUse" x="608" y="281" width="32" height="36">
<path d="M608.106 281.468H640V301.039C640 309.846 632.86 316.986 624.053 316.986V316.986C615.246 316.986 608.106 309.847 608.106 301.039V281.468Z" fill="#D9D9D9"/>
</mask>
<g mask="url(#mask33_6258_101758)">
<path fill-rule="evenodd" clip-rule="evenodd" d="M617.07 298.71C617.07 298.71 617.07 298.71 617.07 298.71C617.071 298.71 617.071 298.709 617.072 298.709C617.071 298.709 617.071 298.71 617.07 298.71ZM629.253 297.737L628.356 298.544L629.451 299.052C634.254 301.282 637.503 306.079 637.503 311.552C637.503 312.942 636.956 315.176 636.023 317.064C635.559 318.002 635.024 318.806 634.455 319.365C633.883 319.927 633.349 320.175 632.866 320.175H614.753C614.27 320.175 613.735 319.927 613.164 319.365C612.595 318.806 612.059 318.002 611.596 317.064C610.663 315.176 610.116 312.942 610.116 311.552C610.116 306.079 613.365 301.282 618.168 299.052L619.263 298.544L618.365 297.737C616.697 296.235 615.55 294.086 615.55 291.627C615.55 286.996 619.178 283.368 623.809 283.368C628.441 283.368 632.069 286.996 632.069 291.627C632.069 294.086 630.922 296.235 629.253 297.737ZM623.809 285.396C620.29 285.396 617.578 288.108 617.578 291.627C617.578 295.147 620.29 297.859 623.809 297.859C627.329 297.859 630.041 295.147 630.041 291.627C630.041 288.108 627.329 285.396 623.809 285.396ZM614.753 318.147H632.866C633.309 318.147 633.634 317.905 633.835 317.693C634.039 317.478 634.199 317.207 634.326 316.943C634.583 316.409 634.791 315.722 634.954 315.045C635.28 313.697 635.475 312.181 635.475 311.552C635.475 305.134 630.227 299.887 623.809 299.887C617.392 299.887 612.144 305.134 612.144 311.552C612.144 312.181 612.339 313.697 612.665 315.045C612.828 315.722 613.036 316.409 613.293 316.943C613.42 317.207 613.58 317.478 613.784 317.693C613.984 317.905 614.31 318.147 614.753 318.147Z" fill="#004357"/>
</g>
<path d="M570.497 219.811C570.878 220.032 571.366 219.902 571.587 219.521L575.184 213.312C575.405 212.931 575.275 212.443 574.894 212.222C574.513 212.001 574.025 212.131 573.805 212.512L570.607 218.031L565.087 214.833C564.706 214.612 564.219 214.742 563.998 215.123C563.777 215.504 563.907 215.992 564.288 216.213L570.497 219.811ZM524.964 191.777C535.697 189.519 545.443 190.663 553.256 195.202C561.062 199.737 567.035 207.718 570.126 219.326L571.667 218.916C568.489 206.978 562.293 198.608 554.057 193.823C545.828 189.042 535.661 187.897 524.636 190.217L524.964 191.777Z" fill="#004357"/>
</svg>
