<svg width="720" height="317" viewBox="0 0 720 317" fill="none" xmlns="http://www.w3.org/2000/svg">
<mask id="mask0_6258_101303" style="mask-type:alpha" maskUnits="userSpaceOnUse" x="0" y="62" width="33" height="36">
<path d="M0.797852 62.1926H32.6915V81.7639C32.6915 90.5711 25.5519 97.7108 16.7447 97.7108V97.7108C7.9375 97.7108 0.797852 90.5711 0.797852 81.7639V62.1926Z" fill="#D9D9D9"/>
</mask>
<g mask="url(#mask0_6258_101303)">
<path fill-rule="evenodd" clip-rule="evenodd" d="M9.76138 79.4346C9.76138 79.4346 9.76138 79.4346 9.76138 79.4346C9.76214 79.4342 9.7629 79.4338 9.76366 79.4333C9.7629 79.4338 9.76214 79.4342 9.76138 79.4346ZM21.9447 78.4612L21.0475 79.2687L22.1424 79.7771C26.9449 82.0068 30.194 86.804 30.194 92.2765C30.194 93.6663 29.647 95.9005 28.7142 97.7883C28.2507 98.7262 27.7149 99.5308 27.1465 100.09C26.5749 100.651 26.0399 100.9 25.5574 100.9H7.44422C6.96165 100.9 6.42668 100.651 5.85505 100.09C5.28667 99.5308 4.75086 98.7262 4.28737 97.7883C3.35454 95.9005 2.80762 93.6663 2.80762 92.2765C2.80762 86.804 6.05664 82.0068 10.8592 79.7771L11.9541 79.2687L11.0568 78.4612C9.38808 76.9593 8.24156 74.8108 8.24156 72.352C8.24156 67.7207 11.8695 64.0928 16.5008 64.0928C21.1321 64.0928 24.76 67.7207 24.76 72.352C24.76 74.8108 23.6135 76.9593 21.9447 78.4612ZM16.5008 66.1207C12.9812 66.1207 10.2695 68.8324 10.2695 72.352C10.2695 75.8716 12.9812 78.5833 16.5008 78.5833C20.0204 78.5833 22.7321 75.8716 22.7321 72.352C22.7321 68.8324 20.0204 66.1207 16.5008 66.1207ZM7.44422 98.8718H25.5574C26.0005 98.8718 26.3258 98.63 26.5266 98.4177C26.7305 98.2021 26.8901 97.9316 27.0173 97.6672C27.2744 97.1331 27.4824 96.4465 27.6457 95.77C27.9709 94.422 28.166 92.9055 28.166 92.2765C28.166 85.8588 22.9185 80.6112 16.5008 80.6112C10.0831 80.6112 4.83556 85.8588 4.83556 92.2765C4.83556 92.9055 5.03064 94.422 5.35592 95.77C5.51914 96.4465 5.72722 97.1331 5.98425 97.6672C6.11152 97.9316 6.27111 98.2021 6.47501 98.4177C6.67573 98.63 7.00106 98.8718 7.44422 98.8718Z" fill="#004357"/>
</g>
<mask id="mask1_6258_101303" style="mask-type:alpha" maskUnits="userSpaceOnUse" x="45" y="62" width="33" height="36">
<path d="M45.4492 62.1926H77.3429V81.7639C77.3429 90.5711 70.2033 97.7108 61.3961 97.7108V97.7108C52.5889 97.7108 45.4492 90.5711 45.4492 81.7639V62.1926Z" fill="#D9D9D9"/>
</mask>
<g mask="url(#mask1_6258_101303)">
<path fill-rule="evenodd" clip-rule="evenodd" d="M54.4127 79.4346C54.4127 79.4346 54.4127 79.4346 54.4128 79.4346C54.4135 79.4342 54.4143 79.4338 54.415 79.4333C54.4143 79.4338 54.4135 79.4342 54.4127 79.4346ZM66.5961 78.4612L65.6988 79.2687L66.7937 79.7771C71.5963 82.0068 74.8453 86.804 74.8453 92.2765C74.8453 93.6663 74.2984 95.9005 73.3656 97.7883C72.9021 98.7262 72.3663 99.5308 71.7979 100.09C71.2263 100.651 70.6913 100.9 70.2087 100.9H52.0956C51.613 100.9 51.078 100.651 50.5064 100.09C49.938 99.5308 49.4022 98.7262 48.9387 97.7883C48.0059 95.9005 47.459 93.6663 47.459 92.2765C47.459 86.804 50.708 82.0068 55.5106 79.7771L56.6055 79.2687L55.7082 78.4612C54.0394 76.9593 52.8929 74.8108 52.8929 72.352C52.8929 67.7207 56.5208 64.0928 61.1522 64.0928C65.7835 64.0928 69.4114 67.7207 69.4114 72.352C69.4114 74.8108 68.2649 76.9593 66.5961 78.4612ZM61.1522 66.1207C57.6326 66.1207 54.9209 68.8324 54.9209 72.352C54.9209 75.8716 57.6326 78.5833 61.1522 78.5833C64.6717 78.5833 67.3834 75.8716 67.3834 72.352C67.3834 68.8324 64.6717 66.1207 61.1522 66.1207ZM52.0956 98.8718H70.2087C70.6519 98.8718 70.9772 98.63 71.1779 98.4177C71.3818 98.2021 71.5414 97.9316 71.6687 97.6672C71.9257 97.1331 72.1338 96.4465 72.297 95.77C72.6223 94.422 72.8174 92.9055 72.8174 92.2765C72.8174 85.8588 67.5699 80.6112 61.1522 80.6112C54.7345 80.6112 49.4869 85.8588 49.4869 92.2765C49.4869 92.9055 49.682 94.422 50.0073 95.77C50.1705 96.4465 50.3786 97.1331 50.6356 97.6672C50.7629 97.9316 50.9225 98.2021 51.1264 98.4177C51.3271 98.63 51.6524 98.8718 52.0956 98.8718Z" fill="#004357"/>
</g>
<mask id="mask2_6258_101303" style="mask-type:alpha" maskUnits="userSpaceOnUse" x="90" y="62" width="32" height="36">
<path d="M90.1006 62.1926H121.994V81.7639C121.994 90.5711 114.855 97.7108 106.047 97.7108V97.7108C97.2402 97.7108 90.1006 90.5711 90.1006 81.7639V62.1926Z" fill="#D9D9D9"/>
</mask>
<g mask="url(#mask2_6258_101303)">
<path fill-rule="evenodd" clip-rule="evenodd" d="M99.0641 79.4346C99.0641 79.4346 99.0641 79.4346 99.0641 79.4346C99.0649 79.4342 99.0656 79.4338 99.0664 79.4333C99.0656 79.4338 99.0649 79.4342 99.0641 79.4346ZM111.247 78.4612L110.35 79.2687L111.445 79.7771C116.248 82.0068 119.497 86.804 119.497 92.2765C119.497 93.6663 118.95 95.9005 118.017 97.7883C117.553 98.7262 117.018 99.5308 116.449 100.09C115.878 100.651 115.343 100.9 114.86 100.9H96.747C96.2644 100.9 95.7294 100.651 95.1578 100.09C94.5894 99.5308 94.0536 98.7262 93.5901 97.7883C92.6573 95.9005 92.1104 93.6663 92.1104 92.2765C92.1104 86.804 95.3594 82.0068 100.162 79.7771L101.257 79.2687L100.36 78.4612C98.6908 76.9593 97.5443 74.8108 97.5443 72.352C97.5443 67.7207 101.172 64.0928 105.804 64.0928C110.435 64.0928 114.063 67.7207 114.063 72.352C114.063 74.8108 112.916 76.9593 111.247 78.4612ZM105.804 66.1207C102.284 66.1207 99.5722 68.8324 99.5722 72.352C99.5722 75.8716 102.284 78.5833 105.804 78.5833C109.323 78.5833 112.035 75.8716 112.035 72.352C112.035 68.8324 109.323 66.1207 105.804 66.1207ZM96.747 98.8718H114.86C115.303 98.8718 115.629 98.63 115.829 98.4177C116.033 98.2021 116.193 97.9316 116.32 97.6672C116.577 97.1331 116.785 96.4465 116.948 95.77C117.274 94.422 117.469 92.9055 117.469 92.2765C117.469 85.8588 112.221 80.6112 105.804 80.6112C99.3858 80.6112 94.1383 85.8588 94.1383 92.2765C94.1383 92.9055 94.3334 94.422 94.6587 95.77C94.8219 96.4465 95.03 97.1331 95.287 97.6672C95.4143 97.9316 95.5738 98.2021 95.7777 98.4177C95.9785 98.63 96.3038 98.8718 96.747 98.8718Z" fill="#004357"/>
</g>
<mask id="mask3_6258_101303" style="mask-type:alpha" maskUnits="userSpaceOnUse" x="134" y="62" width="33" height="36">
<path d="M134.751 62.1926H166.645V81.7639C166.645 90.5711 159.505 97.7108 150.698 97.7108V97.7108C141.891 97.7108 134.751 90.5711 134.751 81.7639V62.1926Z" fill="#D9D9D9"/>
</mask>
<g mask="url(#mask3_6258_101303)">
<path fill-rule="evenodd" clip-rule="evenodd" d="M143.715 79.4346C143.715 79.4346 143.715 79.4346 143.715 79.4346C143.715 79.4342 143.716 79.4338 143.717 79.4333C143.716 79.4338 143.715 79.4342 143.715 79.4346ZM155.898 78.4612L155.001 79.2687L156.095 79.7771C160.898 82.0068 164.147 86.804 164.147 92.2765C164.147 93.6663 163.6 95.9005 162.667 97.7883C162.204 98.7262 161.668 99.5308 161.1 100.09C160.528 100.651 159.993 100.9 159.51 100.9H141.397C140.915 100.9 140.38 100.651 139.808 100.09C139.24 99.5308 138.704 98.7262 138.24 97.7883C137.308 95.9005 136.761 93.6663 136.761 92.2765C136.761 86.804 140.01 82.0068 144.812 79.7771L145.907 79.2687L145.01 78.4612C143.341 76.9593 142.195 74.8108 142.195 72.352C142.195 67.7207 145.823 64.0928 150.454 64.0928C155.085 64.0928 158.713 67.7207 158.713 72.352C158.713 74.8108 157.567 76.9593 155.898 78.4612ZM150.454 66.1207C146.934 66.1207 144.223 68.8324 144.223 72.352C144.223 75.8716 146.934 78.5833 150.454 78.5833C153.974 78.5833 156.685 75.8716 156.685 72.352C156.685 68.8324 153.974 66.1207 150.454 66.1207ZM141.397 98.8718H159.51C159.954 98.8718 160.279 98.63 160.48 98.4177C160.684 98.2021 160.843 97.9316 160.97 97.6672C161.227 97.1331 161.436 96.4465 161.599 95.77C161.924 94.422 162.119 92.9055 162.119 92.2765C162.119 85.8588 156.872 80.6112 150.454 80.6112C144.036 80.6112 138.789 85.8588 138.789 92.2765C138.789 92.9055 138.984 94.422 139.309 95.77C139.472 96.4465 139.68 97.1331 139.937 97.6672C140.065 97.9316 140.224 98.2021 140.428 98.4177C140.629 98.63 140.954 98.8718 141.397 98.8718Z" fill="#004357"/>
</g>
<mask id="mask4_6258_101303" style="mask-type:alpha" maskUnits="userSpaceOnUse" x="179" y="62" width="33" height="36">
<path d="M179.402 62.1926H211.296V81.7639C211.296 90.5711 204.156 97.7108 195.349 97.7108V97.7108C186.542 97.7108 179.402 90.5711 179.402 81.7639V62.1926Z" fill="#D9D9D9"/>
</mask>
<g mask="url(#mask4_6258_101303)">
<path fill-rule="evenodd" clip-rule="evenodd" d="M188.366 79.4346C188.366 79.4346 188.366 79.4346 188.366 79.4346C188.367 79.4342 188.367 79.4338 188.368 79.4333C188.367 79.4338 188.367 79.4342 188.366 79.4346ZM200.549 78.4612L199.652 79.2687L200.747 79.7771C205.549 82.0068 208.798 86.804 208.798 92.2765C208.798 93.6663 208.252 95.9005 207.319 97.7883C206.855 98.7262 206.319 99.5308 205.751 100.09C205.179 100.651 204.644 100.9 204.162 100.9H186.049C185.566 100.9 185.031 100.651 184.46 100.09C183.891 99.5308 183.355 98.7262 182.892 97.7883C181.959 95.9005 181.412 93.6663 181.412 92.2765C181.412 86.804 184.661 82.0068 189.464 79.7771L190.559 79.2687L189.661 78.4612C187.993 76.9593 186.846 74.8108 186.846 72.352C186.846 67.7207 190.474 64.0928 195.105 64.0928C199.737 64.0928 203.365 67.7207 203.365 72.352C203.365 74.8108 202.218 76.9593 200.549 78.4612ZM195.105 66.1207C191.586 66.1207 188.874 68.8324 188.874 72.352C188.874 75.8716 191.586 78.5833 195.105 78.5833C198.625 78.5833 201.337 75.8716 201.337 72.352C201.337 68.8324 198.625 66.1207 195.105 66.1207ZM186.049 98.8718H204.162C204.605 98.8718 204.93 98.63 205.131 98.4177C205.335 98.2021 205.495 97.9316 205.622 97.6672C205.879 97.1331 206.087 96.4465 206.25 95.77C206.575 94.422 206.771 92.9055 206.771 92.2765C206.771 85.8588 201.523 80.6112 195.105 80.6112C188.688 80.6112 183.44 85.8588 183.44 92.2765C183.44 92.9055 183.635 94.422 183.96 95.77C184.124 96.4465 184.332 97.1331 184.589 97.6672C184.716 97.9316 184.876 98.2021 185.08 98.4177C185.28 98.63 185.606 98.8718 186.049 98.8718Z" fill="#004357"/>
</g>
<mask id="mask5_6258_101303" style="mask-type:alpha" maskUnits="userSpaceOnUse" x="224" y="62" width="32" height="36">
<path d="M224.054 62.1926H255.947V81.7639C255.947 90.5711 248.808 97.7108 240.001 97.7108V97.7108C231.193 97.7108 224.054 90.5711 224.054 81.7639V62.1926Z" fill="#D9D9D9"/>
</mask>
<g mask="url(#mask5_6258_101303)">
<path fill-rule="evenodd" clip-rule="evenodd" d="M233.017 79.4346C233.017 79.4346 233.017 79.4346 233.017 79.4346C233.018 79.4342 233.019 79.4338 233.02 79.4333C233.019 79.4338 233.018 79.4342 233.017 79.4346ZM245.201 78.4612L244.303 79.2687L245.398 79.7771C250.201 82.0068 253.45 86.804 253.45 92.2765C253.45 93.6663 252.903 95.9005 251.97 97.7883C251.507 98.7262 250.971 99.5308 250.402 100.09C249.831 100.651 249.296 100.9 248.813 100.9H230.7C230.218 100.9 229.683 100.651 229.111 100.09C228.543 99.5308 228.007 98.7262 227.543 97.7883C226.61 95.9005 226.063 93.6663 226.063 92.2765C226.063 86.804 229.312 82.0068 234.115 79.7771L235.21 79.2687L234.313 78.4612C232.644 76.9593 231.497 74.8108 231.497 72.352C231.497 67.7207 235.125 64.0928 239.757 64.0928C244.388 64.0928 248.016 67.7207 248.016 72.352C248.016 74.8108 246.869 76.9593 245.201 78.4612ZM239.757 66.1207C236.237 66.1207 233.525 68.8324 233.525 72.352C233.525 75.8716 236.237 78.5833 239.757 78.5833C243.276 78.5833 245.988 75.8716 245.988 72.352C245.988 68.8324 243.276 66.1207 239.757 66.1207ZM230.7 98.8718H248.813C249.256 98.8718 249.582 98.63 249.782 98.4177C249.986 98.2021 250.146 97.9316 250.273 97.6672C250.53 97.1331 250.738 96.4465 250.902 95.77C251.227 94.422 251.422 92.9055 251.422 92.2765C251.422 85.8588 246.174 80.6112 239.757 80.6112C233.339 80.6112 228.091 85.8588 228.091 92.2765C228.091 92.9055 228.286 94.422 228.612 95.77C228.775 96.4465 228.983 97.1331 229.24 97.6672C229.367 97.9316 229.527 98.2021 229.731 98.4177C229.932 98.63 230.257 98.8718 230.7 98.8718Z" fill="#004357"/>
</g>
<mask id="mask6_6258_101303" style="mask-type:alpha" maskUnits="userSpaceOnUse" x="268" y="62" width="33" height="36">
<path d="M268.705 62.1926H300.599V81.7639C300.599 90.5711 293.459 97.7108 284.652 97.7108V97.7108C275.845 97.7108 268.705 90.5711 268.705 81.7639V62.1926Z" fill="#D9D9D9"/>
</mask>
<g mask="url(#mask6_6258_101303)">
<path fill-rule="evenodd" clip-rule="evenodd" d="M277.669 79.4346C277.669 79.4346 277.669 79.4346 277.669 79.4346C277.669 79.4342 277.67 79.4338 277.671 79.4333C277.67 79.4338 277.669 79.4342 277.669 79.4346ZM289.852 78.4612L288.955 79.2687L290.05 79.7771C294.852 82.0068 298.101 86.804 298.101 92.2765C298.101 93.6663 297.554 95.9005 296.621 97.7883C296.158 98.7262 295.622 99.5308 295.054 100.09C294.482 100.651 293.947 100.9 293.465 100.9H275.351C274.869 100.9 274.334 100.651 273.762 100.09C273.194 99.5308 272.658 98.7262 272.195 97.7883C271.262 95.9005 270.715 93.6663 270.715 92.2765C270.715 86.804 273.964 82.0068 278.766 79.7771L279.861 79.2687L278.964 78.4612C277.295 76.9593 276.149 74.8108 276.149 72.352C276.149 67.7207 279.777 64.0928 284.408 64.0928C289.039 64.0928 292.667 67.7207 292.667 72.352C292.667 74.8108 291.521 76.9593 289.852 78.4612ZM284.408 66.1207C280.888 66.1207 278.177 68.8324 278.177 72.352C278.177 75.8716 280.888 78.5833 284.408 78.5833C287.928 78.5833 290.639 75.8716 290.639 72.352C290.639 68.8324 287.928 66.1207 284.408 66.1207ZM275.351 98.8718H293.465C293.908 98.8718 294.233 98.63 294.434 98.4177C294.638 98.2021 294.797 97.9316 294.925 97.6672C295.182 97.1331 295.39 96.4465 295.553 95.77C295.878 94.422 296.073 92.9055 296.073 92.2765C296.073 85.8588 290.826 80.6112 284.408 80.6112C277.99 80.6112 272.743 85.8588 272.743 92.2765C272.743 92.9055 272.938 94.422 273.263 95.77C273.426 96.4465 273.634 97.1331 273.891 97.6672C274.019 97.9316 274.178 98.2021 274.382 98.4177C274.583 98.63 274.908 98.8718 275.351 98.8718Z" fill="#004357"/>
</g>
<mask id="mask7_6258_101303" style="mask-type:alpha" maskUnits="userSpaceOnUse" x="313" y="62" width="33" height="36">
<path d="M313.355 62.1926H345.249V81.7639C345.249 90.5711 338.11 97.7108 329.302 97.7108V97.7108C320.495 97.7108 313.355 90.5711 313.355 81.7639V62.1926Z" fill="#D9D9D9"/>
</mask>
<g mask="url(#mask7_6258_101303)">
<path fill-rule="evenodd" clip-rule="evenodd" d="M322.319 79.4346C322.319 79.4346 322.319 79.4346 322.319 79.4346C322.32 79.4342 322.321 79.4338 322.321 79.4333C322.321 79.4338 322.32 79.4342 322.319 79.4346ZM334.502 78.4612L333.605 79.2687L334.7 79.7771C339.503 82.0068 342.752 86.804 342.752 92.2765C342.752 93.6663 342.205 95.9005 341.272 97.7883C340.808 98.7262 340.273 99.5308 339.704 100.09C339.133 100.651 338.598 100.9 338.115 100.9H320.002C319.519 100.9 318.984 100.651 318.413 100.09C317.844 99.5308 317.308 98.7262 316.845 97.7883C315.912 95.9005 315.365 93.6663 315.365 92.2765C315.365 86.804 318.614 82.0068 323.417 79.7771L324.512 79.2687L323.614 78.4612C321.946 76.9593 320.799 74.8108 320.799 72.352C320.799 67.7207 324.427 64.0928 329.058 64.0928C333.69 64.0928 337.318 67.7207 337.318 72.352C337.318 74.8108 336.171 76.9593 334.502 78.4612ZM329.058 66.1207C325.539 66.1207 322.827 68.8324 322.827 72.352C322.827 75.8716 325.539 78.5833 329.058 78.5833C332.578 78.5833 335.29 75.8716 335.29 72.352C335.29 68.8324 332.578 66.1207 329.058 66.1207ZM320.002 98.8718H338.115C338.558 98.8718 338.883 98.63 339.084 98.4177C339.288 98.2021 339.448 97.9316 339.575 97.6672C339.832 97.1331 340.04 96.4465 340.203 95.77C340.529 94.422 340.724 92.9055 340.724 92.2765C340.724 85.8588 335.476 80.6112 329.058 80.6112C322.641 80.6112 317.393 85.8588 317.393 92.2765C317.393 92.9055 317.588 94.422 317.914 95.77C318.077 96.4465 318.285 97.1331 318.542 97.6672C318.669 97.9316 318.829 98.2021 319.033 98.4177C319.233 98.63 319.559 98.8718 320.002 98.8718Z" fill="#004357"/>
</g>
<mask id="mask8_6258_101303" style="mask-type:alpha" maskUnits="userSpaceOnUse" x="358" y="62" width="32" height="36">
<path d="M358.007 62.1926H389.901V81.7639C389.901 90.5711 382.761 97.7108 373.954 97.7108V97.7108C365.146 97.7108 358.007 90.5711 358.007 81.7639V62.1926Z" fill="#D9D9D9"/>
</mask>
<g mask="url(#mask8_6258_101303)">
<path fill-rule="evenodd" clip-rule="evenodd" d="M366.97 79.4346C366.97 79.4346 366.97 79.4346 366.97 79.4346C366.971 79.4342 366.972 79.4338 366.973 79.4333C366.972 79.4338 366.971 79.4342 366.97 79.4346ZM379.154 78.4612L378.256 79.2687L379.351 79.7771C384.154 82.0068 387.403 86.804 387.403 92.2765C387.403 93.6663 386.856 95.9005 385.923 97.7883C385.46 98.7262 384.924 99.5308 384.356 100.09C383.784 100.651 383.249 100.9 382.766 100.9H364.653C364.171 100.9 363.636 100.651 363.064 100.09C362.496 99.5308 361.96 98.7262 361.496 97.7883C360.564 95.9005 360.017 93.6663 360.017 92.2765C360.017 86.804 363.266 82.0068 368.068 79.7771L369.163 79.2687L368.266 78.4612C366.597 76.9593 365.451 74.8108 365.451 72.352C365.451 67.7207 369.078 64.0928 373.71 64.0928C378.341 64.0928 381.969 67.7207 381.969 72.352C381.969 74.8108 380.822 76.9593 379.154 78.4612ZM373.71 66.1207C370.19 66.1207 367.478 68.8324 367.478 72.352C367.478 75.8716 370.19 78.5833 373.71 78.5833C377.229 78.5833 379.941 75.8716 379.941 72.352C379.941 68.8324 377.229 66.1207 373.71 66.1207ZM364.653 98.8718H382.766C383.209 98.8718 383.535 98.63 383.736 98.4177C383.939 98.2021 384.099 97.9316 384.226 97.6672C384.483 97.1331 384.691 96.4465 384.855 95.77C385.18 94.422 385.375 92.9055 385.375 92.2765C385.375 85.8588 380.127 80.6112 373.71 80.6112C367.292 80.6112 362.045 85.8588 362.045 92.2765C362.045 92.9055 362.24 94.422 362.565 95.77C362.728 96.4465 362.936 97.1331 363.193 97.6672C363.321 97.9316 363.48 98.2021 363.684 98.4177C363.885 98.63 364.21 98.8718 364.653 98.8718Z" fill="#004357"/>
</g>
<mask id="mask9_6258_101303" style="mask-type:alpha" maskUnits="userSpaceOnUse" x="0" y="110" width="33" height="36">
<path d="M0.797852 110.468H32.6915V130.04C32.6915 138.847 25.5519 145.986 16.7447 145.986V145.986C7.9375 145.986 0.797852 138.847 0.797852 130.04V110.468Z" fill="#D9D9D9"/>
</mask>
<g mask="url(#mask9_6258_101303)">
<path fill-rule="evenodd" clip-rule="evenodd" d="M9.76138 127.71C9.76138 127.71 9.76138 127.71 9.76138 127.71C9.76214 127.71 9.7629 127.709 9.76366 127.709C9.7629 127.709 9.76214 127.71 9.76138 127.71ZM21.9447 126.737L21.0475 127.544L22.1424 128.053C26.9449 130.282 30.194 135.08 30.194 140.552C30.194 141.942 29.647 144.176 28.7142 146.064C28.2507 147.002 27.7149 147.806 27.1465 148.365C26.5749 148.927 26.0399 149.175 25.5574 149.175H7.44422C6.96165 149.175 6.42668 148.927 5.85505 148.365C5.28667 147.806 4.75086 147.002 4.28737 146.064C3.35454 144.176 2.80762 141.942 2.80762 140.552C2.80762 135.08 6.05664 130.282 10.8592 128.053L11.9541 127.544L11.0568 126.737C9.38808 125.235 8.24156 123.086 8.24156 120.628C8.24156 115.996 11.8695 112.368 16.5008 112.368C21.1321 112.368 24.76 115.996 24.76 120.628C24.76 123.086 23.6135 125.235 21.9447 126.737ZM16.5008 114.396C12.9812 114.396 10.2695 117.108 10.2695 120.628C10.2695 124.147 12.9812 126.859 16.5008 126.859C20.0204 126.859 22.7321 124.147 22.7321 120.628C22.7321 117.108 20.0204 114.396 16.5008 114.396ZM7.44422 147.147H25.5574C26.0005 147.147 26.3258 146.906 26.5266 146.693C26.7305 146.478 26.8901 146.207 27.0173 145.943C27.2744 145.409 27.4824 144.722 27.6457 144.046C27.9709 142.698 28.166 141.181 28.166 140.552C28.166 134.134 22.9185 128.887 16.5008 128.887C10.0831 128.887 4.83556 134.134 4.83556 140.552C4.83556 141.181 5.03064 142.698 5.35592 144.046C5.51914 144.722 5.72722 145.409 5.98425 145.943C6.11152 146.207 6.27111 146.478 6.47501 146.693C6.67573 146.906 7.00106 147.147 7.44422 147.147Z" fill="#004357"/>
</g>
<mask id="mask10_6258_101303" style="mask-type:alpha" maskUnits="userSpaceOnUse" x="45" y="110" width="33" height="36">
<path d="M45.4492 110.468H77.3429V130.04C77.3429 138.847 70.2033 145.986 61.3961 145.986V145.986C52.5889 145.986 45.4492 138.847 45.4492 130.04V110.468Z" fill="#D9D9D9"/>
</mask>
<g mask="url(#mask10_6258_101303)">
<path fill-rule="evenodd" clip-rule="evenodd" d="M54.4127 127.71C54.4127 127.71 54.4127 127.71 54.4128 127.71C54.4135 127.71 54.4143 127.709 54.415 127.709C54.4143 127.709 54.4135 127.71 54.4127 127.71ZM66.5961 126.737L65.6988 127.544L66.7937 128.053C71.5963 130.282 74.8453 135.08 74.8453 140.552C74.8453 141.942 74.2984 144.176 73.3656 146.064C72.9021 147.002 72.3663 147.806 71.7979 148.365C71.2263 148.927 70.6913 149.175 70.2087 149.175H52.0956C51.613 149.175 51.078 148.927 50.5064 148.365C49.938 147.806 49.4022 147.002 48.9387 146.064C48.0059 144.176 47.459 141.942 47.459 140.552C47.459 135.08 50.708 130.282 55.5106 128.053L56.6055 127.544L55.7082 126.737C54.0394 125.235 52.8929 123.086 52.8929 120.628C52.8929 115.996 56.5208 112.368 61.1522 112.368C65.7835 112.368 69.4114 115.996 69.4114 120.628C69.4114 123.086 68.2649 125.235 66.5961 126.737ZM61.1522 114.396C57.6326 114.396 54.9209 117.108 54.9209 120.628C54.9209 124.147 57.6326 126.859 61.1522 126.859C64.6717 126.859 67.3834 124.147 67.3834 120.628C67.3834 117.108 64.6717 114.396 61.1522 114.396ZM52.0956 147.147H70.2087C70.6519 147.147 70.9772 146.906 71.1779 146.693C71.3818 146.478 71.5414 146.207 71.6687 145.943C71.9257 145.409 72.1338 144.722 72.297 144.046C72.6223 142.698 72.8174 141.181 72.8174 140.552C72.8174 134.134 67.5699 128.887 61.1522 128.887C54.7345 128.887 49.4869 134.134 49.4869 140.552C49.4869 141.181 49.682 142.698 50.0073 144.046C50.1705 144.722 50.3786 145.409 50.6356 145.943C50.7629 146.207 50.9225 146.478 51.1264 146.693C51.3271 146.906 51.6524 147.147 52.0956 147.147Z" fill="#004357"/>
</g>
<mask id="mask11_6258_101303" style="mask-type:alpha" maskUnits="userSpaceOnUse" x="90" y="110" width="32" height="36">
<path d="M90.1006 110.468H121.994V130.04C121.994 138.847 114.855 145.986 106.047 145.986V145.986C97.2402 145.986 90.1006 138.847 90.1006 130.04V110.468Z" fill="#D9D9D9"/>
</mask>
<g mask="url(#mask11_6258_101303)">
<path fill-rule="evenodd" clip-rule="evenodd" d="M99.0641 127.71C99.0641 127.71 99.0641 127.71 99.0641 127.71C99.0649 127.71 99.0656 127.709 99.0664 127.709C99.0656 127.709 99.0649 127.71 99.0641 127.71ZM111.247 126.737L110.35 127.544L111.445 128.053C116.248 130.282 119.497 135.08 119.497 140.552C119.497 141.942 118.95 144.176 118.017 146.064C117.553 147.002 117.018 147.806 116.449 148.365C115.878 148.927 115.343 149.175 114.86 149.175H96.747C96.2644 149.175 95.7294 148.927 95.1578 148.365C94.5894 147.806 94.0536 147.002 93.5901 146.064C92.6573 144.176 92.1104 141.942 92.1104 140.552C92.1104 135.08 95.3594 130.282 100.162 128.053L101.257 127.544L100.36 126.737C98.6908 125.235 97.5443 123.086 97.5443 120.628C97.5443 115.996 101.172 112.368 105.804 112.368C110.435 112.368 114.063 115.996 114.063 120.628C114.063 123.086 112.916 125.235 111.247 126.737ZM105.804 114.396C102.284 114.396 99.5722 117.108 99.5722 120.628C99.5722 124.147 102.284 126.859 105.804 126.859C109.323 126.859 112.035 124.147 112.035 120.628C112.035 117.108 109.323 114.396 105.804 114.396ZM96.747 147.147H114.86C115.303 147.147 115.629 146.906 115.829 146.693C116.033 146.478 116.193 146.207 116.32 145.943C116.577 145.409 116.785 144.722 116.948 144.046C117.274 142.698 117.469 141.181 117.469 140.552C117.469 134.134 112.221 128.887 105.804 128.887C99.3858 128.887 94.1383 134.134 94.1383 140.552C94.1383 141.181 94.3334 142.698 94.6587 144.046C94.8219 144.722 95.03 145.409 95.287 145.943C95.4143 146.207 95.5738 146.478 95.7777 146.693C95.9785 146.906 96.3038 147.147 96.747 147.147Z" fill="#004357"/>
</g>
<mask id="mask12_6258_101303" style="mask-type:alpha" maskUnits="userSpaceOnUse" x="134" y="110" width="33" height="36">
<path d="M134.751 110.468H166.645V130.04C166.645 138.847 159.505 145.986 150.698 145.986V145.986C141.891 145.986 134.751 138.847 134.751 130.04V110.468Z" fill="#D9D9D9"/>
</mask>
<g mask="url(#mask12_6258_101303)">
<path fill-rule="evenodd" clip-rule="evenodd" d="M143.715 127.71C143.715 127.71 143.715 127.71 143.715 127.71C143.715 127.71 143.716 127.709 143.717 127.709C143.716 127.709 143.715 127.71 143.715 127.71ZM155.898 126.737L155.001 127.544L156.095 128.053C160.898 130.282 164.147 135.08 164.147 140.552C164.147 141.942 163.6 144.176 162.667 146.064C162.204 147.002 161.668 147.806 161.1 148.365C160.528 148.927 159.993 149.175 159.51 149.175H141.397C140.915 149.175 140.38 148.927 139.808 148.365C139.24 147.806 138.704 147.002 138.24 146.064C137.308 144.176 136.761 141.942 136.761 140.552C136.761 135.08 140.01 130.282 144.812 128.053L145.907 127.544L145.01 126.737C143.341 125.235 142.195 123.086 142.195 120.628C142.195 115.996 145.823 112.368 150.454 112.368C155.085 112.368 158.713 115.996 158.713 120.628C158.713 123.086 157.567 125.235 155.898 126.737ZM150.454 114.396C146.934 114.396 144.223 117.108 144.223 120.628C144.223 124.147 146.934 126.859 150.454 126.859C153.974 126.859 156.685 124.147 156.685 120.628C156.685 117.108 153.974 114.396 150.454 114.396ZM141.397 147.147H159.51C159.954 147.147 160.279 146.906 160.48 146.693C160.684 146.478 160.843 146.207 160.97 145.943C161.227 145.409 161.436 144.722 161.599 144.046C161.924 142.698 162.119 141.181 162.119 140.552C162.119 134.134 156.872 128.887 150.454 128.887C144.036 128.887 138.789 134.134 138.789 140.552C138.789 141.181 138.984 142.698 139.309 144.046C139.472 144.722 139.68 145.409 139.937 145.943C140.065 146.207 140.224 146.478 140.428 146.693C140.629 146.906 140.954 147.147 141.397 147.147Z" fill="#004357"/>
</g>
<mask id="mask13_6258_101303" style="mask-type:alpha" maskUnits="userSpaceOnUse" x="179" y="110" width="33" height="36">
<path d="M179.402 110.468H211.296V130.04C211.296 138.847 204.156 145.986 195.349 145.986V145.986C186.542 145.986 179.402 138.847 179.402 130.04V110.468Z" fill="#D9D9D9"/>
</mask>
<g mask="url(#mask13_6258_101303)">
<path fill-rule="evenodd" clip-rule="evenodd" d="M188.366 127.71C188.366 127.71 188.366 127.71 188.366 127.71C188.367 127.71 188.367 127.709 188.368 127.709C188.367 127.709 188.367 127.71 188.366 127.71ZM200.549 126.737L199.652 127.544L200.747 128.053C205.549 130.282 208.798 135.08 208.798 140.552C208.798 141.942 208.252 144.176 207.319 146.064C206.855 147.002 206.319 147.806 205.751 148.365C205.179 148.927 204.644 149.175 204.162 149.175H186.049C185.566 149.175 185.031 148.927 184.46 148.365C183.891 147.806 183.355 147.002 182.892 146.064C181.959 144.176 181.412 141.942 181.412 140.552C181.412 135.08 184.661 130.282 189.464 128.053L190.559 127.544L189.661 126.737C187.993 125.235 186.846 123.086 186.846 120.628C186.846 115.996 190.474 112.368 195.105 112.368C199.737 112.368 203.365 115.996 203.365 120.628C203.365 123.086 202.218 125.235 200.549 126.737ZM195.105 114.396C191.586 114.396 188.874 117.108 188.874 120.628C188.874 124.147 191.586 126.859 195.105 126.859C198.625 126.859 201.337 124.147 201.337 120.628C201.337 117.108 198.625 114.396 195.105 114.396ZM186.049 147.147H204.162C204.605 147.147 204.93 146.906 205.131 146.693C205.335 146.478 205.495 146.207 205.622 145.943C205.879 145.409 206.087 144.722 206.25 144.046C206.575 142.698 206.771 141.181 206.771 140.552C206.771 134.134 201.523 128.887 195.105 128.887C188.688 128.887 183.44 134.134 183.44 140.552C183.44 141.181 183.635 142.698 183.96 144.046C184.124 144.722 184.332 145.409 184.589 145.943C184.716 146.207 184.876 146.478 185.08 146.693C185.28 146.906 185.606 147.147 186.049 147.147Z" fill="#004357"/>
</g>
<mask id="mask14_6258_101303" style="mask-type:alpha" maskUnits="userSpaceOnUse" x="224" y="110" width="32" height="36">
<path d="M224.054 110.468H255.947V130.04C255.947 138.847 248.808 145.986 240.001 145.986V145.986C231.193 145.986 224.054 138.847 224.054 130.04V110.468Z" fill="#D9D9D9"/>
</mask>
<g mask="url(#mask14_6258_101303)">
<path fill-rule="evenodd" clip-rule="evenodd" d="M233.017 127.71C233.017 127.71 233.017 127.71 233.017 127.71C233.018 127.71 233.019 127.709 233.02 127.709C233.019 127.709 233.018 127.71 233.017 127.71ZM245.201 126.737L244.303 127.544L245.398 128.053C250.201 130.282 253.45 135.08 253.45 140.552C253.45 141.942 252.903 144.176 251.97 146.064C251.507 147.002 250.971 147.806 250.402 148.365C249.831 148.927 249.296 149.175 248.813 149.175H230.7C230.218 149.175 229.683 148.927 229.111 148.365C228.543 147.806 228.007 147.002 227.543 146.064C226.61 144.176 226.063 141.942 226.063 140.552C226.063 135.08 229.312 130.282 234.115 128.053L235.21 127.544L234.313 126.737C232.644 125.235 231.497 123.086 231.497 120.628C231.497 115.996 235.125 112.368 239.757 112.368C244.388 112.368 248.016 115.996 248.016 120.628C248.016 123.086 246.869 125.235 245.201 126.737ZM239.757 114.396C236.237 114.396 233.525 117.108 233.525 120.628C233.525 124.147 236.237 126.859 239.757 126.859C243.276 126.859 245.988 124.147 245.988 120.628C245.988 117.108 243.276 114.396 239.757 114.396ZM230.7 147.147H248.813C249.256 147.147 249.582 146.906 249.782 146.693C249.986 146.478 250.146 146.207 250.273 145.943C250.53 145.409 250.738 144.722 250.902 144.046C251.227 142.698 251.422 141.181 251.422 140.552C251.422 134.134 246.174 128.887 239.757 128.887C233.339 128.887 228.091 134.134 228.091 140.552C228.091 141.181 228.286 142.698 228.612 144.046C228.775 144.722 228.983 145.409 229.24 145.943C229.367 146.207 229.527 146.478 229.731 146.693C229.932 146.906 230.257 147.147 230.7 147.147Z" fill="#004357"/>
</g>
<mask id="mask15_6258_101303" style="mask-type:alpha" maskUnits="userSpaceOnUse" x="268" y="110" width="33" height="36">
<path d="M268.705 110.468H300.599V130.04C300.599 138.847 293.459 145.986 284.652 145.986V145.986C275.845 145.986 268.705 138.847 268.705 130.04V110.468Z" fill="#D9D9D9"/>
</mask>
<g mask="url(#mask15_6258_101303)">
<path fill-rule="evenodd" clip-rule="evenodd" d="M277.669 127.71C277.669 127.71 277.669 127.71 277.669 127.71C277.669 127.71 277.67 127.709 277.671 127.709C277.67 127.709 277.669 127.71 277.669 127.71ZM289.852 126.737L288.955 127.544L290.05 128.053C294.852 130.282 298.101 135.08 298.101 140.552C298.101 141.942 297.554 144.176 296.621 146.064C296.158 147.002 295.622 147.806 295.054 148.365C294.482 148.927 293.947 149.175 293.465 149.175H275.351C274.869 149.175 274.334 148.927 273.762 148.365C273.194 147.806 272.658 147.002 272.195 146.064C271.262 144.176 270.715 141.942 270.715 140.552C270.715 135.08 273.964 130.282 278.766 128.053L279.861 127.544L278.964 126.737C277.295 125.235 276.149 123.086 276.149 120.628C276.149 115.996 279.777 112.368 284.408 112.368C289.039 112.368 292.667 115.996 292.667 120.628C292.667 123.086 291.521 125.235 289.852 126.737ZM284.408 114.396C280.888 114.396 278.177 117.108 278.177 120.628C278.177 124.147 280.888 126.859 284.408 126.859C287.928 126.859 290.639 124.147 290.639 120.628C290.639 117.108 287.928 114.396 284.408 114.396ZM275.351 147.147H293.465C293.908 147.147 294.233 146.906 294.434 146.693C294.638 146.478 294.797 146.207 294.925 145.943C295.182 145.409 295.39 144.722 295.553 144.046C295.878 142.698 296.073 141.181 296.073 140.552C296.073 134.134 290.826 128.887 284.408 128.887C277.99 128.887 272.743 134.134 272.743 140.552C272.743 141.181 272.938 142.698 273.263 144.046C273.426 144.722 273.634 145.409 273.891 145.943C274.019 146.207 274.178 146.478 274.382 146.693C274.583 146.906 274.908 147.147 275.351 147.147Z" fill="#004357"/>
</g>
<mask id="mask16_6258_101303" style="mask-type:alpha" maskUnits="userSpaceOnUse" x="313" y="110" width="33" height="36">
<path d="M313.355 110.468H345.249V130.04C345.249 138.847 338.11 145.986 329.302 145.986V145.986C320.495 145.986 313.355 138.847 313.355 130.04V110.468Z" fill="#D9D9D9"/>
</mask>
<g mask="url(#mask16_6258_101303)">
<path fill-rule="evenodd" clip-rule="evenodd" d="M322.319 127.71C322.319 127.71 322.319 127.71 322.319 127.71C322.32 127.71 322.321 127.709 322.321 127.709C322.321 127.709 322.32 127.71 322.319 127.71ZM334.502 126.737L333.605 127.544L334.7 128.053C339.503 130.282 342.752 135.08 342.752 140.552C342.752 141.942 342.205 144.176 341.272 146.064C340.808 147.002 340.273 147.806 339.704 148.365C339.133 148.927 338.598 149.175 338.115 149.175H320.002C319.519 149.175 318.984 148.927 318.413 148.365C317.844 147.806 317.308 147.002 316.845 146.064C315.912 144.176 315.365 141.942 315.365 140.552C315.365 135.08 318.614 130.282 323.417 128.053L324.512 127.544L323.614 126.737C321.946 125.235 320.799 123.086 320.799 120.628C320.799 115.996 324.427 112.368 329.058 112.368C333.69 112.368 337.318 115.996 337.318 120.628C337.318 123.086 336.171 125.235 334.502 126.737ZM329.058 114.396C325.539 114.396 322.827 117.108 322.827 120.628C322.827 124.147 325.539 126.859 329.058 126.859C332.578 126.859 335.29 124.147 335.29 120.628C335.29 117.108 332.578 114.396 329.058 114.396ZM320.002 147.147H338.115C338.558 147.147 338.883 146.906 339.084 146.693C339.288 146.478 339.448 146.207 339.575 145.943C339.832 145.409 340.04 144.722 340.203 144.046C340.529 142.698 340.724 141.181 340.724 140.552C340.724 134.134 335.476 128.887 329.058 128.887C322.641 128.887 317.393 134.134 317.393 140.552C317.393 141.181 317.588 142.698 317.914 144.046C318.077 144.722 318.285 145.409 318.542 145.943C318.669 146.207 318.829 146.478 319.033 146.693C319.233 146.906 319.559 147.147 320.002 147.147Z" fill="#004357"/>
</g>
<path d="M132.303 48.811C131.922 49.0318 131.434 48.9019 131.213 48.5209L127.615 42.3119C127.395 41.9308 127.525 41.443 127.906 41.2222C128.287 41.0014 128.774 41.1313 128.995 41.5123L132.193 47.0315L137.712 43.8334C138.093 43.6126 138.581 43.7425 138.802 44.1235C139.023 44.5046 138.893 44.9924 138.512 45.2132L132.303 48.811ZM177.836 20.7776C167.103 18.5193 157.357 19.6631 149.544 24.2024C141.738 28.7376 135.764 36.7184 132.674 48.3263L131.133 47.916C134.311 35.9786 140.507 27.6085 148.743 22.8235C156.971 18.0427 167.139 16.8973 178.164 19.2171L177.836 20.7776Z" fill="#004357"/>
<mask id="mask17_6258_101303" style="mask-type:alpha" maskUnits="userSpaceOnUse" x="330" y="232" width="33" height="37">
<path d="M330.896 232.824H362.79V252.395C362.79 261.202 355.651 268.342 346.843 268.342V268.342C338.036 268.342 330.896 261.202 330.896 252.395V232.824Z" fill="#D9D9D9"/>
</mask>
<g mask="url(#mask17_6258_101303)">
<path fill-rule="evenodd" clip-rule="evenodd" d="M339.86 250.066C339.86 250.066 339.86 250.066 339.86 250.066C339.861 250.065 339.862 250.065 339.862 250.064C339.862 250.065 339.861 250.065 339.86 250.066ZM352.043 249.092L351.146 249.9L352.241 250.408C357.044 252.638 360.293 257.435 360.293 262.908C360.293 264.297 359.746 266.532 358.813 268.419C358.349 269.357 357.814 270.162 357.245 270.721C356.674 271.283 356.139 271.531 355.656 271.531H337.543C337.06 271.531 336.525 271.283 335.954 270.721C335.385 270.162 334.849 269.357 334.386 268.419C333.453 266.532 332.906 264.297 332.906 262.908C332.906 257.435 336.155 252.638 340.958 250.408L342.053 249.9L341.155 249.092C339.487 247.59 338.34 245.442 338.34 242.983C338.34 238.352 341.968 234.724 346.599 234.724C351.231 234.724 354.859 238.352 354.859 242.983C354.859 245.442 353.712 247.59 352.043 249.092ZM346.599 236.752C343.08 236.752 340.368 239.464 340.368 242.983C340.368 246.503 343.08 249.214 346.599 249.214C350.119 249.214 352.831 246.503 352.831 242.983C352.831 239.464 350.119 236.752 346.599 236.752ZM337.543 269.503H355.656C356.099 269.503 356.424 269.261 356.625 269.049C356.829 268.833 356.989 268.563 357.116 268.298C357.373 267.764 357.581 267.078 357.744 266.401C358.07 265.053 358.265 263.537 358.265 262.908C358.265 256.49 353.017 251.242 346.599 251.242C340.182 251.242 334.934 256.49 334.934 262.908C334.934 263.537 335.129 265.053 335.455 266.401C335.618 267.078 335.826 267.764 336.083 268.298C336.21 268.563 336.37 268.833 336.574 269.049C336.774 269.261 337.1 269.503 337.543 269.503Z" fill="#004357"/>
</g>
<mask id="mask18_6258_101303" style="mask-type:alpha" maskUnits="userSpaceOnUse" x="375" y="232" width="33" height="37">
<path d="M375.548 232.824H407.442V252.395C407.442 261.202 400.302 268.342 391.495 268.342V268.342C382.687 268.342 375.548 261.202 375.548 252.395V232.824Z" fill="#D9D9D9"/>
</mask>
<g mask="url(#mask18_6258_101303)">
<path fill-rule="evenodd" clip-rule="evenodd" d="M384.511 250.066C384.511 250.066 384.511 250.066 384.511 250.066C384.512 250.065 384.513 250.065 384.514 250.064C384.513 250.065 384.512 250.065 384.511 250.066ZM396.695 249.092L395.797 249.9L396.892 250.408C401.695 252.638 404.944 257.435 404.944 262.908C404.944 264.297 404.397 266.532 403.464 268.419C403.001 269.357 402.465 270.162 401.897 270.721C401.325 271.283 400.79 271.531 400.307 271.531H382.194C381.712 271.531 381.177 271.283 380.605 270.721C380.037 270.162 379.501 269.357 379.037 268.419C378.105 266.532 377.558 264.297 377.558 262.908C377.558 257.435 380.807 252.638 385.609 250.408L386.704 249.9L385.807 249.092C384.138 247.59 382.992 245.442 382.992 242.983C382.992 238.352 386.619 234.724 391.251 234.724C395.882 234.724 399.51 238.352 399.51 242.983C399.51 245.442 398.363 247.59 396.695 249.092ZM391.251 236.752C387.731 236.752 385.02 239.464 385.02 242.983C385.02 246.503 387.731 249.214 391.251 249.214C394.77 249.214 397.482 246.503 397.482 242.983C397.482 239.464 394.77 236.752 391.251 236.752ZM382.194 269.503H400.307C400.751 269.503 401.076 269.261 401.277 269.049C401.48 268.833 401.64 268.563 401.767 268.298C402.024 267.764 402.232 267.078 402.396 266.401C402.721 265.053 402.916 263.537 402.916 262.908C402.916 256.49 397.668 251.242 391.251 251.242C384.833 251.242 379.586 256.49 379.586 262.908C379.586 263.537 379.781 265.053 380.106 266.401C380.269 267.078 380.477 267.764 380.734 268.298C380.862 268.563 381.021 268.833 381.225 269.049C381.426 269.261 381.751 269.503 382.194 269.503Z" fill="#004357"/>
</g>
<mask id="mask19_6258_101303" style="mask-type:alpha" maskUnits="userSpaceOnUse" x="420" y="232" width="33" height="37">
<path d="M420.199 232.824H452.093V252.395C452.093 261.202 444.953 268.342 436.146 268.342V268.342C427.339 268.342 420.199 261.202 420.199 252.395V232.824Z" fill="#D9D9D9"/>
</mask>
<g mask="url(#mask19_6258_101303)">
<path fill-rule="evenodd" clip-rule="evenodd" d="M429.163 250.066C429.163 250.066 429.163 250.066 429.163 250.066C429.164 250.065 429.164 250.065 429.165 250.064C429.164 250.065 429.164 250.065 429.163 250.066ZM441.346 249.092L440.449 249.9L441.544 250.408C446.346 252.638 449.595 257.435 449.595 262.908C449.595 264.297 449.048 266.532 448.116 268.419C447.652 269.357 447.116 270.162 446.548 270.721C445.976 271.283 445.441 271.531 444.959 271.531H426.846C426.363 271.531 425.828 271.283 425.256 270.721C424.688 270.162 424.152 269.357 423.689 268.419C422.756 266.532 422.209 264.297 422.209 262.908C422.209 257.435 425.458 252.638 430.261 250.408L431.355 249.9L430.458 249.092C428.789 247.59 427.643 245.442 427.643 242.983C427.643 238.352 431.271 234.724 435.902 234.724C440.533 234.724 444.161 238.352 444.161 242.983C444.161 245.442 443.015 247.59 441.346 249.092ZM435.902 236.752C432.383 236.752 429.671 239.464 429.671 242.983C429.671 246.503 432.383 249.214 435.902 249.214C439.422 249.214 442.133 246.503 442.133 242.983C442.133 239.464 439.422 236.752 435.902 236.752ZM426.846 269.503H444.959C445.402 269.503 445.727 269.261 445.928 269.049C446.132 268.833 446.291 268.563 446.419 268.298C446.676 267.764 446.884 267.078 447.047 266.401C447.372 265.053 447.567 263.537 447.567 262.908C447.567 256.49 442.32 251.242 435.902 251.242C429.484 251.242 424.237 256.49 424.237 262.908C424.237 263.537 424.432 265.053 424.757 266.401C424.921 267.078 425.129 267.764 425.386 268.298C425.513 268.563 425.672 268.833 425.876 269.049C426.077 269.261 426.402 269.503 426.846 269.503Z" fill="#004357"/>
</g>
<mask id="mask20_6258_101303" style="mask-type:alpha" maskUnits="userSpaceOnUse" x="464" y="232" width="33" height="37">
<path d="M464.851 232.824H496.744V252.395C496.744 261.202 489.605 268.342 480.797 268.342V268.342C471.99 268.342 464.851 261.202 464.851 252.395V232.824Z" fill="#D9D9D9"/>
</mask>
<g mask="url(#mask20_6258_101303)">
<path fill-rule="evenodd" clip-rule="evenodd" d="M473.814 250.066C473.814 250.066 473.814 250.066 473.814 250.066C473.815 250.065 473.816 250.065 473.816 250.064C473.816 250.065 473.815 250.065 473.814 250.066ZM485.997 249.092L485.1 249.9L486.195 250.408C490.998 252.638 494.247 257.435 494.247 262.908C494.247 264.297 493.7 266.532 492.767 268.419C492.303 269.357 491.768 270.162 491.199 270.721C490.628 271.283 490.093 271.531 489.61 271.531H471.497C471.014 271.531 470.479 271.283 469.908 270.721C469.339 270.162 468.804 269.357 468.34 268.419C467.407 266.532 466.86 264.297 466.86 262.908C466.86 257.435 470.109 252.638 474.912 250.408L476.007 249.9L475.11 249.092C473.441 247.59 472.294 245.442 472.294 242.983C472.294 238.352 475.922 234.724 480.554 234.724C485.185 234.724 488.813 238.352 488.813 242.983C488.813 245.442 487.666 247.59 485.997 249.092ZM480.554 236.752C477.034 236.752 474.322 239.464 474.322 242.983C474.322 246.503 477.034 249.214 480.554 249.214C484.073 249.214 486.785 246.503 486.785 242.983C486.785 239.464 484.073 236.752 480.554 236.752ZM471.497 269.503H489.61C490.053 269.503 490.379 269.261 490.579 269.049C490.783 268.833 490.943 268.563 491.07 268.298C491.327 267.764 491.535 267.078 491.698 266.401C492.024 265.053 492.219 263.537 492.219 262.908C492.219 256.49 486.971 251.242 480.554 251.242C474.136 251.242 468.888 256.49 468.888 262.908C468.888 263.537 469.083 265.053 469.409 266.401C469.572 267.078 469.78 267.764 470.037 268.298C470.164 268.563 470.324 268.833 470.528 269.049C470.728 269.261 471.054 269.503 471.497 269.503Z" fill="#004357"/>
</g>
<mask id="mask21_6258_101303" style="mask-type:alpha" maskUnits="userSpaceOnUse" x="509" y="232" width="33" height="37">
<path d="M509.502 232.824H541.396V252.395C541.396 261.202 534.256 268.342 525.449 268.342V268.342C516.642 268.342 509.502 261.202 509.502 252.395V232.824Z" fill="#D9D9D9"/>
</mask>
<g mask="url(#mask21_6258_101303)">
<path fill-rule="evenodd" clip-rule="evenodd" d="M518.465 250.066C518.465 250.066 518.465 250.066 518.465 250.066C518.466 250.065 518.467 250.065 518.468 250.064C518.467 250.065 518.466 250.065 518.465 250.066ZM530.649 249.092L529.752 249.9L530.846 250.408C535.649 252.638 538.898 257.435 538.898 262.908C538.898 264.297 538.351 266.532 537.418 268.419C536.955 269.357 536.419 270.162 535.851 270.721C535.279 271.283 534.744 271.531 534.261 271.531H516.148C515.666 271.531 515.131 271.283 514.559 270.721C513.991 270.162 513.455 269.357 512.991 268.419C512.059 266.532 511.512 264.297 511.512 262.908C511.512 257.435 514.761 252.638 519.563 250.408L520.658 249.9L519.761 249.092C518.092 247.59 516.946 245.442 516.946 242.983C516.946 238.352 520.574 234.724 525.205 234.724C529.836 234.724 533.464 238.352 533.464 242.983C533.464 245.442 532.318 247.59 530.649 249.092ZM525.205 236.752C521.685 236.752 518.974 239.464 518.974 242.983C518.974 246.503 521.685 249.214 525.205 249.214C528.724 249.214 531.436 246.503 531.436 242.983C531.436 239.464 528.724 236.752 525.205 236.752ZM516.148 269.503H534.261C534.705 269.503 535.03 269.261 535.231 269.049C535.435 268.833 535.594 268.563 535.721 268.298C535.978 267.764 536.187 267.078 536.35 266.401C536.675 265.053 536.87 263.537 536.87 262.908C536.87 256.49 531.623 251.242 525.205 251.242C518.787 251.242 513.54 256.49 513.54 262.908C513.54 263.537 513.735 265.053 514.06 266.401C514.223 267.078 514.431 267.764 514.688 268.298C514.816 268.563 514.975 268.833 515.179 269.049C515.38 269.261 515.705 269.503 516.148 269.503Z" fill="#004357"/>
</g>
<mask id="mask22_6258_101303" style="mask-type:alpha" maskUnits="userSpaceOnUse" x="554" y="232" width="33" height="37">
<path d="M554.152 232.824H586.046V252.395C586.046 261.202 578.906 268.342 570.099 268.342V268.342C561.292 268.342 554.152 261.202 554.152 252.395V232.824Z" fill="#D9D9D9"/>
</mask>
<g mask="url(#mask22_6258_101303)">
<path fill-rule="evenodd" clip-rule="evenodd" d="M563.116 250.066C563.116 250.066 563.116 250.066 563.116 250.066C563.117 250.065 563.117 250.065 563.118 250.064C563.117 250.065 563.117 250.065 563.116 250.066ZM575.299 249.092L574.402 249.9L575.497 250.408C580.299 252.638 583.548 257.435 583.548 262.908C583.548 264.297 583.002 266.532 582.069 268.419C581.605 269.357 581.069 270.162 580.501 270.721C579.929 271.283 579.394 271.531 578.912 271.531H560.799C560.316 271.531 559.781 271.283 559.21 270.721C558.641 270.162 558.105 269.357 557.642 268.419C556.709 266.532 556.162 264.297 556.162 262.908C556.162 257.435 559.411 252.638 564.214 250.408L565.309 249.9L564.411 249.092C562.743 247.59 561.596 245.442 561.596 242.983C561.596 238.352 565.224 234.724 569.855 234.724C574.487 234.724 578.115 238.352 578.115 242.983C578.115 245.442 576.968 247.59 575.299 249.092ZM569.855 236.752C566.336 236.752 563.624 239.464 563.624 242.983C563.624 246.503 566.336 249.214 569.855 249.214C573.375 249.214 576.087 246.503 576.087 242.983C576.087 239.464 573.375 236.752 569.855 236.752ZM560.799 269.503H578.912C579.355 269.503 579.68 269.261 579.881 269.049C580.085 268.833 580.245 268.563 580.372 268.298C580.629 267.764 580.837 267.078 581 266.401C581.325 265.053 581.521 263.537 581.521 262.908C581.521 256.49 576.273 251.242 569.855 251.242C563.438 251.242 558.19 256.49 558.19 262.908C558.19 263.537 558.385 265.053 558.71 266.401C558.874 267.078 559.082 267.764 559.339 268.298C559.466 268.563 559.626 268.833 559.83 269.049C560.03 269.261 560.356 269.503 560.799 269.503Z" fill="#004357"/>
</g>
<mask id="mask23_6258_101303" style="mask-type:alpha" maskUnits="userSpaceOnUse" x="598" y="232" width="33" height="37">
<path d="M598.804 232.824H630.697V252.395C630.697 261.202 623.558 268.342 614.751 268.342V268.342C605.943 268.342 598.804 261.202 598.804 252.395V232.824Z" fill="#D9D9D9"/>
</mask>
<g mask="url(#mask23_6258_101303)">
<path fill-rule="evenodd" clip-rule="evenodd" d="M607.767 250.066C607.767 250.066 607.767 250.066 607.767 250.066C607.768 250.065 607.769 250.065 607.77 250.064C607.769 250.065 607.768 250.065 607.767 250.066ZM619.951 249.092L619.053 249.9L620.148 250.408C624.951 252.638 628.2 257.435 628.2 262.908C628.2 264.297 627.653 266.532 626.72 268.419C626.257 269.357 625.721 270.162 625.152 270.721C624.581 271.283 624.046 271.531 623.563 271.531H605.45C604.968 271.531 604.433 271.283 603.861 270.721C603.293 270.162 602.757 269.357 602.293 268.419C601.36 266.532 600.813 264.297 600.813 262.908C600.813 257.435 604.062 252.638 608.865 250.408L609.96 249.9L609.063 249.092C607.394 247.59 606.247 245.442 606.247 242.983C606.247 238.352 609.875 234.724 614.507 234.724C619.138 234.724 622.766 238.352 622.766 242.983C622.766 245.442 621.619 247.59 619.951 249.092ZM614.507 236.752C610.987 236.752 608.275 239.464 608.275 242.983C608.275 246.503 610.987 249.214 614.507 249.214C618.026 249.214 620.738 246.503 620.738 242.983C620.738 239.464 618.026 236.752 614.507 236.752ZM605.45 269.503H623.563C624.006 269.503 624.332 269.261 624.532 269.049C624.736 268.833 624.896 268.563 625.023 268.298C625.28 267.764 625.488 267.078 625.652 266.401C625.977 265.053 626.172 263.537 626.172 262.908C626.172 256.49 620.924 251.242 614.507 251.242C608.089 251.242 602.841 256.49 602.841 262.908C602.841 263.537 603.036 265.053 603.362 266.401C603.525 267.078 603.733 267.764 603.99 268.298C604.117 268.563 604.277 268.833 604.481 269.049C604.682 269.261 605.007 269.503 605.45 269.503Z" fill="#004357"/>
</g>
<mask id="mask24_6258_101303" style="mask-type:alpha" maskUnits="userSpaceOnUse" x="643" y="232" width="33" height="37">
<path d="M643.455 232.824H675.349V252.395C675.349 261.202 668.209 268.342 659.402 268.342V268.342C650.595 268.342 643.455 261.202 643.455 252.395V232.824Z" fill="#D9D9D9"/>
</mask>
<g mask="url(#mask24_6258_101303)">
<path fill-rule="evenodd" clip-rule="evenodd" d="M652.419 250.066C652.419 250.066 652.419 250.066 652.419 250.066C652.419 250.065 652.42 250.065 652.421 250.064C652.42 250.065 652.419 250.065 652.419 250.066ZM664.602 249.092L663.705 249.9L664.8 250.408C669.602 252.638 672.851 257.435 672.851 262.908C672.851 264.297 672.304 266.532 671.371 268.419C670.908 269.357 670.372 270.162 669.804 270.721C669.232 271.283 668.697 271.531 668.215 271.531H650.101C649.619 271.531 649.084 271.283 648.512 270.721C647.944 270.162 647.408 269.357 646.945 268.419C646.012 266.532 645.465 264.297 645.465 262.908C645.465 257.435 648.714 252.638 653.516 250.408L654.611 249.9L653.714 249.092C652.045 247.59 650.899 245.442 650.899 242.983C650.899 238.352 654.527 234.724 659.158 234.724C663.789 234.724 667.417 238.352 667.417 242.983C667.417 245.442 666.271 247.59 664.602 249.092ZM659.158 236.752C655.638 236.752 652.927 239.464 652.927 242.983C652.927 246.503 655.638 249.214 659.158 249.214C662.678 249.214 665.389 246.503 665.389 242.983C665.389 239.464 662.678 236.752 659.158 236.752ZM650.101 269.503H668.215C668.658 269.503 668.983 269.261 669.184 269.049C669.388 268.833 669.547 268.563 669.675 268.298C669.932 267.764 670.14 267.078 670.303 266.401C670.628 265.053 670.823 263.537 670.823 262.908C670.823 256.49 665.576 251.242 659.158 251.242C652.74 251.242 647.493 256.49 647.493 262.908C647.493 263.537 647.688 265.053 648.013 266.401C648.176 267.078 648.384 267.764 648.641 268.298C648.769 268.563 648.928 268.833 649.132 269.049C649.333 269.261 649.658 269.503 650.101 269.503Z" fill="#004357"/>
</g>
<mask id="mask25_6258_101303" style="mask-type:alpha" maskUnits="userSpaceOnUse" x="688" y="232" width="32" height="37">
<path d="M688.106 232.824H720V252.395C720 261.202 712.86 268.342 704.053 268.342V268.342C695.246 268.342 688.106 261.202 688.106 252.395V232.824Z" fill="#D9D9D9"/>
</mask>
<g mask="url(#mask25_6258_101303)">
<path fill-rule="evenodd" clip-rule="evenodd" d="M697.07 250.066C697.07 250.066 697.07 250.066 697.07 250.066C697.071 250.065 697.071 250.065 697.072 250.064C697.071 250.065 697.071 250.065 697.07 250.066ZM709.253 249.092L708.356 249.9L709.451 250.408C714.254 252.638 717.503 257.435 717.503 262.908C717.503 264.297 716.956 266.532 716.023 268.419C715.559 269.357 715.024 270.162 714.455 270.721C713.883 271.283 713.349 271.531 712.866 271.531H694.753C694.27 271.531 693.735 271.283 693.164 270.721C692.595 270.162 692.059 269.357 691.596 268.419C690.663 266.532 690.116 264.297 690.116 262.908C690.116 257.435 693.365 252.638 698.168 250.408L699.263 249.9L698.365 249.092C696.697 247.59 695.55 245.442 695.55 242.983C695.55 238.352 699.178 234.724 703.809 234.724C708.441 234.724 712.069 238.352 712.069 242.983C712.069 245.442 710.922 247.59 709.253 249.092ZM703.809 236.752C700.29 236.752 697.578 239.464 697.578 242.983C697.578 246.503 700.29 249.214 703.809 249.214C707.329 249.214 710.041 246.503 710.041 242.983C710.041 239.464 707.329 236.752 703.809 236.752ZM694.753 269.503H712.866C713.309 269.503 713.634 269.261 713.835 269.049C714.039 268.833 714.199 268.563 714.326 268.298C714.583 267.764 714.791 267.078 714.954 266.401C715.28 265.053 715.475 263.537 715.475 262.908C715.475 256.49 710.227 251.242 703.809 251.242C697.392 251.242 692.144 256.49 692.144 262.908C692.144 263.537 692.339 265.053 692.665 266.401C692.828 267.078 693.036 267.764 693.293 268.298C693.42 268.563 693.58 268.833 693.784 269.049C693.984 269.261 694.31 269.503 694.753 269.503Z" fill="#004357"/>
</g>
<mask id="mask26_6258_101303" style="mask-type:alpha" maskUnits="userSpaceOnUse" x="375" y="281" width="33" height="36">
<path d="M375.548 281.099H407.442V300.671C407.442 309.478 400.302 316.617 391.495 316.617V316.617C382.687 316.617 375.548 309.478 375.548 300.671V281.099Z" fill="#D9D9D9"/>
</mask>
<g mask="url(#mask26_6258_101303)">
<path fill-rule="evenodd" clip-rule="evenodd" d="M384.511 298.341C384.511 298.341 384.511 298.341 384.511 298.341C384.512 298.341 384.513 298.34 384.514 298.34C384.513 298.34 384.512 298.341 384.511 298.341ZM396.695 297.368L395.797 298.175L396.892 298.684C401.695 300.914 404.944 305.711 404.944 311.183C404.944 312.573 404.397 314.807 403.464 316.695C403.001 317.633 402.465 318.438 401.897 318.996C401.325 319.558 400.79 319.807 400.307 319.807H382.194C381.712 319.807 381.177 319.558 380.605 318.996C380.037 318.438 379.501 317.633 379.037 316.695C378.105 314.807 377.558 312.573 377.558 311.183C377.558 305.711 380.807 300.914 385.609 298.684L386.704 298.175L385.807 297.368C384.138 295.866 382.992 293.718 382.992 291.259C382.992 286.627 386.619 283 391.251 283C395.882 283 399.51 286.627 399.51 291.259C399.51 293.718 398.363 295.866 396.695 297.368ZM391.251 285.027C387.731 285.027 385.02 287.739 385.02 291.259C385.02 294.778 387.731 297.49 391.251 297.49C394.77 297.49 397.482 294.778 397.482 291.259C397.482 287.739 394.77 285.027 391.251 285.027ZM382.194 317.779H400.307C400.751 317.779 401.076 317.537 401.277 317.324C401.48 317.109 401.64 316.838 401.767 316.574C402.024 316.04 402.232 315.353 402.396 314.677C402.721 313.329 402.916 311.812 402.916 311.183C402.916 304.766 397.668 299.518 391.251 299.518C384.833 299.518 379.586 304.766 379.586 311.183C379.586 311.812 379.781 313.329 380.106 314.677C380.269 315.353 380.477 316.04 380.734 316.574C380.862 316.838 381.021 317.109 381.225 317.324C381.426 317.537 381.751 317.779 382.194 317.779Z" fill="#004357"/>
</g>
<mask id="mask27_6258_101303" style="mask-type:alpha" maskUnits="userSpaceOnUse" x="420" y="281" width="33" height="36">
<path d="M420.199 281.099H452.093V300.671C452.093 309.478 444.953 316.617 436.146 316.617V316.617C427.339 316.617 420.199 309.478 420.199 300.671V281.099Z" fill="#D9D9D9"/>
</mask>
<g mask="url(#mask27_6258_101303)">
<path fill-rule="evenodd" clip-rule="evenodd" d="M429.163 298.341C429.163 298.341 429.163 298.341 429.163 298.341C429.164 298.341 429.164 298.34 429.165 298.34C429.164 298.34 429.164 298.341 429.163 298.341ZM441.346 297.368L440.449 298.175L441.544 298.684C446.346 300.914 449.595 305.711 449.595 311.183C449.595 312.573 449.048 314.807 448.116 316.695C447.652 317.633 447.116 318.438 446.548 318.996C445.976 319.558 445.441 319.807 444.959 319.807H426.846C426.363 319.807 425.828 319.558 425.256 318.996C424.688 318.438 424.152 317.633 423.689 316.695C422.756 314.807 422.209 312.573 422.209 311.183C422.209 305.711 425.458 300.914 430.261 298.684L431.355 298.175L430.458 297.368C428.789 295.866 427.643 293.718 427.643 291.259C427.643 286.627 431.271 283 435.902 283C440.533 283 444.161 286.627 444.161 291.259C444.161 293.718 443.015 295.866 441.346 297.368ZM435.902 285.027C432.383 285.027 429.671 287.739 429.671 291.259C429.671 294.778 432.383 297.49 435.902 297.49C439.422 297.49 442.133 294.778 442.133 291.259C442.133 287.739 439.422 285.027 435.902 285.027ZM426.846 317.779H444.959C445.402 317.779 445.727 317.537 445.928 317.324C446.132 317.109 446.291 316.838 446.419 316.574C446.676 316.04 446.884 315.353 447.047 314.677C447.372 313.329 447.567 311.812 447.567 311.183C447.567 304.766 442.32 299.518 435.902 299.518C429.484 299.518 424.237 304.766 424.237 311.183C424.237 311.812 424.432 313.329 424.757 314.677C424.921 315.353 425.129 316.04 425.386 316.574C425.513 316.838 425.672 317.109 425.876 317.324C426.077 317.537 426.402 317.779 426.846 317.779Z" fill="#004357"/>
</g>
<mask id="mask28_6258_101303" style="mask-type:alpha" maskUnits="userSpaceOnUse" x="464" y="281" width="33" height="36">
<path d="M464.851 281.099H496.744V300.671C496.744 309.478 489.605 316.617 480.797 316.617V316.617C471.99 316.617 464.851 309.478 464.851 300.671V281.099Z" fill="#D9D9D9"/>
</mask>
<g mask="url(#mask28_6258_101303)">
<path fill-rule="evenodd" clip-rule="evenodd" d="M473.814 298.341C473.814 298.341 473.814 298.341 473.814 298.341C473.815 298.341 473.816 298.34 473.816 298.34C473.816 298.34 473.815 298.341 473.814 298.341ZM485.997 297.368L485.1 298.175L486.195 298.684C490.998 300.914 494.247 305.711 494.247 311.183C494.247 312.573 493.7 314.807 492.767 316.695C492.303 317.633 491.768 318.438 491.199 318.996C490.628 319.558 490.093 319.807 489.61 319.807H471.497C471.014 319.807 470.479 319.558 469.908 318.996C469.339 318.438 468.804 317.633 468.34 316.695C467.407 314.807 466.86 312.573 466.86 311.183C466.86 305.711 470.109 300.914 474.912 298.684L476.007 298.175L475.11 297.368C473.441 295.866 472.294 293.718 472.294 291.259C472.294 286.627 475.922 283 480.554 283C485.185 283 488.813 286.627 488.813 291.259C488.813 293.718 487.666 295.866 485.997 297.368ZM480.554 285.027C477.034 285.027 474.322 287.739 474.322 291.259C474.322 294.778 477.034 297.49 480.554 297.49C484.073 297.49 486.785 294.778 486.785 291.259C486.785 287.739 484.073 285.027 480.554 285.027ZM471.497 317.779H489.61C490.053 317.779 490.379 317.537 490.579 317.324C490.783 317.109 490.943 316.838 491.07 316.574C491.327 316.04 491.535 315.353 491.698 314.677C492.024 313.329 492.219 311.812 492.219 311.183C492.219 304.766 486.971 299.518 480.554 299.518C474.136 299.518 468.888 304.766 468.888 311.183C468.888 311.812 469.083 313.329 469.409 314.677C469.572 315.353 469.78 316.04 470.037 316.574C470.164 316.838 470.324 317.109 470.528 317.324C470.728 317.537 471.054 317.779 471.497 317.779Z" fill="#004357"/>
</g>
<mask id="mask29_6258_101303" style="mask-type:alpha" maskUnits="userSpaceOnUse" x="509" y="281" width="33" height="36">
<path d="M509.502 281.099H541.396V300.671C541.396 309.478 534.256 316.617 525.449 316.617V316.617C516.642 316.617 509.502 309.478 509.502 300.671V281.099Z" fill="#D9D9D9"/>
</mask>
<g mask="url(#mask29_6258_101303)">
<path fill-rule="evenodd" clip-rule="evenodd" d="M518.465 298.341C518.465 298.341 518.465 298.341 518.465 298.341C518.466 298.341 518.467 298.34 518.468 298.34C518.467 298.34 518.466 298.341 518.465 298.341ZM530.649 297.368L529.752 298.175L530.846 298.684C535.649 300.914 538.898 305.711 538.898 311.183C538.898 312.573 538.351 314.807 537.418 316.695C536.955 317.633 536.419 318.438 535.851 318.996C535.279 319.558 534.744 319.807 534.261 319.807H516.148C515.666 319.807 515.131 319.558 514.559 318.996C513.991 318.438 513.455 317.633 512.991 316.695C512.059 314.807 511.512 312.573 511.512 311.183C511.512 305.711 514.761 300.914 519.563 298.684L520.658 298.175L519.761 297.368C518.092 295.866 516.946 293.718 516.946 291.259C516.946 286.627 520.574 283 525.205 283C529.836 283 533.464 286.627 533.464 291.259C533.464 293.718 532.318 295.866 530.649 297.368ZM525.205 285.027C521.685 285.027 518.974 287.739 518.974 291.259C518.974 294.778 521.685 297.49 525.205 297.49C528.724 297.49 531.436 294.778 531.436 291.259C531.436 287.739 528.724 285.027 525.205 285.027ZM516.148 317.779H534.261C534.705 317.779 535.03 317.537 535.231 317.324C535.435 317.109 535.594 316.838 535.721 316.574C535.978 316.04 536.187 315.353 536.35 314.677C536.675 313.329 536.87 311.812 536.87 311.183C536.87 304.766 531.623 299.518 525.205 299.518C518.787 299.518 513.54 304.766 513.54 311.183C513.54 311.812 513.735 313.329 514.06 314.677C514.223 315.353 514.431 316.04 514.688 316.574C514.816 316.838 514.975 317.109 515.179 317.324C515.38 317.537 515.705 317.779 516.148 317.779Z" fill="#004357"/>
</g>
<mask id="mask30_6258_101303" style="mask-type:alpha" maskUnits="userSpaceOnUse" x="554" y="281" width="33" height="36">
<path d="M554.152 281.099H586.046V300.671C586.046 309.478 578.906 316.617 570.099 316.617V316.617C561.292 316.617 554.152 309.478 554.152 300.671V281.099Z" fill="#D9D9D9"/>
</mask>
<g mask="url(#mask30_6258_101303)">
<path fill-rule="evenodd" clip-rule="evenodd" d="M563.116 298.341C563.116 298.341 563.116 298.341 563.116 298.341C563.117 298.341 563.117 298.34 563.118 298.34C563.117 298.34 563.117 298.341 563.116 298.341ZM575.299 297.368L574.402 298.175L575.497 298.684C580.299 300.914 583.548 305.711 583.548 311.183C583.548 312.573 583.002 314.807 582.069 316.695C581.605 317.633 581.069 318.438 580.501 318.996C579.929 319.558 579.394 319.807 578.912 319.807H560.799C560.316 319.807 559.781 319.558 559.21 318.996C558.641 318.438 558.105 317.633 557.642 316.695C556.709 314.807 556.162 312.573 556.162 311.183C556.162 305.711 559.411 300.914 564.214 298.684L565.309 298.175L564.411 297.368C562.743 295.866 561.596 293.718 561.596 291.259C561.596 286.627 565.224 283 569.855 283C574.487 283 578.115 286.627 578.115 291.259C578.115 293.718 576.968 295.866 575.299 297.368ZM569.855 285.027C566.336 285.027 563.624 287.739 563.624 291.259C563.624 294.778 566.336 297.49 569.855 297.49C573.375 297.49 576.087 294.778 576.087 291.259C576.087 287.739 573.375 285.027 569.855 285.027ZM560.799 317.779H578.912C579.355 317.779 579.68 317.537 579.881 317.324C580.085 317.109 580.245 316.838 580.372 316.574C580.629 316.04 580.837 315.353 581 314.677C581.325 313.329 581.521 311.812 581.521 311.183C581.521 304.766 576.273 299.518 569.855 299.518C563.438 299.518 558.19 304.766 558.19 311.183C558.19 311.812 558.385 313.329 558.71 314.677C558.874 315.353 559.082 316.04 559.339 316.574C559.466 316.838 559.626 317.109 559.83 317.324C560.03 317.537 560.356 317.779 560.799 317.779Z" fill="#004357"/>
</g>
<mask id="mask31_6258_101303" style="mask-type:alpha" maskUnits="userSpaceOnUse" x="598" y="281" width="33" height="36">
<path d="M598.804 281.099H630.697V300.671C630.697 309.478 623.558 316.617 614.751 316.617V316.617C605.943 316.617 598.804 309.478 598.804 300.671V281.099Z" fill="#D9D9D9"/>
</mask>
<g mask="url(#mask31_6258_101303)">
<path fill-rule="evenodd" clip-rule="evenodd" d="M607.767 298.341C607.767 298.341 607.767 298.341 607.767 298.341C607.768 298.341 607.769 298.34 607.77 298.34C607.769 298.34 607.768 298.341 607.767 298.341ZM619.951 297.368L619.053 298.175L620.148 298.684C624.951 300.914 628.2 305.711 628.2 311.183C628.2 312.573 627.653 314.807 626.72 316.695C626.257 317.633 625.721 318.438 625.152 318.996C624.581 319.558 624.046 319.807 623.563 319.807H605.45C604.968 319.807 604.433 319.558 603.861 318.996C603.293 318.438 602.757 317.633 602.293 316.695C601.36 314.807 600.813 312.573 600.813 311.183C600.813 305.711 604.062 300.914 608.865 298.684L609.96 298.175L609.063 297.368C607.394 295.866 606.247 293.718 606.247 291.259C606.247 286.627 609.875 283 614.507 283C619.138 283 622.766 286.627 622.766 291.259C622.766 293.718 621.619 295.866 619.951 297.368ZM614.507 285.027C610.987 285.027 608.275 287.739 608.275 291.259C608.275 294.778 610.987 297.49 614.507 297.49C618.026 297.49 620.738 294.778 620.738 291.259C620.738 287.739 618.026 285.027 614.507 285.027ZM605.45 317.779H623.563C624.006 317.779 624.332 317.537 624.532 317.324C624.736 317.109 624.896 316.838 625.023 316.574C625.28 316.04 625.488 315.353 625.652 314.677C625.977 313.329 626.172 311.812 626.172 311.183C626.172 304.766 620.924 299.518 614.507 299.518C608.089 299.518 602.841 304.766 602.841 311.183C602.841 311.812 603.036 313.329 603.362 314.677C603.525 315.353 603.733 316.04 603.99 316.574C604.117 316.838 604.277 317.109 604.481 317.324C604.682 317.537 605.007 317.779 605.45 317.779Z" fill="#004357"/>
</g>
<mask id="mask32_6258_101303" style="mask-type:alpha" maskUnits="userSpaceOnUse" x="643" y="281" width="33" height="36">
<path d="M643.455 281.099H675.349V300.671C675.349 309.478 668.209 316.617 659.402 316.617V316.617C650.595 316.617 643.455 309.478 643.455 300.671V281.099Z" fill="#D9D9D9"/>
</mask>
<g mask="url(#mask32_6258_101303)">
<path fill-rule="evenodd" clip-rule="evenodd" d="M652.419 298.341C652.419 298.341 652.419 298.341 652.419 298.341C652.419 298.341 652.42 298.34 652.421 298.34C652.42 298.34 652.419 298.341 652.419 298.341ZM664.602 297.368L663.705 298.175L664.8 298.684C669.602 300.914 672.851 305.711 672.851 311.183C672.851 312.573 672.304 314.807 671.371 316.695C670.908 317.633 670.372 318.438 669.804 318.996C669.232 319.558 668.697 319.807 668.215 319.807H650.101C649.619 319.807 649.084 319.558 648.512 318.996C647.944 318.438 647.408 317.633 646.945 316.695C646.012 314.807 645.465 312.573 645.465 311.183C645.465 305.711 648.714 300.914 653.516 298.684L654.611 298.175L653.714 297.368C652.045 295.866 650.899 293.718 650.899 291.259C650.899 286.627 654.527 283 659.158 283C663.789 283 667.417 286.627 667.417 291.259C667.417 293.718 666.271 295.866 664.602 297.368ZM659.158 285.027C655.638 285.027 652.927 287.739 652.927 291.259C652.927 294.778 655.638 297.49 659.158 297.49C662.678 297.49 665.389 294.778 665.389 291.259C665.389 287.739 662.678 285.027 659.158 285.027ZM650.101 317.779H668.215C668.658 317.779 668.983 317.537 669.184 317.324C669.388 317.109 669.547 316.838 669.675 316.574C669.932 316.04 670.14 315.353 670.303 314.677C670.628 313.329 670.823 311.812 670.823 311.183C670.823 304.766 665.576 299.518 659.158 299.518C652.74 299.518 647.493 304.766 647.493 311.183C647.493 311.812 647.688 313.329 648.013 314.677C648.176 315.353 648.384 316.04 648.641 316.574C648.769 316.838 648.928 317.109 649.132 317.324C649.333 317.537 649.658 317.779 650.101 317.779Z" fill="#004357"/>
</g>
<mask id="mask33_6258_101303" style="mask-type:alpha" maskUnits="userSpaceOnUse" x="688" y="281" width="32" height="36">
<path d="M688.106 281.099H720V300.671C720 309.478 712.86 316.617 704.053 316.617V316.617C695.246 316.617 688.106 309.478 688.106 300.671V281.099Z" fill="#D9D9D9"/>
</mask>
<g mask="url(#mask33_6258_101303)">
<path fill-rule="evenodd" clip-rule="evenodd" d="M697.07 298.341C697.07 298.341 697.07 298.341 697.07 298.341C697.071 298.341 697.071 298.34 697.072 298.34C697.071 298.34 697.071 298.341 697.07 298.341ZM709.253 297.368L708.356 298.175L709.451 298.684C714.254 300.914 717.503 305.711 717.503 311.183C717.503 312.573 716.956 314.807 716.023 316.695C715.559 317.633 715.024 318.438 714.455 318.996C713.883 319.558 713.349 319.807 712.866 319.807H694.753C694.27 319.807 693.735 319.558 693.164 318.996C692.595 318.438 692.059 317.633 691.596 316.695C690.663 314.807 690.116 312.573 690.116 311.183C690.116 305.711 693.365 300.914 698.168 298.684L699.263 298.175L698.365 297.368C696.697 295.866 695.55 293.718 695.55 291.259C695.55 286.627 699.178 283 703.809 283C708.441 283 712.069 286.627 712.069 291.259C712.069 293.718 710.922 295.866 709.253 297.368ZM703.809 285.027C700.29 285.027 697.578 287.739 697.578 291.259C697.578 294.778 700.29 297.49 703.809 297.49C707.329 297.49 710.041 294.778 710.041 291.259C710.041 287.739 707.329 285.027 703.809 285.027ZM694.753 317.779H712.866C713.309 317.779 713.634 317.537 713.835 317.324C714.039 317.109 714.199 316.838 714.326 316.574C714.583 316.04 714.791 315.353 714.954 314.677C715.28 313.329 715.475 311.812 715.475 311.183C715.475 304.766 710.227 299.518 703.809 299.518C697.392 299.518 692.144 304.766 692.144 311.183C692.144 311.812 692.339 313.329 692.665 314.677C692.828 315.353 693.036 316.04 693.293 316.574C693.42 316.838 693.58 317.109 693.784 317.324C693.984 317.537 694.31 317.779 694.753 317.779Z" fill="#004357"/>
</g>
<path d="M570.497 219.442C570.878 219.663 571.366 219.533 571.587 219.152L575.184 212.943C575.405 212.562 575.275 212.074 574.894 211.853C574.513 211.633 574.025 211.762 573.805 212.143L570.607 217.663L565.087 214.465C564.706 214.244 564.219 214.374 563.998 214.755C563.777 215.136 563.907 215.624 564.288 215.844L570.497 219.442ZM524.964 191.409C535.697 189.15 545.443 190.294 553.256 194.833C561.062 199.369 567.035 207.35 570.126 218.957L571.667 218.547C568.489 206.61 562.293 198.24 554.057 193.455C545.828 188.674 535.661 187.528 524.636 189.848L524.964 191.409Z" fill="#004357"/>
</svg>
