<svg width="720" height="388" viewBox="0 0 720 388" fill="none" xmlns="http://www.w3.org/2000/svg">
<path d="M1 98C1 86.9543 9.95431 78 21 78V78C32.0457 78 41 86.9543 41 98V98C41 109.046 32.0457 118 21 118V118C9.95431 118 1 109.046 1 98V98Z" fill="#BED73C"/>
<circle cx="21" cy="98" r="20" fill="#BED73C"/>
<mask id="mask0_6262_111945" style="mask-type:alpha" maskUnits="userSpaceOnUse" x="1" y="73" width="40" height="45">
<path d="M1 73.4531H41V97.9988C41 109.044 32.0457 117.999 21 117.999V117.999C9.95431 117.999 1 109.044 1 97.9988V73.4531Z" fill="#D9D9D9"/>
</mask>
<g mask="url(#mask0_6262_111945)">
<path fill-rule="evenodd" clip-rule="evenodd" d="M27.5226 93.8563L26.3973 94.8691L27.7705 95.5067C33.7937 98.3032 37.8685 104.32 37.8685 111.183C37.8685 112.926 37.1826 115.728 36.0127 118.096C35.4314 119.272 34.7594 120.281 34.0465 120.982C33.3296 121.687 32.6587 121.998 32.0535 121.998H9.33655C8.73133 121.998 8.06039 121.687 7.34347 120.982C6.63063 120.281 5.95863 119.272 5.37734 118.096C4.20742 115.728 3.52148 112.926 3.52148 111.183C3.52148 104.32 7.5963 98.3032 13.6195 95.5067L14.9927 94.8691L13.8674 93.8563C11.7745 91.9727 10.3366 89.2781 10.3366 86.1944C10.3366 80.3859 14.8866 75.8359 20.695 75.8359C26.5035 75.8359 31.0535 80.3859 31.0535 86.1944C31.0535 89.2781 29.6155 91.9727 27.5226 93.8563ZM20.695 78.3793C16.2808 78.3793 12.8799 81.7802 12.8799 86.1944C12.8799 90.6085 16.2808 94.0095 20.695 94.0095C25.1092 94.0095 28.5101 90.6085 28.5101 86.1944C28.5101 81.7802 25.1092 78.3793 20.695 78.3793ZM9.33655 119.455H32.0535C32.6092 119.455 33.0173 119.151 33.269 118.885C33.5247 118.615 33.7249 118.275 33.8845 117.944C34.2069 117.274 34.4678 116.413 34.6725 115.565C35.0805 113.874 35.3251 111.972 35.3251 111.183C35.3251 103.134 28.7439 96.5528 20.695 96.5528C12.6461 96.5528 6.06486 103.134 6.06486 111.183C6.06486 111.972 6.30952 113.874 6.71748 115.565C6.92219 116.413 7.18316 117.274 7.50552 117.944C7.66513 118.275 7.86528 118.615 8.12101 118.885C8.37275 119.151 8.78076 119.455 9.33655 119.455Z" fill="#004357"/>
</g>
<path d="M57 98C57 86.9543 65.9543 78 77 78V78C88.0457 78 97 86.9543 97 98V98C97 109.046 88.0457 118 77 118V118C65.9543 118 57 109.046 57 98V98Z" fill="#BED73C"/>
<circle cx="77" cy="98" r="20" fill="#BED73C"/>
<mask id="mask1_6262_111945" style="mask-type:alpha" maskUnits="userSpaceOnUse" x="57" y="73" width="40" height="45">
<path d="M57 73.4531H97V97.9988C97 109.044 88.0457 117.999 77 117.999V117.999C65.9543 117.999 57 109.044 57 97.9988V73.4531Z" fill="#D9D9D9"/>
</mask>
<g mask="url(#mask1_6262_111945)">
<path fill-rule="evenodd" clip-rule="evenodd" d="M83.5226 93.8563L82.3973 94.8691L83.7705 95.5067C89.7937 98.3032 93.8685 104.32 93.8685 111.183C93.8685 112.926 93.1826 115.728 92.0127 118.096C91.4314 119.272 90.7594 120.281 90.0465 120.982C89.3296 121.687 88.6587 121.998 88.0535 121.998H65.3366C64.7313 121.998 64.0604 121.687 63.3435 120.982C62.6306 120.281 61.9586 119.272 61.3773 118.096C60.2074 115.728 59.5215 112.926 59.5215 111.183C59.5215 104.32 63.5963 98.3032 69.6195 95.5067L70.9927 94.8691L69.8674 93.8563C67.7745 91.9727 66.3366 89.2781 66.3366 86.1944C66.3366 80.3859 70.8866 75.8359 76.695 75.8359C82.5035 75.8359 87.0535 80.3859 87.0535 86.1944C87.0535 89.2781 85.6155 91.9727 83.5226 93.8563ZM76.695 78.3793C72.2808 78.3793 68.8799 81.7802 68.8799 86.1944C68.8799 90.6085 72.2808 94.0095 76.695 94.0095C81.1092 94.0095 84.5101 90.6085 84.5101 86.1944C84.5101 81.7802 81.1092 78.3793 76.695 78.3793ZM65.3366 119.455H88.0535C88.6092 119.455 89.0173 119.151 89.269 118.885C89.5247 118.615 89.7249 118.275 89.8845 117.944C90.2069 117.274 90.4678 116.413 90.6725 115.565C91.0805 113.874 91.3251 111.972 91.3251 111.183C91.3251 103.134 84.7439 96.5528 76.695 96.5528C68.6461 96.5528 62.0649 103.134 62.0649 111.183C62.0649 111.972 62.3095 113.874 62.7175 115.565C62.9222 116.413 63.1832 117.274 63.5055 117.944C63.6651 118.275 63.8653 118.615 64.121 118.885C64.3727 119.151 64.7808 119.455 65.3366 119.455Z" fill="#004357"/>
</g>
<path d="M113 98C113 86.9543 121.954 78 133 78V78C144.046 78 153 86.9543 153 98V98C153 109.046 144.046 118 133 118V118C121.954 118 113 109.046 113 98V98Z" fill="#BED73C"/>
<circle cx="133" cy="98" r="20" fill="#BED73C"/>
<mask id="mask2_6262_111945" style="mask-type:alpha" maskUnits="userSpaceOnUse" x="113" y="73" width="40" height="45">
<path d="M113 73.4531H153V97.9988C153 109.044 144.046 117.999 133 117.999V117.999C121.954 117.999 113 109.044 113 97.9988V73.4531Z" fill="#D9D9D9"/>
</mask>
<g mask="url(#mask2_6262_111945)">
<path fill-rule="evenodd" clip-rule="evenodd" d="M139.523 93.8563L138.397 94.8691L139.77 95.5067C145.794 98.3032 149.869 104.32 149.869 111.183C149.869 112.926 149.183 115.728 148.013 118.096C147.431 119.272 146.759 120.281 146.047 120.982C145.33 121.687 144.659 121.998 144.053 121.998H121.337C120.731 121.998 120.06 121.687 119.343 120.982C118.631 120.281 117.959 119.272 117.377 118.096C116.207 115.728 115.521 112.926 115.521 111.183C115.521 104.32 119.596 98.3032 125.62 95.5067L126.993 94.8691L125.867 93.8563C123.774 91.9727 122.337 89.2781 122.337 86.1944C122.337 80.3859 126.887 75.8359 132.695 75.8359C138.503 75.8359 143.053 80.3859 143.053 86.1944C143.053 89.2781 141.616 91.9727 139.523 93.8563ZM132.695 78.3793C128.281 78.3793 124.88 81.7802 124.88 86.1944C124.88 90.6085 128.281 94.0095 132.695 94.0095C137.109 94.0095 140.51 90.6085 140.51 86.1944C140.51 81.7802 137.109 78.3793 132.695 78.3793ZM121.337 119.455H144.053C144.609 119.455 145.017 119.151 145.269 118.885C145.525 118.615 145.725 118.275 145.884 117.944C146.207 117.274 146.468 116.413 146.673 115.565C147.08 113.874 147.325 111.972 147.325 111.183C147.325 103.134 140.744 96.5528 132.695 96.5528C124.646 96.5528 118.065 103.134 118.065 111.183C118.065 111.972 118.31 113.874 118.717 115.565C118.922 116.413 119.183 117.274 119.506 117.944C119.665 118.275 119.865 118.615 120.121 118.885C120.373 119.151 120.781 119.455 121.337 119.455Z" fill="#004357"/>
</g>
<path d="M169 98C169 86.9543 177.954 78 189 78V78C200.046 78 209 86.9543 209 98V98C209 109.046 200.046 118 189 118V118C177.954 118 169 109.046 169 98V98Z" fill="#BED73C"/>
<circle cx="189" cy="98" r="20" fill="#BED73C"/>
<mask id="mask3_6262_111945" style="mask-type:alpha" maskUnits="userSpaceOnUse" x="169" y="73" width="40" height="45">
<path d="M169 73.4531H209V97.9988C209 109.044 200.046 117.999 189 117.999V117.999C177.954 117.999 169 109.044 169 97.9988V73.4531Z" fill="#D9D9D9"/>
</mask>
<g mask="url(#mask3_6262_111945)">
<path fill-rule="evenodd" clip-rule="evenodd" d="M195.523 93.8563L194.397 94.8691L195.77 95.5067C201.794 98.3032 205.869 104.32 205.869 111.183C205.869 112.926 205.183 115.728 204.013 118.096C203.431 119.272 202.759 120.281 202.047 120.982C201.33 121.687 200.659 121.998 200.053 121.998H177.337C176.731 121.998 176.06 121.687 175.343 120.982C174.631 120.281 173.959 119.272 173.377 118.096C172.207 115.728 171.521 112.926 171.521 111.183C171.521 104.32 175.596 98.3032 181.62 95.5067L182.993 94.8691L181.867 93.8563C179.774 91.9727 178.337 89.2781 178.337 86.1944C178.337 80.3859 182.887 75.8359 188.695 75.8359C194.503 75.8359 199.053 80.3859 199.053 86.1944C199.053 89.2781 197.616 91.9727 195.523 93.8563ZM188.695 78.3793C184.281 78.3793 180.88 81.7802 180.88 86.1944C180.88 90.6085 184.281 94.0095 188.695 94.0095C193.109 94.0095 196.51 90.6085 196.51 86.1944C196.51 81.7802 193.109 78.3793 188.695 78.3793ZM177.337 119.455H200.053C200.609 119.455 201.017 119.151 201.269 118.885C201.525 118.615 201.725 118.275 201.884 117.944C202.207 117.274 202.468 116.413 202.673 115.565C203.08 113.874 203.325 111.972 203.325 111.183C203.325 103.134 196.744 96.5528 188.695 96.5528C180.646 96.5528 174.065 103.134 174.065 111.183C174.065 111.972 174.31 113.874 174.717 115.565C174.922 116.413 175.183 117.274 175.506 117.944C175.665 118.275 175.865 118.615 176.121 118.885C176.373 119.151 176.781 119.455 177.337 119.455Z" fill="#004357"/>
</g>
<path d="M225 98C225 86.9543 233.954 78 245 78V78C256.046 78 265 86.9543 265 98V98C265 109.046 256.046 118 245 118V118C233.954 118 225 109.046 225 98V98Z" fill="#BED73C"/>
<circle cx="245" cy="98" r="20" fill="#BED73C"/>
<mask id="mask4_6262_111945" style="mask-type:alpha" maskUnits="userSpaceOnUse" x="225" y="73" width="40" height="45">
<path d="M225 73.4531H265V97.9988C265 109.044 256.046 117.999 245 117.999V117.999C233.954 117.999 225 109.044 225 97.9988V73.4531Z" fill="#D9D9D9"/>
</mask>
<g mask="url(#mask4_6262_111945)">
<path fill-rule="evenodd" clip-rule="evenodd" d="M251.523 93.8563L250.397 94.8691L251.77 95.5067C257.794 98.3032 261.869 104.32 261.869 111.183C261.869 112.926 261.183 115.728 260.013 118.096C259.431 119.272 258.759 120.281 258.047 120.982C257.33 121.687 256.659 121.998 256.053 121.998H233.337C232.731 121.998 232.06 121.687 231.343 120.982C230.631 120.281 229.959 119.272 229.377 118.096C228.207 115.728 227.521 112.926 227.521 111.183C227.521 104.32 231.596 98.3032 237.62 95.5067L238.993 94.8691L237.867 93.8563C235.774 91.9727 234.337 89.2781 234.337 86.1944C234.337 80.3859 238.887 75.8359 244.695 75.8359C250.503 75.8359 255.053 80.3859 255.053 86.1944C255.053 89.2781 253.616 91.9727 251.523 93.8563ZM244.695 78.3793C240.281 78.3793 236.88 81.7802 236.88 86.1944C236.88 90.6085 240.281 94.0095 244.695 94.0095C249.109 94.0095 252.51 90.6085 252.51 86.1944C252.51 81.7802 249.109 78.3793 244.695 78.3793ZM233.337 119.455H256.053C256.609 119.455 257.017 119.151 257.269 118.885C257.525 118.615 257.725 118.275 257.884 117.944C258.207 117.274 258.468 116.413 258.673 115.565C259.08 113.874 259.325 111.972 259.325 111.183C259.325 103.134 252.744 96.5528 244.695 96.5528C236.646 96.5528 230.065 103.134 230.065 111.183C230.065 111.972 230.31 113.874 230.717 115.565C230.922 116.413 231.183 117.274 231.506 117.944C231.665 118.275 231.865 118.615 232.121 118.885C232.373 119.151 232.781 119.455 233.337 119.455Z" fill="#004357"/>
</g>
<path d="M281 98C281 86.9543 289.954 78 301 78V78C312.046 78 321 86.9543 321 98V98C321 109.046 312.046 118 301 118V118C289.954 118 281 109.046 281 98V98Z" fill="#F3F4F6"/>
<circle cx="301" cy="98" r="20" fill="#F3F4F6"/>
<mask id="mask5_6262_111945" style="mask-type:alpha" maskUnits="userSpaceOnUse" x="281" y="73" width="40" height="45">
<path d="M281 73.4531H321V97.9988C321 109.044 312.046 117.999 301 117.999V117.999C289.954 117.999 281 109.044 281 97.9988V73.4531Z" fill="#D9D9D9"/>
</mask>
<g mask="url(#mask5_6262_111945)">
<path fill-rule="evenodd" clip-rule="evenodd" d="M307.523 93.8563L306.397 94.8691L307.77 95.5067C313.794 98.3032 317.869 104.32 317.869 111.183C317.869 112.926 317.183 115.728 316.013 118.096C315.431 119.272 314.759 120.281 314.047 120.982C313.33 121.687 312.659 121.998 312.053 121.998H289.337C288.731 121.998 288.06 121.687 287.343 120.982C286.631 120.281 285.959 119.272 285.377 118.096C284.207 115.728 283.521 112.926 283.521 111.183C283.521 104.32 287.596 98.3032 293.62 95.5067L294.993 94.8691L293.867 93.8563C291.774 91.9727 290.337 89.2781 290.337 86.1944C290.337 80.3859 294.887 75.8359 300.695 75.8359C306.503 75.8359 311.053 80.3859 311.053 86.1944C311.053 89.2781 309.616 91.9727 307.523 93.8563ZM300.695 78.3793C296.281 78.3793 292.88 81.7802 292.88 86.1944C292.88 90.6085 296.281 94.0095 300.695 94.0095C305.109 94.0095 308.51 90.6085 308.51 86.1944C308.51 81.7802 305.109 78.3793 300.695 78.3793ZM289.337 119.455H312.053C312.609 119.455 313.017 119.151 313.269 118.885C313.525 118.615 313.725 118.275 313.884 117.944C314.207 117.274 314.468 116.413 314.673 115.565C315.08 113.874 315.325 111.972 315.325 111.183C315.325 103.134 308.744 96.5528 300.695 96.5528C292.646 96.5528 286.065 103.134 286.065 111.183C286.065 111.972 286.31 113.874 286.717 115.565C286.922 116.413 287.183 117.274 287.506 117.944C287.665 118.275 287.865 118.615 288.121 118.885C288.373 119.151 288.781 119.455 289.337 119.455Z" fill="#004357"/>
</g>
<path d="M337 98C337 86.9543 345.954 78 357 78V78C368.046 78 377 86.9543 377 98V98C377 109.046 368.046 118 357 118V118C345.954 118 337 109.046 337 98V98Z" fill="#F3F4F6"/>
<circle cx="357" cy="98" r="20" fill="#F3F4F6"/>
<mask id="mask6_6262_111945" style="mask-type:alpha" maskUnits="userSpaceOnUse" x="337" y="73" width="40" height="45">
<path d="M337 73.4531H377V97.9988C377 109.044 368.046 117.999 357 117.999V117.999C345.954 117.999 337 109.044 337 97.9988V73.4531Z" fill="#D9D9D9"/>
</mask>
<g mask="url(#mask6_6262_111945)">
<path fill-rule="evenodd" clip-rule="evenodd" d="M363.523 93.8563L362.397 94.8691L363.77 95.5067C369.794 98.3032 373.869 104.32 373.869 111.183C373.869 112.926 373.183 115.728 372.013 118.096C371.431 119.272 370.759 120.281 370.047 120.982C369.33 121.687 368.659 121.998 368.053 121.998H345.337C344.731 121.998 344.06 121.687 343.343 120.982C342.631 120.281 341.959 119.272 341.377 118.096C340.207 115.728 339.521 112.926 339.521 111.183C339.521 104.32 343.596 98.3032 349.62 95.5067L350.993 94.8691L349.867 93.8563C347.774 91.9727 346.337 89.2781 346.337 86.1944C346.337 80.3859 350.887 75.8359 356.695 75.8359C362.503 75.8359 367.053 80.3859 367.053 86.1944C367.053 89.2781 365.616 91.9727 363.523 93.8563ZM356.695 78.3793C352.281 78.3793 348.88 81.7802 348.88 86.1944C348.88 90.6085 352.281 94.0095 356.695 94.0095C361.109 94.0095 364.51 90.6085 364.51 86.1944C364.51 81.7802 361.109 78.3793 356.695 78.3793ZM345.337 119.455H368.053C368.609 119.455 369.017 119.151 369.269 118.885C369.525 118.615 369.725 118.275 369.884 117.944C370.207 117.274 370.468 116.413 370.673 115.565C371.08 113.874 371.325 111.972 371.325 111.183C371.325 103.134 364.744 96.5528 356.695 96.5528C348.646 96.5528 342.065 103.134 342.065 111.183C342.065 111.972 342.31 113.874 342.717 115.565C342.922 116.413 343.183 117.274 343.506 117.944C343.665 118.275 343.865 118.615 344.121 118.885C344.373 119.151 344.781 119.455 345.337 119.455Z" fill="#004357"/>
</g>
<path d="M393 98C393 86.9543 401.954 78 413 78V78C424.046 78 433 86.9543 433 98V98C433 109.046 424.046 118 413 118V118C401.954 118 393 109.046 393 98V98Z" fill="#F3F4F6"/>
<circle cx="413" cy="98" r="20" fill="#F3F4F6"/>
<mask id="mask7_6262_111945" style="mask-type:alpha" maskUnits="userSpaceOnUse" x="393" y="73" width="40" height="45">
<path d="M393 73.4531H433V97.9988C433 109.044 424.046 117.999 413 117.999V117.999C401.954 117.999 393 109.044 393 97.9988V73.4531Z" fill="#D9D9D9"/>
</mask>
<g mask="url(#mask7_6262_111945)">
<path fill-rule="evenodd" clip-rule="evenodd" d="M419.523 93.8563L418.397 94.8691L419.77 95.5067C425.794 98.3032 429.869 104.32 429.869 111.183C429.869 112.926 429.183 115.728 428.013 118.096C427.431 119.272 426.759 120.281 426.047 120.982C425.33 121.687 424.659 121.998 424.053 121.998H401.337C400.731 121.998 400.06 121.687 399.343 120.982C398.631 120.281 397.959 119.272 397.377 118.096C396.207 115.728 395.521 112.926 395.521 111.183C395.521 104.32 399.596 98.3032 405.62 95.5067L406.993 94.8691L405.867 93.8563C403.774 91.9727 402.337 89.2781 402.337 86.1944C402.337 80.3859 406.887 75.8359 412.695 75.8359C418.503 75.8359 423.053 80.3859 423.053 86.1944C423.053 89.2781 421.616 91.9727 419.523 93.8563ZM412.695 78.3793C408.281 78.3793 404.88 81.7802 404.88 86.1944C404.88 90.6085 408.281 94.0095 412.695 94.0095C417.109 94.0095 420.51 90.6085 420.51 86.1944C420.51 81.7802 417.109 78.3793 412.695 78.3793ZM401.337 119.455H424.053C424.609 119.455 425.017 119.151 425.269 118.885C425.525 118.615 425.725 118.275 425.884 117.944C426.207 117.274 426.468 116.413 426.673 115.565C427.08 113.874 427.325 111.972 427.325 111.183C427.325 103.134 420.744 96.5528 412.695 96.5528C404.646 96.5528 398.065 103.134 398.065 111.183C398.065 111.972 398.31 113.874 398.717 115.565C398.922 116.413 399.183 117.274 399.506 117.944C399.665 118.275 399.865 118.615 400.121 118.885C400.373 119.151 400.781 119.455 401.337 119.455Z" fill="#004357"/>
</g>
<path d="M449 98C449 86.9543 457.954 78 469 78V78C480.046 78 489 86.9543 489 98V98C489 109.046 480.046 118 469 118V118C457.954 118 449 109.046 449 98V98Z" fill="#F3F4F6"/>
<circle cx="469" cy="98" r="20" fill="#F3F4F6"/>
<mask id="mask8_6262_111945" style="mask-type:alpha" maskUnits="userSpaceOnUse" x="449" y="73" width="40" height="45">
<path d="M449 73.4531H489V97.9988C489 109.044 480.046 117.999 469 117.999V117.999C457.954 117.999 449 109.044 449 97.9988V73.4531Z" fill="#D9D9D9"/>
</mask>
<g mask="url(#mask8_6262_111945)">
<path fill-rule="evenodd" clip-rule="evenodd" d="M475.523 93.8563L474.397 94.8691L475.77 95.5067C481.794 98.3032 485.869 104.32 485.869 111.183C485.869 112.926 485.183 115.728 484.013 118.096C483.431 119.272 482.759 120.281 482.047 120.982C481.33 121.687 480.659 121.998 480.053 121.998H457.337C456.731 121.998 456.06 121.687 455.343 120.982C454.631 120.281 453.959 119.272 453.377 118.096C452.207 115.728 451.521 112.926 451.521 111.183C451.521 104.32 455.596 98.3032 461.62 95.5067L462.993 94.8691L461.867 93.8563C459.774 91.9727 458.337 89.2781 458.337 86.1944C458.337 80.3859 462.887 75.8359 468.695 75.8359C474.503 75.8359 479.053 80.3859 479.053 86.1944C479.053 89.2781 477.616 91.9727 475.523 93.8563ZM468.695 78.3793C464.281 78.3793 460.88 81.7802 460.88 86.1944C460.88 90.6085 464.281 94.0095 468.695 94.0095C473.109 94.0095 476.51 90.6085 476.51 86.1944C476.51 81.7802 473.109 78.3793 468.695 78.3793ZM457.337 119.455H480.053C480.609 119.455 481.017 119.151 481.269 118.885C481.525 118.615 481.725 118.275 481.884 117.944C482.207 117.274 482.468 116.413 482.673 115.565C483.08 113.874 483.325 111.972 483.325 111.183C483.325 103.134 476.744 96.5528 468.695 96.5528C460.646 96.5528 454.065 103.134 454.065 111.183C454.065 111.972 454.31 113.874 454.717 115.565C454.922 116.413 455.183 117.274 455.506 117.944C455.665 118.275 455.865 118.615 456.121 118.885C456.373 119.151 456.781 119.455 457.337 119.455Z" fill="#004357"/>
</g>
<path d="M1 154C1 142.954 9.95431 134 21 134V134C32.0457 134 41 142.954 41 154V154C41 165.046 32.0457 174 21 174V174C9.95431 174 1 165.046 1 154V154Z" fill="#F3F4F6"/>
<circle cx="21" cy="154" r="20" fill="#F3F4F6"/>
<mask id="mask9_6262_111945" style="mask-type:alpha" maskUnits="userSpaceOnUse" x="1" y="129" width="40" height="45">
<path d="M1 129.453H41V153.999C41 165.044 32.0457 173.999 21 173.999V173.999C9.95431 173.999 1 165.044 1 153.999V129.453Z" fill="#D9D9D9"/>
</mask>
<g mask="url(#mask9_6262_111945)">
<path fill-rule="evenodd" clip-rule="evenodd" d="M27.5226 149.856L26.3973 150.869L27.7705 151.507C33.7937 154.303 37.8685 160.32 37.8685 167.183C37.8685 168.926 37.1826 171.728 36.0127 174.096C35.4314 175.272 34.7594 176.281 34.0465 176.982C33.3296 177.687 32.6587 177.998 32.0535 177.998H9.33655C8.73133 177.998 8.06039 177.687 7.34347 176.982C6.63063 176.281 5.95863 175.272 5.37734 174.096C4.20742 171.728 3.52148 168.926 3.52148 167.183C3.52148 160.32 7.5963 154.303 13.6195 151.507L14.9927 150.869L13.8674 149.856C11.7745 147.973 10.3366 145.278 10.3366 142.194C10.3366 136.386 14.8866 131.836 20.695 131.836C26.5035 131.836 31.0535 136.386 31.0535 142.194C31.0535 145.278 29.6155 147.973 27.5226 149.856ZM20.695 134.379C16.2808 134.379 12.8799 137.78 12.8799 142.194C12.8799 146.609 16.2808 150.009 20.695 150.009C25.1092 150.009 28.5101 146.609 28.5101 142.194C28.5101 137.78 25.1092 134.379 20.695 134.379ZM9.33655 175.455H32.0535C32.6092 175.455 33.0173 175.151 33.269 174.885C33.5247 174.615 33.7249 174.275 33.8845 173.944C34.2069 173.274 34.4678 172.413 34.6725 171.565C35.0805 169.874 35.3251 167.972 35.3251 167.183C35.3251 159.134 28.7439 152.553 20.695 152.553C12.6461 152.553 6.06486 159.134 6.06486 167.183C6.06486 167.972 6.30952 169.874 6.71748 171.565C6.92219 172.413 7.18316 173.274 7.50552 173.944C7.66513 174.275 7.86528 174.615 8.12101 174.885C8.37275 175.151 8.78076 175.455 9.33655 175.455Z" fill="#004357"/>
</g>
<path d="M57 154C57 142.954 65.9543 134 77 134V134C88.0457 134 97 142.954 97 154V154C97 165.046 88.0457 174 77 174V174C65.9543 174 57 165.046 57 154V154Z" fill="#F3F4F6"/>
<circle cx="77" cy="154" r="20" fill="#F3F4F6"/>
<mask id="mask10_6262_111945" style="mask-type:alpha" maskUnits="userSpaceOnUse" x="57" y="129" width="40" height="45">
<path d="M57 129.453H97V153.999C97 165.044 88.0457 173.999 77 173.999V173.999C65.9543 173.999 57 165.044 57 153.999V129.453Z" fill="#D9D9D9"/>
</mask>
<g mask="url(#mask10_6262_111945)">
<path fill-rule="evenodd" clip-rule="evenodd" d="M83.5226 149.856L82.3973 150.869L83.7705 151.507C89.7937 154.303 93.8685 160.32 93.8685 167.183C93.8685 168.926 93.1826 171.728 92.0127 174.096C91.4314 175.272 90.7594 176.281 90.0465 176.982C89.3296 177.687 88.6587 177.998 88.0535 177.998H65.3366C64.7313 177.998 64.0604 177.687 63.3435 176.982C62.6306 176.281 61.9586 175.272 61.3773 174.096C60.2074 171.728 59.5215 168.926 59.5215 167.183C59.5215 160.32 63.5963 154.303 69.6195 151.507L70.9927 150.869L69.8674 149.856C67.7745 147.973 66.3366 145.278 66.3366 142.194C66.3366 136.386 70.8866 131.836 76.695 131.836C82.5035 131.836 87.0535 136.386 87.0535 142.194C87.0535 145.278 85.6155 147.973 83.5226 149.856ZM76.695 134.379C72.2808 134.379 68.8799 137.78 68.8799 142.194C68.8799 146.609 72.2808 150.009 76.695 150.009C81.1092 150.009 84.5101 146.609 84.5101 142.194C84.5101 137.78 81.1092 134.379 76.695 134.379ZM65.3366 175.455H88.0535C88.6092 175.455 89.0173 175.151 89.269 174.885C89.5247 174.615 89.7249 174.275 89.8845 173.944C90.2069 173.274 90.4678 172.413 90.6725 171.565C91.0805 169.874 91.3251 167.972 91.3251 167.183C91.3251 159.134 84.7439 152.553 76.695 152.553C68.6461 152.553 62.0649 159.134 62.0649 167.183C62.0649 167.972 62.3095 169.874 62.7175 171.565C62.9222 172.413 63.1832 173.274 63.5055 173.944C63.6651 174.275 63.8653 174.615 64.121 174.885C64.3727 175.151 64.7808 175.455 65.3366 175.455Z" fill="#004357"/>
</g>
<path d="M113 154C113 142.954 121.954 134 133 134V134C144.046 134 153 142.954 153 154V154C153 165.046 144.046 174 133 174V174C121.954 174 113 165.046 113 154V154Z" fill="#F3F4F6"/>
<circle cx="133" cy="154" r="20" fill="#F3F4F6"/>
<mask id="mask11_6262_111945" style="mask-type:alpha" maskUnits="userSpaceOnUse" x="113" y="129" width="40" height="45">
<path d="M113 129.453H153V153.999C153 165.044 144.046 173.999 133 173.999V173.999C121.954 173.999 113 165.044 113 153.999V129.453Z" fill="#D9D9D9"/>
</mask>
<g mask="url(#mask11_6262_111945)">
<path fill-rule="evenodd" clip-rule="evenodd" d="M139.523 149.856L138.397 150.869L139.77 151.507C145.794 154.303 149.869 160.32 149.869 167.183C149.869 168.926 149.183 171.728 148.013 174.096C147.431 175.272 146.759 176.281 146.047 176.982C145.33 177.687 144.659 177.998 144.053 177.998H121.337C120.731 177.998 120.06 177.687 119.343 176.982C118.631 176.281 117.959 175.272 117.377 174.096C116.207 171.728 115.521 168.926 115.521 167.183C115.521 160.32 119.596 154.303 125.62 151.507L126.993 150.869L125.867 149.856C123.774 147.973 122.337 145.278 122.337 142.194C122.337 136.386 126.887 131.836 132.695 131.836C138.503 131.836 143.053 136.386 143.053 142.194C143.053 145.278 141.616 147.973 139.523 149.856ZM132.695 134.379C128.281 134.379 124.88 137.78 124.88 142.194C124.88 146.609 128.281 150.009 132.695 150.009C137.109 150.009 140.51 146.609 140.51 142.194C140.51 137.78 137.109 134.379 132.695 134.379ZM121.337 175.455H144.053C144.609 175.455 145.017 175.151 145.269 174.885C145.525 174.615 145.725 174.275 145.884 173.944C146.207 173.274 146.468 172.413 146.673 171.565C147.08 169.874 147.325 167.972 147.325 167.183C147.325 159.134 140.744 152.553 132.695 152.553C124.646 152.553 118.065 159.134 118.065 167.183C118.065 167.972 118.31 169.874 118.717 171.565C118.922 172.413 119.183 173.274 119.506 173.944C119.665 174.275 119.865 174.615 120.121 174.885C120.373 175.151 120.781 175.455 121.337 175.455Z" fill="#004357"/>
</g>
<path d="M169 154C169 142.954 177.954 134 189 134V134C200.046 134 209 142.954 209 154V154C209 165.046 200.046 174 189 174V174C177.954 174 169 165.046 169 154V154Z" fill="#F3F4F6"/>
<circle cx="189" cy="154" r="20" fill="#F3F4F6"/>
<mask id="mask12_6262_111945" style="mask-type:alpha" maskUnits="userSpaceOnUse" x="169" y="129" width="40" height="45">
<path d="M169 129.453H209V153.999C209 165.044 200.046 173.999 189 173.999V173.999C177.954 173.999 169 165.044 169 153.999V129.453Z" fill="#D9D9D9"/>
</mask>
<g mask="url(#mask12_6262_111945)">
<path fill-rule="evenodd" clip-rule="evenodd" d="M195.523 149.856L194.397 150.869L195.77 151.507C201.794 154.303 205.869 160.32 205.869 167.183C205.869 168.926 205.183 171.728 204.013 174.096C203.431 175.272 202.759 176.281 202.047 176.982C201.33 177.687 200.659 177.998 200.053 177.998H177.337C176.731 177.998 176.06 177.687 175.343 176.982C174.631 176.281 173.959 175.272 173.377 174.096C172.207 171.728 171.521 168.926 171.521 167.183C171.521 160.32 175.596 154.303 181.62 151.507L182.993 150.869L181.867 149.856C179.774 147.973 178.337 145.278 178.337 142.194C178.337 136.386 182.887 131.836 188.695 131.836C194.503 131.836 199.053 136.386 199.053 142.194C199.053 145.278 197.616 147.973 195.523 149.856ZM188.695 134.379C184.281 134.379 180.88 137.78 180.88 142.194C180.88 146.609 184.281 150.009 188.695 150.009C193.109 150.009 196.51 146.609 196.51 142.194C196.51 137.78 193.109 134.379 188.695 134.379ZM177.337 175.455H200.053C200.609 175.455 201.017 175.151 201.269 174.885C201.525 174.615 201.725 174.275 201.884 173.944C202.207 173.274 202.468 172.413 202.673 171.565C203.08 169.874 203.325 167.972 203.325 167.183C203.325 159.134 196.744 152.553 188.695 152.553C180.646 152.553 174.065 159.134 174.065 167.183C174.065 167.972 174.31 169.874 174.717 171.565C174.922 172.413 175.183 173.274 175.506 173.944C175.665 174.275 175.865 174.615 176.121 174.885C176.373 175.151 176.781 175.455 177.337 175.455Z" fill="#004357"/>
</g>
<path d="M225 154C225 142.954 233.954 134 245 134V134C256.046 134 265 142.954 265 154V154C265 165.046 256.046 174 245 174V174C233.954 174 225 165.046 225 154V154Z" fill="#F3F4F6"/>
<circle cx="245" cy="154" r="20" fill="#F3F4F6"/>
<mask id="mask13_6262_111945" style="mask-type:alpha" maskUnits="userSpaceOnUse" x="225" y="129" width="40" height="45">
<path d="M225 129.453H265V153.999C265 165.044 256.046 173.999 245 173.999V173.999C233.954 173.999 225 165.044 225 153.999V129.453Z" fill="#D9D9D9"/>
</mask>
<g mask="url(#mask13_6262_111945)">
<path fill-rule="evenodd" clip-rule="evenodd" d="M251.523 149.856L250.397 150.869L251.77 151.507C257.794 154.303 261.869 160.32 261.869 167.183C261.869 168.926 261.183 171.728 260.013 174.096C259.431 175.272 258.759 176.281 258.047 176.982C257.33 177.687 256.659 177.998 256.053 177.998H233.337C232.731 177.998 232.06 177.687 231.343 176.982C230.631 176.281 229.959 175.272 229.377 174.096C228.207 171.728 227.521 168.926 227.521 167.183C227.521 160.32 231.596 154.303 237.62 151.507L238.993 150.869L237.867 149.856C235.774 147.973 234.337 145.278 234.337 142.194C234.337 136.386 238.887 131.836 244.695 131.836C250.503 131.836 255.053 136.386 255.053 142.194C255.053 145.278 253.616 147.973 251.523 149.856ZM244.695 134.379C240.281 134.379 236.88 137.78 236.88 142.194C236.88 146.609 240.281 150.009 244.695 150.009C249.109 150.009 252.51 146.609 252.51 142.194C252.51 137.78 249.109 134.379 244.695 134.379ZM233.337 175.455H256.053C256.609 175.455 257.017 175.151 257.269 174.885C257.525 174.615 257.725 174.275 257.884 173.944C258.207 173.274 258.468 172.413 258.673 171.565C259.08 169.874 259.325 167.972 259.325 167.183C259.325 159.134 252.744 152.553 244.695 152.553C236.646 152.553 230.065 159.134 230.065 167.183C230.065 167.972 230.31 169.874 230.717 171.565C230.922 172.413 231.183 173.274 231.506 173.944C231.665 174.275 231.865 174.615 232.121 174.885C232.373 175.151 232.781 175.455 233.337 175.455Z" fill="#004357"/>
</g>
<path d="M281 154C281 142.954 289.954 134 301 134V134C312.046 134 321 142.954 321 154V154C321 165.046 312.046 174 301 174V174C289.954 174 281 165.046 281 154V154Z" fill="#F3F4F6"/>
<circle cx="301" cy="154" r="20" fill="#F3F4F6"/>
<mask id="mask14_6262_111945" style="mask-type:alpha" maskUnits="userSpaceOnUse" x="281" y="129" width="40" height="45">
<path d="M281 129.453H321V153.999C321 165.044 312.046 173.999 301 173.999V173.999C289.954 173.999 281 165.044 281 153.999V129.453Z" fill="#D9D9D9"/>
</mask>
<g mask="url(#mask14_6262_111945)">
<path fill-rule="evenodd" clip-rule="evenodd" d="M307.523 149.856L306.397 150.869L307.77 151.507C313.794 154.303 317.869 160.32 317.869 167.183C317.869 168.926 317.183 171.728 316.013 174.096C315.431 175.272 314.759 176.281 314.047 176.982C313.33 177.687 312.659 177.998 312.053 177.998H289.337C288.731 177.998 288.06 177.687 287.343 176.982C286.631 176.281 285.959 175.272 285.377 174.096C284.207 171.728 283.521 168.926 283.521 167.183C283.521 160.32 287.596 154.303 293.62 151.507L294.993 150.869L293.867 149.856C291.774 147.973 290.337 145.278 290.337 142.194C290.337 136.386 294.887 131.836 300.695 131.836C306.503 131.836 311.053 136.386 311.053 142.194C311.053 145.278 309.616 147.973 307.523 149.856ZM300.695 134.379C296.281 134.379 292.88 137.78 292.88 142.194C292.88 146.609 296.281 150.009 300.695 150.009C305.109 150.009 308.51 146.609 308.51 142.194C308.51 137.78 305.109 134.379 300.695 134.379ZM289.337 175.455H312.053C312.609 175.455 313.017 175.151 313.269 174.885C313.525 174.615 313.725 174.275 313.884 173.944C314.207 173.274 314.468 172.413 314.673 171.565C315.08 169.874 315.325 167.972 315.325 167.183C315.325 159.134 308.744 152.553 300.695 152.553C292.646 152.553 286.065 159.134 286.065 167.183C286.065 167.972 286.31 169.874 286.717 171.565C286.922 172.413 287.183 173.274 287.506 173.944C287.665 174.275 287.865 174.615 288.121 174.885C288.373 175.151 288.781 175.455 289.337 175.455Z" fill="#004357"/>
</g>
<path d="M337 154C337 142.954 345.954 134 357 134V134C368.046 134 377 142.954 377 154V154C377 165.046 368.046 174 357 174V174C345.954 174 337 165.046 337 154V154Z" fill="#F3F4F6"/>
<circle cx="357" cy="154" r="20" fill="#F3F4F6"/>
<mask id="mask15_6262_111945" style="mask-type:alpha" maskUnits="userSpaceOnUse" x="337" y="129" width="40" height="45">
<path d="M337 129.453H377V153.999C377 165.044 368.046 173.999 357 173.999V173.999C345.954 173.999 337 165.044 337 153.999V129.453Z" fill="#D9D9D9"/>
</mask>
<g mask="url(#mask15_6262_111945)">
<path fill-rule="evenodd" clip-rule="evenodd" d="M363.523 149.856L362.397 150.869L363.77 151.507C369.794 154.303 373.869 160.32 373.869 167.183C373.869 168.926 373.183 171.728 372.013 174.096C371.431 175.272 370.759 176.281 370.047 176.982C369.33 177.687 368.659 177.998 368.053 177.998H345.337C344.731 177.998 344.06 177.687 343.343 176.982C342.631 176.281 341.959 175.272 341.377 174.096C340.207 171.728 339.521 168.926 339.521 167.183C339.521 160.32 343.596 154.303 349.62 151.507L350.993 150.869L349.867 149.856C347.774 147.973 346.337 145.278 346.337 142.194C346.337 136.386 350.887 131.836 356.695 131.836C362.503 131.836 367.053 136.386 367.053 142.194C367.053 145.278 365.616 147.973 363.523 149.856ZM356.695 134.379C352.281 134.379 348.88 137.78 348.88 142.194C348.88 146.609 352.281 150.009 356.695 150.009C361.109 150.009 364.51 146.609 364.51 142.194C364.51 137.78 361.109 134.379 356.695 134.379ZM345.337 175.455H368.053C368.609 175.455 369.017 175.151 369.269 174.885C369.525 174.615 369.725 174.275 369.884 173.944C370.207 173.274 370.468 172.413 370.673 171.565C371.08 169.874 371.325 167.972 371.325 167.183C371.325 159.134 364.744 152.553 356.695 152.553C348.646 152.553 342.065 159.134 342.065 167.183C342.065 167.972 342.31 169.874 342.717 171.565C342.922 172.413 343.183 173.274 343.506 173.944C343.665 174.275 343.865 174.615 344.121 174.885C344.373 175.151 344.781 175.455 345.337 175.455Z" fill="#004357"/>
</g>
<path d="M393 154C393 142.954 401.954 134 413 134V134C424.046 134 433 142.954 433 154V154C433 165.046 424.046 174 413 174V174C401.954 174 393 165.046 393 154V154Z" fill="#F3F4F6"/>
<circle cx="413" cy="154" r="20" fill="#F3F4F6"/>
<mask id="mask16_6262_111945" style="mask-type:alpha" maskUnits="userSpaceOnUse" x="393" y="129" width="40" height="45">
<path d="M393 129.453H433V153.999C433 165.044 424.046 173.999 413 173.999V173.999C401.954 173.999 393 165.044 393 153.999V129.453Z" fill="#D9D9D9"/>
</mask>
<g mask="url(#mask16_6262_111945)">
<path fill-rule="evenodd" clip-rule="evenodd" d="M419.523 149.856L418.397 150.869L419.77 151.507C425.794 154.303 429.869 160.32 429.869 167.183C429.869 168.926 429.183 171.728 428.013 174.096C427.431 175.272 426.759 176.281 426.047 176.982C425.33 177.687 424.659 177.998 424.053 177.998H401.337C400.731 177.998 400.06 177.687 399.343 176.982C398.631 176.281 397.959 175.272 397.377 174.096C396.207 171.728 395.521 168.926 395.521 167.183C395.521 160.32 399.596 154.303 405.62 151.507L406.993 150.869L405.867 149.856C403.774 147.973 402.337 145.278 402.337 142.194C402.337 136.386 406.887 131.836 412.695 131.836C418.503 131.836 423.053 136.386 423.053 142.194C423.053 145.278 421.616 147.973 419.523 149.856ZM412.695 134.379C408.281 134.379 404.88 137.78 404.88 142.194C404.88 146.609 408.281 150.009 412.695 150.009C417.109 150.009 420.51 146.609 420.51 142.194C420.51 137.78 417.109 134.379 412.695 134.379ZM401.337 175.455H424.053C424.609 175.455 425.017 175.151 425.269 174.885C425.525 174.615 425.725 174.275 425.884 173.944C426.207 173.274 426.468 172.413 426.673 171.565C427.08 169.874 427.325 167.972 427.325 167.183C427.325 159.134 420.744 152.553 412.695 152.553C404.646 152.553 398.065 159.134 398.065 167.183C398.065 167.972 398.31 169.874 398.717 171.565C398.922 172.413 399.183 173.274 399.506 173.944C399.665 174.275 399.865 174.615 400.121 174.885C400.373 175.151 400.781 175.455 401.337 175.455Z" fill="#004357"/>
</g>
<path d="M165.929 61.2174C165.452 61.4943 164.84 61.3314 164.563 60.8535L160.051 53.0664C159.774 52.5885 159.937 51.9767 160.414 51.6998C160.892 51.4229 161.504 51.5858 161.781 52.0636L165.792 58.9855L172.714 54.9746C173.192 54.6977 173.804 54.8607 174.08 55.3385C174.357 55.8164 174.194 56.4282 173.717 56.7051L165.929 61.2174ZM223.035 26.0588C209.575 23.2265 197.351 24.661 187.553 30.3541C177.763 36.0419 170.271 46.0512 166.394 60.6094L164.462 60.0948C168.448 45.1234 176.219 34.6259 186.548 28.6247C196.868 22.6288 209.62 21.1922 223.447 24.1017L223.035 26.0588Z" fill="#004357"/>
<path d="M232 312C232 300.954 240.954 292 252 292V292C263.046 292 272 300.954 272 312V312C272 323.046 263.046 332 252 332V332C240.954 332 232 323.046 232 312V312Z" fill="#F3F4F6"/>
<circle cx="252" cy="312" r="20" fill="#F3F4F6"/>
<mask id="mask17_6262_111945" style="mask-type:alpha" maskUnits="userSpaceOnUse" x="232" y="287" width="40" height="45">
<path d="M232 287.453H272V311.999C272 323.044 263.046 331.999 252 331.999V331.999C240.954 331.999 232 323.044 232 311.999V287.453Z" fill="#D9D9D9"/>
</mask>
<g mask="url(#mask17_6262_111945)">
<path fill-rule="evenodd" clip-rule="evenodd" d="M258.523 307.856L257.397 308.869L258.77 309.507C264.794 312.303 268.869 318.32 268.869 325.183C268.869 326.926 268.183 329.728 267.013 332.096C266.431 333.272 265.759 334.281 265.047 334.982C264.33 335.687 263.659 335.998 263.053 335.998H240.337C239.731 335.998 239.06 335.687 238.343 334.982C237.631 334.281 236.959 333.272 236.377 332.096C235.207 329.728 234.521 326.926 234.521 325.183C234.521 318.32 238.596 312.303 244.62 309.507L245.993 308.869L244.867 307.856C242.774 305.973 241.337 303.278 241.337 300.194C241.337 294.386 245.887 289.836 251.695 289.836C257.503 289.836 262.053 294.386 262.053 300.194C262.053 303.278 260.616 305.973 258.523 307.856ZM251.695 292.379C247.281 292.379 243.88 295.78 243.88 300.194C243.88 304.609 247.281 308.009 251.695 308.009C256.109 308.009 259.51 304.609 259.51 300.194C259.51 295.78 256.109 292.379 251.695 292.379ZM240.337 333.455H263.053C263.609 333.455 264.017 333.151 264.269 332.885C264.525 332.615 264.725 332.275 264.884 331.944C265.207 331.274 265.468 330.413 265.673 329.565C266.08 327.874 266.325 325.972 266.325 325.183C266.325 317.134 259.744 310.553 251.695 310.553C243.646 310.553 237.065 317.134 237.065 325.183C237.065 325.972 237.31 327.874 237.717 329.565C237.922 330.413 238.183 331.274 238.506 331.944C238.665 332.275 238.865 332.615 239.121 332.885C239.373 333.151 239.781 333.455 240.337 333.455Z" fill="#004357"/>
</g>
<path d="M288 312C288 300.954 296.954 292 308 292V292C319.046 292 328 300.954 328 312V312C328 323.046 319.046 332 308 332V332C296.954 332 288 323.046 288 312V312Z" fill="#F3F4F6"/>
<circle cx="308" cy="312" r="20" fill="#F3F4F6"/>
<mask id="mask18_6262_111945" style="mask-type:alpha" maskUnits="userSpaceOnUse" x="288" y="287" width="40" height="45">
<path d="M288 287.453H328V311.999C328 323.044 319.046 331.999 308 331.999V331.999C296.954 331.999 288 323.044 288 311.999V287.453Z" fill="#D9D9D9"/>
</mask>
<g mask="url(#mask18_6262_111945)">
<path fill-rule="evenodd" clip-rule="evenodd" d="M314.523 307.856L313.397 308.869L314.77 309.507C320.794 312.303 324.869 318.32 324.869 325.183C324.869 326.926 324.183 329.728 323.013 332.096C322.431 333.272 321.759 334.281 321.047 334.982C320.33 335.687 319.659 335.998 319.053 335.998H296.337C295.731 335.998 295.06 335.687 294.343 334.982C293.631 334.281 292.959 333.272 292.377 332.096C291.207 329.728 290.521 326.926 290.521 325.183C290.521 318.32 294.596 312.303 300.62 309.507L301.993 308.869L300.867 307.856C298.774 305.973 297.337 303.278 297.337 300.194C297.337 294.386 301.887 289.836 307.695 289.836C313.503 289.836 318.053 294.386 318.053 300.194C318.053 303.278 316.616 305.973 314.523 307.856ZM307.695 292.379C303.281 292.379 299.88 295.78 299.88 300.194C299.88 304.609 303.281 308.009 307.695 308.009C312.109 308.009 315.51 304.609 315.51 300.194C315.51 295.78 312.109 292.379 307.695 292.379ZM296.337 333.455H319.053C319.609 333.455 320.017 333.151 320.269 332.885C320.525 332.615 320.725 332.275 320.884 331.944C321.207 331.274 321.468 330.413 321.673 329.565C322.08 327.874 322.325 325.972 322.325 325.183C322.325 317.134 315.744 310.553 307.695 310.553C299.646 310.553 293.065 317.134 293.065 325.183C293.065 325.972 293.31 327.874 293.717 329.565C293.922 330.413 294.183 331.274 294.506 331.944C294.665 332.275 294.865 332.615 295.121 332.885C295.373 333.151 295.781 333.455 296.337 333.455Z" fill="#004357"/>
</g>
<path d="M344 312C344 300.954 352.954 292 364 292V292C375.046 292 384 300.954 384 312V312C384 323.046 375.046 332 364 332V332C352.954 332 344 323.046 344 312V312Z" fill="#F3F4F6"/>
<circle cx="364" cy="312" r="20" fill="#F3F4F6"/>
<mask id="mask19_6262_111945" style="mask-type:alpha" maskUnits="userSpaceOnUse" x="344" y="287" width="40" height="45">
<path d="M344 287.453H384V311.999C384 323.044 375.046 331.999 364 331.999V331.999C352.954 331.999 344 323.044 344 311.999V287.453Z" fill="#D9D9D9"/>
</mask>
<g mask="url(#mask19_6262_111945)">
<path fill-rule="evenodd" clip-rule="evenodd" d="M370.523 307.856L369.397 308.869L370.77 309.507C376.794 312.303 380.869 318.32 380.869 325.183C380.869 326.926 380.183 329.728 379.013 332.096C378.431 333.272 377.759 334.281 377.047 334.982C376.33 335.687 375.659 335.998 375.053 335.998H352.337C351.731 335.998 351.06 335.687 350.343 334.982C349.631 334.281 348.959 333.272 348.377 332.096C347.207 329.728 346.521 326.926 346.521 325.183C346.521 318.32 350.596 312.303 356.62 309.507L357.993 308.869L356.867 307.856C354.774 305.973 353.337 303.278 353.337 300.194C353.337 294.386 357.887 289.836 363.695 289.836C369.503 289.836 374.053 294.386 374.053 300.194C374.053 303.278 372.616 305.973 370.523 307.856ZM363.695 292.379C359.281 292.379 355.88 295.78 355.88 300.194C355.88 304.609 359.281 308.009 363.695 308.009C368.109 308.009 371.51 304.609 371.51 300.194C371.51 295.78 368.109 292.379 363.695 292.379ZM352.337 333.455H375.053C375.609 333.455 376.017 333.151 376.269 332.885C376.525 332.615 376.725 332.275 376.884 331.944C377.207 331.274 377.468 330.413 377.673 329.565C378.08 327.874 378.325 325.972 378.325 325.183C378.325 317.134 371.744 310.553 363.695 310.553C355.646 310.553 349.065 317.134 349.065 325.183C349.065 325.972 349.31 327.874 349.717 329.565C349.922 330.413 350.183 331.274 350.506 331.944C350.665 332.275 350.865 332.615 351.121 332.885C351.373 333.151 351.781 333.455 352.337 333.455Z" fill="#004357"/>
</g>
<path d="M400 312C400 300.954 408.954 292 420 292V292C431.046 292 440 300.954 440 312V312C440 323.046 431.046 332 420 332V332C408.954 332 400 323.046 400 312V312Z" fill="#BED73C"/>
<circle cx="420" cy="312" r="20" fill="#BED73C"/>
<mask id="mask20_6262_111945" style="mask-type:alpha" maskUnits="userSpaceOnUse" x="400" y="287" width="40" height="45">
<path d="M400 287.453H440V311.999C440 323.044 431.046 331.999 420 331.999V331.999C408.954 331.999 400 323.044 400 311.999V287.453Z" fill="#D9D9D9"/>
</mask>
<g mask="url(#mask20_6262_111945)">
<path fill-rule="evenodd" clip-rule="evenodd" d="M426.523 307.856L425.397 308.869L426.77 309.507C432.794 312.303 436.869 318.32 436.869 325.183C436.869 326.926 436.183 329.728 435.013 332.096C434.431 333.272 433.759 334.281 433.047 334.982C432.33 335.687 431.659 335.998 431.053 335.998H408.337C407.731 335.998 407.06 335.687 406.343 334.982C405.631 334.281 404.959 333.272 404.377 332.096C403.207 329.728 402.521 326.926 402.521 325.183C402.521 318.32 406.596 312.303 412.62 309.507L413.993 308.869L412.867 307.856C410.774 305.973 409.337 303.278 409.337 300.194C409.337 294.386 413.887 289.836 419.695 289.836C425.503 289.836 430.053 294.386 430.053 300.194C430.053 303.278 428.616 305.973 426.523 307.856ZM419.695 292.379C415.281 292.379 411.88 295.78 411.88 300.194C411.88 304.609 415.281 308.009 419.695 308.009C424.109 308.009 427.51 304.609 427.51 300.194C427.51 295.78 424.109 292.379 419.695 292.379ZM408.337 333.455H431.053C431.609 333.455 432.017 333.151 432.269 332.885C432.525 332.615 432.725 332.275 432.884 331.944C433.207 331.274 433.468 330.413 433.673 329.565C434.08 327.874 434.325 325.972 434.325 325.183C434.325 317.134 427.744 310.553 419.695 310.553C411.646 310.553 405.065 317.134 405.065 325.183C405.065 325.972 405.31 327.874 405.717 329.565C405.922 330.413 406.183 331.274 406.506 331.944C406.665 332.275 406.865 332.615 407.121 332.885C407.373 333.151 407.781 333.455 408.337 333.455Z" fill="#004357"/>
</g>
<path d="M456 312C456 300.954 464.954 292 476 292V292C487.046 292 496 300.954 496 312V312C496 323.046 487.046 332 476 332V332C464.954 332 456 323.046 456 312V312Z" fill="#BED73C"/>
<circle cx="476" cy="312" r="20" fill="#BED73C"/>
<mask id="mask21_6262_111945" style="mask-type:alpha" maskUnits="userSpaceOnUse" x="456" y="287" width="40" height="45">
<path d="M456 287.453H496V311.999C496 323.044 487.046 331.999 476 331.999V331.999C464.954 331.999 456 323.044 456 311.999V287.453Z" fill="#D9D9D9"/>
</mask>
<g mask="url(#mask21_6262_111945)">
<path fill-rule="evenodd" clip-rule="evenodd" d="M482.523 307.856L481.397 308.869L482.77 309.507C488.794 312.303 492.869 318.32 492.869 325.183C492.869 326.926 492.183 329.728 491.013 332.096C490.431 333.272 489.759 334.281 489.047 334.982C488.33 335.687 487.659 335.998 487.053 335.998H464.337C463.731 335.998 463.06 335.687 462.343 334.982C461.631 334.281 460.959 333.272 460.377 332.096C459.207 329.728 458.521 326.926 458.521 325.183C458.521 318.32 462.596 312.303 468.62 309.507L469.993 308.869L468.867 307.856C466.774 305.973 465.337 303.278 465.337 300.194C465.337 294.386 469.887 289.836 475.695 289.836C481.503 289.836 486.053 294.386 486.053 300.194C486.053 303.278 484.616 305.973 482.523 307.856ZM475.695 292.379C471.281 292.379 467.88 295.78 467.88 300.194C467.88 304.609 471.281 308.009 475.695 308.009C480.109 308.009 483.51 304.609 483.51 300.194C483.51 295.78 480.109 292.379 475.695 292.379ZM464.337 333.455H487.053C487.609 333.455 488.017 333.151 488.269 332.885C488.525 332.615 488.725 332.275 488.884 331.944C489.207 331.274 489.468 330.413 489.673 329.565C490.08 327.874 490.325 325.972 490.325 325.183C490.325 317.134 483.744 310.553 475.695 310.553C467.646 310.553 461.065 317.134 461.065 325.183C461.065 325.972 461.31 327.874 461.717 329.565C461.922 330.413 462.183 331.274 462.506 331.944C462.665 332.275 462.865 332.615 463.121 332.885C463.373 333.151 463.781 333.455 464.337 333.455Z" fill="#004357"/>
</g>
<path d="M512 312C512 300.954 520.954 292 532 292V292C543.046 292 552 300.954 552 312V312C552 323.046 543.046 332 532 332V332C520.954 332 512 323.046 512 312V312Z" fill="#BED73C"/>
<circle cx="532" cy="312" r="20" fill="#BED73C"/>
<mask id="mask22_6262_111945" style="mask-type:alpha" maskUnits="userSpaceOnUse" x="512" y="287" width="40" height="45">
<path d="M512 287.453H552V311.999C552 323.044 543.046 331.999 532 331.999V331.999C520.954 331.999 512 323.044 512 311.999V287.453Z" fill="#D9D9D9"/>
</mask>
<g mask="url(#mask22_6262_111945)">
<path fill-rule="evenodd" clip-rule="evenodd" d="M538.523 307.856L537.397 308.869L538.77 309.507C544.794 312.303 548.869 318.32 548.869 325.183C548.869 326.926 548.183 329.728 547.013 332.096C546.431 333.272 545.759 334.281 545.047 334.982C544.33 335.687 543.659 335.998 543.053 335.998H520.337C519.731 335.998 519.06 335.687 518.343 334.982C517.631 334.281 516.959 333.272 516.377 332.096C515.207 329.728 514.521 326.926 514.521 325.183C514.521 318.32 518.596 312.303 524.62 309.507L525.993 308.869L524.867 307.856C522.774 305.973 521.337 303.278 521.337 300.194C521.337 294.386 525.887 289.836 531.695 289.836C537.503 289.836 542.053 294.386 542.053 300.194C542.053 303.278 540.616 305.973 538.523 307.856ZM531.695 292.379C527.281 292.379 523.88 295.78 523.88 300.194C523.88 304.609 527.281 308.009 531.695 308.009C536.109 308.009 539.51 304.609 539.51 300.194C539.51 295.78 536.109 292.379 531.695 292.379ZM520.337 333.455H543.053C543.609 333.455 544.017 333.151 544.269 332.885C544.525 332.615 544.725 332.275 544.884 331.944C545.207 331.274 545.468 330.413 545.673 329.565C546.08 327.874 546.325 325.972 546.325 325.183C546.325 317.134 539.744 310.553 531.695 310.553C523.646 310.553 517.065 317.134 517.065 325.183C517.065 325.972 517.31 327.874 517.717 329.565C517.922 330.413 518.183 331.274 518.506 331.944C518.665 332.275 518.865 332.615 519.121 332.885C519.373 333.151 519.781 333.455 520.337 333.455Z" fill="#004357"/>
</g>
<path d="M568 312C568 300.954 576.954 292 588 292V292C599.046 292 608 300.954 608 312V312C608 323.046 599.046 332 588 332V332C576.954 332 568 323.046 568 312V312Z" fill="#BED73C"/>
<circle cx="588" cy="312" r="20" fill="#BED73C"/>
<mask id="mask23_6262_111945" style="mask-type:alpha" maskUnits="userSpaceOnUse" x="568" y="287" width="40" height="45">
<path d="M568 287.453H608V311.999C608 323.044 599.046 331.999 588 331.999V331.999C576.954 331.999 568 323.044 568 311.999V287.453Z" fill="#D9D9D9"/>
</mask>
<g mask="url(#mask23_6262_111945)">
<path fill-rule="evenodd" clip-rule="evenodd" d="M594.523 307.856L593.397 308.869L594.77 309.507C600.794 312.303 604.869 318.32 604.869 325.183C604.869 326.926 604.183 329.728 603.013 332.096C602.431 333.272 601.759 334.281 601.047 334.982C600.33 335.687 599.659 335.998 599.053 335.998H576.337C575.731 335.998 575.06 335.687 574.343 334.982C573.631 334.281 572.959 333.272 572.377 332.096C571.207 329.728 570.521 326.926 570.521 325.183C570.521 318.32 574.596 312.303 580.62 309.507L581.993 308.869L580.867 307.856C578.774 305.973 577.337 303.278 577.337 300.194C577.337 294.386 581.887 289.836 587.695 289.836C593.503 289.836 598.053 294.386 598.053 300.194C598.053 303.278 596.616 305.973 594.523 307.856ZM587.695 292.379C583.281 292.379 579.88 295.78 579.88 300.194C579.88 304.609 583.281 308.009 587.695 308.009C592.109 308.009 595.51 304.609 595.51 300.194C595.51 295.78 592.109 292.379 587.695 292.379ZM576.337 333.455H599.053C599.609 333.455 600.017 333.151 600.269 332.885C600.525 332.615 600.725 332.275 600.884 331.944C601.207 331.274 601.468 330.413 601.673 329.565C602.08 327.874 602.325 325.972 602.325 325.183C602.325 317.134 595.744 310.553 587.695 310.553C579.646 310.553 573.065 317.134 573.065 325.183C573.065 325.972 573.31 327.874 573.717 329.565C573.922 330.413 574.183 331.274 574.506 331.944C574.665 332.275 574.865 332.615 575.121 332.885C575.373 333.151 575.781 333.455 576.337 333.455Z" fill="#004357"/>
</g>
<path d="M624 312C624 300.954 632.954 292 644 292V292C655.046 292 664 300.954 664 312V312C664 323.046 655.046 332 644 332V332C632.954 332 624 323.046 624 312V312Z" fill="#BED73C"/>
<circle cx="644" cy="312" r="20" fill="#BED73C"/>
<mask id="mask24_6262_111945" style="mask-type:alpha" maskUnits="userSpaceOnUse" x="624" y="287" width="40" height="45">
<path d="M624 287.453H664V311.999C664 323.044 655.046 331.999 644 331.999V331.999C632.954 331.999 624 323.044 624 311.999V287.453Z" fill="#D9D9D9"/>
</mask>
<g mask="url(#mask24_6262_111945)">
<path fill-rule="evenodd" clip-rule="evenodd" d="M650.523 307.856L649.397 308.869L650.77 309.507C656.794 312.303 660.869 318.32 660.869 325.183C660.869 326.926 660.183 329.728 659.013 332.096C658.431 333.272 657.759 334.281 657.047 334.982C656.33 335.687 655.659 335.998 655.053 335.998H632.337C631.731 335.998 631.06 335.687 630.343 334.982C629.631 334.281 628.959 333.272 628.377 332.096C627.207 329.728 626.521 326.926 626.521 325.183C626.521 318.32 630.596 312.303 636.62 309.507L637.993 308.869L636.867 307.856C634.774 305.973 633.337 303.278 633.337 300.194C633.337 294.386 637.887 289.836 643.695 289.836C649.503 289.836 654.053 294.386 654.053 300.194C654.053 303.278 652.616 305.973 650.523 307.856ZM643.695 292.379C639.281 292.379 635.88 295.78 635.88 300.194C635.88 304.609 639.281 308.009 643.695 308.009C648.109 308.009 651.51 304.609 651.51 300.194C651.51 295.78 648.109 292.379 643.695 292.379ZM632.337 333.455H655.053C655.609 333.455 656.017 333.151 656.269 332.885C656.525 332.615 656.725 332.275 656.884 331.944C657.207 331.274 657.468 330.413 657.673 329.565C658.08 327.874 658.325 325.972 658.325 325.183C658.325 317.134 651.744 310.553 643.695 310.553C635.646 310.553 629.065 317.134 629.065 325.183C629.065 325.972 629.31 327.874 629.717 329.565C629.922 330.413 630.183 331.274 630.506 331.944C630.665 332.275 630.865 332.615 631.121 332.885C631.373 333.151 631.781 333.455 632.337 333.455Z" fill="#004357"/>
</g>
<path d="M680 312C680 300.954 688.954 292 700 292V292C711.046 292 720 300.954 720 312V312C720 323.046 711.046 332 700 332V332C688.954 332 680 323.046 680 312V312Z" fill="#BED73C"/>
<circle cx="700" cy="312" r="20" fill="#BED73C"/>
<mask id="mask25_6262_111945" style="mask-type:alpha" maskUnits="userSpaceOnUse" x="680" y="287" width="40" height="45">
<path d="M680 287.453H720V311.999C720 323.044 711.046 331.999 700 331.999V331.999C688.954 331.999 680 323.044 680 311.999V287.453Z" fill="#D9D9D9"/>
</mask>
<g mask="url(#mask25_6262_111945)">
<path fill-rule="evenodd" clip-rule="evenodd" d="M706.523 307.856L705.397 308.869L706.77 309.507C712.794 312.303 716.869 318.32 716.869 325.183C716.869 326.926 716.183 329.728 715.013 332.096C714.431 333.272 713.759 334.281 713.047 334.982C712.33 335.687 711.659 335.998 711.053 335.998H688.337C687.731 335.998 687.06 335.687 686.343 334.982C685.631 334.281 684.959 333.272 684.377 332.096C683.207 329.728 682.521 326.926 682.521 325.183C682.521 318.32 686.596 312.303 692.62 309.507L693.993 308.869L692.867 307.856C690.774 305.973 689.337 303.278 689.337 300.194C689.337 294.386 693.887 289.836 699.695 289.836C705.503 289.836 710.053 294.386 710.053 300.194C710.053 303.278 708.616 305.973 706.523 307.856ZM699.695 292.379C695.281 292.379 691.88 295.78 691.88 300.194C691.88 304.609 695.281 308.009 699.695 308.009C704.109 308.009 707.51 304.609 707.51 300.194C707.51 295.78 704.109 292.379 699.695 292.379ZM688.337 333.455H711.053C711.609 333.455 712.017 333.151 712.269 332.885C712.525 332.615 712.725 332.275 712.884 331.944C713.207 331.274 713.468 330.413 713.673 329.565C714.08 327.874 714.325 325.972 714.325 325.183C714.325 317.134 707.744 310.553 699.695 310.553C691.646 310.553 685.065 317.134 685.065 325.183C685.065 325.972 685.31 327.874 685.717 329.565C685.922 330.413 686.183 331.274 686.506 331.944C686.665 332.275 686.865 332.615 687.121 332.885C687.373 333.151 687.781 333.455 688.337 333.455Z" fill="#004357"/>
</g>
<path d="M288 368C288 356.954 296.954 348 308 348V348C319.046 348 328 356.954 328 368V368C328 379.046 319.046 388 308 388V388C296.954 388 288 379.046 288 368V368Z" fill="#F3F4F6"/>
<circle cx="308" cy="368" r="20" fill="#F3F4F6"/>
<mask id="mask26_6262_111945" style="mask-type:alpha" maskUnits="userSpaceOnUse" x="288" y="343" width="40" height="45">
<path d="M288 343.453H328V367.999C328 379.044 319.046 387.999 308 387.999V387.999C296.954 387.999 288 379.044 288 367.999V343.453Z" fill="#D9D9D9"/>
</mask>
<g mask="url(#mask26_6262_111945)">
<path fill-rule="evenodd" clip-rule="evenodd" d="M314.523 363.856L313.397 364.869L314.77 365.507C320.794 368.303 324.869 374.32 324.869 381.183C324.869 382.926 324.183 385.728 323.013 388.096C322.431 389.272 321.759 390.281 321.047 390.982C320.33 391.687 319.659 391.998 319.053 391.998H296.337C295.731 391.998 295.06 391.687 294.343 390.982C293.631 390.281 292.959 389.272 292.377 388.096C291.207 385.728 290.521 382.926 290.521 381.183C290.521 374.32 294.596 368.303 300.62 365.507L301.993 364.869L300.867 363.856C298.774 361.973 297.337 359.278 297.337 356.194C297.337 350.386 301.887 345.836 307.695 345.836C313.503 345.836 318.053 350.386 318.053 356.194C318.053 359.278 316.616 361.973 314.523 363.856ZM307.695 348.379C303.281 348.379 299.88 351.78 299.88 356.194C299.88 360.609 303.281 364.009 307.695 364.009C312.109 364.009 315.51 360.609 315.51 356.194C315.51 351.78 312.109 348.379 307.695 348.379ZM296.337 389.455H319.053C319.609 389.455 320.017 389.151 320.269 388.885C320.525 388.615 320.725 388.275 320.884 387.944C321.207 387.274 321.468 386.413 321.673 385.565C322.08 383.874 322.325 381.972 322.325 381.183C322.325 373.134 315.744 366.553 307.695 366.553C299.646 366.553 293.065 373.134 293.065 381.183C293.065 381.972 293.31 383.874 293.717 385.565C293.922 386.413 294.183 387.274 294.506 387.944C294.665 388.275 294.865 388.615 295.121 388.885C295.373 389.151 295.781 389.455 296.337 389.455Z" fill="#004357"/>
</g>
<path d="M344 368C344 356.954 352.954 348 364 348V348C375.046 348 384 356.954 384 368V368C384 379.046 375.046 388 364 388V388C352.954 388 344 379.046 344 368V368Z" fill="#F3F4F6"/>
<circle cx="364" cy="368" r="20" fill="#F3F4F6"/>
<mask id="mask27_6262_111945" style="mask-type:alpha" maskUnits="userSpaceOnUse" x="344" y="343" width="40" height="45">
<path d="M344 343.453H384V367.999C384 379.044 375.046 387.999 364 387.999V387.999C352.954 387.999 344 379.044 344 367.999V343.453Z" fill="#D9D9D9"/>
</mask>
<g mask="url(#mask27_6262_111945)">
<path fill-rule="evenodd" clip-rule="evenodd" d="M370.523 363.856L369.397 364.869L370.77 365.507C376.794 368.303 380.869 374.32 380.869 381.183C380.869 382.926 380.183 385.728 379.013 388.096C378.431 389.272 377.759 390.281 377.047 390.982C376.33 391.687 375.659 391.998 375.053 391.998H352.337C351.731 391.998 351.06 391.687 350.343 390.982C349.631 390.281 348.959 389.272 348.377 388.096C347.207 385.728 346.521 382.926 346.521 381.183C346.521 374.32 350.596 368.303 356.62 365.507L357.993 364.869L356.867 363.856C354.774 361.973 353.337 359.278 353.337 356.194C353.337 350.386 357.887 345.836 363.695 345.836C369.503 345.836 374.053 350.386 374.053 356.194C374.053 359.278 372.616 361.973 370.523 363.856ZM363.695 348.379C359.281 348.379 355.88 351.78 355.88 356.194C355.88 360.609 359.281 364.009 363.695 364.009C368.109 364.009 371.51 360.609 371.51 356.194C371.51 351.78 368.109 348.379 363.695 348.379ZM352.337 389.455H375.053C375.609 389.455 376.017 389.151 376.269 388.885C376.525 388.615 376.725 388.275 376.884 387.944C377.207 387.274 377.468 386.413 377.673 385.565C378.08 383.874 378.325 381.972 378.325 381.183C378.325 373.134 371.744 366.553 363.695 366.553C355.646 366.553 349.065 373.134 349.065 381.183C349.065 381.972 349.31 383.874 349.717 385.565C349.922 386.413 350.183 387.274 350.506 387.944C350.665 388.275 350.865 388.615 351.121 388.885C351.373 389.151 351.781 389.455 352.337 389.455Z" fill="#004357"/>
</g>
<path d="M400 368C400 356.954 408.954 348 420 348V348C431.046 348 440 356.954 440 368V368C440 379.046 431.046 388 420 388V388C408.954 388 400 379.046 400 368V368Z" fill="#F3F4F6"/>
<circle cx="420" cy="368" r="20" fill="#F3F4F6"/>
<mask id="mask28_6262_111945" style="mask-type:alpha" maskUnits="userSpaceOnUse" x="400" y="343" width="40" height="45">
<path d="M400 343.453H440V367.999C440 379.044 431.046 387.999 420 387.999V387.999C408.954 387.999 400 379.044 400 367.999V343.453Z" fill="#D9D9D9"/>
</mask>
<g mask="url(#mask28_6262_111945)">
<path fill-rule="evenodd" clip-rule="evenodd" d="M426.523 363.856L425.397 364.869L426.77 365.507C432.794 368.303 436.869 374.32 436.869 381.183C436.869 382.926 436.183 385.728 435.013 388.096C434.431 389.272 433.759 390.281 433.047 390.982C432.33 391.687 431.659 391.998 431.053 391.998H408.337C407.731 391.998 407.06 391.687 406.343 390.982C405.631 390.281 404.959 389.272 404.377 388.096C403.207 385.728 402.521 382.926 402.521 381.183C402.521 374.32 406.596 368.303 412.62 365.507L413.993 364.869L412.867 363.856C410.774 361.973 409.337 359.278 409.337 356.194C409.337 350.386 413.887 345.836 419.695 345.836C425.503 345.836 430.053 350.386 430.053 356.194C430.053 359.278 428.616 361.973 426.523 363.856ZM419.695 348.379C415.281 348.379 411.88 351.78 411.88 356.194C411.88 360.609 415.281 364.009 419.695 364.009C424.109 364.009 427.51 360.609 427.51 356.194C427.51 351.78 424.109 348.379 419.695 348.379ZM408.337 389.455H431.053C431.609 389.455 432.017 389.151 432.269 388.885C432.525 388.615 432.725 388.275 432.884 387.944C433.207 387.274 433.468 386.413 433.673 385.565C434.08 383.874 434.325 381.972 434.325 381.183C434.325 373.134 427.744 366.553 419.695 366.553C411.646 366.553 405.065 373.134 405.065 381.183C405.065 381.972 405.31 383.874 405.717 385.565C405.922 386.413 406.183 387.274 406.506 387.944C406.665 388.275 406.865 388.615 407.121 388.885C407.373 389.151 407.781 389.455 408.337 389.455Z" fill="#004357"/>
</g>
<path d="M456 368C456 356.954 464.954 348 476 348V348C487.046 348 496 356.954 496 368V368C496 379.046 487.046 388 476 388V388C464.954 388 456 379.046 456 368V368Z" fill="#F3F4F6"/>
<circle cx="476" cy="368" r="20" fill="#F3F4F6"/>
<mask id="mask29_6262_111945" style="mask-type:alpha" maskUnits="userSpaceOnUse" x="456" y="343" width="40" height="45">
<path d="M456 343.453H496V367.999C496 379.044 487.046 387.999 476 387.999V387.999C464.954 387.999 456 379.044 456 367.999V343.453Z" fill="#D9D9D9"/>
</mask>
<g mask="url(#mask29_6262_111945)">
<path fill-rule="evenodd" clip-rule="evenodd" d="M482.523 363.856L481.397 364.869L482.77 365.507C488.794 368.303 492.869 374.32 492.869 381.183C492.869 382.926 492.183 385.728 491.013 388.096C490.431 389.272 489.759 390.281 489.047 390.982C488.33 391.687 487.659 391.998 487.053 391.998H464.337C463.731 391.998 463.06 391.687 462.343 390.982C461.631 390.281 460.959 389.272 460.377 388.096C459.207 385.728 458.521 382.926 458.521 381.183C458.521 374.32 462.596 368.303 468.62 365.507L469.993 364.869L468.867 363.856C466.774 361.973 465.337 359.278 465.337 356.194C465.337 350.386 469.887 345.836 475.695 345.836C481.503 345.836 486.053 350.386 486.053 356.194C486.053 359.278 484.616 361.973 482.523 363.856ZM475.695 348.379C471.281 348.379 467.88 351.78 467.88 356.194C467.88 360.609 471.281 364.009 475.695 364.009C480.109 364.009 483.51 360.609 483.51 356.194C483.51 351.78 480.109 348.379 475.695 348.379ZM464.337 389.455H487.053C487.609 389.455 488.017 389.151 488.269 388.885C488.525 388.615 488.725 388.275 488.884 387.944C489.207 387.274 489.468 386.413 489.673 385.565C490.08 383.874 490.325 381.972 490.325 381.183C490.325 373.134 483.744 366.553 475.695 366.553C467.646 366.553 461.065 373.134 461.065 381.183C461.065 381.972 461.31 383.874 461.717 385.565C461.922 386.413 462.183 387.274 462.506 387.944C462.665 388.275 462.865 388.615 463.121 388.885C463.373 389.151 463.781 389.455 464.337 389.455Z" fill="#004357"/>
</g>
<path d="M512 368C512 356.954 520.954 348 532 348V348C543.046 348 552 356.954 552 368V368C552 379.046 543.046 388 532 388V388C520.954 388 512 379.046 512 368V368Z" fill="#F3F4F6"/>
<circle cx="532" cy="368" r="20" fill="#F3F4F6"/>
<mask id="mask30_6262_111945" style="mask-type:alpha" maskUnits="userSpaceOnUse" x="512" y="343" width="40" height="45">
<path d="M512 343.453H552V367.999C552 379.044 543.046 387.999 532 387.999V387.999C520.954 387.999 512 379.044 512 367.999V343.453Z" fill="#D9D9D9"/>
</mask>
<g mask="url(#mask30_6262_111945)">
<path fill-rule="evenodd" clip-rule="evenodd" d="M538.523 363.856L537.397 364.869L538.77 365.507C544.794 368.303 548.869 374.32 548.869 381.183C548.869 382.926 548.183 385.728 547.013 388.096C546.431 389.272 545.759 390.281 545.047 390.982C544.33 391.687 543.659 391.998 543.053 391.998H520.337C519.731 391.998 519.06 391.687 518.343 390.982C517.631 390.281 516.959 389.272 516.377 388.096C515.207 385.728 514.521 382.926 514.521 381.183C514.521 374.32 518.596 368.303 524.62 365.507L525.993 364.869L524.867 363.856C522.774 361.973 521.337 359.278 521.337 356.194C521.337 350.386 525.887 345.836 531.695 345.836C537.503 345.836 542.053 350.386 542.053 356.194C542.053 359.278 540.616 361.973 538.523 363.856ZM531.695 348.379C527.281 348.379 523.88 351.78 523.88 356.194C523.88 360.609 527.281 364.009 531.695 364.009C536.109 364.009 539.51 360.609 539.51 356.194C539.51 351.78 536.109 348.379 531.695 348.379ZM520.337 389.455H543.053C543.609 389.455 544.017 389.151 544.269 388.885C544.525 388.615 544.725 388.275 544.884 387.944C545.207 387.274 545.468 386.413 545.673 385.565C546.08 383.874 546.325 381.972 546.325 381.183C546.325 373.134 539.744 366.553 531.695 366.553C523.646 366.553 517.065 373.134 517.065 381.183C517.065 381.972 517.31 383.874 517.717 385.565C517.922 386.413 518.183 387.274 518.506 387.944C518.665 388.275 518.865 388.615 519.121 388.885C519.373 389.151 519.781 389.455 520.337 389.455Z" fill="#004357"/>
</g>
<path d="M568 368C568 356.954 576.954 348 588 348V348C599.046 348 608 356.954 608 368V368C608 379.046 599.046 388 588 388V388C576.954 388 568 379.046 568 368V368Z" fill="#F3F4F6"/>
<circle cx="588" cy="368" r="20" fill="#F3F4F6"/>
<mask id="mask31_6262_111945" style="mask-type:alpha" maskUnits="userSpaceOnUse" x="568" y="343" width="40" height="45">
<path d="M568 343.453H608V367.999C608 379.044 599.046 387.999 588 387.999V387.999C576.954 387.999 568 379.044 568 367.999V343.453Z" fill="#D9D9D9"/>
</mask>
<g mask="url(#mask31_6262_111945)">
<path fill-rule="evenodd" clip-rule="evenodd" d="M594.523 363.856L593.397 364.869L594.77 365.507C600.794 368.303 604.869 374.32 604.869 381.183C604.869 382.926 604.183 385.728 603.013 388.096C602.431 389.272 601.759 390.281 601.047 390.982C600.33 391.687 599.659 391.998 599.053 391.998H576.337C575.731 391.998 575.06 391.687 574.343 390.982C573.631 390.281 572.959 389.272 572.377 388.096C571.207 385.728 570.521 382.926 570.521 381.183C570.521 374.32 574.596 368.303 580.62 365.507L581.993 364.869L580.867 363.856C578.774 361.973 577.337 359.278 577.337 356.194C577.337 350.386 581.887 345.836 587.695 345.836C593.503 345.836 598.053 350.386 598.053 356.194C598.053 359.278 596.616 361.973 594.523 363.856ZM587.695 348.379C583.281 348.379 579.88 351.78 579.88 356.194C579.88 360.609 583.281 364.009 587.695 364.009C592.109 364.009 595.51 360.609 595.51 356.194C595.51 351.78 592.109 348.379 587.695 348.379ZM576.337 389.455H599.053C599.609 389.455 600.017 389.151 600.269 388.885C600.525 388.615 600.725 388.275 600.884 387.944C601.207 387.274 601.468 386.413 601.673 385.565C602.08 383.874 602.325 381.972 602.325 381.183C602.325 373.134 595.744 366.553 587.695 366.553C579.646 366.553 573.065 373.134 573.065 381.183C573.065 381.972 573.31 383.874 573.717 385.565C573.922 386.413 574.183 387.274 574.506 387.944C574.665 388.275 574.865 388.615 575.121 388.885C575.373 389.151 575.781 389.455 576.337 389.455Z" fill="#004357"/>
</g>
<path d="M624 368C624 356.954 632.954 348 644 348V348C655.046 348 664 356.954 664 368V368C664 379.046 655.046 388 644 388V388C632.954 388 624 379.046 624 368V368Z" fill="#F3F4F6"/>
<circle cx="644" cy="368" r="20" fill="#F3F4F6"/>
<mask id="mask32_6262_111945" style="mask-type:alpha" maskUnits="userSpaceOnUse" x="624" y="343" width="40" height="45">
<path d="M624 343.453H664V367.999C664 379.044 655.046 387.999 644 387.999V387.999C632.954 387.999 624 379.044 624 367.999V343.453Z" fill="#D9D9D9"/>
</mask>
<g mask="url(#mask32_6262_111945)">
<path fill-rule="evenodd" clip-rule="evenodd" d="M650.523 363.856L649.397 364.869L650.77 365.507C656.794 368.303 660.869 374.32 660.869 381.183C660.869 382.926 660.183 385.728 659.013 388.096C658.431 389.272 657.759 390.281 657.047 390.982C656.33 391.687 655.659 391.998 655.053 391.998H632.337C631.731 391.998 631.06 391.687 630.343 390.982C629.631 390.281 628.959 389.272 628.377 388.096C627.207 385.728 626.521 382.926 626.521 381.183C626.521 374.32 630.596 368.303 636.62 365.507L637.993 364.869L636.867 363.856C634.774 361.973 633.337 359.278 633.337 356.194C633.337 350.386 637.887 345.836 643.695 345.836C649.503 345.836 654.053 350.386 654.053 356.194C654.053 359.278 652.616 361.973 650.523 363.856ZM643.695 348.379C639.281 348.379 635.88 351.78 635.88 356.194C635.88 360.609 639.281 364.009 643.695 364.009C648.109 364.009 651.51 360.609 651.51 356.194C651.51 351.78 648.109 348.379 643.695 348.379ZM632.337 389.455H655.053C655.609 389.455 656.017 389.151 656.269 388.885C656.525 388.615 656.725 388.275 656.884 387.944C657.207 387.274 657.468 386.413 657.673 385.565C658.08 383.874 658.325 381.972 658.325 381.183C658.325 373.134 651.744 366.553 643.695 366.553C635.646 366.553 629.065 373.134 629.065 381.183C629.065 381.972 629.31 383.874 629.717 385.565C629.922 386.413 630.183 387.274 630.506 387.944C630.665 388.275 630.865 388.615 631.121 388.885C631.373 389.151 631.781 389.455 632.337 389.455Z" fill="#004357"/>
</g>
<path d="M680 368C680 356.954 688.954 348 700 348V348C711.046 348 720 356.954 720 368V368C720 379.046 711.046 388 700 388V388C688.954 388 680 379.046 680 368V368Z" fill="#F3F4F6"/>
<circle cx="700" cy="368" r="20" fill="#F3F4F6"/>
<mask id="mask33_6262_111945" style="mask-type:alpha" maskUnits="userSpaceOnUse" x="680" y="343" width="40" height="45">
<path d="M680 343.453H720V367.999C720 379.044 711.046 387.999 700 387.999V387.999C688.954 387.999 680 379.044 680 367.999V343.453Z" fill="#D9D9D9"/>
</mask>
<g mask="url(#mask33_6262_111945)">
<path fill-rule="evenodd" clip-rule="evenodd" d="M706.523 363.856L705.397 364.869L706.77 365.507C712.794 368.303 716.869 374.32 716.869 381.183C716.869 382.926 716.183 385.728 715.013 388.096C714.431 389.272 713.759 390.281 713.047 390.982C712.33 391.687 711.659 391.998 711.053 391.998H688.337C687.731 391.998 687.06 391.687 686.343 390.982C685.631 390.281 684.959 389.272 684.377 388.096C683.207 385.728 682.521 382.926 682.521 381.183C682.521 374.32 686.596 368.303 692.62 365.507L693.993 364.869L692.867 363.856C690.774 361.973 689.337 359.278 689.337 356.194C689.337 350.386 693.887 345.836 699.695 345.836C705.503 345.836 710.053 350.386 710.053 356.194C710.053 359.278 708.616 361.973 706.523 363.856ZM699.695 348.379C695.281 348.379 691.88 351.78 691.88 356.194C691.88 360.609 695.281 364.009 699.695 364.009C704.109 364.009 707.51 360.609 707.51 356.194C707.51 351.78 704.109 348.379 699.695 348.379ZM688.337 389.455H711.053C711.609 389.455 712.017 389.151 712.269 388.885C712.525 388.615 712.725 388.275 712.884 387.944C713.207 387.274 713.468 386.413 713.673 385.565C714.08 383.874 714.325 381.972 714.325 381.183C714.325 373.134 707.744 366.553 699.695 366.553C691.646 366.553 685.065 373.134 685.065 381.183C685.065 381.972 685.31 383.874 685.717 385.565C685.922 386.413 686.183 387.274 686.506 387.944C686.665 388.275 686.865 388.615 687.121 388.885C687.373 389.151 687.781 389.455 688.337 389.455Z" fill="#004357"/>
</g>
<path d="M571.498 275.217C571.976 275.494 572.588 275.331 572.865 274.853L577.377 267.066C577.654 266.589 577.491 265.977 577.013 265.7C576.535 265.423 575.924 265.586 575.647 266.064L571.636 272.986L564.714 268.975C564.236 268.698 563.624 268.861 563.347 269.339C563.07 269.816 563.233 270.428 563.711 270.705L571.498 275.217ZM514.392 240.059C527.853 237.226 540.076 238.661 549.875 244.354C559.665 250.042 567.157 260.051 571.033 274.609L572.966 274.095C568.98 259.123 561.209 248.626 550.88 242.625C540.56 236.629 527.808 235.192 513.981 238.102L514.392 240.059Z" fill="#004357"/>
</svg>
