<svg width="903" height="388" viewBox="0 0 903 388" fill="none" xmlns="http://www.w3.org/2000/svg">
<path d="M1 98C1 86.9543 9.95431 78 21 78V78C32.0457 78 41 86.9543 41 98V98C41 109.046 32.0457 118 21 118V118C9.95431 118 1 109.046 1 98V98Z" fill="#BED73C"/>
<circle cx="21" cy="98" r="20" fill="#BED73C"/>
<mask id="mask0_6262_108774" style="mask-type:alpha" maskUnits="userSpaceOnUse" x="1" y="73" width="40" height="45">
<path d="M1 73.4531H41V97.9988C41 109.044 32.0457 117.999 21 117.999V117.999C9.95431 117.999 1 109.044 1 97.9988V73.4531Z" fill="#D9D9D9"/>
</mask>
<g mask="url(#mask0_6262_108774)">
<path fill-rule="evenodd" clip-rule="evenodd" d="M27.5226 93.8563L26.3973 94.8691L27.7705 95.5067C33.7937 98.3032 37.8685 104.32 37.8685 111.183C37.8685 112.926 37.1826 115.728 36.0127 118.096C35.4314 119.272 34.7594 120.281 34.0465 120.982C33.3296 121.687 32.6587 121.998 32.0535 121.998H9.33655C8.73133 121.998 8.06039 121.687 7.34347 120.982C6.63063 120.281 5.95863 119.272 5.37734 118.096C4.20742 115.728 3.52148 112.926 3.52148 111.183C3.52148 104.32 7.5963 98.3032 13.6195 95.5067L14.9927 94.8691L13.8674 93.8563C11.7745 91.9727 10.3366 89.2781 10.3366 86.1944C10.3366 80.3859 14.8866 75.8359 20.695 75.8359C26.5035 75.8359 31.0535 80.3859 31.0535 86.1944C31.0535 89.2781 29.6155 91.9727 27.5226 93.8563ZM20.695 78.3793C16.2808 78.3793 12.8799 81.7802 12.8799 86.1944C12.8799 90.6085 16.2808 94.0095 20.695 94.0095C25.1092 94.0095 28.5101 90.6085 28.5101 86.1944C28.5101 81.7802 25.1092 78.3793 20.695 78.3793ZM9.33655 119.455H32.0535C32.6092 119.455 33.0173 119.151 33.269 118.885C33.5247 118.615 33.7249 118.275 33.8845 117.944C34.2069 117.274 34.4678 116.413 34.6725 115.565C35.0805 113.874 35.3251 111.972 35.3251 111.183C35.3251 103.134 28.7439 96.5528 20.695 96.5528C12.6461 96.5528 6.06486 103.134 6.06486 111.183C6.06486 111.972 6.30952 113.874 6.71748 115.565C6.92219 116.413 7.18316 117.274 7.50552 117.944C7.66513 118.275 7.86528 118.615 8.12101 118.885C8.37275 119.151 8.78076 119.455 9.33655 119.455Z" fill="#004357"/>
</g>
<path d="M57 98C57 86.9543 65.9543 78 77 78V78C88.0457 78 97 86.9543 97 98V98C97 109.046 88.0457 118 77 118V118C65.9543 118 57 109.046 57 98V98Z" fill="#BED73C"/>
<circle cx="77" cy="98" r="20" fill="#BED73C"/>
<mask id="mask1_6262_108774" style="mask-type:alpha" maskUnits="userSpaceOnUse" x="57" y="73" width="40" height="45">
<path d="M57 73.4531H97V97.9988C97 109.044 88.0457 117.999 77 117.999V117.999C65.9543 117.999 57 109.044 57 97.9988V73.4531Z" fill="#D9D9D9"/>
</mask>
<g mask="url(#mask1_6262_108774)">
<path fill-rule="evenodd" clip-rule="evenodd" d="M83.5226 93.8563L82.3973 94.8691L83.7705 95.5067C89.7937 98.3032 93.8685 104.32 93.8685 111.183C93.8685 112.926 93.1826 115.728 92.0127 118.096C91.4314 119.272 90.7594 120.281 90.0465 120.982C89.3296 121.687 88.6587 121.998 88.0535 121.998H65.3366C64.7313 121.998 64.0604 121.687 63.3435 120.982C62.6306 120.281 61.9586 119.272 61.3773 118.096C60.2074 115.728 59.5215 112.926 59.5215 111.183C59.5215 104.32 63.5963 98.3032 69.6195 95.5067L70.9927 94.8691L69.8674 93.8563C67.7745 91.9727 66.3366 89.2781 66.3366 86.1944C66.3366 80.3859 70.8866 75.8359 76.695 75.8359C82.5035 75.8359 87.0535 80.3859 87.0535 86.1944C87.0535 89.2781 85.6155 91.9727 83.5226 93.8563ZM76.695 78.3793C72.2808 78.3793 68.8799 81.7802 68.8799 86.1944C68.8799 90.6085 72.2808 94.0095 76.695 94.0095C81.1092 94.0095 84.5101 90.6085 84.5101 86.1944C84.5101 81.7802 81.1092 78.3793 76.695 78.3793ZM65.3366 119.455H88.0535C88.6092 119.455 89.0173 119.151 89.269 118.885C89.5247 118.615 89.7249 118.275 89.8845 117.944C90.2069 117.274 90.4678 116.413 90.6725 115.565C91.0805 113.874 91.3251 111.972 91.3251 111.183C91.3251 103.134 84.7439 96.5528 76.695 96.5528C68.6461 96.5528 62.0649 103.134 62.0649 111.183C62.0649 111.972 62.3095 113.874 62.7175 115.565C62.9222 116.413 63.1832 117.274 63.5055 117.944C63.6651 118.275 63.8653 118.615 64.121 118.885C64.3727 119.151 64.7808 119.455 65.3366 119.455Z" fill="#004357"/>
</g>
<path d="M113 98C113 86.9543 121.954 78 133 78V78C144.046 78 153 86.9543 153 98V98C153 109.046 144.046 118 133 118V118C121.954 118 113 109.046 113 98V98Z" fill="#BED73C"/>
<circle cx="133" cy="98" r="20" fill="#BED73C"/>
<mask id="mask2_6262_108774" style="mask-type:alpha" maskUnits="userSpaceOnUse" x="113" y="73" width="40" height="45">
<path d="M113 73.4531H153V97.9988C153 109.044 144.046 117.999 133 117.999V117.999C121.954 117.999 113 109.044 113 97.9988V73.4531Z" fill="#D9D9D9"/>
</mask>
<g mask="url(#mask2_6262_108774)">
<path fill-rule="evenodd" clip-rule="evenodd" d="M139.523 93.8563L138.397 94.8691L139.77 95.5067C145.794 98.3032 149.869 104.32 149.869 111.183C149.869 112.926 149.183 115.728 148.013 118.096C147.431 119.272 146.759 120.281 146.047 120.982C145.33 121.687 144.659 121.998 144.053 121.998H121.337C120.731 121.998 120.06 121.687 119.343 120.982C118.631 120.281 117.959 119.272 117.377 118.096C116.207 115.728 115.521 112.926 115.521 111.183C115.521 104.32 119.596 98.3032 125.62 95.5067L126.993 94.8691L125.867 93.8563C123.774 91.9727 122.337 89.2781 122.337 86.1944C122.337 80.3859 126.887 75.8359 132.695 75.8359C138.503 75.8359 143.053 80.3859 143.053 86.1944C143.053 89.2781 141.616 91.9727 139.523 93.8563ZM132.695 78.3793C128.281 78.3793 124.88 81.7802 124.88 86.1944C124.88 90.6085 128.281 94.0095 132.695 94.0095C137.109 94.0095 140.51 90.6085 140.51 86.1944C140.51 81.7802 137.109 78.3793 132.695 78.3793ZM121.337 119.455H144.053C144.609 119.455 145.017 119.151 145.269 118.885C145.525 118.615 145.725 118.275 145.884 117.944C146.207 117.274 146.468 116.413 146.673 115.565C147.08 113.874 147.325 111.972 147.325 111.183C147.325 103.134 140.744 96.5528 132.695 96.5528C124.646 96.5528 118.065 103.134 118.065 111.183C118.065 111.972 118.31 113.874 118.717 115.565C118.922 116.413 119.183 117.274 119.506 117.944C119.665 118.275 119.865 118.615 120.121 118.885C120.373 119.151 120.781 119.455 121.337 119.455Z" fill="#004357"/>
</g>
<path d="M169 98C169 86.9543 177.954 78 189 78V78C200.046 78 209 86.9543 209 98V98C209 109.046 200.046 118 189 118V118C177.954 118 169 109.046 169 98V98Z" fill="#BED73C"/>
<circle cx="189" cy="98" r="20" fill="#BED73C"/>
<mask id="mask3_6262_108774" style="mask-type:alpha" maskUnits="userSpaceOnUse" x="169" y="73" width="40" height="45">
<path d="M169 73.4531H209V97.9988C209 109.044 200.046 117.999 189 117.999V117.999C177.954 117.999 169 109.044 169 97.9988V73.4531Z" fill="#D9D9D9"/>
</mask>
<g mask="url(#mask3_6262_108774)">
<path fill-rule="evenodd" clip-rule="evenodd" d="M195.523 93.8563L194.397 94.8691L195.77 95.5067C201.794 98.3032 205.869 104.32 205.869 111.183C205.869 112.926 205.183 115.728 204.013 118.096C203.431 119.272 202.759 120.281 202.047 120.982C201.33 121.687 200.659 121.998 200.053 121.998H177.337C176.731 121.998 176.06 121.687 175.343 120.982C174.631 120.281 173.959 119.272 173.377 118.096C172.207 115.728 171.521 112.926 171.521 111.183C171.521 104.32 175.596 98.3032 181.62 95.5067L182.993 94.8691L181.867 93.8563C179.774 91.9727 178.337 89.2781 178.337 86.1944C178.337 80.3859 182.887 75.8359 188.695 75.8359C194.503 75.8359 199.053 80.3859 199.053 86.1944C199.053 89.2781 197.616 91.9727 195.523 93.8563ZM188.695 78.3793C184.281 78.3793 180.88 81.7802 180.88 86.1944C180.88 90.6085 184.281 94.0095 188.695 94.0095C193.109 94.0095 196.51 90.6085 196.51 86.1944C196.51 81.7802 193.109 78.3793 188.695 78.3793ZM177.337 119.455H200.053C200.609 119.455 201.017 119.151 201.269 118.885C201.525 118.615 201.725 118.275 201.884 117.944C202.207 117.274 202.468 116.413 202.673 115.565C203.08 113.874 203.325 111.972 203.325 111.183C203.325 103.134 196.744 96.5528 188.695 96.5528C180.646 96.5528 174.065 103.134 174.065 111.183C174.065 111.972 174.31 113.874 174.717 115.565C174.922 116.413 175.183 117.274 175.506 117.944C175.665 118.275 175.865 118.615 176.121 118.885C176.373 119.151 176.781 119.455 177.337 119.455Z" fill="#004357"/>
</g>
<path d="M225 98C225 86.9543 233.954 78 245 78V78C256.046 78 265 86.9543 265 98V98C265 109.046 256.046 118 245 118V118C233.954 118 225 109.046 225 98V98Z" fill="#BED73C"/>
<circle cx="245" cy="98" r="20" fill="#BED73C"/>
<mask id="mask4_6262_108774" style="mask-type:alpha" maskUnits="userSpaceOnUse" x="225" y="73" width="40" height="45">
<path d="M225 73.4531H265V97.9988C265 109.044 256.046 117.999 245 117.999V117.999C233.954 117.999 225 109.044 225 97.9988V73.4531Z" fill="#D9D9D9"/>
</mask>
<g mask="url(#mask4_6262_108774)">
<path fill-rule="evenodd" clip-rule="evenodd" d="M251.523 93.8563L250.397 94.8691L251.77 95.5067C257.794 98.3032 261.869 104.32 261.869 111.183C261.869 112.926 261.183 115.728 260.013 118.096C259.431 119.272 258.759 120.281 258.047 120.982C257.33 121.687 256.659 121.998 256.053 121.998H233.337C232.731 121.998 232.06 121.687 231.343 120.982C230.631 120.281 229.959 119.272 229.377 118.096C228.207 115.728 227.521 112.926 227.521 111.183C227.521 104.32 231.596 98.3032 237.62 95.5067L238.993 94.8691L237.867 93.8563C235.774 91.9727 234.337 89.2781 234.337 86.1944C234.337 80.3859 238.887 75.8359 244.695 75.8359C250.503 75.8359 255.053 80.3859 255.053 86.1944C255.053 89.2781 253.616 91.9727 251.523 93.8563ZM244.695 78.3793C240.281 78.3793 236.88 81.7802 236.88 86.1944C236.88 90.6085 240.281 94.0095 244.695 94.0095C249.109 94.0095 252.51 90.6085 252.51 86.1944C252.51 81.7802 249.109 78.3793 244.695 78.3793ZM233.337 119.455H256.053C256.609 119.455 257.017 119.151 257.269 118.885C257.525 118.615 257.725 118.275 257.884 117.944C258.207 117.274 258.468 116.413 258.673 115.565C259.08 113.874 259.325 111.972 259.325 111.183C259.325 103.134 252.744 96.5528 244.695 96.5528C236.646 96.5528 230.065 103.134 230.065 111.183C230.065 111.972 230.31 113.874 230.717 115.565C230.922 116.413 231.183 117.274 231.506 117.944C231.665 118.275 231.865 118.615 232.121 118.885C232.373 119.151 232.781 119.455 233.337 119.455Z" fill="#004357"/>
</g>
<path d="M281 98C281 86.9543 289.954 78 301 78V78C312.046 78 321 86.9543 321 98V98C321 109.046 312.046 118 301 118V118C289.954 118 281 109.046 281 98V98Z" fill="#F3F4F6"/>
<circle cx="301" cy="98" r="20" fill="#F3F4F6"/>
<mask id="mask5_6262_108774" style="mask-type:alpha" maskUnits="userSpaceOnUse" x="281" y="73" width="40" height="45">
<path d="M281 73.4531H321V97.9988C321 109.044 312.046 117.999 301 117.999V117.999C289.954 117.999 281 109.044 281 97.9988V73.4531Z" fill="#D9D9D9"/>
</mask>
<g mask="url(#mask5_6262_108774)">
<path fill-rule="evenodd" clip-rule="evenodd" d="M307.523 93.8563L306.397 94.8691L307.77 95.5067C313.794 98.3032 317.869 104.32 317.869 111.183C317.869 112.926 317.183 115.728 316.013 118.096C315.431 119.272 314.759 120.281 314.047 120.982C313.33 121.687 312.659 121.998 312.053 121.998H289.337C288.731 121.998 288.06 121.687 287.343 120.982C286.631 120.281 285.959 119.272 285.377 118.096C284.207 115.728 283.521 112.926 283.521 111.183C283.521 104.32 287.596 98.3032 293.62 95.5067L294.993 94.8691L293.867 93.8563C291.774 91.9727 290.337 89.2781 290.337 86.1944C290.337 80.3859 294.887 75.8359 300.695 75.8359C306.503 75.8359 311.053 80.3859 311.053 86.1944C311.053 89.2781 309.616 91.9727 307.523 93.8563ZM300.695 78.3793C296.281 78.3793 292.88 81.7802 292.88 86.1944C292.88 90.6085 296.281 94.0095 300.695 94.0095C305.109 94.0095 308.51 90.6085 308.51 86.1944C308.51 81.7802 305.109 78.3793 300.695 78.3793ZM289.337 119.455H312.053C312.609 119.455 313.017 119.151 313.269 118.885C313.525 118.615 313.725 118.275 313.884 117.944C314.207 117.274 314.468 116.413 314.673 115.565C315.08 113.874 315.325 111.972 315.325 111.183C315.325 103.134 308.744 96.5528 300.695 96.5528C292.646 96.5528 286.065 103.134 286.065 111.183C286.065 111.972 286.31 113.874 286.717 115.565C286.922 116.413 287.183 117.274 287.506 117.944C287.665 118.275 287.865 118.615 288.121 118.885C288.373 119.151 288.781 119.455 289.337 119.455Z" fill="#004357"/>
</g>
<path d="M337 98C337 86.9543 345.954 78 357 78V78C368.046 78 377 86.9543 377 98V98C377 109.046 368.046 118 357 118V118C345.954 118 337 109.046 337 98V98Z" fill="#F3F4F6"/>
<circle cx="357" cy="98" r="20" fill="#F3F4F6"/>
<mask id="mask6_6262_108774" style="mask-type:alpha" maskUnits="userSpaceOnUse" x="337" y="73" width="40" height="45">
<path d="M337 73.4531H377V97.9988C377 109.044 368.046 117.999 357 117.999V117.999C345.954 117.999 337 109.044 337 97.9988V73.4531Z" fill="#D9D9D9"/>
</mask>
<g mask="url(#mask6_6262_108774)">
<path fill-rule="evenodd" clip-rule="evenodd" d="M363.523 93.8563L362.397 94.8691L363.77 95.5067C369.794 98.3032 373.869 104.32 373.869 111.183C373.869 112.926 373.183 115.728 372.013 118.096C371.431 119.272 370.759 120.281 370.047 120.982C369.33 121.687 368.659 121.998 368.053 121.998H345.337C344.731 121.998 344.06 121.687 343.343 120.982C342.631 120.281 341.959 119.272 341.377 118.096C340.207 115.728 339.521 112.926 339.521 111.183C339.521 104.32 343.596 98.3032 349.62 95.5067L350.993 94.8691L349.867 93.8563C347.774 91.9727 346.337 89.2781 346.337 86.1944C346.337 80.3859 350.887 75.8359 356.695 75.8359C362.503 75.8359 367.053 80.3859 367.053 86.1944C367.053 89.2781 365.616 91.9727 363.523 93.8563ZM356.695 78.3793C352.281 78.3793 348.88 81.7802 348.88 86.1944C348.88 90.6085 352.281 94.0095 356.695 94.0095C361.109 94.0095 364.51 90.6085 364.51 86.1944C364.51 81.7802 361.109 78.3793 356.695 78.3793ZM345.337 119.455H368.053C368.609 119.455 369.017 119.151 369.269 118.885C369.525 118.615 369.725 118.275 369.884 117.944C370.207 117.274 370.468 116.413 370.673 115.565C371.08 113.874 371.325 111.972 371.325 111.183C371.325 103.134 364.744 96.5528 356.695 96.5528C348.646 96.5528 342.065 103.134 342.065 111.183C342.065 111.972 342.31 113.874 342.717 115.565C342.922 116.413 343.183 117.274 343.506 117.944C343.665 118.275 343.865 118.615 344.121 118.885C344.373 119.151 344.781 119.455 345.337 119.455Z" fill="#004357"/>
</g>
<path d="M393 98C393 86.9543 401.954 78 413 78V78C424.046 78 433 86.9543 433 98V98C433 109.046 424.046 118 413 118V118C401.954 118 393 109.046 393 98V98Z" fill="#F3F4F6"/>
<circle cx="413" cy="98" r="20" fill="#F3F4F6"/>
<mask id="mask7_6262_108774" style="mask-type:alpha" maskUnits="userSpaceOnUse" x="393" y="73" width="40" height="45">
<path d="M393 73.4531H433V97.9988C433 109.044 424.046 117.999 413 117.999V117.999C401.954 117.999 393 109.044 393 97.9988V73.4531Z" fill="#D9D9D9"/>
</mask>
<g mask="url(#mask7_6262_108774)">
<path fill-rule="evenodd" clip-rule="evenodd" d="M419.523 93.8563L418.397 94.8691L419.77 95.5067C425.794 98.3032 429.869 104.32 429.869 111.183C429.869 112.926 429.183 115.728 428.013 118.096C427.431 119.272 426.759 120.281 426.047 120.982C425.33 121.687 424.659 121.998 424.053 121.998H401.337C400.731 121.998 400.06 121.687 399.343 120.982C398.631 120.281 397.959 119.272 397.377 118.096C396.207 115.728 395.521 112.926 395.521 111.183C395.521 104.32 399.596 98.3032 405.62 95.5067L406.993 94.8691L405.867 93.8563C403.774 91.9727 402.337 89.2781 402.337 86.1944C402.337 80.3859 406.887 75.8359 412.695 75.8359C418.503 75.8359 423.053 80.3859 423.053 86.1944C423.053 89.2781 421.616 91.9727 419.523 93.8563ZM412.695 78.3793C408.281 78.3793 404.88 81.7802 404.88 86.1944C404.88 90.6085 408.281 94.0095 412.695 94.0095C417.109 94.0095 420.51 90.6085 420.51 86.1944C420.51 81.7802 417.109 78.3793 412.695 78.3793ZM401.337 119.455H424.053C424.609 119.455 425.017 119.151 425.269 118.885C425.525 118.615 425.725 118.275 425.884 117.944C426.207 117.274 426.468 116.413 426.673 115.565C427.08 113.874 427.325 111.972 427.325 111.183C427.325 103.134 420.744 96.5528 412.695 96.5528C404.646 96.5528 398.065 103.134 398.065 111.183C398.065 111.972 398.31 113.874 398.717 115.565C398.922 116.413 399.183 117.274 399.506 117.944C399.665 118.275 399.865 118.615 400.121 118.885C400.373 119.151 400.781 119.455 401.337 119.455Z" fill="#004357"/>
</g>
<path d="M449 98C449 86.9543 457.954 78 469 78V78C480.046 78 489 86.9543 489 98V98C489 109.046 480.046 118 469 118V118C457.954 118 449 109.046 449 98V98Z" fill="#F3F4F6"/>
<circle cx="469" cy="98" r="20" fill="#F3F4F6"/>
<mask id="mask8_6262_108774" style="mask-type:alpha" maskUnits="userSpaceOnUse" x="449" y="73" width="40" height="45">
<path d="M449 73.4531H489V97.9988C489 109.044 480.046 117.999 469 117.999V117.999C457.954 117.999 449 109.044 449 97.9988V73.4531Z" fill="#D9D9D9"/>
</mask>
<g mask="url(#mask8_6262_108774)">
<path fill-rule="evenodd" clip-rule="evenodd" d="M475.523 93.8563L474.397 94.8691L475.77 95.5067C481.794 98.3032 485.869 104.32 485.869 111.183C485.869 112.926 485.183 115.728 484.013 118.096C483.431 119.272 482.759 120.281 482.047 120.982C481.33 121.687 480.659 121.998 480.053 121.998H457.337C456.731 121.998 456.06 121.687 455.343 120.982C454.631 120.281 453.959 119.272 453.377 118.096C452.207 115.728 451.521 112.926 451.521 111.183C451.521 104.32 455.596 98.3032 461.62 95.5067L462.993 94.8691L461.867 93.8563C459.774 91.9727 458.337 89.2781 458.337 86.1944C458.337 80.3859 462.887 75.8359 468.695 75.8359C474.503 75.8359 479.053 80.3859 479.053 86.1944C479.053 89.2781 477.616 91.9727 475.523 93.8563ZM468.695 78.3793C464.281 78.3793 460.88 81.7802 460.88 86.1944C460.88 90.6085 464.281 94.0095 468.695 94.0095C473.109 94.0095 476.51 90.6085 476.51 86.1944C476.51 81.7802 473.109 78.3793 468.695 78.3793ZM457.337 119.455H480.053C480.609 119.455 481.017 119.151 481.269 118.885C481.525 118.615 481.725 118.275 481.884 117.944C482.207 117.274 482.468 116.413 482.673 115.565C483.08 113.874 483.325 111.972 483.325 111.183C483.325 103.134 476.744 96.5528 468.695 96.5528C460.646 96.5528 454.065 103.134 454.065 111.183C454.065 111.972 454.31 113.874 454.717 115.565C454.922 116.413 455.183 117.274 455.506 117.944C455.665 118.275 455.865 118.615 456.121 118.885C456.373 119.151 456.781 119.455 457.337 119.455Z" fill="#004357"/>
</g>
<path d="M1 154C1 142.954 9.95431 134 21 134V134C32.0457 134 41 142.954 41 154V154C41 165.046 32.0457 174 21 174V174C9.95431 174 1 165.046 1 154V154Z" fill="#F3F4F6"/>
<circle cx="21" cy="154" r="20" fill="#F3F4F6"/>
<mask id="mask9_6262_108774" style="mask-type:alpha" maskUnits="userSpaceOnUse" x="1" y="129" width="40" height="45">
<path d="M1 129.453H41V153.999C41 165.044 32.0457 173.999 21 173.999V173.999C9.95431 173.999 1 165.044 1 153.999V129.453Z" fill="#D9D9D9"/>
</mask>
<g mask="url(#mask9_6262_108774)">
<path fill-rule="evenodd" clip-rule="evenodd" d="M27.5226 149.856L26.3973 150.869L27.7705 151.507C33.7937 154.303 37.8685 160.32 37.8685 167.183C37.8685 168.926 37.1826 171.728 36.0127 174.096C35.4314 175.272 34.7594 176.281 34.0465 176.982C33.3296 177.687 32.6587 177.998 32.0535 177.998H9.33655C8.73133 177.998 8.06039 177.687 7.34347 176.982C6.63063 176.281 5.95863 175.272 5.37734 174.096C4.20742 171.728 3.52148 168.926 3.52148 167.183C3.52148 160.32 7.5963 154.303 13.6195 151.507L14.9927 150.869L13.8674 149.856C11.7745 147.973 10.3366 145.278 10.3366 142.194C10.3366 136.386 14.8866 131.836 20.695 131.836C26.5035 131.836 31.0535 136.386 31.0535 142.194C31.0535 145.278 29.6155 147.973 27.5226 149.856ZM20.695 134.379C16.2808 134.379 12.8799 137.78 12.8799 142.194C12.8799 146.609 16.2808 150.009 20.695 150.009C25.1092 150.009 28.5101 146.609 28.5101 142.194C28.5101 137.78 25.1092 134.379 20.695 134.379ZM9.33655 175.455H32.0535C32.6092 175.455 33.0173 175.151 33.269 174.885C33.5247 174.615 33.7249 174.275 33.8845 173.944C34.2069 173.274 34.4678 172.413 34.6725 171.565C35.0805 169.874 35.3251 167.972 35.3251 167.183C35.3251 159.134 28.7439 152.553 20.695 152.553C12.6461 152.553 6.06486 159.134 6.06486 167.183C6.06486 167.972 6.30952 169.874 6.71748 171.565C6.92219 172.413 7.18316 173.274 7.50552 173.944C7.66513 174.275 7.86528 174.615 8.12101 174.885C8.37275 175.151 8.78076 175.455 9.33655 175.455Z" fill="#004357"/>
</g>
<path d="M57 154C57 142.954 65.9543 134 77 134V134C88.0457 134 97 142.954 97 154V154C97 165.046 88.0457 174 77 174V174C65.9543 174 57 165.046 57 154V154Z" fill="#F3F4F6"/>
<circle cx="77" cy="154" r="20" fill="#F3F4F6"/>
<mask id="mask10_6262_108774" style="mask-type:alpha" maskUnits="userSpaceOnUse" x="57" y="129" width="40" height="45">
<path d="M57 129.453H97V153.999C97 165.044 88.0457 173.999 77 173.999V173.999C65.9543 173.999 57 165.044 57 153.999V129.453Z" fill="#D9D9D9"/>
</mask>
<g mask="url(#mask10_6262_108774)">
<path fill-rule="evenodd" clip-rule="evenodd" d="M83.5226 149.856L82.3973 150.869L83.7705 151.507C89.7937 154.303 93.8685 160.32 93.8685 167.183C93.8685 168.926 93.1826 171.728 92.0127 174.096C91.4314 175.272 90.7594 176.281 90.0465 176.982C89.3296 177.687 88.6587 177.998 88.0535 177.998H65.3366C64.7313 177.998 64.0604 177.687 63.3435 176.982C62.6306 176.281 61.9586 175.272 61.3773 174.096C60.2074 171.728 59.5215 168.926 59.5215 167.183C59.5215 160.32 63.5963 154.303 69.6195 151.507L70.9927 150.869L69.8674 149.856C67.7745 147.973 66.3366 145.278 66.3366 142.194C66.3366 136.386 70.8866 131.836 76.695 131.836C82.5035 131.836 87.0535 136.386 87.0535 142.194C87.0535 145.278 85.6155 147.973 83.5226 149.856ZM76.695 134.379C72.2808 134.379 68.8799 137.78 68.8799 142.194C68.8799 146.609 72.2808 150.009 76.695 150.009C81.1092 150.009 84.5101 146.609 84.5101 142.194C84.5101 137.78 81.1092 134.379 76.695 134.379ZM65.3366 175.455H88.0535C88.6092 175.455 89.0173 175.151 89.269 174.885C89.5247 174.615 89.7249 174.275 89.8845 173.944C90.2069 173.274 90.4678 172.413 90.6725 171.565C91.0805 169.874 91.3251 167.972 91.3251 167.183C91.3251 159.134 84.7439 152.553 76.695 152.553C68.6461 152.553 62.0649 159.134 62.0649 167.183C62.0649 167.972 62.3095 169.874 62.7175 171.565C62.9222 172.413 63.1832 173.274 63.5055 173.944C63.6651 174.275 63.8653 174.615 64.121 174.885C64.3727 175.151 64.7808 175.455 65.3366 175.455Z" fill="#004357"/>
</g>
<path d="M113 154C113 142.954 121.954 134 133 134V134C144.046 134 153 142.954 153 154V154C153 165.046 144.046 174 133 174V174C121.954 174 113 165.046 113 154V154Z" fill="#F3F4F6"/>
<circle cx="133" cy="154" r="20" fill="#F3F4F6"/>
<mask id="mask11_6262_108774" style="mask-type:alpha" maskUnits="userSpaceOnUse" x="113" y="129" width="40" height="45">
<path d="M113 129.453H153V153.999C153 165.044 144.046 173.999 133 173.999V173.999C121.954 173.999 113 165.044 113 153.999V129.453Z" fill="#D9D9D9"/>
</mask>
<g mask="url(#mask11_6262_108774)">
<path fill-rule="evenodd" clip-rule="evenodd" d="M139.523 149.856L138.397 150.869L139.77 151.507C145.794 154.303 149.869 160.32 149.869 167.183C149.869 168.926 149.183 171.728 148.013 174.096C147.431 175.272 146.759 176.281 146.047 176.982C145.33 177.687 144.659 177.998 144.053 177.998H121.337C120.731 177.998 120.06 177.687 119.343 176.982C118.631 176.281 117.959 175.272 117.377 174.096C116.207 171.728 115.521 168.926 115.521 167.183C115.521 160.32 119.596 154.303 125.62 151.507L126.993 150.869L125.867 149.856C123.774 147.973 122.337 145.278 122.337 142.194C122.337 136.386 126.887 131.836 132.695 131.836C138.503 131.836 143.053 136.386 143.053 142.194C143.053 145.278 141.616 147.973 139.523 149.856ZM132.695 134.379C128.281 134.379 124.88 137.78 124.88 142.194C124.88 146.609 128.281 150.009 132.695 150.009C137.109 150.009 140.51 146.609 140.51 142.194C140.51 137.78 137.109 134.379 132.695 134.379ZM121.337 175.455H144.053C144.609 175.455 145.017 175.151 145.269 174.885C145.525 174.615 145.725 174.275 145.884 173.944C146.207 173.274 146.468 172.413 146.673 171.565C147.08 169.874 147.325 167.972 147.325 167.183C147.325 159.134 140.744 152.553 132.695 152.553C124.646 152.553 118.065 159.134 118.065 167.183C118.065 167.972 118.31 169.874 118.717 171.565C118.922 172.413 119.183 173.274 119.506 173.944C119.665 174.275 119.865 174.615 120.121 174.885C120.373 175.151 120.781 175.455 121.337 175.455Z" fill="#004357"/>
</g>
<path d="M169 154C169 142.954 177.954 134 189 134V134C200.046 134 209 142.954 209 154V154C209 165.046 200.046 174 189 174V174C177.954 174 169 165.046 169 154V154Z" fill="#F3F4F6"/>
<circle cx="189" cy="154" r="20" fill="#F3F4F6"/>
<mask id="mask12_6262_108774" style="mask-type:alpha" maskUnits="userSpaceOnUse" x="169" y="129" width="40" height="45">
<path d="M169 129.453H209V153.999C209 165.044 200.046 173.999 189 173.999V173.999C177.954 173.999 169 165.044 169 153.999V129.453Z" fill="#D9D9D9"/>
</mask>
<g mask="url(#mask12_6262_108774)">
<path fill-rule="evenodd" clip-rule="evenodd" d="M195.523 149.856L194.397 150.869L195.77 151.507C201.794 154.303 205.869 160.32 205.869 167.183C205.869 168.926 205.183 171.728 204.013 174.096C203.431 175.272 202.759 176.281 202.047 176.982C201.33 177.687 200.659 177.998 200.053 177.998H177.337C176.731 177.998 176.06 177.687 175.343 176.982C174.631 176.281 173.959 175.272 173.377 174.096C172.207 171.728 171.521 168.926 171.521 167.183C171.521 160.32 175.596 154.303 181.62 151.507L182.993 150.869L181.867 149.856C179.774 147.973 178.337 145.278 178.337 142.194C178.337 136.386 182.887 131.836 188.695 131.836C194.503 131.836 199.053 136.386 199.053 142.194C199.053 145.278 197.616 147.973 195.523 149.856ZM188.695 134.379C184.281 134.379 180.88 137.78 180.88 142.194C180.88 146.609 184.281 150.009 188.695 150.009C193.109 150.009 196.51 146.609 196.51 142.194C196.51 137.78 193.109 134.379 188.695 134.379ZM177.337 175.455H200.053C200.609 175.455 201.017 175.151 201.269 174.885C201.525 174.615 201.725 174.275 201.884 173.944C202.207 173.274 202.468 172.413 202.673 171.565C203.08 169.874 203.325 167.972 203.325 167.183C203.325 159.134 196.744 152.553 188.695 152.553C180.646 152.553 174.065 159.134 174.065 167.183C174.065 167.972 174.31 169.874 174.717 171.565C174.922 172.413 175.183 173.274 175.506 173.944C175.665 174.275 175.865 174.615 176.121 174.885C176.373 175.151 176.781 175.455 177.337 175.455Z" fill="#004357"/>
</g>
<path d="M225 154C225 142.954 233.954 134 245 134V134C256.046 134 265 142.954 265 154V154C265 165.046 256.046 174 245 174V174C233.954 174 225 165.046 225 154V154Z" fill="#F3F4F6"/>
<circle cx="245" cy="154" r="20" fill="#F3F4F6"/>
<mask id="mask13_6262_108774" style="mask-type:alpha" maskUnits="userSpaceOnUse" x="225" y="129" width="40" height="45">
<path d="M225 129.453H265V153.999C265 165.044 256.046 173.999 245 173.999V173.999C233.954 173.999 225 165.044 225 153.999V129.453Z" fill="#D9D9D9"/>
</mask>
<g mask="url(#mask13_6262_108774)">
<path fill-rule="evenodd" clip-rule="evenodd" d="M251.523 149.856L250.397 150.869L251.77 151.507C257.794 154.303 261.869 160.32 261.869 167.183C261.869 168.926 261.183 171.728 260.013 174.096C259.431 175.272 258.759 176.281 258.047 176.982C257.33 177.687 256.659 177.998 256.053 177.998H233.337C232.731 177.998 232.06 177.687 231.343 176.982C230.631 176.281 229.959 175.272 229.377 174.096C228.207 171.728 227.521 168.926 227.521 167.183C227.521 160.32 231.596 154.303 237.62 151.507L238.993 150.869L237.867 149.856C235.774 147.973 234.337 145.278 234.337 142.194C234.337 136.386 238.887 131.836 244.695 131.836C250.503 131.836 255.053 136.386 255.053 142.194C255.053 145.278 253.616 147.973 251.523 149.856ZM244.695 134.379C240.281 134.379 236.88 137.78 236.88 142.194C236.88 146.609 240.281 150.009 244.695 150.009C249.109 150.009 252.51 146.609 252.51 142.194C252.51 137.78 249.109 134.379 244.695 134.379ZM233.337 175.455H256.053C256.609 175.455 257.017 175.151 257.269 174.885C257.525 174.615 257.725 174.275 257.884 173.944C258.207 173.274 258.468 172.413 258.673 171.565C259.08 169.874 259.325 167.972 259.325 167.183C259.325 159.134 252.744 152.553 244.695 152.553C236.646 152.553 230.065 159.134 230.065 167.183C230.065 167.972 230.31 169.874 230.717 171.565C230.922 172.413 231.183 173.274 231.506 173.944C231.665 174.275 231.865 174.615 232.121 174.885C232.373 175.151 232.781 175.455 233.337 175.455Z" fill="#004357"/>
</g>
<path d="M281 154C281 142.954 289.954 134 301 134V134C312.046 134 321 142.954 321 154V154C321 165.046 312.046 174 301 174V174C289.954 174 281 165.046 281 154V154Z" fill="#F3F4F6"/>
<circle cx="301" cy="154" r="20" fill="#F3F4F6"/>
<mask id="mask14_6262_108774" style="mask-type:alpha" maskUnits="userSpaceOnUse" x="281" y="129" width="40" height="45">
<path d="M281 129.453H321V153.999C321 165.044 312.046 173.999 301 173.999V173.999C289.954 173.999 281 165.044 281 153.999V129.453Z" fill="#D9D9D9"/>
</mask>
<g mask="url(#mask14_6262_108774)">
<path fill-rule="evenodd" clip-rule="evenodd" d="M307.523 149.856L306.397 150.869L307.77 151.507C313.794 154.303 317.869 160.32 317.869 167.183C317.869 168.926 317.183 171.728 316.013 174.096C315.431 175.272 314.759 176.281 314.047 176.982C313.33 177.687 312.659 177.998 312.053 177.998H289.337C288.731 177.998 288.06 177.687 287.343 176.982C286.631 176.281 285.959 175.272 285.377 174.096C284.207 171.728 283.521 168.926 283.521 167.183C283.521 160.32 287.596 154.303 293.62 151.507L294.993 150.869L293.867 149.856C291.774 147.973 290.337 145.278 290.337 142.194C290.337 136.386 294.887 131.836 300.695 131.836C306.503 131.836 311.053 136.386 311.053 142.194C311.053 145.278 309.616 147.973 307.523 149.856ZM300.695 134.379C296.281 134.379 292.88 137.78 292.88 142.194C292.88 146.609 296.281 150.009 300.695 150.009C305.109 150.009 308.51 146.609 308.51 142.194C308.51 137.78 305.109 134.379 300.695 134.379ZM289.337 175.455H312.053C312.609 175.455 313.017 175.151 313.269 174.885C313.525 174.615 313.725 174.275 313.884 173.944C314.207 173.274 314.468 172.413 314.673 171.565C315.08 169.874 315.325 167.972 315.325 167.183C315.325 159.134 308.744 152.553 300.695 152.553C292.646 152.553 286.065 159.134 286.065 167.183C286.065 167.972 286.31 169.874 286.717 171.565C286.922 172.413 287.183 173.274 287.506 173.944C287.665 174.275 287.865 174.615 288.121 174.885C288.373 175.151 288.781 175.455 289.337 175.455Z" fill="#004357"/>
</g>
<path d="M337 154C337 142.954 345.954 134 357 134V134C368.046 134 377 142.954 377 154V154C377 165.046 368.046 174 357 174V174C345.954 174 337 165.046 337 154V154Z" fill="#F3F4F6"/>
<circle cx="357" cy="154" r="20" fill="#F3F4F6"/>
<mask id="mask15_6262_108774" style="mask-type:alpha" maskUnits="userSpaceOnUse" x="337" y="129" width="40" height="45">
<path d="M337 129.453H377V153.999C377 165.044 368.046 173.999 357 173.999V173.999C345.954 173.999 337 165.044 337 153.999V129.453Z" fill="#D9D9D9"/>
</mask>
<g mask="url(#mask15_6262_108774)">
<path fill-rule="evenodd" clip-rule="evenodd" d="M363.523 149.856L362.397 150.869L363.77 151.507C369.794 154.303 373.869 160.32 373.869 167.183C373.869 168.926 373.183 171.728 372.013 174.096C371.431 175.272 370.759 176.281 370.047 176.982C369.33 177.687 368.659 177.998 368.053 177.998H345.337C344.731 177.998 344.06 177.687 343.343 176.982C342.631 176.281 341.959 175.272 341.377 174.096C340.207 171.728 339.521 168.926 339.521 167.183C339.521 160.32 343.596 154.303 349.62 151.507L350.993 150.869L349.867 149.856C347.774 147.973 346.337 145.278 346.337 142.194C346.337 136.386 350.887 131.836 356.695 131.836C362.503 131.836 367.053 136.386 367.053 142.194C367.053 145.278 365.616 147.973 363.523 149.856ZM356.695 134.379C352.281 134.379 348.88 137.78 348.88 142.194C348.88 146.609 352.281 150.009 356.695 150.009C361.109 150.009 364.51 146.609 364.51 142.194C364.51 137.78 361.109 134.379 356.695 134.379ZM345.337 175.455H368.053C368.609 175.455 369.017 175.151 369.269 174.885C369.525 174.615 369.725 174.275 369.884 173.944C370.207 173.274 370.468 172.413 370.673 171.565C371.08 169.874 371.325 167.972 371.325 167.183C371.325 159.134 364.744 152.553 356.695 152.553C348.646 152.553 342.065 159.134 342.065 167.183C342.065 167.972 342.31 169.874 342.717 171.565C342.922 172.413 343.183 173.274 343.506 173.944C343.665 174.275 343.865 174.615 344.121 174.885C344.373 175.151 344.781 175.455 345.337 175.455Z" fill="#004357"/>
</g>
<path d="M393 154C393 142.954 401.954 134 413 134V134C424.046 134 433 142.954 433 154V154C433 165.046 424.046 174 413 174V174C401.954 174 393 165.046 393 154V154Z" fill="#F3F4F6"/>
<circle cx="413" cy="154" r="20" fill="#F3F4F6"/>
<mask id="mask16_6262_108774" style="mask-type:alpha" maskUnits="userSpaceOnUse" x="393" y="129" width="40" height="45">
<path d="M393 129.453H433V153.999C433 165.044 424.046 173.999 413 173.999V173.999C401.954 173.999 393 165.044 393 153.999V129.453Z" fill="#D9D9D9"/>
</mask>
<g mask="url(#mask16_6262_108774)">
<path fill-rule="evenodd" clip-rule="evenodd" d="M419.523 149.856L418.397 150.869L419.77 151.507C425.794 154.303 429.869 160.32 429.869 167.183C429.869 168.926 429.183 171.728 428.013 174.096C427.431 175.272 426.759 176.281 426.047 176.982C425.33 177.687 424.659 177.998 424.053 177.998H401.337C400.731 177.998 400.06 177.687 399.343 176.982C398.631 176.281 397.959 175.272 397.377 174.096C396.207 171.728 395.521 168.926 395.521 167.183C395.521 160.32 399.596 154.303 405.62 151.507L406.993 150.869L405.867 149.856C403.774 147.973 402.337 145.278 402.337 142.194C402.337 136.386 406.887 131.836 412.695 131.836C418.503 131.836 423.053 136.386 423.053 142.194C423.053 145.278 421.616 147.973 419.523 149.856ZM412.695 134.379C408.281 134.379 404.88 137.78 404.88 142.194C404.88 146.609 408.281 150.009 412.695 150.009C417.109 150.009 420.51 146.609 420.51 142.194C420.51 137.78 417.109 134.379 412.695 134.379ZM401.337 175.455H424.053C424.609 175.455 425.017 175.151 425.269 174.885C425.525 174.615 425.725 174.275 425.884 173.944C426.207 173.274 426.468 172.413 426.673 171.565C427.08 169.874 427.325 167.972 427.325 167.183C427.325 159.134 420.744 152.553 412.695 152.553C404.646 152.553 398.065 159.134 398.065 167.183C398.065 167.972 398.31 169.874 398.717 171.565C398.922 172.413 399.183 173.274 399.506 173.944C399.665 174.275 399.865 174.615 400.121 174.885C400.373 175.151 400.781 175.455 401.337 175.455Z" fill="#004357"/>
</g>
<path d="M165.929 61.2174C165.452 61.4943 164.84 61.3314 164.563 60.8535L160.051 53.0664C159.774 52.5885 159.937 51.9767 160.414 51.6998C160.892 51.4229 161.504 51.5858 161.781 52.0636L165.792 58.9855L172.714 54.9746C173.192 54.6977 173.804 54.8607 174.08 55.3385C174.357 55.8164 174.194 56.4282 173.717 56.7051L165.929 61.2174ZM223.035 26.0588C209.575 23.2265 197.351 24.661 187.553 30.3541C177.763 36.0419 170.271 46.0512 166.394 60.6094L164.462 60.0948C168.448 45.1234 176.219 34.6259 186.548 28.6247C196.868 22.6288 209.62 21.1922 223.447 24.1017L223.035 26.0588Z" fill="#004357"/>
<path d="M415 312C415 300.954 423.954 292 435 292V292C446.046 292 455 300.954 455 312V312C455 323.046 446.046 332 435 332V332C423.954 332 415 323.046 415 312V312Z" fill="#F3F4F6"/>
<circle cx="435" cy="312" r="20" fill="#F3F4F6"/>
<mask id="mask17_6262_108774" style="mask-type:alpha" maskUnits="userSpaceOnUse" x="415" y="287" width="40" height="45">
<path d="M415 287.453H455V311.999C455 323.044 446.046 331.999 435 331.999V331.999C423.954 331.999 415 323.044 415 311.999V287.453Z" fill="#D9D9D9"/>
</mask>
<g mask="url(#mask17_6262_108774)">
<path fill-rule="evenodd" clip-rule="evenodd" d="M441.523 307.856L440.397 308.869L441.77 309.507C447.794 312.303 451.869 318.32 451.869 325.183C451.869 326.926 451.183 329.728 450.013 332.096C449.431 333.272 448.759 334.281 448.047 334.982C447.33 335.687 446.659 335.998 446.053 335.998H423.337C422.731 335.998 422.06 335.687 421.343 334.982C420.631 334.281 419.959 333.272 419.377 332.096C418.207 329.728 417.521 326.926 417.521 325.183C417.521 318.32 421.596 312.303 427.62 309.507L428.993 308.869L427.867 307.856C425.774 305.973 424.337 303.278 424.337 300.194C424.337 294.386 428.887 289.836 434.695 289.836C440.503 289.836 445.053 294.386 445.053 300.194C445.053 303.278 443.616 305.973 441.523 307.856ZM434.695 292.379C430.281 292.379 426.88 295.78 426.88 300.194C426.88 304.609 430.281 308.009 434.695 308.009C439.109 308.009 442.51 304.609 442.51 300.194C442.51 295.78 439.109 292.379 434.695 292.379ZM423.337 333.455H446.053C446.609 333.455 447.017 333.151 447.269 332.885C447.525 332.615 447.725 332.275 447.884 331.944C448.207 331.274 448.468 330.413 448.673 329.565C449.08 327.874 449.325 325.972 449.325 325.183C449.325 317.134 442.744 310.553 434.695 310.553C426.646 310.553 420.065 317.134 420.065 325.183C420.065 325.972 420.31 327.874 420.717 329.565C420.922 330.413 421.183 331.274 421.506 331.944C421.665 332.275 421.865 332.615 422.121 332.885C422.373 333.151 422.781 333.455 423.337 333.455Z" fill="#004357"/>
</g>
<path d="M471 312C471 300.954 479.954 292 491 292V292C502.046 292 511 300.954 511 312V312C511 323.046 502.046 332 491 332V332C479.954 332 471 323.046 471 312V312Z" fill="#F3F4F6"/>
<circle cx="491" cy="312" r="20" fill="#F3F4F6"/>
<mask id="mask18_6262_108774" style="mask-type:alpha" maskUnits="userSpaceOnUse" x="471" y="287" width="40" height="45">
<path d="M471 287.453H511V311.999C511 323.044 502.046 331.999 491 331.999V331.999C479.954 331.999 471 323.044 471 311.999V287.453Z" fill="#D9D9D9"/>
</mask>
<g mask="url(#mask18_6262_108774)">
<path fill-rule="evenodd" clip-rule="evenodd" d="M497.523 307.856L496.397 308.869L497.77 309.507C503.794 312.303 507.869 318.32 507.869 325.183C507.869 326.926 507.183 329.728 506.013 332.096C505.431 333.272 504.759 334.281 504.047 334.982C503.33 335.687 502.659 335.998 502.053 335.998H479.337C478.731 335.998 478.06 335.687 477.343 334.982C476.631 334.281 475.959 333.272 475.377 332.096C474.207 329.728 473.521 326.926 473.521 325.183C473.521 318.32 477.596 312.303 483.62 309.507L484.993 308.869L483.867 307.856C481.774 305.973 480.337 303.278 480.337 300.194C480.337 294.386 484.887 289.836 490.695 289.836C496.503 289.836 501.053 294.386 501.053 300.194C501.053 303.278 499.616 305.973 497.523 307.856ZM490.695 292.379C486.281 292.379 482.88 295.78 482.88 300.194C482.88 304.609 486.281 308.009 490.695 308.009C495.109 308.009 498.51 304.609 498.51 300.194C498.51 295.78 495.109 292.379 490.695 292.379ZM479.337 333.455H502.053C502.609 333.455 503.017 333.151 503.269 332.885C503.525 332.615 503.725 332.275 503.884 331.944C504.207 331.274 504.468 330.413 504.673 329.565C505.08 327.874 505.325 325.972 505.325 325.183C505.325 317.134 498.744 310.553 490.695 310.553C482.646 310.553 476.065 317.134 476.065 325.183C476.065 325.972 476.31 327.874 476.717 329.565C476.922 330.413 477.183 331.274 477.506 331.944C477.665 332.275 477.865 332.615 478.121 332.885C478.373 333.151 478.781 333.455 479.337 333.455Z" fill="#004357"/>
</g>
<path d="M527 312C527 300.954 535.954 292 547 292V292C558.046 292 567 300.954 567 312V312C567 323.046 558.046 332 547 332V332C535.954 332 527 323.046 527 312V312Z" fill="#F3F4F6"/>
<circle cx="547" cy="312" r="20" fill="#F3F4F6"/>
<mask id="mask19_6262_108774" style="mask-type:alpha" maskUnits="userSpaceOnUse" x="527" y="287" width="40" height="45">
<path d="M527 287.453H567V311.999C567 323.044 558.046 331.999 547 331.999V331.999C535.954 331.999 527 323.044 527 311.999V287.453Z" fill="#D9D9D9"/>
</mask>
<g mask="url(#mask19_6262_108774)">
<path fill-rule="evenodd" clip-rule="evenodd" d="M553.523 307.856L552.397 308.869L553.77 309.507C559.794 312.303 563.869 318.32 563.869 325.183C563.869 326.926 563.183 329.728 562.013 332.096C561.431 333.272 560.759 334.281 560.047 334.982C559.33 335.687 558.659 335.998 558.053 335.998H535.337C534.731 335.998 534.06 335.687 533.343 334.982C532.631 334.281 531.959 333.272 531.377 332.096C530.207 329.728 529.521 326.926 529.521 325.183C529.521 318.32 533.596 312.303 539.62 309.507L540.993 308.869L539.867 307.856C537.774 305.973 536.337 303.278 536.337 300.194C536.337 294.386 540.887 289.836 546.695 289.836C552.503 289.836 557.053 294.386 557.053 300.194C557.053 303.278 555.616 305.973 553.523 307.856ZM546.695 292.379C542.281 292.379 538.88 295.78 538.88 300.194C538.88 304.609 542.281 308.009 546.695 308.009C551.109 308.009 554.51 304.609 554.51 300.194C554.51 295.78 551.109 292.379 546.695 292.379ZM535.337 333.455H558.053C558.609 333.455 559.017 333.151 559.269 332.885C559.525 332.615 559.725 332.275 559.884 331.944C560.207 331.274 560.468 330.413 560.673 329.565C561.08 327.874 561.325 325.972 561.325 325.183C561.325 317.134 554.744 310.553 546.695 310.553C538.646 310.553 532.065 317.134 532.065 325.183C532.065 325.972 532.31 327.874 532.717 329.565C532.922 330.413 533.183 331.274 533.506 331.944C533.665 332.275 533.865 332.615 534.121 332.885C534.373 333.151 534.781 333.455 535.337 333.455Z" fill="#004357"/>
</g>
<path d="M583 312C583 300.954 591.954 292 603 292V292C614.046 292 623 300.954 623 312V312C623 323.046 614.046 332 603 332V332C591.954 332 583 323.046 583 312V312Z" fill="#BED73C"/>
<circle cx="603" cy="312" r="20" fill="#BED73C"/>
<mask id="mask20_6262_108774" style="mask-type:alpha" maskUnits="userSpaceOnUse" x="583" y="287" width="40" height="45">
<path d="M583 287.453H623V311.999C623 323.044 614.046 331.999 603 331.999V331.999C591.954 331.999 583 323.044 583 311.999V287.453Z" fill="#D9D9D9"/>
</mask>
<g mask="url(#mask20_6262_108774)">
<path fill-rule="evenodd" clip-rule="evenodd" d="M609.523 307.856L608.397 308.869L609.77 309.507C615.794 312.303 619.869 318.32 619.869 325.183C619.869 326.926 619.183 329.728 618.013 332.096C617.431 333.272 616.759 334.281 616.047 334.982C615.33 335.687 614.659 335.998 614.053 335.998H591.337C590.731 335.998 590.06 335.687 589.343 334.982C588.631 334.281 587.959 333.272 587.377 332.096C586.207 329.728 585.521 326.926 585.521 325.183C585.521 318.32 589.596 312.303 595.62 309.507L596.993 308.869L595.867 307.856C593.774 305.973 592.337 303.278 592.337 300.194C592.337 294.386 596.887 289.836 602.695 289.836C608.503 289.836 613.053 294.386 613.053 300.194C613.053 303.278 611.616 305.973 609.523 307.856ZM602.695 292.379C598.281 292.379 594.88 295.78 594.88 300.194C594.88 304.609 598.281 308.009 602.695 308.009C607.109 308.009 610.51 304.609 610.51 300.194C610.51 295.78 607.109 292.379 602.695 292.379ZM591.337 333.455H614.053C614.609 333.455 615.017 333.151 615.269 332.885C615.525 332.615 615.725 332.275 615.884 331.944C616.207 331.274 616.468 330.413 616.673 329.565C617.08 327.874 617.325 325.972 617.325 325.183C617.325 317.134 610.744 310.553 602.695 310.553C594.646 310.553 588.065 317.134 588.065 325.183C588.065 325.972 588.31 327.874 588.717 329.565C588.922 330.413 589.183 331.274 589.506 331.944C589.665 332.275 589.865 332.615 590.121 332.885C590.373 333.151 590.781 333.455 591.337 333.455Z" fill="#004357"/>
</g>
<path d="M639 312C639 300.954 647.954 292 659 292V292C670.046 292 679 300.954 679 312V312C679 323.046 670.046 332 659 332V332C647.954 332 639 323.046 639 312V312Z" fill="#BED73C"/>
<circle cx="659" cy="312" r="20" fill="#BED73C"/>
<mask id="mask21_6262_108774" style="mask-type:alpha" maskUnits="userSpaceOnUse" x="639" y="287" width="40" height="45">
<path d="M639 287.453H679V311.999C679 323.044 670.046 331.999 659 331.999V331.999C647.954 331.999 639 323.044 639 311.999V287.453Z" fill="#D9D9D9"/>
</mask>
<g mask="url(#mask21_6262_108774)">
<path fill-rule="evenodd" clip-rule="evenodd" d="M665.523 307.856L664.397 308.869L665.77 309.507C671.794 312.303 675.869 318.32 675.869 325.183C675.869 326.926 675.183 329.728 674.013 332.096C673.431 333.272 672.759 334.281 672.047 334.982C671.33 335.687 670.659 335.998 670.053 335.998H647.337C646.731 335.998 646.06 335.687 645.343 334.982C644.631 334.281 643.959 333.272 643.377 332.096C642.207 329.728 641.521 326.926 641.521 325.183C641.521 318.32 645.596 312.303 651.62 309.507L652.993 308.869L651.867 307.856C649.774 305.973 648.337 303.278 648.337 300.194C648.337 294.386 652.887 289.836 658.695 289.836C664.503 289.836 669.053 294.386 669.053 300.194C669.053 303.278 667.616 305.973 665.523 307.856ZM658.695 292.379C654.281 292.379 650.88 295.78 650.88 300.194C650.88 304.609 654.281 308.009 658.695 308.009C663.109 308.009 666.51 304.609 666.51 300.194C666.51 295.78 663.109 292.379 658.695 292.379ZM647.337 333.455H670.053C670.609 333.455 671.017 333.151 671.269 332.885C671.525 332.615 671.725 332.275 671.884 331.944C672.207 331.274 672.468 330.413 672.673 329.565C673.08 327.874 673.325 325.972 673.325 325.183C673.325 317.134 666.744 310.553 658.695 310.553C650.646 310.553 644.065 317.134 644.065 325.183C644.065 325.972 644.31 327.874 644.717 329.565C644.922 330.413 645.183 331.274 645.506 331.944C645.665 332.275 645.865 332.615 646.121 332.885C646.373 333.151 646.781 333.455 647.337 333.455Z" fill="#004357"/>
</g>
<path d="M695 312C695 300.954 703.954 292 715 292V292C726.046 292 735 300.954 735 312V312C735 323.046 726.046 332 715 332V332C703.954 332 695 323.046 695 312V312Z" fill="#BED73C"/>
<circle cx="715" cy="312" r="20" fill="#BED73C"/>
<mask id="mask22_6262_108774" style="mask-type:alpha" maskUnits="userSpaceOnUse" x="695" y="287" width="40" height="45">
<path d="M695 287.453H735V311.999C735 323.044 726.046 331.999 715 331.999V331.999C703.954 331.999 695 323.044 695 311.999V287.453Z" fill="#D9D9D9"/>
</mask>
<g mask="url(#mask22_6262_108774)">
<path fill-rule="evenodd" clip-rule="evenodd" d="M721.523 307.856L720.397 308.869L721.77 309.507C727.794 312.303 731.869 318.32 731.869 325.183C731.869 326.926 731.183 329.728 730.013 332.096C729.431 333.272 728.759 334.281 728.047 334.982C727.33 335.687 726.659 335.998 726.053 335.998H703.337C702.731 335.998 702.06 335.687 701.343 334.982C700.631 334.281 699.959 333.272 699.377 332.096C698.207 329.728 697.521 326.926 697.521 325.183C697.521 318.32 701.596 312.303 707.62 309.507L708.993 308.869L707.867 307.856C705.774 305.973 704.337 303.278 704.337 300.194C704.337 294.386 708.887 289.836 714.695 289.836C720.503 289.836 725.053 294.386 725.053 300.194C725.053 303.278 723.616 305.973 721.523 307.856ZM714.695 292.379C710.281 292.379 706.88 295.78 706.88 300.194C706.88 304.609 710.281 308.009 714.695 308.009C719.109 308.009 722.51 304.609 722.51 300.194C722.51 295.78 719.109 292.379 714.695 292.379ZM703.337 333.455H726.053C726.609 333.455 727.017 333.151 727.269 332.885C727.525 332.615 727.725 332.275 727.884 331.944C728.207 331.274 728.468 330.413 728.673 329.565C729.08 327.874 729.325 325.972 729.325 325.183C729.325 317.134 722.744 310.553 714.695 310.553C706.646 310.553 700.065 317.134 700.065 325.183C700.065 325.972 700.31 327.874 700.717 329.565C700.922 330.413 701.183 331.274 701.506 331.944C701.665 332.275 701.865 332.615 702.121 332.885C702.373 333.151 702.781 333.455 703.337 333.455Z" fill="#004357"/>
</g>
<path d="M751 312C751 300.954 759.954 292 771 292V292C782.046 292 791 300.954 791 312V312C791 323.046 782.046 332 771 332V332C759.954 332 751 323.046 751 312V312Z" fill="#BED73C"/>
<circle cx="771" cy="312" r="20" fill="#BED73C"/>
<mask id="mask23_6262_108774" style="mask-type:alpha" maskUnits="userSpaceOnUse" x="751" y="287" width="40" height="45">
<path d="M751 287.453H791V311.999C791 323.044 782.046 331.999 771 331.999V331.999C759.954 331.999 751 323.044 751 311.999V287.453Z" fill="#D9D9D9"/>
</mask>
<g mask="url(#mask23_6262_108774)">
<path fill-rule="evenodd" clip-rule="evenodd" d="M777.523 307.856L776.397 308.869L777.77 309.507C783.794 312.303 787.869 318.32 787.869 325.183C787.869 326.926 787.183 329.728 786.013 332.096C785.431 333.272 784.759 334.281 784.047 334.982C783.33 335.687 782.659 335.998 782.053 335.998H759.337C758.731 335.998 758.06 335.687 757.343 334.982C756.631 334.281 755.959 333.272 755.377 332.096C754.207 329.728 753.521 326.926 753.521 325.183C753.521 318.32 757.596 312.303 763.62 309.507L764.993 308.869L763.867 307.856C761.774 305.973 760.337 303.278 760.337 300.194C760.337 294.386 764.887 289.836 770.695 289.836C776.503 289.836 781.053 294.386 781.053 300.194C781.053 303.278 779.616 305.973 777.523 307.856ZM770.695 292.379C766.281 292.379 762.88 295.78 762.88 300.194C762.88 304.609 766.281 308.009 770.695 308.009C775.109 308.009 778.51 304.609 778.51 300.194C778.51 295.78 775.109 292.379 770.695 292.379ZM759.337 333.455H782.053C782.609 333.455 783.017 333.151 783.269 332.885C783.525 332.615 783.725 332.275 783.884 331.944C784.207 331.274 784.468 330.413 784.673 329.565C785.08 327.874 785.325 325.972 785.325 325.183C785.325 317.134 778.744 310.553 770.695 310.553C762.646 310.553 756.065 317.134 756.065 325.183C756.065 325.972 756.31 327.874 756.717 329.565C756.922 330.413 757.183 331.274 757.506 331.944C757.665 332.275 757.865 332.615 758.121 332.885C758.373 333.151 758.781 333.455 759.337 333.455Z" fill="#004357"/>
</g>
<path d="M807 312C807 300.954 815.954 292 827 292V292C838.046 292 847 300.954 847 312V312C847 323.046 838.046 332 827 332V332C815.954 332 807 323.046 807 312V312Z" fill="#BED73C"/>
<circle cx="827" cy="312" r="20" fill="#BED73C"/>
<mask id="mask24_6262_108774" style="mask-type:alpha" maskUnits="userSpaceOnUse" x="807" y="287" width="40" height="45">
<path d="M807 287.453H847V311.999C847 323.044 838.046 331.999 827 331.999V331.999C815.954 331.999 807 323.044 807 311.999V287.453Z" fill="#D9D9D9"/>
</mask>
<g mask="url(#mask24_6262_108774)">
<path fill-rule="evenodd" clip-rule="evenodd" d="M833.523 307.856L832.397 308.869L833.77 309.507C839.794 312.303 843.869 318.32 843.869 325.183C843.869 326.926 843.183 329.728 842.013 332.096C841.431 333.272 840.759 334.281 840.047 334.982C839.33 335.687 838.659 335.998 838.053 335.998H815.337C814.731 335.998 814.06 335.687 813.343 334.982C812.631 334.281 811.959 333.272 811.377 332.096C810.207 329.728 809.521 326.926 809.521 325.183C809.521 318.32 813.596 312.303 819.62 309.507L820.993 308.869L819.867 307.856C817.774 305.973 816.337 303.278 816.337 300.194C816.337 294.386 820.887 289.836 826.695 289.836C832.503 289.836 837.053 294.386 837.053 300.194C837.053 303.278 835.616 305.973 833.523 307.856ZM826.695 292.379C822.281 292.379 818.88 295.78 818.88 300.194C818.88 304.609 822.281 308.009 826.695 308.009C831.109 308.009 834.51 304.609 834.51 300.194C834.51 295.78 831.109 292.379 826.695 292.379ZM815.337 333.455H838.053C838.609 333.455 839.017 333.151 839.269 332.885C839.525 332.615 839.725 332.275 839.884 331.944C840.207 331.274 840.468 330.413 840.673 329.565C841.08 327.874 841.325 325.972 841.325 325.183C841.325 317.134 834.744 310.553 826.695 310.553C818.646 310.553 812.065 317.134 812.065 325.183C812.065 325.972 812.31 327.874 812.717 329.565C812.922 330.413 813.183 331.274 813.506 331.944C813.665 332.275 813.865 332.615 814.121 332.885C814.373 333.151 814.781 333.455 815.337 333.455Z" fill="#004357"/>
</g>
<path d="M863 312C863 300.954 871.954 292 883 292V292C894.046 292 903 300.954 903 312V312C903 323.046 894.046 332 883 332V332C871.954 332 863 323.046 863 312V312Z" fill="#BED73C"/>
<circle cx="883" cy="312" r="20" fill="#BED73C"/>
<mask id="mask25_6262_108774" style="mask-type:alpha" maskUnits="userSpaceOnUse" x="863" y="287" width="40" height="45">
<path d="M863 287.453H903V311.999C903 323.044 894.046 331.999 883 331.999V331.999C871.954 331.999 863 323.044 863 311.999V287.453Z" fill="#D9D9D9"/>
</mask>
<g mask="url(#mask25_6262_108774)">
<path fill-rule="evenodd" clip-rule="evenodd" d="M889.523 307.856L888.397 308.869L889.77 309.507C895.794 312.303 899.869 318.32 899.869 325.183C899.869 326.926 899.183 329.728 898.013 332.096C897.431 333.272 896.759 334.281 896.047 334.982C895.33 335.687 894.659 335.998 894.053 335.998H871.337C870.731 335.998 870.06 335.687 869.343 334.982C868.631 334.281 867.959 333.272 867.377 332.096C866.207 329.728 865.521 326.926 865.521 325.183C865.521 318.32 869.596 312.303 875.62 309.507L876.993 308.869L875.867 307.856C873.774 305.973 872.337 303.278 872.337 300.194C872.337 294.386 876.887 289.836 882.695 289.836C888.503 289.836 893.053 294.386 893.053 300.194C893.053 303.278 891.616 305.973 889.523 307.856ZM882.695 292.379C878.281 292.379 874.88 295.78 874.88 300.194C874.88 304.609 878.281 308.009 882.695 308.009C887.109 308.009 890.51 304.609 890.51 300.194C890.51 295.78 887.109 292.379 882.695 292.379ZM871.337 333.455H894.053C894.609 333.455 895.017 333.151 895.269 332.885C895.525 332.615 895.725 332.275 895.884 331.944C896.207 331.274 896.468 330.413 896.673 329.565C897.08 327.874 897.325 325.972 897.325 325.183C897.325 317.134 890.744 310.553 882.695 310.553C874.646 310.553 868.065 317.134 868.065 325.183C868.065 325.972 868.31 327.874 868.717 329.565C868.922 330.413 869.183 331.274 869.506 331.944C869.665 332.275 869.865 332.615 870.121 332.885C870.373 333.151 870.781 333.455 871.337 333.455Z" fill="#004357"/>
</g>
<path d="M471 368C471 356.954 479.954 348 491 348V348C502.046 348 511 356.954 511 368V368C511 379.046 502.046 388 491 388V388C479.954 388 471 379.046 471 368V368Z" fill="#F3F4F6"/>
<circle cx="491" cy="368" r="20" fill="#F3F4F6"/>
<mask id="mask26_6262_108774" style="mask-type:alpha" maskUnits="userSpaceOnUse" x="471" y="343" width="40" height="45">
<path d="M471 343.453H511V367.999C511 379.044 502.046 387.999 491 387.999V387.999C479.954 387.999 471 379.044 471 367.999V343.453Z" fill="#D9D9D9"/>
</mask>
<g mask="url(#mask26_6262_108774)">
<path fill-rule="evenodd" clip-rule="evenodd" d="M497.523 363.856L496.397 364.869L497.77 365.507C503.794 368.303 507.869 374.32 507.869 381.183C507.869 382.926 507.183 385.728 506.013 388.096C505.431 389.272 504.759 390.281 504.047 390.982C503.33 391.687 502.659 391.998 502.053 391.998H479.337C478.731 391.998 478.06 391.687 477.343 390.982C476.631 390.281 475.959 389.272 475.377 388.096C474.207 385.728 473.521 382.926 473.521 381.183C473.521 374.32 477.596 368.303 483.62 365.507L484.993 364.869L483.867 363.856C481.774 361.973 480.337 359.278 480.337 356.194C480.337 350.386 484.887 345.836 490.695 345.836C496.503 345.836 501.053 350.386 501.053 356.194C501.053 359.278 499.616 361.973 497.523 363.856ZM490.695 348.379C486.281 348.379 482.88 351.78 482.88 356.194C482.88 360.609 486.281 364.009 490.695 364.009C495.109 364.009 498.51 360.609 498.51 356.194C498.51 351.78 495.109 348.379 490.695 348.379ZM479.337 389.455H502.053C502.609 389.455 503.017 389.151 503.269 388.885C503.525 388.615 503.725 388.275 503.884 387.944C504.207 387.274 504.468 386.413 504.673 385.565C505.08 383.874 505.325 381.972 505.325 381.183C505.325 373.134 498.744 366.553 490.695 366.553C482.646 366.553 476.065 373.134 476.065 381.183C476.065 381.972 476.31 383.874 476.717 385.565C476.922 386.413 477.183 387.274 477.506 387.944C477.665 388.275 477.865 388.615 478.121 388.885C478.373 389.151 478.781 389.455 479.337 389.455Z" fill="#004357"/>
</g>
<path d="M527 368C527 356.954 535.954 348 547 348V348C558.046 348 567 356.954 567 368V368C567 379.046 558.046 388 547 388V388C535.954 388 527 379.046 527 368V368Z" fill="#F3F4F6"/>
<circle cx="547" cy="368" r="20" fill="#F3F4F6"/>
<mask id="mask27_6262_108774" style="mask-type:alpha" maskUnits="userSpaceOnUse" x="527" y="343" width="40" height="45">
<path d="M527 343.453H567V367.999C567 379.044 558.046 387.999 547 387.999V387.999C535.954 387.999 527 379.044 527 367.999V343.453Z" fill="#D9D9D9"/>
</mask>
<g mask="url(#mask27_6262_108774)">
<path fill-rule="evenodd" clip-rule="evenodd" d="M553.523 363.856L552.397 364.869L553.77 365.507C559.794 368.303 563.869 374.32 563.869 381.183C563.869 382.926 563.183 385.728 562.013 388.096C561.431 389.272 560.759 390.281 560.047 390.982C559.33 391.687 558.659 391.998 558.053 391.998H535.337C534.731 391.998 534.06 391.687 533.343 390.982C532.631 390.281 531.959 389.272 531.377 388.096C530.207 385.728 529.521 382.926 529.521 381.183C529.521 374.32 533.596 368.303 539.62 365.507L540.993 364.869L539.867 363.856C537.774 361.973 536.337 359.278 536.337 356.194C536.337 350.386 540.887 345.836 546.695 345.836C552.503 345.836 557.053 350.386 557.053 356.194C557.053 359.278 555.616 361.973 553.523 363.856ZM546.695 348.379C542.281 348.379 538.88 351.78 538.88 356.194C538.88 360.609 542.281 364.009 546.695 364.009C551.109 364.009 554.51 360.609 554.51 356.194C554.51 351.78 551.109 348.379 546.695 348.379ZM535.337 389.455H558.053C558.609 389.455 559.017 389.151 559.269 388.885C559.525 388.615 559.725 388.275 559.884 387.944C560.207 387.274 560.468 386.413 560.673 385.565C561.08 383.874 561.325 381.972 561.325 381.183C561.325 373.134 554.744 366.553 546.695 366.553C538.646 366.553 532.065 373.134 532.065 381.183C532.065 381.972 532.31 383.874 532.717 385.565C532.922 386.413 533.183 387.274 533.506 387.944C533.665 388.275 533.865 388.615 534.121 388.885C534.373 389.151 534.781 389.455 535.337 389.455Z" fill="#004357"/>
</g>
<path d="M583 368C583 356.954 591.954 348 603 348V348C614.046 348 623 356.954 623 368V368C623 379.046 614.046 388 603 388V388C591.954 388 583 379.046 583 368V368Z" fill="#F3F4F6"/>
<circle cx="603" cy="368" r="20" fill="#F3F4F6"/>
<mask id="mask28_6262_108774" style="mask-type:alpha" maskUnits="userSpaceOnUse" x="583" y="343" width="40" height="45">
<path d="M583 343.453H623V367.999C623 379.044 614.046 387.999 603 387.999V387.999C591.954 387.999 583 379.044 583 367.999V343.453Z" fill="#D9D9D9"/>
</mask>
<g mask="url(#mask28_6262_108774)">
<path fill-rule="evenodd" clip-rule="evenodd" d="M609.523 363.856L608.397 364.869L609.77 365.507C615.794 368.303 619.869 374.32 619.869 381.183C619.869 382.926 619.183 385.728 618.013 388.096C617.431 389.272 616.759 390.281 616.047 390.982C615.33 391.687 614.659 391.998 614.053 391.998H591.337C590.731 391.998 590.06 391.687 589.343 390.982C588.631 390.281 587.959 389.272 587.377 388.096C586.207 385.728 585.521 382.926 585.521 381.183C585.521 374.32 589.596 368.303 595.62 365.507L596.993 364.869L595.867 363.856C593.774 361.973 592.337 359.278 592.337 356.194C592.337 350.386 596.887 345.836 602.695 345.836C608.503 345.836 613.053 350.386 613.053 356.194C613.053 359.278 611.616 361.973 609.523 363.856ZM602.695 348.379C598.281 348.379 594.88 351.78 594.88 356.194C594.88 360.609 598.281 364.009 602.695 364.009C607.109 364.009 610.51 360.609 610.51 356.194C610.51 351.78 607.109 348.379 602.695 348.379ZM591.337 389.455H614.053C614.609 389.455 615.017 389.151 615.269 388.885C615.525 388.615 615.725 388.275 615.884 387.944C616.207 387.274 616.468 386.413 616.673 385.565C617.08 383.874 617.325 381.972 617.325 381.183C617.325 373.134 610.744 366.553 602.695 366.553C594.646 366.553 588.065 373.134 588.065 381.183C588.065 381.972 588.31 383.874 588.717 385.565C588.922 386.413 589.183 387.274 589.506 387.944C589.665 388.275 589.865 388.615 590.121 388.885C590.373 389.151 590.781 389.455 591.337 389.455Z" fill="#004357"/>
</g>
<path d="M639 368C639 356.954 647.954 348 659 348V348C670.046 348 679 356.954 679 368V368C679 379.046 670.046 388 659 388V388C647.954 388 639 379.046 639 368V368Z" fill="#F3F4F6"/>
<circle cx="659" cy="368" r="20" fill="#F3F4F6"/>
<mask id="mask29_6262_108774" style="mask-type:alpha" maskUnits="userSpaceOnUse" x="639" y="343" width="40" height="45">
<path d="M639 343.453H679V367.999C679 379.044 670.046 387.999 659 387.999V387.999C647.954 387.999 639 379.044 639 367.999V343.453Z" fill="#D9D9D9"/>
</mask>
<g mask="url(#mask29_6262_108774)">
<path fill-rule="evenodd" clip-rule="evenodd" d="M665.523 363.856L664.397 364.869L665.77 365.507C671.794 368.303 675.869 374.32 675.869 381.183C675.869 382.926 675.183 385.728 674.013 388.096C673.431 389.272 672.759 390.281 672.047 390.982C671.33 391.687 670.659 391.998 670.053 391.998H647.337C646.731 391.998 646.06 391.687 645.343 390.982C644.631 390.281 643.959 389.272 643.377 388.096C642.207 385.728 641.521 382.926 641.521 381.183C641.521 374.32 645.596 368.303 651.62 365.507L652.993 364.869L651.867 363.856C649.774 361.973 648.337 359.278 648.337 356.194C648.337 350.386 652.887 345.836 658.695 345.836C664.503 345.836 669.053 350.386 669.053 356.194C669.053 359.278 667.616 361.973 665.523 363.856ZM658.695 348.379C654.281 348.379 650.88 351.78 650.88 356.194C650.88 360.609 654.281 364.009 658.695 364.009C663.109 364.009 666.51 360.609 666.51 356.194C666.51 351.78 663.109 348.379 658.695 348.379ZM647.337 389.455H670.053C670.609 389.455 671.017 389.151 671.269 388.885C671.525 388.615 671.725 388.275 671.884 387.944C672.207 387.274 672.468 386.413 672.673 385.565C673.08 383.874 673.325 381.972 673.325 381.183C673.325 373.134 666.744 366.553 658.695 366.553C650.646 366.553 644.065 373.134 644.065 381.183C644.065 381.972 644.31 383.874 644.717 385.565C644.922 386.413 645.183 387.274 645.506 387.944C645.665 388.275 645.865 388.615 646.121 388.885C646.373 389.151 646.781 389.455 647.337 389.455Z" fill="#004357"/>
</g>
<path d="M695 368C695 356.954 703.954 348 715 348V348C726.046 348 735 356.954 735 368V368C735 379.046 726.046 388 715 388V388C703.954 388 695 379.046 695 368V368Z" fill="#F3F4F6"/>
<circle cx="715" cy="368" r="20" fill="#F3F4F6"/>
<mask id="mask30_6262_108774" style="mask-type:alpha" maskUnits="userSpaceOnUse" x="695" y="343" width="40" height="45">
<path d="M695 343.453H735V367.999C735 379.044 726.046 387.999 715 387.999V387.999C703.954 387.999 695 379.044 695 367.999V343.453Z" fill="#D9D9D9"/>
</mask>
<g mask="url(#mask30_6262_108774)">
<path fill-rule="evenodd" clip-rule="evenodd" d="M721.523 363.856L720.397 364.869L721.77 365.507C727.794 368.303 731.869 374.32 731.869 381.183C731.869 382.926 731.183 385.728 730.013 388.096C729.431 389.272 728.759 390.281 728.047 390.982C727.33 391.687 726.659 391.998 726.053 391.998H703.337C702.731 391.998 702.06 391.687 701.343 390.982C700.631 390.281 699.959 389.272 699.377 388.096C698.207 385.728 697.521 382.926 697.521 381.183C697.521 374.32 701.596 368.303 707.62 365.507L708.993 364.869L707.867 363.856C705.774 361.973 704.337 359.278 704.337 356.194C704.337 350.386 708.887 345.836 714.695 345.836C720.503 345.836 725.053 350.386 725.053 356.194C725.053 359.278 723.616 361.973 721.523 363.856ZM714.695 348.379C710.281 348.379 706.88 351.78 706.88 356.194C706.88 360.609 710.281 364.009 714.695 364.009C719.109 364.009 722.51 360.609 722.51 356.194C722.51 351.78 719.109 348.379 714.695 348.379ZM703.337 389.455H726.053C726.609 389.455 727.017 389.151 727.269 388.885C727.525 388.615 727.725 388.275 727.884 387.944C728.207 387.274 728.468 386.413 728.673 385.565C729.08 383.874 729.325 381.972 729.325 381.183C729.325 373.134 722.744 366.553 714.695 366.553C706.646 366.553 700.065 373.134 700.065 381.183C700.065 381.972 700.31 383.874 700.717 385.565C700.922 386.413 701.183 387.274 701.506 387.944C701.665 388.275 701.865 388.615 702.121 388.885C702.373 389.151 702.781 389.455 703.337 389.455Z" fill="#004357"/>
</g>
<path d="M751 368C751 356.954 759.954 348 771 348V348C782.046 348 791 356.954 791 368V368C791 379.046 782.046 388 771 388V388C759.954 388 751 379.046 751 368V368Z" fill="#F3F4F6"/>
<circle cx="771" cy="368" r="20" fill="#F3F4F6"/>
<mask id="mask31_6262_108774" style="mask-type:alpha" maskUnits="userSpaceOnUse" x="751" y="343" width="40" height="45">
<path d="M751 343.453H791V367.999C791 379.044 782.046 387.999 771 387.999V387.999C759.954 387.999 751 379.044 751 367.999V343.453Z" fill="#D9D9D9"/>
</mask>
<g mask="url(#mask31_6262_108774)">
<path fill-rule="evenodd" clip-rule="evenodd" d="M777.523 363.856L776.397 364.869L777.77 365.507C783.794 368.303 787.869 374.32 787.869 381.183C787.869 382.926 787.183 385.728 786.013 388.096C785.431 389.272 784.759 390.281 784.047 390.982C783.33 391.687 782.659 391.998 782.053 391.998H759.337C758.731 391.998 758.06 391.687 757.343 390.982C756.631 390.281 755.959 389.272 755.377 388.096C754.207 385.728 753.521 382.926 753.521 381.183C753.521 374.32 757.596 368.303 763.62 365.507L764.993 364.869L763.867 363.856C761.774 361.973 760.337 359.278 760.337 356.194C760.337 350.386 764.887 345.836 770.695 345.836C776.503 345.836 781.053 350.386 781.053 356.194C781.053 359.278 779.616 361.973 777.523 363.856ZM770.695 348.379C766.281 348.379 762.88 351.78 762.88 356.194C762.88 360.609 766.281 364.009 770.695 364.009C775.109 364.009 778.51 360.609 778.51 356.194C778.51 351.78 775.109 348.379 770.695 348.379ZM759.337 389.455H782.053C782.609 389.455 783.017 389.151 783.269 388.885C783.525 388.615 783.725 388.275 783.884 387.944C784.207 387.274 784.468 386.413 784.673 385.565C785.08 383.874 785.325 381.972 785.325 381.183C785.325 373.134 778.744 366.553 770.695 366.553C762.646 366.553 756.065 373.134 756.065 381.183C756.065 381.972 756.31 383.874 756.717 385.565C756.922 386.413 757.183 387.274 757.506 387.944C757.665 388.275 757.865 388.615 758.121 388.885C758.373 389.151 758.781 389.455 759.337 389.455Z" fill="#004357"/>
</g>
<path d="M807 368C807 356.954 815.954 348 827 348V348C838.046 348 847 356.954 847 368V368C847 379.046 838.046 388 827 388V388C815.954 388 807 379.046 807 368V368Z" fill="#F3F4F6"/>
<circle cx="827" cy="368" r="20" fill="#F3F4F6"/>
<mask id="mask32_6262_108774" style="mask-type:alpha" maskUnits="userSpaceOnUse" x="807" y="343" width="40" height="45">
<path d="M807 343.453H847V367.999C847 379.044 838.046 387.999 827 387.999V387.999C815.954 387.999 807 379.044 807 367.999V343.453Z" fill="#D9D9D9"/>
</mask>
<g mask="url(#mask32_6262_108774)">
<path fill-rule="evenodd" clip-rule="evenodd" d="M833.523 363.856L832.397 364.869L833.77 365.507C839.794 368.303 843.869 374.32 843.869 381.183C843.869 382.926 843.183 385.728 842.013 388.096C841.431 389.272 840.759 390.281 840.047 390.982C839.33 391.687 838.659 391.998 838.053 391.998H815.337C814.731 391.998 814.06 391.687 813.343 390.982C812.631 390.281 811.959 389.272 811.377 388.096C810.207 385.728 809.521 382.926 809.521 381.183C809.521 374.32 813.596 368.303 819.62 365.507L820.993 364.869L819.867 363.856C817.774 361.973 816.337 359.278 816.337 356.194C816.337 350.386 820.887 345.836 826.695 345.836C832.503 345.836 837.053 350.386 837.053 356.194C837.053 359.278 835.616 361.973 833.523 363.856ZM826.695 348.379C822.281 348.379 818.88 351.78 818.88 356.194C818.88 360.609 822.281 364.009 826.695 364.009C831.109 364.009 834.51 360.609 834.51 356.194C834.51 351.78 831.109 348.379 826.695 348.379ZM815.337 389.455H838.053C838.609 389.455 839.017 389.151 839.269 388.885C839.525 388.615 839.725 388.275 839.884 387.944C840.207 387.274 840.468 386.413 840.673 385.565C841.08 383.874 841.325 381.972 841.325 381.183C841.325 373.134 834.744 366.553 826.695 366.553C818.646 366.553 812.065 373.134 812.065 381.183C812.065 381.972 812.31 383.874 812.717 385.565C812.922 386.413 813.183 387.274 813.506 387.944C813.665 388.275 813.865 388.615 814.121 388.885C814.373 389.151 814.781 389.455 815.337 389.455Z" fill="#004357"/>
</g>
<path d="M863 368C863 356.954 871.954 348 883 348V348C894.046 348 903 356.954 903 368V368C903 379.046 894.046 388 883 388V388C871.954 388 863 379.046 863 368V368Z" fill="#F3F4F6"/>
<circle cx="883" cy="368" r="20" fill="#F3F4F6"/>
<mask id="mask33_6262_108774" style="mask-type:alpha" maskUnits="userSpaceOnUse" x="863" y="343" width="40" height="45">
<path d="M863 343.453H903V367.999C903 379.044 894.046 387.999 883 387.999V387.999C871.954 387.999 863 379.044 863 367.999V343.453Z" fill="#D9D9D9"/>
</mask>
<g mask="url(#mask33_6262_108774)">
<path fill-rule="evenodd" clip-rule="evenodd" d="M889.523 363.856L888.397 364.869L889.77 365.507C895.794 368.303 899.869 374.32 899.869 381.183C899.869 382.926 899.183 385.728 898.013 388.096C897.431 389.272 896.759 390.281 896.047 390.982C895.33 391.687 894.659 391.998 894.053 391.998H871.337C870.731 391.998 870.06 391.687 869.343 390.982C868.631 390.281 867.959 389.272 867.377 388.096C866.207 385.728 865.521 382.926 865.521 381.183C865.521 374.32 869.596 368.303 875.62 365.507L876.993 364.869L875.867 363.856C873.774 361.973 872.337 359.278 872.337 356.194C872.337 350.386 876.887 345.836 882.695 345.836C888.503 345.836 893.053 350.386 893.053 356.194C893.053 359.278 891.616 361.973 889.523 363.856ZM882.695 348.379C878.281 348.379 874.88 351.78 874.88 356.194C874.88 360.609 878.281 364.009 882.695 364.009C887.109 364.009 890.51 360.609 890.51 356.194C890.51 351.78 887.109 348.379 882.695 348.379ZM871.337 389.455H894.053C894.609 389.455 895.017 389.151 895.269 388.885C895.525 388.615 895.725 388.275 895.884 387.944C896.207 387.274 896.468 386.413 896.673 385.565C897.08 383.874 897.325 381.972 897.325 381.183C897.325 373.134 890.744 366.553 882.695 366.553C874.646 366.553 868.065 373.134 868.065 381.183C868.065 381.972 868.31 383.874 868.717 385.565C868.922 386.413 869.183 387.274 869.506 387.944C869.665 388.275 869.865 388.615 870.121 388.885C870.373 389.151 870.781 389.455 871.337 389.455Z" fill="#004357"/>
</g>
<path d="M715.498 275.217C715.976 275.494 716.588 275.331 716.865 274.853L721.377 267.066C721.654 266.589 721.491 265.977 721.013 265.7C720.535 265.423 719.924 265.586 719.647 266.064L715.636 272.986L708.714 268.975C708.236 268.698 707.624 268.861 707.347 269.339C707.07 269.816 707.233 270.428 707.711 270.705L715.498 275.217ZM658.392 240.059C671.853 237.226 684.076 238.661 693.875 244.354C703.665 250.042 711.157 260.051 715.033 274.609L716.966 274.095C712.98 259.123 705.209 248.626 694.88 242.625C684.56 236.629 671.808 235.192 657.981 238.102L658.392 240.059Z" fill="#004357"/>
</svg>
