<svg width="903" height="398" viewBox="0 0 903 398" fill="none" xmlns="http://www.w3.org/2000/svg">
<mask id="mask0_6258_100848" style="mask-type:alpha" maskUnits="userSpaceOnUse" x="1" y="78" width="40" height="45">
<path d="M1 78H41V102.546C41 113.591 32.0457 122.546 21 122.546V122.546C9.95431 122.546 1 113.591 1 102.546V78Z" fill="#D9D9D9"/>
</mask>
<g mask="url(#mask0_6258_100848)">
<path fill-rule="evenodd" clip-rule="evenodd" d="M27.5226 98.4032L26.3973 99.416L27.7705 100.054C33.7937 102.85 37.8685 108.867 37.8685 115.73C37.8685 117.473 37.1826 120.275 36.0127 122.643C35.4314 123.819 34.7594 124.828 34.0465 125.529C33.3296 126.233 32.6587 126.545 32.0535 126.545H9.33655C8.73133 126.545 8.06039 126.233 7.34347 125.529C6.63063 124.828 5.95863 123.819 5.37734 122.643C4.20742 120.275 3.52148 117.473 3.52148 115.73C3.52148 108.867 7.5963 102.85 13.6195 100.054L14.9927 99.416L13.8674 98.4032C11.7745 96.5196 10.3366 93.825 10.3366 90.7413C10.3366 84.9328 14.8866 80.3828 20.695 80.3828C26.5035 80.3828 31.0535 84.9328 31.0535 90.7413C31.0535 93.825 29.6155 96.5196 27.5226 98.4032ZM20.695 82.9262C16.2808 82.9262 12.8799 86.3271 12.8799 90.7413C12.8799 95.1554 16.2808 98.5563 20.695 98.5563C25.1092 98.5563 28.5101 95.1554 28.5101 90.7413C28.5101 86.3271 25.1092 82.9262 20.695 82.9262ZM9.33655 124.002H32.0535C32.6092 124.002 33.0173 123.698 33.269 123.432C33.5247 123.162 33.7249 122.822 33.8845 122.491C34.2069 121.821 34.4678 120.96 34.6725 120.111C35.0805 118.421 35.3251 116.519 35.3251 115.73C35.3251 107.681 28.7439 101.1 20.695 101.1C12.6461 101.1 6.06486 107.681 6.06486 115.73C6.06486 116.519 6.30952 118.421 6.71748 120.111C6.92219 120.96 7.18316 121.821 7.50552 122.491C7.66513 122.822 7.86528 123.162 8.12101 123.432C8.37275 123.698 8.78076 124.002 9.33655 124.002Z" fill="#004357"/>
</g>
<mask id="mask1_6258_100848" style="mask-type:alpha" maskUnits="userSpaceOnUse" x="57" y="78" width="40" height="45">
<path d="M57 78H97V102.546C97 113.591 88.0457 122.546 77 122.546V122.546C65.9543 122.546 57 113.591 57 102.546V78Z" fill="#D9D9D9"/>
</mask>
<g mask="url(#mask1_6258_100848)">
<path fill-rule="evenodd" clip-rule="evenodd" d="M83.5226 98.4032L82.3973 99.416L83.7705 100.054C89.7937 102.85 93.8685 108.867 93.8685 115.73C93.8685 117.473 93.1826 120.275 92.0127 122.643C91.4314 123.819 90.7594 124.828 90.0465 125.529C89.3296 126.233 88.6587 126.545 88.0535 126.545H65.3366C64.7313 126.545 64.0604 126.233 63.3435 125.529C62.6306 124.828 61.9586 123.819 61.3773 122.643C60.2074 120.275 59.5215 117.473 59.5215 115.73C59.5215 108.867 63.5963 102.85 69.6195 100.054L70.9927 99.416L69.8674 98.4032C67.7745 96.5196 66.3366 93.825 66.3366 90.7413C66.3366 84.9328 70.8866 80.3828 76.695 80.3828C82.5035 80.3828 87.0535 84.9328 87.0535 90.7413C87.0535 93.825 85.6155 96.5196 83.5226 98.4032ZM76.695 82.9262C72.2808 82.9262 68.8799 86.3271 68.8799 90.7413C68.8799 95.1554 72.2808 98.5563 76.695 98.5563C81.1092 98.5563 84.5101 95.1554 84.5101 90.7413C84.5101 86.3271 81.1092 82.9262 76.695 82.9262ZM65.3366 124.002H88.0535C88.6092 124.002 89.0173 123.698 89.269 123.432C89.5247 123.162 89.7249 122.822 89.8845 122.491C90.2069 121.821 90.4678 120.96 90.6725 120.111C91.0805 118.421 91.3251 116.519 91.3251 115.73C91.3251 107.681 84.7439 101.1 76.695 101.1C68.6461 101.1 62.0649 107.681 62.0649 115.73C62.0649 116.519 62.3095 118.421 62.7175 120.111C62.9222 120.96 63.1832 121.821 63.5055 122.491C63.6651 122.822 63.8653 123.162 64.121 123.432C64.3727 123.698 64.7808 124.002 65.3366 124.002Z" fill="#004357"/>
</g>
<mask id="mask2_6258_100848" style="mask-type:alpha" maskUnits="userSpaceOnUse" x="113" y="78" width="40" height="45">
<path d="M113 78H153V102.546C153 113.591 144.046 122.546 133 122.546V122.546C121.954 122.546 113 113.591 113 102.546V78Z" fill="#D9D9D9"/>
</mask>
<g mask="url(#mask2_6258_100848)">
<path fill-rule="evenodd" clip-rule="evenodd" d="M139.523 98.4032L138.397 99.416L139.77 100.054C145.794 102.85 149.869 108.867 149.869 115.73C149.869 117.473 149.183 120.275 148.013 122.643C147.431 123.819 146.759 124.828 146.047 125.529C145.33 126.233 144.659 126.545 144.053 126.545H121.337C120.731 126.545 120.06 126.233 119.343 125.529C118.631 124.828 117.959 123.819 117.377 122.643C116.207 120.275 115.521 117.473 115.521 115.73C115.521 108.867 119.596 102.85 125.62 100.054L126.993 99.416L125.867 98.4032C123.774 96.5196 122.337 93.825 122.337 90.7413C122.337 84.9328 126.887 80.3828 132.695 80.3828C138.503 80.3828 143.053 84.9328 143.053 90.7413C143.053 93.825 141.616 96.5196 139.523 98.4032ZM132.695 82.9262C128.281 82.9262 124.88 86.3271 124.88 90.7413C124.88 95.1554 128.281 98.5563 132.695 98.5563C137.109 98.5563 140.51 95.1554 140.51 90.7413C140.51 86.3271 137.109 82.9262 132.695 82.9262ZM121.337 124.002H144.053C144.609 124.002 145.017 123.698 145.269 123.432C145.525 123.162 145.725 122.822 145.884 122.491C146.207 121.821 146.468 120.96 146.673 120.111C147.08 118.421 147.325 116.519 147.325 115.73C147.325 107.681 140.744 101.1 132.695 101.1C124.646 101.1 118.065 107.681 118.065 115.73C118.065 116.519 118.31 118.421 118.717 120.111C118.922 120.96 119.183 121.821 119.506 122.491C119.665 122.822 119.865 123.162 120.121 123.432C120.373 123.698 120.781 124.002 121.337 124.002Z" fill="#004357"/>
</g>
<mask id="mask3_6258_100848" style="mask-type:alpha" maskUnits="userSpaceOnUse" x="169" y="78" width="40" height="45">
<path d="M169 78H209V102.546C209 113.591 200.046 122.546 189 122.546V122.546C177.954 122.546 169 113.591 169 102.546V78Z" fill="#D9D9D9"/>
</mask>
<g mask="url(#mask3_6258_100848)">
<path fill-rule="evenodd" clip-rule="evenodd" d="M195.523 98.4032L194.397 99.416L195.77 100.054C201.794 102.85 205.869 108.867 205.869 115.73C205.869 117.473 205.183 120.275 204.013 122.643C203.431 123.819 202.759 124.828 202.047 125.529C201.33 126.233 200.659 126.545 200.053 126.545H177.337C176.731 126.545 176.06 126.233 175.343 125.529C174.631 124.828 173.959 123.819 173.377 122.643C172.207 120.275 171.521 117.473 171.521 115.73C171.521 108.867 175.596 102.85 181.62 100.054L182.993 99.416L181.867 98.4032C179.774 96.5196 178.337 93.825 178.337 90.7413C178.337 84.9328 182.887 80.3828 188.695 80.3828C194.503 80.3828 199.053 84.9328 199.053 90.7413C199.053 93.825 197.616 96.5196 195.523 98.4032ZM188.695 82.9262C184.281 82.9262 180.88 86.3271 180.88 90.7413C180.88 95.1554 184.281 98.5563 188.695 98.5563C193.109 98.5563 196.51 95.1554 196.51 90.7413C196.51 86.3271 193.109 82.9262 188.695 82.9262ZM177.337 124.002H200.053C200.609 124.002 201.017 123.698 201.269 123.432C201.525 123.162 201.725 122.822 201.884 122.491C202.207 121.821 202.468 120.96 202.673 120.111C203.08 118.421 203.325 116.519 203.325 115.73C203.325 107.681 196.744 101.1 188.695 101.1C180.646 101.1 174.065 107.681 174.065 115.73C174.065 116.519 174.31 118.421 174.717 120.111C174.922 120.96 175.183 121.821 175.506 122.491C175.665 122.822 175.865 123.162 176.121 123.432C176.373 123.698 176.781 124.002 177.337 124.002Z" fill="#004357"/>
</g>
<mask id="mask4_6258_100848" style="mask-type:alpha" maskUnits="userSpaceOnUse" x="225" y="78" width="40" height="45">
<path d="M225 78H265V102.546C265 113.591 256.046 122.546 245 122.546V122.546C233.954 122.546 225 113.591 225 102.546V78Z" fill="#D9D9D9"/>
</mask>
<g mask="url(#mask4_6258_100848)">
<path fill-rule="evenodd" clip-rule="evenodd" d="M251.523 98.4032L250.397 99.416L251.77 100.054C257.794 102.85 261.869 108.867 261.869 115.73C261.869 117.473 261.183 120.275 260.013 122.643C259.431 123.819 258.759 124.828 258.047 125.529C257.33 126.233 256.659 126.545 256.053 126.545H233.337C232.731 126.545 232.06 126.233 231.343 125.529C230.631 124.828 229.959 123.819 229.377 122.643C228.207 120.275 227.521 117.473 227.521 115.73C227.521 108.867 231.596 102.85 237.62 100.054L238.993 99.416L237.867 98.4032C235.774 96.5196 234.337 93.825 234.337 90.7413C234.337 84.9328 238.887 80.3828 244.695 80.3828C250.503 80.3828 255.053 84.9328 255.053 90.7413C255.053 93.825 253.616 96.5196 251.523 98.4032ZM244.695 82.9262C240.281 82.9262 236.88 86.3271 236.88 90.7413C236.88 95.1554 240.281 98.5563 244.695 98.5563C249.109 98.5563 252.51 95.1554 252.51 90.7413C252.51 86.3271 249.109 82.9262 244.695 82.9262ZM233.337 124.002H256.053C256.609 124.002 257.017 123.698 257.269 123.432C257.525 123.162 257.725 122.822 257.884 122.491C258.207 121.821 258.468 120.96 258.673 120.111C259.08 118.421 259.325 116.519 259.325 115.73C259.325 107.681 252.744 101.1 244.695 101.1C236.646 101.1 230.065 107.681 230.065 115.73C230.065 116.519 230.31 118.421 230.717 120.111C230.922 120.96 231.183 121.821 231.506 122.491C231.665 122.822 231.865 123.162 232.121 123.432C232.373 123.698 232.781 124.002 233.337 124.002Z" fill="#004357"/>
</g>
<mask id="mask5_6258_100848" style="mask-type:alpha" maskUnits="userSpaceOnUse" x="281" y="78" width="40" height="45">
<path d="M281 78H321V102.546C321 113.591 312.046 122.546 301 122.546V122.546C289.954 122.546 281 113.591 281 102.546V78Z" fill="#D9D9D9"/>
</mask>
<g mask="url(#mask5_6258_100848)">
<path fill-rule="evenodd" clip-rule="evenodd" d="M307.523 98.4032L306.397 99.416L307.77 100.054C313.794 102.85 317.869 108.867 317.869 115.73C317.869 117.473 317.183 120.275 316.013 122.643C315.431 123.819 314.759 124.828 314.047 125.529C313.33 126.233 312.659 126.545 312.053 126.545H289.337C288.731 126.545 288.06 126.233 287.343 125.529C286.631 124.828 285.959 123.819 285.377 122.643C284.207 120.275 283.521 117.473 283.521 115.73C283.521 108.867 287.596 102.85 293.62 100.054L294.993 99.416L293.867 98.4032C291.774 96.5196 290.337 93.825 290.337 90.7413C290.337 84.9328 294.887 80.3828 300.695 80.3828C306.503 80.3828 311.053 84.9328 311.053 90.7413C311.053 93.825 309.616 96.5196 307.523 98.4032ZM300.695 82.9262C296.281 82.9262 292.88 86.3271 292.88 90.7413C292.88 95.1554 296.281 98.5563 300.695 98.5563C305.109 98.5563 308.51 95.1554 308.51 90.7413C308.51 86.3271 305.109 82.9262 300.695 82.9262ZM289.337 124.002H312.053C312.609 124.002 313.017 123.698 313.269 123.432C313.525 123.162 313.725 122.822 313.884 122.491C314.207 121.821 314.468 120.96 314.673 120.111C315.08 118.421 315.325 116.519 315.325 115.73C315.325 107.681 308.744 101.1 300.695 101.1C292.646 101.1 286.065 107.681 286.065 115.73C286.065 116.519 286.31 118.421 286.717 120.111C286.922 120.96 287.183 121.821 287.506 122.491C287.665 122.822 287.865 123.162 288.121 123.432C288.373 123.698 288.781 124.002 289.337 124.002Z" fill="#004357"/>
</g>
<mask id="mask6_6258_100848" style="mask-type:alpha" maskUnits="userSpaceOnUse" x="337" y="78" width="40" height="45">
<path d="M337 78H377V102.546C377 113.591 368.046 122.546 357 122.546V122.546C345.954 122.546 337 113.591 337 102.546V78Z" fill="#D9D9D9"/>
</mask>
<g mask="url(#mask6_6258_100848)">
<path fill-rule="evenodd" clip-rule="evenodd" d="M363.523 98.4032L362.397 99.416L363.77 100.054C369.794 102.85 373.869 108.867 373.869 115.73C373.869 117.473 373.183 120.275 372.013 122.643C371.431 123.819 370.759 124.828 370.047 125.529C369.33 126.233 368.659 126.545 368.053 126.545H345.337C344.731 126.545 344.06 126.233 343.343 125.529C342.631 124.828 341.959 123.819 341.377 122.643C340.207 120.275 339.521 117.473 339.521 115.73C339.521 108.867 343.596 102.85 349.62 100.054L350.993 99.416L349.867 98.4032C347.774 96.5196 346.337 93.825 346.337 90.7413C346.337 84.9328 350.887 80.3828 356.695 80.3828C362.503 80.3828 367.053 84.9328 367.053 90.7413C367.053 93.825 365.616 96.5196 363.523 98.4032ZM356.695 82.9262C352.281 82.9262 348.88 86.3271 348.88 90.7413C348.88 95.1554 352.281 98.5563 356.695 98.5563C361.109 98.5563 364.51 95.1554 364.51 90.7413C364.51 86.3271 361.109 82.9262 356.695 82.9262ZM345.337 124.002H368.053C368.609 124.002 369.017 123.698 369.269 123.432C369.525 123.162 369.725 122.822 369.884 122.491C370.207 121.821 370.468 120.96 370.673 120.111C371.08 118.421 371.325 116.519 371.325 115.73C371.325 107.681 364.744 101.1 356.695 101.1C348.646 101.1 342.065 107.681 342.065 115.73C342.065 116.519 342.31 118.421 342.717 120.111C342.922 120.96 343.183 121.821 343.506 122.491C343.665 122.822 343.865 123.162 344.121 123.432C344.373 123.698 344.781 124.002 345.337 124.002Z" fill="#004357"/>
</g>
<mask id="mask7_6258_100848" style="mask-type:alpha" maskUnits="userSpaceOnUse" x="393" y="78" width="40" height="45">
<path d="M393 78H433V102.546C433 113.591 424.046 122.546 413 122.546V122.546C401.954 122.546 393 113.591 393 102.546V78Z" fill="#D9D9D9"/>
</mask>
<g mask="url(#mask7_6258_100848)">
<path fill-rule="evenodd" clip-rule="evenodd" d="M419.523 98.4032L418.397 99.416L419.77 100.054C425.794 102.85 429.869 108.867 429.869 115.73C429.869 117.473 429.183 120.275 428.013 122.643C427.431 123.819 426.759 124.828 426.047 125.529C425.33 126.233 424.659 126.545 424.053 126.545H401.337C400.731 126.545 400.06 126.233 399.343 125.529C398.631 124.828 397.959 123.819 397.377 122.643C396.207 120.275 395.521 117.473 395.521 115.73C395.521 108.867 399.596 102.85 405.62 100.054L406.993 99.416L405.867 98.4032C403.774 96.5196 402.337 93.825 402.337 90.7413C402.337 84.9328 406.887 80.3828 412.695 80.3828C418.503 80.3828 423.053 84.9328 423.053 90.7413C423.053 93.825 421.616 96.5196 419.523 98.4032ZM412.695 82.9262C408.281 82.9262 404.88 86.3271 404.88 90.7413C404.88 95.1554 408.281 98.5563 412.695 98.5563C417.109 98.5563 420.51 95.1554 420.51 90.7413C420.51 86.3271 417.109 82.9262 412.695 82.9262ZM401.337 124.002H424.053C424.609 124.002 425.017 123.698 425.269 123.432C425.525 123.162 425.725 122.822 425.884 122.491C426.207 121.821 426.468 120.96 426.673 120.111C427.08 118.421 427.325 116.519 427.325 115.73C427.325 107.681 420.744 101.1 412.695 101.1C404.646 101.1 398.065 107.681 398.065 115.73C398.065 116.519 398.31 118.421 398.717 120.111C398.922 120.96 399.183 121.821 399.506 122.491C399.665 122.822 399.865 123.162 400.121 123.432C400.373 123.698 400.781 124.002 401.337 124.002Z" fill="#004357"/>
</g>
<mask id="mask8_6258_100848" style="mask-type:alpha" maskUnits="userSpaceOnUse" x="449" y="78" width="40" height="45">
<path d="M449 78H489V102.546C489 113.591 480.046 122.546 469 122.546V122.546C457.954 122.546 449 113.591 449 102.546V78Z" fill="#D9D9D9"/>
</mask>
<g mask="url(#mask8_6258_100848)">
<path fill-rule="evenodd" clip-rule="evenodd" d="M475.523 98.4032L474.397 99.416L475.77 100.054C481.794 102.85 485.869 108.867 485.869 115.73C485.869 117.473 485.183 120.275 484.013 122.643C483.431 123.819 482.759 124.828 482.047 125.529C481.33 126.233 480.659 126.545 480.053 126.545H457.337C456.731 126.545 456.06 126.233 455.343 125.529C454.631 124.828 453.959 123.819 453.377 122.643C452.207 120.275 451.521 117.473 451.521 115.73C451.521 108.867 455.596 102.85 461.62 100.054L462.993 99.416L461.867 98.4032C459.774 96.5196 458.337 93.825 458.337 90.7413C458.337 84.9328 462.887 80.3828 468.695 80.3828C474.503 80.3828 479.053 84.9328 479.053 90.7413C479.053 93.825 477.616 96.5196 475.523 98.4032ZM468.695 82.9262C464.281 82.9262 460.88 86.3271 460.88 90.7413C460.88 95.1554 464.281 98.5563 468.695 98.5563C473.109 98.5563 476.51 95.1554 476.51 90.7413C476.51 86.3271 473.109 82.9262 468.695 82.9262ZM457.337 124.002H480.053C480.609 124.002 481.017 123.698 481.269 123.432C481.525 123.162 481.725 122.822 481.884 122.491C482.207 121.821 482.468 120.96 482.673 120.111C483.08 118.421 483.325 116.519 483.325 115.73C483.325 107.681 476.744 101.1 468.695 101.1C460.646 101.1 454.065 107.681 454.065 115.73C454.065 116.519 454.31 118.421 454.717 120.111C454.922 120.96 455.183 121.821 455.506 122.491C455.665 122.822 455.865 123.162 456.121 123.432C456.373 123.698 456.781 124.002 457.337 124.002Z" fill="#004357"/>
</g>
<mask id="mask9_6258_100848" style="mask-type:alpha" maskUnits="userSpaceOnUse" x="1" y="138" width="40" height="46">
<path d="M1 138.546H41V163.091C41 174.137 32.0457 183.091 21 183.091V183.091C9.95431 183.091 1 174.137 1 163.091V138.546Z" fill="#D9D9D9"/>
</mask>
<g mask="url(#mask9_6258_100848)">
<path fill-rule="evenodd" clip-rule="evenodd" d="M27.5226 158.949L26.3973 159.962L27.7705 160.599C33.7937 163.396 37.8685 169.412 37.8685 176.276C37.8685 178.019 37.1826 180.821 36.0127 183.188C35.4314 184.365 34.7594 185.374 34.0465 186.074C33.3296 186.779 32.6587 187.091 32.0535 187.091H9.33655C8.73133 187.091 8.06039 186.779 7.34347 186.074C6.63063 185.374 5.95863 184.365 5.37734 183.188C4.20742 180.821 3.52148 178.019 3.52148 176.276C3.52148 169.412 7.5963 163.396 13.6195 160.599L14.9927 159.962L13.8674 158.949C11.7745 157.065 10.3366 154.371 10.3366 151.287C10.3366 145.478 14.8866 140.928 20.695 140.928C26.5035 140.928 31.0535 145.478 31.0535 151.287C31.0535 154.371 29.6155 157.065 27.5226 158.949ZM20.695 143.472C16.2808 143.472 12.8799 146.873 12.8799 151.287C12.8799 155.701 16.2808 159.102 20.695 159.102C25.1092 159.102 28.5101 155.701 28.5101 151.287C28.5101 146.873 25.1092 143.472 20.695 143.472ZM9.33655 184.547H32.0535C32.6092 184.547 33.0173 184.244 33.269 183.978C33.5247 183.707 33.7249 183.368 33.8845 183.036C34.2069 182.367 34.4678 181.505 34.6725 180.657C35.0805 178.966 35.3251 177.064 35.3251 176.276C35.3251 168.227 28.7439 161.645 20.695 161.645C12.6461 161.645 6.06486 168.227 6.06486 176.276C6.06486 177.064 6.30952 178.966 6.71748 180.657C6.92219 181.505 7.18316 182.367 7.50552 183.036C7.66513 183.368 7.86528 183.707 8.12101 183.978C8.37275 184.244 8.78076 184.547 9.33655 184.547Z" fill="#004357"/>
</g>
<mask id="mask10_6258_100848" style="mask-type:alpha" maskUnits="userSpaceOnUse" x="57" y="138" width="40" height="46">
<path d="M57 138.546H97V163.091C97 174.137 88.0457 183.091 77 183.091V183.091C65.9543 183.091 57 174.137 57 163.091V138.546Z" fill="#D9D9D9"/>
</mask>
<g mask="url(#mask10_6258_100848)">
<path fill-rule="evenodd" clip-rule="evenodd" d="M83.5226 158.949L82.3973 159.962L83.7705 160.599C89.7937 163.396 93.8685 169.412 93.8685 176.276C93.8685 178.019 93.1826 180.821 92.0127 183.188C91.4314 184.365 90.7594 185.374 90.0465 186.074C89.3296 186.779 88.6587 187.091 88.0535 187.091H65.3366C64.7313 187.091 64.0604 186.779 63.3435 186.074C62.6306 185.374 61.9586 184.365 61.3773 183.188C60.2074 180.821 59.5215 178.019 59.5215 176.276C59.5215 169.412 63.5963 163.396 69.6195 160.599L70.9927 159.962L69.8674 158.949C67.7745 157.065 66.3366 154.371 66.3366 151.287C66.3366 145.478 70.8866 140.928 76.695 140.928C82.5035 140.928 87.0535 145.478 87.0535 151.287C87.0535 154.371 85.6155 157.065 83.5226 158.949ZM76.695 143.472C72.2808 143.472 68.8799 146.873 68.8799 151.287C68.8799 155.701 72.2808 159.102 76.695 159.102C81.1092 159.102 84.5101 155.701 84.5101 151.287C84.5101 146.873 81.1092 143.472 76.695 143.472ZM65.3366 184.547H88.0535C88.6092 184.547 89.0173 184.244 89.269 183.978C89.5247 183.707 89.7249 183.368 89.8845 183.036C90.2069 182.367 90.4678 181.505 90.6725 180.657C91.0805 178.966 91.3251 177.064 91.3251 176.276C91.3251 168.227 84.7439 161.645 76.695 161.645C68.6461 161.645 62.0649 168.227 62.0649 176.276C62.0649 177.064 62.3095 178.966 62.7175 180.657C62.9222 181.505 63.1832 182.367 63.5055 183.036C63.6651 183.368 63.8653 183.707 64.121 183.978C64.3727 184.244 64.7808 184.547 65.3366 184.547Z" fill="#004357"/>
</g>
<mask id="mask11_6258_100848" style="mask-type:alpha" maskUnits="userSpaceOnUse" x="113" y="138" width="40" height="46">
<path d="M113 138.546H153V163.091C153 174.137 144.046 183.091 133 183.091V183.091C121.954 183.091 113 174.137 113 163.091V138.546Z" fill="#D9D9D9"/>
</mask>
<g mask="url(#mask11_6258_100848)">
<path fill-rule="evenodd" clip-rule="evenodd" d="M139.523 158.949L138.397 159.962L139.77 160.599C145.794 163.396 149.869 169.412 149.869 176.276C149.869 178.019 149.183 180.821 148.013 183.188C147.431 184.365 146.759 185.374 146.047 186.074C145.33 186.779 144.659 187.091 144.053 187.091H121.337C120.731 187.091 120.06 186.779 119.343 186.074C118.631 185.374 117.959 184.365 117.377 183.188C116.207 180.821 115.521 178.019 115.521 176.276C115.521 169.412 119.596 163.396 125.62 160.599L126.993 159.962L125.867 158.949C123.774 157.065 122.337 154.371 122.337 151.287C122.337 145.478 126.887 140.928 132.695 140.928C138.503 140.928 143.053 145.478 143.053 151.287C143.053 154.371 141.616 157.065 139.523 158.949ZM132.695 143.472C128.281 143.472 124.88 146.873 124.88 151.287C124.88 155.701 128.281 159.102 132.695 159.102C137.109 159.102 140.51 155.701 140.51 151.287C140.51 146.873 137.109 143.472 132.695 143.472ZM121.337 184.547H144.053C144.609 184.547 145.017 184.244 145.269 183.978C145.525 183.707 145.725 183.368 145.884 183.036C146.207 182.367 146.468 181.505 146.673 180.657C147.08 178.966 147.325 177.064 147.325 176.276C147.325 168.227 140.744 161.645 132.695 161.645C124.646 161.645 118.065 168.227 118.065 176.276C118.065 177.064 118.31 178.966 118.717 180.657C118.922 181.505 119.183 182.367 119.506 183.036C119.665 183.368 119.865 183.707 120.121 183.978C120.373 184.244 120.781 184.547 121.337 184.547Z" fill="#004357"/>
</g>
<mask id="mask12_6258_100848" style="mask-type:alpha" maskUnits="userSpaceOnUse" x="169" y="138" width="40" height="46">
<path d="M169 138.546H209V163.091C209 174.137 200.046 183.091 189 183.091V183.091C177.954 183.091 169 174.137 169 163.091V138.546Z" fill="#D9D9D9"/>
</mask>
<g mask="url(#mask12_6258_100848)">
<path fill-rule="evenodd" clip-rule="evenodd" d="M195.523 158.949L194.397 159.962L195.77 160.599C201.794 163.396 205.869 169.412 205.869 176.276C205.869 178.019 205.183 180.821 204.013 183.188C203.431 184.365 202.759 185.374 202.047 186.074C201.33 186.779 200.659 187.091 200.053 187.091H177.337C176.731 187.091 176.06 186.779 175.343 186.074C174.631 185.374 173.959 184.365 173.377 183.188C172.207 180.821 171.521 178.019 171.521 176.276C171.521 169.412 175.596 163.396 181.62 160.599L182.993 159.962L181.867 158.949C179.774 157.065 178.337 154.371 178.337 151.287C178.337 145.478 182.887 140.928 188.695 140.928C194.503 140.928 199.053 145.478 199.053 151.287C199.053 154.371 197.616 157.065 195.523 158.949ZM188.695 143.472C184.281 143.472 180.88 146.873 180.88 151.287C180.88 155.701 184.281 159.102 188.695 159.102C193.109 159.102 196.51 155.701 196.51 151.287C196.51 146.873 193.109 143.472 188.695 143.472ZM177.337 184.547H200.053C200.609 184.547 201.017 184.244 201.269 183.978C201.525 183.707 201.725 183.368 201.884 183.036C202.207 182.367 202.468 181.505 202.673 180.657C203.08 178.966 203.325 177.064 203.325 176.276C203.325 168.227 196.744 161.645 188.695 161.645C180.646 161.645 174.065 168.227 174.065 176.276C174.065 177.064 174.31 178.966 174.717 180.657C174.922 181.505 175.183 182.367 175.506 183.036C175.665 183.368 175.865 183.707 176.121 183.978C176.373 184.244 176.781 184.547 177.337 184.547Z" fill="#004357"/>
</g>
<mask id="mask13_6258_100848" style="mask-type:alpha" maskUnits="userSpaceOnUse" x="225" y="138" width="40" height="46">
<path d="M225 138.546H265V163.091C265 174.137 256.046 183.091 245 183.091V183.091C233.954 183.091 225 174.137 225 163.091V138.546Z" fill="#D9D9D9"/>
</mask>
<g mask="url(#mask13_6258_100848)">
<path fill-rule="evenodd" clip-rule="evenodd" d="M251.523 158.949L250.397 159.962L251.77 160.599C257.794 163.396 261.869 169.412 261.869 176.276C261.869 178.019 261.183 180.821 260.013 183.188C259.431 184.365 258.759 185.374 258.047 186.074C257.33 186.779 256.659 187.091 256.053 187.091H233.337C232.731 187.091 232.06 186.779 231.343 186.074C230.631 185.374 229.959 184.365 229.377 183.188C228.207 180.821 227.521 178.019 227.521 176.276C227.521 169.412 231.596 163.396 237.62 160.599L238.993 159.962L237.867 158.949C235.774 157.065 234.337 154.371 234.337 151.287C234.337 145.478 238.887 140.928 244.695 140.928C250.503 140.928 255.053 145.478 255.053 151.287C255.053 154.371 253.616 157.065 251.523 158.949ZM244.695 143.472C240.281 143.472 236.88 146.873 236.88 151.287C236.88 155.701 240.281 159.102 244.695 159.102C249.109 159.102 252.51 155.701 252.51 151.287C252.51 146.873 249.109 143.472 244.695 143.472ZM233.337 184.547H256.053C256.609 184.547 257.017 184.244 257.269 183.978C257.525 183.707 257.725 183.368 257.884 183.036C258.207 182.367 258.468 181.505 258.673 180.657C259.08 178.966 259.325 177.064 259.325 176.276C259.325 168.227 252.744 161.645 244.695 161.645C236.646 161.645 230.065 168.227 230.065 176.276C230.065 177.064 230.31 178.966 230.717 180.657C230.922 181.505 231.183 182.367 231.506 183.036C231.665 183.368 231.865 183.707 232.121 183.978C232.373 184.244 232.781 184.547 233.337 184.547Z" fill="#004357"/>
</g>
<mask id="mask14_6258_100848" style="mask-type:alpha" maskUnits="userSpaceOnUse" x="281" y="138" width="40" height="46">
<path d="M281 138.546H321V163.091C321 174.137 312.046 183.091 301 183.091V183.091C289.954 183.091 281 174.137 281 163.091V138.546Z" fill="#D9D9D9"/>
</mask>
<g mask="url(#mask14_6258_100848)">
<path fill-rule="evenodd" clip-rule="evenodd" d="M307.523 158.949L306.397 159.962L307.77 160.599C313.794 163.396 317.869 169.412 317.869 176.276C317.869 178.019 317.183 180.821 316.013 183.188C315.431 184.365 314.759 185.374 314.047 186.074C313.33 186.779 312.659 187.091 312.053 187.091H289.337C288.731 187.091 288.06 186.779 287.343 186.074C286.631 185.374 285.959 184.365 285.377 183.188C284.207 180.821 283.521 178.019 283.521 176.276C283.521 169.412 287.596 163.396 293.62 160.599L294.993 159.962L293.867 158.949C291.774 157.065 290.337 154.371 290.337 151.287C290.337 145.478 294.887 140.928 300.695 140.928C306.503 140.928 311.053 145.478 311.053 151.287C311.053 154.371 309.616 157.065 307.523 158.949ZM300.695 143.472C296.281 143.472 292.88 146.873 292.88 151.287C292.88 155.701 296.281 159.102 300.695 159.102C305.109 159.102 308.51 155.701 308.51 151.287C308.51 146.873 305.109 143.472 300.695 143.472ZM289.337 184.547H312.053C312.609 184.547 313.017 184.244 313.269 183.978C313.525 183.707 313.725 183.368 313.884 183.036C314.207 182.367 314.468 181.505 314.673 180.657C315.08 178.966 315.325 177.064 315.325 176.276C315.325 168.227 308.744 161.645 300.695 161.645C292.646 161.645 286.065 168.227 286.065 176.276C286.065 177.064 286.31 178.966 286.717 180.657C286.922 181.505 287.183 182.367 287.506 183.036C287.665 183.368 287.865 183.707 288.121 183.978C288.373 184.244 288.781 184.547 289.337 184.547Z" fill="#004357"/>
</g>
<mask id="mask15_6258_100848" style="mask-type:alpha" maskUnits="userSpaceOnUse" x="337" y="138" width="40" height="46">
<path d="M337 138.546H377V163.091C377 174.137 368.046 183.091 357 183.091V183.091C345.954 183.091 337 174.137 337 163.091V138.546Z" fill="#D9D9D9"/>
</mask>
<g mask="url(#mask15_6258_100848)">
<path fill-rule="evenodd" clip-rule="evenodd" d="M363.523 158.949L362.397 159.962L363.77 160.599C369.794 163.396 373.869 169.412 373.869 176.276C373.869 178.019 373.183 180.821 372.013 183.188C371.431 184.365 370.759 185.374 370.047 186.074C369.33 186.779 368.659 187.091 368.053 187.091H345.337C344.731 187.091 344.06 186.779 343.343 186.074C342.631 185.374 341.959 184.365 341.377 183.188C340.207 180.821 339.521 178.019 339.521 176.276C339.521 169.412 343.596 163.396 349.62 160.599L350.993 159.962L349.867 158.949C347.774 157.065 346.337 154.371 346.337 151.287C346.337 145.478 350.887 140.928 356.695 140.928C362.503 140.928 367.053 145.478 367.053 151.287C367.053 154.371 365.616 157.065 363.523 158.949ZM356.695 143.472C352.281 143.472 348.88 146.873 348.88 151.287C348.88 155.701 352.281 159.102 356.695 159.102C361.109 159.102 364.51 155.701 364.51 151.287C364.51 146.873 361.109 143.472 356.695 143.472ZM345.337 184.547H368.053C368.609 184.547 369.017 184.244 369.269 183.978C369.525 183.707 369.725 183.368 369.884 183.036C370.207 182.367 370.468 181.505 370.673 180.657C371.08 178.966 371.325 177.064 371.325 176.276C371.325 168.227 364.744 161.645 356.695 161.645C348.646 161.645 342.065 168.227 342.065 176.276C342.065 177.064 342.31 178.966 342.717 180.657C342.922 181.505 343.183 182.367 343.506 183.036C343.665 183.368 343.865 183.707 344.121 183.978C344.373 184.244 344.781 184.547 345.337 184.547Z" fill="#004357"/>
</g>
<mask id="mask16_6258_100848" style="mask-type:alpha" maskUnits="userSpaceOnUse" x="393" y="138" width="40" height="46">
<path d="M393 138.546H433V163.091C433 174.137 424.046 183.091 413 183.091V183.091C401.954 183.091 393 174.137 393 163.091V138.546Z" fill="#D9D9D9"/>
</mask>
<g mask="url(#mask16_6258_100848)">
<path fill-rule="evenodd" clip-rule="evenodd" d="M419.523 158.949L418.397 159.962L419.77 160.599C425.794 163.396 429.869 169.412 429.869 176.276C429.869 178.019 429.183 180.821 428.013 183.188C427.431 184.365 426.759 185.374 426.047 186.074C425.33 186.779 424.659 187.091 424.053 187.091H401.337C400.731 187.091 400.06 186.779 399.343 186.074C398.631 185.374 397.959 184.365 397.377 183.188C396.207 180.821 395.521 178.019 395.521 176.276C395.521 169.412 399.596 163.396 405.62 160.599L406.993 159.962L405.867 158.949C403.774 157.065 402.337 154.371 402.337 151.287C402.337 145.478 406.887 140.928 412.695 140.928C418.503 140.928 423.053 145.478 423.053 151.287C423.053 154.371 421.616 157.065 419.523 158.949ZM412.695 143.472C408.281 143.472 404.88 146.873 404.88 151.287C404.88 155.701 408.281 159.102 412.695 159.102C417.109 159.102 420.51 155.701 420.51 151.287C420.51 146.873 417.109 143.472 412.695 143.472ZM401.337 184.547H424.053C424.609 184.547 425.017 184.244 425.269 183.978C425.525 183.707 425.725 183.368 425.884 183.036C426.207 182.367 426.468 181.505 426.673 180.657C427.08 178.966 427.325 177.064 427.325 176.276C427.325 168.227 420.744 161.645 412.695 161.645C404.646 161.645 398.065 168.227 398.065 176.276C398.065 177.064 398.31 178.966 398.717 180.657C398.922 181.505 399.183 182.367 399.506 183.036C399.665 183.368 399.865 183.707 400.121 183.978C400.373 184.244 400.781 184.547 401.337 184.547Z" fill="#004357"/>
</g>
<path d="M165.929 61.2174C165.452 61.4943 164.84 61.3314 164.563 60.8535L160.051 53.0664C159.774 52.5885 159.937 51.9767 160.414 51.6998C160.892 51.4229 161.504 51.5858 161.781 52.0636L165.792 58.9855L172.714 54.9746C173.192 54.6977 173.804 54.8607 174.08 55.3385C174.357 55.8164 174.194 56.4282 173.717 56.7051L165.929 61.2174ZM223.035 26.0588C209.575 23.2265 197.351 24.661 187.553 30.3541C177.763 36.0419 170.271 46.0512 166.394 60.6094L164.462 60.0948C168.448 45.1234 176.219 34.6259 186.548 28.6247C196.868 22.6288 209.62 21.1922 223.447 24.1017L223.035 26.0588Z" fill="#004357"/>
<mask id="mask17_6258_100848" style="mask-type:alpha" maskUnits="userSpaceOnUse" x="415" y="292" width="40" height="45">
<path d="M415 292H455V316.546C455 327.591 446.046 336.546 435 336.546V336.546C423.954 336.546 415 327.591 415 316.546V292Z" fill="#D9D9D9"/>
</mask>
<g mask="url(#mask17_6258_100848)">
<path fill-rule="evenodd" clip-rule="evenodd" d="M441.523 312.403L440.397 313.416L441.77 314.054C447.794 316.85 451.869 322.867 451.869 329.73C451.869 331.473 451.183 334.275 450.013 336.643C449.431 337.819 448.759 338.828 448.047 339.529C447.33 340.233 446.659 340.545 446.053 340.545H423.337C422.731 340.545 422.06 340.233 421.343 339.529C420.631 338.828 419.959 337.819 419.377 336.643C418.207 334.275 417.521 331.473 417.521 329.73C417.521 322.867 421.596 316.85 427.62 314.054L428.993 313.416L427.867 312.403C425.774 310.52 424.337 307.825 424.337 304.741C424.337 298.933 428.887 294.383 434.695 294.383C440.503 294.383 445.053 298.933 445.053 304.741C445.053 307.825 443.616 310.52 441.523 312.403ZM434.695 296.926C430.281 296.926 426.88 300.327 426.88 304.741C426.88 309.155 430.281 312.556 434.695 312.556C439.109 312.556 442.51 309.155 442.51 304.741C442.51 300.327 439.109 296.926 434.695 296.926ZM423.337 338.002H446.053C446.609 338.002 447.017 337.698 447.269 337.432C447.525 337.162 447.725 336.822 447.884 336.491C448.207 335.821 448.468 334.96 448.673 334.111C449.08 332.421 449.325 330.519 449.325 329.73C449.325 321.681 442.744 315.1 434.695 315.1C426.646 315.1 420.065 321.681 420.065 329.73C420.065 330.519 420.31 332.421 420.717 334.111C420.922 334.96 421.183 335.821 421.506 336.491C421.665 336.822 421.865 337.162 422.121 337.432C422.373 337.698 422.781 338.002 423.337 338.002Z" fill="#004357"/>
</g>
<mask id="mask18_6258_100848" style="mask-type:alpha" maskUnits="userSpaceOnUse" x="471" y="292" width="40" height="45">
<path d="M471 292H511V316.546C511 327.591 502.046 336.546 491 336.546V336.546C479.954 336.546 471 327.591 471 316.546V292Z" fill="#D9D9D9"/>
</mask>
<g mask="url(#mask18_6258_100848)">
<path fill-rule="evenodd" clip-rule="evenodd" d="M497.523 312.403L496.397 313.416L497.77 314.054C503.794 316.85 507.869 322.867 507.869 329.73C507.869 331.473 507.183 334.275 506.013 336.643C505.431 337.819 504.759 338.828 504.047 339.529C503.33 340.233 502.659 340.545 502.053 340.545H479.337C478.731 340.545 478.06 340.233 477.343 339.529C476.631 338.828 475.959 337.819 475.377 336.643C474.207 334.275 473.521 331.473 473.521 329.73C473.521 322.867 477.596 316.85 483.62 314.054L484.993 313.416L483.867 312.403C481.774 310.52 480.337 307.825 480.337 304.741C480.337 298.933 484.887 294.383 490.695 294.383C496.503 294.383 501.053 298.933 501.053 304.741C501.053 307.825 499.616 310.52 497.523 312.403ZM490.695 296.926C486.281 296.926 482.88 300.327 482.88 304.741C482.88 309.155 486.281 312.556 490.695 312.556C495.109 312.556 498.51 309.155 498.51 304.741C498.51 300.327 495.109 296.926 490.695 296.926ZM479.337 338.002H502.053C502.609 338.002 503.017 337.698 503.269 337.432C503.525 337.162 503.725 336.822 503.884 336.491C504.207 335.821 504.468 334.96 504.673 334.111C505.08 332.421 505.325 330.519 505.325 329.73C505.325 321.681 498.744 315.1 490.695 315.1C482.646 315.1 476.065 321.681 476.065 329.73C476.065 330.519 476.31 332.421 476.717 334.111C476.922 334.96 477.183 335.821 477.506 336.491C477.665 336.822 477.865 337.162 478.121 337.432C478.373 337.698 478.781 338.002 479.337 338.002Z" fill="#004357"/>
</g>
<mask id="mask19_6258_100848" style="mask-type:alpha" maskUnits="userSpaceOnUse" x="527" y="292" width="40" height="45">
<path d="M527 292H567V316.546C567 327.591 558.046 336.546 547 336.546V336.546C535.954 336.546 527 327.591 527 316.546V292Z" fill="#D9D9D9"/>
</mask>
<g mask="url(#mask19_6258_100848)">
<path fill-rule="evenodd" clip-rule="evenodd" d="M553.523 312.403L552.397 313.416L553.77 314.054C559.794 316.85 563.869 322.867 563.869 329.73C563.869 331.473 563.183 334.275 562.013 336.643C561.431 337.819 560.759 338.828 560.047 339.529C559.33 340.233 558.659 340.545 558.053 340.545H535.337C534.731 340.545 534.06 340.233 533.343 339.529C532.631 338.828 531.959 337.819 531.377 336.643C530.207 334.275 529.521 331.473 529.521 329.73C529.521 322.867 533.596 316.85 539.62 314.054L540.993 313.416L539.867 312.403C537.774 310.52 536.337 307.825 536.337 304.741C536.337 298.933 540.887 294.383 546.695 294.383C552.503 294.383 557.053 298.933 557.053 304.741C557.053 307.825 555.616 310.52 553.523 312.403ZM546.695 296.926C542.281 296.926 538.88 300.327 538.88 304.741C538.88 309.155 542.281 312.556 546.695 312.556C551.109 312.556 554.51 309.155 554.51 304.741C554.51 300.327 551.109 296.926 546.695 296.926ZM535.337 338.002H558.053C558.609 338.002 559.017 337.698 559.269 337.432C559.525 337.162 559.725 336.822 559.884 336.491C560.207 335.821 560.468 334.96 560.673 334.111C561.08 332.421 561.325 330.519 561.325 329.73C561.325 321.681 554.744 315.1 546.695 315.1C538.646 315.1 532.065 321.681 532.065 329.73C532.065 330.519 532.31 332.421 532.717 334.111C532.922 334.96 533.183 335.821 533.506 336.491C533.665 336.822 533.865 337.162 534.121 337.432C534.373 337.698 534.781 338.002 535.337 338.002Z" fill="#004357"/>
</g>
<mask id="mask20_6258_100848" style="mask-type:alpha" maskUnits="userSpaceOnUse" x="583" y="292" width="40" height="45">
<path d="M583 292H623V316.546C623 327.591 614.046 336.546 603 336.546V336.546C591.954 336.546 583 327.591 583 316.546V292Z" fill="#D9D9D9"/>
</mask>
<g mask="url(#mask20_6258_100848)">
<path fill-rule="evenodd" clip-rule="evenodd" d="M609.523 312.403L608.397 313.416L609.77 314.054C615.794 316.85 619.869 322.867 619.869 329.73C619.869 331.473 619.183 334.275 618.013 336.643C617.431 337.819 616.759 338.828 616.047 339.529C615.33 340.233 614.659 340.545 614.053 340.545H591.337C590.731 340.545 590.06 340.233 589.343 339.529C588.631 338.828 587.959 337.819 587.377 336.643C586.207 334.275 585.521 331.473 585.521 329.73C585.521 322.867 589.596 316.85 595.62 314.054L596.993 313.416L595.867 312.403C593.774 310.52 592.337 307.825 592.337 304.741C592.337 298.933 596.887 294.383 602.695 294.383C608.503 294.383 613.053 298.933 613.053 304.741C613.053 307.825 611.616 310.52 609.523 312.403ZM602.695 296.926C598.281 296.926 594.88 300.327 594.88 304.741C594.88 309.155 598.281 312.556 602.695 312.556C607.109 312.556 610.51 309.155 610.51 304.741C610.51 300.327 607.109 296.926 602.695 296.926ZM591.337 338.002H614.053C614.609 338.002 615.017 337.698 615.269 337.432C615.525 337.162 615.725 336.822 615.884 336.491C616.207 335.821 616.468 334.96 616.673 334.111C617.08 332.421 617.325 330.519 617.325 329.73C617.325 321.681 610.744 315.1 602.695 315.1C594.646 315.1 588.065 321.681 588.065 329.73C588.065 330.519 588.31 332.421 588.717 334.111C588.922 334.96 589.183 335.821 589.506 336.491C589.665 336.822 589.865 337.162 590.121 337.432C590.373 337.698 590.781 338.002 591.337 338.002Z" fill="#004357"/>
</g>
<mask id="mask21_6258_100848" style="mask-type:alpha" maskUnits="userSpaceOnUse" x="639" y="292" width="40" height="45">
<path d="M639 292H679V316.546C679 327.591 670.046 336.546 659 336.546V336.546C647.954 336.546 639 327.591 639 316.546V292Z" fill="#D9D9D9"/>
</mask>
<g mask="url(#mask21_6258_100848)">
<path fill-rule="evenodd" clip-rule="evenodd" d="M665.523 312.403L664.397 313.416L665.77 314.054C671.794 316.85 675.869 322.867 675.869 329.73C675.869 331.473 675.183 334.275 674.013 336.643C673.431 337.819 672.759 338.828 672.047 339.529C671.33 340.233 670.659 340.545 670.053 340.545H647.337C646.731 340.545 646.06 340.233 645.343 339.529C644.631 338.828 643.959 337.819 643.377 336.643C642.207 334.275 641.521 331.473 641.521 329.73C641.521 322.867 645.596 316.85 651.62 314.054L652.993 313.416L651.867 312.403C649.774 310.52 648.337 307.825 648.337 304.741C648.337 298.933 652.887 294.383 658.695 294.383C664.503 294.383 669.053 298.933 669.053 304.741C669.053 307.825 667.616 310.52 665.523 312.403ZM658.695 296.926C654.281 296.926 650.88 300.327 650.88 304.741C650.88 309.155 654.281 312.556 658.695 312.556C663.109 312.556 666.51 309.155 666.51 304.741C666.51 300.327 663.109 296.926 658.695 296.926ZM647.337 338.002H670.053C670.609 338.002 671.017 337.698 671.269 337.432C671.525 337.162 671.725 336.822 671.884 336.491C672.207 335.821 672.468 334.96 672.673 334.111C673.08 332.421 673.325 330.519 673.325 329.73C673.325 321.681 666.744 315.1 658.695 315.1C650.646 315.1 644.065 321.681 644.065 329.73C644.065 330.519 644.31 332.421 644.717 334.111C644.922 334.96 645.183 335.821 645.506 336.491C645.665 336.822 645.865 337.162 646.121 337.432C646.373 337.698 646.781 338.002 647.337 338.002Z" fill="#004357"/>
</g>
<mask id="mask22_6258_100848" style="mask-type:alpha" maskUnits="userSpaceOnUse" x="695" y="292" width="40" height="45">
<path d="M695 292H735V316.546C735 327.591 726.046 336.546 715 336.546V336.546C703.954 336.546 695 327.591 695 316.546V292Z" fill="#D9D9D9"/>
</mask>
<g mask="url(#mask22_6258_100848)">
<path fill-rule="evenodd" clip-rule="evenodd" d="M721.523 312.403L720.397 313.416L721.77 314.054C727.794 316.85 731.869 322.867 731.869 329.73C731.869 331.473 731.183 334.275 730.013 336.643C729.431 337.819 728.759 338.828 728.047 339.529C727.33 340.233 726.659 340.545 726.053 340.545H703.337C702.731 340.545 702.06 340.233 701.343 339.529C700.631 338.828 699.959 337.819 699.377 336.643C698.207 334.275 697.521 331.473 697.521 329.73C697.521 322.867 701.596 316.85 707.62 314.054L708.993 313.416L707.867 312.403C705.774 310.52 704.337 307.825 704.337 304.741C704.337 298.933 708.887 294.383 714.695 294.383C720.503 294.383 725.053 298.933 725.053 304.741C725.053 307.825 723.616 310.52 721.523 312.403ZM714.695 296.926C710.281 296.926 706.88 300.327 706.88 304.741C706.88 309.155 710.281 312.556 714.695 312.556C719.109 312.556 722.51 309.155 722.51 304.741C722.51 300.327 719.109 296.926 714.695 296.926ZM703.337 338.002H726.053C726.609 338.002 727.017 337.698 727.269 337.432C727.525 337.162 727.725 336.822 727.884 336.491C728.207 335.821 728.468 334.96 728.673 334.111C729.08 332.421 729.325 330.519 729.325 329.73C729.325 321.681 722.744 315.1 714.695 315.1C706.646 315.1 700.065 321.681 700.065 329.73C700.065 330.519 700.31 332.421 700.717 334.111C700.922 334.96 701.183 335.821 701.506 336.491C701.665 336.822 701.865 337.162 702.121 337.432C702.373 337.698 702.781 338.002 703.337 338.002Z" fill="#004357"/>
</g>
<mask id="mask23_6258_100848" style="mask-type:alpha" maskUnits="userSpaceOnUse" x="751" y="292" width="40" height="45">
<path d="M751 292H791V316.546C791 327.591 782.046 336.546 771 336.546V336.546C759.954 336.546 751 327.591 751 316.546V292Z" fill="#D9D9D9"/>
</mask>
<g mask="url(#mask23_6258_100848)">
<path fill-rule="evenodd" clip-rule="evenodd" d="M777.523 312.403L776.397 313.416L777.77 314.054C783.794 316.85 787.869 322.867 787.869 329.73C787.869 331.473 787.183 334.275 786.013 336.643C785.431 337.819 784.759 338.828 784.047 339.529C783.33 340.233 782.659 340.545 782.053 340.545H759.337C758.731 340.545 758.06 340.233 757.343 339.529C756.631 338.828 755.959 337.819 755.377 336.643C754.207 334.275 753.521 331.473 753.521 329.73C753.521 322.867 757.596 316.85 763.62 314.054L764.993 313.416L763.867 312.403C761.774 310.52 760.337 307.825 760.337 304.741C760.337 298.933 764.887 294.383 770.695 294.383C776.503 294.383 781.053 298.933 781.053 304.741C781.053 307.825 779.616 310.52 777.523 312.403ZM770.695 296.926C766.281 296.926 762.88 300.327 762.88 304.741C762.88 309.155 766.281 312.556 770.695 312.556C775.109 312.556 778.51 309.155 778.51 304.741C778.51 300.327 775.109 296.926 770.695 296.926ZM759.337 338.002H782.053C782.609 338.002 783.017 337.698 783.269 337.432C783.525 337.162 783.725 336.822 783.884 336.491C784.207 335.821 784.468 334.96 784.673 334.111C785.08 332.421 785.325 330.519 785.325 329.73C785.325 321.681 778.744 315.1 770.695 315.1C762.646 315.1 756.065 321.681 756.065 329.73C756.065 330.519 756.31 332.421 756.717 334.111C756.922 334.96 757.183 335.821 757.506 336.491C757.665 336.822 757.865 337.162 758.121 337.432C758.373 337.698 758.781 338.002 759.337 338.002Z" fill="#004357"/>
</g>
<mask id="mask24_6258_100848" style="mask-type:alpha" maskUnits="userSpaceOnUse" x="807" y="292" width="40" height="45">
<path d="M807 292H847V316.546C847 327.591 838.046 336.546 827 336.546V336.546C815.954 336.546 807 327.591 807 316.546V292Z" fill="#D9D9D9"/>
</mask>
<g mask="url(#mask24_6258_100848)">
<path fill-rule="evenodd" clip-rule="evenodd" d="M833.523 312.403L832.397 313.416L833.77 314.054C839.794 316.85 843.869 322.867 843.869 329.73C843.869 331.473 843.183 334.275 842.013 336.643C841.431 337.819 840.759 338.828 840.047 339.529C839.33 340.233 838.659 340.545 838.053 340.545H815.337C814.731 340.545 814.06 340.233 813.343 339.529C812.631 338.828 811.959 337.819 811.377 336.643C810.207 334.275 809.521 331.473 809.521 329.73C809.521 322.867 813.596 316.85 819.62 314.054L820.993 313.416L819.867 312.403C817.774 310.52 816.337 307.825 816.337 304.741C816.337 298.933 820.887 294.383 826.695 294.383C832.503 294.383 837.053 298.933 837.053 304.741C837.053 307.825 835.616 310.52 833.523 312.403ZM826.695 296.926C822.281 296.926 818.88 300.327 818.88 304.741C818.88 309.155 822.281 312.556 826.695 312.556C831.109 312.556 834.51 309.155 834.51 304.741C834.51 300.327 831.109 296.926 826.695 296.926ZM815.337 338.002H838.053C838.609 338.002 839.017 337.698 839.269 337.432C839.525 337.162 839.725 336.822 839.884 336.491C840.207 335.821 840.468 334.96 840.673 334.111C841.08 332.421 841.325 330.519 841.325 329.73C841.325 321.681 834.744 315.1 826.695 315.1C818.646 315.1 812.065 321.681 812.065 329.73C812.065 330.519 812.31 332.421 812.717 334.111C812.922 334.96 813.183 335.821 813.506 336.491C813.665 336.822 813.865 337.162 814.121 337.432C814.373 337.698 814.781 338.002 815.337 338.002Z" fill="#004357"/>
</g>
<mask id="mask25_6258_100848" style="mask-type:alpha" maskUnits="userSpaceOnUse" x="863" y="292" width="40" height="45">
<path d="M863 292H903V316.546C903 327.591 894.046 336.546 883 336.546V336.546C871.954 336.546 863 327.591 863 316.546V292Z" fill="#D9D9D9"/>
</mask>
<g mask="url(#mask25_6258_100848)">
<path fill-rule="evenodd" clip-rule="evenodd" d="M889.523 312.403L888.397 313.416L889.77 314.054C895.794 316.85 899.869 322.867 899.869 329.73C899.869 331.473 899.183 334.275 898.013 336.643C897.431 337.819 896.759 338.828 896.047 339.529C895.33 340.233 894.659 340.545 894.053 340.545H871.337C870.731 340.545 870.06 340.233 869.343 339.529C868.631 338.828 867.959 337.819 867.377 336.643C866.207 334.275 865.521 331.473 865.521 329.73C865.521 322.867 869.596 316.85 875.62 314.054L876.993 313.416L875.867 312.403C873.774 310.52 872.337 307.825 872.337 304.741C872.337 298.933 876.887 294.383 882.695 294.383C888.503 294.383 893.053 298.933 893.053 304.741C893.053 307.825 891.616 310.52 889.523 312.403ZM882.695 296.926C878.281 296.926 874.88 300.327 874.88 304.741C874.88 309.155 878.281 312.556 882.695 312.556C887.109 312.556 890.51 309.155 890.51 304.741C890.51 300.327 887.109 296.926 882.695 296.926ZM871.337 338.002H894.053C894.609 338.002 895.017 337.698 895.269 337.432C895.525 337.162 895.725 336.822 895.884 336.491C896.207 335.821 896.468 334.96 896.673 334.111C897.08 332.421 897.325 330.519 897.325 329.73C897.325 321.681 890.744 315.1 882.695 315.1C874.646 315.1 868.065 321.681 868.065 329.73C868.065 330.519 868.31 332.421 868.717 334.111C868.922 334.96 869.183 335.821 869.506 336.491C869.665 336.822 869.865 337.162 870.121 337.432C870.373 337.698 870.781 338.002 871.337 338.002Z" fill="#004357"/>
</g>
<mask id="mask26_6258_100848" style="mask-type:alpha" maskUnits="userSpaceOnUse" x="471" y="352" width="40" height="46">
<path d="M471 352.546H511V377.091C511 388.137 502.046 397.091 491 397.091V397.091C479.954 397.091 471 388.137 471 377.091V352.546Z" fill="#D9D9D9"/>
</mask>
<g mask="url(#mask26_6258_100848)">
<path fill-rule="evenodd" clip-rule="evenodd" d="M497.523 372.949L496.397 373.962L497.77 374.599C503.794 377.396 507.869 383.412 507.869 390.276C507.869 392.019 507.183 394.821 506.013 397.188C505.431 398.365 504.759 399.374 504.047 400.074C503.33 400.779 502.659 401.091 502.053 401.091H479.337C478.731 401.091 478.06 400.779 477.343 400.074C476.631 399.374 475.959 398.365 475.377 397.188C474.207 394.821 473.521 392.019 473.521 390.276C473.521 383.412 477.596 377.396 483.62 374.599L484.993 373.962L483.867 372.949C481.774 371.065 480.337 368.371 480.337 365.287C480.337 359.478 484.887 354.928 490.695 354.928C496.503 354.928 501.053 359.478 501.053 365.287C501.053 368.371 499.616 371.065 497.523 372.949ZM490.695 357.472C486.281 357.472 482.88 360.873 482.88 365.287C482.88 369.701 486.281 373.102 490.695 373.102C495.109 373.102 498.51 369.701 498.51 365.287C498.51 360.873 495.109 357.472 490.695 357.472ZM479.337 398.547H502.053C502.609 398.547 503.017 398.244 503.269 397.978C503.525 397.707 503.725 397.368 503.884 397.036C504.207 396.367 504.468 395.505 504.673 394.657C505.08 392.966 505.325 391.064 505.325 390.276C505.325 382.227 498.744 375.645 490.695 375.645C482.646 375.645 476.065 382.227 476.065 390.276C476.065 391.064 476.31 392.966 476.717 394.657C476.922 395.505 477.183 396.367 477.506 397.036C477.665 397.368 477.865 397.707 478.121 397.978C478.373 398.244 478.781 398.547 479.337 398.547Z" fill="#004357"/>
</g>
<mask id="mask27_6258_100848" style="mask-type:alpha" maskUnits="userSpaceOnUse" x="527" y="352" width="40" height="46">
<path d="M527 352.546H567V377.091C567 388.137 558.046 397.091 547 397.091V397.091C535.954 397.091 527 388.137 527 377.091V352.546Z" fill="#D9D9D9"/>
</mask>
<g mask="url(#mask27_6258_100848)">
<path fill-rule="evenodd" clip-rule="evenodd" d="M553.523 372.949L552.397 373.962L553.77 374.599C559.794 377.396 563.869 383.412 563.869 390.276C563.869 392.019 563.183 394.821 562.013 397.188C561.431 398.365 560.759 399.374 560.047 400.074C559.33 400.779 558.659 401.091 558.053 401.091H535.337C534.731 401.091 534.06 400.779 533.343 400.074C532.631 399.374 531.959 398.365 531.377 397.188C530.207 394.821 529.521 392.019 529.521 390.276C529.521 383.412 533.596 377.396 539.62 374.599L540.993 373.962L539.867 372.949C537.774 371.065 536.337 368.371 536.337 365.287C536.337 359.478 540.887 354.928 546.695 354.928C552.503 354.928 557.053 359.478 557.053 365.287C557.053 368.371 555.616 371.065 553.523 372.949ZM546.695 357.472C542.281 357.472 538.88 360.873 538.88 365.287C538.88 369.701 542.281 373.102 546.695 373.102C551.109 373.102 554.51 369.701 554.51 365.287C554.51 360.873 551.109 357.472 546.695 357.472ZM535.337 398.547H558.053C558.609 398.547 559.017 398.244 559.269 397.978C559.525 397.707 559.725 397.368 559.884 397.036C560.207 396.367 560.468 395.505 560.673 394.657C561.08 392.966 561.325 391.064 561.325 390.276C561.325 382.227 554.744 375.645 546.695 375.645C538.646 375.645 532.065 382.227 532.065 390.276C532.065 391.064 532.31 392.966 532.717 394.657C532.922 395.505 533.183 396.367 533.506 397.036C533.665 397.368 533.865 397.707 534.121 397.978C534.373 398.244 534.781 398.547 535.337 398.547Z" fill="#004357"/>
</g>
<mask id="mask28_6258_100848" style="mask-type:alpha" maskUnits="userSpaceOnUse" x="583" y="352" width="40" height="46">
<path d="M583 352.546H623V377.091C623 388.137 614.046 397.091 603 397.091V397.091C591.954 397.091 583 388.137 583 377.091V352.546Z" fill="#D9D9D9"/>
</mask>
<g mask="url(#mask28_6258_100848)">
<path fill-rule="evenodd" clip-rule="evenodd" d="M609.523 372.949L608.397 373.962L609.77 374.599C615.794 377.396 619.869 383.412 619.869 390.276C619.869 392.019 619.183 394.821 618.013 397.188C617.431 398.365 616.759 399.374 616.047 400.074C615.33 400.779 614.659 401.091 614.053 401.091H591.337C590.731 401.091 590.06 400.779 589.343 400.074C588.631 399.374 587.959 398.365 587.377 397.188C586.207 394.821 585.521 392.019 585.521 390.276C585.521 383.412 589.596 377.396 595.62 374.599L596.993 373.962L595.867 372.949C593.774 371.065 592.337 368.371 592.337 365.287C592.337 359.478 596.887 354.928 602.695 354.928C608.503 354.928 613.053 359.478 613.053 365.287C613.053 368.371 611.616 371.065 609.523 372.949ZM602.695 357.472C598.281 357.472 594.88 360.873 594.88 365.287C594.88 369.701 598.281 373.102 602.695 373.102C607.109 373.102 610.51 369.701 610.51 365.287C610.51 360.873 607.109 357.472 602.695 357.472ZM591.337 398.547H614.053C614.609 398.547 615.017 398.244 615.269 397.978C615.525 397.707 615.725 397.368 615.884 397.036C616.207 396.367 616.468 395.505 616.673 394.657C617.08 392.966 617.325 391.064 617.325 390.276C617.325 382.227 610.744 375.645 602.695 375.645C594.646 375.645 588.065 382.227 588.065 390.276C588.065 391.064 588.31 392.966 588.717 394.657C588.922 395.505 589.183 396.367 589.506 397.036C589.665 397.368 589.865 397.707 590.121 397.978C590.373 398.244 590.781 398.547 591.337 398.547Z" fill="#004357"/>
</g>
<mask id="mask29_6258_100848" style="mask-type:alpha" maskUnits="userSpaceOnUse" x="639" y="352" width="40" height="46">
<path d="M639 352.546H679V377.091C679 388.137 670.046 397.091 659 397.091V397.091C647.954 397.091 639 388.137 639 377.091V352.546Z" fill="#D9D9D9"/>
</mask>
<g mask="url(#mask29_6258_100848)">
<path fill-rule="evenodd" clip-rule="evenodd" d="M665.523 372.949L664.397 373.962L665.77 374.599C671.794 377.396 675.869 383.412 675.869 390.276C675.869 392.019 675.183 394.821 674.013 397.188C673.431 398.365 672.759 399.374 672.047 400.074C671.33 400.779 670.659 401.091 670.053 401.091H647.337C646.731 401.091 646.06 400.779 645.343 400.074C644.631 399.374 643.959 398.365 643.377 397.188C642.207 394.821 641.521 392.019 641.521 390.276C641.521 383.412 645.596 377.396 651.62 374.599L652.993 373.962L651.867 372.949C649.774 371.065 648.337 368.371 648.337 365.287C648.337 359.478 652.887 354.928 658.695 354.928C664.503 354.928 669.053 359.478 669.053 365.287C669.053 368.371 667.616 371.065 665.523 372.949ZM658.695 357.472C654.281 357.472 650.88 360.873 650.88 365.287C650.88 369.701 654.281 373.102 658.695 373.102C663.109 373.102 666.51 369.701 666.51 365.287C666.51 360.873 663.109 357.472 658.695 357.472ZM647.337 398.547H670.053C670.609 398.547 671.017 398.244 671.269 397.978C671.525 397.707 671.725 397.368 671.884 397.036C672.207 396.367 672.468 395.505 672.673 394.657C673.08 392.966 673.325 391.064 673.325 390.276C673.325 382.227 666.744 375.645 658.695 375.645C650.646 375.645 644.065 382.227 644.065 390.276C644.065 391.064 644.31 392.966 644.717 394.657C644.922 395.505 645.183 396.367 645.506 397.036C645.665 397.368 645.865 397.707 646.121 397.978C646.373 398.244 646.781 398.547 647.337 398.547Z" fill="#004357"/>
</g>
<mask id="mask30_6258_100848" style="mask-type:alpha" maskUnits="userSpaceOnUse" x="695" y="352" width="40" height="46">
<path d="M695 352.546H735V377.091C735 388.137 726.046 397.091 715 397.091V397.091C703.954 397.091 695 388.137 695 377.091V352.546Z" fill="#D9D9D9"/>
</mask>
<g mask="url(#mask30_6258_100848)">
<path fill-rule="evenodd" clip-rule="evenodd" d="M721.523 372.949L720.397 373.962L721.77 374.599C727.794 377.396 731.869 383.412 731.869 390.276C731.869 392.019 731.183 394.821 730.013 397.188C729.431 398.365 728.759 399.374 728.047 400.074C727.33 400.779 726.659 401.091 726.053 401.091H703.337C702.731 401.091 702.06 400.779 701.343 400.074C700.631 399.374 699.959 398.365 699.377 397.188C698.207 394.821 697.521 392.019 697.521 390.276C697.521 383.412 701.596 377.396 707.62 374.599L708.993 373.962L707.867 372.949C705.774 371.065 704.337 368.371 704.337 365.287C704.337 359.478 708.887 354.928 714.695 354.928C720.503 354.928 725.053 359.478 725.053 365.287C725.053 368.371 723.616 371.065 721.523 372.949ZM714.695 357.472C710.281 357.472 706.88 360.873 706.88 365.287C706.88 369.701 710.281 373.102 714.695 373.102C719.109 373.102 722.51 369.701 722.51 365.287C722.51 360.873 719.109 357.472 714.695 357.472ZM703.337 398.547H726.053C726.609 398.547 727.017 398.244 727.269 397.978C727.525 397.707 727.725 397.368 727.884 397.036C728.207 396.367 728.468 395.505 728.673 394.657C729.08 392.966 729.325 391.064 729.325 390.276C729.325 382.227 722.744 375.645 714.695 375.645C706.646 375.645 700.065 382.227 700.065 390.276C700.065 391.064 700.31 392.966 700.717 394.657C700.922 395.505 701.183 396.367 701.506 397.036C701.665 397.368 701.865 397.707 702.121 397.978C702.373 398.244 702.781 398.547 703.337 398.547Z" fill="#004357"/>
</g>
<mask id="mask31_6258_100848" style="mask-type:alpha" maskUnits="userSpaceOnUse" x="751" y="352" width="40" height="46">
<path d="M751 352.546H791V377.091C791 388.137 782.046 397.091 771 397.091V397.091C759.954 397.091 751 388.137 751 377.091V352.546Z" fill="#D9D9D9"/>
</mask>
<g mask="url(#mask31_6258_100848)">
<path fill-rule="evenodd" clip-rule="evenodd" d="M777.523 372.949L776.397 373.962L777.77 374.599C783.794 377.396 787.869 383.412 787.869 390.276C787.869 392.019 787.183 394.821 786.013 397.188C785.431 398.365 784.759 399.374 784.047 400.074C783.33 400.779 782.659 401.091 782.053 401.091H759.337C758.731 401.091 758.06 400.779 757.343 400.074C756.631 399.374 755.959 398.365 755.377 397.188C754.207 394.821 753.521 392.019 753.521 390.276C753.521 383.412 757.596 377.396 763.62 374.599L764.993 373.962L763.867 372.949C761.774 371.065 760.337 368.371 760.337 365.287C760.337 359.478 764.887 354.928 770.695 354.928C776.503 354.928 781.053 359.478 781.053 365.287C781.053 368.371 779.616 371.065 777.523 372.949ZM770.695 357.472C766.281 357.472 762.88 360.873 762.88 365.287C762.88 369.701 766.281 373.102 770.695 373.102C775.109 373.102 778.51 369.701 778.51 365.287C778.51 360.873 775.109 357.472 770.695 357.472ZM759.337 398.547H782.053C782.609 398.547 783.017 398.244 783.269 397.978C783.525 397.707 783.725 397.368 783.884 397.036C784.207 396.367 784.468 395.505 784.673 394.657C785.08 392.966 785.325 391.064 785.325 390.276C785.325 382.227 778.744 375.645 770.695 375.645C762.646 375.645 756.065 382.227 756.065 390.276C756.065 391.064 756.31 392.966 756.717 394.657C756.922 395.505 757.183 396.367 757.506 397.036C757.665 397.368 757.865 397.707 758.121 397.978C758.373 398.244 758.781 398.547 759.337 398.547Z" fill="#004357"/>
</g>
<mask id="mask32_6258_100848" style="mask-type:alpha" maskUnits="userSpaceOnUse" x="807" y="352" width="40" height="46">
<path d="M807 352.546H847V377.091C847 388.137 838.046 397.091 827 397.091V397.091C815.954 397.091 807 388.137 807 377.091V352.546Z" fill="#D9D9D9"/>
</mask>
<g mask="url(#mask32_6258_100848)">
<path fill-rule="evenodd" clip-rule="evenodd" d="M833.523 372.949L832.397 373.962L833.77 374.599C839.794 377.396 843.869 383.412 843.869 390.276C843.869 392.019 843.183 394.821 842.013 397.188C841.431 398.365 840.759 399.374 840.047 400.074C839.33 400.779 838.659 401.091 838.053 401.091H815.337C814.731 401.091 814.06 400.779 813.343 400.074C812.631 399.374 811.959 398.365 811.377 397.188C810.207 394.821 809.521 392.019 809.521 390.276C809.521 383.412 813.596 377.396 819.62 374.599L820.993 373.962L819.867 372.949C817.774 371.065 816.337 368.371 816.337 365.287C816.337 359.478 820.887 354.928 826.695 354.928C832.503 354.928 837.053 359.478 837.053 365.287C837.053 368.371 835.616 371.065 833.523 372.949ZM826.695 357.472C822.281 357.472 818.88 360.873 818.88 365.287C818.88 369.701 822.281 373.102 826.695 373.102C831.109 373.102 834.51 369.701 834.51 365.287C834.51 360.873 831.109 357.472 826.695 357.472ZM815.337 398.547H838.053C838.609 398.547 839.017 398.244 839.269 397.978C839.525 397.707 839.725 397.368 839.884 397.036C840.207 396.367 840.468 395.505 840.673 394.657C841.08 392.966 841.325 391.064 841.325 390.276C841.325 382.227 834.744 375.645 826.695 375.645C818.646 375.645 812.065 382.227 812.065 390.276C812.065 391.064 812.31 392.966 812.717 394.657C812.922 395.505 813.183 396.367 813.506 397.036C813.665 397.368 813.865 397.707 814.121 397.978C814.373 398.244 814.781 398.547 815.337 398.547Z" fill="#004357"/>
</g>
<mask id="mask33_6258_100848" style="mask-type:alpha" maskUnits="userSpaceOnUse" x="863" y="352" width="40" height="46">
<path d="M863 352.546H903V377.091C903 388.137 894.046 397.091 883 397.091V397.091C871.954 397.091 863 388.137 863 377.091V352.546Z" fill="#D9D9D9"/>
</mask>
<g mask="url(#mask33_6258_100848)">
<path fill-rule="evenodd" clip-rule="evenodd" d="M889.523 372.949L888.397 373.962L889.77 374.599C895.794 377.396 899.869 383.412 899.869 390.276C899.869 392.019 899.183 394.821 898.013 397.188C897.431 398.365 896.759 399.374 896.047 400.074C895.33 400.779 894.659 401.091 894.053 401.091H871.337C870.731 401.091 870.06 400.779 869.343 400.074C868.631 399.374 867.959 398.365 867.377 397.188C866.207 394.821 865.521 392.019 865.521 390.276C865.521 383.412 869.596 377.396 875.62 374.599L876.993 373.962L875.867 372.949C873.774 371.065 872.337 368.371 872.337 365.287C872.337 359.478 876.887 354.928 882.695 354.928C888.503 354.928 893.053 359.478 893.053 365.287C893.053 368.371 891.616 371.065 889.523 372.949ZM882.695 357.472C878.281 357.472 874.88 360.873 874.88 365.287C874.88 369.701 878.281 373.102 882.695 373.102C887.109 373.102 890.51 369.701 890.51 365.287C890.51 360.873 887.109 357.472 882.695 357.472ZM871.337 398.547H894.053C894.609 398.547 895.017 398.244 895.269 397.978C895.525 397.707 895.725 397.368 895.884 397.036C896.207 396.367 896.468 395.505 896.673 394.657C897.08 392.966 897.325 391.064 897.325 390.276C897.325 382.227 890.744 375.645 882.695 375.645C874.646 375.645 868.065 382.227 868.065 390.276C868.065 391.064 868.31 392.966 868.717 394.657C868.922 395.505 869.183 396.367 869.506 397.036C869.665 397.368 869.865 397.707 870.121 397.978C870.373 398.244 870.781 398.547 871.337 398.547Z" fill="#004357"/>
</g>
<path d="M715.498 275.217C715.976 275.494 716.588 275.331 716.865 274.853L721.377 267.066C721.654 266.589 721.491 265.977 721.013 265.7C720.535 265.423 719.924 265.586 719.647 266.064L715.636 272.986L708.714 268.975C708.236 268.698 707.624 268.861 707.347 269.339C707.07 269.816 707.233 270.428 707.711 270.705L715.498 275.217ZM658.392 240.059C671.853 237.226 684.076 238.661 693.875 244.354C703.665 250.042 711.157 260.051 715.033 274.609L716.966 274.095C712.98 259.123 705.209 248.626 694.88 242.625C684.56 236.629 671.808 235.192 657.981 238.102L658.392 240.059Z" fill="#004357"/>
</svg>
