<svg width="1000" height="395" viewBox="0 0 1000 395" fill="none" xmlns="http://www.w3.org/2000/svg">
<path d="M71.1317 151.856C71.4236 152.309 71.2926 152.913 70.839 153.205L63.4483 157.962C62.9947 158.254 62.3904 158.122 62.0986 157.669C61.8067 157.215 61.9377 156.611 62.3913 156.319L68.9609 152.091L64.7329 145.522C64.441 145.068 64.5721 144.464 65.0256 144.172C65.4791 143.88 66.0834 144.011 66.3753 144.465L71.1317 151.856ZM34.9126 69.7999C23.8417 81.7683 20.2334 99.4483 25.6335 115.499C31.0211 131.512 45.413 145.985 70.5175 151.43L70.1036 153.338C44.4026 147.765 29.4129 132.857 23.7824 116.122C18.1645 99.4241 21.9016 80.9894 33.4789 68.4736L34.9126 69.7999Z" fill="#004357"/>
<path d="M430.168 181.424L404.717 181.424C400.402 181.424 396.904 184.922 396.904 189.236L396.904 226.513" stroke="#BED73C" stroke-width="1.95312" stroke-linecap="round" stroke-linejoin="round" stroke-dasharray="3.91 3.91"/>
<path d="M264.201 282.949L247.646 282.949C243.332 282.949 239.834 279.451 239.834 275.137L239.834 253.652" stroke="#BED73C" stroke-width="1.95312" stroke-linecap="round" stroke-linejoin="round" stroke-dasharray="3.91 3.91"/>
<path d="M457.305 338.417C456.768 338.466 456.373 338.942 456.422 339.479L457.23 348.231C457.279 348.768 457.755 349.163 458.292 349.114C458.829 349.064 459.224 348.588 459.174 348.051L458.457 340.272L466.236 339.554C466.773 339.505 467.168 339.029 467.119 338.492C467.069 337.955 466.594 337.56 466.057 337.609L457.305 338.417ZM543.337 318.274C519.575 356.917 478.406 355.581 458.019 338.638L456.77 340.14C478.029 357.808 520.587 358.999 545.001 319.297L543.337 318.274Z" fill="#004357"/>
<path d="M511.236 139.414C511.601 139.811 512.219 139.838 512.616 139.474L519.094 133.533C519.491 133.169 519.518 132.551 519.154 132.154C518.789 131.756 518.171 131.729 517.774 132.094L512.016 137.374L506.736 131.616C506.371 131.219 505.753 131.192 505.356 131.556C504.958 131.921 504.932 132.539 505.296 132.936L511.236 139.414ZM512.932 138.796C514.893 93.4736 551.512 74.613 577.567 79.498L577.927 77.5783C550.758 72.4845 512.996 92.147 510.98 138.712L512.932 138.796Z" fill="#004357"/>
<path d="M96.0352 118.923C95.2295 118.923 94.5703 119.582 94.5703 120.388C94.5703 121.193 95.2295 121.853 96.0352 121.853C96.8408 121.853 97.5 121.193 97.5 120.388C97.5 119.582 96.8408 118.923 96.0352 118.923ZM104.824 118.923C104.019 118.923 103.359 119.582 103.359 120.388C103.359 121.193 104.019 121.853 104.824 121.853C105.63 121.853 106.289 121.193 106.289 120.388C106.289 119.582 105.63 118.923 104.824 118.923ZM100.43 118.923C99.624 118.923 98.9648 119.582 98.9648 120.388C98.9648 121.193 99.624 121.853 100.43 121.853C101.235 121.853 101.895 121.193 101.895 120.388C101.895 119.582 101.235 118.923 100.43 118.923Z" fill="#3C3E3E"/>
<path d="M101.895 155.544C101.089 155.544 100.43 156.203 100.43 157.009C100.43 157.814 101.089 158.474 101.895 158.474C102.7 158.474 103.359 157.814 103.359 157.009C103.359 156.203 102.7 155.544 101.895 155.544ZM110.684 155.544C109.878 155.544 109.219 156.203 109.219 157.009C109.219 157.814 109.878 158.474 110.684 158.474C111.489 158.474 112.148 157.814 112.148 157.009C112.148 156.203 111.489 155.544 110.684 155.544ZM106.289 155.544C105.483 155.544 104.824 156.203 104.824 157.009C104.824 157.814 105.483 158.474 106.289 158.474C107.095 158.474 107.754 157.814 107.754 157.009C107.754 156.203 107.095 155.544 106.289 155.544Z" fill="white"/>
<path d="M96.0352 192.165C95.2295 192.165 94.5703 192.824 94.5703 193.63C94.5703 194.436 95.2295 195.095 96.0352 195.095C96.8408 195.095 97.5 194.436 97.5 193.63C97.5 192.824 96.8408 192.165 96.0352 192.165ZM104.824 192.165C104.019 192.165 103.359 192.824 103.359 193.63C103.359 194.436 104.019 195.095 104.824 195.095C105.63 195.095 106.289 194.436 106.289 193.63C106.289 192.824 105.63 192.165 104.824 192.165ZM100.43 192.165C99.624 192.165 98.9648 192.824 98.9648 193.63C98.9648 194.436 99.624 195.095 100.43 195.095C101.235 195.095 101.895 194.436 101.895 193.63C101.895 192.824 101.235 192.165 100.43 192.165Z" fill="#3C3E3E"/>
<path d="M101.895 228.786C101.089 228.786 100.43 229.445 100.43 230.251C100.43 231.057 101.089 231.716 101.895 231.716C102.7 231.716 103.359 231.057 103.359 230.251C103.359 229.445 102.7 228.786 101.895 228.786ZM110.684 228.786C109.878 228.786 109.219 229.445 109.219 230.251C109.219 231.057 109.878 231.716 110.684 231.716C111.489 231.716 112.148 231.057 112.148 230.251C112.148 229.445 111.489 228.786 110.684 228.786ZM106.289 228.786C105.483 228.786 104.824 229.445 104.824 230.251C104.824 231.057 105.483 231.716 106.289 231.716C107.095 231.716 107.754 231.057 107.754 230.251C107.754 229.445 107.095 228.786 106.289 228.786Z" fill="#3C3E3E"/>
<path d="M408.914 355.166L397.314 344.835H425.526L413.927 355.166C412.498 356.439 410.342 356.439 408.914 355.166Z" fill="white"/>
<path d="M397.346 345.712L409.012 355.399C410.408 356.559 412.432 356.559 413.828 355.399L425.492 345.712" stroke="#004357" stroke-width="1.25637" stroke-linecap="square"/>
<g clip-path="url(#clip0_6286_125529)">
<path d="M322.057 275.849L310.948 271.736V269.376C310.948 268.938 310.585 268.575 310.147 268.575C309.709 268.575 309.346 268.938 309.346 269.376V271.918L305.875 274.78L302.404 271.918V269.386C302.404 268.949 302.04 268.585 301.602 268.585C301.165 268.585 300.801 268.949 300.801 269.386V271.747L289.693 275.859C287.717 276.596 286.382 278.508 286.382 280.612V294.199C286.382 294.637 286.745 295 287.183 295H324.567C325.005 295 325.368 294.637 325.368 294.199V280.602C325.368 278.497 324.033 276.586 322.057 275.849ZM300.865 276.628L301.966 273.627L304.358 275.603L301.229 276.97C301.09 277.034 300.983 276.97 300.94 276.917C300.887 276.874 300.812 276.778 300.865 276.628ZM304.369 281.638H307.381L310.201 293.387H301.549L304.369 281.638ZM307.328 280.036H304.412L303.995 277.515L305.875 276.692L307.755 277.515L307.328 280.036ZM307.392 275.603L309.784 273.627L310.884 276.628C310.938 276.767 310.863 276.874 310.82 276.917C310.778 276.959 310.671 277.023 310.532 276.97L307.392 275.603ZM287.984 280.602C287.984 279.16 288.892 277.846 290.248 277.344L300.257 273.638L299.359 276.084C299.103 276.799 299.285 277.568 299.829 278.081C300.193 278.423 300.641 278.594 301.1 278.594C301.357 278.594 301.613 278.54 301.859 278.433L302.478 278.166L302.916 280.805L299.904 293.387H293.325V290.45C293.325 290.012 292.961 289.649 292.523 289.649C292.086 289.649 291.722 290.012 291.722 290.45V293.387H287.984V280.602ZM323.766 293.387H320.027V290.45C320.027 290.012 319.664 289.649 319.226 289.649C318.788 289.649 318.425 290.012 318.425 290.45V293.387H311.846L308.823 280.805L309.261 278.166L309.88 278.433C310.126 278.54 310.382 278.594 310.639 278.594C311.098 278.594 311.557 278.423 311.91 278.081C312.465 277.558 312.647 276.789 312.38 276.084L311.493 273.648L321.501 277.355C322.858 277.857 323.766 279.16 323.766 280.612V293.387Z" fill="#004357"/>
<path d="M319.227 286.445C318.789 286.445 318.426 286.808 318.426 287.246V287.78C318.426 288.218 318.789 288.581 319.227 288.581C319.665 288.581 320.028 288.218 320.028 287.78V287.246C320.028 286.808 319.665 286.445 319.227 286.445Z" fill="#004357"/>
<path d="M292.524 288.581C292.962 288.581 293.325 288.218 293.325 287.78V287.246C293.325 286.808 292.962 286.445 292.524 286.445C292.086 286.445 291.723 286.808 291.723 287.246V287.78C291.723 288.218 292.086 288.581 292.524 288.581Z" fill="#004357"/>
<path d="M303.472 264.601C303.472 263.277 304.55 262.198 305.875 262.198H312.668C312.935 261.45 313.085 260.639 313.085 259.795V255.522C313.085 251.549 309.848 248.312 305.875 248.312C301.901 248.312 298.665 251.549 298.665 255.522V259.795C298.665 263.768 301.901 267.005 305.875 267.005C304.55 267.005 303.472 265.926 303.472 264.601Z" fill="#BED73C"/>
<path d="M317.624 252.051H316.289V250.716C316.289 244.969 311.622 240.302 305.875 240.302C300.129 240.302 295.461 244.969 295.461 250.716V252.051H294.126C292.502 252.051 291.188 253.365 291.188 254.988V262.465C291.188 264.089 292.502 265.402 294.126 265.402C295.749 265.402 297.063 264.089 297.063 262.465V250.716C297.063 245.856 301.015 241.904 305.875 241.904C310.735 241.904 314.687 245.856 314.687 250.716V263.8H305.875C305.437 263.8 305.074 264.163 305.074 264.601C305.074 265.039 305.437 265.402 305.875 265.402H317.624C319.248 265.402 320.562 264.089 320.562 262.465V254.988C320.562 253.365 319.248 252.051 317.624 252.051Z" fill="#BED73C"/>
</g>
<g clip-path="url(#clip1_6286_125529)">
<rect width="27.1224" height="10.1709" transform="translate(487.505 218.432)" fill="#BED73C"/>
</g>
<path d="M492.59 218.856H509.542C512.116 218.856 514.203 220.943 514.203 223.518C514.203 226.092 512.116 228.179 509.542 228.179H492.59C490.016 228.179 487.929 226.092 487.929 223.518C487.929 220.943 490.016 218.856 492.59 218.856Z" stroke="#004357" stroke-width="0.847574"/>
<g clip-path="url(#clip2_6286_125529)">
<rect width="27.1224" height="10.1709" transform="translate(518.018 218.432)" fill="#BED73C"/>
</g>
<path d="M523.103 218.856H540.055C542.629 218.856 544.716 220.943 544.716 223.518C544.716 226.092 542.629 228.179 540.055 228.179H523.103C520.528 228.179 518.441 226.092 518.441 223.518C518.441 220.943 520.528 218.856 523.103 218.856Z" stroke="#004357" stroke-width="0.847574"/>
<g clip-path="url(#clip3_6286_125529)">
<rect width="27.1224" height="10.1709" transform="translate(548.53 218.432)" fill="#BED73C"/>
</g>
<path d="M553.616 218.856H570.567C573.142 218.856 575.229 220.943 575.229 223.518C575.229 226.092 573.142 228.179 570.567 228.179H553.616C551.041 228.179 548.954 226.092 548.954 223.518C548.954 220.943 551.041 218.856 553.616 218.856Z" stroke="#004357" stroke-width="0.847574"/>
<g clip-path="url(#clip4_6286_125529)">
<rect width="27.1224" height="10.1709" transform="translate(579.043 218.432)" fill="#BED73C"/>
</g>
<path d="M584.128 218.856H601.08C603.654 218.856 605.742 220.943 605.742 223.518C605.742 226.092 603.654 228.179 601.08 228.179H584.128C581.554 228.179 579.467 226.092 579.467 223.518C579.467 220.943 581.554 218.856 584.128 218.856Z" stroke="#004357" stroke-width="0.847574"/>
<g clip-path="url(#clip5_6286_125529)">
<rect width="10.1709" height="10.1709" transform="translate(609.556 218.432)" fill="#BED73C"/>
</g>
<path d="M614.641 218.856H631.593C634.167 218.856 636.254 220.943 636.254 223.518C636.254 226.092 634.167 228.179 631.593 228.179H614.641C612.067 228.179 609.979 226.092 609.979 223.518C609.979 220.943 612.067 218.856 614.641 218.856Z" stroke="#004357" stroke-width="0.847574"/>
<path d="M645.154 218.856H662.105C664.68 218.856 666.767 220.943 666.767 223.518C666.767 226.092 664.68 228.179 662.105 228.179H645.154C642.579 228.179 640.492 226.092 640.492 223.518C640.492 220.943 642.579 218.856 645.154 218.856Z" stroke="#004357" stroke-width="0.847574"/>
<defs>
<clipPath id="clip0_6286_125529">
<rect width="54.6875" height="54.6875" fill="white" transform="translate(278.531 240.302)"/>
</clipPath>
<clipPath id="clip1_6286_125529">
<path d="M487.505 223.518C487.505 220.709 489.782 218.432 492.59 218.432H509.542C512.35 218.432 514.627 220.709 514.627 223.518V223.518C514.627 226.326 512.35 228.603 509.542 228.603H492.59C489.782 228.603 487.505 226.326 487.505 223.518V223.518Z" fill="white"/>
</clipPath>
<clipPath id="clip2_6286_125529">
<path d="M518.018 223.518C518.018 220.709 520.294 218.432 523.103 218.432H540.055C542.863 218.432 545.14 220.709 545.14 223.518V223.518C545.14 226.326 542.863 228.603 540.055 228.603H523.103C520.294 228.603 518.018 226.326 518.018 223.518V223.518Z" fill="white"/>
</clipPath>
<clipPath id="clip3_6286_125529">
<path d="M548.53 223.518C548.53 220.709 550.807 218.432 553.616 218.432H570.567C573.376 218.432 575.653 220.709 575.653 223.518V223.518C575.653 226.326 573.376 228.603 570.567 228.603H553.616C550.807 228.603 548.53 226.326 548.53 223.518V223.518Z" fill="white"/>
</clipPath>
<clipPath id="clip4_6286_125529">
<path d="M579.043 223.518C579.043 220.709 581.32 218.432 584.128 218.432H601.08C603.889 218.432 606.165 220.709 606.165 223.518V223.518C606.165 226.326 603.889 228.603 601.08 228.603H584.128C581.32 228.603 579.043 226.326 579.043 223.518V223.518Z" fill="white"/>
</clipPath>
<clipPath id="clip5_6286_125529">
<path d="M609.556 223.518C609.556 220.709 611.832 218.432 614.641 218.432H631.593C634.401 218.432 636.678 220.709 636.678 223.518V223.518C636.678 226.326 634.401 228.603 631.593 228.603H614.641C611.832 228.603 609.556 226.326 609.556 223.518V223.518Z" fill="white"/>
</clipPath>
</defs>
</svg>
