<svg width="320" height="404" viewBox="0 0 320 404" fill="none" xmlns="http://www.w3.org/2000/svg">
<path d="M32.2141 87.1034C32.39 87.452 32.25 87.8771 31.9015 88.053L26.2214 90.919C25.8729 91.0949 25.4477 90.9549 25.2719 90.6064C25.096 90.2578 25.236 89.8327 25.5845 89.6568L30.6334 87.1092L28.0858 82.0603C27.91 81.7117 28.0499 81.2866 28.3985 81.1107C28.7471 80.9348 29.1722 81.0748 29.3481 81.4234L32.2141 87.1034ZM9.27793 36.4575C3.60072 44.8012 1.20476 54.7135 4.1804 63.8231C7.15068 72.9162 15.5346 81.3934 31.8041 86.7504L31.3619 88.0933C14.814 82.6446 5.98883 73.9126 2.83647 64.2621C-0.310508 54.628 2.25745 44.2622 8.10904 35.6621L9.27793 36.4575Z" fill="#004357"/>
<path d="M244.834 272.545L263.257 272.545C266.38 272.545 268.912 270.013 268.912 266.89L268.912 239.906" stroke="#BED73C" stroke-width="1.41381" stroke-linecap="round" stroke-linejoin="round" stroke-dasharray="2.83 2.83"/>
<path d="M228.951 114.516L253.533 114.516C256.657 114.516 259.188 117.048 259.188 120.171L259.188 149.833" stroke="#BED73C" stroke-width="1.41381" stroke-linecap="round" stroke-linejoin="round" stroke-dasharray="2.83 2.83"/>
<path d="M202.55 153.141H308.798C314.574 153.141 319.257 157.824 319.257 163.6V226.044C319.257 231.82 314.575 236.502 308.798 236.502H202.55C196.774 236.502 192.091 231.82 192.091 226.044V163.6C192.091 157.824 196.774 153.141 202.55 153.141Z" fill="white"/>
<path d="M202.55 153.141H308.798C314.574 153.141 319.257 157.824 319.257 163.6V226.044C319.257 231.82 314.575 236.502 308.798 236.502H202.55C196.774 236.502 192.091 231.82 192.091 226.044V163.6C192.091 157.824 196.774 153.141 202.55 153.141Z" stroke="#004357" stroke-width="0.90945"/>
<path d="M202.951 152.888H308.799C314.575 152.888 319.257 157.571 319.257 163.347V226.044C319.257 231.82 314.575 236.502 308.799 236.502H202.951C197.175 236.502 192.493 231.82 192.493 226.044V163.347C192.493 157.571 197.175 152.888 202.951 152.888Z" fill="white" stroke="#004357" stroke-width="0.90945"/>
<g clip-path="url(#clip0_6290_207219)">
<path d="M230.419 185.693L222.378 182.716V181.007C222.378 180.69 222.115 180.427 221.798 180.427C221.481 180.427 221.218 180.69 221.218 181.007V182.847L218.705 184.92L216.192 182.847V181.015C216.192 180.698 215.93 180.435 215.613 180.435C215.296 180.435 215.033 180.698 215.033 181.015V182.724L206.992 185.7C205.561 186.234 204.595 187.618 204.595 189.141V198.976C204.595 199.293 204.858 199.556 205.175 199.556H232.236C232.553 199.556 232.816 199.293 232.816 198.976V189.133C232.816 187.61 231.849 186.226 230.419 185.693ZM215.079 186.257L215.875 184.084L217.607 185.515L215.342 186.505C215.241 186.551 215.164 186.505 215.133 186.466C215.094 186.435 215.04 186.365 215.079 186.257ZM217.615 189.883H219.795L221.837 198.388H215.574L217.615 189.883ZM219.757 188.724H217.646L217.344 186.899L218.705 186.304L220.066 186.899L219.757 188.724ZM219.803 185.515L221.535 184.084L222.331 186.257C222.37 186.358 222.316 186.435 222.285 186.466C222.254 186.497 222.177 186.543 222.076 186.505L219.803 185.515ZM205.754 189.133C205.754 188.09 206.412 187.139 207.394 186.775L214.638 184.092L213.989 185.863C213.803 186.381 213.935 186.938 214.329 187.309C214.592 187.556 214.917 187.68 215.249 187.68C215.435 187.68 215.62 187.641 215.798 187.564L216.247 187.371L216.564 189.28L214.383 198.388H209.62V196.262C209.62 195.945 209.358 195.682 209.04 195.682C208.723 195.682 208.461 195.945 208.461 196.262V198.388H205.754V189.133ZM231.656 198.388H228.95V196.262C228.95 195.945 228.687 195.682 228.37 195.682C228.053 195.682 227.79 195.945 227.79 196.262V198.388H223.027L220.839 189.28L221.156 187.371L221.605 187.564C221.782 187.641 221.968 187.68 222.154 187.68C222.486 187.68 222.819 187.556 223.074 187.309C223.476 186.93 223.607 186.373 223.414 185.863L222.772 184.1L230.017 186.783C230.999 187.146 231.656 188.09 231.656 189.141V198.388Z" fill="#004357"/>
<path d="M228.37 193.363C228.053 193.363 227.79 193.626 227.79 193.943V194.329C227.79 194.646 228.053 194.909 228.37 194.909C228.687 194.909 228.95 194.646 228.95 194.329V193.943C228.95 193.626 228.687 193.363 228.37 193.363Z" fill="#004357"/>
<path d="M209.041 194.909C209.358 194.909 209.621 194.647 209.621 194.33V193.943C209.621 193.626 209.358 193.363 209.041 193.363C208.724 193.363 208.461 193.626 208.461 193.943V194.33C208.461 194.647 208.724 194.909 209.041 194.909Z" fill="#004357"/>
<path d="M216.966 177.551C216.966 176.593 217.747 175.812 218.705 175.812H223.623C223.816 175.27 223.924 174.683 223.924 174.072V170.979C223.924 168.103 221.581 165.76 218.705 165.76C215.829 165.76 213.486 168.103 213.486 170.979V174.072C213.486 176.948 215.829 179.291 218.705 179.291C217.747 179.291 216.966 178.51 216.966 177.551Z" fill="#BED73C"/>
<path d="M227.21 168.467H226.244V167.5C226.244 163.341 222.865 159.962 218.705 159.962C214.546 159.962 211.167 163.341 211.167 167.5V168.467H210.2C209.025 168.467 208.074 169.418 208.074 170.593V176.005C208.074 177.18 209.025 178.131 210.2 178.131C211.376 178.131 212.327 177.18 212.327 176.005V167.5C212.327 163.982 215.187 161.122 218.705 161.122C222.223 161.122 225.084 163.982 225.084 167.5V176.972H218.705C218.388 176.972 218.126 177.235 218.126 177.552C218.126 177.869 218.388 178.131 218.705 178.131H227.21C228.386 178.131 229.337 177.18 229.337 176.005V170.593C229.337 169.418 228.386 168.467 227.21 168.467Z" fill="#BED73C"/>
</g>
<path d="M309.072 212.784H311.022L310.847 219.943H309.232L309.072 212.784ZM308.868 221.908C308.868 221.224 309.348 220.816 310.047 220.816C310.716 220.816 311.211 221.224 311.211 221.908C311.211 222.577 310.716 222.985 310.047 222.985C309.348 222.985 308.868 222.577 308.868 221.908Z" fill="#3C3E3E"/>
<path d="M299.755 215.782H301.647L301.617 216.815C302.185 215.971 303.058 215.622 303.989 215.622C306.056 215.622 307.322 217.222 307.322 219.318C307.322 221.311 305.997 222.956 303.858 222.956C302.782 222.956 302.17 222.577 301.588 221.879C301.603 222.315 301.588 222.766 301.588 223.203V225.487H299.755V215.782ZM303.524 221.529C304.731 221.529 305.43 220.496 305.43 219.318C305.43 218.095 304.673 217.135 303.465 217.135C302.345 217.135 301.559 217.994 301.559 219.318C301.559 220.496 302.33 221.529 303.524 221.529Z" fill="#3C3E3E"/>
<path d="M296.075 212.784H297.923V222.825H296.075V212.784Z" fill="#3C3E3E"/>
<path d="M294.504 221.85C294.111 222.257 293.049 222.985 291.332 222.985C289.207 222.985 287.636 221.69 287.636 219.42C287.636 217.164 289.28 215.651 291.288 215.651C293.456 215.651 294.766 217.077 294.766 218.954C294.766 219.318 294.737 219.9 294.737 219.9H289.557C289.731 221.02 290.59 221.559 291.652 221.559C292.598 221.559 293.442 221.137 293.776 220.846L294.504 221.85ZM292.903 218.692C292.874 217.921 292.583 217.033 291.274 217.033C290.168 217.033 289.586 217.804 289.527 218.692H292.903Z" fill="#3C3E3E"/>
<path d="M279.903 212.784H281.751V216.844H281.78C282.159 216.102 282.872 215.651 283.89 215.651C285.913 215.651 286.422 216.96 286.422 218.648V222.825H284.56V219.056C284.56 218.008 284.371 217.179 283.294 217.179C282.144 217.179 281.751 218.139 281.751 219.318V222.825H279.903V212.784Z" fill="#3C3E3E"/>
<path d="M268.026 219.332C268.026 217.106 269.685 215.651 271.853 215.651C274.007 215.651 275.666 217.106 275.666 219.332C275.666 221.559 274.007 222.985 271.853 222.985C269.685 222.985 268.026 221.559 268.026 219.332ZM271.853 221.442C273.047 221.442 273.745 220.496 273.745 219.289C273.745 218.081 273.047 217.15 271.853 217.15C270.631 217.15 269.962 218.081 269.962 219.289C269.962 220.496 270.631 221.442 271.853 221.442Z" fill="#3C3E3E"/>
<path d="M267.386 222.752C267.299 222.781 266.746 222.985 265.96 222.985C265.261 222.985 264.752 222.839 264.432 222.475C264.068 222.082 263.923 221.457 263.923 220.496V217.237H262.875V215.796H263.923V213.788H265.771V215.796H267.4V217.237H265.771V220.089C265.771 220.656 265.814 220.991 265.96 221.195C266.076 221.369 266.295 221.428 266.615 221.428C266.993 221.428 267.284 221.311 267.284 221.311L267.386 222.752Z" fill="#3C3E3E"/>
<path d="M259.22 221.85C258.827 222.257 257.765 222.985 256.048 222.985C253.923 222.985 252.352 221.69 252.352 219.42C252.352 217.164 253.996 215.651 256.004 215.651C258.172 215.651 259.482 217.077 259.482 218.954C259.482 219.318 259.453 219.9 259.453 219.9H254.272C254.447 221.02 255.305 221.559 256.368 221.559C257.314 221.559 258.157 221.137 258.492 220.846L259.22 221.85ZM257.619 218.692C257.59 217.921 257.299 217.033 255.989 217.033C254.883 217.033 254.301 217.804 254.243 218.692H257.619Z" fill="#3C3E3E"/>
<path d="M247.56 215.782H249.408L249.378 216.917H249.422C249.699 216.16 250.397 215.651 251.154 215.651C251.634 215.651 251.896 215.782 251.896 215.782L251.765 217.397H251.678C251.474 217.339 251.154 217.31 250.906 217.31C250.353 217.31 249.917 217.542 249.669 217.994C249.48 218.343 249.408 218.823 249.408 219.361V222.825H247.56V215.782Z" fill="#3C3E3E"/>
<path d="M246.062 221.85C245.669 222.257 244.606 222.985 242.889 222.985C240.765 222.985 239.193 221.69 239.193 219.42C239.193 217.164 240.838 215.651 242.846 215.651C245.014 215.651 246.323 217.077 246.323 218.954C246.323 219.318 246.294 219.9 246.294 219.9H241.114C241.289 221.02 242.147 221.559 243.209 221.559C244.155 221.559 244.999 221.137 245.334 220.846L246.062 221.85ZM244.461 218.692C244.432 217.921 244.141 217.033 242.831 217.033C241.725 217.033 241.143 217.804 241.085 218.692H244.461Z" fill="#3C3E3E"/>
<path d="M231.461 212.784H233.309V216.844H233.338C233.716 216.102 234.429 215.651 235.448 215.651C237.471 215.651 237.98 216.96 237.98 218.648V222.825H236.117V219.056C236.117 218.008 235.928 217.179 234.851 217.179C233.702 217.179 233.309 218.139 233.309 219.318V222.825H231.461V212.784Z" fill="#3C3E3E"/>
<path d="M216.213 215.782H218.075L218.061 216.844H218.105C218.425 216.189 219.283 215.651 220.2 215.651C221.219 215.651 221.83 216.058 222.164 216.989C222.659 216.131 223.459 215.651 224.478 215.651C226.326 215.651 226.835 216.96 226.835 218.576V222.825H224.973V218.881C224.973 218.023 224.784 217.179 223.867 217.179C222.936 217.179 222.455 217.979 222.455 219.187V222.825H220.593V218.867C220.593 217.906 220.345 217.179 219.458 217.179C218.497 217.179 218.075 218.081 218.075 219.187V222.825H216.213V215.782Z" fill="#3C3E3E"/>
<path d="M212.472 212.784H214.306L212.923 216.16H211.41L212.472 212.784Z" fill="#3C3E3E"/>
<path d="M207.619 212.784H209.511V222.825H207.619V212.784Z" fill="#3C3E3E"/>
<path d="M204.224 212.784H205.664L204.602 216.16H202.841L204.224 212.784ZM201.372 212.784H202.812L201.75 216.16H199.989L201.372 212.784Z" fill="#3C3E3E"/>
<path d="M293.293 243.525L284.896 236.047H305.318L296.922 243.525C295.888 244.447 294.327 244.447 293.293 243.525Z" fill="white"/>
<path d="M284.92 236.682L293.365 243.694C294.375 244.533 295.84 244.533 296.851 243.694L305.294 236.682" stroke="#004357" stroke-width="0.90945" stroke-linecap="square"/>
<path d="M184.8 211.153C185.176 211.046 185.567 211.264 185.674 211.639L187.417 217.758C187.524 218.133 187.306 218.524 186.93 218.631C186.555 218.738 186.164 218.521 186.057 218.145L184.508 212.706L179.069 214.255C178.693 214.362 178.302 214.145 178.195 213.769C178.088 213.394 178.306 213.003 178.682 212.896L184.8 211.153ZM143.672 216.998C160.612 229.876 178.354 222.308 184.376 211.489L185.612 212.176C179.19 223.713 160.472 231.546 142.816 218.124L143.672 216.998Z" fill="#004357"/>
<g clip-path="url(#clip1_6290_207219)">
<path d="M32.0322 236.582C32.0322 234.71 33.5499 233.192 35.4221 233.192H237.179C239.052 233.192 240.569 234.71 240.569 236.582V305.692C240.569 307.565 239.052 309.082 237.179 309.082H35.4221C33.5499 309.082 32.0322 307.565 32.0322 305.692V236.582Z" fill="#F3F4F6"/>
<path d="M32.0322 236.582C32.0322 234.71 33.5499 233.192 35.4221 233.192H237.18C239.052 233.192 240.569 234.71 240.569 236.582V305.692C240.569 307.565 239.052 309.082 237.18 309.082H35.4221C33.5499 309.082 32.0322 307.565 32.0322 305.692V236.582Z" fill="#F3F4F6"/>
<path d="M190.346 251.975C190.346 251.381 190.762 251.028 191.369 251.028C191.95 251.028 192.379 251.381 192.379 251.975C192.379 252.556 191.95 252.91 191.369 252.91C190.762 252.91 190.346 252.556 190.346 251.975Z" fill="#3C3E3E"/>
<path d="M188.83 251.925C188.489 252.278 187.567 252.91 186.077 252.91C184.233 252.91 182.869 251.786 182.869 249.816C182.869 247.858 184.296 246.545 186.039 246.545C187.921 246.545 189.057 247.782 189.057 249.411C189.057 249.727 189.032 250.232 189.032 250.232H184.536C184.688 251.205 185.433 251.672 186.355 251.672C187.176 251.672 187.908 251.306 188.199 251.053L188.83 251.925ZM187.441 249.184C187.416 248.515 187.163 247.744 186.026 247.744C185.067 247.744 184.561 248.414 184.511 249.184H187.441Z" fill="#3C3E3E"/>
<path d="M176.146 246.658H177.762L177.749 247.656C178.116 246.873 178.823 246.544 179.619 246.544C181.374 246.544 181.816 247.681 181.816 249.146V252.771H180.199V249.5C180.199 248.59 180.035 247.871 179.101 247.871C178.103 247.871 177.762 248.704 177.762 249.727V252.771H176.146V246.658Z" fill="#3C3E3E"/>
<path d="M168.403 249.74C168.403 247.807 169.843 246.544 171.725 246.544C173.594 246.544 175.034 247.807 175.034 249.74C175.034 251.672 173.594 252.91 171.725 252.91C169.843 252.91 168.403 251.672 168.403 249.74ZM171.725 251.571C172.76 251.571 173.367 250.75 173.367 249.702C173.367 248.654 172.76 247.845 171.725 247.845C170.664 247.845 170.083 248.654 170.083 249.702C170.083 250.75 170.664 251.571 171.725 251.571Z" fill="#3C3E3E"/>
<path d="M165.672 252.771L165.685 251.811C165.192 252.594 164.396 252.91 163.55 252.91C161.757 252.91 160.658 251.52 160.658 249.702C160.658 247.972 161.807 246.544 163.664 246.544C164.485 246.544 165.205 246.848 165.634 247.504C165.621 247.226 165.621 246.898 165.621 246.469V244.057H167.225V252.771H165.672ZM164.005 251.596C164.977 251.596 165.659 250.851 165.659 249.702C165.659 248.679 164.99 247.782 163.954 247.782C162.906 247.782 162.3 248.679 162.3 249.702C162.3 250.763 162.957 251.596 164.005 251.596Z" fill="#3C3E3E"/>
<path d="M157.599 252.708C157.523 252.733 157.043 252.91 156.361 252.91C155.755 252.91 155.313 252.783 155.035 252.468C154.719 252.127 154.593 251.584 154.593 250.75V247.921H153.684V246.671H154.593V244.928H156.197V246.671H157.611V247.921H156.197V250.396C156.197 250.889 156.235 251.179 156.361 251.356C156.462 251.508 156.651 251.558 156.929 251.558C157.258 251.558 157.51 251.457 157.51 251.457L157.599 252.708Z" fill="#3C3E3E"/>
<path d="M149.066 250.864C149.786 251.419 150.405 251.697 150.922 251.697C151.529 251.697 151.806 251.47 151.806 251.116C151.806 250.8 151.566 250.624 150.783 250.358L150.076 250.119C149.167 249.815 148.7 249.272 148.7 248.376C148.7 247.264 149.71 246.544 150.885 246.544C151.971 246.544 152.577 246.835 153.082 247.201L152.387 248.275C152.034 248.009 151.516 247.757 150.96 247.757C150.43 247.757 150.165 247.959 150.165 248.249C150.165 248.515 150.367 248.729 151.049 248.944L151.478 249.083C152.829 249.525 153.309 250.005 153.309 250.889C153.309 252.051 152.387 252.91 150.885 252.91C149.95 252.91 148.902 252.531 148.409 251.962L149.066 250.864Z" fill="#3C3E3E"/>
<path d="M141.122 249.74C141.122 247.807 142.562 246.544 144.444 246.544C146.313 246.544 147.752 247.807 147.752 249.74C147.752 251.672 146.313 252.91 144.444 252.91C142.562 252.91 141.122 251.672 141.122 249.74ZM144.444 251.571C145.479 251.571 146.085 250.75 146.085 249.702C146.085 248.654 145.479 247.845 144.444 247.845C143.383 247.845 142.802 248.654 142.802 249.702C142.802 250.75 143.383 251.571 144.444 251.571Z" fill="#3C3E3E"/>
<path d="M130.833 246.658H132.45L132.437 247.58H132.475C132.753 247.012 133.498 246.544 134.293 246.544C135.177 246.544 135.708 246.898 135.998 247.706C136.428 246.961 137.122 246.544 138.006 246.544C139.61 246.544 140.052 247.681 140.052 249.083V252.771H138.436V249.348C138.436 248.603 138.272 247.871 137.476 247.871C136.668 247.871 136.251 248.565 136.251 249.613V252.771H134.634V249.335C134.634 248.502 134.42 247.871 133.649 247.871C132.816 247.871 132.45 248.654 132.45 249.613V252.771H130.833V246.658Z" fill="#3C3E3E"/>
<path d="M127.677 244.057H129.281V252.771H127.677V244.057Z" fill="#3C3E3E"/>
<path d="M124.651 252.063C124.398 252.505 123.691 252.91 122.782 252.91C121.595 252.91 120.635 252.265 120.635 250.99C120.635 249.714 121.885 249.222 123.148 249.133L124.613 249.032V248.868C124.613 248.085 124.095 247.719 123.249 247.719C122.441 247.719 121.771 248.022 121.506 248.224L121.014 247.189C121.481 246.911 122.34 246.544 123.401 246.544C124.487 246.544 125.106 246.822 125.56 247.252C126.002 247.681 126.23 248.237 126.23 249.272V252.771H124.676L124.651 252.063ZM123.527 250.081C122.668 250.131 122.251 250.422 122.251 250.939C122.251 251.457 122.643 251.811 123.312 251.811C123.944 251.811 124.411 251.445 124.626 251.141V250.017L123.527 250.081Z" fill="#3C3E3E"/>
<path d="M117.297 251.925C116.956 252.278 116.034 252.91 114.544 252.91C112.7 252.91 111.336 251.786 111.336 249.816C111.336 247.858 112.763 246.545 114.506 246.545C116.388 246.545 117.524 247.782 117.524 249.411C117.524 249.727 117.499 250.232 117.499 250.232H113.003C113.155 251.205 113.9 251.672 114.822 251.672C115.643 251.672 116.375 251.306 116.665 251.053L117.297 251.925ZM115.908 249.184C115.882 248.515 115.63 247.744 114.493 247.744C113.533 247.744 113.028 248.414 112.978 249.184H115.908Z" fill="#3C3E3E"/>
<path d="M107.178 246.658H108.782L108.756 247.643H108.794C109.034 246.987 109.64 246.545 110.297 246.545C110.714 246.545 110.941 246.658 110.941 246.658L110.828 248.06H110.752C110.575 248.01 110.297 247.984 110.082 247.984C109.603 247.984 109.224 248.186 109.009 248.578C108.845 248.881 108.782 249.298 108.782 249.765V252.771H107.178V246.658Z" fill="#3C3E3E"/>
<path d="M103.932 244.057H105.523L104.323 246.986H103.01L103.932 244.057Z" fill="#3C3E3E"/>
<path d="M99.9074 251.912C99.5537 252.518 98.897 252.884 98.013 252.884C97.2679 252.884 96.7627 252.682 96.4217 252.341C95.967 251.874 95.8281 251.129 95.8281 250.283V246.658H97.4447V249.929C97.4447 250.838 97.5962 251.558 98.5308 251.558C99.5032 251.558 99.8695 250.788 99.8695 249.765V246.658H101.486V252.771H99.92L99.9074 251.912Z" fill="#3C3E3E"/>
<path d="M88.2002 249.74C88.2002 247.807 89.6399 246.544 91.5217 246.544C93.3908 246.544 94.8305 247.807 94.8305 249.74C94.8305 251.672 93.3908 252.91 91.5217 252.91C89.6399 252.91 88.2002 251.672 88.2002 249.74ZM91.5217 251.571C92.5573 251.571 93.1635 250.75 93.1635 249.702C93.1635 248.654 92.5573 247.845 91.5217 247.845C90.4608 247.845 89.8799 248.654 89.8799 249.702C89.8799 250.75 90.4608 251.571 91.5217 251.571Z" fill="#3C3E3E"/>
<path d="M83.241 249.184L80.2227 244.057H82.0413L84.0746 247.795L86.0952 244.057H87.9139L84.8828 249.184V252.771H83.241V249.184Z" fill="#3C3E3E"/>
<path d="M194.776 271.28H195.624L195.548 275.572H194.844L194.776 271.28ZM194.632 276.692C194.632 276.361 194.869 276.158 195.2 276.158C195.523 276.158 195.76 276.361 195.76 276.692C195.76 277.015 195.523 277.218 195.2 277.218C194.869 277.218 194.632 277.015 194.632 276.692Z" fill="#3C3E3E"/>
<path d="M193.353 276.285C193.353 277.176 193.209 277.668 192.912 278.024C192.615 278.389 192.115 278.796 191.114 278.796C190.121 278.796 189.434 278.278 189.315 278.194L189.697 277.625C189.909 277.812 190.537 278.134 191.139 278.134C191.742 278.134 192.081 277.897 192.242 277.693C192.403 277.498 192.547 277.116 192.547 276.565V276.344C192.259 276.769 191.801 277.082 191.114 277.082C190.087 277.082 189.18 276.327 189.18 275.097C189.18 273.757 190.087 273.028 191.122 273.028C191.775 273.028 192.25 273.316 192.53 273.732H192.547V273.104H193.353V276.285ZM191.292 276.421C192.098 276.421 192.573 275.818 192.573 275.072C192.573 274.266 192.098 273.681 191.292 273.681C190.486 273.681 190.011 274.275 190.011 275.072C190.011 275.818 190.486 276.421 191.292 276.421Z" fill="#3C3E3E"/>
<path d="M184.862 273.104H185.677L185.668 273.791C185.889 273.316 186.406 273.028 186.924 273.028C188.069 273.028 188.366 273.783 188.366 274.75V277.133H187.551V274.885C187.551 274.207 187.433 273.698 186.712 273.698C185.957 273.698 185.677 274.334 185.677 275.106V277.133H184.862V273.104Z" fill="#3C3E3E"/>
<path d="M182.764 271.781C182.764 271.492 182.984 271.28 183.298 271.28C183.603 271.28 183.824 271.492 183.824 271.781C183.824 272.069 183.603 272.281 183.298 272.281C182.984 272.281 182.764 272.069 182.764 271.781ZM182.891 273.104H183.705V277.133H182.891V273.104Z" fill="#3C3E3E"/>
<path d="M177.739 275.131C177.739 273.884 178.672 273.028 179.877 273.028C181.073 273.028 182.006 273.884 182.006 275.131C182.006 276.387 181.073 277.227 179.877 277.227C178.672 277.227 177.739 276.387 177.739 275.131ZM179.877 276.531C180.683 276.531 181.183 275.903 181.183 275.106C181.183 274.317 180.683 273.689 179.877 273.689C179.063 273.689 178.562 274.317 178.562 275.106C178.562 275.903 179.063 276.531 179.877 276.531Z" fill="#3C3E3E"/>
<path d="M176.884 276.285C176.884 277.176 176.74 277.668 176.443 278.024C176.146 278.389 175.646 278.796 174.645 278.796C173.653 278.796 172.965 278.278 172.847 278.194L173.228 277.625C173.44 277.812 174.068 278.134 174.67 278.134C175.273 278.134 175.612 277.897 175.773 277.693C175.934 277.498 176.079 277.116 176.079 276.565V276.344C175.79 276.769 175.332 277.082 174.645 277.082C173.619 277.082 172.711 276.327 172.711 275.097C172.711 273.757 173.619 273.028 174.654 273.028C175.307 273.028 175.782 273.316 176.062 273.732H176.079V273.104H176.884V276.285ZM174.823 276.421C175.629 276.421 176.104 275.818 176.104 275.072C176.104 274.266 175.629 273.681 174.823 273.681C174.017 273.681 173.542 274.275 173.542 275.072C173.542 275.818 174.017 276.421 174.823 276.421Z" fill="#3C3E3E"/>
<path d="M164.367 273.104H165.182L165.173 273.74H165.199C165.385 273.367 165.826 273.028 166.361 273.028C166.954 273.028 167.37 273.299 167.557 273.825C167.828 273.316 168.269 273.028 168.838 273.028C169.915 273.028 170.203 273.816 170.203 274.69V277.133H169.398V274.784C169.398 274.317 169.313 273.698 168.66 273.698C168.015 273.698 167.692 274.317 167.692 275.038V277.133H166.878V274.784C166.878 274.19 166.734 273.698 166.149 273.698C165.504 273.698 165.182 274.317 165.182 275.038V277.133H164.367V273.104Z" fill="#3C3E3E"/>
<path d="M162.449 276.556C162.228 276.947 161.77 277.227 161.202 277.227C160.625 277.227 160.294 277.032 160.082 276.76C159.878 276.489 159.785 276.09 159.785 275.513V273.095H160.591V275.479C160.591 276.031 160.71 276.548 161.431 276.548C162.143 276.548 162.432 275.937 162.432 275.259V273.095H163.246V277.133H162.457L162.449 276.556Z" fill="#3C3E3E"/>
<path d="M159.145 277.091C158.933 277.184 158.687 277.227 158.407 277.227C157.983 277.227 157.72 277.065 157.55 276.811C157.381 276.556 157.347 276.243 157.347 275.606V273.766H156.753V273.112H157.347V271.908H158.161V273.112H159.128V273.766H158.161V275.589C158.161 275.929 158.161 276.166 158.263 276.327C158.331 276.463 158.449 276.531 158.679 276.531C158.916 276.531 159.094 276.438 159.094 276.438L159.145 277.091Z" fill="#3C3E3E"/>
<path d="M152.596 273.104H153.41L153.402 273.791C153.622 273.316 154.14 273.028 154.657 273.028C155.802 273.028 156.099 273.783 156.099 274.75V277.133H155.285V274.885C155.285 274.207 155.166 273.698 154.445 273.698C153.69 273.698 153.41 274.334 153.41 275.106V277.133H152.596V273.104Z" fill="#3C3E3E"/>
<path d="M151.627 276.59C151.576 276.633 151.058 277.227 149.854 277.227C148.658 277.227 147.835 276.395 147.835 275.114C147.835 273.842 148.76 273.028 149.879 273.028C150.999 273.028 151.788 273.825 151.788 274.953C151.788 275.106 151.763 275.309 151.763 275.309H148.658C148.7 276.107 149.209 276.59 149.956 276.59C150.711 276.59 151.194 276.183 151.287 276.124L151.627 276.59ZM151.016 274.767C151.008 274.317 150.668 273.613 149.854 273.613C149.048 273.613 148.692 274.283 148.666 274.767H151.016Z" fill="#3C3E3E"/>
<path d="M141.181 273.104H141.995L141.987 273.74H142.012C142.199 273.367 142.64 273.028 143.174 273.028C143.768 273.028 144.184 273.299 144.37 273.825C144.642 273.316 145.083 273.028 145.651 273.028C146.728 273.028 147.017 273.816 147.017 274.69V277.133H146.211V274.784C146.211 274.317 146.126 273.698 145.473 273.698C144.828 273.698 144.506 274.317 144.506 275.038V277.133H143.692V274.784C143.692 274.19 143.547 273.698 142.962 273.698C142.317 273.698 141.995 274.317 141.995 275.038V277.133H141.181V273.104Z" fill="#3C3E3E"/>
<path d="M136.062 275.131C136.062 273.884 136.996 273.028 138.2 273.028C139.396 273.028 140.329 273.884 140.329 275.131C140.329 276.387 139.396 277.227 138.2 277.227C136.996 277.227 136.062 276.387 136.062 275.131ZM138.2 276.531C139.006 276.531 139.507 275.903 139.507 275.106C139.507 274.317 139.006 273.689 138.2 273.689C137.386 273.689 136.885 274.317 136.885 275.106C136.885 275.903 137.386 276.531 138.2 276.531Z" fill="#3C3E3E"/>
<path d="M129.408 273.104H130.223L130.214 273.74H130.24C130.426 273.367 130.867 273.028 131.402 273.028C131.995 273.028 132.411 273.299 132.598 273.825C132.869 273.316 133.31 273.028 133.879 273.028C134.956 273.028 135.244 273.816 135.244 274.69V277.133H134.439V274.784C134.439 274.317 134.354 273.698 133.701 273.698C133.056 273.698 132.733 274.317 132.733 275.038V277.133H131.919V274.784C131.919 274.19 131.775 273.698 131.19 273.698C130.545 273.698 130.223 274.317 130.223 275.038V277.133H129.408V273.104Z" fill="#3C3E3E"/>
<path d="M126.749 276.59C126.698 276.633 126.181 277.227 124.976 277.227C123.78 277.227 122.957 276.395 122.957 275.114C122.957 273.842 123.882 273.028 125.001 273.028C126.121 273.028 126.91 273.825 126.91 274.953C126.91 275.106 126.885 275.309 126.885 275.309H123.78C123.822 276.107 124.331 276.59 125.078 276.59C125.833 276.59 126.316 276.183 126.41 276.124L126.749 276.59ZM126.138 274.767C126.13 274.317 125.79 273.613 124.976 273.613C124.17 273.613 123.814 274.283 123.788 274.767H126.138Z" fill="#3C3E3E"/>
<path d="M118.624 271.28H119.43V273.74H119.447C119.659 273.341 120.1 273.028 120.685 273.028C121.848 273.028 122.127 273.774 122.127 274.733V277.133H121.313V274.851C121.313 274.275 121.22 273.698 120.482 273.698C119.744 273.698 119.43 274.334 119.43 275.14V277.133H118.624V271.28Z" fill="#3C3E3E"/>
<path d="M117.907 277.091C117.695 277.184 117.449 277.227 117.169 277.227C116.745 277.227 116.482 277.065 116.312 276.811C116.142 276.556 116.108 276.243 116.108 275.606V273.766H115.515V273.112H116.108V271.908H116.923V273.112H117.89V273.766H116.923V275.589C116.923 275.929 116.923 276.166 117.025 276.327C117.092 276.463 117.211 276.531 117.44 276.531C117.678 276.531 117.856 276.438 117.856 276.438L117.907 277.091Z" fill="#3C3E3E"/>
<path d="M109.238 273.104H110.019V273.74C110.375 273.265 110.875 273.028 111.469 273.028C112.657 273.028 113.412 273.918 113.412 275.114C113.412 276.31 112.648 277.227 111.452 277.227C110.816 277.227 110.35 276.955 110.061 276.506L110.053 277.32V278.711H109.238V273.104ZM111.3 276.531C112.105 276.531 112.581 275.912 112.581 275.106C112.581 274.3 112.105 273.689 111.3 273.689C110.494 273.689 110.019 274.3 110.019 275.106C110.019 275.912 110.494 276.531 111.3 276.531Z" fill="#3C3E3E"/>
<path d="M108.234 276.59C108.183 276.633 107.666 277.227 106.461 277.227C105.265 277.227 104.442 276.395 104.442 275.114C104.442 273.842 105.367 273.028 106.487 273.028C107.606 273.028 108.395 273.825 108.395 274.953C108.395 275.106 108.37 275.309 108.37 275.309H105.265C105.308 276.107 105.817 276.59 106.563 276.59C107.318 276.59 107.802 276.183 107.895 276.124L108.234 276.59ZM107.623 274.767C107.615 274.317 107.276 273.613 106.461 273.613C105.655 273.613 105.299 274.283 105.274 274.767H107.623Z" fill="#3C3E3E"/>
<path d="M103.703 276.59C103.652 276.633 103.135 277.227 101.93 277.227C100.734 277.227 99.9111 276.395 99.9111 275.114C99.9111 273.842 100.836 273.028 101.956 273.028C103.075 273.028 103.864 273.825 103.864 274.953C103.864 275.106 103.839 275.309 103.839 275.309H100.734C100.776 276.107 101.285 276.59 102.032 276.59C102.787 276.59 103.27 276.183 103.364 276.124L103.703 276.59ZM103.092 274.767C103.084 274.317 102.744 273.613 101.93 273.613C101.124 273.613 100.768 274.283 100.742 274.767H103.092Z" fill="#3C3E3E"/>
<path d="M96.0908 271.28H96.8967V274.716L98.5424 273.104H99.4924L97.9146 274.622L99.696 277.133H98.746L97.3633 275.182L96.8967 275.623V277.133H96.0908V271.28Z" fill="#3C3E3E"/>
<path d="M92.3584 276.234H93.1898L92.4093 278.321H91.7646L92.3584 276.234Z" fill="#3C3E3E"/>
<path d="M86.9531 273.104H87.7335V273.74C88.0898 273.265 88.5903 273.028 89.1841 273.028C90.3717 273.028 91.1267 273.918 91.1267 275.114C91.1267 276.31 90.3632 277.227 89.1671 277.227C88.5309 277.227 88.0644 276.955 87.776 276.506L87.7675 277.32V278.711H86.9531V273.104ZM89.0145 276.531C89.8203 276.531 90.2954 275.912 90.2954 275.106C90.2954 274.3 89.8203 273.689 89.0145 273.689C88.2086 273.689 87.7335 274.3 87.7335 275.106C87.7335 275.912 88.2086 276.531 89.0145 276.531Z" fill="#3C3E3E"/>
<path d="M85.95 276.59C85.8991 276.633 85.3817 277.227 84.1771 277.227C82.981 277.227 82.1582 276.395 82.1582 275.114C82.1582 273.842 83.0828 273.028 84.2026 273.028C85.3223 273.028 86.1112 273.825 86.1112 274.953C86.1112 275.106 86.0858 275.309 86.0858 275.309H82.981C83.0235 276.107 83.5324 276.59 84.2789 276.59C85.0339 276.59 85.5174 276.183 85.6107 276.124L85.95 276.59ZM85.3393 274.767C85.3308 274.317 84.9915 273.613 84.1771 273.613C83.3713 273.613 83.015 274.283 82.9895 274.767H85.3393Z" fill="#3C3E3E"/>
<path d="M81.7545 277.091C81.5424 277.184 81.2964 277.227 81.0165 277.227C80.5923 277.227 80.3294 277.066 80.1597 276.811C79.99 276.557 79.9561 276.243 79.9561 275.606V273.766H79.3623V273.113H79.9561V271.908H80.7705V273.113H81.7375V273.766H80.7705V275.59C80.7705 275.929 80.7705 276.166 80.8723 276.328C80.9401 276.463 81.0589 276.531 81.2879 276.531C81.5254 276.531 81.7036 276.438 81.7036 276.438L81.7545 277.091Z" fill="#3C3E3E"/>
<path d="M76.2828 276.031V276.039C76.6221 276.395 77.0971 276.616 77.4704 276.616C77.8436 276.616 78.2423 276.48 78.2423 276.039C78.2423 275.64 77.7673 275.513 77.3347 275.369L77.1565 275.31C76.6136 275.131 76.1471 274.835 76.1471 274.19C76.1471 273.443 76.7918 273.036 77.5043 273.036C78.2169 273.036 78.6241 273.291 78.8785 273.562L78.5392 274.063C78.3017 273.817 77.9115 273.63 77.5213 273.63C77.1311 273.63 76.8766 273.8 76.8766 274.13C76.8766 274.461 77.2668 274.605 77.6655 274.733L78.2084 274.928C78.658 275.114 78.9973 275.428 78.9973 275.954C78.9973 276.828 78.2763 277.227 77.4619 277.227C76.7833 277.227 76.2319 276.947 75.8926 276.506L76.2828 276.031Z" fill="#3C3E3E"/>
<path d="M228.8 266.888V266.896C229.14 267.252 229.615 267.473 229.988 267.473C230.361 267.473 230.76 267.337 230.76 266.896C230.76 266.497 230.285 266.37 229.852 266.226L229.674 266.167C229.131 265.988 228.665 265.692 228.665 265.047C228.665 264.3 229.309 263.893 230.022 263.893C230.734 263.893 231.142 264.148 231.396 264.419L231.057 264.92C230.819 264.674 230.429 264.487 230.039 264.487C229.649 264.487 229.394 264.657 229.394 264.987C229.394 265.318 229.784 265.463 230.183 265.59L230.726 265.785C231.176 265.971 231.515 266.285 231.515 266.811C231.515 267.685 230.794 268.084 229.979 268.084C229.301 268.084 228.749 267.804 228.41 267.363L228.8 266.888Z" fill="#3C3E3E"/>
<path d="M226.703 262.638C226.703 262.349 226.924 262.137 227.238 262.137C227.543 262.137 227.763 262.349 227.763 262.638C227.763 262.926 227.543 263.138 227.238 263.138C226.924 263.138 226.703 262.926 226.703 262.638ZM226.83 263.961H227.645V267.991H226.83V263.961Z" fill="#3C3E3E"/>
<path d="M222.19 262.137H222.996V264.597H223.013C223.225 264.199 223.666 263.885 224.252 263.885C225.414 263.885 225.694 264.631 225.694 265.59V267.991H224.879V265.709C224.879 265.132 224.786 264.555 224.048 264.555C223.31 264.555 222.996 265.191 222.996 265.997V267.991H222.19V262.137Z" fill="#3C3E3E"/>
<path d="M221.473 267.948C221.261 268.041 221.015 268.084 220.735 268.084C220.311 268.084 220.048 267.923 219.878 267.668C219.709 267.414 219.675 267.1 219.675 266.464V264.623H219.081V263.97H219.675V262.765H220.489V263.97H221.456V264.623H220.489V266.447C220.489 266.786 220.489 267.023 220.591 267.185C220.659 267.32 220.778 267.388 221.007 267.388C221.244 267.388 221.422 267.295 221.422 267.295L221.473 267.948Z" fill="#3C3E3E"/>
<path d="M216.698 267.142C216.698 268.033 216.554 268.525 216.257 268.881C215.96 269.246 215.459 269.653 214.458 269.653C213.466 269.653 212.779 269.136 212.66 269.051L213.042 268.482C213.254 268.669 213.882 268.991 214.484 268.991C215.086 268.991 215.426 268.754 215.587 268.55C215.748 268.355 215.892 267.974 215.892 267.422V267.202C215.604 267.626 215.146 267.94 214.458 267.94C213.432 267.94 212.524 267.185 212.524 265.955C212.524 264.614 213.432 263.885 214.467 263.885C215.12 263.885 215.595 264.173 215.875 264.589H215.892V263.961H216.698V267.142ZM214.637 267.278C215.443 267.278 215.918 266.676 215.918 265.929C215.918 265.123 215.443 264.538 214.637 264.538C213.831 264.538 213.356 265.132 213.356 265.929C213.356 266.676 213.831 267.278 214.637 267.278Z" fill="#3C3E3E"/>
<path d="M208.207 263.961H209.021L209.013 264.648C209.233 264.173 209.751 263.885 210.268 263.885C211.414 263.885 211.71 264.64 211.71 265.607V267.99H210.896V265.743C210.896 265.064 210.777 264.555 210.056 264.555C209.301 264.555 209.021 265.191 209.021 265.963V267.99H208.207V263.961Z" fill="#3C3E3E"/>
<path d="M206.108 262.638C206.108 262.349 206.329 262.137 206.643 262.137C206.948 262.137 207.169 262.349 207.169 262.638C207.169 262.926 206.948 263.138 206.643 263.138C206.329 263.138 206.108 262.926 206.108 262.638ZM206.236 263.961H207.05V267.991H206.236V263.961Z" fill="#3C3E3E"/>
<path d="M205.527 267.948C205.315 268.041 205.069 268.084 204.789 268.084C204.365 268.084 204.102 267.923 203.932 267.668C203.762 267.414 203.729 267.1 203.729 266.464V264.623H203.135V263.97H203.729V262.765H204.543V263.97H205.51V264.623H204.543V266.447C204.543 266.786 204.543 267.023 204.645 267.185C204.713 267.32 204.831 267.388 205.06 267.388C205.298 267.388 205.476 267.295 205.476 267.295L205.527 267.948Z" fill="#3C3E3E"/>
<path d="M202.598 267.448C202.548 267.49 202.03 268.084 200.826 268.084C199.629 268.084 198.807 267.252 198.807 265.972C198.807 264.699 199.731 263.885 200.851 263.885C201.971 263.885 202.76 264.682 202.76 265.81C202.76 265.963 202.734 266.167 202.734 266.167H199.629C199.672 266.964 200.181 267.448 200.927 267.448C201.682 267.448 202.166 267.04 202.259 266.981L202.598 267.448ZM201.988 265.624C201.979 265.174 201.64 264.47 200.826 264.47C200.02 264.47 199.663 265.14 199.638 265.624H201.988Z" fill="#3C3E3E"/>
<path d="M197.106 262.137H197.912V267.991H197.106V262.137Z" fill="#3C3E3E"/>
<path d="M192.045 263.961H192.825V264.597C193.182 264.122 193.682 263.885 194.276 263.885C195.464 263.885 196.218 264.775 196.218 265.972C196.218 267.168 195.455 268.084 194.259 268.084C193.623 268.084 193.156 267.812 192.868 267.363L192.859 268.177V269.568H192.045V263.961ZM194.106 267.388C194.912 267.388 195.387 266.769 195.387 265.963C195.387 265.157 194.912 264.546 194.106 264.546C193.3 264.546 192.825 265.157 192.825 265.963C192.825 266.769 193.3 267.388 194.106 267.388Z" fill="#3C3E3E"/>
<path d="M185.085 263.961H185.899L185.891 264.597H185.916C186.103 264.224 186.544 263.885 187.078 263.885C187.672 263.885 188.088 264.156 188.275 264.682C188.546 264.173 188.987 263.885 189.555 263.885C190.633 263.885 190.921 264.674 190.921 265.547V267.99H190.115V265.641C190.115 265.174 190.03 264.555 189.377 264.555C188.733 264.555 188.41 265.174 188.41 265.895V267.99H187.596V265.641C187.596 265.047 187.452 264.555 186.866 264.555C186.222 264.555 185.899 265.174 185.899 265.895V267.99H185.085V263.961Z" fill="#3C3E3E"/>
<path d="M179.968 265.989C179.968 264.742 180.901 263.885 182.105 263.885C183.302 263.885 184.235 264.742 184.235 265.989C184.235 267.244 183.302 268.084 182.105 268.084C180.901 268.084 179.968 267.244 179.968 265.989ZM182.105 267.388C182.911 267.388 183.412 266.76 183.412 265.963C183.412 265.174 182.911 264.546 182.105 264.546C181.291 264.546 180.791 265.174 180.791 265.963C180.791 266.76 181.291 267.388 182.105 267.388Z" fill="#3C3E3E"/>
<path d="M179.589 267.473C179.589 267.473 179.131 268.084 177.977 268.084C176.891 268.084 175.941 267.269 175.941 265.98C175.941 264.682 176.934 263.885 178.003 263.885C179.08 263.885 179.521 264.411 179.564 264.462L179.275 265.055C179.139 264.92 178.783 264.563 178.071 264.563C177.358 264.563 176.764 265.106 176.764 265.955C176.764 266.803 177.29 267.388 178.071 267.388C178.86 267.388 179.301 266.879 179.301 266.879L179.589 267.473Z" fill="#3C3E3E"/>
<path d="M169.504 262.137H170.31V264.165C170.31 264.275 170.301 264.487 170.301 264.631C170.598 264.131 171.124 263.885 171.735 263.885C172.914 263.885 173.677 264.784 173.677 265.972C173.677 267.168 172.914 268.084 171.718 268.084C171.133 268.084 170.632 267.846 170.301 267.354H170.284V267.991H169.504V262.137ZM171.565 267.388C172.371 267.388 172.846 266.769 172.846 265.963C172.846 265.157 172.371 264.546 171.565 264.546C170.759 264.546 170.276 265.157 170.276 265.963C170.276 266.769 170.759 267.388 171.565 267.388Z" fill="#3C3E3E"/>
<path d="M164.344 265.989C164.344 264.742 165.277 263.885 166.481 263.885C167.678 263.885 168.611 264.742 168.611 265.989C168.611 267.244 167.678 268.084 166.481 268.084C165.277 268.084 164.344 267.244 164.344 265.989ZM166.481 267.388C167.287 267.388 167.788 266.76 167.788 265.963C167.788 265.174 167.287 264.546 166.481 264.546C165.667 264.546 165.167 265.174 165.167 265.963C165.167 266.76 165.667 267.388 166.481 267.388Z" fill="#3C3E3E"/>
<path d="M162.518 262.638C162.518 262.349 162.738 262.137 163.052 262.137C163.357 262.137 163.578 262.349 163.578 262.638C163.578 262.926 163.357 263.138 163.052 263.138C162.738 263.138 162.518 262.926 162.518 262.638ZM161.686 268.941C161.686 268.941 161.856 269 162.068 269C162.594 269 162.645 268.533 162.645 267.974V263.961H163.459V267.999C163.459 268.466 163.391 268.89 163.162 269.204C163.01 269.416 162.713 269.653 162.187 269.653C161.856 269.653 161.678 269.585 161.678 269.585L161.686 268.941Z" fill="#3C3E3E"/>
<path d="M160.247 267.948C160.035 268.041 159.789 268.084 159.509 268.084C159.085 268.084 158.822 267.923 158.652 267.668C158.482 267.414 158.448 267.1 158.448 266.464V264.623H157.854V263.97H158.448V262.765H159.263V263.97H160.23V264.623H159.263V266.447C159.263 266.786 159.263 267.023 159.364 267.185C159.432 267.32 159.551 267.388 159.78 267.388C160.018 267.388 160.196 267.295 160.196 267.295L160.247 267.948Z" fill="#3C3E3E"/>
<path d="M156.445 267.481C156.283 267.651 155.902 268.084 155.164 268.084C154.417 268.084 153.772 267.617 153.772 266.837C153.772 266.048 154.417 265.649 155.35 265.607L156.428 265.564V265.403C156.428 264.792 156.012 264.487 155.427 264.487C154.841 264.487 154.349 264.75 154.214 264.835L153.968 264.292C154.264 264.122 154.807 263.885 155.478 263.885C156.148 263.885 156.538 264.071 156.809 264.343C157.081 264.623 157.242 264.962 157.242 265.649V267.99H156.453L156.445 267.481ZM155.494 266.116C154.841 266.15 154.578 266.43 154.578 266.811C154.578 267.193 154.875 267.507 155.41 267.507C155.936 267.507 156.283 267.151 156.436 266.922V266.056L155.494 266.116Z" fill="#3C3E3E"/>
<path d="M153.059 267.448C153.009 267.49 152.491 268.084 151.286 268.084C150.09 268.084 149.268 267.252 149.268 265.972C149.268 264.699 150.192 263.885 151.312 263.885C152.432 263.885 153.221 264.682 153.221 265.81C153.221 265.963 153.195 266.167 153.195 266.167H150.09C150.133 266.964 150.642 267.448 151.388 267.448C152.143 267.448 152.627 267.04 152.72 266.981L153.059 267.448ZM152.449 265.624C152.44 265.174 152.101 264.47 151.286 264.47C150.481 264.47 150.124 265.14 150.099 265.624H152.449Z" fill="#3C3E3E"/>
<path d="M146.738 263.961H147.553L147.544 264.58H147.57C147.765 264.122 148.129 263.885 148.562 263.885C148.834 263.885 148.986 263.953 148.986 263.953L148.935 264.708H148.901C148.825 264.674 148.681 264.623 148.46 264.623C148.104 264.623 147.883 264.852 147.799 264.962C147.722 265.072 147.553 265.386 147.553 265.98V267.99H146.738V263.961Z" fill="#3C3E3E"/>
<path d="M143.252 264.869H145.627V267.142C145.516 267.252 144.804 268.092 143.141 268.092C141.47 268.092 140.155 266.888 140.155 265.064C140.155 263.24 141.47 262.052 143.133 262.052C144.634 262.052 145.279 262.841 145.499 263.07L144.94 263.588C144.592 263.181 144.049 262.757 143.133 262.757C141.928 262.757 141.004 263.622 141.004 265.064C141.004 266.506 141.962 267.371 143.184 267.371C144.397 267.371 144.829 266.837 144.829 266.837V265.539H143.252V264.869Z" fill="#3C3E3E"/>
<path d="M136.312 267.549C136.312 267.219 136.55 267.015 136.881 267.015C137.203 267.015 137.441 267.219 137.441 267.549C137.441 267.872 137.203 268.075 136.881 268.075C136.55 268.075 136.312 267.872 136.312 267.549Z" fill="#3C3E3E"/>
<path d="M131.555 262.137H132.361V264.597H132.378C132.59 264.199 133.031 263.885 133.616 263.885C134.778 263.885 135.058 264.631 135.058 265.59V267.991H134.244V265.709C134.244 265.132 134.15 264.555 133.412 264.555C132.674 264.555 132.361 265.191 132.361 265.997V267.991H131.555V262.137Z" fill="#3C3E3E"/>
<path d="M130.386 267.142C130.386 268.033 130.242 268.525 129.945 268.881C129.648 269.246 129.148 269.653 128.147 269.653C127.154 269.653 126.467 269.136 126.349 269.051L126.73 268.482C126.942 268.669 127.57 268.991 128.172 268.991C128.775 268.991 129.114 268.754 129.275 268.55C129.436 268.355 129.581 267.974 129.581 267.422V267.202C129.292 267.626 128.834 267.94 128.147 267.94C127.121 267.94 126.213 267.185 126.213 265.955C126.213 264.614 127.121 263.885 128.155 263.885C128.809 263.885 129.284 264.173 129.564 264.589H129.581V263.961H130.386V267.142ZM128.325 267.278C129.131 267.278 129.606 266.676 129.606 265.929C129.606 265.123 129.131 264.538 128.325 264.538C127.519 264.538 127.044 265.132 127.044 265.929C127.044 266.676 127.519 267.278 128.325 267.278Z" fill="#3C3E3E"/>
<path d="M124.566 267.414C124.345 267.804 123.887 268.084 123.319 268.084C122.742 268.084 122.411 267.889 122.199 267.617C121.996 267.346 121.902 266.947 121.902 266.37V263.953H122.708V266.336C122.708 266.888 122.827 267.405 123.548 267.405C124.261 267.405 124.549 266.794 124.549 266.116V263.953H125.363V267.99H124.574L124.566 267.414Z" fill="#3C3E3E"/>
<path d="M116.819 265.989C116.819 264.742 117.752 263.885 118.957 263.885C120.153 263.885 121.086 264.742 121.086 265.989C121.086 267.244 120.153 268.084 118.957 268.084C117.752 268.084 116.819 267.244 116.819 265.989ZM118.957 267.388C119.763 267.388 120.263 266.76 120.263 265.963C120.263 265.174 119.763 264.546 118.957 264.546C118.143 264.546 117.642 265.174 117.642 265.963C117.642 266.76 118.143 267.388 118.957 267.388Z" fill="#3C3E3E"/>
<path d="M116.416 267.948C116.204 268.041 115.958 268.084 115.678 268.084C115.253 268.084 114.99 267.923 114.821 267.668C114.651 267.414 114.617 267.1 114.617 266.464V264.623H114.023V263.97H114.617V262.765H115.432V263.97H116.399V264.623H115.432V266.447C115.432 266.786 115.432 267.023 115.533 267.185C115.601 267.32 115.72 267.388 115.949 267.388C116.187 267.388 116.365 267.295 116.365 267.295L116.416 267.948Z" fill="#3C3E3E"/>
<path d="M111.796 267.448C111.745 267.49 111.227 268.084 110.023 268.084C108.827 268.084 108.004 267.252 108.004 265.972C108.004 264.699 108.929 263.885 110.048 263.885C111.168 263.885 111.957 264.682 111.957 265.81C111.957 265.963 111.931 266.167 111.931 266.167H108.827C108.869 266.964 109.378 267.448 110.125 267.448C110.88 267.448 111.363 267.04 111.456 266.981L111.796 267.448ZM111.185 265.624C111.177 265.174 110.837 264.47 110.023 264.47C109.217 264.47 108.861 265.14 108.835 265.624H111.185Z" fill="#3C3E3E"/>
<path d="M103.257 262.137H104.063V264.165C104.063 264.275 104.054 264.487 104.054 264.631C104.351 264.131 104.877 263.885 105.488 263.885C106.667 263.885 107.43 264.784 107.43 265.972C107.43 267.168 106.667 268.084 105.471 268.084C104.886 268.084 104.385 267.846 104.054 267.354H104.037V267.991H103.257V262.137ZM105.318 267.388C106.124 267.388 106.599 266.769 106.599 265.963C106.599 265.157 106.124 264.546 105.318 264.546C104.512 264.546 104.029 265.157 104.029 265.963C104.029 266.769 104.512 267.388 105.318 267.388Z" fill="#3C3E3E"/>
<path d="M96.9346 263.961H97.7489L97.7404 264.648C97.961 264.173 98.4785 263.885 98.9959 263.885C100.141 263.885 100.438 264.64 100.438 265.607V267.99H99.6236V265.743C99.6236 265.064 99.5049 264.555 98.7838 264.555C98.0289 264.555 97.7489 265.191 97.7489 265.963V267.99H96.9346V263.961Z" fill="#3C3E3E"/>
<path d="M95.093 267.481C94.9318 267.651 94.5501 268.084 93.8121 268.084C93.0656 268.084 92.4209 267.617 92.4209 266.837C92.4209 266.048 93.0656 265.649 93.9987 265.607L95.076 265.564V265.403C95.076 264.792 94.6604 264.487 94.0751 264.487C93.4897 264.487 92.9977 264.75 92.862 264.835L92.616 264.292C92.9129 264.122 93.4558 263.885 94.126 263.885C94.7961 263.885 95.1863 264.071 95.4578 264.343C95.7292 264.623 95.8904 264.962 95.8904 265.649V267.99H95.1015L95.093 267.481ZM94.1429 266.116C93.4897 266.15 93.2268 266.43 93.2268 266.811C93.2268 267.193 93.5237 267.507 94.0581 267.507C94.584 267.507 94.9318 267.151 95.0845 266.922V266.056L94.1429 266.116Z" fill="#3C3E3E"/>
<path d="M91.9445 267.473C91.9445 267.473 91.4864 268.084 90.3328 268.084C89.247 268.084 88.2969 267.269 88.2969 265.98C88.2969 264.682 89.2894 263.885 90.3582 263.885C91.4355 263.885 91.8766 264.411 91.9191 264.462L91.6306 265.055C91.4949 264.92 91.1386 264.563 90.4261 264.563C89.7135 264.563 89.1197 265.106 89.1197 265.955C89.1197 266.803 89.6456 267.388 90.4261 267.388C91.215 267.388 91.6561 266.879 91.6561 266.879L91.9445 267.473Z" fill="#3C3E3E"/>
<path d="M83.3658 266.888V266.896C83.7051 267.252 84.1802 267.473 84.5534 267.473C84.9266 267.473 85.3253 267.337 85.3253 266.896C85.3253 266.497 84.8503 266.37 84.4177 266.226L84.2395 266.167C83.6966 265.988 83.2301 265.692 83.2301 265.047C83.2301 264.3 83.8748 263.893 84.5873 263.893C85.2999 263.893 85.7071 264.148 85.9616 264.419L85.6222 264.92C85.3847 264.674 84.9945 264.487 84.6043 264.487C84.2141 264.487 83.9596 264.657 83.9596 264.987C83.9596 265.318 84.3498 265.463 84.7485 265.59L85.2914 265.785C85.741 265.971 86.0803 266.285 86.0803 266.811C86.0803 267.685 85.3593 268.084 84.5449 268.084C83.8663 268.084 83.3149 267.804 82.9756 267.363L83.3658 266.888Z" fill="#3C3E3E"/>
<path d="M82.691 267.948C82.4789 268.041 82.2329 268.084 81.953 268.084C81.5288 268.084 81.2659 267.923 81.0962 267.668C80.9266 267.414 80.8926 267.1 80.8926 266.464V264.623H80.2988V263.97H80.8926V262.765H81.707V263.97H82.674V264.623H81.707V266.447C81.707 266.786 81.707 267.023 81.8088 267.185C81.8766 267.32 81.9954 267.388 82.2244 267.388C82.462 267.388 82.6401 267.295 82.6401 267.295L82.691 267.948Z" fill="#3C3E3E"/>
<path d="M75.7129 262.137H76.5188V264.165C76.5188 264.275 76.5103 264.487 76.5103 264.631C76.8072 264.131 77.3331 263.885 77.9439 263.885C79.123 263.885 79.8865 264.784 79.8865 265.972C79.8865 267.168 79.123 268.084 77.9269 268.084C77.3416 268.084 76.8411 267.846 76.5103 267.354H76.4933V267.991H75.7129V262.137ZM77.7742 267.388C78.5801 267.388 79.0551 266.769 79.0551 265.963C79.0551 265.157 78.5801 264.546 77.7742 264.546C76.9684 264.546 76.4848 265.157 76.4848 265.963C76.4848 266.769 76.9684 267.388 77.7742 267.388Z" fill="#3C3E3E"/>
<path d="M74.7 267.448C74.6491 267.49 74.1317 268.084 72.9271 268.084C71.731 268.084 70.9082 267.252 70.9082 265.972C70.9082 264.699 71.8328 263.885 72.9526 263.885C74.0723 263.885 74.8612 264.682 74.8612 265.81C74.8612 265.963 74.8358 266.167 74.8358 266.167H71.731C71.7735 266.964 72.2824 267.448 73.0289 267.448C73.7839 267.448 74.2674 267.04 74.3607 266.981L74.7 267.448ZM74.0893 265.624C74.0808 265.174 73.7415 264.47 72.9271 264.47C72.1213 264.47 71.765 265.14 71.7395 265.624H74.0893Z" fill="#3C3E3E"/>
<path d="M69.2408 267.991V267.346C68.91 267.838 68.3925 268.084 67.8072 268.084C66.6111 268.084 65.8477 267.168 65.8477 265.972C65.8477 264.784 66.6111 263.885 67.7902 263.885C68.4434 263.885 68.9185 264.173 69.1984 264.589H69.2154V262.137H70.0212V267.991H69.2408ZM67.9599 267.388C68.7658 267.388 69.2408 266.769 69.2408 265.963C69.2408 265.157 68.7658 264.546 67.9599 264.546C67.154 264.546 66.679 265.157 66.679 265.963C66.679 266.769 67.154 267.388 67.9599 267.388Z" fill="#3C3E3E"/>
<path d="M63.3025 267.142C63.3025 268.033 63.1583 268.525 62.8614 268.881C62.5645 269.246 62.064 269.653 61.063 269.653C60.0705 269.653 59.3834 269.136 59.2646 269.051L59.6464 268.482C59.8584 268.669 60.4862 268.991 61.0884 268.991C61.6907 268.991 62.03 268.754 62.1912 268.55C62.3524 268.355 62.4966 267.974 62.4966 267.422V267.202C62.2082 267.626 61.7501 267.94 61.063 267.94C60.0366 267.94 59.1289 267.185 59.1289 265.955C59.1289 264.614 60.0366 263.885 61.0715 263.885C61.7247 263.885 62.1997 264.173 62.4796 264.589H62.4966V263.961H63.3025V267.142ZM61.2411 267.278C62.047 267.278 62.5221 266.676 62.5221 265.929C62.5221 265.123 62.047 264.538 61.2411 264.538C60.4353 264.538 59.9602 265.132 59.9602 265.929C59.9602 266.676 60.4353 267.278 61.2411 267.278Z" fill="#3C3E3E"/>
<path d="M54.8105 263.961H55.6249L55.6164 264.648C55.837 264.173 56.3544 263.885 56.8719 263.885C58.0171 263.885 58.314 264.64 58.314 265.607V267.99H57.4996V265.743C57.4996 265.064 57.3809 264.555 56.6598 264.555C55.9048 264.555 55.6249 265.191 55.6249 265.963V267.99H54.8105V263.961Z" fill="#3C3E3E"/>
<path d="M52.7129 262.638C52.7129 262.349 52.9334 262.137 53.2473 262.137C53.5527 262.137 53.7732 262.349 53.7732 262.638C53.7732 262.926 53.5527 263.138 53.2473 263.138C52.9334 263.138 52.7129 262.926 52.7129 262.638ZM52.8401 263.961H53.6545V267.991H52.8401V263.961Z" fill="#3C3E3E"/>
<path d="M52.1314 267.948C51.9194 268.041 51.6734 268.084 51.3934 268.084C50.9693 268.084 50.7063 267.923 50.5366 267.668C50.367 267.414 50.3331 267.1 50.3331 266.464V264.623H49.7393V263.97H50.3331V262.765H51.1474V263.97H52.1145V264.623H51.1474V266.447C51.1474 266.786 51.1474 267.023 51.2492 267.185C51.3171 267.32 51.4358 267.388 51.6649 267.388C51.9024 267.388 52.0805 267.295 52.0805 267.295L52.1314 267.948Z" fill="#3C3E3E"/>
<path d="M46.6588 266.888V266.896C46.9981 267.253 47.4731 267.473 47.8464 267.473C48.2196 267.473 48.6183 267.337 48.6183 266.896C48.6183 266.498 48.1433 266.37 47.7106 266.226L47.5325 266.167C46.9896 265.989 46.523 265.692 46.523 265.047C46.523 264.3 47.1677 263.893 47.8803 263.893C48.5929 263.893 49 264.148 49.2545 264.419L48.9152 264.92C48.6777 264.674 48.2875 264.487 47.8973 264.487C47.5071 264.487 47.2526 264.657 47.2526 264.988C47.2526 265.318 47.6428 265.463 48.0415 265.59L48.5844 265.785C49.034 265.972 49.3733 266.285 49.3733 266.811C49.3733 267.685 48.6522 268.084 47.8379 268.084C47.1593 268.084 46.6079 267.804 46.2686 267.363L46.6588 266.888Z" fill="#3C3E3E"/>
<path d="M44.5615 262.638C44.5615 262.349 44.7821 262.137 45.0959 262.137C45.4013 262.137 45.6219 262.349 45.6219 262.638C45.6219 262.926 45.4013 263.138 45.0959 263.138C44.7821 263.138 44.5615 262.926 44.5615 262.638ZM44.6888 263.961H45.5031V267.991H44.6888V263.961Z" fill="#3C3E3E"/>
<path d="M41.0859 262.137H41.9088V267.295H43.9701V267.991H41.0859V262.137Z" fill="#3C3E3E"/>
<g clip-path="url(#clip2_6290_207219)">
<rect width="19.6331" height="7.36241" transform="translate(71.2656 287.279)" fill="#BED73C"/>
</g>
<path d="M74.9468 287.586H87.2175C89.0812 287.586 90.592 289.096 90.592 290.96C90.592 292.824 89.0812 294.334 87.2175 294.334H74.9468C73.0832 294.334 71.5724 292.824 71.5724 290.96C71.5724 289.096 73.0832 287.586 74.9468 287.586Z" stroke="#004357" stroke-width="0.613535"/>
<g clip-path="url(#clip3_6290_207219)">
<rect width="19.6331" height="7.36241" transform="translate(93.3525 287.279)" fill="#BED73C"/>
</g>
<path d="M97.0337 287.586H109.304C111.168 287.586 112.679 289.096 112.679 290.96C112.679 292.824 111.168 294.334 109.304 294.334H97.0337C95.1701 294.334 93.6593 292.824 93.6593 290.96C93.6593 289.096 95.1701 287.586 97.0337 287.586Z" stroke="#004357" stroke-width="0.613535"/>
<g clip-path="url(#clip4_6290_207219)">
<rect width="19.6331" height="7.36241" transform="translate(115.44 287.279)" fill="#BED73C"/>
</g>
<path d="M119.122 287.586H131.392C133.256 287.586 134.767 289.096 134.767 290.96C134.767 292.824 133.256 294.334 131.392 294.334H119.122C117.258 294.334 115.747 292.824 115.747 290.96C115.747 289.096 117.258 287.586 119.122 287.586Z" stroke="#004357" stroke-width="0.613535"/>
<g clip-path="url(#clip5_6290_207219)">
<rect width="19.6331" height="7.36241" transform="translate(137.527 287.279)" fill="#BED73C"/>
</g>
<path d="M141.209 287.586H153.479C155.343 287.586 156.854 289.096 156.854 290.96C156.854 292.824 155.343 294.334 153.479 294.334H141.209C139.345 294.334 137.834 292.824 137.834 290.96C137.834 289.096 139.345 287.586 141.209 287.586Z" stroke="#004357" stroke-width="0.613535"/>
<g clip-path="url(#clip6_6290_207219)">
<rect width="7.36241" height="7.36241" transform="translate(159.614 287.279)" fill="#BED73C"/>
</g>
<path d="M163.295 287.586H175.566C177.43 287.586 178.941 289.096 178.941 290.96C178.941 292.824 177.43 294.334 175.566 294.334H163.295C161.432 294.334 159.921 292.824 159.921 290.96C159.921 289.096 161.432 287.586 163.295 287.586Z" stroke="#004357" stroke-width="0.613535"/>
<g clip-path="url(#clip7_6290_207219)">
</g>
<path d="M185.383 287.585H197.654C199.518 287.585 201.028 289.096 201.028 290.96C201.028 292.824 199.518 294.334 197.654 294.334H185.383C183.52 294.334 182.009 292.824 182.009 290.96C182.009 289.096 183.52 287.585 185.383 287.585Z" stroke="#004357" stroke-width="0.613535"/>
</g>
<path d="M42.9079 296.884C43.2664 296.729 43.6823 296.895 43.8368 297.253L46.3545 303.096C46.509 303.455 46.3436 303.871 45.985 304.025C45.6265 304.18 45.2106 304.014 45.0561 303.656L42.8182 298.462L37.6246 300.7C37.266 300.854 36.8501 300.689 36.6956 300.33C36.5411 299.972 36.7065 299.556 37.0651 299.401L42.9079 296.884ZM43.8445 297.794C36.9384 315.158 41.1857 328.097 49.4204 336.275C57.7097 344.506 70.0842 347.963 79.4798 346.202L79.7403 347.591C69.8727 349.441 57.0323 345.826 48.4242 337.278C39.7616 328.676 35.4293 315.127 42.5308 297.272L43.8445 297.794Z" fill="#004357"/>
<path d="M37.3711 56.3156C37.3711 54.6977 38.6826 53.3862 40.3004 53.3862H223.855C225.473 53.3862 226.785 54.6977 226.785 56.3156V76.6466C226.785 78.2645 225.473 79.576 223.855 79.576H40.3004C38.6826 79.576 37.3711 78.2645 37.3711 76.6466V56.3156Z" fill="white" stroke="#004357" stroke-width="0.530179"/>
<path d="M46.3475 65.4377C45.7643 65.4377 45.2871 65.9149 45.2871 66.4981C45.2871 67.0813 45.7643 67.5585 46.3475 67.5585C46.9307 67.5585 47.4078 67.0813 47.4078 66.4981C47.4078 65.9149 46.9307 65.4377 46.3475 65.4377ZM52.7096 65.4377C52.1264 65.4377 51.6493 65.9149 51.6493 66.4981C51.6493 67.0813 52.1264 67.5585 52.7096 67.5585C53.2928 67.5585 53.77 67.0813 53.77 66.4981C53.77 65.9149 53.2928 65.4377 52.7096 65.4377ZM49.5285 65.4377C48.9453 65.4377 48.4682 65.9149 48.4682 66.4981C48.4682 67.0813 48.9453 67.5585 49.5285 67.5585C50.1117 67.5585 50.5889 67.0813 50.5889 66.4981C50.5889 65.9149 50.1117 65.4377 49.5285 65.4377Z" fill="#3C3E3E"/>
<path d="M41.9424 82.2206C41.9424 80.6028 43.2539 79.2913 44.8717 79.2913H228.427C230.045 79.2913 231.356 80.6028 231.356 82.2206V103.509C231.356 105.127 230.045 106.438 228.427 106.438H44.8717C43.2539 106.438 41.9424 105.127 41.9424 103.509V82.2206Z" fill="white" stroke="#004357" stroke-width="0.530179"/>
<path d="M50.5887 91.9468C50.0055 91.9468 49.5283 92.4239 49.5283 93.0071C49.5283 93.5903 50.0055 94.0675 50.5887 94.0675C51.1719 94.0675 51.649 93.5903 51.649 93.0071C51.649 92.4239 51.1719 91.9468 50.5887 91.9468ZM56.9508 91.9468C56.3676 91.9468 55.8905 92.4239 55.8905 93.0071C55.8905 93.5903 56.3676 94.0675 56.9508 94.0675C57.534 94.0675 58.0112 93.5903 58.0112 93.0071C58.0112 92.4239 57.534 91.9468 56.9508 91.9468ZM53.7698 91.9468C53.1866 91.9468 52.7094 92.4239 52.7094 93.0071C52.7094 93.5903 53.1866 94.0675 53.7698 94.0675C54.3529 94.0675 54.8301 93.5903 54.8301 93.0071C54.8301 92.4239 54.3529 91.9468 53.7698 91.9468Z" fill="white"/>
<path d="M37.3711 108.887C37.3711 107.269 38.6826 105.958 40.3004 105.958H223.855C225.473 105.958 226.785 107.269 226.785 108.887V130.175C226.785 131.793 225.473 133.105 223.855 133.105H40.3004C38.6826 133.105 37.3711 131.793 37.3711 130.175V108.887Z" fill="white" stroke="#004357" stroke-width="0.530179"/>
<path d="M46.3475 118.456C45.7643 118.456 45.2871 118.933 45.2871 119.516C45.2871 120.099 45.7643 120.576 46.3475 120.576C46.9307 120.576 47.4078 120.099 47.4078 119.516C47.4078 118.933 46.9307 118.456 46.3475 118.456ZM52.7096 118.456C52.1264 118.456 51.6493 118.933 51.6493 119.516C51.6493 120.099 52.1264 120.576 52.7096 120.576C53.2928 120.576 53.77 120.099 53.77 119.516C53.77 118.933 53.2928 118.456 52.7096 118.456ZM49.5285 118.456C48.9453 118.456 48.4682 118.933 48.4682 119.516C48.4682 120.099 48.9453 120.576 49.5285 120.576C50.1117 120.576 50.5889 120.099 50.5889 119.516C50.5889 118.933 50.1117 118.456 49.5285 118.456Z" fill="#3C3E3E"/>
<path d="M41.9424 135.553C41.9424 133.936 43.2539 132.624 44.8717 132.624H228.427C230.045 132.624 231.356 133.936 231.356 135.553V156.842C231.356 158.46 230.045 159.771 228.427 159.771H44.8717C43.2539 159.771 41.9424 158.46 41.9424 156.842V135.553Z" fill="white" stroke="#004357" stroke-width="0.530179"/>
<path d="M50.5887 144.965C50.0055 144.965 49.5283 145.442 49.5283 146.025C49.5283 146.608 50.0055 147.085 50.5887 147.085C51.1719 147.085 51.649 146.608 51.649 146.025C51.649 145.442 51.1719 144.965 50.5887 144.965ZM56.9508 144.965C56.3676 144.965 55.8905 145.442 55.8905 146.025C55.8905 146.608 56.3676 147.085 56.9508 147.085C57.534 147.085 58.0112 146.608 58.0112 146.025C58.0112 145.442 57.534 144.965 56.9508 144.965ZM53.7698 144.965C53.1866 144.965 52.7094 145.442 52.7094 146.025C52.7094 146.608 53.1866 147.085 53.7698 147.085C54.3529 147.085 54.8301 146.608 54.8301 146.025C54.8301 145.442 54.3529 144.965 53.7698 144.965Z" fill="#3C3E3E"/>
<defs>
<clipPath id="clip0_6290_207219">
<rect width="39.5867" height="39.5867" fill="white" transform="translate(198.912 159.962)"/>
</clipPath>
<clipPath id="clip1_6290_207219">
<path d="M32.0322 236.582C32.0322 234.71 33.5499 233.192 35.4221 233.192H237.179C239.052 233.192 240.569 234.71 240.569 236.582V305.692C240.569 307.565 239.052 309.082 237.179 309.082H35.4221C33.5499 309.082 32.0322 307.565 32.0322 305.692V236.582Z" fill="white"/>
</clipPath>
<clipPath id="clip2_6290_207219">
<path d="M71.2656 290.96C71.2656 288.927 72.9138 287.279 74.9468 287.279H87.2175C89.2506 287.279 90.8987 288.927 90.8987 290.96V290.96C90.8987 292.993 89.2506 294.641 87.2175 294.641H74.9468C72.9138 294.641 71.2656 292.993 71.2656 290.96V290.96Z" fill="white"/>
</clipPath>
<clipPath id="clip3_6290_207219">
<path d="M93.3525 290.96C93.3525 288.927 95.0007 287.279 97.0337 287.279H109.304C111.338 287.279 112.986 288.927 112.986 290.96V290.96C112.986 292.993 111.338 294.641 109.304 294.641H97.0337C95.0007 294.641 93.3525 292.993 93.3525 290.96V290.96Z" fill="white"/>
</clipPath>
<clipPath id="clip4_6290_207219">
<path d="M115.44 290.96C115.44 288.927 117.089 287.279 119.122 287.279H131.392C133.425 287.279 135.074 288.927 135.074 290.96V290.96C135.074 292.993 133.425 294.641 131.392 294.641H119.122C117.089 294.641 115.44 292.993 115.44 290.96V290.96Z" fill="white"/>
</clipPath>
<clipPath id="clip5_6290_207219">
<path d="M137.527 290.96C137.527 288.927 139.175 287.279 141.209 287.279H153.479C155.512 287.279 157.16 288.927 157.16 290.96V290.96C157.16 292.993 155.512 294.641 153.479 294.641H141.209C139.175 294.641 137.527 292.993 137.527 290.96V290.96Z" fill="white"/>
</clipPath>
<clipPath id="clip6_6290_207219">
<path d="M159.614 290.96C159.614 288.927 161.262 287.279 163.295 287.279H175.566C177.599 287.279 179.247 288.927 179.247 290.96V290.96C179.247 292.993 177.599 294.641 175.566 294.641H163.295C161.262 294.641 159.614 292.993 159.614 290.96V290.96Z" fill="white"/>
</clipPath>
<clipPath id="clip7_6290_207219">
<path d="M181.702 290.96C181.702 288.927 183.35 287.279 185.383 287.279H197.654C199.687 287.279 201.335 288.927 201.335 290.96V290.96C201.335 292.993 199.687 294.641 197.654 294.641H185.383C183.35 294.641 181.702 292.993 181.702 290.96V290.96Z" fill="white"/>
</clipPath>
</defs>
</svg>
