<svg width="320" height="404" viewBox="0 0 320 404" fill="none" xmlns="http://www.w3.org/2000/svg">
<path d="M32.2141 87.1037C32.39 87.4522 32.25 87.8773 31.9015 88.0532L26.2214 90.9193C25.8729 91.0952 25.4477 90.9552 25.2719 90.6066C25.096 90.2581 25.236 89.8329 25.5845 89.6571L30.6334 87.1094L28.0858 82.0605C27.91 81.712 28.0499 81.2868 28.3985 81.111C28.7471 80.9351 29.1722 81.0751 29.3481 81.4236L32.2141 87.1037ZM9.27793 36.4577C3.60072 44.8015 1.20476 54.7138 4.1804 63.8233C7.15067 72.9165 15.5346 81.3936 31.8041 86.7507L31.3619 88.0935C14.814 82.6448 5.98882 73.9129 2.83647 64.2623C-0.310511 54.6282 2.25744 44.2624 8.10903 35.6624L9.27793 36.4577Z" fill="#004357"/>
<path d="M244.834 272.545L263.257 272.545C266.38 272.545 268.912 270.013 268.912 266.89L268.912 239.906" stroke="#BED73C" stroke-width="1.41381" stroke-linecap="round" stroke-linejoin="round" stroke-dasharray="2.83 2.83"/>
<path d="M228.951 114.516L253.533 114.516C256.657 114.516 259.188 117.048 259.188 120.171L259.188 149.833" stroke="#BED73C" stroke-width="1.41381" stroke-linecap="round" stroke-linejoin="round" stroke-dasharray="2.83 2.83"/>
<path d="M184.8 211.153C185.176 211.046 185.567 211.263 185.674 211.639L187.417 217.758C187.524 218.133 187.306 218.524 186.93 218.631C186.555 218.738 186.164 218.52 186.057 218.145L184.508 212.706L179.069 214.255C178.693 214.362 178.302 214.145 178.195 213.769C178.088 213.394 178.306 213.002 178.682 212.896L184.8 211.153ZM143.672 216.998C160.612 229.876 178.354 222.308 184.376 211.489L185.612 212.176C179.19 223.713 160.472 231.546 142.816 218.124L143.672 216.998Z" fill="#004357"/>
<path d="M42.9089 296.884C43.2674 296.729 43.6833 296.895 43.8378 297.253L46.3554 303.096C46.5099 303.455 46.3445 303.871 45.986 304.025C45.6274 304.18 45.2115 304.014 45.057 303.656L42.8191 298.462L37.6255 300.7C37.267 300.854 36.8511 300.689 36.6966 300.331C36.5421 299.972 36.7075 299.556 37.0661 299.402L42.9089 296.884ZM43.8455 297.794C36.9394 315.158 41.1867 328.097 49.4214 336.275C57.7106 344.507 70.0852 347.963 79.4808 346.202L79.7413 347.591C69.8737 349.442 57.0333 345.826 48.4252 337.278C39.7626 328.676 35.4303 315.127 42.5317 297.272L43.8455 297.794Z" fill="#004357"/>
<path d="M46.3475 65.4377C45.7643 65.4377 45.2871 65.9149 45.2871 66.4981C45.2871 67.0813 45.7643 67.5585 46.3475 67.5585C46.9307 67.5585 47.4078 67.0813 47.4078 66.4981C47.4078 65.9149 46.9307 65.4377 46.3475 65.4377ZM52.7096 65.4377C52.1264 65.4377 51.6493 65.9149 51.6493 66.4981C51.6493 67.0813 52.1264 67.5585 52.7096 67.5585C53.2928 67.5585 53.77 67.0813 53.77 66.4981C53.77 65.9149 53.2928 65.4377 52.7096 65.4377ZM49.5285 65.4377C48.9453 65.4377 48.4682 65.9149 48.4682 66.4981C48.4682 67.0813 48.9453 67.5585 49.5285 67.5585C50.1117 67.5585 50.5889 67.0813 50.5889 66.4981C50.5889 65.9149 50.1117 65.4377 49.5285 65.4377Z" fill="#3C3E3E"/>
<path d="M50.5887 91.9465C50.0055 91.9465 49.5283 92.4237 49.5283 93.0069C49.5283 93.5901 50.0055 94.0672 50.5887 94.0672C51.1719 94.0672 51.649 93.5901 51.649 93.0069C51.649 92.4237 51.1719 91.9465 50.5887 91.9465ZM56.9508 91.9465C56.3676 91.9465 55.8905 92.4237 55.8905 93.0069C55.8905 93.5901 56.3676 94.0672 56.9508 94.0672C57.534 94.0672 58.0112 93.5901 58.0112 93.0069C58.0112 92.4237 57.534 91.9465 56.9508 91.9465ZM53.7698 91.9465C53.1866 91.9465 52.7094 92.4237 52.7094 93.0069C52.7094 93.5901 53.1866 94.0672 53.7698 94.0672C54.3529 94.0672 54.8301 93.5901 54.8301 93.0069C54.8301 92.4237 54.3529 91.9465 53.7698 91.9465Z" fill="white"/>
<path d="M46.3475 118.456C45.7643 118.456 45.2871 118.933 45.2871 119.516C45.2871 120.099 45.7643 120.576 46.3475 120.576C46.9307 120.576 47.4078 120.099 47.4078 119.516C47.4078 118.933 46.9307 118.456 46.3475 118.456ZM52.7096 118.456C52.1264 118.456 51.6493 118.933 51.6493 119.516C51.6493 120.099 52.1264 120.576 52.7096 120.576C53.2928 120.576 53.77 120.099 53.77 119.516C53.77 118.933 53.2928 118.456 52.7096 118.456ZM49.5285 118.456C48.9453 118.456 48.4682 118.933 48.4682 119.516C48.4682 120.099 48.9453 120.576 49.5285 120.576C50.1117 120.576 50.5889 120.099 50.5889 119.516C50.5889 118.933 50.1117 118.456 49.5285 118.456Z" fill="#3C3E3E"/>
<path d="M50.5887 144.965C50.0055 144.965 49.5283 145.442 49.5283 146.025C49.5283 146.608 50.0055 147.085 50.5887 147.085C51.1719 147.085 51.649 146.608 51.649 146.025C51.649 145.442 51.1719 144.965 50.5887 144.965ZM56.9508 144.965C56.3676 144.965 55.8905 145.442 55.8905 146.025C55.8905 146.608 56.3676 147.085 56.9508 147.085C57.534 147.085 58.0112 146.608 58.0112 146.025C58.0112 145.442 57.534 144.965 56.9508 144.965ZM53.7698 144.965C53.1866 144.965 52.7094 145.442 52.7094 146.025C52.7094 146.608 53.1866 147.085 53.7698 147.085C54.3529 147.085 54.8301 146.608 54.8301 146.025C54.8301 145.442 54.3529 144.965 53.7698 144.965Z" fill="#3C3E3E"/>
<path d="M293.293 243.668L284.896 236.19H305.318L296.922 243.668C295.888 244.589 294.327 244.589 293.293 243.668Z" fill="white"/>
<path d="M284.92 236.825L293.365 243.837C294.375 244.676 295.84 244.676 296.851 243.837L305.294 236.825" stroke="#004357" stroke-width="0.90945" stroke-linecap="square"/>
<g clip-path="url(#clip0_6286_126137)">
<path d="M230.419 185.692L222.378 182.716V181.007C222.378 180.69 222.115 180.427 221.798 180.427C221.481 180.427 221.218 180.69 221.218 181.007V182.847L218.705 184.919L216.192 182.847V181.015C216.192 180.698 215.93 180.435 215.613 180.435C215.296 180.435 215.033 180.698 215.033 181.015V182.723L206.992 185.7C205.561 186.234 204.595 187.618 204.595 189.141V198.976C204.595 199.293 204.858 199.556 205.175 199.556H232.236C232.553 199.556 232.816 199.293 232.816 198.976V189.133C232.816 187.61 231.849 186.226 230.419 185.692ZM215.079 186.257L215.875 184.084L217.607 185.515L215.342 186.504C215.241 186.551 215.164 186.504 215.133 186.466C215.094 186.435 215.04 186.365 215.079 186.257ZM217.615 189.883H219.795L221.837 198.388H215.574L217.615 189.883ZM219.757 188.723H217.646L217.344 186.899L218.705 186.303L220.066 186.899L219.757 188.723ZM219.803 185.515L221.535 184.084L222.331 186.257C222.37 186.357 222.316 186.435 222.285 186.466C222.254 186.497 222.177 186.543 222.076 186.504L219.803 185.515ZM205.754 189.133C205.754 188.089 206.412 187.138 207.394 186.775L214.638 184.092L213.989 185.863C213.803 186.381 213.935 186.937 214.329 187.308C214.592 187.556 214.917 187.68 215.249 187.68C215.435 187.68 215.62 187.641 215.798 187.564L216.247 187.37L216.564 189.28L214.383 198.388H209.62V196.262C209.62 195.945 209.358 195.682 209.04 195.682C208.723 195.682 208.461 195.945 208.461 196.262V198.388H205.754V189.133ZM231.656 198.388H228.95V196.262C228.95 195.945 228.687 195.682 228.37 195.682C228.053 195.682 227.79 195.945 227.79 196.262V198.388H223.027L220.839 189.28L221.156 187.37L221.605 187.564C221.782 187.641 221.968 187.68 222.154 187.68C222.486 187.68 222.819 187.556 223.074 187.308C223.476 186.93 223.607 186.373 223.414 185.863L222.772 184.1L230.017 186.783C230.999 187.146 231.656 188.089 231.656 189.141V198.388Z" fill="#004357"/>
<path d="M228.37 193.363C228.053 193.363 227.79 193.626 227.79 193.943V194.329C227.79 194.646 228.053 194.909 228.37 194.909C228.687 194.909 228.95 194.646 228.95 194.329V193.943C228.95 193.626 228.687 193.363 228.37 193.363Z" fill="#004357"/>
<path d="M209.041 194.909C209.358 194.909 209.621 194.646 209.621 194.329V193.943C209.621 193.626 209.358 193.363 209.041 193.363C208.724 193.363 208.461 193.626 208.461 193.943V194.329C208.461 194.646 208.724 194.909 209.041 194.909Z" fill="#004357"/>
<path d="M216.966 177.551C216.966 176.592 217.747 175.812 218.705 175.812H223.623C223.816 175.27 223.924 174.683 223.924 174.072V170.979C223.924 168.103 221.581 165.76 218.705 165.76C215.829 165.76 213.486 168.103 213.486 170.979V174.072C213.486 176.948 215.829 179.291 218.705 179.291C217.747 179.291 216.966 178.51 216.966 177.551Z" fill="#BED73C"/>
<path d="M227.21 168.467H226.244V167.5C226.244 163.34 222.865 159.962 218.705 159.962C214.546 159.962 211.167 163.34 211.167 167.5V168.467H210.2C209.025 168.467 208.074 169.418 208.074 170.593V176.005C208.074 177.18 209.025 178.131 210.2 178.131C211.376 178.131 212.327 177.18 212.327 176.005V167.5C212.327 163.982 215.187 161.121 218.705 161.121C222.223 161.121 225.084 163.982 225.084 167.5V176.972H218.705C218.388 176.972 218.126 177.234 218.126 177.551C218.126 177.868 218.388 178.131 218.705 178.131H227.21C228.386 178.131 229.337 177.18 229.337 176.005V170.593C229.337 169.418 228.386 168.467 227.21 168.467Z" fill="#BED73C"/>
</g>
<g clip-path="url(#clip1_6286_126137)">
<rect width="19.6331" height="7.36241" transform="translate(71.2656 288.909)" fill="#BED73C"/>
</g>
<path d="M74.9468 289.216H87.2175C89.0812 289.216 90.592 290.727 90.592 292.59C90.592 294.454 89.0812 295.965 87.2175 295.965H74.9468C73.0832 295.965 71.5724 294.454 71.5724 292.59C71.5724 290.727 73.0832 289.216 74.9468 289.216Z" stroke="#004357" stroke-width="0.613534"/>
<g clip-path="url(#clip2_6286_126137)">
<rect width="19.6331" height="7.36241" transform="translate(93.3525 288.909)" fill="#BED73C"/>
</g>
<path d="M97.0337 289.216H109.304C111.168 289.216 112.679 290.727 112.679 292.59C112.679 294.454 111.168 295.965 109.304 295.965H97.0337C95.1701 295.965 93.6593 294.454 93.6593 292.59C93.6593 290.727 95.1701 289.216 97.0337 289.216Z" stroke="#004357" stroke-width="0.613534"/>
<g clip-path="url(#clip3_6286_126137)">
<rect width="19.6331" height="7.36241" transform="translate(115.44 288.909)" fill="#BED73C"/>
</g>
<path d="M119.122 289.216H131.392C133.256 289.216 134.767 290.727 134.767 292.59C134.767 294.454 133.256 295.965 131.392 295.965H119.122C117.258 295.965 115.747 294.454 115.747 292.59C115.747 290.727 117.258 289.216 119.122 289.216Z" stroke="#004357" stroke-width="0.613534"/>
<g clip-path="url(#clip4_6286_126137)">
<rect width="19.6331" height="7.36241" transform="translate(137.527 288.909)" fill="#BED73C"/>
</g>
<path d="M141.209 289.216H153.479C155.343 289.216 156.854 290.727 156.854 292.59C156.854 294.454 155.343 295.965 153.479 295.965H141.209C139.345 295.965 137.834 294.454 137.834 292.59C137.834 290.727 139.345 289.216 141.209 289.216Z" stroke="#004357" stroke-width="0.613534"/>
<g clip-path="url(#clip5_6286_126137)">
<rect width="7.36241" height="7.36241" transform="translate(159.614 288.909)" fill="#BED73C"/>
</g>
<path d="M163.295 289.216H175.566C177.43 289.216 178.941 290.727 178.941 292.59C178.941 294.454 177.43 295.965 175.566 295.965H163.295C161.432 295.965 159.921 294.454 159.921 292.59C159.921 290.727 161.432 289.216 163.295 289.216Z" stroke="#004357" stroke-width="0.613534"/>
<g clip-path="url(#clip6_6286_126137)">
</g>
<path d="M185.383 289.216H197.654C199.518 289.216 201.028 290.727 201.028 292.59C201.028 294.454 199.518 295.965 197.654 295.965H185.383C183.52 295.965 182.009 294.454 182.009 292.59C182.009 290.727 183.52 289.216 185.383 289.216Z" stroke="#004357" stroke-width="0.613534"/>
<defs>
<clipPath id="clip0_6286_126137">
<rect width="39.5867" height="39.5867" fill="white" transform="translate(198.912 159.962)"/>
</clipPath>
<clipPath id="clip1_6286_126137">
<path d="M71.2656 292.59C71.2656 290.557 72.9138 288.909 74.9468 288.909H87.2175C89.2506 288.909 90.8987 290.557 90.8987 292.59V292.59C90.8987 294.623 89.2506 296.271 87.2175 296.271H74.9468C72.9138 296.271 71.2656 294.623 71.2656 292.59V292.59Z" fill="white"/>
</clipPath>
<clipPath id="clip2_6286_126137">
<path d="M93.3525 292.59C93.3525 290.557 95.0007 288.909 97.0337 288.909H109.304C111.338 288.909 112.986 290.557 112.986 292.59V292.59C112.986 294.623 111.338 296.271 109.304 296.271H97.0337C95.0007 296.271 93.3525 294.623 93.3525 292.59V292.59Z" fill="white"/>
</clipPath>
<clipPath id="clip3_6286_126137">
<path d="M115.44 292.59C115.44 290.557 117.089 288.909 119.122 288.909H131.392C133.425 288.909 135.074 290.557 135.074 292.59V292.59C135.074 294.623 133.425 296.271 131.392 296.271H119.122C117.089 296.271 115.44 294.623 115.44 292.59V292.59Z" fill="white"/>
</clipPath>
<clipPath id="clip4_6286_126137">
<path d="M137.527 292.59C137.527 290.557 139.175 288.909 141.209 288.909H153.479C155.512 288.909 157.16 290.557 157.16 292.59V292.59C157.16 294.623 155.512 296.271 153.479 296.271H141.209C139.175 296.271 137.527 294.623 137.527 292.59V292.59Z" fill="white"/>
</clipPath>
<clipPath id="clip5_6286_126137">
<path d="M159.614 292.59C159.614 290.557 161.262 288.909 163.295 288.909H175.566C177.599 288.909 179.247 290.557 179.247 292.59V292.59C179.247 294.623 177.599 296.271 175.566 296.271H163.295C161.262 296.271 159.614 294.623 159.614 292.59V292.59Z" fill="white"/>
</clipPath>
<clipPath id="clip6_6286_126137">
<path d="M181.702 292.59C181.702 290.557 183.35 288.909 185.383 288.909H197.654C199.687 288.909 201.335 290.557 201.335 292.59V292.59C201.335 294.623 199.687 296.271 197.654 296.271H185.383C183.35 296.271 181.702 294.623 181.702 292.59V292.59Z" fill="white"/>
</clipPath>
</defs>
</svg>
