<svg width="420" height="530" viewBox="0 0 420 530" fill="none" xmlns="http://www.w3.org/2000/svg">
<path d="M42.2815 114.183C42.5123 114.641 42.3286 115.199 41.8711 115.429L34.4161 119.191C33.9586 119.422 33.4006 119.238 33.1698 118.781C32.9389 118.323 33.1227 117.765 33.5801 117.535L40.2068 114.191L36.8631 107.564C36.6322 107.107 36.816 106.549 37.2735 106.318C37.7309 106.087 38.2889 106.271 38.5198 106.728L42.2815 114.183ZM12.1777 47.7104C4.72637 58.6616 1.58168 71.6715 5.48721 83.6278C9.38569 95.5625 20.3896 106.689 41.7433 113.72L41.163 115.482C19.4438 108.331 7.86076 96.8703 3.7233 84.204C-0.407115 71.5592 2.96332 57.9541 10.6435 46.6665L12.1777 47.7104Z" fill="#004357"/>
<path d="M321.344 357.575L345.525 357.575C349.624 357.575 352.947 354.252 352.947 350.153L352.947 314.737" stroke="#BED73C" stroke-width="1.85563" stroke-linecap="round" stroke-linejoin="round" stroke-dasharray="3.71 3.71"/>
<path d="M300.497 150.162L332.762 150.162C336.861 150.162 340.185 153.485 340.185 157.584L340.185 196.516" stroke="#BED73C" stroke-width="1.85563" stroke-linecap="round" stroke-linejoin="round" stroke-dasharray="3.71 3.71"/>
<path d="M242.551 276.998C243.044 276.858 243.557 277.143 243.698 277.636L245.985 285.667C246.126 286.16 245.84 286.673 245.347 286.813C244.854 286.954 244.341 286.668 244.201 286.175L242.167 279.037L235.029 281.07C234.536 281.21 234.023 280.925 233.882 280.432C233.742 279.939 234.028 279.426 234.52 279.285L242.551 276.998ZM188.57 284.67C210.804 301.572 234.09 291.64 241.995 277.439L243.616 278.341C235.188 293.483 210.621 303.764 187.447 286.147L188.57 284.67Z" fill="#004357"/>
<path d="M56.317 389.52C56.7876 389.317 57.3335 389.534 57.5362 390.005L60.8407 397.673C61.0434 398.144 60.8263 398.69 60.3557 398.892C59.8852 399.095 59.3393 398.878 59.1365 398.408L56.1993 391.591L49.3827 394.528C48.9121 394.731 48.3662 394.514 48.1634 394.043C47.9606 393.573 48.1777 393.027 48.6483 392.824L56.317 389.52ZM57.5463 390.715C48.4821 413.505 54.0567 430.487 64.8648 441.22C75.7444 452.024 91.986 456.562 104.318 454.249L104.66 456.073C91.7084 458.502 74.8553 453.757 63.5572 442.537C52.1875 431.246 46.5014 413.464 55.822 390.029L57.5463 390.715Z" fill="#004357"/>
<path d="M60.8302 85.7468C60.0648 85.7468 59.4385 86.3731 59.4385 87.1385C59.4385 87.904 60.0648 88.5303 60.8302 88.5303C61.5956 88.5303 62.2219 87.904 62.2219 87.1385C62.2219 86.3731 61.5956 85.7468 60.8302 85.7468ZM69.1805 85.7468C68.4151 85.7468 67.7888 86.3731 67.7888 87.1385C67.7888 87.904 68.4151 88.5303 69.1805 88.5303C69.946 88.5303 70.5722 87.904 70.5722 87.1385C70.5722 86.3731 69.946 85.7468 69.1805 85.7468ZM65.0054 85.7468C64.2399 85.7468 63.6136 86.3731 63.6136 87.1385C63.6136 87.904 64.2399 88.5303 65.0054 88.5303C65.7708 88.5303 66.3971 87.904 66.3971 87.1385C66.3971 86.3731 65.7708 85.7468 65.0054 85.7468Z" fill="#3C3E3E"/>
<path d="M66.3966 120.54C65.6312 120.54 65.0049 121.166 65.0049 121.932C65.0049 122.697 65.6312 123.323 66.3966 123.323C67.162 123.323 67.7883 122.697 67.7883 121.932C67.7883 121.166 67.162 120.54 66.3966 120.54ZM74.7469 120.54C73.9815 120.54 73.3552 121.166 73.3552 121.932C73.3552 122.697 73.9815 123.323 74.7469 123.323C75.5124 123.323 76.1386 122.697 76.1386 121.932C76.1386 121.166 75.5124 120.54 74.7469 120.54ZM70.5718 120.54C69.8063 120.54 69.18 121.166 69.18 121.932C69.18 122.697 69.8063 123.323 70.5718 123.323C71.3372 123.323 71.9635 122.697 71.9635 121.932C71.9635 121.166 71.3372 120.54 70.5718 120.54Z" fill="white"/>
<path d="M60.8302 155.333C60.0648 155.333 59.4385 155.959 59.4385 156.724C59.4385 157.49 60.0648 158.116 60.8302 158.116C61.5956 158.116 62.2219 157.49 62.2219 156.724C62.2219 155.959 61.5956 155.333 60.8302 155.333ZM69.1805 155.333C68.4151 155.333 67.7888 155.959 67.7888 156.724C67.7888 157.49 68.4151 158.116 69.1805 158.116C69.946 158.116 70.5722 157.49 70.5722 156.724C70.5722 155.959 69.946 155.333 69.1805 155.333ZM65.0054 155.333C64.2399 155.333 63.6136 155.959 63.6136 156.724C63.6136 157.49 64.2399 158.116 65.0054 158.116C65.7708 158.116 66.3971 157.49 66.3971 156.724C66.3971 155.959 65.7708 155.333 65.0054 155.333Z" fill="#3C3E3E"/>
<path d="M66.3966 190.126C65.6312 190.126 65.0049 190.752 65.0049 191.518C65.0049 192.283 65.6312 192.91 66.3966 192.91C67.162 192.91 67.7883 192.283 67.7883 191.518C67.7883 190.752 67.162 190.126 66.3966 190.126ZM74.7469 190.126C73.9815 190.126 73.3552 190.752 73.3552 191.518C73.3552 192.283 73.9815 192.91 74.7469 192.91C75.5124 192.91 76.1386 192.283 76.1386 191.518C76.1386 190.752 75.5124 190.126 74.7469 190.126ZM70.5718 190.126C69.8063 190.126 69.18 190.752 69.18 191.518C69.18 192.283 69.8063 192.91 70.5718 192.91C71.3372 192.91 71.9635 192.283 71.9635 191.518C71.9635 190.752 71.3372 190.126 70.5718 190.126Z" fill="#3C3E3E"/>
<path d="M384.947 319.487L373.927 309.672H400.73L389.71 319.487C388.353 320.696 386.304 320.696 384.947 319.487Z" fill="white"/>
<path d="M373.957 310.505L385.041 319.709C386.367 320.81 388.29 320.81 389.616 319.708L400.698 310.505" stroke="#004357" stroke-width="1.19365" stroke-linecap="square"/>
<g clip-path="url(#clip0_6286_127871)">
<path d="M302.425 243.582L291.872 239.675V237.432C291.872 237.016 291.527 236.671 291.11 236.671C290.694 236.671 290.349 237.016 290.349 237.432V239.847L287.051 242.567L283.753 239.847V237.442C283.753 237.026 283.408 236.681 282.992 236.681C282.576 236.681 282.231 237.026 282.231 237.442V239.685L271.677 243.592C269.8 244.292 268.531 246.108 268.531 248.108V261.016C268.531 261.432 268.876 261.777 269.292 261.777H304.81C305.226 261.777 305.571 261.432 305.571 261.016V248.097C305.571 246.098 304.303 244.282 302.425 243.582ZM282.292 244.322L283.337 241.471L285.61 243.348L282.637 244.647C282.505 244.708 282.404 244.647 282.363 244.596C282.312 244.556 282.241 244.465 282.292 244.322ZM285.62 249.082H288.482L291.161 260.245H282.941L285.62 249.082ZM288.431 247.56H285.661L285.265 245.165L287.051 244.383L288.837 245.165L288.431 247.56ZM288.492 243.348L290.765 241.471L291.811 244.322C291.861 244.454 291.79 244.556 291.75 244.596C291.709 244.637 291.608 244.698 291.476 244.647L288.492 243.348ZM270.053 248.097C270.053 246.728 270.916 245.479 272.205 245.002L281.713 241.481L280.861 243.805C280.617 244.485 280.79 245.215 281.308 245.703C281.653 246.027 282.079 246.19 282.515 246.19C282.759 246.19 283.002 246.139 283.236 246.037L283.824 245.784L284.24 248.29L281.379 260.245H275.127V257.454C275.127 257.038 274.782 256.693 274.366 256.693C273.95 256.693 273.605 257.038 273.605 257.454V260.245H270.053V248.097ZM304.049 260.245H300.497V257.454C300.497 257.038 300.152 256.693 299.736 256.693C299.32 256.693 298.975 257.038 298.975 257.454V260.245H292.724L289.852 248.29L290.268 245.784L290.857 246.037C291.09 246.139 291.334 246.19 291.577 246.19C292.014 246.19 292.45 246.027 292.785 245.703C293.313 245.205 293.485 244.475 293.231 243.805L292.389 241.491L301.898 245.013C303.187 245.489 304.049 246.728 304.049 248.108V260.245Z" fill="#004357"/>
<path d="M299.737 253.649C299.321 253.649 298.976 253.994 298.976 254.41V254.917C298.976 255.333 299.321 255.678 299.737 255.678C300.153 255.678 300.498 255.333 300.498 254.917V254.41C300.498 253.994 300.153 253.649 299.737 253.649Z" fill="#004357"/>
<path d="M274.367 255.679C274.783 255.679 275.128 255.333 275.128 254.917V254.41C275.128 253.994 274.783 253.649 274.367 253.649C273.95 253.649 273.605 253.994 273.605 254.41V254.917C273.605 255.333 273.95 255.679 274.367 255.679Z" fill="#004357"/>
<path d="M284.768 232.896C284.768 231.638 285.793 230.613 287.051 230.613H293.505C293.759 229.902 293.901 229.131 293.901 228.329V224.27C293.901 220.495 290.826 217.42 287.051 217.42C283.276 217.42 280.201 220.495 280.201 224.27V228.329C280.201 232.105 283.276 235.179 287.051 235.179C285.793 235.179 284.768 234.154 284.768 232.896Z" fill="#BED73C"/>
<path d="M298.214 220.973H296.945V219.704C296.945 214.244 292.511 209.81 287.051 209.81C281.591 209.81 277.157 214.244 277.157 219.704V220.973H275.888C274.346 220.973 273.098 222.221 273.098 223.763V230.867C273.098 232.409 274.346 233.658 275.888 233.658C277.431 233.658 278.679 232.409 278.679 230.867V219.704C278.679 215.087 282.434 211.332 287.051 211.332C291.668 211.332 295.423 215.087 295.423 219.704V232.135H287.051C286.635 232.135 286.29 232.48 286.29 232.896C286.29 233.312 286.635 233.658 287.051 233.658H298.214C299.756 233.658 301.005 232.409 301.005 230.867V223.763C301.005 222.221 299.756 220.973 298.214 220.973Z" fill="#BED73C"/>
</g>
<g clip-path="url(#clip1_6286_127871)">
<rect width="25.7684" height="9.66317" transform="translate(93.5361 379.115)" fill="#BED73C"/>
</g>
<path d="M98.3677 379.518H114.473C116.919 379.518 118.902 381.501 118.902 383.947C118.902 386.393 116.919 388.376 114.473 388.376H98.3677C95.9217 388.376 93.9388 386.393 93.9388 383.947C93.9388 381.501 95.9217 379.518 98.3677 379.518Z" stroke="#004357" stroke-width="0.805264"/>
<g clip-path="url(#clip2_6286_127871)">
<rect width="25.7684" height="9.66317" transform="translate(122.525 379.115)" fill="#BED73C"/>
</g>
<path d="M127.357 379.518H143.462C145.908 379.518 147.891 381.501 147.891 383.947C147.891 386.393 145.908 388.376 143.462 388.376H127.357C124.911 388.376 122.928 386.393 122.928 383.947C122.928 381.501 124.911 379.518 127.357 379.518Z" stroke="#004357" stroke-width="0.805264"/>
<g clip-path="url(#clip3_6286_127871)">
<rect width="25.7684" height="9.66317" transform="translate(151.515 379.115)" fill="#BED73C"/>
</g>
<path d="M156.346 379.518H172.452C174.898 379.518 176.88 381.501 176.88 383.947C176.88 386.393 174.898 388.376 172.452 388.376H156.346C153.9 388.376 151.917 386.393 151.917 383.947C151.917 381.501 153.9 379.518 156.346 379.518Z" stroke="#004357" stroke-width="0.805264"/>
<g clip-path="url(#clip4_6286_127871)">
<rect width="25.7684" height="9.66317" transform="translate(180.505 379.115)" fill="#BED73C"/>
</g>
<path d="M185.336 379.518H201.442C203.888 379.518 205.871 381.501 205.871 383.947C205.871 386.393 203.888 388.376 201.442 388.376H185.336C182.89 388.376 180.908 386.393 180.908 383.947C180.908 381.501 182.89 379.518 185.336 379.518Z" stroke="#004357" stroke-width="0.805264"/>
<g clip-path="url(#clip5_6286_127871)">
<rect width="9.66317" height="9.66317" transform="translate(209.494 379.115)" fill="#BED73C"/>
</g>
<path d="M214.326 379.518H230.431C232.877 379.518 234.86 381.501 234.86 383.947C234.86 386.393 232.877 388.376 230.431 388.376H214.326C211.88 388.376 209.897 386.393 209.897 383.947C209.897 381.501 211.88 379.518 214.326 379.518Z" stroke="#004357" stroke-width="0.805264"/>
<g clip-path="url(#clip6_6286_127871)">
</g>
<path d="M243.315 379.518H259.42C261.866 379.518 263.849 381.501 263.849 383.947C263.849 386.393 261.866 388.376 259.42 388.376H243.315C240.869 388.376 238.886 386.393 238.886 383.947C238.886 381.501 240.869 379.518 243.315 379.518Z" stroke="#004357" stroke-width="0.805264"/>
<defs>
<clipPath id="clip0_6286_127871">
<rect width="51.9575" height="51.9575" fill="white" transform="translate(261.072 209.81)"/>
</clipPath>
<clipPath id="clip1_6286_127871">
<path d="M93.5361 383.947C93.5361 381.279 95.6993 379.115 98.3677 379.115H114.473C117.141 379.115 119.305 381.279 119.305 383.947V383.947C119.305 386.615 117.141 388.779 114.473 388.779H98.3677C95.6993 388.779 93.5361 386.615 93.5361 383.947V383.947Z" fill="white"/>
</clipPath>
<clipPath id="clip2_6286_127871">
<path d="M122.525 383.947C122.525 381.279 124.689 379.115 127.357 379.115H143.462C146.131 379.115 148.294 381.279 148.294 383.947V383.947C148.294 386.615 146.131 388.779 143.462 388.779H127.357C124.689 388.779 122.525 386.615 122.525 383.947V383.947Z" fill="white"/>
</clipPath>
<clipPath id="clip3_6286_127871">
<path d="M151.515 383.947C151.515 381.279 153.678 379.115 156.346 379.115H172.452C175.12 379.115 177.283 381.279 177.283 383.947V383.947C177.283 386.615 175.12 388.779 172.452 388.779H156.346C153.678 388.779 151.515 386.615 151.515 383.947V383.947Z" fill="white"/>
</clipPath>
<clipPath id="clip4_6286_127871">
<path d="M180.505 383.947C180.505 381.279 182.668 379.115 185.336 379.115H201.442C204.11 379.115 206.273 381.279 206.273 383.947V383.947C206.273 386.615 204.11 388.779 201.442 388.779H185.336C182.668 388.779 180.505 386.615 180.505 383.947V383.947Z" fill="white"/>
</clipPath>
<clipPath id="clip5_6286_127871">
<path d="M209.494 383.947C209.494 381.279 211.657 379.115 214.326 379.115H230.431C233.099 379.115 235.263 381.279 235.263 383.947V383.947C235.263 386.615 233.099 388.779 230.431 388.779H214.326C211.657 388.779 209.494 386.615 209.494 383.947V383.947Z" fill="white"/>
</clipPath>
<clipPath id="clip6_6286_127871">
<path d="M238.483 383.947C238.483 381.279 240.647 379.115 243.315 379.115H259.42C262.089 379.115 264.252 381.279 264.252 383.947V383.947C264.252 386.615 262.089 388.779 259.42 388.779H243.315C240.647 388.779 238.483 386.615 238.483 383.947V383.947Z" fill="white"/>
</clipPath>
</defs>
</svg>
