<svg width="420" height="530" viewBox="0 0 420 530" fill="none" xmlns="http://www.w3.org/2000/svg">
<path d="M42.2815 114.183C42.5123 114.641 42.3286 115.199 41.8711 115.429L34.4161 119.191C33.9586 119.422 33.4006 119.238 33.1698 118.781C32.9389 118.323 33.1227 117.765 33.5801 117.535L40.2068 114.191L36.8631 107.564C36.6322 107.107 36.816 106.549 37.2735 106.318C37.7309 106.087 38.2889 106.271 38.5198 106.728L42.2815 114.183ZM12.1777 47.7104C4.72637 58.6616 1.58168 71.6715 5.48721 83.6278C9.38569 95.5625 20.3896 106.689 41.7433 113.72L41.163 115.482C19.4438 108.331 7.86076 96.8703 3.7233 84.204C-0.407115 71.5592 2.96332 57.9541 10.6435 46.6665L12.1777 47.7104Z" fill="#004357"/>
<path d="M321.344 357.575L345.525 357.575C349.624 357.575 352.947 354.252 352.947 350.153L352.947 314.737" stroke="#BED73C" stroke-width="1.85563" stroke-linecap="round" stroke-linejoin="round" stroke-dasharray="3.71 3.71"/>
<path d="M300.497 150.162L332.762 150.162C336.861 150.162 340.185 153.485 340.185 157.584L340.185 196.516" stroke="#BED73C" stroke-width="1.85563" stroke-linecap="round" stroke-linejoin="round" stroke-dasharray="3.71 3.71"/>
<path d="M265.847 200.858H405.298C412.879 200.858 419.025 207.004 419.025 214.585V296.542C419.025 304.124 412.879 310.269 405.298 310.269H265.847C258.266 310.269 252.12 304.124 252.12 296.542V214.585C252.12 207.004 258.266 200.858 265.847 200.858Z" fill="white"/>
<path d="M265.847 200.858H405.298C412.879 200.858 419.025 207.004 419.025 214.585V296.542C419.025 304.124 412.879 310.269 405.298 310.269H265.847C258.266 310.269 252.12 304.124 252.12 296.542V214.585C252.12 207.004 258.266 200.858 265.847 200.858Z" stroke="#004357" stroke-width="1.19365"/>
<path d="M266.374 200.526H405.298C412.879 200.526 419.025 206.672 419.025 214.253V296.542C419.025 304.124 412.879 310.269 405.298 310.269H266.374C258.792 310.269 252.647 304.124 252.647 296.542V214.253C252.647 206.672 258.792 200.526 266.374 200.526Z" fill="white" stroke="#004357" stroke-width="1.19365"/>
<g clip-path="url(#clip0_6290_207472)">
<path d="M302.425 243.582L291.872 239.675V237.432C291.872 237.016 291.527 236.671 291.11 236.671C290.694 236.671 290.349 237.016 290.349 237.432V239.847L287.051 242.567L283.753 239.847V237.442C283.753 237.026 283.408 236.681 282.992 236.681C282.576 236.681 282.231 237.026 282.231 237.442V239.685L271.677 243.592C269.8 244.292 268.531 246.108 268.531 248.108V261.016C268.531 261.432 268.876 261.777 269.292 261.777H304.81C305.226 261.777 305.571 261.432 305.571 261.016V248.097C305.571 246.098 304.303 244.282 302.425 243.582ZM282.292 244.322L283.337 241.471L285.61 243.348L282.637 244.647C282.505 244.708 282.404 244.647 282.363 244.596C282.312 244.556 282.241 244.465 282.292 244.322ZM285.62 249.082H288.482L291.161 260.245H282.941L285.62 249.082ZM288.431 247.56H285.661L285.265 245.165L287.051 244.383L288.837 245.165L288.431 247.56ZM288.492 243.348L290.765 241.471L291.811 244.322C291.861 244.454 291.79 244.556 291.75 244.596C291.709 244.637 291.608 244.698 291.476 244.647L288.492 243.348ZM270.053 248.097C270.053 246.728 270.916 245.479 272.205 245.002L281.713 241.481L280.861 243.805C280.617 244.485 280.79 245.215 281.308 245.703C281.653 246.027 282.079 246.19 282.515 246.19C282.759 246.19 283.002 246.139 283.236 246.037L283.824 245.784L284.24 248.29L281.379 260.245H275.127V257.454C275.127 257.038 274.782 256.693 274.366 256.693C273.95 256.693 273.605 257.038 273.605 257.454V260.245H270.053V248.097ZM304.049 260.245H300.497V257.454C300.497 257.038 300.152 256.693 299.736 256.693C299.32 256.693 298.975 257.038 298.975 257.454V260.245H292.724L289.852 248.29L290.268 245.784L290.857 246.037C291.09 246.139 291.334 246.19 291.577 246.19C292.014 246.19 292.45 246.027 292.785 245.703C293.313 245.205 293.485 244.475 293.231 243.805L292.389 241.491L301.898 245.013C303.187 245.489 304.049 246.728 304.049 248.108V260.245Z" fill="#004357"/>
<path d="M299.737 253.649C299.321 253.649 298.976 253.994 298.976 254.41V254.917C298.976 255.333 299.321 255.678 299.737 255.678C300.153 255.678 300.498 255.333 300.498 254.917V254.41C300.498 253.994 300.153 253.649 299.737 253.649Z" fill="#004357"/>
<path d="M274.367 255.679C274.783 255.679 275.128 255.333 275.128 254.917V254.41C275.128 253.994 274.783 253.649 274.367 253.649C273.95 253.649 273.605 253.994 273.605 254.41V254.917C273.605 255.333 273.95 255.679 274.367 255.679Z" fill="#004357"/>
<path d="M284.768 232.896C284.768 231.638 285.793 230.613 287.051 230.613H293.505C293.759 229.902 293.901 229.131 293.901 228.329V224.27C293.901 220.495 290.826 217.42 287.051 217.42C283.276 217.42 280.201 220.495 280.201 224.27V228.329C280.201 232.105 283.276 235.179 287.051 235.179C285.793 235.179 284.768 234.154 284.768 232.896Z" fill="#BED73C"/>
<path d="M298.214 220.973H296.945V219.704C296.945 214.244 292.511 209.81 287.051 209.81C281.591 209.81 277.157 214.244 277.157 219.704V220.973H275.888C274.346 220.973 273.098 222.221 273.098 223.763V230.867C273.098 232.409 274.346 233.658 275.888 233.658C277.431 233.658 278.679 232.409 278.679 230.867V219.704C278.679 215.087 282.434 211.332 287.051 211.332C291.668 211.332 295.423 215.087 295.423 219.704V232.135H287.051C286.635 232.135 286.29 232.48 286.29 232.896C286.29 233.312 286.635 233.658 287.051 233.658H298.214C299.756 233.658 301.005 232.409 301.005 230.867V223.763C301.005 222.221 299.756 220.973 298.214 220.973Z" fill="#BED73C"/>
</g>
<path d="M405.657 279.139H408.216L407.987 288.536H405.867L405.657 279.139ZM405.39 291.114C405.39 290.216 406.02 289.682 406.937 289.682C407.815 289.682 408.465 290.216 408.465 291.114C408.465 291.992 407.815 292.527 406.937 292.527C406.02 292.527 405.39 291.992 405.39 291.114Z" fill="#3C3E3E"/>
<path d="M393.429 283.073H395.912L395.873 284.429C396.618 283.322 397.764 282.863 398.986 282.863C401.698 282.863 403.36 284.964 403.36 287.714C403.36 290.331 401.622 292.489 398.814 292.489C397.401 292.489 396.599 291.992 395.835 291.076C395.854 291.649 395.835 292.241 395.835 292.814V295.812H393.429V283.073ZM398.375 290.617C399.96 290.617 400.877 289.261 400.877 287.714C400.877 286.11 399.884 284.85 398.299 284.85C396.828 284.85 395.797 285.976 395.797 287.714C395.797 289.261 396.809 290.617 398.375 290.617Z" fill="#3C3E3E"/>
<path d="M388.599 279.139H391.024V292.317H388.599V279.139Z" fill="#3C3E3E"/>
<path d="M386.537 291.038C386.021 291.572 384.627 292.527 382.373 292.527C379.585 292.527 377.522 290.827 377.522 287.848C377.522 284.888 379.681 282.902 382.316 282.902C385.162 282.902 386.881 284.773 386.881 287.237C386.881 287.714 386.843 288.478 386.843 288.478H380.043C380.273 289.949 381.399 290.656 382.794 290.656C384.035 290.656 385.143 290.102 385.582 289.72L386.537 291.038ZM384.436 286.893C384.398 285.881 384.016 284.716 382.297 284.716C380.846 284.716 380.082 285.728 380.005 286.893H384.436Z" fill="#3C3E3E"/>
<path d="M367.374 279.139H369.8V284.468H369.838C370.334 283.494 371.27 282.902 372.607 282.902C375.262 282.902 375.93 284.62 375.93 286.836V292.317H373.486V287.371C373.486 285.996 373.237 284.907 371.824 284.907C370.315 284.907 369.8 286.167 369.8 287.714V292.317H367.374V279.139Z" fill="#3C3E3E"/>
<path d="M351.785 287.734C351.785 284.811 353.962 282.902 356.808 282.902C359.635 282.902 361.812 284.811 361.812 287.734C361.812 290.656 359.635 292.527 356.808 292.527C353.962 292.527 351.785 290.656 351.785 287.734ZM356.808 290.503C358.374 290.503 359.291 289.261 359.291 287.676C359.291 286.091 358.374 284.869 356.808 284.869C355.204 284.869 354.325 286.091 354.325 287.676C354.325 289.261 355.204 290.503 356.808 290.503Z" fill="#3C3E3E"/>
<path d="M350.945 292.222C350.83 292.26 350.105 292.527 349.073 292.527C348.157 292.527 347.488 292.336 347.068 291.859C346.59 291.343 346.4 290.522 346.4 289.261V284.983H345.024V283.093H346.4V280.457H348.825V283.093H350.964V284.983H348.825V288.727C348.825 289.472 348.882 289.911 349.073 290.178C349.226 290.407 349.513 290.484 349.933 290.484C350.429 290.484 350.811 290.331 350.811 290.331L350.945 292.222Z" fill="#3C3E3E"/>
<path d="M340.226 291.038C339.711 291.572 338.317 292.527 336.063 292.527C333.275 292.527 331.212 290.827 331.212 287.848C331.212 284.888 333.37 282.902 336.006 282.902C338.851 282.902 340.57 284.773 340.57 287.237C340.57 287.714 340.532 288.478 340.532 288.478H333.733C333.962 289.949 335.089 290.656 336.483 290.656C337.724 290.656 338.832 290.102 339.271 289.72L340.226 291.038ZM338.126 286.893C338.087 285.881 337.705 284.716 335.987 284.716C334.535 284.716 333.771 285.728 333.695 286.893H338.126Z" fill="#3C3E3E"/>
<path d="M324.923 283.073H327.348L327.31 284.563H327.367C327.73 283.57 328.647 282.902 329.64 282.902C330.27 282.902 330.614 283.073 330.614 283.073L330.442 285.193H330.328C330.06 285.117 329.64 285.079 329.315 285.079C328.59 285.079 328.017 285.384 327.692 285.976C327.444 286.435 327.348 287.065 327.348 287.772V292.317H324.923V283.073Z" fill="#3C3E3E"/>
<path d="M322.956 291.038C322.44 291.572 321.046 292.527 318.792 292.527C316.004 292.527 313.941 290.827 313.941 287.848C313.941 284.888 316.1 282.902 318.735 282.902C321.581 282.902 323.3 284.773 323.3 287.237C323.3 287.714 323.261 288.478 323.261 288.478H316.462C316.692 289.949 317.818 290.656 319.213 290.656C320.454 290.656 321.562 290.102 322.001 289.72L322.956 291.038ZM320.855 286.893C320.817 285.881 320.435 284.716 318.716 284.716C317.265 284.716 316.501 285.728 316.424 286.893H320.855Z" fill="#3C3E3E"/>
<path d="M303.793 279.139H306.218V284.468H306.257C306.753 283.494 307.689 282.902 309.026 282.902C311.681 282.902 312.349 284.62 312.349 286.836V292.317H309.904V287.371C309.904 285.996 309.656 284.907 308.243 284.907C306.734 284.907 306.218 286.167 306.218 287.714V292.317H303.793V279.139Z" fill="#3C3E3E"/>
<path d="M283.779 283.073H286.224L286.205 284.468H286.262C286.682 283.608 287.809 282.902 289.012 282.902C290.349 282.902 291.151 283.436 291.591 284.659C292.24 283.532 293.29 282.902 294.627 282.902C297.053 282.902 297.721 284.62 297.721 286.74V292.317H295.277V287.141C295.277 286.015 295.028 284.907 293.825 284.907C292.603 284.907 291.973 285.957 291.973 287.543V292.317H289.528V287.122C289.528 285.862 289.203 284.907 288.038 284.907C286.778 284.907 286.224 286.091 286.224 287.543V292.317H283.779V283.073Z" fill="#3C3E3E"/>
<path d="M278.871 279.139H281.277L279.463 283.57H277.477L278.871 279.139Z" fill="#3C3E3E"/>
<path d="M272.5 279.139H274.983V292.317H272.5V279.139Z" fill="#3C3E3E"/>
<path d="M268.044 279.139H269.935L268.541 283.57H266.23L268.044 279.139ZM264.301 279.139H266.191L264.797 283.57H262.486L264.301 279.139Z" fill="#3C3E3E"/>
<path d="M384.947 319.487L373.927 309.672H400.73L389.71 319.487C388.353 320.696 386.304 320.696 384.947 319.487Z" fill="white"/>
<path d="M373.957 310.505L385.041 319.709C386.367 320.81 388.29 320.81 389.616 319.708L400.698 310.505" stroke="#004357" stroke-width="1.19365" stroke-linecap="square"/>
<path d="M242.551 276.998C243.044 276.858 243.557 277.143 243.698 277.636L245.985 285.667C246.126 286.16 245.84 286.673 245.347 286.813C244.854 286.954 244.341 286.668 244.201 286.175L242.167 279.037L235.029 281.07C234.536 281.21 234.023 280.925 233.882 280.432C233.742 279.939 234.028 279.426 234.52 279.285L242.551 276.998ZM188.57 284.67C210.804 301.572 234.09 291.64 241.995 277.439L243.616 278.341C235.188 293.483 210.621 303.764 187.447 286.147L188.57 284.67Z" fill="#004357"/>
<g clip-path="url(#clip1_6290_207472)">
<path d="M42.042 310.374C42.042 307.917 44.034 305.925 46.4912 305.925H311.298C313.755 305.925 315.747 307.917 315.747 310.374V401.081C315.747 403.538 313.755 405.53 311.298 405.53H46.4912C44.034 405.53 42.042 403.538 42.042 401.081V310.374Z" fill="#F3F4F6"/>
<path d="M42.042 310.374C42.042 307.917 44.034 305.925 46.4912 305.925H311.298C313.755 305.925 315.747 307.917 315.747 310.374V401.081C315.747 403.538 313.755 405.53 311.298 405.53H46.4912C44.034 405.53 42.042 403.538 42.042 401.081V310.374Z" fill="#F3F4F6"/>
<path d="M249.828 330.577C249.828 329.798 250.375 329.334 251.171 329.334C251.933 329.334 252.497 329.798 252.497 330.577C252.497 331.339 251.933 331.804 251.171 331.804C250.375 331.804 249.828 331.339 249.828 330.577Z" fill="#3C3E3E"/>
<path d="M247.839 330.511C247.392 330.975 246.182 331.803 244.226 331.803C241.806 331.803 240.016 330.328 240.016 327.742C240.016 325.173 241.889 323.449 244.176 323.449C246.646 323.449 248.138 325.074 248.138 327.212C248.138 327.626 248.105 328.289 248.105 328.289H242.204C242.403 329.566 243.381 330.179 244.591 330.179C245.668 330.179 246.629 329.698 247.011 329.367L247.839 330.511ZM246.016 326.914C245.983 326.035 245.651 325.024 244.16 325.024C242.9 325.024 242.237 325.902 242.17 326.914H246.016Z" fill="#3C3E3E"/>
<path d="M231.19 323.598H233.312L233.296 324.908C233.776 323.88 234.705 323.449 235.749 323.449C238.053 323.449 238.633 324.941 238.633 326.864V331.621H236.511V327.328C236.511 326.135 236.296 325.19 235.069 325.19C233.76 325.19 233.312 326.284 233.312 327.626V331.621H231.19V323.598Z" fill="#3C3E3E"/>
<path d="M221.029 327.643C221.029 325.107 222.919 323.449 225.389 323.449C227.842 323.449 229.732 325.107 229.732 327.643C229.732 330.179 227.842 331.803 225.389 331.803C222.919 331.803 221.029 330.179 221.029 327.643ZM225.389 330.046C226.748 330.046 227.544 328.969 227.544 327.593C227.544 326.217 226.748 325.157 225.389 325.157C223.996 325.157 223.234 326.217 223.234 327.593C223.234 328.969 223.996 330.046 225.389 330.046Z" fill="#3C3E3E"/>
<path d="M217.444 331.621L217.46 330.361C216.814 331.389 215.77 331.804 214.659 331.804C212.305 331.804 210.863 329.98 210.863 327.593C210.863 325.322 212.372 323.449 214.808 323.449C215.886 323.449 216.831 323.847 217.394 324.709C217.378 324.344 217.378 323.913 217.378 323.35V320.184H219.483V331.621H217.444ZM215.256 330.08C216.532 330.08 217.427 329.102 217.427 327.593C217.427 326.251 216.549 325.074 215.19 325.074C213.814 325.074 213.018 326.251 213.018 327.593C213.018 328.986 213.88 330.08 215.256 330.08Z" fill="#3C3E3E"/>
<path d="M206.848 331.538C206.749 331.572 206.119 331.804 205.224 331.804C204.428 331.804 203.848 331.638 203.484 331.223C203.069 330.776 202.903 330.063 202.903 328.969V325.256H201.71V323.615H202.903V321.328H205.009V323.615H206.865V325.256H205.009V328.505C205.009 329.151 205.058 329.533 205.224 329.765C205.357 329.964 205.605 330.03 205.97 330.03C206.401 330.03 206.732 329.897 206.732 329.897L206.848 331.538Z" fill="#3C3E3E"/>
<path d="M195.649 329.118C196.594 329.847 197.406 330.212 198.086 330.212C198.881 330.212 199.246 329.914 199.246 329.45C199.246 329.035 198.931 328.803 197.903 328.455L196.975 328.14C195.782 327.742 195.168 327.03 195.168 325.853C195.168 324.394 196.494 323.449 198.036 323.449C199.462 323.449 200.257 323.83 200.92 324.311L200.009 325.72C199.544 325.372 198.865 325.041 198.135 325.041C197.439 325.041 197.091 325.306 197.091 325.687C197.091 326.035 197.356 326.317 198.251 326.599L198.815 326.781C200.589 327.361 201.219 327.991 201.219 329.151C201.219 330.676 200.009 331.803 198.036 331.803C196.809 331.803 195.434 331.306 194.787 330.56L195.649 329.118Z" fill="#3C3E3E"/>
<path d="M185.223 327.643C185.223 325.107 187.112 323.449 189.582 323.449C192.035 323.449 193.925 325.107 193.925 327.643C193.925 330.179 192.035 331.803 189.582 331.803C187.112 331.803 185.223 330.179 185.223 327.643ZM189.582 330.046C190.941 330.046 191.737 328.969 191.737 327.593C191.737 326.217 190.941 325.157 189.582 325.157C188.19 325.157 187.427 326.217 187.427 327.593C187.427 328.969 188.19 330.046 189.582 330.046Z" fill="#3C3E3E"/>
<path d="M171.718 323.598H173.839L173.823 324.808H173.873C174.237 324.063 175.215 323.449 176.26 323.449C177.42 323.449 178.116 323.913 178.497 324.974C179.061 323.996 179.973 323.449 181.133 323.449C183.238 323.449 183.818 324.941 183.818 326.781V331.621H181.696V327.129C181.696 326.151 181.481 325.19 180.437 325.19C179.376 325.19 178.829 326.101 178.829 327.477V331.621H176.707V327.112C176.707 326.018 176.425 325.19 175.414 325.19C174.32 325.19 173.839 326.217 173.839 327.477V331.621H171.718V323.598Z" fill="#3C3E3E"/>
<path d="M167.576 320.184H169.681V331.621H167.576V320.184Z" fill="#3C3E3E"/>
<path d="M163.604 330.693C163.273 331.273 162.344 331.803 161.151 331.803C159.593 331.803 158.333 330.958 158.333 329.284C158.333 327.61 159.974 326.963 161.632 326.847L163.554 326.715V326.499C163.554 325.471 162.875 324.991 161.764 324.991C160.703 324.991 159.825 325.389 159.477 325.654L158.83 324.295C159.444 323.93 160.571 323.449 161.963 323.449C163.389 323.449 164.201 323.814 164.798 324.377C165.378 324.941 165.676 325.67 165.676 327.03V331.621H163.637L163.604 330.693ZM162.129 328.09C161.002 328.157 160.455 328.538 160.455 329.218C160.455 329.897 160.969 330.361 161.847 330.361C162.676 330.361 163.289 329.881 163.571 329.483V328.008L162.129 328.09Z" fill="#3C3E3E"/>
<path d="M153.953 330.511C153.505 330.975 152.295 331.803 150.339 331.803C147.919 331.803 146.129 330.328 146.129 327.742C146.129 325.173 148.002 323.449 150.289 323.449C152.759 323.449 154.251 325.074 154.251 327.212C154.251 327.626 154.218 328.289 154.218 328.289H148.317C148.516 329.566 149.494 330.179 150.704 330.179C151.781 330.179 152.743 329.698 153.124 329.367L153.953 330.511ZM152.129 326.914C152.096 326.035 151.765 325.024 150.273 325.024C149.013 325.024 148.35 325.902 148.284 326.914H152.129Z" fill="#3C3E3E"/>
<path d="M140.671 323.598H142.776L142.743 324.891H142.793C143.108 324.029 143.903 323.449 144.765 323.449C145.312 323.449 145.611 323.598 145.611 323.598L145.461 325.438H145.362C145.13 325.372 144.765 325.339 144.483 325.339C143.853 325.339 143.356 325.604 143.074 326.118C142.859 326.516 142.776 327.063 142.776 327.676V331.621H140.671V323.598Z" fill="#3C3E3E"/>
<path d="M136.41 320.184H138.499L136.924 324.029H135.2L136.41 320.184Z" fill="#3C3E3E"/>
<path d="M131.128 330.494C130.664 331.29 129.802 331.77 128.642 331.77C127.664 331.77 127.001 331.505 126.553 331.058C125.957 330.444 125.774 329.466 125.774 328.356V323.598H127.896V327.892C127.896 329.085 128.095 330.03 129.322 330.03C130.598 330.03 131.079 329.019 131.079 327.676V323.598H133.2V331.621H131.145L131.128 330.494Z" fill="#3C3E3E"/>
<path d="M115.763 327.643C115.763 325.107 117.652 323.449 120.122 323.449C122.575 323.449 124.465 325.107 124.465 327.643C124.465 330.179 122.575 331.803 120.122 331.803C117.652 331.803 115.763 330.179 115.763 327.643ZM120.122 330.046C121.481 330.046 122.277 328.969 122.277 327.593C122.277 326.217 121.481 325.157 120.122 325.157C118.73 325.157 117.967 326.217 117.967 327.593C117.967 328.969 118.73 330.046 120.122 330.046Z" fill="#3C3E3E"/>
<path d="M109.254 326.914L105.292 320.184H107.679L110.348 325.09L113 320.184H115.387L111.408 326.914V331.621H109.254V326.914Z" fill="#3C3E3E"/>
<path d="M255.644 355.915H256.758L256.658 361.548H255.733L255.644 355.915ZM255.455 363.018C255.455 362.584 255.767 362.317 256.201 362.317C256.624 362.317 256.936 362.584 256.936 363.018C256.936 363.441 256.624 363.708 256.201 363.708C255.767 363.708 255.455 363.441 255.455 363.018Z" fill="#3C3E3E"/>
<path d="M253.777 362.484C253.777 363.653 253.587 364.298 253.198 364.766C252.808 365.245 252.151 365.779 250.837 365.779C249.535 365.779 248.633 365.1 248.477 364.989L248.978 364.243C249.256 364.488 250.08 364.911 250.871 364.911C251.661 364.911 252.107 364.599 252.318 364.332C252.53 364.076 252.719 363.575 252.719 362.851V362.562C252.34 363.118 251.739 363.53 250.837 363.53C249.49 363.53 248.299 362.539 248.299 360.925C248.299 359.166 249.49 358.208 250.848 358.208C251.706 358.208 252.329 358.587 252.697 359.132H252.719V358.308H253.777V362.484ZM251.071 362.662C252.129 362.662 252.752 361.871 252.752 360.891C252.752 359.834 252.129 359.066 251.071 359.066C250.013 359.066 249.39 359.845 249.39 360.891C249.39 361.871 250.013 362.662 251.071 362.662Z" fill="#3C3E3E"/>
<path d="M242.632 358.308H243.701L243.69 359.21C243.979 358.587 244.658 358.208 245.337 358.208C246.84 358.208 247.23 359.199 247.23 360.468V363.597H246.161V360.647C246.161 359.756 246.005 359.088 245.059 359.088C244.068 359.088 243.701 359.923 243.701 360.936V363.597H242.632V358.308Z" fill="#3C3E3E"/>
<path d="M239.878 356.572C239.878 356.193 240.167 355.915 240.579 355.915C240.98 355.915 241.27 356.193 241.27 356.572C241.27 356.95 240.98 357.229 240.579 357.229C240.167 357.229 239.878 356.95 239.878 356.572ZM240.045 358.309H241.114V363.597H240.045V358.309Z" fill="#3C3E3E"/>
<path d="M233.283 360.969C233.283 359.333 234.508 358.208 236.089 358.208C237.659 358.208 238.883 359.333 238.883 360.969C238.883 362.617 237.659 363.719 236.089 363.719C234.508 363.719 233.283 362.617 233.283 360.969ZM236.089 362.806C237.147 362.806 237.803 361.983 237.803 360.936C237.803 359.901 237.147 359.077 236.089 359.077C235.02 359.077 234.363 359.901 234.363 360.936C234.363 361.983 235.02 362.806 236.089 362.806Z" fill="#3C3E3E"/>
<path d="M232.161 362.484C232.161 363.653 231.972 364.298 231.582 364.766C231.193 365.245 230.536 365.779 229.222 365.779C227.919 365.779 227.018 365.1 226.862 364.989L227.363 364.243C227.641 364.488 228.465 364.911 229.255 364.911C230.046 364.911 230.491 364.599 230.703 364.332C230.914 364.076 231.104 363.575 231.104 362.851V362.562C230.725 363.118 230.124 363.53 229.222 363.53C227.875 363.53 226.684 362.539 226.684 360.925C226.684 359.166 227.875 358.208 229.233 358.208C230.091 358.208 230.714 358.587 231.081 359.132H231.104V358.308H232.161V362.484ZM229.456 362.662C230.514 362.662 231.137 361.871 231.137 360.891C231.137 359.834 230.514 359.066 229.456 359.066C228.398 359.066 227.775 359.845 227.775 360.891C227.775 361.871 228.398 362.662 229.456 362.662Z" fill="#3C3E3E"/>
<path d="M215.732 358.308H216.801L216.79 359.143H216.824C217.068 358.654 217.647 358.208 218.349 358.208C219.128 358.208 219.674 358.565 219.919 359.255C220.275 358.587 220.854 358.208 221.6 358.208C223.014 358.208 223.392 359.244 223.392 360.39V363.597H222.335V360.513C222.335 359.901 222.223 359.088 221.366 359.088C220.52 359.088 220.097 359.901 220.097 360.847V363.597H219.028V360.513C219.028 359.734 218.839 359.088 218.071 359.088C217.224 359.088 216.801 359.901 216.801 360.847V363.597H215.732V358.308Z" fill="#3C3E3E"/>
<path d="M213.215 362.84C212.925 363.352 212.324 363.72 211.578 363.72C210.821 363.72 210.387 363.463 210.108 363.107C209.841 362.751 209.719 362.228 209.719 361.47V358.297H210.776V361.426C210.776 362.15 210.932 362.829 211.879 362.829C212.814 362.829 213.192 362.027 213.192 361.136V358.297H214.261V363.597H213.226L213.215 362.84Z" fill="#3C3E3E"/>
<path d="M208.878 363.541C208.6 363.664 208.277 363.72 207.909 363.72C207.353 363.72 207.008 363.508 206.785 363.174C206.562 362.84 206.518 362.428 206.518 361.593V359.177H205.738V358.32H206.518V356.739H207.586V358.32H208.856V359.177H207.586V361.571C207.586 362.016 207.586 362.328 207.72 362.539C207.809 362.718 207.965 362.807 208.266 362.807C208.577 362.807 208.811 362.684 208.811 362.684L208.878 363.541Z" fill="#3C3E3E"/>
<path d="M200.282 358.308H201.351L201.34 359.21C201.629 358.587 202.309 358.208 202.988 358.208C204.491 358.208 204.88 359.199 204.88 360.468V363.597H203.812V360.647C203.812 359.756 203.656 359.088 202.709 359.088C201.718 359.088 201.351 359.923 201.351 360.936V363.597H200.282V358.308Z" fill="#3C3E3E"/>
<path d="M199.01 362.884C198.943 362.94 198.264 363.719 196.683 363.719C195.113 363.719 194.033 362.628 194.033 360.947C194.033 359.277 195.247 358.208 196.716 358.208C198.186 358.208 199.222 359.255 199.222 360.736C199.222 360.936 199.188 361.203 199.188 361.203H195.113C195.169 362.25 195.837 362.884 196.817 362.884C197.808 362.884 198.442 362.35 198.565 362.272L199.01 362.884ZM198.208 360.491C198.197 359.901 197.752 358.976 196.683 358.976C195.625 358.976 195.158 359.856 195.124 360.491H198.208Z" fill="#3C3E3E"/>
<path d="M185.3 358.308H186.369L186.358 359.143H186.391C186.636 358.654 187.215 358.208 187.916 358.208C188.696 358.208 189.241 358.565 189.486 359.255C189.842 358.587 190.421 358.208 191.167 358.208C192.581 358.208 192.96 359.244 192.96 360.39V363.597H191.902V360.513C191.902 359.901 191.791 359.088 190.933 359.088C190.087 359.088 189.664 359.901 189.664 360.847V363.597H188.595V360.513C188.595 359.734 188.406 359.088 187.638 359.088C186.792 359.088 186.369 359.901 186.369 360.847V363.597H185.3V358.308Z" fill="#3C3E3E"/>
<path d="M178.582 360.969C178.582 359.333 179.807 358.208 181.388 358.208C182.958 358.208 184.182 359.333 184.182 360.969C184.182 362.617 182.958 363.719 181.388 363.719C179.807 363.719 178.582 362.617 178.582 360.969ZM181.388 362.806C182.445 362.806 183.102 361.983 183.102 360.936C183.102 359.901 182.445 359.077 181.388 359.077C180.319 359.077 179.662 359.901 179.662 360.936C179.662 361.983 180.319 362.806 181.388 362.806Z" fill="#3C3E3E"/>
<path d="M169.849 358.308H170.917L170.906 359.143H170.94C171.185 358.654 171.764 358.208 172.465 358.208C173.244 358.208 173.79 358.565 174.035 359.255C174.391 358.587 174.97 358.208 175.716 358.208C177.13 358.208 177.509 359.244 177.509 360.39V363.597H176.451V360.513C176.451 359.901 176.34 359.088 175.482 359.088C174.636 359.088 174.213 359.901 174.213 360.847V363.597H173.144V360.513C173.144 359.734 172.955 359.088 172.187 359.088C171.341 359.088 170.917 359.901 170.917 360.847V363.597H169.849V358.308Z" fill="#3C3E3E"/>
<path d="M166.359 362.884C166.292 362.94 165.613 363.719 164.032 363.719C162.462 363.719 161.382 362.628 161.382 360.947C161.382 359.277 162.595 358.208 164.065 358.208C165.535 358.208 166.57 359.255 166.57 360.736C166.57 360.936 166.537 361.203 166.537 361.203H162.462C162.517 362.25 163.186 362.884 164.165 362.884C165.156 362.884 165.791 362.35 165.913 362.272L166.359 362.884ZM165.557 360.491C165.546 359.901 165.101 358.976 164.032 358.976C162.974 358.976 162.506 359.856 162.473 360.491H165.557Z" fill="#3C3E3E"/>
<path d="M155.694 355.915H156.752V359.144H156.774C157.053 358.62 157.632 358.208 158.4 358.208C159.925 358.208 160.293 359.188 160.293 360.446V363.597H159.224V360.602C159.224 359.845 159.101 359.088 158.133 359.088C157.164 359.088 156.752 359.923 156.752 360.981V363.597H155.694V355.915Z" fill="#3C3E3E"/>
<path d="M154.753 363.541C154.475 363.664 154.152 363.72 153.784 363.72C153.228 363.72 152.883 363.508 152.66 363.174C152.437 362.84 152.393 362.428 152.393 361.593V359.177H151.613V358.32H152.393V356.739H153.461V358.32H154.731V359.177H153.461V361.571C153.461 362.016 153.461 362.328 153.595 362.539C153.684 362.718 153.84 362.807 154.141 362.807C154.452 362.807 154.686 362.684 154.686 362.684L154.753 363.541Z" fill="#3C3E3E"/>
<path d="M143.375 358.308H144.399V359.143C144.867 358.52 145.524 358.208 146.303 358.208C147.862 358.208 148.853 359.377 148.853 360.947C148.853 362.517 147.851 363.719 146.281 363.719C145.446 363.719 144.834 363.363 144.455 362.773L144.444 363.842V365.668H143.375V358.308ZM146.08 362.806C147.138 362.806 147.762 361.994 147.762 360.936C147.762 359.878 147.138 359.077 146.08 359.077C145.023 359.077 144.399 359.878 144.399 360.936C144.399 361.994 145.023 362.806 146.08 362.806Z" fill="#3C3E3E"/>
<path d="M142.058 362.884C141.991 362.94 141.312 363.719 139.731 363.719C138.161 363.719 137.081 362.628 137.081 360.947C137.081 359.277 138.295 358.208 139.764 358.208C141.234 358.208 142.269 359.255 142.269 360.736C142.269 360.936 142.236 361.203 142.236 361.203H138.161C138.217 362.25 138.885 362.884 139.864 362.884C140.855 362.884 141.49 362.35 141.612 362.272L142.058 362.884ZM141.256 360.491C141.245 359.901 140.8 358.976 139.731 358.976C138.673 358.976 138.206 359.856 138.172 360.491H141.256Z" fill="#3C3E3E"/>
<path d="M136.111 362.884C136.044 362.94 135.365 363.719 133.784 363.719C132.214 363.719 131.134 362.628 131.134 360.947C131.134 359.277 132.347 358.208 133.817 358.208C135.287 358.208 136.322 359.255 136.322 360.736C136.322 360.936 136.289 361.203 136.289 361.203H132.214C132.269 362.25 132.937 362.884 133.917 362.884C134.908 362.884 135.543 362.35 135.665 362.272L136.111 362.884ZM135.309 360.491C135.298 359.901 134.852 358.976 133.784 358.976C132.726 358.976 132.258 359.856 132.225 360.491H135.309Z" fill="#3C3E3E"/>
<path d="M126.12 355.915H127.178V360.424L129.338 358.309H130.585L128.514 360.301L130.852 363.597H129.605L127.79 361.036L127.178 361.615V363.597H126.12V355.915Z" fill="#3C3E3E"/>
<path d="M121.221 362.417H122.312L121.288 365.156H120.441L121.221 362.417Z" fill="#3C3E3E"/>
<path d="M114.127 358.308H115.151V359.143C115.619 358.52 116.276 358.208 117.055 358.208C118.614 358.208 119.605 359.377 119.605 360.947C119.605 362.517 118.603 363.719 117.033 363.719C116.198 363.719 115.585 363.363 115.207 362.773L115.196 363.842V365.668H114.127V358.308ZM116.832 362.806C117.89 362.806 118.514 361.994 118.514 360.936C118.514 359.878 117.89 359.077 116.832 359.077C115.775 359.077 115.151 359.878 115.151 360.936C115.151 361.994 115.775 362.806 116.832 362.806Z" fill="#3C3E3E"/>
<path d="M112.81 362.884C112.743 362.94 112.064 363.719 110.483 363.719C108.913 363.719 107.833 362.628 107.833 360.947C107.833 359.277 109.047 358.208 110.516 358.208C111.986 358.208 113.021 359.255 113.021 360.736C113.021 360.936 112.988 361.203 112.988 361.203H108.913C108.969 362.25 109.637 362.884 110.616 362.884C111.607 362.884 112.242 362.35 112.364 362.272L112.81 362.884ZM112.008 360.491C111.997 359.901 111.552 358.976 110.483 358.976C109.425 358.976 108.958 359.856 108.924 360.491H112.008Z" fill="#3C3E3E"/>
<path d="M107.304 363.541C107.025 363.664 106.703 363.72 106.335 363.72C105.778 363.72 105.433 363.508 105.211 363.174C104.988 362.84 104.943 362.428 104.943 361.593V359.177H104.164V358.32H104.943V356.739H106.012V358.32H107.282V359.177H106.012V361.571C106.012 362.016 106.012 362.328 106.146 362.539C106.235 362.718 106.391 362.807 106.691 362.807C107.003 362.807 107.237 362.684 107.237 362.684L107.304 363.541Z" fill="#3C3E3E"/>
<path d="M100.122 362.15V362.161C100.567 362.628 101.19 362.918 101.68 362.918C102.17 362.918 102.693 362.74 102.693 362.161C102.693 361.638 102.07 361.471 101.502 361.281L101.268 361.203C100.556 360.97 99.9434 360.58 99.9434 359.734C99.9434 358.754 100.79 358.219 101.725 358.219C102.66 358.219 103.194 358.553 103.528 358.91L103.083 359.567C102.771 359.244 102.259 358.999 101.747 358.999C101.235 358.999 100.901 359.222 100.901 359.656C100.901 360.09 101.413 360.279 101.936 360.446L102.649 360.702C103.239 360.947 103.684 361.359 103.684 362.049C103.684 363.196 102.738 363.72 101.669 363.72C100.778 363.72 100.055 363.352 99.6094 362.773L100.122 362.15Z" fill="#3C3E3E"/>
<path d="M300.301 350.15V350.161C300.747 350.628 301.37 350.918 301.86 350.918C302.35 350.918 302.873 350.74 302.873 350.161C302.873 349.638 302.25 349.471 301.682 349.281L301.448 349.203C300.735 348.97 300.123 348.58 300.123 347.734C300.123 346.754 300.969 346.219 301.904 346.219C302.84 346.219 303.374 346.553 303.708 346.91L303.263 347.567C302.951 347.244 302.439 346.999 301.927 346.999C301.415 346.999 301.081 347.222 301.081 347.656C301.081 348.09 301.593 348.279 302.116 348.446L302.829 348.702C303.419 348.947 303.864 349.359 303.864 350.049C303.864 351.196 302.918 351.72 301.849 351.72C300.958 351.72 300.234 351.352 299.789 350.773L300.301 350.15Z" fill="#3C3E3E"/>
<path d="M297.548 344.572C297.548 344.193 297.837 343.915 298.249 343.915C298.65 343.915 298.94 344.193 298.94 344.572C298.94 344.95 298.65 345.229 298.249 345.229C297.837 345.229 297.548 344.95 297.548 344.572ZM297.715 346.309H298.784V351.597H297.715V346.309Z" fill="#3C3E3E"/>
<path d="M291.626 343.915H292.684V347.144H292.706C292.984 346.62 293.563 346.208 294.331 346.208C295.857 346.208 296.224 347.188 296.224 348.446V351.597H295.155V348.602C295.155 347.845 295.033 347.088 294.064 347.088C293.096 347.088 292.684 347.923 292.684 348.981V351.597H291.626V343.915Z" fill="#3C3E3E"/>
<path d="M290.685 351.541C290.406 351.664 290.083 351.72 289.716 351.72C289.159 351.72 288.814 351.508 288.591 351.174C288.369 350.84 288.324 350.428 288.324 349.593V347.177H287.545V346.32H288.324V344.739H289.393V346.32H290.662V347.177H289.393V349.571C289.393 350.016 289.393 350.328 289.527 350.539C289.616 350.718 289.772 350.807 290.072 350.807C290.384 350.807 290.618 350.684 290.618 350.684L290.685 351.541Z" fill="#3C3E3E"/>
<path d="M284.416 350.484C284.416 351.653 284.227 352.298 283.837 352.766C283.448 353.245 282.791 353.779 281.477 353.779C280.174 353.779 279.272 353.1 279.117 352.989L279.618 352.243C279.896 352.488 280.72 352.911 281.51 352.911C282.301 352.911 282.746 352.599 282.958 352.332C283.169 352.076 283.359 351.575 283.359 350.851V350.562C282.98 351.118 282.379 351.53 281.477 351.53C280.13 351.53 278.938 350.539 278.938 348.925C278.938 347.166 280.13 346.208 281.488 346.208C282.345 346.208 282.969 346.587 283.336 347.132H283.359V346.308H284.416V350.484ZM281.711 350.662C282.768 350.662 283.392 349.871 283.392 348.891C283.392 347.834 282.768 347.066 281.711 347.066C280.653 347.066 280.03 347.845 280.03 348.891C280.03 349.871 280.653 350.662 281.711 350.662Z" fill="#3C3E3E"/>
<path d="M273.271 346.308H274.34L274.329 347.21C274.619 346.587 275.298 346.208 275.977 346.208C277.48 346.208 277.87 347.199 277.87 348.468V351.597H276.801V348.647C276.801 347.756 276.645 347.088 275.699 347.088C274.708 347.088 274.34 347.923 274.34 348.936V351.597H273.271V346.308Z" fill="#3C3E3E"/>
<path d="M270.518 344.572C270.518 344.193 270.807 343.915 271.219 343.915C271.62 343.915 271.909 344.193 271.909 344.572C271.909 344.95 271.62 345.229 271.219 345.229C270.807 345.229 270.518 344.95 270.518 344.572ZM270.685 346.309H271.753V351.597H270.685V346.309Z" fill="#3C3E3E"/>
<path d="M269.754 351.541C269.476 351.664 269.153 351.72 268.785 351.72C268.229 351.72 267.884 351.508 267.661 351.174C267.438 350.84 267.394 350.428 267.394 349.593V347.177H266.614V346.32H267.394V344.739H268.462V346.32H269.732V347.177H268.462V349.571C268.462 350.016 268.462 350.328 268.596 350.539C268.685 350.718 268.841 350.807 269.142 350.807C269.453 350.807 269.687 350.684 269.687 350.684L269.754 351.541Z" fill="#3C3E3E"/>
<path d="M265.91 350.884C265.844 350.94 265.164 351.719 263.583 351.719C262.014 351.719 260.934 350.628 260.934 348.947C260.934 347.277 262.147 346.208 263.617 346.208C265.086 346.208 266.122 347.255 266.122 348.736C266.122 348.936 266.089 349.203 266.089 349.203H262.014C262.069 350.25 262.737 350.884 263.717 350.884C264.708 350.884 265.343 350.35 265.465 350.272L265.91 350.884ZM265.109 348.491C265.098 347.901 264.652 346.976 263.583 346.976C262.526 346.976 262.058 347.856 262.025 348.491H265.109Z" fill="#3C3E3E"/>
<path d="M258.703 343.915H259.761V351.597H258.703V343.915Z" fill="#3C3E3E"/>
<path d="M252.06 346.308H253.084V347.143C253.551 346.52 254.208 346.208 254.988 346.208C256.546 346.208 257.537 347.377 257.537 348.947C257.537 350.517 256.535 351.719 254.965 351.719C254.13 351.719 253.518 351.363 253.14 350.773L253.128 351.842V353.668H252.06V346.308ZM254.765 350.806C255.823 350.806 256.446 349.994 256.446 348.936C256.446 347.878 255.823 347.077 254.765 347.077C253.707 347.077 253.084 347.878 253.084 348.936C253.084 349.994 253.707 350.806 254.765 350.806Z" fill="#3C3E3E"/>
<path d="M242.925 346.308H243.994L243.983 347.143H244.016C244.261 346.654 244.84 346.208 245.541 346.208C246.321 346.208 246.866 346.565 247.111 347.255C247.467 346.587 248.046 346.208 248.792 346.208C250.206 346.208 250.585 347.244 250.585 348.39V351.597H249.527V348.513C249.527 347.901 249.416 347.088 248.558 347.088C247.712 347.088 247.289 347.901 247.289 348.847V351.597H246.22V348.513C246.22 347.734 246.031 347.088 245.263 347.088C244.417 347.088 243.994 347.901 243.994 348.847V351.597H242.925V346.308Z" fill="#3C3E3E"/>
<path d="M236.208 348.969C236.208 347.333 237.433 346.208 239.014 346.208C240.584 346.208 241.808 347.333 241.808 348.969C241.808 350.617 240.584 351.719 239.014 351.719C237.433 351.719 236.208 350.617 236.208 348.969ZM239.014 350.806C240.071 350.806 240.728 349.983 240.728 348.936C240.728 347.901 240.071 347.077 239.014 347.077C237.945 347.077 237.288 347.901 237.288 348.936C237.288 349.983 237.945 350.806 239.014 350.806Z" fill="#3C3E3E"/>
<path d="M235.711 350.918C235.711 350.918 235.11 351.719 233.596 351.719C232.171 351.719 230.924 350.651 230.924 348.958C230.924 347.255 232.226 346.208 233.629 346.208C235.043 346.208 235.622 346.899 235.678 346.965L235.299 347.745C235.121 347.567 234.654 347.099 233.718 347.099C232.783 347.099 232.004 347.812 232.004 348.925C232.004 350.038 232.694 350.806 233.718 350.806C234.754 350.806 235.333 350.138 235.333 350.138L235.711 350.918Z" fill="#3C3E3E"/>
<path d="M222.475 343.915H223.532V346.576C223.532 346.721 223.521 346.999 223.521 347.188C223.911 346.531 224.601 346.208 225.403 346.208C226.95 346.208 227.952 347.389 227.952 348.947C227.952 350.517 226.95 351.72 225.381 351.72C224.612 351.72 223.955 351.408 223.521 350.762H223.499V351.597H222.475V343.915ZM225.18 350.807C226.238 350.807 226.861 349.994 226.861 348.936C226.861 347.878 226.238 347.077 225.18 347.077C224.122 347.077 223.488 347.878 223.488 348.936C223.488 349.994 224.122 350.807 225.18 350.807Z" fill="#3C3E3E"/>
<path d="M215.702 348.969C215.702 347.333 216.927 346.208 218.508 346.208C220.078 346.208 221.302 347.333 221.302 348.969C221.302 350.617 220.078 351.719 218.508 351.719C216.927 351.719 215.702 350.617 215.702 348.969ZM218.508 350.806C219.566 350.806 220.222 349.983 220.222 348.936C220.222 347.901 219.566 347.077 218.508 347.077C217.439 347.077 216.782 347.901 216.782 348.936C216.782 349.983 217.439 350.806 218.508 350.806Z" fill="#3C3E3E"/>
<path d="M213.304 344.572C213.304 344.193 213.594 343.915 214.006 343.915C214.407 343.915 214.696 344.193 214.696 344.572C214.696 344.95 214.407 345.229 214.006 345.229C213.594 345.229 213.304 344.95 213.304 344.572ZM212.213 352.844C212.213 352.844 212.436 352.922 212.714 352.922C213.405 352.922 213.471 352.31 213.471 351.575V346.309H214.54V351.608C214.54 352.221 214.451 352.777 214.151 353.189C213.95 353.468 213.56 353.779 212.87 353.779C212.436 353.779 212.202 353.69 212.202 353.69L212.213 352.844Z" fill="#3C3E3E"/>
<path d="M210.323 351.541C210.045 351.664 209.722 351.72 209.355 351.72C208.798 351.72 208.453 351.508 208.23 351.174C208.007 350.84 207.963 350.428 207.963 349.593V347.177H207.184V346.32H207.963V344.739H209.032V346.32H210.301V347.177H209.032V349.571C209.032 350.016 209.032 350.328 209.165 350.539C209.254 350.718 209.41 350.807 209.711 350.807C210.023 350.807 210.257 350.684 210.257 350.684L210.323 351.541Z" fill="#3C3E3E"/>
<path d="M205.333 350.929C205.122 351.152 204.621 351.719 203.652 351.719C202.672 351.719 201.826 351.107 201.826 350.083C201.826 349.047 202.672 348.524 203.897 348.468L205.311 348.413V348.201C205.311 347.4 204.765 346.999 203.997 346.999C203.229 346.999 202.583 347.344 202.405 347.455L202.082 346.743C202.472 346.52 203.184 346.208 204.064 346.208C204.944 346.208 205.456 346.453 205.812 346.809C206.168 347.177 206.38 347.622 206.38 348.524V351.597H205.344L205.333 350.929ZM204.086 349.136C203.229 349.181 202.884 349.548 202.884 350.049C202.884 350.55 203.274 350.962 203.975 350.962C204.665 350.962 205.122 350.495 205.322 350.194V349.058L204.086 349.136Z" fill="#3C3E3E"/>
<path d="M200.891 350.884C200.824 350.94 200.145 351.719 198.564 351.719C196.994 351.719 195.914 350.628 195.914 348.947C195.914 347.277 197.128 346.208 198.597 346.208C200.067 346.208 201.102 347.255 201.102 348.736C201.102 348.936 201.069 349.203 201.069 349.203H196.994C197.05 350.25 197.718 350.884 198.697 350.884C199.688 350.884 200.323 350.35 200.445 350.272L200.891 350.884ZM200.089 348.491C200.078 347.901 199.633 346.976 198.564 346.976C197.506 346.976 197.039 347.856 197.005 348.491H200.089Z" fill="#3C3E3E"/>
<path d="M192.595 346.308H193.664L193.652 347.121H193.686C193.942 346.52 194.421 346.208 194.988 346.208C195.345 346.208 195.545 346.297 195.545 346.297L195.478 347.288H195.434C195.334 347.244 195.144 347.177 194.855 347.177C194.387 347.177 194.098 347.478 193.986 347.622C193.886 347.767 193.664 348.179 193.664 348.958V351.597H192.595V346.308Z" fill="#3C3E3E"/>
<path d="M188.018 347.5H191.135V350.484C190.991 350.628 190.055 351.731 187.873 351.731C185.68 351.731 183.954 350.15 183.954 347.756C183.954 345.362 185.68 343.803 187.862 343.803C189.833 343.803 190.679 344.839 190.968 345.14L190.234 345.819C189.777 345.284 189.065 344.728 187.862 344.728C186.281 344.728 185.067 345.863 185.067 347.756C185.067 349.649 186.326 350.784 187.929 350.784C189.521 350.784 190.089 350.083 190.089 350.083V348.379H188.018V347.5Z" fill="#3C3E3E"/>
<path d="M178.911 351.018C178.911 350.584 179.223 350.317 179.657 350.317C180.08 350.317 180.392 350.584 180.392 351.018C180.392 351.441 180.08 351.708 179.657 351.708C179.223 351.708 178.911 351.441 178.911 351.018Z" fill="#3C3E3E"/>
<path d="M172.666 343.915H173.724V347.144H173.746C174.024 346.62 174.603 346.208 175.372 346.208C176.897 346.208 177.264 347.188 177.264 348.446V351.597H176.195V348.602C176.195 347.845 176.073 347.088 175.104 347.088C174.136 347.088 173.724 347.923 173.724 348.981V351.597H172.666V343.915Z" fill="#3C3E3E"/>
<path d="M171.132 350.484C171.132 351.653 170.943 352.298 170.553 352.766C170.163 353.245 169.507 353.779 168.193 353.779C166.89 353.779 165.988 353.1 165.832 352.989L166.333 352.243C166.612 352.488 167.436 352.911 168.226 352.911C169.017 352.911 169.462 352.599 169.674 352.332C169.885 352.076 170.074 351.575 170.074 350.851V350.562C169.696 351.118 169.095 351.53 168.193 351.53C166.846 351.53 165.654 350.539 165.654 348.925C165.654 347.166 166.846 346.208 168.204 346.208C169.061 346.208 169.685 346.587 170.052 347.132H170.074V346.308H171.132V350.484ZM168.427 350.662C169.484 350.662 170.108 349.871 170.108 348.891C170.108 347.834 169.484 347.066 168.427 347.066C167.369 347.066 166.745 347.845 166.745 348.891C166.745 349.871 167.369 350.662 168.427 350.662Z" fill="#3C3E3E"/>
<path d="M163.493 350.84C163.204 351.352 162.602 351.72 161.856 351.72C161.099 351.72 160.665 351.463 160.387 351.107C160.12 350.751 159.997 350.228 159.997 349.47V346.297H161.055V349.426C161.055 350.15 161.211 350.829 162.157 350.829C163.092 350.829 163.471 350.027 163.471 349.136V346.297H164.54V351.597H163.504L163.493 350.84Z" fill="#3C3E3E"/>
<path d="M153.325 348.969C153.325 347.333 154.55 346.208 156.131 346.208C157.701 346.208 158.925 347.333 158.925 348.969C158.925 350.617 157.701 351.719 156.131 351.719C154.55 351.719 153.325 350.617 153.325 348.969ZM156.131 350.806C157.189 350.806 157.846 349.983 157.846 348.936C157.846 347.901 157.189 347.077 156.131 347.077C155.062 347.077 154.405 347.901 154.405 348.936C154.405 349.983 155.062 350.806 156.131 350.806Z" fill="#3C3E3E"/>
<path d="M152.796 351.541C152.518 351.664 152.195 351.72 151.827 351.72C151.271 351.72 150.925 351.508 150.703 351.174C150.48 350.84 150.436 350.428 150.436 349.593V347.177H149.656V346.32H150.436V344.739H151.504V346.32H152.774V347.177H151.504V349.571C151.504 350.016 151.504 350.328 151.638 350.539C151.727 350.718 151.883 350.807 152.184 350.807C152.495 350.807 152.729 350.684 152.729 350.684L152.796 351.541Z" fill="#3C3E3E"/>
<path d="M146.733 350.884C146.666 350.94 145.987 351.719 144.406 351.719C142.836 351.719 141.756 350.628 141.756 348.947C141.756 347.277 142.969 346.208 144.439 346.208C145.909 346.208 146.944 347.255 146.944 348.736C146.944 348.936 146.911 349.203 146.911 349.203H142.836C142.891 350.25 143.56 350.884 144.539 350.884C145.53 350.884 146.165 350.35 146.287 350.272L146.733 350.884ZM145.931 348.491C145.92 347.901 145.475 346.976 144.406 346.976C143.348 346.976 142.88 347.856 142.847 348.491H145.931Z" fill="#3C3E3E"/>
<path d="M135.525 343.915H136.583V346.576C136.583 346.721 136.572 346.999 136.572 347.188C136.962 346.531 137.652 346.208 138.454 346.208C140.001 346.208 141.003 347.389 141.003 348.947C141.003 350.517 140.001 351.72 138.431 351.72C137.663 351.72 137.006 351.408 136.572 350.762H136.55V351.597H135.525V343.915ZM138.231 350.807C139.289 350.807 139.912 349.994 139.912 348.936C139.912 347.878 139.289 347.077 138.231 347.077C137.173 347.077 136.539 347.878 136.539 348.936C136.539 349.994 137.173 350.807 138.231 350.807Z" fill="#3C3E3E"/>
<path d="M127.228 346.308H128.296L128.285 347.21C128.575 346.587 129.254 346.208 129.933 346.208C131.436 346.208 131.826 347.199 131.826 348.468V351.597H130.757V348.647C130.757 347.756 130.601 347.088 129.655 347.088C128.664 347.088 128.296 347.923 128.296 348.936V351.597H127.228V346.308Z" fill="#3C3E3E"/>
<path d="M124.81 350.929C124.598 351.152 124.097 351.719 123.129 351.719C122.149 351.719 121.303 351.107 121.303 350.083C121.303 349.047 122.149 348.524 123.374 348.468L124.788 348.413V348.201C124.788 347.4 124.242 346.999 123.474 346.999C122.706 346.999 122.06 347.344 121.882 347.455L121.559 346.743C121.948 346.52 122.661 346.208 123.541 346.208C124.42 346.208 124.932 346.453 125.289 346.809C125.645 347.177 125.856 347.622 125.856 348.524V351.597H124.821L124.81 350.929ZM123.563 349.136C122.706 349.181 122.36 349.548 122.36 350.049C122.36 350.55 122.75 350.962 123.452 350.962C124.142 350.962 124.598 350.495 124.799 350.194V349.058L123.563 349.136Z" fill="#3C3E3E"/>
<path d="M120.677 350.918C120.677 350.918 120.076 351.719 118.562 351.719C117.137 351.719 115.89 350.651 115.89 348.958C115.89 347.255 117.192 346.208 118.595 346.208C120.009 346.208 120.588 346.899 120.644 346.965L120.265 347.745C120.087 347.567 119.619 347.099 118.684 347.099C117.749 347.099 116.97 347.812 116.97 348.925C116.97 350.038 117.66 350.806 118.684 350.806C119.72 350.806 120.299 350.138 120.299 350.138L120.677 350.918Z" fill="#3C3E3E"/>
<path d="M109.418 350.15V350.161C109.864 350.628 110.487 350.918 110.977 350.918C111.467 350.918 111.99 350.74 111.99 350.161C111.99 349.638 111.367 349.471 110.799 349.281L110.565 349.203C109.853 348.97 109.24 348.58 109.24 347.734C109.24 346.754 110.086 346.219 111.022 346.219C111.957 346.219 112.491 346.553 112.825 346.91L112.38 347.567C112.068 347.244 111.556 346.999 111.044 346.999C110.532 346.999 110.198 347.222 110.198 347.656C110.198 348.09 110.71 348.279 111.233 348.446L111.946 348.702C112.536 348.947 112.981 349.359 112.981 350.049C112.981 351.196 112.035 351.72 110.966 351.72C110.075 351.72 109.352 351.352 108.906 350.773L109.418 350.15Z" fill="#3C3E3E"/>
<path d="M108.532 351.541C108.254 351.664 107.931 351.72 107.564 351.72C107.007 351.72 106.662 351.508 106.439 351.174C106.216 350.84 106.172 350.428 106.172 349.593V347.177H105.393V346.32H106.172V344.739H107.241V346.32H108.51V347.177H107.241V349.571C107.241 350.016 107.241 350.328 107.374 350.539C107.463 350.718 107.619 350.807 107.92 350.807C108.232 350.807 108.465 350.684 108.465 350.684L108.532 351.541Z" fill="#3C3E3E"/>
<path d="M99.373 343.915H100.431V346.576C100.431 346.721 100.42 346.999 100.42 347.188C100.809 346.531 101.5 346.208 102.301 346.208C103.849 346.208 104.851 347.389 104.851 348.947C104.851 350.517 103.849 351.72 102.279 351.72C101.511 351.72 100.854 351.408 100.42 350.762H100.397V351.597H99.373V343.915ZM102.079 350.807C103.136 350.807 103.76 349.994 103.76 348.936C103.76 347.878 103.136 347.077 102.079 347.077C101.021 347.077 100.386 347.878 100.386 348.936C100.386 349.994 101.021 350.807 102.079 350.807Z" fill="#3C3E3E"/>
<path d="M98.0442 350.884C97.9774 350.94 97.2982 351.719 95.7172 351.719C94.1474 351.719 93.0674 350.628 93.0674 348.947C93.0674 347.277 94.281 346.208 95.7506 346.208C97.2203 346.208 98.2557 347.255 98.2557 348.736C98.2557 348.936 98.2223 349.203 98.2223 349.203H94.1474C94.203 350.25 94.8711 350.884 95.8508 350.884C96.8417 350.884 97.4764 350.35 97.5988 350.272L98.0442 350.884ZM97.2425 348.491C97.2314 347.901 96.7861 346.976 95.7172 346.976C94.6595 346.976 94.1919 347.856 94.1585 348.491H97.2425Z" fill="#3C3E3E"/>
<path d="M90.8783 351.597V350.751C90.4441 351.397 89.7649 351.72 88.9967 351.72C87.4268 351.72 86.4248 350.517 86.4248 348.947C86.4248 347.389 87.4268 346.208 88.9744 346.208C89.8317 346.208 90.4552 346.587 90.8226 347.132H90.8449V343.915H91.9026V351.597H90.8783ZM89.1971 350.807C90.2548 350.807 90.8783 349.994 90.8783 348.936C90.8783 347.878 90.2548 347.077 89.1971 347.077C88.1394 347.077 87.5159 347.878 87.5159 348.936C87.5159 349.994 88.1394 350.807 89.1971 350.807Z" fill="#3C3E3E"/>
<path d="M83.0843 350.484C83.0843 351.653 82.895 352.298 82.5053 352.766C82.1156 353.245 81.4587 353.779 80.1449 353.779C78.8423 353.779 77.9405 353.1 77.7846 352.989L78.2856 352.243C78.5639 352.488 79.3878 352.911 80.1783 352.911C80.9688 352.911 81.4142 352.599 81.6257 352.332C81.8373 352.076 82.0265 351.575 82.0265 350.851V350.562C81.648 351.118 81.0468 351.53 80.1449 351.53C78.7978 351.53 77.6064 350.539 77.6064 348.925C77.6064 347.166 78.7978 346.208 80.1561 346.208C81.0134 346.208 81.6369 346.587 82.0043 347.132H82.0265V346.308H83.0843V350.484ZM80.3788 350.662C81.4365 350.662 82.0599 349.871 82.0599 348.891C82.0599 347.834 81.4365 347.066 80.3788 347.066C79.321 347.066 78.6976 347.845 78.6976 348.891C78.6976 349.871 79.321 350.662 80.3788 350.662Z" fill="#3C3E3E"/>
<path d="M71.9395 346.308H73.0083L72.9972 347.21C73.2866 346.587 73.9658 346.208 74.645 346.208C76.148 346.208 76.5377 347.199 76.5377 348.468V351.597H75.4689V348.647C75.4689 347.756 75.313 347.088 74.3666 347.088C73.3757 347.088 73.0083 347.923 73.0083 348.936V351.597H71.9395V346.308Z" fill="#3C3E3E"/>
<path d="M69.1855 344.572C69.1855 344.193 69.475 343.915 69.887 343.915C70.2878 343.915 70.5773 344.193 70.5773 344.572C70.5773 344.95 70.2878 345.229 69.887 345.229C69.475 345.229 69.1855 344.95 69.1855 344.572ZM69.3526 346.309H70.4214V351.597H69.3526V346.309Z" fill="#3C3E3E"/>
<path d="M68.4229 351.541C68.1446 351.664 67.8217 351.72 67.4543 351.72C66.8976 351.72 66.5525 351.508 66.3298 351.174C66.1071 350.84 66.0626 350.428 66.0626 349.593V347.177H65.2832V346.32H66.0626V344.739H67.1314V346.32H68.4007V347.177H67.1314V349.571C67.1314 350.016 67.1314 350.328 67.265 350.539C67.3541 350.718 67.51 350.807 67.8106 350.807C68.1223 350.807 68.3561 350.684 68.3561 350.684L68.4229 351.541Z" fill="#3C3E3E"/>
<path d="M61.2407 350.15V350.161C61.686 350.628 62.3095 350.918 62.7994 350.918C63.2893 350.918 63.8126 350.74 63.8126 350.161C63.8126 349.638 63.1891 349.471 62.6213 349.281L62.3874 349.203C61.6749 348.97 61.0625 348.58 61.0625 347.734C61.0625 346.754 61.9087 346.219 62.8439 346.219C63.7792 346.219 64.3136 346.553 64.6476 346.91L64.2022 347.567C63.8905 347.244 63.3784 346.999 62.8662 346.999C62.354 346.999 62.02 347.222 62.02 347.656C62.02 348.09 62.5322 348.279 63.0555 348.446L63.768 348.702C64.3581 348.947 64.8035 349.359 64.8035 350.049C64.8035 351.196 63.8571 351.72 62.7883 351.72C61.8976 351.72 61.1739 351.352 60.7285 350.773L61.2407 350.15Z" fill="#3C3E3E"/>
<path d="M58.4873 344.572C58.4873 344.193 58.7768 343.915 59.1887 343.915C59.5895 343.915 59.879 344.193 59.879 344.572C59.879 344.95 59.5895 345.229 59.1887 345.229C58.7768 345.229 58.4873 344.95 58.4873 344.572ZM58.6543 346.309H59.7232V351.597H58.6543V346.309Z" fill="#3C3E3E"/>
<path d="M53.9258 343.915H55.0058V350.684H57.7113V351.597H53.9258V343.915Z" fill="#3C3E3E"/>
<g clip-path="url(#clip2_6290_207472)">
<rect width="25.7684" height="9.66317" transform="translate(93.5361 376.913)" fill="#BED73C"/>
</g>
<path d="M98.3677 377.316H114.473C116.919 377.316 118.902 379.299 118.902 381.745C118.902 384.191 116.919 386.174 114.473 386.174H98.3677C95.9217 386.174 93.9388 384.191 93.9388 381.745C93.9388 379.299 95.9217 377.316 98.3677 377.316Z" stroke="#004357" stroke-width="0.805264"/>
<g clip-path="url(#clip3_6290_207472)">
<rect width="25.7684" height="9.66317" transform="translate(122.525 376.913)" fill="#BED73C"/>
</g>
<path d="M127.357 377.316H143.462C145.908 377.316 147.891 379.299 147.891 381.745C147.891 384.191 145.908 386.174 143.462 386.174H127.357C124.911 386.174 122.928 384.191 122.928 381.745C122.928 379.299 124.911 377.316 127.357 377.316Z" stroke="#004357" stroke-width="0.805264"/>
<g clip-path="url(#clip4_6290_207472)">
<rect width="25.7684" height="9.66317" transform="translate(151.515 376.913)" fill="#BED73C"/>
</g>
<path d="M156.346 377.316H172.452C174.898 377.316 176.88 379.299 176.88 381.745C176.88 384.191 174.898 386.174 172.452 386.174H156.346C153.9 386.174 151.917 384.191 151.917 381.745C151.917 379.299 153.9 377.316 156.346 377.316Z" stroke="#004357" stroke-width="0.805264"/>
<g clip-path="url(#clip5_6290_207472)">
<rect width="25.7684" height="9.66317" transform="translate(180.505 376.913)" fill="#BED73C"/>
</g>
<path d="M185.336 377.316H201.442C203.888 377.316 205.871 379.299 205.871 381.745C205.871 384.191 203.888 386.174 201.442 386.174H185.336C182.89 386.174 180.908 384.191 180.908 381.745C180.908 379.299 182.89 377.316 185.336 377.316Z" stroke="#004357" stroke-width="0.805264"/>
<g clip-path="url(#clip6_6290_207472)">
<rect width="9.66317" height="9.66317" transform="translate(209.494 376.913)" fill="#BED73C"/>
</g>
<path d="M214.326 377.316H230.431C232.877 377.316 234.86 379.299 234.86 381.745C234.86 384.191 232.877 386.174 230.431 386.174H214.326C211.88 386.174 209.897 384.191 209.897 381.745C209.897 379.299 211.88 377.316 214.326 377.316Z" stroke="#004357" stroke-width="0.805264"/>
<g clip-path="url(#clip7_6290_207472)">
</g>
<path d="M243.315 377.316H259.42C261.866 377.316 263.849 379.299 263.849 381.745C263.849 384.191 261.866 386.174 259.42 386.174H243.315C240.869 386.174 238.886 384.191 238.886 381.745C238.886 379.299 240.869 377.316 243.315 377.316Z" stroke="#004357" stroke-width="0.805264"/>
</g>
<path d="M56.317 389.52C56.7876 389.317 57.3335 389.534 57.5362 390.005L60.8407 397.673C61.0434 398.144 60.8263 398.69 60.3557 398.892C59.8852 399.095 59.3393 398.878 59.1365 398.408L56.1993 391.591L49.3827 394.528C48.9121 394.731 48.3662 394.514 48.1634 394.043C47.9606 393.573 48.1777 393.027 48.6483 392.824L56.317 389.52ZM57.5463 390.715C48.4821 413.505 54.0567 430.487 64.8648 441.22C75.7444 452.024 91.986 456.562 104.318 454.249L104.66 456.073C91.7084 458.502 74.8553 453.757 63.5572 442.537C52.1875 431.246 46.5014 413.464 55.822 390.029L57.5463 390.715Z" fill="#004357"/>
<path d="M49.0498 73.7739C49.0498 71.6505 50.7712 69.9292 52.8946 69.9292H293.811C295.934 69.9292 297.655 71.6506 297.655 73.7739V100.458C297.655 102.582 295.934 104.303 293.811 104.303H52.8946C50.7712 104.303 49.0498 102.582 49.0498 100.458V73.7739Z" fill="white" stroke="#004357" stroke-width="0.69586"/>
<path d="M60.8302 85.7468C60.0648 85.7468 59.4385 86.3731 59.4385 87.1385C59.4385 87.904 60.0648 88.5303 60.8302 88.5303C61.5956 88.5303 62.2219 87.904 62.2219 87.1385C62.2219 86.3731 61.5956 85.7468 60.8302 85.7468ZM69.1805 85.7468C68.4151 85.7468 67.7888 86.3731 67.7888 87.1385C67.7888 87.904 68.4151 88.5303 69.1805 88.5303C69.946 88.5303 70.5722 87.904 70.5722 87.1385C70.5722 86.3731 69.946 85.7468 69.1805 85.7468ZM65.0054 85.7468C64.2399 85.7468 63.6136 86.3731 63.6136 87.1385C63.6136 87.904 64.2399 88.5303 65.0054 88.5303C65.7708 88.5303 66.3971 87.904 66.3971 87.1385C66.3971 86.3731 65.7708 85.7468 65.0054 85.7468Z" fill="#3C3E3E"/>
<path d="M55.0498 107.774C55.0498 105.651 56.7712 103.929 58.8946 103.929H299.811C301.934 103.929 303.655 105.651 303.655 107.774V135.715C303.655 137.838 301.934 139.56 299.811 139.56H58.8946C56.7712 139.56 55.0498 137.838 55.0498 135.715V107.774Z" fill="white" stroke="#004357" stroke-width="0.69586"/>
<path d="M66.3966 120.54C65.6312 120.54 65.0049 121.166 65.0049 121.932C65.0049 122.697 65.6312 123.323 66.3966 123.323C67.162 123.323 67.7883 122.697 67.7883 121.932C67.7883 121.166 67.162 120.54 66.3966 120.54ZM74.7469 120.54C73.9815 120.54 73.3552 121.166 73.3552 121.932C73.3552 122.697 73.9815 123.323 74.7469 123.323C75.5124 123.323 76.1386 122.697 76.1386 121.932C76.1386 121.166 75.5124 120.54 74.7469 120.54ZM70.5718 120.54C69.8063 120.54 69.18 121.166 69.18 121.932C69.18 122.697 69.8063 123.323 70.5718 123.323C71.3372 123.323 71.9635 122.697 71.9635 121.932C71.9635 121.166 71.3372 120.54 70.5718 120.54Z" fill="white"/>
<path d="M49.0498 142.774C49.0498 140.651 50.7712 138.929 52.8946 138.929H293.811C295.934 138.929 297.655 140.651 297.655 142.774V170.715C297.655 172.838 295.934 174.56 293.811 174.56H52.8946C50.7712 174.56 49.0498 172.838 49.0498 170.715V142.774Z" fill="white" stroke="#004357" stroke-width="0.69586"/>
<path d="M60.8302 155.333C60.0648 155.333 59.4385 155.959 59.4385 156.724C59.4385 157.49 60.0648 158.116 60.8302 158.116C61.5956 158.116 62.2219 157.49 62.2219 156.724C62.2219 155.959 61.5956 155.333 60.8302 155.333ZM69.1805 155.333C68.4151 155.333 67.7888 155.959 67.7888 156.724C67.7888 157.49 68.4151 158.116 69.1805 158.116C69.946 158.116 70.5722 157.49 70.5722 156.724C70.5722 155.959 69.946 155.333 69.1805 155.333ZM65.0054 155.333C64.2399 155.333 63.6136 155.959 63.6136 156.724C63.6136 157.49 64.2399 158.116 65.0054 158.116C65.7708 158.116 66.3971 157.49 66.3971 156.724C66.3971 155.959 65.7708 155.333 65.0054 155.333Z" fill="#3C3E3E"/>
<path d="M55.0498 177.774C55.0498 175.651 56.7712 173.929 58.8946 173.929H299.811C301.934 173.929 303.655 175.651 303.655 177.774V205.715C303.655 207.838 301.934 209.56 299.811 209.56H58.8946C56.7712 209.56 55.0498 207.838 55.0498 205.715V177.774Z" fill="white" stroke="#004357" stroke-width="0.69586"/>
<path d="M66.3966 190.126C65.6312 190.126 65.0049 190.752 65.0049 191.518C65.0049 192.283 65.6312 192.91 66.3966 192.91C67.162 192.91 67.7883 192.283 67.7883 191.518C67.7883 190.752 67.162 190.126 66.3966 190.126ZM74.7469 190.126C73.9815 190.126 73.3552 190.752 73.3552 191.518C73.3552 192.283 73.9815 192.91 74.7469 192.91C75.5124 192.91 76.1386 192.283 76.1386 191.518C76.1386 190.752 75.5124 190.126 74.7469 190.126ZM70.5718 190.126C69.8063 190.126 69.18 190.752 69.18 191.518C69.18 192.283 69.8063 192.91 70.5718 192.91C71.3372 192.91 71.9635 192.283 71.9635 191.518C71.9635 190.752 71.3372 190.126 70.5718 190.126Z" fill="#3C3E3E"/>
<defs>
<clipPath id="clip0_6290_207472">
<rect width="51.9575" height="51.9575" fill="white" transform="translate(261.072 209.81)"/>
</clipPath>
<clipPath id="clip1_6290_207472">
<path d="M42.042 310.374C42.042 307.917 44.034 305.925 46.4912 305.925H311.298C313.755 305.925 315.747 307.917 315.747 310.374V401.081C315.747 403.538 313.755 405.53 311.298 405.53H46.4912C44.034 405.53 42.042 403.538 42.042 401.081V310.374Z" fill="white"/>
</clipPath>
<clipPath id="clip2_6290_207472">
<path d="M93.5361 381.745C93.5361 379.076 95.6993 376.913 98.3677 376.913H114.473C117.141 376.913 119.305 379.076 119.305 381.745V381.745C119.305 384.413 117.141 386.576 114.473 386.576H98.3677C95.6993 386.576 93.5361 384.413 93.5361 381.745V381.745Z" fill="white"/>
</clipPath>
<clipPath id="clip3_6290_207472">
<path d="M122.525 381.745C122.525 379.076 124.689 376.913 127.357 376.913H143.462C146.131 376.913 148.294 379.076 148.294 381.745V381.745C148.294 384.413 146.131 386.576 143.462 386.576H127.357C124.689 386.576 122.525 384.413 122.525 381.745V381.745Z" fill="white"/>
</clipPath>
<clipPath id="clip4_6290_207472">
<path d="M151.515 381.745C151.515 379.076 153.678 376.913 156.346 376.913H172.452C175.12 376.913 177.283 379.076 177.283 381.745V381.745C177.283 384.413 175.12 386.576 172.452 386.576H156.346C153.678 386.576 151.515 384.413 151.515 381.745V381.745Z" fill="white"/>
</clipPath>
<clipPath id="clip5_6290_207472">
<path d="M180.505 381.745C180.505 379.076 182.668 376.913 185.336 376.913H201.442C204.11 376.913 206.273 379.076 206.273 381.745V381.745C206.273 384.413 204.11 386.576 201.442 386.576H185.336C182.668 386.576 180.505 384.413 180.505 381.745V381.745Z" fill="white"/>
</clipPath>
<clipPath id="clip6_6290_207472">
<path d="M209.494 381.745C209.494 379.076 211.657 376.913 214.326 376.913H230.431C233.099 376.913 235.263 379.076 235.263 381.745V381.745C235.263 384.413 233.099 386.576 230.431 386.576H214.326C211.657 386.576 209.494 384.413 209.494 381.745V381.745Z" fill="white"/>
</clipPath>
<clipPath id="clip7_6290_207472">
<path d="M238.483 381.745C238.483 379.076 240.647 376.913 243.315 376.913H259.42C262.089 376.913 264.252 379.076 264.252 381.745V381.745C264.252 384.413 262.089 386.576 259.42 386.576H243.315C240.647 386.576 238.483 384.413 238.483 381.745V381.745Z" fill="white"/>
</clipPath>
</defs>
</svg>
