<svg width="640" height="253" viewBox="0 0 640 253" fill="none" xmlns="http://www.w3.org/2000/svg">
<path d="M45.5246 97.5604C45.7114 97.8506 45.6275 98.2374 45.3373 98.4242L40.6072 101.468C40.3169 101.655 39.9302 101.571 39.7434 101.281C39.5566 100.991 39.6404 100.604 39.9307 100.417L44.1352 97.7113L41.4293 93.5068C41.2425 93.2165 41.3264 92.8298 41.6167 92.643C41.9069 92.4561 42.2937 92.54 42.4805 92.8303L45.5246 97.5604ZM22.3444 45.0448C15.2589 52.7046 12.9496 64.0198 16.4057 74.2921C19.8538 84.5405 29.0646 93.8035 45.1315 97.2878L44.8666 98.5094C28.4179 94.9423 18.8245 85.4011 15.221 74.6907C11.6255 64.0043 14.0173 52.2061 21.4267 44.196L22.3444 45.0448Z" fill="#004357"/>
<path d="M275.308 116.485L259.02 116.485C256.258 116.485 254.02 118.723 254.02 121.485L254.02 145.341" stroke="#BED73C" stroke-width="1.25" stroke-linecap="round" stroke-linejoin="round" stroke-dasharray="2.5 2.5"/>
<path d="M169.089 181.461L158.494 181.461C155.733 181.461 153.494 179.222 153.494 176.461L153.494 162.711" stroke="#BED73C" stroke-width="1.25" stroke-linecap="round" stroke-linejoin="round" stroke-dasharray="2.5 2.5"/>
<path d="M292.674 216.96C292.33 216.992 292.077 217.296 292.109 217.64L292.625 223.241C292.657 223.585 292.961 223.838 293.305 223.806C293.649 223.774 293.902 223.47 293.87 223.126L293.411 218.147L298.39 217.688C298.733 217.656 298.986 217.352 298.955 217.008C298.923 216.664 298.618 216.412 298.275 216.443L292.674 216.96ZM347.734 204.068C332.526 228.8 306.178 227.945 293.13 217.102L292.332 218.063C305.937 229.37 333.174 230.133 348.799 204.723L347.734 204.068Z" fill="#004357"/>
<path d="M327.192 89.5977C327.425 89.8521 327.82 89.8692 328.075 89.6359L332.221 85.8342C332.475 85.6009 332.492 85.2055 332.259 84.9511C332.025 84.6967 331.63 84.6796 331.376 84.9129L327.691 88.2922L324.311 84.6071C324.078 84.3527 323.683 84.3356 323.428 84.5689C323.174 84.8022 323.157 85.1976 323.39 85.452L327.192 89.5977ZM328.277 89.2023C329.532 60.1959 352.968 48.1251 369.643 51.2515L369.873 50.0229C352.486 46.7628 328.318 59.3468 327.028 89.1483L328.277 89.2023Z" fill="#004357"/>
<path d="M61.4629 76.4841C60.9473 76.4841 60.5254 76.906 60.5254 77.4216C60.5254 77.9373 60.9473 78.3591 61.4629 78.3591C61.9785 78.3591 62.4004 77.9373 62.4004 77.4216C62.4004 76.906 61.9785 76.4841 61.4629 76.4841ZM67.0879 76.4841C66.5723 76.4841 66.1504 76.906 66.1504 77.4216C66.1504 77.9373 66.5723 78.3591 67.0879 78.3591C67.6035 78.3591 68.0254 77.9373 68.0254 77.4216C68.0254 76.906 67.6035 76.4841 67.0879 76.4841ZM64.2754 76.4841C63.7598 76.4841 63.3379 76.906 63.3379 77.4216C63.3379 77.9373 63.7598 78.3591 64.2754 78.3591C64.791 78.3591 65.2129 77.9373 65.2129 77.4216C65.2129 76.906 64.791 76.4841 64.2754 76.4841Z" fill="#3C3E3E"/>
<path d="M65.2129 99.9216C64.6973 99.9216 64.2754 100.344 64.2754 100.859C64.2754 101.375 64.6973 101.797 65.2129 101.797C65.7285 101.797 66.1504 101.375 66.1504 100.859C66.1504 100.344 65.7285 99.9216 65.2129 99.9216ZM70.8379 99.9216C70.3223 99.9216 69.9004 100.344 69.9004 100.859C69.9004 101.375 70.3223 101.797 70.8379 101.797C71.3535 101.797 71.7754 101.375 71.7754 100.859C71.7754 100.344 71.3535 99.9216 70.8379 99.9216ZM68.0254 99.9216C67.5098 99.9216 67.0879 100.344 67.0879 100.859C67.0879 101.375 67.5098 101.797 68.0254 101.797C68.541 101.797 68.9629 101.375 68.9629 100.859C68.9629 100.344 68.541 99.9216 68.0254 99.9216Z" fill="white"/>
<path d="M61.4629 123.359C60.9473 123.359 60.5254 123.781 60.5254 124.297C60.5254 124.812 60.9473 125.234 61.4629 125.234C61.9785 125.234 62.4004 124.812 62.4004 124.297C62.4004 123.781 61.9785 123.359 61.4629 123.359ZM67.0879 123.359C66.5723 123.359 66.1504 123.781 66.1504 124.297C66.1504 124.812 66.5723 125.234 67.0879 125.234C67.6035 125.234 68.0254 124.812 68.0254 124.297C68.0254 123.781 67.6035 123.359 67.0879 123.359ZM64.2754 123.359C63.7598 123.359 63.3379 123.781 63.3379 124.297C63.3379 124.812 63.7598 125.234 64.2754 125.234C64.791 125.234 65.2129 124.812 65.2129 124.297C65.2129 123.781 64.791 123.359 64.2754 123.359Z" fill="#3C3E3E"/>
<path d="M65.2129 146.797C64.6973 146.797 64.2754 147.219 64.2754 147.734C64.2754 148.25 64.6973 148.672 65.2129 148.672C65.7285 148.672 66.1504 148.25 66.1504 147.734C66.1504 147.219 65.7285 146.797 65.2129 146.797ZM70.8379 146.797C70.3223 146.797 69.9004 147.219 69.9004 147.734C69.9004 148.25 70.3223 148.672 70.8379 148.672C71.3535 148.672 71.7754 148.25 71.7754 147.734C71.7754 147.219 71.3535 146.797 70.8379 146.797ZM68.0254 146.797C67.5098 146.797 67.0879 147.219 67.0879 147.734C67.0879 148.25 67.5098 148.672 68.0254 148.672C68.541 148.672 68.9629 148.25 68.9629 147.734C68.9629 147.219 68.541 146.797 68.0254 146.797Z" fill="#3C3E3E"/>
<path d="M261.705 227.84L254.281 221.228H272.337L264.913 227.84C263.999 228.654 262.619 228.654 261.705 227.84Z" fill="white"/>
<path d="M254.301 221.789L261.767 227.989C262.661 228.731 263.956 228.731 264.849 227.989L272.314 221.789" stroke="#004357" stroke-width="0.804077" stroke-linecap="square"/>
<g clip-path="url(#clip0_6286_127419)">
<path d="M206.116 176.917L199.007 174.285V172.774C199.007 172.494 198.774 172.261 198.494 172.261C198.214 172.261 197.981 172.494 197.981 172.774V174.401L195.76 176.233L193.538 174.401V172.781C193.538 172.501 193.306 172.268 193.025 172.268C192.745 172.268 192.513 172.501 192.513 172.781V174.292L185.403 176.924C184.139 177.395 183.284 178.619 183.284 179.966V188.661C183.284 188.941 183.517 189.174 183.797 189.174H207.723C208.003 189.174 208.235 188.941 208.235 188.661V179.959C208.235 178.612 207.381 177.388 206.116 176.917ZM192.554 177.416L193.258 175.495L194.789 176.76L192.786 177.635C192.697 177.676 192.629 177.635 192.602 177.6C192.567 177.573 192.52 177.511 192.554 177.416ZM194.796 180.622H196.724L198.528 188.141H192.991L194.796 180.622ZM196.689 179.596H194.823L194.557 177.983L195.76 177.457L196.963 177.983L196.689 179.596ZM196.73 176.76L198.262 175.495L198.966 177.416C199 177.505 198.952 177.573 198.925 177.6C198.897 177.628 198.829 177.669 198.74 177.635L196.73 176.76ZM184.31 179.959C184.31 179.036 184.891 178.195 185.759 177.874L192.164 175.502L191.59 177.067C191.426 177.525 191.542 178.017 191.891 178.345C192.123 178.564 192.41 178.674 192.704 178.674C192.868 178.674 193.032 178.639 193.189 178.571L193.586 178.4L193.866 180.089L191.938 188.141H187.728V186.261C187.728 185.981 187.495 185.749 187.215 185.749C186.935 185.749 186.702 185.981 186.702 186.261V188.141H184.31V179.959ZM207.21 188.141H204.817V186.261C204.817 185.981 204.585 185.749 204.305 185.749C204.024 185.749 203.792 185.981 203.792 186.261V188.141H199.581L197.646 180.089L197.927 178.4L198.323 178.571C198.48 178.639 198.645 178.674 198.809 178.674C199.103 178.674 199.396 178.564 199.622 178.345C199.978 178.01 200.094 177.518 199.923 177.067L199.355 175.509L205.761 177.881C206.629 178.202 207.21 179.036 207.21 179.966V188.141Z" fill="#004357"/>
<path d="M204.306 183.698C204.025 183.698 203.793 183.93 203.793 184.211V184.552C203.793 184.833 204.025 185.065 204.306 185.065C204.586 185.065 204.818 184.833 204.818 184.552V184.211C204.818 183.93 204.586 183.698 204.306 183.698Z" fill="#004357"/>
<path d="M187.215 185.065C187.495 185.065 187.728 184.833 187.728 184.552V184.211C187.728 183.93 187.495 183.698 187.215 183.698C186.935 183.698 186.702 183.93 186.702 184.211V184.552C186.702 184.833 186.935 185.065 187.215 185.065Z" fill="#004357"/>
<path d="M194.222 169.719C194.222 168.871 194.912 168.181 195.76 168.181H200.107C200.278 167.702 200.374 167.183 200.374 166.643V163.908C200.374 161.365 198.303 159.294 195.76 159.294C193.217 159.294 191.146 161.365 191.146 163.908V166.643C191.146 169.186 193.217 171.257 195.76 171.257C194.912 171.257 194.222 170.566 194.222 169.719Z" fill="#BED73C"/>
<path d="M203.279 161.687H202.425V160.832C202.425 157.154 199.437 154.167 195.76 154.167C192.082 154.167 189.095 157.154 189.095 160.832V161.687H188.24C187.201 161.687 186.36 162.527 186.36 163.566V168.352C186.36 169.391 187.201 170.231 188.24 170.231C189.279 170.231 190.12 169.391 190.12 168.352V160.832C190.12 157.722 192.649 155.192 195.76 155.192C198.87 155.192 201.399 157.722 201.399 160.832V169.206H195.76C195.479 169.206 195.247 169.438 195.247 169.719C195.247 169.999 195.479 170.231 195.76 170.231H203.279C204.318 170.231 205.159 169.391 205.159 168.352V163.566C205.159 162.527 204.318 161.687 203.279 161.687Z" fill="#BED73C"/>
</g>
<g clip-path="url(#clip1_6286_127419)">
<rect width="17.3583" height="6.50937" transform="translate(312.004 139.25)" fill="#BED73C"/>
</g>
<path d="M315.259 139.521H326.108C327.755 139.521 329.091 140.857 329.091 142.505C329.091 144.152 327.755 145.488 326.108 145.488H315.259C313.611 145.488 312.275 144.152 312.275 142.505C312.275 140.857 313.611 139.521 315.259 139.521Z" stroke="#004357" stroke-width="0.542447"/>
<g clip-path="url(#clip2_6286_127419)">
<rect width="17.3583" height="6.50937" transform="translate(331.532 139.25)" fill="#BED73C"/>
</g>
<path d="M334.787 139.521H345.636C347.284 139.521 348.619 140.857 348.619 142.505C348.619 144.152 347.284 145.488 345.636 145.488H334.787C333.139 145.488 331.803 144.152 331.803 142.505C331.803 140.857 333.139 139.521 334.787 139.521Z" stroke="#004357" stroke-width="0.542447"/>
<g clip-path="url(#clip3_6286_127419)">
<rect width="17.3583" height="6.50937" transform="translate(351.061 139.25)" fill="#BED73C"/>
</g>
<path d="M354.315 139.521H365.164C366.812 139.521 368.148 140.857 368.148 142.505C368.148 144.152 366.812 145.488 365.164 145.488H354.315C352.668 145.488 351.332 144.152 351.332 142.505C351.332 140.857 352.668 139.521 354.315 139.521Z" stroke="#004357" stroke-width="0.542447"/>
<g clip-path="url(#clip4_6286_127419)">
<rect width="17.3583" height="6.50937" transform="translate(370.588 139.25)" fill="#BED73C"/>
</g>
<path d="M373.843 139.521H384.692C386.339 139.521 387.675 140.857 387.675 142.505C387.675 144.152 386.339 145.488 384.692 145.488H373.843C372.195 145.488 370.859 144.152 370.859 142.505C370.859 140.857 372.195 139.521 373.843 139.521Z" stroke="#004357" stroke-width="0.542447"/>
<g clip-path="url(#clip5_6286_127419)">
<rect width="6.50937" height="6.50937" transform="translate(390.116 139.25)" fill="#BED73C"/>
</g>
<path d="M393.371 139.521H404.22C405.868 139.521 407.203 140.857 407.203 142.505C407.203 144.152 405.868 145.488 404.22 145.488H393.371C391.723 145.488 390.387 144.152 390.387 142.505C390.387 140.857 391.723 139.521 393.371 139.521Z" stroke="#004357" stroke-width="0.542447"/>
<path d="M412.899 139.521H423.748C425.396 139.521 426.732 140.857 426.732 142.505C426.732 144.152 425.396 145.488 423.748 145.488H412.899C411.251 145.488 409.916 144.152 409.916 142.505C409.916 140.857 411.251 139.521 412.899 139.521Z" stroke="#004357" stroke-width="0.542447"/>
<defs>
<clipPath id="clip0_6286_127419">
<rect width="35" height="35" fill="white" transform="translate(178.26 154.167)"/>
</clipPath>
<clipPath id="clip1_6286_127419">
<path d="M312.004 142.505C312.004 140.707 313.461 139.25 315.259 139.25H326.108C327.905 139.25 329.362 140.707 329.362 142.505V142.505C329.362 144.302 327.905 145.759 326.108 145.759H315.259C313.461 145.759 312.004 144.302 312.004 142.505V142.505Z" fill="white"/>
</clipPath>
<clipPath id="clip2_6286_127419">
<path d="M331.532 142.505C331.532 140.707 332.989 139.25 334.787 139.25H345.636C347.433 139.25 348.891 140.707 348.891 142.505V142.505C348.891 144.302 347.433 145.759 345.636 145.759H334.787C332.989 145.759 331.532 144.302 331.532 142.505V142.505Z" fill="white"/>
</clipPath>
<clipPath id="clip3_6286_127419">
<path d="M351.061 142.505C351.061 140.707 352.518 139.25 354.315 139.25H365.164C366.962 139.25 368.419 140.707 368.419 142.505V142.505C368.419 144.302 366.962 145.759 365.164 145.759H354.315C352.518 145.759 351.061 144.302 351.061 142.505V142.505Z" fill="white"/>
</clipPath>
<clipPath id="clip4_6286_127419">
<path d="M370.588 142.505C370.588 140.707 372.045 139.25 373.843 139.25H384.692C386.489 139.25 387.946 140.707 387.946 142.505V142.505C387.946 144.302 386.489 145.759 384.692 145.759H373.843C372.045 145.759 370.588 144.302 370.588 142.505V142.505Z" fill="white"/>
</clipPath>
<clipPath id="clip5_6286_127419">
<path d="M390.116 142.505C390.116 140.707 391.573 139.25 393.371 139.25H404.22C406.017 139.25 407.475 140.707 407.475 142.505V142.505C407.475 144.302 406.017 145.759 404.22 145.759H393.371C391.573 145.759 390.116 144.302 390.116 142.505V142.505Z" fill="white"/>
</clipPath>
</defs>
</svg>
