<svg width="640" height="253" viewBox="0 0 640 253" fill="none" xmlns="http://www.w3.org/2000/svg">
<g opacity="0.4">
<g clip-path="url(#clip0_6291_211763)">
<path d="M53.4941 68.4491C53.4941 67.0187 54.6537 65.8591 56.0841 65.8591H218.404C219.835 65.8591 220.994 67.0187 220.994 68.4491V86.3942C220.994 87.8246 219.835 88.9841 218.404 88.9841H56.0841C54.6537 88.9841 53.4941 87.8246 53.4941 86.3942V68.4491Z" fill="white"/>
<path d="M53.4941 68.4491C53.4941 67.0187 54.6537 65.8591 56.0841 65.8591H218.404C219.835 65.8591 220.994 67.0187 220.994 68.4491V86.3942C220.994 87.8246 219.835 88.9841 218.404 88.9841H56.0841C54.6537 88.9841 53.4941 87.8246 53.4941 86.3942V68.4491Z" fill="white" stroke="#004357" stroke-width="0.46875"/>
<path d="M64.2754 84.1602C60.5216 84.1602 57.4785 81.1171 57.4785 77.3633C57.4785 73.6095 60.5216 70.5664 64.2754 70.5664C68.0292 70.5664 71.0723 73.6095 71.0723 77.3633C71.0723 81.1171 68.0292 84.1602 64.2754 84.1602Z" fill="#F3F4F6" stroke="#BDBDBD" stroke-width="0.46875"/>
<path d="M148.104 76.1824H149.184L149.176 76.8489C149.421 76.3258 149.893 76.1064 150.425 76.1064C151.598 76.1064 151.893 76.8658 151.893 77.8446V80.2661H150.813V78.0808C150.813 77.4733 150.703 76.9924 150.079 76.9924C149.412 76.9924 149.184 77.5493 149.184 78.2327V80.2661H148.104V76.1824Z" fill="#3C3E3E"/>
<path d="M142.933 78.2411C142.933 76.9502 143.894 76.1064 145.152 76.1064C146.4 76.1064 147.362 76.9502 147.362 78.2411C147.362 79.5321 146.4 80.3589 145.152 80.3589C143.894 80.3589 142.933 79.5321 142.933 78.2411ZM145.152 79.4646C145.844 79.4646 146.249 78.9161 146.249 78.2158C146.249 77.5155 145.844 76.9755 145.152 76.9755C144.443 76.9755 144.055 77.5155 144.055 78.2158C144.055 78.9161 144.443 79.4646 145.152 79.4646Z" fill="#3C3E3E"/>
<path d="M140.968 74.9335C140.968 74.5876 141.238 74.3345 141.617 74.3345C141.997 74.3345 142.267 74.5876 142.267 74.9335C142.267 75.2879 141.997 75.5326 141.617 75.5326C141.238 75.5326 140.968 75.2879 140.968 74.9335ZM141.077 76.1823H142.157V80.266H141.077V76.1823Z" fill="#3C3E3E"/>
<path d="M140.419 80.2239C140.369 80.2407 140.048 80.3589 139.592 80.3589C139.187 80.3589 138.892 80.2745 138.707 80.0636C138.496 79.8357 138.411 79.4729 138.411 78.9161V77.0261H137.804V76.1907H138.411V75.0264H139.483V76.1907H140.428V77.0261H139.483V78.6798C139.483 79.0089 139.508 79.2029 139.592 79.3211C139.66 79.4223 139.787 79.4561 139.972 79.4561C140.192 79.4561 140.36 79.3886 140.36 79.3886L140.419 80.2239Z" fill="#3C3E3E"/>
<path d="M136.246 79.7936C136.077 80.0889 135.604 80.3589 134.997 80.3589C134.204 80.3589 133.562 79.9286 133.562 79.0764C133.562 78.2243 134.398 77.8952 135.242 77.8361L136.22 77.7686V77.6589C136.22 77.1358 135.874 76.8911 135.309 76.8911C134.769 76.8911 134.322 77.0936 134.145 77.2286L133.816 76.5368C134.128 76.3511 134.702 76.1064 135.41 76.1064C136.136 76.1064 136.549 76.2921 136.853 76.5789C137.148 76.8658 137.3 77.2371 137.3 77.9289V80.2661H136.263L136.246 79.7936ZM135.495 78.4689C134.921 78.5027 134.643 78.6968 134.643 79.0427C134.643 79.3886 134.904 79.6249 135.351 79.6249C135.773 79.6249 136.085 79.3802 136.229 79.1777V78.4268L135.495 78.4689Z" fill="#3C3E3E"/>
<path d="M126.747 76.1824H127.827L127.819 76.7983H127.844C128.03 76.4186 128.527 76.1064 129.059 76.1064C129.65 76.1064 130.004 76.3427 130.198 76.8827C130.485 76.3849 130.949 76.1064 131.54 76.1064C132.611 76.1064 132.906 76.8658 132.906 77.8024V80.2661H131.826V77.9796C131.826 77.4818 131.717 76.9924 131.185 76.9924C130.645 76.9924 130.367 77.4564 130.367 78.1568V80.2661H129.287V77.9711C129.287 77.4143 129.143 76.9924 128.629 76.9924C128.072 76.9924 127.827 77.5155 127.827 78.1568V80.2661H126.747V76.1824Z" fill="#3C3E3E"/>
<path d="M123.698 76.1824H124.77L124.753 76.8405H124.778C124.939 76.4018 125.344 76.1064 125.782 76.1064C126.061 76.1064 126.213 76.1824 126.213 76.1824L126.137 77.1189H126.086C125.968 77.0852 125.782 77.0683 125.639 77.0683C125.318 77.0683 125.065 77.2033 124.922 77.4649C124.812 77.6674 124.77 77.9458 124.77 78.258V80.2661H123.698V76.1824Z" fill="#3C3E3E"/>
<path d="M118.526 78.2411C118.526 76.9502 119.488 76.1064 120.745 76.1064C121.994 76.1064 122.956 76.9502 122.956 78.2411C122.956 79.5321 121.994 80.3589 120.745 80.3589C119.488 80.3589 118.526 79.5321 118.526 78.2411ZM120.745 79.4646C121.437 79.4646 121.842 78.9161 121.842 78.2158C121.842 77.5155 121.437 76.9755 120.745 76.9755C120.037 76.9755 119.649 77.5155 119.649 78.2158C119.649 78.9161 120.037 79.4646 120.745 79.4646Z" fill="#3C3E3E"/>
<path d="M116.427 77.0261H115.87V76.1908H116.427V75.8786C116.427 75.3808 116.562 74.9758 116.773 74.748C116.984 74.5033 117.321 74.343 117.794 74.343C118.292 74.343 118.595 74.4274 118.595 74.4274L118.528 75.2036C118.528 75.2036 118.292 75.1361 118.064 75.1361C117.6 75.1361 117.49 75.4483 117.49 75.8365V76.1908H118.427V77.0261H117.507V80.2661H116.427V77.0261Z" fill="#3C3E3E"/>
<path d="M111.496 76.1824H112.576L112.568 76.8489C112.812 76.3258 113.285 76.1064 113.816 76.1064C114.989 76.1064 115.285 76.8658 115.285 77.8446V80.2661H114.205V78.0808C114.205 77.4733 114.095 76.9924 113.47 76.9924C112.804 76.9924 112.576 77.5493 112.576 78.2327V80.2661H111.496V76.1824Z" fill="#3C3E3E"/>
<path d="M109.277 74.9335C109.277 74.5876 109.547 74.3345 109.927 74.3345C110.307 74.3345 110.577 74.5876 110.577 74.9335C110.577 75.2879 110.307 75.5326 109.927 75.5326C109.547 75.5326 109.277 75.2879 109.277 74.9335ZM109.387 76.1823H110.467V80.266H109.387V76.1823Z" fill="#3C3E3E"/>
<path d="M105.572 74.4441H106.644V80.266H105.572V74.4441Z" fill="#3C3E3E"/>
<path d="M103.55 79.7936C103.382 80.0889 102.909 80.3589 102.302 80.3589C101.508 80.3589 100.867 79.9286 100.867 79.0764C100.867 78.2243 101.702 77.8952 102.546 77.8361L103.525 77.7686V77.6589C103.525 77.1358 103.179 76.8911 102.614 76.8911C102.074 76.8911 101.627 77.0936 101.449 77.2286L101.12 76.5368C101.432 76.3511 102.006 76.1064 102.715 76.1064C103.441 76.1064 103.854 76.2921 104.158 76.5789C104.453 76.8658 104.605 77.2371 104.605 77.9289V80.2661H103.567L103.55 79.7936ZM102.799 78.4689C102.226 78.5027 101.947 78.6968 101.947 79.0427C101.947 79.3886 102.209 79.6249 102.656 79.6249C103.078 79.6249 103.39 79.3802 103.533 79.1777V78.4268L102.799 78.4689Z" fill="#3C3E3E"/>
<path d="M96.417 76.1824H97.497L97.4886 76.8489C97.7332 76.3258 98.2057 76.1064 98.7373 76.1064C99.9101 76.1064 100.205 76.8658 100.205 77.8446V80.2661H99.1254V78.0808C99.1254 77.4733 99.0157 76.9924 98.3914 76.9924C97.7248 76.9924 97.497 77.5493 97.497 78.2327V80.2661H96.417V76.1824Z" fill="#3C3E3E"/>
<path d="M91.2441 78.2411C91.2441 76.9502 92.206 76.1064 93.4632 76.1064C94.712 76.1064 95.6738 76.9502 95.6738 78.2411C95.6738 79.5321 94.712 80.3589 93.4632 80.3589C92.206 80.3589 91.2441 79.5321 91.2441 78.2411ZM93.4632 79.4646C94.1551 79.4646 94.5601 78.9161 94.5601 78.2158C94.5601 77.5155 94.1551 76.9755 93.4632 76.9755C92.7545 76.9755 92.3663 77.5155 92.3663 78.2158C92.3663 78.9161 92.7545 79.4646 93.4632 79.4646Z" fill="#3C3E3E"/>
<path d="M87.9905 78.9921C88.4714 79.3633 88.8849 79.5489 89.2308 79.5489C89.6358 79.5489 89.8214 79.3971 89.8214 79.1608C89.8214 78.9499 89.6611 78.8318 89.138 78.6546L88.6655 78.4943C88.058 78.2918 87.7458 77.9289 87.7458 77.3299C87.7458 76.5874 88.4208 76.1064 89.2055 76.1064C89.9311 76.1064 90.3361 76.3005 90.6736 76.5452L90.2096 77.2624C89.9733 77.0852 89.6274 76.9164 89.2561 76.9164C88.9018 76.9164 88.7246 77.0514 88.7246 77.2455C88.7246 77.4227 88.8596 77.5661 89.3152 77.7096L89.6021 77.8024C90.5049 78.0977 90.8255 78.4183 90.8255 79.0089C90.8255 79.7852 90.2096 80.3589 89.2055 80.3589C88.5811 80.3589 87.8808 80.1058 87.5518 79.7261L87.9905 78.9921Z" fill="#3C3E3E"/>
<path d="M84.8066 76.1824H85.8782L85.8613 76.8405H85.8866C86.047 76.4018 86.452 76.1064 86.8907 76.1064C87.1691 76.1064 87.321 76.1824 87.321 76.1824L87.2451 77.1189H87.1945C87.0763 77.0852 86.8907 77.0683 86.7473 77.0683C86.4266 77.0683 86.1735 77.2033 86.0301 77.4649C85.9204 77.6674 85.8782 77.9458 85.8782 78.258V80.2661H84.8066V76.1824Z" fill="#3C3E3E"/>
<path d="M83.9376 79.7008C83.7098 79.9371 83.0938 80.3589 82.0982 80.3589C80.8663 80.3589 79.9551 79.608 79.9551 78.2918C79.9551 76.9839 80.9085 76.1064 82.0729 76.1064C83.3301 76.1064 84.0895 76.9333 84.0895 78.0218C84.0895 78.2327 84.0726 78.5702 84.0726 78.5702H81.0688C81.1701 79.2199 81.6679 79.5321 82.2838 79.5321C82.8323 79.5321 83.3216 79.2874 83.5157 79.1186L83.9376 79.7008ZM83.0095 77.8699C82.9926 77.4227 82.8238 76.908 82.0645 76.908C81.4232 76.908 81.0857 77.3552 81.052 77.8699H83.0095Z" fill="#3C3E3E"/>
<path d="M77.503 74.4441C78.0852 74.4441 78.5914 74.5622 78.9627 74.8744C79.3424 75.1866 79.5702 75.6 79.5702 76.1907C79.5702 76.7813 79.3424 77.2032 78.9627 77.5153C78.5914 77.8275 78.0852 77.971 77.503 77.971H76.7352V80.266H75.6299V74.4441H77.503ZM77.368 77.1103C77.7055 77.1103 77.9333 77.026 78.1189 76.891C78.3046 76.756 78.4396 76.5197 78.4396 76.1907C78.4396 75.87 78.2793 75.6338 78.0936 75.4988C77.908 75.3638 77.6802 75.3047 77.3427 75.3047H76.7268V77.1103H77.368Z" fill="#3C3E3E"/>
<path d="M198.092 70.6248H226.452C230.205 70.6248 233.248 73.6678 233.248 77.4216C233.248 81.1754 230.205 84.2185 226.452 84.2185H198.092C194.338 84.2185 191.295 81.1754 191.295 77.4216C191.295 73.6678 194.338 70.6248 198.092 70.6248Z" stroke="#BDBDBD" stroke-width="0.46875"/>
<path d="M210.912 79.6398C210.833 79.6595 210.545 79.7448 210.164 79.7448C209.79 79.7448 209.541 79.6332 209.377 79.4429C209.213 79.2526 209.147 78.9835 209.147 78.4913V77.2379H208.688V76.4438H209.147V75.5645H210.203V76.4438H210.919V77.2379H210.203V78.3995C210.203 78.6751 210.243 78.7407 210.295 78.7998C210.341 78.8523 210.407 78.8785 210.545 78.8785C210.709 78.8785 210.86 78.8195 210.86 78.8195L210.912 79.6398Z" fill="#7C7C7C"/>
<path d="M206.452 76.4372H207.502L207.496 76.8966H207.509C207.692 76.5422 207.962 76.3782 208.309 76.3782C208.526 76.3782 208.637 76.4372 208.637 76.4372L208.578 77.4019H208.532C208.473 77.3691 208.336 77.3232 208.152 77.3232C207.916 77.3232 207.745 77.4544 207.666 77.5594C207.587 77.6644 207.502 77.8744 207.502 78.2354V79.6725H206.452V76.4372Z" fill="#7C7C7C"/>
<path d="M204.778 79.3313C204.64 79.4691 204.377 79.7447 203.852 79.7447C203.281 79.7447 202.678 79.4363 202.678 78.7144C202.678 77.9925 203.341 77.7497 203.938 77.7235L204.751 77.6907V77.6185C204.751 77.2772 204.509 77.1 204.089 77.1C203.675 77.1 203.262 77.2838 203.098 77.3888L202.822 76.7063C203.098 76.5685 203.603 76.3782 204.207 76.3782C204.811 76.3782 205.158 76.516 205.414 76.7522C205.664 76.9885 205.801 77.3035 205.801 77.8482V79.6725H204.797L204.778 79.3313ZM204.24 78.2813C203.918 78.2944 203.728 78.4322 203.728 78.675C203.728 78.9244 203.931 79.0754 204.22 79.0754C204.502 79.0754 204.692 78.8916 204.758 78.78V78.2485L204.24 78.2813Z" fill="#7C7C7C"/>
<path d="M202.472 79.6398C202.393 79.6595 202.104 79.7448 201.724 79.7448C201.35 79.7448 201.1 79.6332 200.936 79.4429C200.772 79.2526 200.706 78.9835 200.706 78.4913V77.2379H200.247V76.4438H200.706V75.5645H201.763V76.4438H202.478V77.2379H201.763V78.3995C201.763 78.6751 201.802 78.7407 201.855 78.7998C201.901 78.8523 201.966 78.8785 202.104 78.8785C202.268 78.8785 202.419 78.8195 202.419 78.8195L202.472 79.6398Z" fill="#7C7C7C"/>
<path d="M197.211 78.2945C197.539 78.6358 198.044 78.8655 198.392 78.8655C198.733 78.8655 198.996 78.7014 198.996 78.3995C198.996 78.0911 198.654 77.9795 198.464 77.9008L197.834 77.6645C197.263 77.4545 196.882 77.1133 196.882 76.4439C196.882 75.512 197.716 75.092 198.549 75.092C199.074 75.092 199.678 75.3414 199.986 75.6499L199.534 76.3914C199.271 76.1289 198.864 75.932 198.523 75.932C198.182 75.932 197.932 76.0633 197.932 76.3389C197.932 76.6145 198.175 76.7195 198.392 76.7983L199.068 77.0542C199.639 77.2708 200.052 77.6383 200.052 78.2945C200.052 79.2789 199.166 79.7514 198.293 79.7514C197.637 79.7514 197.053 79.4102 196.686 79.0689L197.211 78.2945Z" fill="#7C7C7C"/>
<path d="M216.264 74.9216L215.823 75.3623L217.567 77.1091H213.764V77.7341H217.567L215.823 79.481L216.264 79.9216L218.764 77.4216L216.264 74.9216Z" fill="#004357"/>
<path d="M61.4629 76.4841C60.9473 76.4841 60.5254 76.906 60.5254 77.4216C60.5254 77.9373 60.9473 78.3591 61.4629 78.3591C61.9785 78.3591 62.4004 77.9373 62.4004 77.4216C62.4004 76.906 61.9785 76.4841 61.4629 76.4841ZM67.0879 76.4841C66.5723 76.4841 66.1504 76.906 66.1504 77.4216C66.1504 77.9373 66.5723 78.3591 67.0879 78.3591C67.6035 78.3591 68.0254 77.9373 68.0254 77.4216C68.0254 76.906 67.6035 76.4841 67.0879 76.4841ZM64.2754 76.4841C63.7598 76.4841 63.3379 76.906 63.3379 77.4216C63.3379 77.9373 63.7598 78.3591 64.2754 78.3591C64.791 78.3591 65.2129 77.9373 65.2129 77.4216C65.2129 76.906 64.791 76.4841 64.2754 76.4841Z" fill="#3C3E3E"/>
</g>
<path d="M53.4941 68.4491C53.4941 67.0187 54.6537 65.8591 56.0841 65.8591H218.404C219.835 65.8591 220.994 67.0187 220.994 68.4491V86.3942C220.994 87.8246 219.835 88.9841 218.404 88.9841H56.0841C54.6537 88.9841 53.4941 87.8246 53.4941 86.3942V68.4491Z" stroke="#004357" stroke-width="0.46875"/>
</g>
<g clip-path="url(#clip1_6291_211763)">
<path d="M57.2441 91.5741C57.2441 90.1437 58.4037 88.9841 59.8341 88.9841H222.154C223.585 88.9841 224.744 90.1437 224.744 91.5741V110.144C224.744 111.575 223.585 112.734 222.154 112.734H59.8341C58.4037 112.734 57.2441 111.575 57.2441 110.144V91.5741Z" fill="#F3F4F6"/>
<path d="M57.0488 91.9156C57.0488 90.4852 58.2084 89.3257 59.6388 89.3257H221.959C223.389 89.3257 224.549 90.4852 224.549 91.9156V109.861C224.549 111.291 223.389 112.451 221.959 112.451H59.6387C58.2084 112.451 57.0488 111.291 57.0488 109.861V91.9156Z" fill="white" stroke="#004357" stroke-width="0.46875"/>
<path d="M67.8301 107.627C64.0763 107.627 61.0332 104.584 61.0332 100.83C61.0332 97.0763 64.0763 94.0332 67.8301 94.0332C71.5839 94.0332 74.627 97.0763 74.627 100.83C74.627 104.584 71.5839 107.627 67.8301 107.627Z" fill="#004357" stroke="#BDBDBD" stroke-width="0.46875"/>
<path d="M106.111 103.139C105.884 103.375 105.268 103.797 104.272 103.797C103.04 103.797 102.129 103.046 102.129 101.73C102.129 100.422 103.082 99.5442 104.247 99.5442C105.504 99.5442 106.263 100.371 106.263 101.46C106.263 101.67 106.246 102.008 106.246 102.008H103.243C103.344 102.658 103.842 102.97 104.458 102.97C105.006 102.97 105.495 102.725 105.69 102.556L106.111 103.139ZM105.183 101.308C105.166 100.86 104.998 100.346 104.238 100.346C103.597 100.346 103.26 100.793 103.226 101.308H105.183Z" fill="#3C3E3E"/>
<path d="M95.2715 99.6201H96.3515L96.343 100.236H96.3684C96.554 99.8564 97.0518 99.5442 97.5834 99.5442C98.174 99.5442 98.5284 99.7804 98.7224 100.32C99.0093 99.8226 99.4734 99.5442 100.064 99.5442C101.136 99.5442 101.431 100.304 101.431 101.24V103.704H100.351V101.417C100.351 100.92 100.241 100.43 99.7096 100.43C99.1696 100.43 98.8912 100.894 98.8912 101.595V103.704H97.8112V101.409C97.8112 100.852 97.6677 100.43 97.153 100.43C96.5962 100.43 96.3515 100.953 96.3515 101.595V103.704H95.2715V99.6201Z" fill="#3C3E3E"/>
<path d="M90.0996 101.679C90.0996 100.388 91.0615 99.5442 92.3187 99.5442C93.5674 99.5442 94.5293 100.388 94.5293 101.679C94.5293 102.97 93.5674 103.797 92.3187 103.797C91.0615 103.797 90.0996 102.97 90.0996 101.679ZM92.3187 102.902C93.0105 102.902 93.4155 102.354 93.4155 101.654C93.4155 100.953 93.0105 100.413 92.3187 100.413C91.6099 100.413 91.2218 100.953 91.2218 101.654C91.2218 102.354 91.6099 102.902 92.3187 102.902Z" fill="#3C3E3E"/>
<path d="M89.7749 103.248C89.6905 103.324 89.2687 103.797 88.1802 103.797C87.0665 103.797 86.0371 103.029 86.0371 101.696C86.0371 100.354 87.1002 99.5442 88.1971 99.5442C89.2265 99.5442 89.6315 99.9576 89.7412 100.067L89.4459 100.877C89.3193 100.759 88.9565 100.447 88.3237 100.447C87.6824 100.447 87.1677 100.894 87.1677 101.645C87.1677 102.396 87.6824 102.885 88.3827 102.885C89.083 102.885 89.4712 102.455 89.4712 102.455L89.7749 103.248Z" fill="#3C3E3E"/>
<path d="M81.5605 99.6201H82.6405L82.6321 100.287C82.8768 99.7636 83.3493 99.5442 83.8809 99.5442C85.0537 99.5442 85.349 100.304 85.349 101.282V103.704H84.269V101.519C84.269 100.911 84.1593 100.43 83.5349 100.43C82.8684 100.43 82.6405 100.987 82.6405 101.67V103.704H81.5605V99.6201Z" fill="#3C3E3E"/>
<path d="M79.3877 97.8821H80.4846V103.704H79.3877V97.8821Z" fill="#3C3E3E"/>
<path d="M201.842 94.0623H230.202C233.955 94.0623 236.998 97.1053 236.998 100.859C236.998 104.613 233.955 107.656 230.202 107.656H201.842C198.088 107.656 195.045 104.613 195.045 100.859C195.045 97.1053 198.088 94.0623 201.842 94.0623Z" stroke="#BDBDBD" stroke-width="0.46875"/>
<path d="M214.662 103.077C214.583 103.097 214.295 103.182 213.914 103.182C213.54 103.182 213.291 103.071 213.127 102.88C212.963 102.69 212.897 102.421 212.897 101.929V100.675H212.438V99.8813H212.897V99.002H213.953V99.8813H214.669V100.675H213.953V101.837C213.953 102.113 213.993 102.178 214.045 102.237C214.091 102.29 214.157 102.316 214.295 102.316C214.459 102.316 214.61 102.257 214.61 102.257L214.662 103.077Z" fill="#7C7C7C"/>
<path d="M210.202 99.8747H211.252L211.246 100.334H211.259C211.442 99.9797 211.712 99.8157 212.059 99.8157C212.276 99.8157 212.387 99.8747 212.387 99.8747L212.328 100.839H212.282C212.223 100.807 212.086 100.761 211.902 100.761C211.666 100.761 211.495 100.892 211.416 100.997C211.337 101.102 211.252 101.312 211.252 101.673V103.11H210.202V99.8747Z" fill="#7C7C7C"/>
<path d="M208.528 102.769C208.39 102.907 208.127 103.182 207.602 103.182C207.031 103.182 206.428 102.874 206.428 102.152C206.428 101.43 207.091 101.187 207.688 101.161L208.501 101.128V101.056C208.501 100.715 208.259 100.538 207.839 100.538C207.425 100.538 207.012 100.721 206.848 100.826L206.572 100.144C206.848 100.006 207.353 99.8157 207.957 99.8157C208.561 99.8157 208.908 99.9535 209.164 100.19C209.414 100.426 209.551 100.741 209.551 101.286V103.11H208.547L208.528 102.769ZM207.99 101.719C207.668 101.732 207.478 101.87 207.478 102.113C207.478 102.362 207.681 102.513 207.97 102.513C208.252 102.513 208.442 102.329 208.508 102.218V101.686L207.99 101.719Z" fill="#7C7C7C"/>
<path d="M206.222 103.077C206.143 103.097 205.854 103.182 205.474 103.182C205.1 103.182 204.85 103.071 204.686 102.88C204.522 102.69 204.456 102.421 204.456 101.929V100.675H203.997V99.8813H204.456V99.002H205.513V99.8813H206.228V100.675H205.513V101.837C205.513 102.113 205.552 102.178 205.605 102.237C205.651 102.29 205.716 102.316 205.854 102.316C206.018 102.316 206.169 102.257 206.169 102.257L206.222 103.077Z" fill="#7C7C7C"/>
<path d="M200.961 101.732C201.289 102.073 201.794 102.303 202.142 102.303C202.483 102.303 202.746 102.139 202.746 101.837C202.746 101.529 202.404 101.417 202.214 101.338L201.584 101.102C201.013 100.892 200.632 100.551 200.632 99.8814C200.632 98.9495 201.466 98.5295 202.299 98.5295C202.824 98.5295 203.428 98.7789 203.736 99.0874L203.284 99.8289C203.021 99.5664 202.614 99.3695 202.273 99.3695C201.932 99.3695 201.682 99.5008 201.682 99.7764C201.682 100.052 201.925 100.157 202.142 100.236L202.818 100.492C203.389 100.708 203.802 101.076 203.802 101.732C203.802 102.716 202.916 103.189 202.043 103.189C201.387 103.189 200.803 102.848 200.436 102.506L200.961 101.732Z" fill="#7C7C7C"/>
<path d="M220.014 98.3591L219.573 98.7998L221.317 100.547H217.514V101.172H221.317L219.573 102.919L220.014 103.359L222.514 100.859L220.014 98.3591Z" fill="#004357"/>
<path d="M65.2129 99.9216C64.6973 99.9216 64.2754 100.344 64.2754 100.859C64.2754 101.375 64.6973 101.797 65.2129 101.797C65.7285 101.797 66.1504 101.375 66.1504 100.859C66.1504 100.344 65.7285 99.9216 65.2129 99.9216ZM70.8379 99.9216C70.3223 99.9216 69.9004 100.344 69.9004 100.859C69.9004 101.375 70.3223 101.797 70.8379 101.797C71.3535 101.797 71.7754 101.375 71.7754 100.859C71.7754 100.344 71.3535 99.9216 70.8379 99.9216ZM68.0254 99.9216C67.5098 99.9216 67.0879 100.344 67.0879 100.859C67.0879 101.375 67.5098 101.797 68.0254 101.797C68.541 101.797 68.9629 101.375 68.9629 100.859C68.9629 100.344 68.541 99.9216 68.0254 99.9216Z" fill="white"/>
</g>
<path d="M57.2441 91.5741C57.2441 90.1437 58.4037 88.9841 59.8341 88.9841H222.154C223.585 88.9841 224.744 90.1437 224.744 91.5741V110.144C224.744 111.575 223.585 112.734 222.154 112.734H59.8341C58.4037 112.734 57.2441 111.575 57.2441 110.144V91.5741Z" stroke="#004357" stroke-width="0.46875"/>
<g opacity="0.4">
<g clip-path="url(#clip2_6291_211763)">
<path d="M53.4941 115.324C53.4941 113.894 54.6537 112.734 56.0841 112.734H218.404C219.835 112.734 220.994 113.894 220.994 115.324V133.269C220.994 134.7 219.835 135.859 218.404 135.859H56.0841C54.6537 135.859 53.4941 134.7 53.4941 133.269V115.324Z" fill="white"/>
<path d="M53.4941 115.382C53.4941 113.952 54.6537 112.792 56.0841 112.792H218.404C219.835 112.792 220.994 113.952 220.994 115.382V133.328C220.994 134.758 219.835 135.917 218.404 135.917H56.0841C54.6537 135.917 53.4941 134.758 53.4941 133.328V115.382Z" fill="white" stroke="#004357" stroke-width="0.46875"/>
<path d="M64.2754 131.094C60.5216 131.094 57.4785 128.05 57.4785 124.297C57.4785 120.543 60.5216 117.5 64.2754 117.5C68.0292 117.5 71.0723 120.543 71.0723 124.297C71.0723 128.05 68.0292 131.094 64.2754 131.094Z" fill="#F3F4F6" stroke="#BDBDBD" stroke-width="0.46875"/>
<path d="M107.445 125.867C107.926 126.239 108.339 126.424 108.685 126.424C109.09 126.424 109.276 126.272 109.276 126.036C109.276 125.825 109.115 125.707 108.592 125.53L108.12 125.37C107.512 125.167 107.2 124.804 107.2 124.205C107.2 123.463 107.875 122.982 108.66 122.982C109.385 122.982 109.79 123.176 110.128 123.42L109.664 124.138C109.427 123.96 109.081 123.792 108.71 123.792C108.356 123.792 108.179 123.927 108.179 124.121C108.179 124.298 108.314 124.441 108.769 124.585L109.056 124.678C109.959 124.973 110.28 125.294 110.28 125.884C110.28 126.66 109.664 127.234 108.66 127.234C108.035 127.234 107.335 126.981 107.006 126.601L107.445 125.867Z" fill="#3C3E3E"/>
<path d="M106.441 126.576C106.213 126.812 105.597 127.234 104.601 127.234C103.369 127.234 102.458 126.483 102.458 125.167C102.458 123.859 103.411 122.982 104.576 122.982C105.833 122.982 106.592 123.809 106.592 124.897C106.592 125.108 106.576 125.445 106.576 125.445H103.572C103.673 126.095 104.171 126.407 104.787 126.407C105.335 126.407 105.825 126.163 106.019 125.994L106.441 126.576ZM105.512 124.745C105.496 124.298 105.327 123.783 104.567 123.783C103.926 123.783 103.589 124.23 103.555 124.745H105.512Z" fill="#3C3E3E"/>
<path d="M99.221 125.867C99.7019 126.239 100.115 126.424 100.461 126.424C100.866 126.424 101.052 126.272 101.052 126.036C101.052 125.825 100.892 125.707 100.368 125.53L99.896 125.37C99.2885 125.167 98.9763 124.804 98.9763 124.205C98.9763 123.463 99.6513 122.982 100.436 122.982C101.162 122.982 101.567 123.176 101.904 123.42L101.44 124.138C101.204 123.96 100.858 123.792 100.487 123.792C100.132 123.792 99.955 123.927 99.955 124.121C99.955 124.298 100.09 124.441 100.546 124.585L100.833 124.678C101.735 124.973 102.056 125.294 102.056 125.884C102.056 126.66 101.44 127.234 100.436 127.234C99.8116 127.234 99.1113 126.981 98.7822 126.601L99.221 125.867Z" fill="#3C3E3E"/>
<path d="M94.3232 123.058H95.4032L95.3948 123.724C95.6395 123.201 96.112 122.982 96.6436 122.982C97.8164 122.982 98.1117 123.741 98.1117 124.72V127.141H97.0317V124.956C97.0317 124.349 96.922 123.868 96.2976 123.868C95.6311 123.868 95.4032 124.425 95.4032 125.108V127.141H94.3232V123.058Z" fill="#3C3E3E"/>
<path d="M93.4542 126.576C93.2264 126.812 92.6104 127.234 91.6148 127.234C90.3829 127.234 89.4717 126.483 89.4717 125.167C89.4717 123.859 90.4251 122.982 91.5895 122.982C92.8467 122.982 93.6061 123.809 93.6061 124.897C93.6061 125.108 93.5892 125.445 93.5892 125.445H90.5854C90.6867 126.095 91.1845 126.407 91.8004 126.407C92.3489 126.407 92.8382 126.163 93.0323 125.994L93.4542 126.576ZM92.5261 124.745C92.5092 124.298 92.3404 123.783 91.5811 123.783C90.9398 123.783 90.6023 124.23 90.5686 124.745H92.5261Z" fill="#3C3E3E"/>
<path d="M84.6006 123.058H85.6975L85.6806 123.657C86.0096 123.167 86.5159 122.965 87.0559 122.965C88.254 122.965 88.9881 123.893 88.9881 125.108C88.9881 126.264 88.2203 127.217 86.98 127.217C86.3556 127.217 86.0012 126.998 85.6637 126.593C85.6721 126.846 85.6637 127.108 85.6637 127.361V128.685H84.6006V123.058ZM86.7859 126.39C87.4862 126.39 87.8912 125.791 87.8912 125.108C87.8912 124.399 87.4525 123.842 86.7521 123.842C86.1025 123.842 85.6468 124.34 85.6468 125.108C85.6468 125.791 86.094 126.39 86.7859 126.39Z" fill="#3C3E3E"/>
<path d="M81.1894 124.998L79.7719 123.058H81.0038L81.856 124.391L82.7082 123.058H83.94L82.5225 125.007L84.1172 127.141H82.8769L81.856 125.648L80.835 127.141H79.5947L81.1894 124.998Z" fill="#3C3E3E"/>
<path d="M75.6377 121.32H79.2321V122.231H76.7346V123.674H79.0886V124.576H76.7346V126.23H79.2996V127.141H75.6377V121.32Z" fill="#3C3E3E"/>
<path d="M198.092 117.5H226.452C230.205 117.5 233.248 120.543 233.248 124.297C233.248 128.05 230.205 131.094 226.452 131.094H198.092C194.338 131.094 191.295 128.05 191.295 124.297C191.295 120.543 194.338 117.5 198.092 117.5Z" stroke="#BDBDBD" stroke-width="0.46875"/>
<path d="M210.912 126.515C210.833 126.534 210.545 126.62 210.164 126.62C209.79 126.62 209.541 126.508 209.377 126.318C209.213 126.128 209.147 125.859 209.147 125.366V124.113H208.688V123.319H209.147V122.439H210.203V123.319H210.919V124.113H210.203V125.274C210.203 125.55 210.243 125.616 210.295 125.675C210.341 125.727 210.407 125.754 210.545 125.754C210.709 125.754 210.86 125.694 210.86 125.694L210.912 126.515Z" fill="#7C7C7C"/>
<path d="M206.452 123.312H207.502L207.496 123.772H207.509C207.692 123.417 207.962 123.253 208.309 123.253C208.526 123.253 208.637 123.312 208.637 123.312L208.578 124.277H208.532C208.473 124.244 208.336 124.198 208.152 124.198C207.916 124.198 207.745 124.329 207.666 124.434C207.587 124.539 207.502 124.749 207.502 125.11V126.548H206.452V123.312Z" fill="#7C7C7C"/>
<path d="M204.778 126.206C204.64 126.344 204.377 126.62 203.852 126.62C203.281 126.62 202.678 126.311 202.678 125.589C202.678 124.868 203.341 124.625 203.938 124.598L204.751 124.566V124.493C204.751 124.152 204.509 123.975 204.089 123.975C203.675 123.975 203.262 124.159 203.098 124.264L202.822 123.581C203.098 123.443 203.603 123.253 204.207 123.253C204.811 123.253 205.158 123.391 205.414 123.627C205.664 123.863 205.801 124.178 205.801 124.723V126.548H204.797L204.778 126.206ZM204.24 125.156C203.918 125.169 203.728 125.307 203.728 125.55C203.728 125.799 203.931 125.95 204.22 125.95C204.502 125.95 204.692 125.767 204.758 125.655V125.123L204.24 125.156Z" fill="#7C7C7C"/>
<path d="M202.472 126.515C202.393 126.534 202.104 126.62 201.724 126.62C201.35 126.62 201.1 126.508 200.936 126.318C200.772 126.128 200.706 125.859 200.706 125.366V124.113H200.247V123.319H200.706V122.439H201.763V123.319H202.478V124.113H201.763V125.274C201.763 125.55 201.802 125.616 201.855 125.675C201.901 125.727 201.966 125.754 202.104 125.754C202.268 125.754 202.419 125.694 202.419 125.694L202.472 126.515Z" fill="#7C7C7C"/>
<path d="M197.211 125.17C197.539 125.511 198.044 125.74 198.392 125.74C198.733 125.74 198.996 125.576 198.996 125.275C198.996 124.966 198.654 124.855 198.464 124.776L197.834 124.54C197.263 124.33 196.882 123.988 196.882 123.319C196.882 122.387 197.716 121.967 198.549 121.967C199.074 121.967 199.678 122.216 199.986 122.525L199.534 123.266C199.271 123.004 198.864 122.807 198.523 122.807C198.182 122.807 197.932 122.938 197.932 123.214C197.932 123.49 198.175 123.595 198.392 123.673L199.068 123.929C199.639 124.146 200.052 124.513 200.052 125.17C200.052 126.154 199.166 126.626 198.293 126.626C197.637 126.626 197.053 126.285 196.686 125.944L197.211 125.17Z" fill="#7C7C7C"/>
<path d="M216.264 121.797L215.823 122.237L217.567 123.984H213.764V124.609H217.567L215.823 126.356L216.264 126.797L218.764 124.297L216.264 121.797Z" fill="#004357"/>
<path d="M61.4629 123.359C60.9473 123.359 60.5254 123.781 60.5254 124.297C60.5254 124.812 60.9473 125.234 61.4629 125.234C61.9785 125.234 62.4004 124.812 62.4004 124.297C62.4004 123.781 61.9785 123.359 61.4629 123.359ZM67.0879 123.359C66.5723 123.359 66.1504 123.781 66.1504 124.297C66.1504 124.812 66.5723 125.234 67.0879 125.234C67.6035 125.234 68.0254 124.812 68.0254 124.297C68.0254 123.781 67.6035 123.359 67.0879 123.359ZM64.2754 123.359C63.7598 123.359 63.3379 123.781 63.3379 124.297C63.3379 124.812 63.7598 125.234 64.2754 125.234C64.791 125.234 65.2129 124.812 65.2129 124.297C65.2129 123.781 64.791 123.359 64.2754 123.359Z" fill="#3C3E3E"/>
</g>
<path d="M53.4941 115.324C53.4941 113.894 54.6537 112.734 56.0841 112.734H218.404C219.835 112.734 220.994 113.894 220.994 115.324V133.269C220.994 134.7 219.835 135.859 218.404 135.859H56.0841C54.6537 135.859 53.4941 134.7 53.4941 133.269V115.324Z" stroke="#004357" stroke-width="0.46875"/>
</g>
<g opacity="0.4">
<g clip-path="url(#clip3_6291_211763)">
<path d="M57.2441 138.449C57.2441 137.019 58.4037 135.859 59.8341 135.859H222.154C223.585 135.859 224.744 137.019 224.744 138.449V157.019C224.744 158.45 223.585 159.609 222.154 159.609H59.8341C58.4037 159.609 57.2441 158.45 57.2441 157.019V138.449Z" fill="white"/>
<path d="M57.0488 138.138C57.0488 136.708 58.2084 135.548 59.6388 135.548H221.959C223.389 135.548 224.549 136.708 224.549 138.138V156.083C224.549 157.514 223.389 158.673 221.959 158.673H59.6387C58.2084 158.673 57.0488 157.514 57.0488 156.083V138.138Z" fill="white" stroke="#004357" stroke-width="0.46875"/>
<path d="M68.0254 154.531C64.2716 154.531 61.2285 151.488 61.2285 147.734C61.2285 143.98 64.2716 140.937 68.0254 140.937C71.7792 140.937 74.8223 143.98 74.8223 147.734C74.8223 151.488 71.7792 154.531 68.0254 154.531Z" fill="#F3F4F6" stroke="#BDBDBD" stroke-width="0.46875"/>
<path d="M97.8714 149.305C98.3523 149.676 98.7657 149.862 99.1117 149.862C99.5167 149.862 99.7023 149.71 99.7023 149.474C99.7023 149.263 99.542 149.145 99.0189 148.967L98.5464 148.807C97.9389 148.605 97.6267 148.242 97.6267 147.643C97.6267 146.9 98.3017 146.419 99.0864 146.419C99.812 146.419 100.217 146.613 100.554 146.858L100.09 147.575C99.8542 147.398 99.5082 147.229 99.137 147.229C98.7826 147.229 98.6054 147.364 98.6054 147.558C98.6054 147.735 98.7404 147.879 99.1961 148.022L99.4829 148.115C100.386 148.41 100.706 148.731 100.706 149.322C100.706 150.098 100.09 150.672 99.0864 150.672C98.462 150.672 97.7617 150.419 97.4326 150.039L97.8714 149.305Z" fill="#3C3E3E"/>
<path d="M97.1117 150.537C97.0611 150.554 96.7405 150.672 96.2848 150.672C95.8798 150.672 95.5845 150.587 95.3989 150.377C95.188 150.149 95.1036 149.786 95.1036 149.229V147.339H94.4961V146.504H95.1036V145.339H96.1752V146.504H97.1202V147.339H96.1752V148.993C96.1752 149.322 96.2005 149.516 96.2848 149.634C96.3523 149.735 96.4789 149.769 96.6645 149.769C96.8839 149.769 97.0527 149.702 97.0527 149.702L97.1117 150.537Z" fill="#3C3E3E"/>
<path d="M89.7852 144.757H90.8652V146.58C90.8652 146.807 90.8483 146.993 90.8398 147.111C91.2195 146.588 91.7089 146.402 92.2405 146.402C93.4302 146.402 94.1727 147.339 94.1727 148.537C94.1727 149.701 93.4048 150.655 92.1645 150.655C91.5908 150.655 91.1267 150.452 90.8061 149.988L90.7808 150.579H89.7852V144.757ZM91.9705 149.828C92.6708 149.828 93.0758 149.229 93.0758 148.546C93.0758 147.837 92.637 147.28 91.9367 147.28C91.287 147.28 90.8314 147.778 90.8314 148.546C90.8314 149.229 91.2786 149.828 91.9705 149.828Z" fill="#3C3E3E"/>
<path d="M88.8741 150.014C88.6463 150.25 88.0304 150.672 87.0347 150.672C85.8029 150.672 84.8916 149.921 84.8916 148.605C84.8916 147.297 85.845 146.419 87.0094 146.419C88.2666 146.419 89.026 147.246 89.026 148.335C89.026 148.545 89.0091 148.883 89.0091 148.883H86.0054C86.1066 149.533 86.6044 149.845 87.2204 149.845C87.7688 149.845 88.2582 149.6 88.4522 149.431L88.8741 150.014ZM87.946 148.183C87.9291 147.735 87.7604 147.221 87.001 147.221C86.3597 147.221 86.0222 147.668 85.9885 148.183H87.946Z" fill="#3C3E3E"/>
<path d="M81.2524 144.757C82.2649 144.757 83.0158 145.086 83.463 145.491C83.9186 145.888 84.3911 146.554 84.3911 147.66C84.3911 148.773 83.9186 149.457 83.463 149.853C83.0158 150.25 82.2649 150.579 81.2524 150.579H79.3877V144.757H81.2524ZM81.2946 149.651C81.9274 149.651 82.3914 149.44 82.6783 149.17C82.9568 148.9 83.2605 148.453 83.2605 147.668C83.2605 146.892 82.9568 146.419 82.6783 146.149C82.3914 145.888 81.9274 145.677 81.2946 145.677H80.4846V149.651H81.2946Z" fill="#3C3E3E"/>
<path d="M201.842 140.937H230.202C233.955 140.937 236.998 143.98 236.998 147.734C236.998 151.488 233.955 154.531 230.202 154.531H201.842C198.088 154.531 195.045 151.488 195.045 147.734C195.045 143.98 198.088 140.937 201.842 140.937Z" stroke="#BDBDBD" stroke-width="0.46875"/>
<path d="M214.662 149.952C214.583 149.972 214.295 150.057 213.914 150.057C213.54 150.057 213.291 149.946 213.127 149.755C212.963 149.565 212.897 149.296 212.897 148.804V147.55H212.438V146.756H212.897V145.877H213.953V146.756H214.669V147.55H213.953V148.712C213.953 148.988 213.993 149.053 214.045 149.112C214.091 149.165 214.157 149.191 214.295 149.191C214.459 149.191 214.61 149.132 214.61 149.132L214.662 149.952Z" fill="#7C7C7C"/>
<path d="M210.202 146.75H211.252L211.246 147.209H211.259C211.442 146.855 211.712 146.691 212.059 146.691C212.276 146.691 212.387 146.75 212.387 146.75L212.328 147.714H212.282C212.223 147.682 212.086 147.636 211.902 147.636C211.666 147.636 211.495 147.767 211.416 147.872C211.337 147.977 211.252 148.187 211.252 148.548V149.985H210.202V146.75Z" fill="#7C7C7C"/>
<path d="M208.528 149.644C208.39 149.782 208.127 150.057 207.602 150.057C207.031 150.057 206.428 149.749 206.428 149.027C206.428 148.305 207.091 148.062 207.688 148.036L208.501 148.003V147.931C208.501 147.59 208.259 147.413 207.839 147.413C207.425 147.413 207.012 147.597 206.848 147.702L206.572 147.019C206.848 146.881 207.353 146.691 207.957 146.691C208.561 146.691 208.908 146.829 209.164 147.065C209.414 147.301 209.551 147.616 209.551 148.161V149.985H208.547L208.528 149.644ZM207.99 148.594C207.668 148.607 207.478 148.745 207.478 148.988C207.478 149.237 207.681 149.388 207.97 149.388C208.252 149.388 208.442 149.204 208.508 149.093V148.561L207.99 148.594Z" fill="#7C7C7C"/>
<path d="M206.222 149.952C206.143 149.972 205.854 150.057 205.474 150.057C205.1 150.057 204.85 149.946 204.686 149.755C204.522 149.565 204.456 149.296 204.456 148.804V147.55H203.997V146.756H204.456V145.877H205.513V146.756H206.228V147.55H205.513V148.712C205.513 148.988 205.552 149.053 205.605 149.112C205.651 149.165 205.716 149.191 205.854 149.191C206.018 149.191 206.169 149.132 206.169 149.132L206.222 149.952Z" fill="#7C7C7C"/>
<path d="M200.961 148.607C201.289 148.948 201.794 149.178 202.142 149.178C202.483 149.178 202.746 149.014 202.746 148.712C202.746 148.404 202.404 148.292 202.214 148.213L201.584 147.977C201.013 147.767 200.632 147.426 200.632 146.756C200.632 145.825 201.466 145.405 202.299 145.405C202.824 145.405 203.428 145.654 203.736 145.962L203.284 146.704C203.021 146.441 202.614 146.245 202.273 146.245C201.932 146.245 201.682 146.376 201.682 146.651C201.682 146.927 201.925 147.032 202.142 147.111L202.818 147.367C203.389 147.583 203.802 147.951 203.802 148.607C203.802 149.591 202.916 150.064 202.043 150.064C201.387 150.064 200.803 149.723 200.436 149.381L200.961 148.607Z" fill="#7C7C7C"/>
<path d="M220.014 145.234L219.573 145.675L221.317 147.422H217.514V148.047H221.317L219.573 149.794L220.014 150.234L222.514 147.734L220.014 145.234Z" fill="#004357"/>
<path d="M65.2129 146.797C64.6973 146.797 64.2754 147.219 64.2754 147.734C64.2754 148.25 64.6973 148.672 65.2129 148.672C65.7285 148.672 66.1504 148.25 66.1504 147.734C66.1504 147.219 65.7285 146.797 65.2129 146.797ZM70.8379 146.797C70.3223 146.797 69.9004 147.219 69.9004 147.734C69.9004 148.25 70.3223 148.672 70.8379 148.672C71.3535 148.672 71.7754 148.25 71.7754 147.734C71.7754 147.219 71.3535 146.797 70.8379 146.797ZM68.0254 146.797C67.5098 146.797 67.0879 147.219 67.0879 147.734C67.0879 148.25 67.5098 148.672 68.0254 148.672C68.541 148.672 68.9629 148.25 68.9629 147.734C68.9629 147.219 68.541 146.797 68.0254 146.797Z" fill="#3C3E3E"/>
</g>
<path d="M57.2441 138.449C57.2441 137.019 58.4037 135.859 59.8341 135.859H222.154C223.585 135.859 224.744 137.019 224.744 138.449V157.019C224.744 158.45 223.585 159.609 222.154 159.609H59.8341C58.4037 159.609 57.2441 158.45 57.2441 157.019V138.449Z" stroke="#004357" stroke-width="0.46875"/>
</g>
<path d="M45.5265 97.5604C45.7133 97.8506 45.6295 98.2374 45.3392 98.4242L40.6091 101.468C40.3188 101.655 39.9321 101.571 39.7453 101.281C39.5585 100.991 39.6424 100.604 39.9326 100.417L44.1372 97.7113L41.4313 93.5068C41.2445 93.2165 41.3283 92.8298 41.6186 92.643C41.9089 92.4561 42.2956 92.54 42.4824 92.8303L45.5265 97.5604ZM22.3463 45.0448C15.2609 52.7046 12.9516 64.0198 16.4077 74.2921C19.8558 84.5405 29.0665 93.8035 45.1334 97.2878L44.8685 98.5094C28.4199 94.9423 18.8265 85.4011 15.223 74.6907C11.6275 64.0043 14.0192 52.2061 21.4287 44.196L22.3463 45.0448Z" fill="#004357"/>
<path d="M275.307 116.485L259.019 116.485C256.257 116.485 254.019 118.723 254.019 121.485L254.019 145.341" stroke="#BED73C" stroke-width="1.25" stroke-linecap="round" stroke-linejoin="round" stroke-dasharray="2.5 2.5"/>
<path d="M169.089 181.461L158.494 181.461C155.733 181.461 153.494 179.222 153.494 176.461L153.494 162.711" stroke="#BED73C" stroke-width="1.25" stroke-linecap="round" stroke-linejoin="round" stroke-dasharray="2.5 2.5"/>
<path d="M181.476 148.136H273.378C278.485 148.136 282.625 152.276 282.625 157.383V203.614C282.625 208.721 278.485 212.861 273.378 212.861H181.476C176.369 212.861 172.229 208.721 172.229 203.614V157.383C172.229 152.276 176.369 148.136 181.476 148.136Z" fill="white"/>
<path d="M181.476 148.136H273.378C278.485 148.136 282.625 152.276 282.625 157.383V203.614C282.625 208.721 278.485 212.861 273.378 212.861H181.476C176.369 212.861 172.229 208.721 172.229 203.614V157.383C172.229 152.276 176.369 148.136 181.476 148.136Z" stroke="#004357" stroke-width="0.804077"/>
<path d="M181.476 148.039H273.378C278.485 148.039 282.625 152.179 282.625 157.286V203.614C282.625 208.721 278.485 212.861 273.378 212.861H181.476C176.369 212.861 172.229 208.721 172.229 203.614V157.286C172.229 152.179 176.369 148.039 181.476 148.039Z" fill="white" stroke="#004357" stroke-width="0.804077"/>
<g clip-path="url(#clip4_6291_211763)">
<path d="M206.116 176.917L199.007 174.285V172.774C199.007 172.494 198.774 172.261 198.494 172.261C198.214 172.261 197.981 172.494 197.981 172.774V174.401L195.76 176.233L193.538 174.401V172.781C193.538 172.501 193.306 172.268 193.025 172.268C192.745 172.268 192.513 172.501 192.513 172.781V174.292L185.403 176.924C184.139 177.395 183.284 178.619 183.284 179.966V188.661C183.284 188.941 183.517 189.174 183.797 189.174H207.723C208.003 189.174 208.235 188.941 208.235 188.661V179.959C208.235 178.612 207.381 177.388 206.116 176.917ZM192.554 177.416L193.258 175.495L194.789 176.76L192.786 177.635C192.697 177.676 192.629 177.635 192.602 177.6C192.567 177.573 192.52 177.511 192.554 177.416ZM194.796 180.622H196.724L198.528 188.141H192.991L194.796 180.622ZM196.689 179.596H194.823L194.557 177.983L195.76 177.457L196.963 177.983L196.689 179.596ZM196.73 176.76L198.262 175.495L198.966 177.416C199 177.505 198.952 177.573 198.925 177.6C198.897 177.628 198.829 177.669 198.74 177.635L196.73 176.76ZM184.31 179.959C184.31 179.036 184.891 178.195 185.759 177.874L192.164 175.502L191.59 177.067C191.426 177.525 191.542 178.017 191.891 178.345C192.123 178.564 192.41 178.674 192.704 178.674C192.868 178.674 193.032 178.639 193.189 178.571L193.586 178.4L193.866 180.089L191.938 188.141H187.728V186.261C187.728 185.981 187.495 185.749 187.215 185.749C186.935 185.749 186.702 185.981 186.702 186.261V188.141H184.31V179.959ZM207.21 188.141H204.817V186.261C204.817 185.981 204.585 185.749 204.305 185.749C204.024 185.749 203.792 185.981 203.792 186.261V188.141H199.581L197.646 180.089L197.927 178.4L198.323 178.571C198.48 178.639 198.645 178.674 198.809 178.674C199.103 178.674 199.396 178.564 199.622 178.345C199.978 178.01 200.094 177.518 199.923 177.067L199.355 175.509L205.761 177.881C206.629 178.202 207.21 179.036 207.21 179.966V188.141Z" fill="#004357"/>
<path d="M204.306 183.698C204.025 183.698 203.793 183.93 203.793 184.211V184.552C203.793 184.833 204.025 185.065 204.306 185.065C204.586 185.065 204.818 184.833 204.818 184.552V184.211C204.818 183.93 204.586 183.698 204.306 183.698Z" fill="#004357"/>
<path d="M187.215 185.065C187.495 185.065 187.728 184.833 187.728 184.553V184.211C187.728 183.931 187.495 183.698 187.215 183.698C186.935 183.698 186.702 183.931 186.702 184.211V184.553C186.702 184.833 186.935 185.065 187.215 185.065Z" fill="#004357"/>
<path d="M194.221 169.719C194.221 168.871 194.911 168.181 195.759 168.181H200.106C200.277 167.702 200.373 167.183 200.373 166.643V163.908C200.373 161.365 198.302 159.294 195.759 159.294C193.216 159.294 191.145 161.365 191.145 163.908V166.643C191.145 169.186 193.216 171.257 195.759 171.257C194.911 171.257 194.221 170.566 194.221 169.719Z" fill="#BED73C"/>
<path d="M203.279 161.687H202.425V160.832C202.425 157.154 199.437 154.167 195.76 154.167C192.082 154.167 189.095 157.154 189.095 160.832V161.687H188.24C187.201 161.687 186.36 162.527 186.36 163.566V168.352C186.36 169.391 187.201 170.231 188.24 170.231C189.279 170.231 190.12 169.391 190.12 168.352V160.832C190.12 157.722 192.649 155.192 195.76 155.192C198.87 155.192 201.399 157.722 201.399 160.832V169.206H195.76C195.479 169.206 195.247 169.438 195.247 169.719C195.247 169.999 195.479 170.231 195.76 170.231H203.279C204.318 170.231 205.159 169.391 205.159 168.352V163.566C205.159 162.527 204.318 161.687 203.279 161.687Z" fill="#BED73C"/>
</g>
<path d="M274.704 195.599H276.427L276.273 201.929H274.845L274.704 195.599ZM274.523 203.666C274.523 203.061 274.948 202.701 275.566 202.701C276.157 202.701 276.595 203.061 276.595 203.666C276.595 204.258 276.157 204.618 275.566 204.618C274.948 204.618 274.523 204.258 274.523 203.666Z" fill="#3C3E3E"/>
<path d="M266.466 198.25H268.138L268.113 199.163C268.614 198.417 269.386 198.108 270.21 198.108C272.036 198.108 273.156 199.523 273.156 201.376C273.156 203.138 271.985 204.592 270.094 204.592C269.142 204.592 268.601 204.258 268.087 203.64C268.1 204.026 268.087 204.425 268.087 204.811V206.831H266.466V198.25ZM269.798 203.331C270.866 203.331 271.483 202.418 271.483 201.376C271.483 200.295 270.814 199.446 269.746 199.446C268.756 199.446 268.061 200.205 268.061 201.376C268.061 202.418 268.743 203.331 269.798 203.331Z" fill="#3C3E3E"/>
<path d="M263.213 195.599H264.847V204.476H263.213V195.599Z" fill="#3C3E3E"/>
<path d="M261.823 203.614C261.476 203.975 260.537 204.618 259.019 204.618C257.14 204.618 255.751 203.473 255.751 201.466C255.751 199.472 257.205 198.134 258.98 198.134C260.897 198.134 262.055 199.395 262.055 201.054C262.055 201.376 262.029 201.89 262.029 201.89H257.449C257.604 202.881 258.363 203.357 259.302 203.357C260.138 203.357 260.884 202.984 261.18 202.727L261.823 203.614ZM260.408 200.823C260.382 200.141 260.125 199.356 258.967 199.356C257.99 199.356 257.475 200.038 257.423 200.823H260.408Z" fill="#3C3E3E"/>
<path d="M248.915 195.599H250.549V199.189H250.575C250.909 198.533 251.54 198.134 252.44 198.134C254.228 198.134 254.679 199.292 254.679 200.784V204.476H253.032V201.144C253.032 200.218 252.865 199.485 251.913 199.485C250.896 199.485 250.549 200.334 250.549 201.376V204.476H248.915V195.599Z" fill="#3C3E3E"/>
<path d="M238.414 201.389C238.414 199.42 239.881 198.134 241.798 198.134C243.702 198.134 245.168 199.42 245.168 201.389C245.168 203.357 243.702 204.618 241.798 204.618C239.881 204.618 238.414 203.357 238.414 201.389ZM241.798 203.254C242.853 203.254 243.47 202.418 243.47 201.35C243.47 200.282 242.853 199.459 241.798 199.459C240.717 199.459 240.125 200.282 240.125 201.35C240.125 202.418 240.717 203.254 241.798 203.254Z" fill="#3C3E3E"/>
<path d="M237.848 204.412C237.77 204.438 237.282 204.618 236.587 204.618C235.969 204.618 235.519 204.489 235.236 204.168C234.914 203.82 234.786 203.267 234.786 202.418V199.536H233.859V198.262H234.786V196.487H236.42V198.262H237.86V199.536H236.42V202.058C236.42 202.559 236.458 202.855 236.587 203.035C236.69 203.19 236.883 203.241 237.166 203.241C237.5 203.241 237.758 203.138 237.758 203.138L237.848 204.412Z" fill="#3C3E3E"/>
<path d="M230.628 203.614C230.281 203.975 229.342 204.618 227.823 204.618C225.945 204.618 224.556 203.473 224.556 201.466C224.556 199.472 226.009 198.134 227.785 198.134C229.702 198.134 230.86 199.395 230.86 201.054C230.86 201.376 230.834 201.89 230.834 201.89H226.254C226.408 202.881 227.167 203.357 228.106 203.357C228.943 203.357 229.689 202.984 229.985 202.727L230.628 203.614ZM229.213 200.823C229.187 200.141 228.93 199.356 227.772 199.356C226.794 199.356 226.28 200.038 226.228 200.823H229.213Z" fill="#3C3E3E"/>
<path d="M220.318 198.25H221.952L221.927 199.253H221.965C222.21 198.584 222.827 198.134 223.496 198.134C223.921 198.134 224.152 198.25 224.152 198.25L224.036 199.678H223.959C223.779 199.626 223.496 199.6 223.277 199.6C222.788 199.6 222.403 199.806 222.184 200.205C222.017 200.514 221.952 200.938 221.952 201.414V204.476H220.318V198.25Z" fill="#3C3E3E"/>
<path d="M218.994 203.614C218.647 203.975 217.708 204.618 216.19 204.618C214.311 204.618 212.922 203.473 212.922 201.466C212.922 199.472 214.376 198.134 216.151 198.134C218.068 198.134 219.226 199.395 219.226 201.054C219.226 201.376 219.2 201.89 219.2 201.89H214.62C214.774 202.881 215.534 203.357 216.473 203.357C217.309 203.357 218.055 202.984 218.351 202.727L218.994 203.614ZM217.579 200.823C217.553 200.141 217.296 199.356 216.138 199.356C215.16 199.356 214.646 200.038 214.594 200.823H217.579Z" fill="#3C3E3E"/>
<path d="M206.085 195.599H207.719V199.189H207.745C208.079 198.533 208.709 198.134 209.61 198.134C211.398 198.134 211.849 199.292 211.849 200.784V204.476H210.202V201.144C210.202 200.218 210.035 199.485 209.083 199.485C208.066 199.485 207.719 200.334 207.719 201.376V204.476H206.085V195.599Z" fill="#3C3E3E"/>
<path d="M192.603 198.25H194.249L194.236 199.189H194.275C194.558 198.61 195.317 198.134 196.128 198.134C197.028 198.134 197.569 198.494 197.864 199.317C198.302 198.558 199.009 198.134 199.91 198.134C201.544 198.134 201.994 199.292 201.994 200.72V204.476H200.347V200.99C200.347 200.231 200.18 199.485 199.37 199.485C198.546 199.485 198.122 200.192 198.122 201.26V204.476H196.475V200.977C196.475 200.128 196.256 199.485 195.471 199.485C194.622 199.485 194.249 200.282 194.249 201.26V204.476H192.603V198.25Z" fill="#3C3E3E"/>
<path d="M189.297 195.599H190.918L189.695 198.584H188.357L189.297 195.599Z" fill="#3C3E3E"/>
<path d="M185.005 195.599H186.677V204.476H185.005V195.599Z" fill="#3C3E3E"/>
<path d="M182.004 195.599H183.277L182.338 198.584H180.781L182.004 195.599ZM179.482 195.599H180.756L179.816 198.584H178.26L179.482 195.599Z" fill="#3C3E3E"/>
<path d="M261.705 219.071L254.281 212.459H272.337L264.913 219.071C263.999 219.886 262.619 219.886 261.705 219.071Z" fill="white"/>
<path d="M254.301 213.021L261.767 219.22C262.661 219.962 263.956 219.962 264.849 219.22L272.314 213.021" stroke="#004357" stroke-width="0.804077" stroke-linecap="square"/>
<path d="M292.675 216.96C292.331 216.992 292.078 217.296 292.11 217.64L292.626 223.241C292.658 223.585 292.962 223.838 293.306 223.806C293.65 223.774 293.903 223.47 293.871 223.126L293.412 218.148L298.391 217.688C298.734 217.656 298.987 217.352 298.956 217.008C298.924 216.665 298.619 216.412 298.276 216.443L292.675 216.96ZM347.735 204.069C332.527 228.801 306.179 227.945 293.131 217.102L292.332 218.063C305.938 229.37 333.175 230.133 348.8 204.723L347.735 204.069Z" fill="#004357"/>
<path d="M327.192 89.5982C327.425 89.8526 327.82 89.8697 328.075 89.6364L332.221 85.8347C332.475 85.6014 332.492 85.206 332.259 84.9516C332.025 84.6972 331.63 84.6801 331.376 84.9134L327.691 88.2927L324.311 84.6076C324.078 84.3532 323.683 84.3361 323.428 84.5694C323.174 84.8027 323.157 85.198 323.39 85.4525L327.192 89.5982ZM328.277 89.2028C329.532 60.1964 352.968 48.1256 369.643 51.252L369.873 50.0234C352.486 46.7633 328.318 59.3473 327.028 89.1488L328.277 89.2028Z" fill="#004357"/>
<g clip-path="url(#clip5_6291_211763)">
<path d="M277.315 97.4097C277.315 95.7544 278.657 94.4126 280.313 94.4126H458.693C460.349 94.4126 461.69 95.7545 461.69 97.4097V146.032C461.69 147.687 460.349 149.029 458.693 149.029H280.313C278.657 149.029 277.315 147.687 277.315 146.032V97.4097Z" fill="#F3F4F6"/>
<path d="M277.315 97.4097C277.315 95.7545 278.657 94.4126 280.313 94.4126H458.693C460.349 94.4126 461.69 95.7545 461.69 97.4097V146.032C461.69 147.687 460.349 149.029 458.693 149.029H280.313C278.657 149.029 277.315 147.687 277.315 146.032V97.4097Z" fill="white"/>
<path d="M417.286 105.751C417.286 105.226 417.655 104.914 418.191 104.914C418.704 104.914 419.084 105.226 419.084 105.751C419.084 106.265 418.704 106.577 418.191 106.577C417.655 106.577 417.286 106.265 417.286 105.751Z" fill="#3C3E3E"/>
<path d="M415.946 105.706C415.645 106.019 414.83 106.577 413.512 106.577C411.882 106.577 410.676 105.584 410.676 103.842C410.676 102.111 411.938 100.95 413.478 100.95C415.142 100.95 416.147 102.044 416.147 103.484C416.147 103.764 416.125 104.21 416.125 104.21H412.15C412.284 105.07 412.942 105.483 413.758 105.483C414.483 105.483 415.131 105.159 415.388 104.936L415.946 105.706ZM414.718 103.283C414.696 102.692 414.472 102.01 413.467 102.01C412.619 102.01 412.172 102.602 412.127 103.283H414.718Z" fill="#3C3E3E"/>
<path d="M404.73 101.05H406.16L406.149 101.932C406.472 101.24 407.098 100.95 407.801 100.95C409.353 100.95 409.744 101.955 409.744 103.25V106.455H408.315V103.563C408.315 102.759 408.17 102.122 407.343 102.122C406.461 102.122 406.16 102.859 406.16 103.764V106.455H404.73V101.05Z" fill="#3C3E3E"/>
<path d="M397.886 103.775C397.886 102.066 399.159 100.95 400.822 100.95C402.475 100.95 403.748 102.066 403.748 103.775C403.748 105.483 402.475 106.577 400.822 106.577C399.159 106.577 397.886 105.483 397.886 103.775ZM400.822 105.394C401.738 105.394 402.274 104.668 402.274 103.741C402.274 102.814 401.738 102.1 400.822 102.1C399.884 102.1 399.371 102.814 399.371 103.741C399.371 104.668 399.884 105.394 400.822 105.394Z" fill="#3C3E3E"/>
<path d="M395.471 106.454L395.482 105.606C395.047 106.298 394.343 106.577 393.595 106.577C392.01 106.577 391.038 105.349 391.038 103.741C391.038 102.211 392.054 100.95 393.696 100.95C394.421 100.95 395.058 101.218 395.437 101.798C395.426 101.553 395.426 101.262 395.426 100.883V98.75H396.844V106.454H395.471ZM393.997 105.416C394.857 105.416 395.46 104.757 395.46 103.741C395.46 102.837 394.868 102.044 393.952 102.044C393.026 102.044 392.49 102.837 392.49 103.741C392.49 104.679 393.07 105.416 393.997 105.416Z" fill="#3C3E3E"/>
<path d="M388.333 106.399C388.266 106.421 387.841 106.577 387.238 106.577C386.702 106.577 386.311 106.466 386.066 106.187C385.787 105.885 385.675 105.405 385.675 104.668V102.167H384.871V101.061H385.675V99.5205H387.093V101.061H388.344V102.167H387.093V104.355C387.093 104.791 387.127 105.048 387.238 105.204C387.328 105.338 387.495 105.383 387.741 105.383C388.031 105.383 388.254 105.293 388.254 105.293L388.333 106.399Z" fill="#3C3E3E"/>
<path d="M380.789 104.768C381.425 105.26 381.972 105.505 382.43 105.505C382.966 105.505 383.212 105.304 383.212 104.992C383.212 104.713 382.999 104.556 382.307 104.322L381.682 104.11C380.878 103.842 380.465 103.362 380.465 102.569C380.465 101.586 381.358 100.95 382.397 100.95C383.357 100.95 383.893 101.207 384.339 101.53L383.725 102.479C383.413 102.245 382.955 102.022 382.464 102.022C381.995 102.022 381.76 102.2 381.76 102.457C381.76 102.692 381.939 102.881 382.542 103.071L382.921 103.194C384.116 103.585 384.54 104.009 384.54 104.791C384.54 105.818 383.725 106.577 382.397 106.577C381.57 106.577 380.643 106.242 380.208 105.74L380.789 104.768Z" fill="#3C3E3E"/>
<path d="M373.765 103.775C373.765 102.066 375.038 100.95 376.701 100.95C378.354 100.95 379.627 102.066 379.627 103.775C379.627 105.483 378.354 106.577 376.701 106.577C375.038 106.577 373.765 105.483 373.765 103.775ZM376.701 105.394C377.617 105.394 378.153 104.668 378.153 103.741C378.153 102.814 377.617 102.1 376.701 102.1C375.763 102.1 375.25 102.814 375.25 103.741C375.25 104.668 375.763 105.394 376.701 105.394Z" fill="#3C3E3E"/>
<path d="M364.669 101.05H366.098L366.087 101.865H366.121C366.366 101.363 367.025 100.95 367.728 100.95C368.51 100.95 368.979 101.262 369.236 101.977C369.615 101.318 370.23 100.95 371.011 100.95C372.429 100.95 372.82 101.955 372.82 103.194V106.455H371.391V103.429C371.391 102.77 371.246 102.122 370.542 102.122C369.828 102.122 369.459 102.736 369.459 103.663V106.455H368.03V103.417C368.03 102.68 367.84 102.122 367.159 102.122C366.422 102.122 366.098 102.814 366.098 103.663V106.455H364.669V101.05Z" fill="#3C3E3E"/>
<path d="M361.878 98.75H363.296V106.454H361.878V98.75Z" fill="#3C3E3E"/>
<path d="M359.202 105.829C358.979 106.22 358.354 106.577 357.55 106.577C356.5 106.577 355.651 106.008 355.651 104.88C355.651 103.752 356.757 103.317 357.873 103.239L359.169 103.149V103.004C359.169 102.312 358.711 101.988 357.963 101.988C357.248 101.988 356.656 102.256 356.422 102.435L355.986 101.519C356.399 101.274 357.159 100.95 358.097 100.95C359.057 100.95 359.604 101.195 360.006 101.575C360.397 101.955 360.598 102.446 360.598 103.362V106.455H359.224L359.202 105.829ZM358.208 104.076C357.449 104.121 357.081 104.378 357.081 104.835C357.081 105.293 357.427 105.606 358.019 105.606C358.577 105.606 358.99 105.282 359.18 105.014V104.02L358.208 104.076Z" fill="#3C3E3E"/>
<path d="M352.701 105.706C352.4 106.019 351.584 106.577 350.267 106.577C348.637 106.577 347.431 105.584 347.431 103.842C347.431 102.111 348.692 100.95 350.233 100.95C351.897 100.95 352.902 102.044 352.902 103.484C352.902 103.764 352.88 104.21 352.88 104.21H348.905C349.039 105.07 349.697 105.483 350.512 105.483C351.238 105.483 351.886 105.159 352.143 104.936L352.701 105.706ZM351.473 103.283C351.45 102.692 351.227 102.01 350.222 102.01C349.374 102.01 348.927 102.602 348.882 103.283H351.473Z" fill="#3C3E3E"/>
<path d="M343.754 101.05H345.172L345.15 101.921H345.183C345.395 101.341 345.931 100.95 346.512 100.95C346.88 100.95 347.081 101.05 347.081 101.05L346.981 102.29H346.914C346.758 102.245 346.512 102.223 346.322 102.223C345.898 102.223 345.563 102.401 345.373 102.747C345.228 103.015 345.172 103.384 345.172 103.797V106.455H343.754V101.05Z" fill="#3C3E3E"/>
<path d="M340.884 98.75H342.291L341.231 101.34H340.069L340.884 98.75Z" fill="#3C3E3E"/>
<path d="M337.326 105.695C337.014 106.231 336.433 106.555 335.651 106.555C334.993 106.555 334.546 106.376 334.245 106.075C333.843 105.662 333.72 105.003 333.72 104.255V101.05H335.149V103.942C335.149 104.746 335.283 105.383 336.109 105.383C336.969 105.383 337.293 104.702 337.293 103.797V101.05H338.722V106.455H337.337L337.326 105.695Z" fill="#3C3E3E"/>
<path d="M326.976 103.775C326.976 102.066 328.249 100.95 329.912 100.95C331.565 100.95 332.838 102.066 332.838 103.775C332.838 105.483 331.565 106.577 329.912 106.577C328.249 106.577 326.976 105.483 326.976 103.775ZM329.912 105.394C330.828 105.394 331.364 104.668 331.364 103.741C331.364 102.814 330.828 102.1 329.912 102.1C328.974 102.1 328.461 102.814 328.461 103.741C328.461 104.668 328.974 105.394 329.912 105.394Z" fill="#3C3E3E"/>
<path d="M322.591 103.283L319.922 98.75H321.53L323.327 102.055L325.114 98.75H326.722L324.042 103.283V106.454H322.591V103.283Z" fill="#3C3E3E"/>
<path d="M421.204 120.875H421.954L421.886 124.67H421.264L421.204 120.875ZM421.076 125.66C421.076 125.367 421.286 125.187 421.579 125.187C421.864 125.187 422.074 125.367 422.074 125.66C422.074 125.945 421.864 126.125 421.579 126.125C421.286 126.125 421.076 125.945 421.076 125.66Z" fill="#3C3E3E"/>
<path d="M419.945 125.3C419.945 126.087 419.817 126.522 419.555 126.837C419.292 127.16 418.85 127.52 417.965 127.52C417.087 127.52 416.48 127.062 416.375 126.987L416.712 126.485C416.9 126.65 417.455 126.935 417.987 126.935C418.52 126.935 418.82 126.725 418.962 126.545C419.105 126.372 419.232 126.035 419.232 125.547V125.352C418.977 125.727 418.572 126.005 417.965 126.005C417.057 126.005 416.255 125.337 416.255 124.25C416.255 123.065 417.057 122.42 417.972 122.42C418.55 122.42 418.97 122.675 419.217 123.042H419.232V122.487H419.945V125.3ZM418.122 125.42C418.835 125.42 419.255 124.887 419.255 124.227C419.255 123.515 418.835 122.997 418.122 122.997C417.41 122.997 416.99 123.522 416.99 124.227C416.99 124.887 417.41 125.42 418.122 125.42Z" fill="#3C3E3E"/>
<path d="M412.438 122.487H413.157L413.15 123.095C413.345 122.675 413.803 122.42 414.26 122.42C415.273 122.42 415.535 123.087 415.535 123.942V126.05H414.815V124.062C414.815 123.462 414.71 123.012 414.073 123.012C413.405 123.012 413.157 123.575 413.157 124.257V126.05H412.438V122.487Z" fill="#3C3E3E"/>
<path d="M410.583 121.317C410.583 121.062 410.778 120.875 411.056 120.875C411.326 120.875 411.521 121.062 411.521 121.317C411.521 121.572 411.326 121.76 411.056 121.76C410.778 121.76 410.583 121.572 410.583 121.317ZM410.696 122.487H411.416V126.05H410.696V122.487Z" fill="#3C3E3E"/>
<path d="M406.141 124.28C406.141 123.177 406.966 122.42 408.031 122.42C409.088 122.42 409.913 123.177 409.913 124.28C409.913 125.39 409.088 126.132 408.031 126.132C406.966 126.132 406.141 125.39 406.141 124.28ZM408.031 125.517C408.743 125.517 409.186 124.962 409.186 124.257C409.186 123.56 408.743 123.005 408.031 123.005C407.311 123.005 406.868 123.56 406.868 124.257C406.868 124.962 407.311 125.517 408.031 125.517Z" fill="#3C3E3E"/>
<path d="M405.384 125.3C405.384 126.087 405.257 126.522 404.994 126.837C404.732 127.16 404.289 127.52 403.404 127.52C402.527 127.52 401.919 127.062 401.814 126.987L402.152 126.485C402.339 126.65 402.894 126.935 403.427 126.935C403.959 126.935 404.259 126.725 404.402 126.545C404.544 126.372 404.672 126.035 404.672 125.547V125.352C404.417 125.727 404.012 126.005 403.404 126.005C402.497 126.005 401.694 125.337 401.694 124.25C401.694 123.065 402.497 122.42 403.412 122.42C403.989 122.42 404.409 122.675 404.657 123.042H404.672V122.487H405.384V125.3ZM403.562 125.42C404.274 125.42 404.694 124.887 404.694 124.227C404.694 123.515 404.274 122.997 403.562 122.997C402.849 122.997 402.429 123.522 402.429 124.227C402.429 124.887 402.849 125.42 403.562 125.42Z" fill="#3C3E3E"/>
<path d="M394.317 122.487H395.037L395.03 123.05H395.052C395.217 122.72 395.607 122.42 396.08 122.42C396.605 122.42 396.972 122.66 397.137 123.125C397.377 122.675 397.767 122.42 398.27 122.42C399.222 122.42 399.477 123.117 399.477 123.89V126.05H398.765V123.972C398.765 123.56 398.69 123.012 398.112 123.012C397.542 123.012 397.257 123.56 397.257 124.197V126.05H396.537V123.972C396.537 123.447 396.41 123.012 395.892 123.012C395.322 123.012 395.037 123.56 395.037 124.197V126.05H394.317V122.487Z" fill="#3C3E3E"/>
<path d="M392.622 125.54C392.427 125.885 392.022 126.132 391.519 126.132C391.009 126.132 390.717 125.96 390.529 125.72C390.349 125.48 390.267 125.127 390.267 124.617V122.48H390.979V124.587C390.979 125.075 391.084 125.532 391.722 125.532C392.352 125.532 392.607 124.992 392.607 124.392V122.48H393.327V126.05H392.629L392.622 125.54Z" fill="#3C3E3E"/>
<path d="M389.7 126.012C389.512 126.095 389.295 126.132 389.047 126.132C388.672 126.132 388.44 125.99 388.29 125.765C388.14 125.54 388.11 125.262 388.11 124.7V123.072H387.585V122.495H388.11V121.43H388.83V122.495H389.685V123.072H388.83V124.685C388.83 124.985 388.83 125.195 388.92 125.337C388.98 125.457 389.085 125.517 389.287 125.517C389.497 125.517 389.655 125.435 389.655 125.435L389.7 126.012Z" fill="#3C3E3E"/>
<path d="M383.91 122.487H384.63L384.623 123.095C384.818 122.675 385.275 122.42 385.733 122.42C386.745 122.42 387.008 123.087 387.008 123.942V126.05H386.288V124.062C386.288 123.462 386.183 123.012 385.545 123.012C384.878 123.012 384.63 123.575 384.63 124.257V126.05H383.91V122.487Z" fill="#3C3E3E"/>
<path d="M383.053 125.57C383.008 125.607 382.55 126.132 381.485 126.132C380.428 126.132 379.7 125.397 379.7 124.265C379.7 123.14 380.518 122.42 381.508 122.42C382.498 122.42 383.195 123.125 383.195 124.122C383.195 124.257 383.173 124.437 383.173 124.437H380.428C380.465 125.142 380.915 125.57 381.575 125.57C382.243 125.57 382.67 125.21 382.753 125.157L383.053 125.57ZM382.513 123.957C382.505 123.56 382.205 122.937 381.485 122.937C380.773 122.937 380.458 123.53 380.435 123.957H382.513Z" fill="#3C3E3E"/>
<path d="M373.816 122.487H374.536L374.529 123.05H374.551C374.716 122.72 375.106 122.42 375.579 122.42C376.104 122.42 376.471 122.66 376.636 123.125C376.876 122.675 377.266 122.42 377.769 122.42C378.721 122.42 378.976 123.117 378.976 123.89V126.05H378.264V123.972C378.264 123.56 378.189 123.012 377.611 123.012C377.041 123.012 376.756 123.56 376.756 124.197V126.05H376.036V123.972C376.036 123.447 375.909 123.012 375.391 123.012C374.821 123.012 374.536 123.56 374.536 124.197V126.05H373.816V122.487Z" fill="#3C3E3E"/>
<path d="M369.292 124.28C369.292 123.177 370.117 122.42 371.182 122.42C372.239 122.42 373.064 123.177 373.064 124.28C373.064 125.39 372.239 126.132 371.182 126.132C370.117 126.132 369.292 125.39 369.292 124.28ZM371.182 125.517C371.894 125.517 372.337 124.962 372.337 124.257C372.337 123.56 371.894 123.005 371.182 123.005C370.462 123.005 370.019 123.56 370.019 124.257C370.019 124.962 370.462 125.517 371.182 125.517Z" fill="#3C3E3E"/>
<path d="M363.409 122.487H364.129L364.122 123.05H364.144C364.309 122.72 364.699 122.42 365.172 122.42C365.697 122.42 366.064 122.66 366.229 123.125C366.469 122.675 366.859 122.42 367.362 122.42C368.314 122.42 368.569 123.117 368.569 123.89V126.05H367.857V123.972C367.857 123.56 367.782 123.012 367.204 123.012C366.634 123.012 366.349 123.56 366.349 124.197V126.05H365.629V123.972C365.629 123.447 365.502 123.012 364.984 123.012C364.414 123.012 364.129 123.56 364.129 124.197V126.05H363.409V122.487Z" fill="#3C3E3E"/>
<path d="M361.058 125.57C361.013 125.607 360.555 126.132 359.49 126.132C358.433 126.132 357.705 125.397 357.705 124.265C357.705 123.14 358.523 122.42 359.513 122.42C360.503 122.42 361.2 123.125 361.2 124.122C361.2 124.257 361.178 124.437 361.178 124.437H358.433C358.47 125.142 358.92 125.57 359.58 125.57C360.248 125.57 360.675 125.21 360.758 125.157L361.058 125.57ZM360.518 123.957C360.51 123.56 360.21 122.937 359.49 122.937C358.778 122.937 358.463 123.53 358.44 123.957H360.518Z" fill="#3C3E3E"/>
<path d="M353.874 120.875H354.587V123.05H354.602C354.789 122.697 355.179 122.42 355.697 122.42C356.724 122.42 356.972 123.08 356.972 123.927V126.05H356.252V124.032C356.252 123.522 356.169 123.012 355.517 123.012C354.864 123.012 354.587 123.575 354.587 124.287V126.05H353.874V120.875Z" fill="#3C3E3E"/>
<path d="M353.24 126.012C353.053 126.095 352.835 126.132 352.588 126.132C352.213 126.132 351.98 125.99 351.83 125.765C351.68 125.54 351.65 125.262 351.65 124.7V123.072H351.125V122.495H351.65V121.43H352.37V122.495H353.225V123.072H352.37V124.685C352.37 124.985 352.37 125.195 352.46 125.337C352.52 125.457 352.625 125.517 352.828 125.517C353.038 125.517 353.195 125.435 353.195 125.435L353.24 126.012Z" fill="#3C3E3E"/>
<path d="M345.575 122.487H346.265V123.05C346.58 122.63 347.023 122.42 347.548 122.42C348.598 122.42 349.265 123.207 349.265 124.265C349.265 125.322 348.59 126.132 347.533 126.132C346.97 126.132 346.558 125.892 346.303 125.495L346.295 126.215V127.445H345.575V122.487ZM347.398 125.517C348.11 125.517 348.53 124.97 348.53 124.257C348.53 123.545 348.11 123.005 347.398 123.005C346.685 123.005 346.265 123.545 346.265 124.257C346.265 124.97 346.685 125.517 347.398 125.517Z" fill="#3C3E3E"/>
<path d="M344.688 125.57C344.643 125.607 344.186 126.132 343.121 126.132C342.063 126.132 341.336 125.397 341.336 124.265C341.336 123.14 342.153 122.42 343.143 122.42C344.133 122.42 344.831 123.125 344.831 124.122C344.831 124.257 344.808 124.437 344.808 124.437H342.063C342.101 125.142 342.551 125.57 343.211 125.57C343.878 125.57 344.306 125.21 344.388 125.157L344.688 125.57ZM344.148 123.957C344.141 123.56 343.841 122.937 343.121 122.937C342.408 122.937 342.093 123.53 342.071 123.957H344.148Z" fill="#3C3E3E"/>
<path d="M340.682 125.57C340.637 125.607 340.179 126.132 339.114 126.132C338.057 126.132 337.329 125.397 337.329 124.265C337.329 123.14 338.147 122.42 339.137 122.42C340.127 122.42 340.824 123.125 340.824 124.122C340.824 124.257 340.802 124.437 340.802 124.437H338.057C338.094 125.142 338.544 125.57 339.204 125.57C339.872 125.57 340.299 125.21 340.382 125.157L340.682 125.57ZM340.142 123.957C340.134 123.56 339.834 122.937 339.114 122.937C338.402 122.937 338.087 123.53 338.064 123.957H340.142Z" fill="#3C3E3E"/>
<path d="M333.952 120.875H334.665V123.912L336.12 122.487H336.96L335.565 123.83L337.14 126.05H336.3L335.077 124.325L334.665 124.715V126.05H333.952V120.875Z" fill="#3C3E3E"/>
<path d="M330.652 125.255H331.387L330.697 127.1H330.127L330.652 125.255Z" fill="#3C3E3E"/>
<path d="M325.874 122.487H326.564V123.05C326.879 122.63 327.322 122.42 327.847 122.42C328.897 122.42 329.564 123.207 329.564 124.265C329.564 125.322 328.889 126.132 327.832 126.132C327.269 126.132 326.857 125.892 326.602 125.495L326.594 126.215V127.445H325.874V122.487ZM327.697 125.517C328.409 125.517 328.829 124.97 328.829 124.257C328.829 123.545 328.409 123.005 327.697 123.005C326.984 123.005 326.564 123.545 326.564 124.257C326.564 124.97 326.984 125.517 327.697 125.517Z" fill="#3C3E3E"/>
<path d="M324.986 125.57C324.941 125.607 324.484 126.132 323.419 126.132C322.361 126.132 321.634 125.397 321.634 124.265C321.634 123.14 322.451 122.42 323.441 122.42C324.431 122.42 325.129 123.125 325.129 124.122C325.129 124.257 325.106 124.437 325.106 124.437H322.361C322.399 125.142 322.849 125.57 323.509 125.57C324.176 125.57 324.604 125.21 324.686 125.157L324.986 125.57ZM324.446 123.957C324.439 123.56 324.139 122.937 323.419 122.937C322.706 122.937 322.391 123.53 322.369 123.957H324.446Z" fill="#3C3E3E"/>
<path d="M321.277 126.012C321.09 126.095 320.872 126.132 320.625 126.132C320.25 126.132 320.017 125.99 319.867 125.765C319.717 125.54 319.687 125.262 319.687 124.7V123.072H319.162V122.495H319.687V121.43H320.407V122.495H321.262V123.072H320.407V124.685C320.407 124.985 320.407 125.195 320.497 125.337C320.557 125.457 320.662 125.517 320.865 125.517C321.075 125.517 321.232 125.435 321.232 125.435L321.277 126.012Z" fill="#3C3E3E"/>
<path d="M316.439 125.075V125.082C316.739 125.397 317.159 125.592 317.489 125.592C317.819 125.592 318.171 125.472 318.171 125.082C318.171 124.73 317.751 124.617 317.369 124.49L317.211 124.437C316.731 124.28 316.319 124.017 316.319 123.447C316.319 122.787 316.889 122.427 317.519 122.427C318.149 122.427 318.509 122.652 318.734 122.892L318.434 123.335C318.224 123.117 317.879 122.952 317.534 122.952C317.189 122.952 316.964 123.102 316.964 123.395C316.964 123.687 317.309 123.815 317.661 123.927L318.141 124.1C318.539 124.265 318.839 124.542 318.839 125.007C318.839 125.78 318.201 126.132 317.481 126.132C316.881 126.132 316.394 125.885 316.094 125.495L316.439 125.075Z" fill="#3C3E3E"/>
<path d="M451.285 116.541V116.549C451.585 116.864 452.005 117.059 452.335 117.059C452.665 117.059 453.018 116.939 453.018 116.549C453.018 116.196 452.598 116.084 452.215 115.956L452.058 115.904C451.578 115.746 451.165 115.484 451.165 114.914C451.165 114.254 451.735 113.894 452.365 113.894C452.995 113.894 453.355 114.119 453.58 114.359L453.28 114.801C453.07 114.584 452.725 114.419 452.38 114.419C452.035 114.419 451.81 114.569 451.81 114.861C451.81 115.154 452.155 115.281 452.508 115.394L452.988 115.566C453.385 115.731 453.685 116.009 453.685 116.474C453.685 117.246 453.048 117.599 452.328 117.599C451.728 117.599 451.24 117.351 450.94 116.961L451.285 116.541Z" fill="#3C3E3E"/>
<path d="M449.431 112.784C449.431 112.529 449.626 112.341 449.903 112.341C450.173 112.341 450.368 112.529 450.368 112.784C450.368 113.039 450.173 113.226 449.903 113.226C449.626 113.226 449.431 113.039 449.431 112.784ZM449.543 113.954H450.263V117.516H449.543V113.954Z" fill="#3C3E3E"/>
<path d="M445.441 112.341H446.154V114.516H446.169C446.356 114.164 446.746 113.886 447.264 113.886C448.291 113.886 448.539 114.546 448.539 115.394V117.516H447.819V115.499C447.819 114.989 447.736 114.479 447.084 114.479C446.431 114.479 446.154 115.041 446.154 115.754V117.516H445.441V112.341Z" fill="#3C3E3E"/>
<path d="M444.807 117.479C444.62 117.561 444.402 117.599 444.155 117.599C443.78 117.599 443.547 117.456 443.397 117.231C443.247 117.006 443.217 116.729 443.217 116.166V114.539H442.692V113.961H443.217V112.896H443.937V113.961H444.792V114.539H443.937V116.151C443.937 116.451 443.937 116.661 444.027 116.804C444.087 116.924 444.192 116.984 444.395 116.984C444.605 116.984 444.762 116.901 444.762 116.901L444.807 117.479Z" fill="#3C3E3E"/>
<path d="M440.585 116.766C440.585 117.554 440.457 117.989 440.195 118.304C439.932 118.626 439.49 118.986 438.605 118.986C437.727 118.986 437.12 118.529 437.015 118.454L437.352 117.951C437.54 118.116 438.095 118.401 438.627 118.401C439.16 118.401 439.46 118.191 439.602 118.011C439.745 117.839 439.872 117.501 439.872 117.014V116.819C439.617 117.194 439.212 117.471 438.605 117.471C437.697 117.471 436.895 116.804 436.895 115.716C436.895 114.531 437.697 113.886 438.612 113.886C439.19 113.886 439.61 114.141 439.857 114.509H439.872V113.954H440.585V116.766ZM438.762 116.886C439.475 116.886 439.895 116.354 439.895 115.694C439.895 114.981 439.475 114.464 438.762 114.464C438.05 114.464 437.63 114.989 437.63 115.694C437.63 116.354 438.05 116.886 438.762 116.886Z" fill="#3C3E3E"/>
<path d="M433.077 113.954H433.797L433.79 114.561C433.985 114.141 434.442 113.886 434.9 113.886C435.912 113.886 436.175 114.554 436.175 115.409V117.516H435.455V115.529C435.455 114.929 435.35 114.479 434.712 114.479C434.045 114.479 433.797 115.041 433.797 115.724V117.516H433.077V113.954Z" fill="#3C3E3E"/>
<path d="M431.223 112.784C431.223 112.529 431.418 112.341 431.695 112.341C431.965 112.341 432.16 112.529 432.16 112.784C432.16 113.039 431.965 113.226 431.695 113.226C431.418 113.226 431.223 113.039 431.223 112.784ZM431.335 113.954H432.055V117.516H431.335V113.954Z" fill="#3C3E3E"/>
<path d="M430.708 117.479C430.52 117.561 430.303 117.599 430.055 117.599C429.68 117.599 429.448 117.456 429.298 117.231C429.148 117.006 429.118 116.729 429.118 116.166V114.539H428.593V113.961H429.118V112.896H429.838V113.961H430.693V114.539H429.838V116.151C429.838 116.451 429.838 116.661 429.928 116.804C429.988 116.924 430.093 116.984 430.295 116.984C430.505 116.984 430.663 116.901 430.663 116.901L430.708 117.479Z" fill="#3C3E3E"/>
<path d="M428.118 117.036C428.073 117.074 427.616 117.599 426.551 117.599C425.493 117.599 424.766 116.864 424.766 115.731C424.766 114.606 425.583 113.886 426.573 113.886C427.563 113.886 428.261 114.591 428.261 115.589C428.261 115.724 428.238 115.904 428.238 115.904H425.493C425.531 116.609 425.981 117.036 426.641 117.036C427.308 117.036 427.736 116.676 427.818 116.624L428.118 117.036ZM427.578 115.424C427.571 115.026 427.271 114.404 426.551 114.404C425.838 114.404 425.523 114.996 425.501 115.424H427.578Z" fill="#3C3E3E"/>
<path d="M423.264 112.341H423.976V117.516H423.264V112.341Z" fill="#3C3E3E"/>
<path d="M418.788 113.954H419.478V114.516C419.793 114.096 420.236 113.886 420.761 113.886C421.811 113.886 422.478 114.674 422.478 115.731C422.478 116.789 421.803 117.599 420.746 117.599C420.183 117.599 419.771 117.359 419.516 116.961L419.508 117.681V118.911H418.788V113.954ZM420.611 116.984C421.323 116.984 421.743 116.436 421.743 115.724C421.743 115.011 421.323 114.471 420.611 114.471C419.898 114.471 419.478 115.011 419.478 115.724C419.478 116.436 419.898 116.984 420.611 116.984Z" fill="#3C3E3E"/>
<path d="M412.636 113.954H413.356L413.348 114.516H413.371C413.536 114.186 413.926 113.886 414.398 113.886C414.923 113.886 415.291 114.126 415.456 114.591C415.696 114.141 416.086 113.886 416.588 113.886C417.541 113.886 417.796 114.584 417.796 115.356V117.516H417.083V115.439C417.083 115.026 417.008 114.479 416.431 114.479C415.861 114.479 415.576 115.026 415.576 115.664V117.516H414.856V115.439C414.856 114.914 414.728 114.479 414.211 114.479C413.641 114.479 413.356 115.026 413.356 115.664V117.516H412.636V113.954Z" fill="#3C3E3E"/>
<path d="M408.11 115.746C408.11 114.644 408.935 113.886 410 113.886C411.058 113.886 411.883 114.644 411.883 115.746C411.883 116.856 411.058 117.599 410 117.599C408.935 117.599 408.11 116.856 408.11 115.746ZM410 116.984C410.713 116.984 411.155 116.429 411.155 115.724C411.155 115.026 410.713 114.471 410 114.471C409.28 114.471 408.838 115.026 408.838 115.724C408.838 116.429 409.28 116.984 410 116.984Z" fill="#3C3E3E"/>
<path d="M407.776 117.059C407.776 117.059 407.371 117.599 406.351 117.599C405.391 117.599 404.551 116.879 404.551 115.739C404.551 114.591 405.428 113.886 406.373 113.886C407.326 113.886 407.716 114.351 407.753 114.396L407.498 114.921C407.378 114.801 407.063 114.486 406.433 114.486C405.803 114.486 405.278 114.966 405.278 115.716C405.278 116.466 405.743 116.984 406.433 116.984C407.131 116.984 407.521 116.534 407.521 116.534L407.776 117.059Z" fill="#3C3E3E"/>
<path d="M398.859 112.341H399.572V114.134C399.572 114.231 399.564 114.419 399.564 114.546C399.827 114.104 400.292 113.886 400.832 113.886C401.874 113.886 402.549 114.681 402.549 115.731C402.549 116.789 401.874 117.599 400.817 117.599C400.299 117.599 399.857 117.389 399.564 116.954H399.549V117.516H398.859V112.341ZM400.682 116.984C401.394 116.984 401.814 116.436 401.814 115.724C401.814 115.011 401.394 114.471 400.682 114.471C399.969 114.471 399.542 115.011 399.542 115.724C399.542 116.436 399.969 116.984 400.682 116.984Z" fill="#3C3E3E"/>
<path d="M394.297 115.746C394.297 114.644 395.122 113.886 396.187 113.886C397.244 113.886 398.069 114.644 398.069 115.746C398.069 116.856 397.244 117.599 396.187 117.599C395.122 117.599 394.297 116.856 394.297 115.746ZM396.187 116.984C396.899 116.984 397.342 116.429 397.342 115.724C397.342 115.026 396.899 114.471 396.187 114.471C395.467 114.471 395.024 115.026 395.024 115.724C395.024 116.429 395.467 116.984 396.187 116.984Z" fill="#3C3E3E"/>
<path d="M392.682 112.784C392.682 112.529 392.877 112.341 393.154 112.341C393.424 112.341 393.619 112.529 393.619 112.784C393.619 113.039 393.424 113.226 393.154 113.226C392.877 113.226 392.682 113.039 392.682 112.784ZM391.947 118.356C391.947 118.356 392.097 118.409 392.284 118.409C392.749 118.409 392.794 117.996 392.794 117.501V113.954H393.514V117.524C393.514 117.936 393.454 118.311 393.252 118.589C393.117 118.776 392.854 118.986 392.389 118.986C392.097 118.986 391.939 118.926 391.939 118.926L391.947 118.356Z" fill="#3C3E3E"/>
<path d="M390.675 117.479C390.487 117.561 390.27 117.599 390.022 117.599C389.647 117.599 389.415 117.456 389.265 117.231C389.115 117.006 389.085 116.729 389.085 116.166V114.539H388.56V113.961H389.085V112.896H389.805V113.961H390.66V114.539H389.805V116.151C389.805 116.451 389.805 116.661 389.895 116.804C389.955 116.924 390.06 116.984 390.262 116.984C390.472 116.984 390.63 116.901 390.63 116.901L390.675 117.479Z" fill="#3C3E3E"/>
<path d="M387.313 117.066C387.17 117.216 386.833 117.599 386.18 117.599C385.52 117.599 384.95 117.186 384.95 116.496C384.95 115.799 385.52 115.446 386.345 115.409L387.298 115.371V115.229C387.298 114.689 386.93 114.419 386.413 114.419C385.895 114.419 385.46 114.651 385.34 114.726L385.123 114.246C385.385 114.096 385.865 113.886 386.458 113.886C387.05 113.886 387.395 114.051 387.635 114.291C387.875 114.539 388.018 114.839 388.018 115.446V117.516H387.32L387.313 117.066ZM386.473 115.859C385.895 115.889 385.663 116.136 385.663 116.474C385.663 116.811 385.925 117.089 386.398 117.089C386.863 117.089 387.17 116.774 387.305 116.571V115.806L386.473 115.859Z" fill="#3C3E3E"/>
<path d="M384.32 117.036C384.275 117.074 383.818 117.599 382.753 117.599C381.695 117.599 380.968 116.864 380.968 115.731C380.968 114.606 381.785 113.886 382.775 113.886C383.765 113.886 384.463 114.591 384.463 115.589C384.463 115.724 384.44 115.904 384.44 115.904H381.695C381.733 116.609 382.183 117.036 382.843 117.036C383.51 117.036 383.938 116.676 384.02 116.624L384.32 117.036ZM383.78 115.424C383.773 115.026 383.473 114.404 382.753 114.404C382.04 114.404 381.725 114.996 381.703 115.424H383.78Z" fill="#3C3E3E"/>
<path d="M378.731 113.954H379.451L379.444 114.501H379.466C379.639 114.096 379.961 113.886 380.344 113.886C380.584 113.886 380.719 113.946 380.719 113.946L380.674 114.614H380.644C380.576 114.584 380.449 114.539 380.254 114.539C379.939 114.539 379.744 114.741 379.669 114.839C379.601 114.936 379.451 115.214 379.451 115.739V117.516H378.731V113.954Z" fill="#3C3E3E"/>
<path d="M375.649 114.756H377.749V116.766C377.651 116.864 377.021 117.606 375.551 117.606C374.074 117.606 372.911 116.541 372.911 114.929C372.911 113.316 374.074 112.266 375.544 112.266C376.871 112.266 377.441 112.964 377.636 113.166L377.141 113.624C376.834 113.264 376.354 112.889 375.544 112.889C374.479 112.889 373.661 113.654 373.661 114.929C373.661 116.204 374.509 116.969 375.589 116.969C376.661 116.969 377.044 116.496 377.044 116.496V115.349H375.649V114.756Z" fill="#3C3E3E"/>
<path d="M369.514 117.126C369.514 116.834 369.724 116.654 370.016 116.654C370.301 116.654 370.511 116.834 370.511 117.126C370.511 117.411 370.301 117.591 370.016 117.591C369.724 117.591 369.514 117.411 369.514 117.126Z" fill="#3C3E3E"/>
<path d="M365.307 112.341H366.019V114.516H366.034C366.222 114.164 366.612 113.886 367.129 113.886C368.157 113.886 368.404 114.546 368.404 115.394V117.516H367.684V115.499C367.684 114.989 367.602 114.479 366.949 114.479C366.297 114.479 366.019 115.041 366.019 115.754V117.516H365.307V112.341Z" fill="#3C3E3E"/>
<path d="M364.274 116.766C364.274 117.554 364.146 117.989 363.884 118.304C363.621 118.626 363.179 118.986 362.294 118.986C361.416 118.986 360.809 118.529 360.704 118.454L361.041 117.951C361.229 118.116 361.784 118.401 362.316 118.401C362.849 118.401 363.149 118.191 363.291 118.011C363.434 117.839 363.561 117.501 363.561 117.014V116.819C363.306 117.194 362.901 117.471 362.294 117.471C361.386 117.471 360.584 116.804 360.584 115.716C360.584 114.531 361.386 113.886 362.301 113.886C362.879 113.886 363.299 114.141 363.546 114.509H363.561V113.954H364.274V116.766ZM362.451 116.886C363.164 116.886 363.584 116.354 363.584 115.694C363.584 114.981 363.164 114.464 362.451 114.464C361.739 114.464 361.319 114.989 361.319 115.694C361.319 116.354 361.739 116.886 362.451 116.886Z" fill="#3C3E3E"/>
<path d="M359.127 117.006C358.932 117.351 358.527 117.599 358.025 117.599C357.515 117.599 357.222 117.426 357.035 117.186C356.855 116.946 356.772 116.594 356.772 116.084V113.946H357.485V116.054C357.485 116.541 357.59 116.999 358.227 116.999C358.857 116.999 359.112 116.459 359.112 115.859V113.946H359.832V117.516H359.135L359.127 117.006Z" fill="#3C3E3E"/>
<path d="M352.277 115.746C352.277 114.644 353.102 113.886 354.167 113.886C355.225 113.886 356.05 114.644 356.05 115.746C356.05 116.856 355.225 117.599 354.167 117.599C353.102 117.599 352.277 116.856 352.277 115.746ZM354.167 116.984C354.88 116.984 355.322 116.429 355.322 115.724C355.322 115.026 354.88 114.471 354.167 114.471C353.447 114.471 353.005 115.026 353.005 115.724C353.005 116.429 353.447 116.984 354.167 116.984Z" fill="#3C3E3E"/>
<path d="M351.922 117.479C351.734 117.561 351.517 117.599 351.269 117.599C350.894 117.599 350.662 117.456 350.512 117.231C350.362 117.006 350.332 116.729 350.332 116.166V114.539H349.807V113.961H350.332V112.896H351.052V113.961H351.907V114.539H351.052V116.151C351.052 116.451 351.052 116.661 351.142 116.804C351.202 116.924 351.307 116.984 351.509 116.984C351.719 116.984 351.877 116.901 351.877 116.901L351.922 117.479Z" fill="#3C3E3E"/>
<path d="M347.838 117.036C347.793 117.074 347.335 117.599 346.27 117.599C345.213 117.599 344.485 116.864 344.485 115.731C344.485 114.606 345.303 113.886 346.293 113.886C347.283 113.886 347.98 114.591 347.98 115.589C347.98 115.724 347.958 115.904 347.958 115.904H345.213C345.25 116.609 345.7 117.036 346.36 117.036C347.028 117.036 347.455 116.676 347.538 116.624L347.838 117.036ZM347.298 115.424C347.29 115.026 346.99 114.404 346.27 114.404C345.558 114.404 345.243 114.996 345.22 115.424H347.298Z" fill="#3C3E3E"/>
<path d="M340.288 112.341H341.001V114.134C341.001 114.231 340.993 114.419 340.993 114.546C341.256 114.104 341.721 113.886 342.261 113.886C343.303 113.886 343.978 114.681 343.978 115.731C343.978 116.789 343.303 117.599 342.246 117.599C341.728 117.599 341.286 117.389 340.993 116.954H340.978V117.516H340.288V112.341ZM342.111 116.984C342.823 116.984 343.243 116.436 343.243 115.724C343.243 115.011 342.823 114.471 342.111 114.471C341.398 114.471 340.971 115.011 340.971 115.724C340.971 116.436 341.398 116.984 342.111 116.984Z" fill="#3C3E3E"/>
<path d="M334.698 113.954H335.418L335.411 114.561C335.606 114.141 336.063 113.886 336.521 113.886C337.533 113.886 337.796 114.554 337.796 115.409V117.516H337.076V115.529C337.076 114.929 336.971 114.479 336.333 114.479C335.666 114.479 335.418 115.041 335.418 115.724V117.516H334.698V113.954Z" fill="#3C3E3E"/>
<path d="M333.07 117.066C332.927 117.216 332.59 117.599 331.937 117.599C331.277 117.599 330.707 117.186 330.707 116.496C330.707 115.799 331.277 115.446 332.102 115.409L333.055 115.371V115.229C333.055 114.689 332.687 114.419 332.17 114.419C331.652 114.419 331.217 114.651 331.097 114.726L330.88 114.246C331.142 114.096 331.622 113.886 332.215 113.886C332.807 113.886 333.152 114.051 333.392 114.291C333.632 114.539 333.775 114.839 333.775 115.446V117.516H333.077L333.07 117.066ZM332.23 115.859C331.652 115.889 331.42 116.136 331.42 116.474C331.42 116.811 331.682 117.089 332.155 117.089C332.62 117.089 332.927 116.774 333.062 116.571V115.806L332.23 115.859Z" fill="#3C3E3E"/>
<path d="M330.287 117.059C330.287 117.059 329.882 117.599 328.862 117.599C327.902 117.599 327.062 116.879 327.062 115.739C327.062 114.591 327.939 113.886 328.884 113.886C329.837 113.886 330.227 114.351 330.264 114.396L330.009 114.921C329.889 114.801 329.574 114.486 328.944 114.486C328.314 114.486 327.789 114.966 327.789 115.716C327.789 116.466 328.254 116.984 328.944 116.984C329.642 116.984 330.032 116.534 330.032 116.534L330.287 117.059Z" fill="#3C3E3E"/>
<path d="M322.701 116.541V116.549C323.001 116.864 323.421 117.059 323.751 117.059C324.081 117.059 324.434 116.939 324.434 116.549C324.434 116.196 324.014 116.084 323.631 115.956L323.474 115.904C322.994 115.746 322.581 115.484 322.581 114.914C322.581 114.254 323.151 113.894 323.781 113.894C324.411 113.894 324.771 114.119 324.996 114.359L324.696 114.801C324.486 114.584 324.141 114.419 323.796 114.419C323.451 114.419 323.226 114.569 323.226 114.861C323.226 115.154 323.571 115.281 323.924 115.394L324.404 115.566C324.801 115.731 325.101 116.009 325.101 116.474C325.101 117.246 324.464 117.599 323.744 117.599C323.144 117.599 322.656 117.351 322.356 116.961L322.701 116.541Z" fill="#3C3E3E"/>
<path d="M322.105 117.479C321.918 117.561 321.7 117.599 321.453 117.599C321.078 117.599 320.845 117.456 320.695 117.231C320.545 117.006 320.515 116.729 320.515 116.166V114.539H319.99V113.961H320.515V112.896H321.235V113.961H322.09V114.539H321.235V116.151C321.235 116.451 321.235 116.661 321.325 116.804C321.385 116.924 321.49 116.984 321.693 116.984C321.903 116.984 322.06 116.901 322.06 116.901L322.105 117.479Z" fill="#3C3E3E"/>
<path d="M315.935 112.341H316.647V114.134C316.647 114.231 316.64 114.419 316.64 114.546C316.902 114.104 317.367 113.886 317.907 113.886C318.95 113.886 319.625 114.681 319.625 115.731C319.625 116.789 318.95 117.599 317.892 117.599C317.375 117.599 316.932 117.389 316.64 116.954H316.625V117.516H315.935V112.341ZM317.757 116.984C318.47 116.984 318.89 116.436 318.89 115.724C318.89 115.011 318.47 114.471 317.757 114.471C317.045 114.471 316.617 115.011 316.617 115.724C316.617 116.436 317.045 116.984 317.757 116.984Z" fill="#3C3E3E"/>
<path d="M315.04 117.036C314.995 117.074 314.538 117.599 313.473 117.599C312.415 117.599 311.688 116.864 311.688 115.731C311.688 114.606 312.505 113.886 313.495 113.886C314.485 113.886 315.183 114.591 315.183 115.589C315.183 115.724 315.16 115.904 315.16 115.904H312.415C312.453 116.609 312.903 117.036 313.563 117.036C314.23 117.036 314.658 116.676 314.74 116.624L315.04 117.036ZM314.5 115.424C314.493 115.026 314.193 114.404 313.473 114.404C312.76 114.404 312.445 114.996 312.423 115.424H314.5Z" fill="#3C3E3E"/>
<path d="M310.213 117.516V116.946C309.92 117.381 309.463 117.599 308.945 117.599C307.888 117.599 307.213 116.789 307.213 115.731C307.213 114.681 307.888 113.886 308.93 113.886C309.508 113.886 309.928 114.141 310.175 114.509H310.19V112.341H310.903V117.516H310.213ZM309.08 116.984C309.793 116.984 310.213 116.436 310.213 115.724C310.213 115.011 309.793 114.471 309.08 114.471C308.368 114.471 307.948 115.011 307.948 115.724C307.948 116.436 308.368 116.984 309.08 116.984Z" fill="#3C3E3E"/>
<path d="M304.962 116.766C304.962 117.554 304.835 117.989 304.572 118.304C304.31 118.626 303.867 118.986 302.982 118.986C302.105 118.986 301.497 118.529 301.392 118.454L301.73 117.951C301.917 118.116 302.472 118.401 303.005 118.401C303.537 118.401 303.837 118.191 303.98 118.011C304.122 117.839 304.25 117.501 304.25 117.014V116.819C303.995 117.194 303.59 117.471 302.982 117.471C302.075 117.471 301.272 116.804 301.272 115.716C301.272 114.531 302.075 113.886 302.99 113.886C303.567 113.886 303.987 114.141 304.235 114.509H304.25V113.954H304.962V116.766ZM303.14 116.886C303.852 116.886 304.272 116.354 304.272 115.694C304.272 114.981 303.852 114.464 303.14 114.464C302.427 114.464 302.007 114.989 302.007 115.694C302.007 116.354 302.427 116.886 303.14 116.886Z" fill="#3C3E3E"/>
<path d="M297.455 113.954H298.175L298.168 114.561C298.363 114.141 298.82 113.886 299.278 113.886C300.29 113.886 300.553 114.554 300.553 115.409V117.516H299.833V115.529C299.833 114.929 299.728 114.479 299.09 114.479C298.423 114.479 298.175 115.041 298.175 115.724V117.516H297.455V113.954Z" fill="#3C3E3E"/>
<path d="M295.6 112.784C295.6 112.529 295.795 112.341 296.072 112.341C296.342 112.341 296.537 112.529 296.537 112.784C296.537 113.039 296.342 113.226 296.072 113.226C295.795 113.226 295.6 113.039 295.6 112.784ZM295.712 113.954H296.432V117.516H295.712V113.954Z" fill="#3C3E3E"/>
<path d="M295.086 117.479C294.898 117.561 294.681 117.599 294.433 117.599C294.058 117.599 293.826 117.456 293.676 117.231C293.526 117.006 293.496 116.729 293.496 116.166V114.539H292.971V113.961H293.496V112.896H294.216V113.961H295.071V114.539H294.216V116.151C294.216 116.451 294.216 116.661 294.306 116.804C294.366 116.924 294.471 116.984 294.673 116.984C294.883 116.984 295.041 116.901 295.041 116.901L295.086 117.479Z" fill="#3C3E3E"/>
<path d="M290.247 116.541V116.549C290.547 116.864 290.967 117.059 291.297 117.059C291.627 117.059 291.98 116.939 291.98 116.549C291.98 116.196 291.56 116.084 291.177 115.956L291.02 115.904C290.54 115.746 290.127 115.484 290.127 114.914C290.127 114.254 290.697 113.894 291.327 113.894C291.957 113.894 292.317 114.119 292.542 114.359L292.242 114.801C292.032 114.584 291.687 114.419 291.342 114.419C290.997 114.419 290.772 114.569 290.772 114.861C290.772 115.154 291.117 115.281 291.47 115.394L291.95 115.566C292.347 115.731 292.647 116.009 292.647 116.474C292.647 117.246 292.01 117.599 291.29 117.599C290.69 117.599 290.202 117.351 289.902 116.961L290.247 116.541Z" fill="#3C3E3E"/>
<path d="M288.393 112.784C288.393 112.529 288.588 112.341 288.865 112.341C289.135 112.341 289.33 112.529 289.33 112.784C289.33 113.039 289.135 113.226 288.865 113.226C288.588 113.226 288.393 113.039 288.393 112.784ZM288.505 113.954H289.225V117.516H288.505V113.954Z" fill="#3C3E3E"/>
<path d="M285.32 112.341H286.048V116.901H287.87V117.516H285.32V112.341Z" fill="#3C3E3E"/>
<g clip-path="url(#clip6_6291_211763)">
<rect width="17.3583" height="6.50937" transform="translate(312.004 135.02)" fill="#BED73C"/>
</g>
<path d="M315.259 135.291H326.108C327.755 135.291 329.091 136.626 329.091 138.274C329.091 139.922 327.755 141.258 326.108 141.258H315.259C313.611 141.258 312.275 139.922 312.275 138.274C312.275 136.626 313.611 135.291 315.259 135.291Z" stroke="#004357" stroke-width="0.542447"/>
<g clip-path="url(#clip7_6291_211763)">
<rect width="17.3583" height="6.50937" transform="translate(331.532 135.02)" fill="#BED73C"/>
</g>
<path d="M334.787 135.291H345.636C347.284 135.291 348.619 136.626 348.619 138.274C348.619 139.922 347.284 141.258 345.636 141.258H334.787C333.139 141.258 331.803 139.922 331.803 138.274C331.803 136.626 333.139 135.291 334.787 135.291Z" stroke="#004357" stroke-width="0.542447"/>
<g clip-path="url(#clip8_6291_211763)">
<rect width="17.3583" height="6.50937" transform="translate(351.061 135.02)" fill="#BED73C"/>
</g>
<path d="M354.315 135.291H365.164C366.812 135.291 368.148 136.626 368.148 138.274C368.148 139.922 366.812 141.258 365.164 141.258H354.315C352.668 141.258 351.332 139.922 351.332 138.274C351.332 136.626 352.668 135.291 354.315 135.291Z" stroke="#004357" stroke-width="0.542447"/>
<g clip-path="url(#clip9_6291_211763)">
<rect width="17.3583" height="6.50937" transform="translate(370.588 135.02)" fill="#BED73C"/>
</g>
<path d="M373.843 135.291H384.692C386.339 135.291 387.675 136.626 387.675 138.274C387.675 139.922 386.339 141.258 384.692 141.258H373.843C372.195 141.258 370.859 139.922 370.859 138.274C370.859 136.626 372.195 135.291 373.843 135.291Z" stroke="#004357" stroke-width="0.542447"/>
<g clip-path="url(#clip10_6291_211763)">
<rect width="6.50937" height="6.50937" transform="translate(390.116 135.02)" fill="#BED73C"/>
</g>
<path d="M393.371 135.291H404.22C405.868 135.291 407.203 136.626 407.203 138.274C407.203 139.922 405.868 141.258 404.22 141.258H393.371C391.723 141.258 390.387 139.922 390.387 138.274C390.387 136.626 391.723 135.291 393.371 135.291Z" stroke="#004357" stroke-width="0.542447"/>
<path d="M412.899 135.291H423.748C425.396 135.291 426.732 136.626 426.732 138.274C426.732 139.922 425.396 141.258 423.748 141.258H412.899C411.251 141.258 409.916 139.922 409.916 138.274C409.916 136.626 411.251 135.291 412.899 135.291Z" stroke="#004357" stroke-width="0.542447"/>
</g>
<defs>
<clipPath id="clip0_6291_211763">
<path d="M53.4941 68.4491C53.4941 67.0187 54.6537 65.8591 56.0841 65.8591H218.404C219.835 65.8591 220.994 67.0187 220.994 68.4491V86.3942C220.994 87.8246 219.835 88.9841 218.404 88.9841H56.0841C54.6537 88.9841 53.4941 87.8246 53.4941 86.3942V68.4491Z" fill="white"/>
</clipPath>
<clipPath id="clip1_6291_211763">
<path d="M57.2441 91.5741C57.2441 90.1437 58.4037 88.9841 59.8341 88.9841H222.154C223.585 88.9841 224.744 90.1437 224.744 91.5741V110.144C224.744 111.575 223.585 112.734 222.154 112.734H59.8341C58.4037 112.734 57.2441 111.575 57.2441 110.144V91.5741Z" fill="white"/>
</clipPath>
<clipPath id="clip2_6291_211763">
<path d="M53.4941 115.324C53.4941 113.894 54.6537 112.734 56.0841 112.734H218.404C219.835 112.734 220.994 113.894 220.994 115.324V133.269C220.994 134.7 219.835 135.859 218.404 135.859H56.0841C54.6537 135.859 53.4941 134.7 53.4941 133.269V115.324Z" fill="white"/>
</clipPath>
<clipPath id="clip3_6291_211763">
<path d="M57.2441 138.449C57.2441 137.019 58.4037 135.859 59.8341 135.859H222.154C223.585 135.859 224.744 137.019 224.744 138.449V157.019C224.744 158.45 223.585 159.609 222.154 159.609H59.8341C58.4037 159.609 57.2441 158.45 57.2441 157.019V138.449Z" fill="white"/>
</clipPath>
<clipPath id="clip4_6291_211763">
<rect width="35" height="35" fill="white" transform="translate(178.26 154.167)"/>
</clipPath>
<clipPath id="clip5_6291_211763">
<path d="M277.315 97.4097C277.315 95.7544 278.657 94.4126 280.313 94.4126H458.693C460.349 94.4126 461.69 95.7545 461.69 97.4097V146.032C461.69 147.687 460.349 149.029 458.693 149.029H280.313C278.657 149.029 277.315 147.687 277.315 146.032V97.4097Z" fill="white"/>
</clipPath>
<clipPath id="clip6_6291_211763">
<path d="M312.004 138.274C312.004 136.477 313.461 135.02 315.259 135.02H326.108C327.905 135.02 329.362 136.477 329.362 138.274V138.274C329.362 140.072 327.905 141.529 326.108 141.529H315.259C313.461 141.529 312.004 140.072 312.004 138.274V138.274Z" fill="white"/>
</clipPath>
<clipPath id="clip7_6291_211763">
<path d="M331.532 138.274C331.532 136.477 332.989 135.02 334.787 135.02H345.636C347.433 135.02 348.891 136.477 348.891 138.274V138.274C348.891 140.072 347.433 141.529 345.636 141.529H334.787C332.989 141.529 331.532 140.072 331.532 138.274V138.274Z" fill="white"/>
</clipPath>
<clipPath id="clip8_6291_211763">
<path d="M351.061 138.274C351.061 136.477 352.518 135.02 354.315 135.02H365.164C366.962 135.02 368.419 136.477 368.419 138.274V138.274C368.419 140.072 366.962 141.529 365.164 141.529H354.315C352.518 141.529 351.061 140.072 351.061 138.274V138.274Z" fill="white"/>
</clipPath>
<clipPath id="clip9_6291_211763">
<path d="M370.588 138.274C370.588 136.477 372.045 135.02 373.843 135.02H384.692C386.489 135.02 387.946 136.477 387.946 138.274V138.274C387.946 140.072 386.489 141.529 384.692 141.529H373.843C372.045 141.529 370.588 140.072 370.588 138.274V138.274Z" fill="white"/>
</clipPath>
<clipPath id="clip10_6291_211763">
<path d="M390.116 138.274C390.116 136.477 391.573 135.02 393.371 135.02H404.22C406.017 135.02 407.475 136.477 407.475 138.274V138.274C407.475 140.072 406.017 141.529 404.22 141.529H393.371C391.573 141.529 390.116 140.072 390.116 138.274V138.274Z" fill="white"/>
</clipPath>
</defs>
</svg>
