<svg width="640" height="253" viewBox="0 0 640 253" fill="none" xmlns="http://www.w3.org/2000/svg">
<g opacity="0.4">
<g clip-path="url(#clip0_6290_205156)">
<path d="M53.4941 68.4491C53.4941 67.0187 54.6537 65.8591 56.0841 65.8591H218.404C219.835 65.8591 220.994 67.0187 220.994 68.4491V86.3942C220.994 87.8246 219.835 88.9841 218.404 88.9841H56.0841C54.6537 88.9841 53.4941 87.8246 53.4941 86.3942V68.4491Z" fill="white"/>
<path d="M53.4941 68.4488C53.4941 67.0184 54.6537 65.8589 56.0841 65.8589H218.404C219.835 65.8589 220.994 67.0184 220.994 68.4488V86.394C220.994 87.8243 219.835 88.9839 218.404 88.9839H56.0841C54.6537 88.9839 53.4941 87.8243 53.4941 86.394V68.4488Z" fill="white" stroke="#004357" stroke-width="0.46875"/>
<path d="M148.104 76.1824H149.184L149.175 76.8489C149.42 76.3258 149.892 76.1064 150.424 76.1064C151.597 76.1064 151.892 76.8658 151.892 77.8446V80.2661H150.812V78.0808C150.812 77.4733 150.702 76.9924 150.078 76.9924C149.411 76.9924 149.184 77.5493 149.184 78.2327V80.2661H148.104V76.1824Z" fill="#3C3E3E"/>
<path d="M142.932 78.2411C142.932 76.9502 143.894 76.1064 145.151 76.1064C146.399 76.1064 147.361 76.9502 147.361 78.2411C147.361 79.5321 146.399 80.3589 145.151 80.3589C143.894 80.3589 142.932 79.5321 142.932 78.2411ZM145.151 79.4646C145.843 79.4646 146.248 78.9161 146.248 78.2158C146.248 77.5155 145.843 76.9755 145.151 76.9755C144.442 76.9755 144.054 77.5155 144.054 78.2158C144.054 78.9161 144.442 79.4646 145.151 79.4646Z" fill="#3C3E3E"/>
<path d="M140.967 74.9335C140.967 74.5876 141.237 74.3345 141.616 74.3345C141.996 74.3345 142.266 74.5876 142.266 74.9335C142.266 75.2879 141.996 75.5326 141.616 75.5326C141.237 75.5326 140.967 75.2879 140.967 74.9335ZM141.076 76.1823H142.156V80.266H141.076V76.1823Z" fill="#3C3E3E"/>
<path d="M140.418 80.2239C140.368 80.2407 140.047 80.3589 139.591 80.3589C139.186 80.3589 138.891 80.2745 138.706 80.0636C138.495 79.8357 138.41 79.4729 138.41 78.9161V77.0261H137.803V76.1907H138.41V75.0264H139.482V76.1907H140.427V77.0261H139.482V78.6798C139.482 79.0089 139.507 79.2029 139.591 79.3211C139.659 79.4223 139.786 79.4561 139.971 79.4561C140.191 79.4561 140.359 79.3886 140.359 79.3886L140.418 80.2239Z" fill="#3C3E3E"/>
<path d="M136.245 79.7936C136.076 80.0889 135.603 80.3589 134.996 80.3589C134.203 80.3589 133.562 79.9286 133.562 79.0764C133.562 78.2243 134.397 77.8952 135.241 77.8361L136.219 77.7686V77.6589C136.219 77.1358 135.873 76.8911 135.308 76.8911C134.768 76.8911 134.321 77.0936 134.144 77.2286L133.815 76.5368C134.127 76.3511 134.701 76.1064 135.409 76.1064C136.135 76.1064 136.548 76.2921 136.852 76.5789C137.147 76.8658 137.299 77.2371 137.299 77.9289V80.2661H136.262L136.245 79.7936ZM135.494 78.4689C134.92 78.5027 134.642 78.6968 134.642 79.0427C134.642 79.3886 134.903 79.6249 135.35 79.6249C135.772 79.6249 136.084 79.3802 136.228 79.1777V78.4268L135.494 78.4689Z" fill="#3C3E3E"/>
<path d="M126.746 76.1824H127.826L127.818 76.7983H127.843C128.029 76.4186 128.526 76.1064 129.058 76.1064C129.649 76.1064 130.003 76.3427 130.197 76.8827C130.484 76.3849 130.948 76.1064 131.539 76.1064C132.61 76.1064 132.905 76.8658 132.905 77.8024V80.2661H131.825V77.9796C131.825 77.4818 131.716 76.9924 131.184 76.9924C130.644 76.9924 130.366 77.4564 130.366 78.1568V80.2661H129.286V77.9711C129.286 77.4143 129.142 76.9924 128.628 76.9924C128.071 76.9924 127.826 77.5155 127.826 78.1568V80.2661H126.746V76.1824Z" fill="#3C3E3E"/>
<path d="M123.697 76.1824H124.769L124.752 76.8405H124.777C124.938 76.4018 125.343 76.1064 125.781 76.1064C126.06 76.1064 126.212 76.1824 126.212 76.1824L126.136 77.1189H126.085C125.967 77.0852 125.781 77.0683 125.638 77.0683C125.317 77.0683 125.064 77.2033 124.921 77.4649C124.811 77.6674 124.769 77.9458 124.769 78.258V80.2661H123.697V76.1824Z" fill="#3C3E3E"/>
<path d="M118.525 78.2411C118.525 76.9502 119.487 76.1064 120.744 76.1064C121.993 76.1064 122.955 76.9502 122.955 78.2411C122.955 79.5321 121.993 80.3589 120.744 80.3589C119.487 80.3589 118.525 79.5321 118.525 78.2411ZM120.744 79.4646C121.436 79.4646 121.841 78.9161 121.841 78.2158C121.841 77.5155 121.436 76.9755 120.744 76.9755C120.036 76.9755 119.648 77.5155 119.648 78.2158C119.648 78.9161 120.036 79.4646 120.744 79.4646Z" fill="#3C3E3E"/>
<path d="M116.426 77.0261H115.869V76.1908H116.426V75.8786C116.426 75.3808 116.561 74.9758 116.772 74.748C116.983 74.5033 117.32 74.343 117.793 74.343C118.291 74.343 118.594 74.4274 118.594 74.4274L118.527 75.2036C118.527 75.2036 118.291 75.1361 118.063 75.1361C117.599 75.1361 117.489 75.4483 117.489 75.8365V76.1908H118.426V77.0261H117.506V80.2661H116.426V77.0261Z" fill="#3C3E3E"/>
<path d="M111.494 76.1824H112.574L112.566 76.8489C112.81 76.3258 113.283 76.1064 113.814 76.1064C114.987 76.1064 115.283 76.8658 115.283 77.8446V80.2661H114.203V78.0808C114.203 77.4733 114.093 76.9924 113.469 76.9924C112.802 76.9924 112.574 77.5493 112.574 78.2327V80.2661H111.494V76.1824Z" fill="#3C3E3E"/>
<path d="M109.276 74.9335C109.276 74.5876 109.546 74.3345 109.926 74.3345C110.306 74.3345 110.576 74.5876 110.576 74.9335C110.576 75.2879 110.306 75.5326 109.926 75.5326C109.546 75.5326 109.276 75.2879 109.276 74.9335ZM109.386 76.1823H110.466V80.266H109.386V76.1823Z" fill="#3C3E3E"/>
<path d="M105.571 74.4441H106.643V80.266H105.571V74.4441Z" fill="#3C3E3E"/>
<path d="M103.55 79.7936C103.382 80.0889 102.909 80.3589 102.302 80.3589C101.508 80.3589 100.867 79.9286 100.867 79.0764C100.867 78.2243 101.702 77.8952 102.546 77.8361L103.525 77.7686V77.6589C103.525 77.1358 103.179 76.8911 102.614 76.8911C102.074 76.8911 101.627 77.0936 101.449 77.2286L101.12 76.5368C101.432 76.3511 102.006 76.1064 102.715 76.1064C103.441 76.1064 103.854 76.2921 104.158 76.5789C104.453 76.8658 104.605 77.2371 104.605 77.9289V80.2661H103.567L103.55 79.7936ZM102.799 78.4689C102.226 78.5027 101.947 78.6968 101.947 79.0427C101.947 79.3886 102.209 79.6249 102.656 79.6249C103.078 79.6249 103.39 79.3802 103.533 79.1777V78.4268L102.799 78.4689Z" fill="#3C3E3E"/>
<path d="M96.415 76.1824H97.495L97.4866 76.8489C97.7313 76.3258 98.2038 76.1064 98.7354 76.1064C99.9082 76.1064 100.203 76.8658 100.203 77.8446V80.2661H99.1235V78.0808C99.1235 77.4733 99.0138 76.9924 98.3894 76.9924C97.7229 76.9924 97.495 77.5493 97.495 78.2327V80.2661H96.415V76.1824Z" fill="#3C3E3E"/>
<path d="M91.2432 78.2411C91.2432 76.9502 92.205 76.1064 93.4622 76.1064C94.711 76.1064 95.6729 76.9502 95.6729 78.2411C95.6729 79.5321 94.711 80.3589 93.4622 80.3589C92.205 80.3589 91.2432 79.5321 91.2432 78.2411ZM93.4622 79.4646C94.1541 79.4646 94.5591 78.9161 94.5591 78.2158C94.5591 77.5155 94.1541 76.9755 93.4622 76.9755C92.7535 76.9755 92.3654 77.5155 92.3654 78.2158C92.3654 78.9161 92.7535 79.4646 93.4622 79.4646Z" fill="#3C3E3E"/>
<path d="M87.9895 78.9921C88.4705 79.3633 88.8839 79.5489 89.2298 79.5489C89.6348 79.5489 89.8205 79.3971 89.8205 79.1608C89.8205 78.9499 89.6602 78.8318 89.137 78.6546L88.6645 78.4943C88.057 78.2918 87.7448 77.9289 87.7448 77.3299C87.7448 76.5874 88.4198 76.1064 89.2045 76.1064C89.9302 76.1064 90.3352 76.3005 90.6727 76.5452L90.2086 77.2624C89.9723 77.0852 89.6264 76.9164 89.2552 76.9164C88.9008 76.9164 88.7236 77.0514 88.7236 77.2455C88.7236 77.4227 88.8586 77.5661 89.3142 77.7096L89.6011 77.8024C90.5039 78.0977 90.8245 78.4183 90.8245 79.0089C90.8245 79.7852 90.2086 80.3589 89.2045 80.3589C88.5802 80.3589 87.8798 80.1058 87.5508 79.7261L87.9895 78.9921Z" fill="#3C3E3E"/>
<path d="M84.8057 76.1824H85.8772L85.8604 76.8405H85.8857C86.046 76.4018 86.451 76.1064 86.8897 76.1064C87.1682 76.1064 87.32 76.1824 87.32 76.1824L87.2441 77.1189H87.1935C87.0754 77.0852 86.8897 77.0683 86.7463 77.0683C86.4257 77.0683 86.1725 77.2033 86.0291 77.4649C85.9194 77.6674 85.8772 77.9458 85.8772 78.258V80.2661H84.8057V76.1824Z" fill="#3C3E3E"/>
<path d="M83.9366 79.7008C83.7088 79.9371 83.0929 80.3589 82.0972 80.3589C80.8654 80.3589 79.9541 79.608 79.9541 78.2918C79.9541 76.9839 80.9075 76.1064 82.0719 76.1064C83.3291 76.1064 84.0885 76.9333 84.0885 78.0218C84.0885 78.2327 84.0716 78.5702 84.0716 78.5702H81.0679C81.1691 79.2199 81.6669 79.5321 82.2829 79.5321C82.8313 79.5321 83.3207 79.2874 83.5147 79.1186L83.9366 79.7008ZM83.0085 77.8699C82.9916 77.4227 82.8229 76.908 82.0635 76.908C81.4222 76.908 81.0847 77.3552 81.051 77.8699H83.0085Z" fill="#3C3E3E"/>
<path d="M77.502 74.4441C78.0842 74.4441 78.5905 74.5622 78.9617 74.8744C79.3414 75.1866 79.5692 75.6 79.5692 76.1907C79.5692 76.7813 79.3414 77.2032 78.9617 77.5153C78.5905 77.8275 78.0842 77.971 77.502 77.971H76.7342V80.266H75.6289V74.4441H77.502ZM77.367 77.1103C77.7045 77.1103 77.9323 77.026 78.118 76.891C78.3036 76.756 78.4386 76.5197 78.4386 76.1907C78.4386 75.87 78.2783 75.6338 78.0927 75.4988C77.907 75.3638 77.6792 75.3047 77.3417 75.3047H76.7258V77.1103H77.367Z" fill="#3C3E3E"/>
<path d="M198.092 70.6248H226.451C230.205 70.6248 233.248 73.6678 233.248 77.4216C233.248 81.1754 230.205 84.2185 226.451 84.2185H198.092C194.338 84.2185 191.295 81.1754 191.295 77.4216C191.295 73.6678 194.338 70.6248 198.092 70.6248Z" stroke="#BDBDBD" stroke-width="0.46875"/>
<path d="M210.912 79.6398C210.833 79.6595 210.545 79.7448 210.164 79.7448C209.79 79.7448 209.541 79.6332 209.377 79.4429C209.213 79.2526 209.147 78.9835 209.147 78.4913V77.2379H208.688V76.4438H209.147V75.5645H210.203V76.4438H210.919V77.2379H210.203V78.3995C210.203 78.6751 210.243 78.7407 210.295 78.7998C210.341 78.8523 210.407 78.8785 210.545 78.8785C210.709 78.8785 210.86 78.8195 210.86 78.8195L210.912 79.6398Z" fill="#7C7C7C"/>
<path d="M206.452 76.4375H207.502L207.496 76.8969H207.509C207.692 76.5425 207.962 76.3784 208.309 76.3784C208.526 76.3784 208.637 76.4375 208.637 76.4375L208.578 77.4022H208.532C208.473 77.3694 208.336 77.3234 208.152 77.3234C207.916 77.3234 207.745 77.4547 207.666 77.5597C207.587 77.6647 207.502 77.8747 207.502 78.2356V79.6728H206.452V76.4375Z" fill="#7C7C7C"/>
<path d="M204.778 79.3315C204.64 79.4694 204.377 79.745 203.852 79.745C203.281 79.745 202.678 79.4365 202.678 78.7147C202.678 77.9928 203.341 77.75 203.938 77.7237L204.751 77.6909V77.6187C204.751 77.2775 204.509 77.1003 204.089 77.1003C203.675 77.1003 203.262 77.284 203.098 77.389L202.822 76.7065C203.098 76.5687 203.603 76.3784 204.207 76.3784C204.811 76.3784 205.158 76.5162 205.414 76.7525C205.664 76.9887 205.801 77.3037 205.801 77.8484V79.6728H204.797L204.778 79.3315ZM204.24 78.2815C203.918 78.2947 203.728 78.4325 203.728 78.6753C203.728 78.9247 203.931 79.0756 204.22 79.0756C204.502 79.0756 204.692 78.8919 204.758 78.7803V78.2487L204.24 78.2815Z" fill="#7C7C7C"/>
<path d="M202.472 79.6398C202.393 79.6595 202.104 79.7448 201.724 79.7448C201.35 79.7448 201.1 79.6332 200.936 79.4429C200.772 79.2526 200.706 78.9835 200.706 78.4913V77.2379H200.247V76.4438H200.706V75.5645H201.763V76.4438H202.478V77.2379H201.763V78.3995C201.763 78.6751 201.802 78.7407 201.855 78.7998C201.901 78.8523 201.966 78.8785 202.104 78.8785C202.268 78.8785 202.419 78.8195 202.419 78.8195L202.472 79.6398Z" fill="#7C7C7C"/>
<path d="M197.211 78.2945C197.539 78.6358 198.044 78.8655 198.392 78.8655C198.733 78.8655 198.996 78.7014 198.996 78.3995C198.996 78.0911 198.654 77.9795 198.464 77.9008L197.834 77.6645C197.263 77.4545 196.882 77.1133 196.882 76.4439C196.882 75.512 197.716 75.092 198.549 75.092C199.074 75.092 199.678 75.3414 199.986 75.6499L199.534 76.3914C199.271 76.1289 198.864 75.932 198.523 75.932C198.182 75.932 197.932 76.0633 197.932 76.3389C197.932 76.6145 198.175 76.7195 198.392 76.7983L199.068 77.0542C199.639 77.2708 200.052 77.6383 200.052 78.2945C200.052 79.2789 199.166 79.7514 198.293 79.7514C197.637 79.7514 197.053 79.4102 196.686 79.0689L197.211 78.2945Z" fill="#7C7C7C"/>
<path d="M216.263 74.9216L215.822 75.3623L217.566 77.1091H213.763V77.7341H217.566L215.822 79.481L216.263 79.9216L218.763 77.4216L216.263 74.9216Z" fill="#004357"/>
<path d="M61.4629 76.4841C60.9473 76.4841 60.5254 76.906 60.5254 77.4216C60.5254 77.9373 60.9473 78.3591 61.4629 78.3591C61.9785 78.3591 62.4004 77.9373 62.4004 77.4216C62.4004 76.906 61.9785 76.4841 61.4629 76.4841ZM67.0879 76.4841C66.5723 76.4841 66.1504 76.906 66.1504 77.4216C66.1504 77.9373 66.5723 78.3591 67.0879 78.3591C67.6035 78.3591 68.0254 77.9373 68.0254 77.4216C68.0254 76.906 67.6035 76.4841 67.0879 76.4841ZM64.2754 76.4841C63.7598 76.4841 63.3379 76.906 63.3379 77.4216C63.3379 77.9373 63.7598 78.3591 64.2754 78.3591C64.791 78.3591 65.2129 77.9373 65.2129 77.4216C65.2129 76.906 64.791 76.4841 64.2754 76.4841Z" fill="#3C3E3E"/>
</g>
<path d="M53.4941 68.4491C53.4941 67.0187 54.6537 65.8591 56.0841 65.8591H218.404C219.835 65.8591 220.994 67.0187 220.994 68.4491V86.3942C220.994 87.8246 219.835 88.9841 218.404 88.9841H56.0841C54.6537 88.9841 53.4941 87.8246 53.4941 86.3942V68.4491Z" stroke="#004357" stroke-width="0.46875"/>
</g>
<g clip-path="url(#clip1_6290_205156)">
<path d="M57.2441 91.5741C57.2441 90.1437 58.4037 88.9841 59.8341 88.9841H222.154C223.585 88.9841 224.744 90.1437 224.744 91.5741V110.144C224.744 111.575 223.585 112.734 222.154 112.734H59.8341C58.4037 112.734 57.2441 111.575 57.2441 110.144V91.5741Z" fill="#F3F4F6"/>
<path d="M57.0498 91.9156C57.0498 90.4852 58.2094 89.3257 59.6397 89.3257H221.96C223.39 89.3257 224.55 90.4852 224.55 91.9156V109.861C224.55 111.291 223.39 112.451 221.96 112.451H59.6397C58.2094 112.451 57.0498 111.291 57.0498 109.861V91.9156Z" fill="white" stroke="#004357" stroke-width="0.46875"/>
<path d="M106.112 103.138C105.885 103.374 105.269 103.796 104.273 103.796C103.041 103.796 102.13 103.045 102.13 101.729C102.13 100.421 103.083 99.5437 104.248 99.5437C105.505 99.5437 106.264 100.371 106.264 101.459C106.264 101.67 106.247 102.007 106.247 102.007H103.244C103.345 102.657 103.843 102.969 104.459 102.969C105.007 102.969 105.496 102.725 105.691 102.556L106.112 103.138ZM105.184 101.307C105.167 100.86 104.999 100.345 104.239 100.345C103.598 100.345 103.261 100.792 103.227 101.307H105.184Z" fill="#3C3E3E"/>
<path d="M95.2725 99.6196H96.3525L96.344 100.236H96.3693C96.555 99.8559 97.0528 99.5437 97.5843 99.5437C98.175 99.5437 98.5293 99.78 98.7234 100.32C99.0103 99.8221 99.4743 99.5437 100.065 99.5437C101.137 99.5437 101.432 100.303 101.432 101.24V103.703H100.352V101.417C100.352 100.919 100.242 100.43 99.7106 100.43C99.1706 100.43 98.8921 100.894 98.8921 101.594V103.703H97.8121V101.408C97.8121 100.852 97.6687 100.43 97.154 100.43C96.5971 100.43 96.3525 100.953 96.3525 101.594V103.703H95.2725V99.6196Z" fill="#3C3E3E"/>
<path d="M90.1006 101.678C90.1006 100.387 91.0625 99.5437 92.3196 99.5437C93.5684 99.5437 94.5303 100.387 94.5303 101.678C94.5303 102.969 93.5684 103.796 92.3196 103.796C91.0625 103.796 90.1006 102.969 90.1006 101.678ZM92.3196 102.902C93.0115 102.902 93.4165 102.353 93.4165 101.653C93.4165 100.953 93.0115 100.413 92.3196 100.413C91.6109 100.413 91.2228 100.953 91.2228 101.653C91.2228 102.353 91.6109 102.902 92.3196 102.902Z" fill="#3C3E3E"/>
<path d="M89.7759 103.248C89.6915 103.324 89.2696 103.796 88.1812 103.796C87.0675 103.796 86.0381 103.028 86.0381 101.695C86.0381 100.354 87.1012 99.5437 88.1981 99.5437C89.2275 99.5437 89.6325 99.9571 89.7421 100.067L89.4468 100.877C89.3203 100.759 88.9575 100.447 88.3246 100.447C87.6834 100.447 87.1687 100.894 87.1687 101.645C87.1687 102.396 87.6834 102.885 88.3837 102.885C89.084 102.885 89.4721 102.455 89.4721 102.455L89.7759 103.248Z" fill="#3C3E3E"/>
<path d="M81.5625 99.6196H82.6425L82.6341 100.286C82.8787 99.7631 83.3512 99.5437 83.8828 99.5437C85.0556 99.5437 85.3509 100.303 85.3509 101.282V103.703H84.2709V101.518C84.2709 100.911 84.1612 100.43 83.5369 100.43C82.8703 100.43 82.6425 100.987 82.6425 101.67V103.703H81.5625V99.6196Z" fill="#3C3E3E"/>
<path d="M79.3887 97.8816H80.4855V103.703H79.3887V97.8816Z" fill="#3C3E3E"/>
<path d="M201.842 94.0623H230.201C233.955 94.0623 236.998 97.1053 236.998 100.859C236.998 104.613 233.955 107.656 230.201 107.656H201.842C198.088 107.656 195.045 104.613 195.045 100.859C195.045 97.1053 198.088 94.0623 201.842 94.0623Z" stroke="#BDBDBD" stroke-width="0.46875"/>
<path d="M214.662 103.077C214.583 103.097 214.295 103.182 213.914 103.182C213.54 103.182 213.291 103.071 213.127 102.88C212.963 102.69 212.897 102.421 212.897 101.929V100.675H212.438V99.8813H212.897V99.002H213.953V99.8813H214.669V100.675H213.953V101.837C213.953 102.113 213.993 102.178 214.045 102.237C214.091 102.29 214.157 102.316 214.295 102.316C214.459 102.316 214.61 102.257 214.61 102.257L214.662 103.077Z" fill="#7C7C7C"/>
<path d="M210.202 99.875H211.252L211.246 100.334H211.259C211.442 99.98 211.712 99.8159 212.059 99.8159C212.276 99.8159 212.387 99.875 212.387 99.875L212.328 100.84H212.282C212.223 100.807 212.086 100.761 211.902 100.761C211.666 100.761 211.495 100.892 211.416 100.997C211.337 101.102 211.252 101.312 211.252 101.673V103.11H210.202V99.875Z" fill="#7C7C7C"/>
<path d="M208.528 102.769C208.39 102.907 208.127 103.182 207.602 103.182C207.031 103.182 206.428 102.874 206.428 102.152C206.428 101.43 207.091 101.187 207.688 101.161L208.501 101.128V101.056C208.501 100.715 208.259 100.538 207.839 100.538C207.425 100.538 207.012 100.722 206.848 100.827L206.572 100.144C206.848 100.006 207.353 99.8159 207.957 99.8159C208.561 99.8159 208.908 99.9537 209.164 100.19C209.414 100.426 209.551 100.741 209.551 101.286V103.11H208.547L208.528 102.769ZM207.99 101.719C207.668 101.732 207.478 101.87 207.478 102.113C207.478 102.362 207.681 102.513 207.97 102.513C208.252 102.513 208.442 102.329 208.508 102.218V101.686L207.99 101.719Z" fill="#7C7C7C"/>
<path d="M206.222 103.077C206.143 103.097 205.854 103.182 205.474 103.182C205.1 103.182 204.85 103.071 204.686 102.88C204.522 102.69 204.456 102.421 204.456 101.929V100.675H203.997V99.8813H204.456V99.002H205.513V99.8813H206.228V100.675H205.513V101.837C205.513 102.113 205.552 102.178 205.605 102.237C205.651 102.29 205.716 102.316 205.854 102.316C206.018 102.316 206.169 102.257 206.169 102.257L206.222 103.077Z" fill="#7C7C7C"/>
<path d="M200.961 101.732C201.289 102.073 201.794 102.303 202.142 102.303C202.483 102.303 202.746 102.139 202.746 101.837C202.746 101.529 202.404 101.417 202.214 101.338L201.584 101.102C201.013 100.892 200.632 100.551 200.632 99.8814C200.632 98.9495 201.466 98.5295 202.299 98.5295C202.824 98.5295 203.428 98.7789 203.736 99.0874L203.284 99.8289C203.021 99.5664 202.614 99.3695 202.273 99.3695C201.932 99.3695 201.682 99.5008 201.682 99.7764C201.682 100.052 201.925 100.157 202.142 100.236L202.818 100.492C203.389 100.708 203.802 101.076 203.802 101.732C203.802 102.716 202.916 103.189 202.043 103.189C201.387 103.189 200.803 102.848 200.436 102.506L200.961 101.732Z" fill="#7C7C7C"/>
<path d="M220.013 98.3591L219.572 98.7998L221.316 100.547H217.513V101.172H221.316L219.572 102.919L220.013 103.359L222.513 100.859L220.013 98.3591Z" fill="#004357"/>
<path d="M65.2129 99.9216C64.6973 99.9216 64.2754 100.344 64.2754 100.859C64.2754 101.375 64.6973 101.797 65.2129 101.797C65.7285 101.797 66.1504 101.375 66.1504 100.859C66.1504 100.344 65.7285 99.9216 65.2129 99.9216ZM70.8379 99.9216C70.3223 99.9216 69.9004 100.344 69.9004 100.859C69.9004 101.375 70.3223 101.797 70.8379 101.797C71.3535 101.797 71.7754 101.375 71.7754 100.859C71.7754 100.344 71.3535 99.9216 70.8379 99.9216ZM68.0254 99.9216C67.5098 99.9216 67.0879 100.344 67.0879 100.859C67.0879 101.375 67.5098 101.797 68.0254 101.797C68.541 101.797 68.9629 101.375 68.9629 100.859C68.9629 100.344 68.541 99.9216 68.0254 99.9216Z" fill="white"/>
</g>
<path d="M57.2441 91.5741C57.2441 90.1437 58.4037 88.9841 59.8341 88.9841H222.154C223.585 88.9841 224.744 90.1437 224.744 91.5741V110.144C224.744 111.575 223.585 112.734 222.154 112.734H59.8341C58.4037 112.734 57.2441 111.575 57.2441 110.144V91.5741Z" stroke="#004357" stroke-width="0.46875"/>
<g opacity="0.4">
<g clip-path="url(#clip2_6290_205156)">
<path d="M53.4941 115.324C53.4941 113.894 54.6537 112.734 56.0841 112.734H218.404C219.835 112.734 220.994 113.894 220.994 115.324V133.269C220.994 134.7 219.835 135.859 218.404 135.859H56.0841C54.6537 135.859 53.4941 134.7 53.4941 133.269V115.324Z" fill="white"/>
<path d="M53.4941 115.382C53.4941 113.952 54.6537 112.792 56.0841 112.792H218.404C219.835 112.792 220.994 113.952 220.994 115.382V133.328C220.994 134.758 219.835 135.917 218.404 135.917H56.0841C54.6537 135.917 53.4941 134.758 53.4941 133.328V115.382Z" fill="white" stroke="#004357" stroke-width="0.46875"/>
<path d="M107.446 125.867C107.927 126.238 108.34 126.424 108.686 126.424C109.091 126.424 109.277 126.272 109.277 126.036C109.277 125.825 109.116 125.707 108.593 125.529L108.121 125.369C107.513 125.167 107.201 124.804 107.201 124.205C107.201 123.462 107.876 122.981 108.661 122.981C109.386 122.981 109.791 123.175 110.129 123.42L109.665 124.137C109.428 123.96 109.082 123.791 108.711 123.791C108.357 123.791 108.18 123.926 108.18 124.12C108.18 124.297 108.315 124.441 108.77 124.584L109.057 124.677C109.96 124.972 110.281 125.293 110.281 125.884C110.281 126.66 109.665 127.234 108.661 127.234C108.036 127.234 107.336 126.981 107.007 126.601L107.446 125.867Z" fill="#3C3E3E"/>
<path d="M106.441 126.576C106.214 126.812 105.598 127.234 104.602 127.234C103.37 127.234 102.459 126.483 102.459 125.167C102.459 123.859 103.412 122.981 104.577 122.981C105.834 122.981 106.593 123.808 106.593 124.897C106.593 125.108 106.576 125.445 106.576 125.445H103.573C103.674 126.095 104.172 126.407 104.788 126.407C105.336 126.407 105.826 126.162 106.02 125.994L106.441 126.576ZM105.513 124.745C105.496 124.298 105.328 123.783 104.568 123.783C103.927 123.783 103.59 124.23 103.556 124.745H105.513Z" fill="#3C3E3E"/>
<path d="M99.222 125.867C99.7029 126.238 100.116 126.424 100.462 126.424C100.867 126.424 101.053 126.272 101.053 126.036C101.053 125.825 100.893 125.707 100.369 125.529L99.897 125.369C99.2895 125.167 98.9773 124.804 98.9773 124.205C98.9773 123.462 99.6523 122.981 100.437 122.981C101.163 122.981 101.568 123.175 101.905 123.42L101.441 124.137C101.205 123.96 100.859 123.791 100.488 123.791C100.133 123.791 99.956 123.926 99.956 124.12C99.956 124.297 100.091 124.441 100.547 124.584L100.834 124.677C101.736 124.972 102.057 125.293 102.057 125.884C102.057 126.66 101.441 127.234 100.437 127.234C99.8126 127.234 99.1123 126.981 98.7832 126.601L99.222 125.867Z" fill="#3C3E3E"/>
<path d="M94.3242 123.057H95.4042L95.3958 123.724C95.6405 123.201 96.113 122.981 96.6445 122.981C97.8173 122.981 98.1127 123.741 98.1127 124.719V127.141H97.0327V124.956C97.0327 124.348 96.923 123.867 96.2986 123.867C95.632 123.867 95.4042 124.424 95.4042 125.107V127.141H94.3242V123.057Z" fill="#3C3E3E"/>
<path d="M93.4552 126.576C93.2273 126.812 92.6114 127.234 91.6158 127.234C90.3839 127.234 89.4727 126.483 89.4727 125.167C89.4727 123.859 90.4261 122.981 91.5905 122.981C92.8477 122.981 93.607 123.808 93.607 124.897C93.607 125.107 93.5902 125.445 93.5902 125.445H90.5864C90.6877 126.095 91.1855 126.407 91.8014 126.407C92.3498 126.407 92.8392 126.162 93.0333 125.993L93.4552 126.576ZM92.527 124.745C92.5102 124.297 92.3414 123.783 91.582 123.783C90.9408 123.783 90.6033 124.23 90.5695 124.745H92.527Z" fill="#3C3E3E"/>
<path d="M84.6016 123.057H85.6984L85.6816 123.656C86.0106 123.167 86.5169 122.965 87.0569 122.965C88.255 122.965 88.9891 123.893 88.9891 125.108C88.9891 126.264 88.2213 127.217 86.9809 127.217C86.3566 127.217 86.0022 126.998 85.6647 126.593C85.6731 126.846 85.6647 127.107 85.6647 127.361V128.685H84.6016V123.057ZM86.7869 126.39C87.4872 126.39 87.8922 125.791 87.8922 125.108C87.8922 124.399 87.4534 123.842 86.7531 123.842C86.1034 123.842 85.6478 124.34 85.6478 125.108C85.6478 125.791 86.095 126.39 86.7869 126.39Z" fill="#3C3E3E"/>
<path d="M81.1904 124.998L79.7729 123.057H81.0048L81.857 124.39L82.7091 123.057H83.941L82.5235 125.006L84.1182 127.141H82.8779L81.857 125.647L80.836 127.141H79.5957L81.1904 124.998Z" fill="#3C3E3E"/>
<path d="M75.6387 121.319H79.233V122.23H76.7355V123.673H79.0896V124.576H76.7355V126.23H79.3005V127.141H75.6387V121.319Z" fill="#3C3E3E"/>
<path d="M198.092 117.5H226.451C230.205 117.5 233.248 120.543 233.248 124.297C233.248 128.05 230.205 131.094 226.451 131.094H198.092C194.338 131.094 191.295 128.05 191.295 124.297C191.295 120.543 194.338 117.5 198.092 117.5Z" stroke="#BDBDBD" stroke-width="0.46875"/>
<path d="M210.912 126.515C210.833 126.534 210.545 126.62 210.164 126.62C209.79 126.62 209.541 126.508 209.377 126.318C209.213 126.128 209.147 125.859 209.147 125.366V124.113H208.688V123.319H209.147V122.439H210.203V123.319H210.919V124.113H210.203V125.274C210.203 125.55 210.243 125.616 210.295 125.675C210.341 125.727 210.407 125.754 210.545 125.754C210.709 125.754 210.86 125.694 210.86 125.694L210.912 126.515Z" fill="#7C7C7C"/>
<path d="M206.452 123.312H207.502L207.496 123.772H207.509C207.692 123.417 207.962 123.253 208.309 123.253C208.526 123.253 208.637 123.312 208.637 123.312L208.578 124.277H208.532C208.473 124.244 208.336 124.198 208.152 124.198C207.916 124.198 207.745 124.33 207.666 124.435C207.587 124.54 207.502 124.75 207.502 125.111V126.548H206.452V123.312Z" fill="#7C7C7C"/>
<path d="M204.778 126.207C204.64 126.344 204.377 126.62 203.852 126.62C203.281 126.62 202.678 126.312 202.678 125.59C202.678 124.868 203.341 124.625 203.938 124.599L204.751 124.566V124.494C204.751 124.152 204.509 123.975 204.089 123.975C203.675 123.975 203.262 124.159 203.098 124.264L202.822 123.582C203.098 123.444 203.603 123.253 204.207 123.253C204.811 123.253 205.158 123.391 205.414 123.627C205.664 123.864 205.801 124.179 205.801 124.723V126.548H204.797L204.778 126.207ZM204.24 125.157C203.918 125.17 203.728 125.307 203.728 125.55C203.728 125.8 203.931 125.951 204.22 125.951C204.502 125.951 204.692 125.767 204.758 125.655V125.124L204.24 125.157Z" fill="#7C7C7C"/>
<path d="M202.472 126.515C202.393 126.534 202.104 126.62 201.724 126.62C201.35 126.62 201.1 126.508 200.936 126.318C200.772 126.128 200.706 125.859 200.706 125.366V124.113H200.247V123.319H200.706V122.439H201.763V123.319H202.478V124.113H201.763V125.274C201.763 125.55 201.802 125.616 201.855 125.675C201.901 125.727 201.966 125.754 202.104 125.754C202.268 125.754 202.419 125.694 202.419 125.694L202.472 126.515Z" fill="#7C7C7C"/>
<path d="M197.211 125.17C197.539 125.511 198.044 125.74 198.392 125.74C198.733 125.74 198.996 125.576 198.996 125.275C198.996 124.966 198.654 124.855 198.464 124.776L197.834 124.54C197.263 124.33 196.882 123.988 196.882 123.319C196.882 122.387 197.716 121.967 198.549 121.967C199.074 121.967 199.678 122.216 199.986 122.525L199.534 123.266C199.271 123.004 198.864 122.807 198.523 122.807C198.182 122.807 197.932 122.938 197.932 123.214C197.932 123.49 198.175 123.595 198.392 123.673L199.068 123.929C199.639 124.146 200.052 124.513 200.052 125.17C200.052 126.154 199.166 126.626 198.293 126.626C197.637 126.626 197.053 126.285 196.686 125.944L197.211 125.17Z" fill="#7C7C7C"/>
<path d="M216.263 121.797L215.822 122.237L217.566 123.984H213.763V124.609H217.566L215.822 126.356L216.263 126.797L218.763 124.297L216.263 121.797Z" fill="#004357"/>
<path d="M61.4629 123.359C60.9473 123.359 60.5254 123.781 60.5254 124.297C60.5254 124.812 60.9473 125.234 61.4629 125.234C61.9785 125.234 62.4004 124.812 62.4004 124.297C62.4004 123.781 61.9785 123.359 61.4629 123.359ZM67.0879 123.359C66.5723 123.359 66.1504 123.781 66.1504 124.297C66.1504 124.812 66.5723 125.234 67.0879 125.234C67.6035 125.234 68.0254 124.812 68.0254 124.297C68.0254 123.781 67.6035 123.359 67.0879 123.359ZM64.2754 123.359C63.7598 123.359 63.3379 123.781 63.3379 124.297C63.3379 124.812 63.7598 125.234 64.2754 125.234C64.791 125.234 65.2129 124.812 65.2129 124.297C65.2129 123.781 64.791 123.359 64.2754 123.359Z" fill="#3C3E3E"/>
</g>
<path d="M53.4941 115.324C53.4941 113.894 54.6537 112.734 56.0841 112.734H218.404C219.835 112.734 220.994 113.894 220.994 115.324V133.269C220.994 134.7 219.835 135.859 218.404 135.859H56.0841C54.6537 135.859 53.4941 134.7 53.4941 133.269V115.324Z" stroke="#004357" stroke-width="0.46875"/>
</g>
<g opacity="0.4">
<g clip-path="url(#clip3_6290_205156)">
<path d="M57.2441 138.449C57.2441 137.019 58.4037 135.859 59.8341 135.859H222.154C223.585 135.859 224.744 137.019 224.744 138.449V157.019C224.744 158.45 223.585 159.609 222.154 159.609H59.8341C58.4037 159.609 57.2441 158.45 57.2441 157.019V138.449Z" fill="white"/>
<path d="M57.0498 138.138C57.0498 136.707 58.2094 135.548 59.6397 135.548H221.96C223.39 135.548 224.55 136.707 224.55 138.138V156.083C224.55 157.513 223.39 158.673 221.96 158.673H59.6397C58.2094 158.673 57.0498 157.513 57.0498 156.083V138.138Z" fill="white" stroke="#004357" stroke-width="0.46875"/>
<path d="M97.8714 149.304C98.3523 149.676 98.7657 149.861 99.1117 149.861C99.5167 149.861 99.7023 149.709 99.7023 149.473C99.7023 149.262 99.542 149.144 99.0189 148.967L98.5464 148.807C97.9389 148.604 97.6267 148.241 97.6267 147.642C97.6267 146.9 98.3017 146.419 99.0864 146.419C99.812 146.419 100.217 146.613 100.554 146.857L100.09 147.575C99.8542 147.397 99.5082 147.229 99.137 147.229C98.7826 147.229 98.6054 147.364 98.6054 147.558C98.6054 147.735 98.7404 147.878 99.1961 148.022L99.4829 148.115C100.386 148.41 100.706 148.731 100.706 149.321C100.706 150.097 100.09 150.671 99.0864 150.671C98.462 150.671 97.7617 150.418 97.4326 150.038L97.8714 149.304Z" fill="#3C3E3E"/>
<path d="M97.1117 150.536C97.0611 150.553 96.7405 150.671 96.2848 150.671C95.8798 150.671 95.5845 150.587 95.3989 150.376C95.188 150.148 95.1036 149.785 95.1036 149.229V147.339H94.4961V146.503H95.1036V145.339H96.1752V146.503H97.1202V147.339H96.1752V148.992C96.1752 149.321 96.2005 149.515 96.2848 149.634C96.3523 149.735 96.4789 149.769 96.6645 149.769C96.8839 149.769 97.0527 149.701 97.0527 149.701L97.1117 150.536Z" fill="#3C3E3E"/>
<path d="M89.7861 144.757H90.8661V146.579C90.8661 146.807 90.8493 146.993 90.8408 147.111C91.2205 146.588 91.7099 146.402 92.2414 146.402C93.4311 146.402 94.1736 147.338 94.1736 148.537C94.1736 149.701 93.4058 150.654 92.1655 150.654C91.5918 150.654 91.1277 150.452 90.8071 149.988L90.7818 150.578H89.7861V144.757ZM91.9714 149.828C92.6718 149.828 93.0768 149.228 93.0768 148.545C93.0768 147.836 92.638 147.279 91.9377 147.279C91.288 147.279 90.8324 147.777 90.8324 148.545C90.8324 149.228 91.2796 149.828 91.9714 149.828Z" fill="#3C3E3E"/>
<path d="M88.8751 150.013C88.6473 150.249 88.0313 150.671 87.0357 150.671C85.8038 150.671 84.8926 149.92 84.8926 148.604C84.8926 147.296 85.846 146.419 87.0104 146.419C88.2676 146.419 89.027 147.246 89.027 148.334C89.027 148.545 89.0101 148.882 89.0101 148.882H86.0063C86.1076 149.532 86.6054 149.844 87.2213 149.844C87.7698 149.844 88.2591 149.6 88.4532 149.431L88.8751 150.013ZM87.947 148.182C87.9301 147.735 87.7613 147.22 87.002 147.22C86.3607 147.22 86.0232 147.667 85.9895 148.182H87.947Z" fill="#3C3E3E"/>
<path d="M81.2534 144.757C82.2659 144.757 83.0168 145.086 83.464 145.491C83.9196 145.887 84.3921 146.554 84.3921 147.659C84.3921 148.773 83.9196 149.456 83.464 149.853C83.0168 150.249 82.2659 150.578 81.2534 150.578H79.3887V144.757H81.2534ZM81.2955 149.65C81.9284 149.65 82.3924 149.439 82.6793 149.169C82.9577 148.899 83.2615 148.452 83.2615 147.668C83.2615 146.891 82.9577 146.419 82.6793 146.149C82.3924 145.887 81.9284 145.676 81.2955 145.676H80.4855V149.65H81.2955Z" fill="#3C3E3E"/>
<path d="M201.842 140.937H230.201C233.955 140.937 236.998 143.98 236.998 147.734C236.998 151.488 233.955 154.531 230.201 154.531H201.842C198.088 154.531 195.045 151.488 195.045 147.734C195.045 143.98 198.088 140.937 201.842 140.937Z" stroke="#BDBDBD" stroke-width="0.46875"/>
<path d="M214.662 149.952C214.583 149.972 214.295 150.057 213.914 150.057C213.54 150.057 213.291 149.946 213.127 149.755C212.963 149.565 212.897 149.296 212.897 148.804V147.55H212.438V146.756H212.897V145.877H213.953V146.756H214.669V147.55H213.953V148.712C213.953 148.988 213.993 149.053 214.045 149.112C214.091 149.165 214.157 149.191 214.295 149.191C214.459 149.191 214.61 149.132 214.61 149.132L214.662 149.952Z" fill="#7C7C7C"/>
<path d="M210.202 146.75H211.252L211.246 147.209H211.259C211.442 146.855 211.712 146.691 212.059 146.691C212.276 146.691 212.387 146.75 212.387 146.75L212.328 147.715H212.282C212.223 147.682 212.086 147.636 211.902 147.636C211.666 147.636 211.495 147.767 211.416 147.872C211.337 147.977 211.252 148.187 211.252 148.548V149.985H210.202V146.75Z" fill="#7C7C7C"/>
<path d="M208.528 149.644C208.39 149.782 208.127 150.057 207.602 150.057C207.031 150.057 206.428 149.749 206.428 149.027C206.428 148.305 207.091 148.062 207.688 148.036L208.501 148.003V147.931C208.501 147.59 208.259 147.413 207.839 147.413C207.425 147.413 207.012 147.597 206.848 147.702L206.572 147.019C206.848 146.881 207.353 146.691 207.957 146.691C208.561 146.691 208.908 146.829 209.164 147.065C209.414 147.301 209.551 147.616 209.551 148.161V149.985H208.547L208.528 149.644ZM207.99 148.594C207.668 148.607 207.478 148.745 207.478 148.988C207.478 149.237 207.681 149.388 207.97 149.388C208.252 149.388 208.442 149.204 208.508 149.093V148.561L207.99 148.594Z" fill="#7C7C7C"/>
<path d="M206.222 149.952C206.143 149.972 205.854 150.057 205.474 150.057C205.1 150.057 204.85 149.946 204.686 149.755C204.522 149.565 204.456 149.296 204.456 148.804V147.55H203.997V146.756H204.456V145.877H205.513V146.756H206.228V147.55H205.513V148.712C205.513 148.988 205.552 149.053 205.605 149.112C205.651 149.165 205.716 149.191 205.854 149.191C206.018 149.191 206.169 149.132 206.169 149.132L206.222 149.952Z" fill="#7C7C7C"/>
<path d="M200.961 148.607C201.289 148.948 201.794 149.178 202.142 149.178C202.483 149.178 202.746 149.014 202.746 148.712C202.746 148.404 202.404 148.292 202.214 148.213L201.584 147.977C201.013 147.767 200.632 147.426 200.632 146.756C200.632 145.825 201.466 145.405 202.299 145.405C202.824 145.405 203.428 145.654 203.736 145.962L203.284 146.704C203.021 146.441 202.614 146.245 202.273 146.245C201.932 146.245 201.682 146.376 201.682 146.651C201.682 146.927 201.925 147.032 202.142 147.111L202.818 147.367C203.389 147.583 203.802 147.951 203.802 148.607C203.802 149.591 202.916 150.064 202.043 150.064C201.387 150.064 200.803 149.723 200.436 149.381L200.961 148.607Z" fill="#7C7C7C"/>
<path d="M220.013 145.234L219.572 145.675L221.316 147.422H217.513V148.047H221.316L219.572 149.794L220.013 150.234L222.513 147.734L220.013 145.234Z" fill="#004357"/>
<path d="M65.2129 146.797C64.6973 146.797 64.2754 147.219 64.2754 147.734C64.2754 148.25 64.6973 148.672 65.2129 148.672C65.7285 148.672 66.1504 148.25 66.1504 147.734C66.1504 147.219 65.7285 146.797 65.2129 146.797ZM70.8379 146.797C70.3223 146.797 69.9004 147.219 69.9004 147.734C69.9004 148.25 70.3223 148.672 70.8379 148.672C71.3535 148.672 71.7754 148.25 71.7754 147.734C71.7754 147.219 71.3535 146.797 70.8379 146.797ZM68.0254 146.797C67.5098 146.797 67.0879 147.219 67.0879 147.734C67.0879 148.25 67.5098 148.672 68.0254 148.672C68.541 148.672 68.9629 148.25 68.9629 147.734C68.9629 147.219 68.541 146.797 68.0254 146.797Z" fill="#3C3E3E"/>
</g>
<path d="M57.2441 138.449C57.2441 137.019 58.4037 135.859 59.8341 135.859H222.154C223.585 135.859 224.744 137.019 224.744 138.449V157.019C224.744 158.45 223.585 159.609 222.154 159.609H59.8341C58.4037 159.609 57.2441 158.45 57.2441 157.019V138.449Z" stroke="#004357" stroke-width="0.46875"/>
</g>
<path d="M45.5256 97.5606C45.7124 97.8509 45.6285 98.2376 45.3382 98.4244L40.6081 101.469C40.3179 101.655 39.9311 101.571 39.7443 101.281C39.5575 100.991 39.6414 100.604 39.9317 100.417L44.1362 97.7115L41.4303 93.507C41.2435 93.2167 41.3274 92.83 41.6176 92.6432C41.9079 92.4564 42.2946 92.5403 42.4814 92.8305L45.5256 97.5606ZM22.3453 45.045C15.2599 52.7048 12.9506 64.02 16.4067 74.2923C19.8548 84.5407 29.0656 93.8037 45.1325 97.2881L44.8675 98.5097C28.4189 94.9425 18.8255 85.4013 15.222 74.6909C11.6265 64.0045 14.0183 52.2063 21.4277 44.1962L22.3453 45.045Z" fill="#004357"/>
<path d="M275.308 116.485L259.02 116.485C256.258 116.485 254.02 118.723 254.02 121.485L254.02 145.341" stroke="#BED73C" stroke-width="1.25" stroke-linecap="round" stroke-linejoin="round" stroke-dasharray="2.5 2.5"/>
<path d="M169.089 181.461L158.494 181.461C155.733 181.461 153.494 179.222 153.494 176.461L153.494 162.711" stroke="#BED73C" stroke-width="1.25" stroke-linecap="round" stroke-linejoin="round" stroke-dasharray="2.5 2.5"/>
<path d="M181.476 148.136H273.378C278.485 148.136 282.625 152.276 282.625 157.383V203.614C282.625 208.721 278.485 212.861 273.378 212.861H181.476C176.369 212.861 172.229 208.721 172.229 203.614V157.383C172.229 152.276 176.369 148.136 181.476 148.136Z" fill="white"/>
<path d="M181.476 148.136H273.378C278.485 148.136 282.625 152.276 282.625 157.383V203.614C282.625 208.721 278.485 212.861 273.378 212.861H181.476C176.369 212.861 172.229 208.721 172.229 203.614V157.383C172.229 152.276 176.369 148.136 181.476 148.136Z" stroke="#004357" stroke-width="0.804077"/>
<path d="M181.476 148.039H273.378C278.485 148.039 282.625 152.179 282.625 157.286V203.614C282.625 208.721 278.485 212.861 273.378 212.861H181.476C176.369 212.861 172.229 208.721 172.229 203.614V157.286C172.229 152.179 176.369 148.039 181.476 148.039Z" fill="white" stroke="#004357" stroke-width="0.804077"/>
<g clip-path="url(#clip4_6290_205156)">
<path d="M206.116 176.917L199.007 174.285V172.774C199.007 172.494 198.774 172.261 198.494 172.261C198.214 172.261 197.981 172.494 197.981 172.774V174.401L195.76 176.233L193.538 174.401V172.781C193.538 172.501 193.306 172.268 193.025 172.268C192.745 172.268 192.513 172.501 192.513 172.781V174.292L185.403 176.924C184.139 177.395 183.284 178.619 183.284 179.966V188.661C183.284 188.941 183.517 189.174 183.797 189.174H207.723C208.003 189.174 208.235 188.941 208.235 188.661V179.959C208.235 178.612 207.381 177.388 206.116 176.917ZM192.554 177.416L193.258 175.495L194.789 176.76L192.786 177.635C192.697 177.676 192.629 177.635 192.602 177.6C192.567 177.573 192.52 177.511 192.554 177.416ZM194.796 180.622H196.724L198.528 188.141H192.991L194.796 180.622ZM196.689 179.596H194.823L194.557 177.983L195.76 177.457L196.963 177.983L196.689 179.596ZM196.73 176.76L198.262 175.495L198.966 177.416C199 177.505 198.952 177.573 198.925 177.6C198.897 177.628 198.829 177.669 198.74 177.635L196.73 176.76ZM184.31 179.959C184.31 179.036 184.891 178.195 185.759 177.874L192.164 175.502L191.59 177.067C191.426 177.525 191.542 178.017 191.891 178.345C192.123 178.564 192.41 178.674 192.704 178.674C192.868 178.674 193.032 178.639 193.189 178.571L193.586 178.4L193.866 180.089L191.938 188.141H187.728V186.261C187.728 185.981 187.495 185.749 187.215 185.749C186.935 185.749 186.702 185.981 186.702 186.261V188.141H184.31V179.959ZM207.21 188.141H204.817V186.261C204.817 185.981 204.585 185.749 204.305 185.749C204.024 185.749 203.792 185.981 203.792 186.261V188.141H199.581L197.646 180.089L197.927 178.4L198.323 178.571C198.48 178.639 198.645 178.674 198.809 178.674C199.103 178.674 199.396 178.564 199.622 178.345C199.978 178.01 200.094 177.518 199.923 177.067L199.355 175.509L205.761 177.881C206.629 178.202 207.21 179.036 207.21 179.966V188.141Z" fill="#004357"/>
<path d="M204.306 183.698C204.025 183.698 203.793 183.93 203.793 184.211V184.552C203.793 184.833 204.025 185.065 204.306 185.065C204.586 185.065 204.818 184.833 204.818 184.552V184.211C204.818 183.93 204.586 183.698 204.306 183.698Z" fill="#004357"/>
<path d="M187.215 185.065C187.495 185.065 187.728 184.833 187.728 184.552V184.211C187.728 183.93 187.495 183.698 187.215 183.698C186.935 183.698 186.702 183.93 186.702 184.211V184.552C186.702 184.833 186.935 185.065 187.215 185.065Z" fill="#004357"/>
<path d="M194.222 169.719C194.222 168.871 194.912 168.181 195.76 168.181H200.107C200.278 167.702 200.374 167.183 200.374 166.643V163.908C200.374 161.365 198.303 159.294 195.76 159.294C193.217 159.294 191.146 161.365 191.146 163.908V166.643C191.146 169.186 193.217 171.257 195.76 171.257C194.912 171.257 194.222 170.566 194.222 169.719Z" fill="#BED73C"/>
<path d="M203.279 161.687H202.425V160.832C202.425 157.154 199.437 154.167 195.76 154.167C192.082 154.167 189.095 157.154 189.095 160.832V161.687H188.24C187.201 161.687 186.36 162.527 186.36 163.566V168.352C186.36 169.391 187.201 170.231 188.24 170.231C189.279 170.231 190.12 169.391 190.12 168.352V160.832C190.12 157.722 192.649 155.192 195.76 155.192C198.87 155.192 201.399 157.722 201.399 160.832V169.206H195.76C195.479 169.206 195.247 169.438 195.247 169.719C195.247 169.999 195.479 170.231 195.76 170.231H203.279C204.318 170.231 205.159 169.391 205.159 168.352V163.566C205.159 162.527 204.318 161.687 203.279 161.687Z" fill="#BED73C"/>
</g>
<path d="M274.704 195.599H276.427L276.273 201.929H274.845L274.704 195.599ZM274.523 203.666C274.523 203.061 274.948 202.701 275.566 202.701C276.157 202.701 276.595 203.061 276.595 203.666C276.595 204.258 276.157 204.618 275.566 204.618C274.948 204.618 274.523 204.258 274.523 203.666Z" fill="#3C3E3E"/>
<path d="M266.466 198.249H268.138L268.113 199.163C268.614 198.417 269.386 198.108 270.21 198.108C272.036 198.108 273.156 199.523 273.156 201.376C273.156 203.138 271.985 204.592 270.094 204.592C269.142 204.592 268.601 204.257 268.087 203.64C268.1 204.026 268.087 204.425 268.087 204.811V206.831H266.466V198.249ZM269.798 203.331C270.866 203.331 271.483 202.418 271.483 201.376C271.483 200.295 270.814 199.446 269.746 199.446C268.756 199.446 268.061 200.205 268.061 201.376C268.061 202.418 268.743 203.331 269.798 203.331Z" fill="#3C3E3E"/>
<path d="M263.213 195.599H264.847V204.476H263.213V195.599Z" fill="#3C3E3E"/>
<path d="M261.823 203.614C261.476 203.975 260.537 204.618 259.019 204.618C257.14 204.618 255.751 203.473 255.751 201.466C255.751 199.472 257.205 198.134 258.98 198.134C260.897 198.134 262.055 199.395 262.055 201.054C262.055 201.376 262.029 201.89 262.029 201.89H257.449C257.604 202.881 258.363 203.357 259.302 203.357C260.138 203.357 260.884 202.984 261.18 202.727L261.823 203.614ZM260.408 200.823C260.382 200.141 260.125 199.356 258.967 199.356C257.99 199.356 257.475 200.038 257.423 200.823H260.408Z" fill="#3C3E3E"/>
<path d="M248.915 195.599H250.549V199.189H250.575C250.909 198.533 251.54 198.134 252.44 198.134C254.228 198.134 254.679 199.292 254.679 200.784V204.476H253.032V201.144C253.032 200.218 252.865 199.485 251.913 199.485C250.896 199.485 250.549 200.334 250.549 201.376V204.476H248.915V195.599Z" fill="#3C3E3E"/>
<path d="M238.414 201.389C238.414 199.42 239.881 198.134 241.798 198.134C243.702 198.134 245.168 199.42 245.168 201.389C245.168 203.357 243.702 204.618 241.798 204.618C239.881 204.618 238.414 203.357 238.414 201.389ZM241.798 203.254C242.853 203.254 243.47 202.418 243.47 201.35C243.47 200.282 242.853 199.459 241.798 199.459C240.717 199.459 240.125 200.282 240.125 201.35C240.125 202.418 240.717 203.254 241.798 203.254Z" fill="#3C3E3E"/>
<path d="M237.848 204.412C237.77 204.438 237.282 204.618 236.587 204.618C235.969 204.618 235.519 204.489 235.236 204.168C234.914 203.82 234.786 203.267 234.786 202.418V199.536H233.859V198.262H234.786V196.487H236.42V198.262H237.86V199.536H236.42V202.058C236.42 202.559 236.458 202.855 236.587 203.035C236.69 203.19 236.883 203.241 237.166 203.241C237.5 203.241 237.758 203.138 237.758 203.138L237.848 204.412Z" fill="#3C3E3E"/>
<path d="M230.628 203.614C230.281 203.975 229.342 204.618 227.823 204.618C225.945 204.618 224.556 203.473 224.556 201.466C224.556 199.472 226.009 198.134 227.785 198.134C229.702 198.134 230.86 199.395 230.86 201.054C230.86 201.376 230.834 201.89 230.834 201.89H226.254C226.408 202.881 227.167 203.357 228.106 203.357C228.943 203.357 229.689 202.984 229.985 202.727L230.628 203.614ZM229.213 200.823C229.187 200.141 228.93 199.356 227.772 199.356C226.794 199.356 226.28 200.038 226.228 200.823H229.213Z" fill="#3C3E3E"/>
<path d="M220.318 198.25H221.952L221.927 199.253H221.965C222.21 198.584 222.827 198.134 223.496 198.134C223.921 198.134 224.152 198.25 224.152 198.25L224.036 199.678H223.959C223.779 199.626 223.496 199.6 223.277 199.6C222.788 199.6 222.403 199.806 222.184 200.205C222.017 200.514 221.952 200.938 221.952 201.414V204.476H220.318V198.25Z" fill="#3C3E3E"/>
<path d="M218.993 203.614C218.646 203.975 217.707 204.618 216.189 204.618C214.31 204.618 212.921 203.473 212.921 201.466C212.921 199.472 214.375 198.134 216.15 198.134C218.067 198.134 219.225 199.395 219.225 201.054C219.225 201.376 219.199 201.89 219.199 201.89H214.619C214.773 202.881 215.533 203.357 216.472 203.357C217.308 203.357 218.054 202.984 218.35 202.727L218.993 203.614ZM217.578 200.823C217.552 200.141 217.295 199.356 216.137 199.356C215.159 199.356 214.645 200.038 214.593 200.823H217.578Z" fill="#3C3E3E"/>
<path d="M206.085 195.599H207.719V199.189H207.745C208.079 198.533 208.709 198.134 209.61 198.134C211.398 198.134 211.849 199.292 211.849 200.784V204.476H210.202V201.144C210.202 200.218 210.035 199.485 209.083 199.485C208.066 199.485 207.719 200.334 207.719 201.376V204.476H206.085V195.599Z" fill="#3C3E3E"/>
<path d="M192.603 198.25H194.249L194.236 199.189H194.275C194.558 198.61 195.317 198.134 196.128 198.134C197.028 198.134 197.569 198.494 197.864 199.317C198.302 198.558 199.009 198.134 199.91 198.134C201.544 198.134 201.994 199.292 201.994 200.72V204.476H200.347V200.99C200.347 200.231 200.18 199.485 199.37 199.485C198.546 199.485 198.122 200.192 198.122 201.26V204.476H196.475V200.977C196.475 200.128 196.256 199.485 195.471 199.485C194.622 199.485 194.249 200.282 194.249 201.26V204.476H192.603V198.25Z" fill="#3C3E3E"/>
<path d="M189.297 195.599H190.918L189.695 198.584H188.357L189.297 195.599Z" fill="#3C3E3E"/>
<path d="M185.005 195.599H186.677V204.476H185.005V195.599Z" fill="#3C3E3E"/>
<path d="M182.004 195.599H183.277L182.338 198.584H180.781L182.004 195.599ZM179.482 195.599H180.756L179.816 198.584H178.26L179.482 195.599Z" fill="#3C3E3E"/>
<path d="M261.705 219.071L254.281 212.459H272.337L264.913 219.071C263.999 219.886 262.619 219.886 261.705 219.071Z" fill="white"/>
<path d="M254.301 213.021L261.767 219.22C262.661 219.962 263.956 219.962 264.849 219.22L272.314 213.021" stroke="#004357" stroke-width="0.804077" stroke-linecap="square"/>
<path d="M292.675 216.96C292.331 216.992 292.078 217.296 292.11 217.64L292.626 223.241C292.658 223.585 292.962 223.838 293.306 223.806C293.65 223.774 293.903 223.47 293.871 223.126L293.412 218.148L298.391 217.688C298.734 217.656 298.987 217.352 298.956 217.008C298.924 216.665 298.619 216.412 298.276 216.443L292.675 216.96ZM347.735 204.069C332.527 228.801 306.179 227.945 293.131 217.102L292.332 218.063C305.938 229.37 333.175 230.133 348.8 204.723L347.735 204.069Z" fill="#004357"/>
<path d="M327.192 89.5977C327.425 89.8521 327.82 89.8692 328.075 89.6359L332.221 85.8342C332.475 85.6009 332.492 85.2055 332.259 84.9511C332.025 84.6967 331.63 84.6796 331.376 84.9129L327.691 88.2922L324.311 84.6071C324.078 84.3527 323.683 84.3356 323.428 84.5689C323.174 84.8022 323.157 85.1976 323.39 85.452L327.192 89.5977ZM328.277 89.2023C329.532 60.1959 352.968 48.1251 369.643 51.2515L369.873 50.0229C352.486 46.7628 328.318 59.3468 327.028 89.1483L328.277 89.2023Z" fill="#004357"/>
<g clip-path="url(#clip5_6290_205156)">
<path d="M277.315 97.4097C277.315 95.7544 278.657 94.4126 280.313 94.4126H458.693C460.349 94.4126 461.69 95.7545 461.69 97.4097V146.032C461.69 147.687 460.349 149.029 458.693 149.029H280.313C278.657 149.029 277.315 147.687 277.315 146.032V97.4097Z" fill="#F3F4F6"/>
<path d="M277.315 97.4097C277.315 95.7545 278.657 94.4126 280.313 94.4126H458.693C460.349 94.4126 461.69 95.7545 461.69 97.4097V146.032C461.69 147.687 460.349 149.029 458.693 149.029H280.313C278.657 149.029 277.315 147.687 277.315 146.032V97.4097Z" fill="#F3F4F6"/>
<path d="M417.286 105.751C417.286 105.226 417.655 104.914 418.191 104.914C418.704 104.914 419.084 105.226 419.084 105.751C419.084 106.265 418.704 106.577 418.191 106.577C417.655 106.577 417.286 106.265 417.286 105.751Z" fill="#3C3E3E"/>
<path d="M415.947 105.706C415.646 106.019 414.83 106.577 413.513 106.577C411.883 106.577 410.677 105.584 410.677 103.842C410.677 102.111 411.939 100.95 413.479 100.95C415.143 100.95 416.148 102.044 416.148 103.484C416.148 103.764 416.126 104.21 416.126 104.21H412.151C412.285 105.07 412.943 105.483 413.759 105.483C414.484 105.483 415.132 105.159 415.389 104.936L415.947 105.706ZM414.719 103.283C414.696 102.692 414.473 102.01 413.468 102.01C412.62 102.01 412.173 102.602 412.128 103.283H414.719Z" fill="#3C3E3E"/>
<path d="M404.731 101.05H406.161L406.15 101.932C406.473 101.24 407.099 100.95 407.802 100.95C409.354 100.95 409.745 101.955 409.745 103.25V106.455H408.316V103.563C408.316 102.759 408.171 102.122 407.344 102.122C406.462 102.122 406.161 102.859 406.161 103.764V106.455H404.731V101.05Z" fill="#3C3E3E"/>
<path d="M397.888 103.775C397.888 102.066 399.161 100.95 400.824 100.95C402.477 100.95 403.75 102.066 403.75 103.775C403.75 105.483 402.477 106.577 400.824 106.577C399.161 106.577 397.888 105.483 397.888 103.775ZM400.824 105.394C401.74 105.394 402.276 104.668 402.276 103.741C402.276 102.814 401.74 102.1 400.824 102.1C399.886 102.1 399.373 102.814 399.373 103.741C399.373 104.668 399.886 105.394 400.824 105.394Z" fill="#3C3E3E"/>
<path d="M395.472 106.454L395.483 105.606C395.048 106.298 394.344 106.577 393.596 106.577C392.01 106.577 391.039 105.349 391.039 103.741C391.039 102.211 392.055 100.95 393.697 100.95C394.422 100.95 395.059 101.218 395.438 101.798C395.427 101.553 395.427 101.262 395.427 100.883V98.75H396.845V106.454H395.472ZM393.998 105.416C394.858 105.416 395.461 104.757 395.461 103.741C395.461 102.837 394.869 102.044 393.953 102.044C393.027 102.044 392.491 102.837 392.491 103.741C392.491 104.679 393.071 105.416 393.998 105.416Z" fill="#3C3E3E"/>
<path d="M388.334 106.399C388.267 106.421 387.842 106.577 387.239 106.577C386.703 106.577 386.312 106.466 386.067 106.187C385.788 105.885 385.676 105.405 385.676 104.668V102.167H384.872V101.061H385.676V99.5205H387.094V101.061H388.345V102.167H387.094V104.355C387.094 104.791 387.128 105.048 387.239 105.204C387.329 105.338 387.496 105.383 387.742 105.383C388.032 105.383 388.255 105.293 388.255 105.293L388.334 106.399Z" fill="#3C3E3E"/>
<path d="M380.79 104.768C381.426 105.26 381.973 105.505 382.431 105.505C382.967 105.505 383.213 105.304 383.213 104.992C383.213 104.713 383 104.556 382.308 104.322L381.683 104.11C380.879 103.842 380.466 103.362 380.466 102.569C380.466 101.586 381.359 100.95 382.398 100.95C383.358 100.95 383.894 101.207 384.34 101.53L383.726 102.479C383.414 102.245 382.956 102.022 382.465 102.022C381.996 102.022 381.761 102.2 381.761 102.457C381.761 102.692 381.94 102.881 382.543 103.071L382.922 103.194C384.117 103.585 384.541 104.009 384.541 104.791C384.541 105.818 383.726 106.577 382.398 106.577C381.571 106.577 380.644 106.242 380.209 105.74L380.79 104.768Z" fill="#3C3E3E"/>
<path d="M373.766 103.775C373.766 102.066 375.039 100.95 376.702 100.95C378.355 100.95 379.628 102.066 379.628 103.775C379.628 105.483 378.355 106.577 376.702 106.577C375.039 106.577 373.766 105.483 373.766 103.775ZM376.702 105.394C377.618 105.394 378.154 104.668 378.154 103.741C378.154 102.814 377.618 102.1 376.702 102.1C375.764 102.1 375.251 102.814 375.251 103.741C375.251 104.668 375.764 105.394 376.702 105.394Z" fill="#3C3E3E"/>
<path d="M364.67 101.05H366.099L366.088 101.865H366.121C366.367 101.363 367.026 100.95 367.729 100.95C368.511 100.95 368.98 101.262 369.237 101.977C369.616 101.318 370.231 100.95 371.012 100.95C372.43 100.95 372.821 101.955 372.821 103.194V106.455H371.392V103.429C371.392 102.77 371.247 102.122 370.543 102.122C369.829 102.122 369.46 102.736 369.46 103.663V106.455H368.031V103.417C368.031 102.68 367.841 102.122 367.16 102.122C366.423 102.122 366.099 102.814 366.099 103.663V106.455H364.67V101.05Z" fill="#3C3E3E"/>
<path d="M361.88 98.75H363.298V106.454H361.88V98.75Z" fill="#3C3E3E"/>
<path d="M359.203 105.829C358.98 106.22 358.355 106.577 357.551 106.577C356.501 106.577 355.652 106.008 355.652 104.88C355.652 103.752 356.758 103.317 357.874 103.239L359.17 103.149V103.004C359.17 102.312 358.712 101.988 357.964 101.988C357.249 101.988 356.657 102.256 356.423 102.435L355.987 101.519C356.4 101.274 357.16 100.95 358.098 100.95C359.058 100.95 359.605 101.195 360.007 101.575C360.398 101.955 360.599 102.446 360.599 103.362V106.455H359.225L359.203 105.829ZM358.209 104.076C357.45 104.121 357.082 104.378 357.082 104.835C357.082 105.293 357.428 105.606 358.02 105.606C358.578 105.606 358.991 105.282 359.181 105.014V104.02L358.209 104.076Z" fill="#3C3E3E"/>
<path d="M352.703 105.706C352.401 106.019 351.586 106.577 350.269 106.577C348.639 106.577 347.433 105.584 347.433 103.842C347.433 102.111 348.694 100.95 350.235 100.95C351.899 100.95 352.904 102.044 352.904 103.484C352.904 103.764 352.882 104.21 352.882 104.21H348.907C349.041 105.07 349.699 105.483 350.514 105.483C351.24 105.483 351.888 105.159 352.145 104.936L352.703 105.706ZM351.475 103.283C351.452 102.692 351.229 102.01 350.224 102.01C349.375 102.01 348.929 102.602 348.884 103.283H351.475Z" fill="#3C3E3E"/>
<path d="M343.755 101.05H345.173L345.151 101.921H345.184C345.396 101.341 345.932 100.95 346.513 100.95C346.881 100.95 347.082 101.05 347.082 101.05L346.982 102.29H346.915C346.759 102.245 346.513 102.223 346.323 102.223C345.899 102.223 345.564 102.401 345.374 102.747C345.229 103.015 345.173 103.384 345.173 103.797V106.455H343.755V101.05Z" fill="#3C3E3E"/>
<path d="M340.885 98.75H342.292L341.232 101.34H340.07L340.885 98.75Z" fill="#3C3E3E"/>
<path d="M337.327 105.695C337.015 106.231 336.434 106.555 335.652 106.555C334.994 106.555 334.547 106.376 334.246 106.075C333.844 105.662 333.721 105.003 333.721 104.255V101.05H335.15V103.942C335.15 104.746 335.284 105.382 336.11 105.382C336.97 105.382 337.294 104.701 337.294 103.797V101.05H338.723V106.454H337.338L337.327 105.695Z" fill="#3C3E3E"/>
<path d="M326.977 103.775C326.977 102.066 328.249 100.95 329.913 100.95C331.566 100.95 332.839 102.066 332.839 103.775C332.839 105.483 331.566 106.577 329.913 106.577C328.249 106.577 326.977 105.483 326.977 103.775ZM329.913 105.394C330.829 105.394 331.365 104.668 331.365 103.741C331.365 102.814 330.829 102.1 329.913 102.1C328.975 102.1 328.462 102.814 328.462 103.741C328.462 104.668 328.975 105.394 329.913 105.394Z" fill="#3C3E3E"/>
<path d="M322.592 103.283L319.923 98.75H321.531L323.328 102.055L325.115 98.75H326.723L324.043 103.283V106.454H322.592V103.283Z" fill="#3C3E3E"/>
<path d="M421.203 120.875H421.953L421.885 124.67H421.263L421.203 120.875ZM421.075 125.66C421.075 125.367 421.285 125.187 421.578 125.187C421.863 125.187 422.073 125.367 422.073 125.66C422.073 125.945 421.863 126.125 421.578 126.125C421.285 126.125 421.075 125.945 421.075 125.66Z" fill="#3C3E3E"/>
<path d="M419.945 125.3C419.945 126.087 419.817 126.522 419.555 126.837C419.292 127.16 418.85 127.52 417.965 127.52C417.087 127.52 416.48 127.062 416.375 126.987L416.712 126.485C416.9 126.65 417.455 126.935 417.987 126.935C418.52 126.935 418.82 126.725 418.962 126.545C419.105 126.372 419.232 126.035 419.232 125.547V125.352C418.977 125.727 418.572 126.005 417.965 126.005C417.057 126.005 416.255 125.337 416.255 124.25C416.255 123.065 417.057 122.42 417.972 122.42C418.55 122.42 418.97 122.675 419.217 123.042H419.232V122.487H419.945V125.3ZM418.122 125.42C418.835 125.42 419.255 124.887 419.255 124.227C419.255 123.515 418.835 122.997 418.122 122.997C417.41 122.997 416.99 123.522 416.99 124.227C416.99 124.887 417.41 125.42 418.122 125.42Z" fill="#3C3E3E"/>
<path d="M412.438 122.487H413.157L413.15 123.095C413.345 122.675 413.803 122.42 414.26 122.42C415.273 122.42 415.535 123.087 415.535 123.942V126.05H414.815V124.062C414.815 123.462 414.71 123.012 414.073 123.012C413.405 123.012 413.157 123.575 413.157 124.257V126.05H412.438V122.487Z" fill="#3C3E3E"/>
<path d="M410.582 121.317C410.582 121.062 410.777 120.875 411.055 120.875C411.325 120.875 411.52 121.062 411.52 121.317C411.52 121.572 411.325 121.76 411.055 121.76C410.777 121.76 410.582 121.572 410.582 121.317ZM410.695 122.487H411.415V126.05H410.695V122.487Z" fill="#3C3E3E"/>
<path d="M406.141 124.28C406.141 123.177 406.966 122.42 408.031 122.42C409.088 122.42 409.913 123.177 409.913 124.28C409.913 125.39 409.088 126.132 408.031 126.132C406.966 126.132 406.141 125.39 406.141 124.28ZM408.031 125.517C408.743 125.517 409.186 124.962 409.186 124.257C409.186 123.56 408.743 123.005 408.031 123.005C407.311 123.005 406.868 123.56 406.868 124.257C406.868 124.962 407.311 125.517 408.031 125.517Z" fill="#3C3E3E"/>
<path d="M405.384 125.3C405.384 126.087 405.257 126.522 404.994 126.837C404.732 127.16 404.289 127.52 403.404 127.52C402.527 127.52 401.919 127.062 401.814 126.987L402.152 126.485C402.339 126.65 402.894 126.935 403.427 126.935C403.959 126.935 404.259 126.725 404.402 126.545C404.544 126.372 404.672 126.035 404.672 125.547V125.352C404.417 125.727 404.012 126.005 403.404 126.005C402.497 126.005 401.694 125.337 401.694 124.25C401.694 123.065 402.497 122.42 403.412 122.42C403.989 122.42 404.409 122.675 404.657 123.042H404.672V122.487H405.384V125.3ZM403.562 125.42C404.274 125.42 404.694 124.887 404.694 124.227C404.694 123.515 404.274 122.997 403.562 122.997C402.849 122.997 402.429 123.522 402.429 124.227C402.429 124.887 402.849 125.42 403.562 125.42Z" fill="#3C3E3E"/>
<path d="M394.317 122.487H395.037L395.03 123.05H395.052C395.217 122.72 395.607 122.42 396.08 122.42C396.605 122.42 396.972 122.66 397.137 123.125C397.377 122.675 397.767 122.42 398.27 122.42C399.222 122.42 399.477 123.117 399.477 123.89V126.05H398.765V123.972C398.765 123.56 398.69 123.012 398.112 123.012C397.542 123.012 397.257 123.56 397.257 124.197V126.05H396.537V123.972C396.537 123.447 396.41 123.012 395.892 123.012C395.322 123.012 395.037 123.56 395.037 124.197V126.05H394.317V122.487Z" fill="#3C3E3E"/>
<path d="M392.622 125.54C392.427 125.885 392.022 126.132 391.519 126.132C391.009 126.132 390.717 125.96 390.529 125.72C390.349 125.48 390.267 125.127 390.267 124.617V122.48H390.979V124.587C390.979 125.075 391.084 125.532 391.722 125.532C392.352 125.532 392.607 124.992 392.607 124.392V122.48H393.327V126.05H392.629L392.622 125.54Z" fill="#3C3E3E"/>
<path d="M389.7 126.012C389.512 126.094 389.295 126.132 389.047 126.132C388.672 126.132 388.44 125.989 388.29 125.764C388.14 125.539 388.11 125.262 388.11 124.699V123.072H387.585V122.494H388.11V121.429H388.83V122.494H389.685V123.072H388.83V124.684C388.83 124.984 388.83 125.194 388.92 125.337C388.98 125.457 389.085 125.517 389.287 125.517C389.497 125.517 389.655 125.434 389.655 125.434L389.7 126.012Z" fill="#3C3E3E"/>
<path d="M383.91 122.487H384.63L384.623 123.095C384.818 122.675 385.275 122.42 385.733 122.42C386.745 122.42 387.008 123.087 387.008 123.942V126.05H386.288V124.062C386.288 123.462 386.183 123.012 385.545 123.012C384.878 123.012 384.63 123.575 384.63 124.257V126.05H383.91V122.487Z" fill="#3C3E3E"/>
<path d="M383.053 125.57C383.008 125.607 382.55 126.132 381.485 126.132C380.428 126.132 379.7 125.397 379.7 124.265C379.7 123.14 380.518 122.42 381.508 122.42C382.498 122.42 383.195 123.125 383.195 124.122C383.195 124.257 383.173 124.437 383.173 124.437H380.428C380.465 125.142 380.915 125.57 381.575 125.57C382.243 125.57 382.67 125.21 382.753 125.157L383.053 125.57ZM382.513 123.957C382.505 123.56 382.205 122.937 381.485 122.937C380.773 122.937 380.458 123.53 380.435 123.957H382.513Z" fill="#3C3E3E"/>
<path d="M373.816 122.487H374.536L374.529 123.05H374.551C374.716 122.72 375.106 122.42 375.579 122.42C376.104 122.42 376.471 122.66 376.636 123.125C376.876 122.675 377.266 122.42 377.769 122.42C378.721 122.42 378.976 123.117 378.976 123.89V126.05H378.264V123.972C378.264 123.56 378.189 123.012 377.611 123.012C377.041 123.012 376.756 123.56 376.756 124.197V126.05H376.036V123.972C376.036 123.447 375.909 123.012 375.391 123.012C374.821 123.012 374.536 123.56 374.536 124.197V126.05H373.816V122.487Z" fill="#3C3E3E"/>
<path d="M369.292 124.28C369.292 123.177 370.117 122.42 371.182 122.42C372.239 122.42 373.064 123.177 373.064 124.28C373.064 125.39 372.239 126.132 371.182 126.132C370.117 126.132 369.292 125.39 369.292 124.28ZM371.182 125.517C371.894 125.517 372.337 124.962 372.337 124.257C372.337 123.56 371.894 123.005 371.182 123.005C370.462 123.005 370.019 123.56 370.019 124.257C370.019 124.962 370.462 125.517 371.182 125.517Z" fill="#3C3E3E"/>
<path d="M363.409 122.487H364.129L364.122 123.05H364.144C364.309 122.72 364.699 122.42 365.172 122.42C365.697 122.42 366.064 122.66 366.229 123.125C366.469 122.675 366.859 122.42 367.362 122.42C368.314 122.42 368.569 123.117 368.569 123.89V126.05H367.857V123.972C367.857 123.56 367.782 123.012 367.204 123.012C366.634 123.012 366.349 123.56 366.349 124.197V126.05H365.629V123.972C365.629 123.447 365.502 123.012 364.984 123.012C364.414 123.012 364.129 123.56 364.129 124.197V126.05H363.409V122.487Z" fill="#3C3E3E"/>
<path d="M361.059 125.57C361.014 125.607 360.556 126.132 359.491 126.132C358.434 126.132 357.706 125.397 357.706 124.265C357.706 123.14 358.524 122.42 359.514 122.42C360.504 122.42 361.201 123.125 361.201 124.122C361.201 124.257 361.179 124.437 361.179 124.437H358.434C358.471 125.142 358.921 125.57 359.581 125.57C360.249 125.57 360.676 125.21 360.759 125.157L361.059 125.57ZM360.519 123.957C360.511 123.56 360.211 122.937 359.491 122.937C358.779 122.937 358.464 123.53 358.441 123.957H360.519Z" fill="#3C3E3E"/>
<path d="M353.873 120.875H354.586V123.05H354.601C354.788 122.697 355.178 122.42 355.696 122.42C356.723 122.42 356.971 123.08 356.971 123.927V126.05H356.251V124.032C356.251 123.522 356.168 123.012 355.516 123.012C354.863 123.012 354.586 123.575 354.586 124.287V126.05H353.873V120.875Z" fill="#3C3E3E"/>
<path d="M353.24 126.012C353.053 126.095 352.835 126.132 352.587 126.132C352.212 126.132 351.98 125.99 351.83 125.765C351.68 125.54 351.65 125.262 351.65 124.7V123.072H351.125V122.495H351.65V121.43H352.37V122.495H353.225V123.072H352.37V124.685C352.37 124.985 352.37 125.195 352.46 125.337C352.52 125.457 352.625 125.517 352.828 125.517C353.038 125.517 353.195 125.435 353.195 125.435L353.24 126.012Z" fill="#3C3E3E"/>
<path d="M345.575 122.487H346.265V123.05C346.58 122.63 347.023 122.42 347.548 122.42C348.598 122.42 349.265 123.207 349.265 124.265C349.265 125.322 348.59 126.132 347.533 126.132C346.97 126.132 346.558 125.892 346.303 125.495L346.295 126.215V127.445H345.575V122.487ZM347.398 125.517C348.11 125.517 348.53 124.97 348.53 124.257C348.53 123.545 348.11 123.005 347.398 123.005C346.685 123.005 346.265 123.545 346.265 124.257C346.265 124.97 346.685 125.517 347.398 125.517Z" fill="#3C3E3E"/>
<path d="M344.687 125.57C344.642 125.607 344.185 126.132 343.12 126.132C342.062 126.132 341.335 125.397 341.335 124.265C341.335 123.14 342.152 122.42 343.142 122.42C344.132 122.42 344.83 123.125 344.83 124.122C344.83 124.257 344.807 124.437 344.807 124.437H342.062C342.1 125.142 342.55 125.57 343.21 125.57C343.877 125.57 344.305 125.21 344.387 125.157L344.687 125.57ZM344.147 123.957C344.14 123.56 343.84 122.937 343.12 122.937C342.407 122.937 342.092 123.53 342.07 123.957H344.147Z" fill="#3C3E3E"/>
<path d="M340.682 125.57C340.637 125.607 340.179 126.132 339.114 126.132C338.057 126.132 337.329 125.397 337.329 124.265C337.329 123.14 338.147 122.42 339.137 122.42C340.127 122.42 340.824 123.125 340.824 124.122C340.824 124.257 340.802 124.437 340.802 124.437H338.057C338.094 125.142 338.544 125.57 339.204 125.57C339.872 125.57 340.299 125.21 340.382 125.157L340.682 125.57ZM340.142 123.957C340.134 123.56 339.834 122.937 339.114 122.937C338.402 122.937 338.087 123.53 338.064 123.957H340.142Z" fill="#3C3E3E"/>
<path d="M333.952 120.875H334.665V123.912L336.12 122.487H336.96L335.565 123.83L337.14 126.05H336.3L335.077 124.325L334.665 124.715V126.05H333.952V120.875Z" fill="#3C3E3E"/>
<path d="M330.653 125.255H331.388L330.698 127.1H330.128L330.653 125.255Z" fill="#3C3E3E"/>
<path d="M325.873 122.487H326.563V123.05C326.878 122.63 327.321 122.42 327.846 122.42C328.896 122.42 329.563 123.207 329.563 124.265C329.563 125.322 328.888 126.132 327.831 126.132C327.268 126.132 326.856 125.892 326.601 125.495L326.593 126.215V127.445H325.873V122.487ZM327.696 125.517C328.408 125.517 328.828 124.97 328.828 124.257C328.828 123.545 328.408 123.005 327.696 123.005C326.983 123.005 326.563 123.545 326.563 124.257C326.563 124.97 326.983 125.517 327.696 125.517Z" fill="#3C3E3E"/>
<path d="M324.986 125.57C324.941 125.607 324.484 126.132 323.419 126.132C322.361 126.132 321.634 125.397 321.634 124.265C321.634 123.14 322.451 122.42 323.441 122.42C324.431 122.42 325.129 123.125 325.129 124.122C325.129 124.257 325.106 124.437 325.106 124.437H322.361C322.399 125.142 322.849 125.57 323.509 125.57C324.176 125.57 324.604 125.21 324.686 125.157L324.986 125.57ZM324.446 123.957C324.439 123.56 324.139 122.937 323.419 122.937C322.706 122.937 322.391 123.53 322.369 123.957H324.446Z" fill="#3C3E3E"/>
<path d="M321.276 126.012C321.089 126.094 320.871 126.132 320.624 126.132C320.249 126.132 320.016 125.989 319.866 125.764C319.716 125.539 319.686 125.262 319.686 124.699V123.072H319.161V122.494H319.686V121.429H320.406V122.494H321.261V123.072H320.406V124.684C320.406 124.984 320.406 125.194 320.496 125.337C320.556 125.457 320.661 125.517 320.864 125.517C321.074 125.517 321.231 125.434 321.231 125.434L321.276 126.012Z" fill="#3C3E3E"/>
<path d="M316.439 125.075V125.082C316.739 125.397 317.159 125.592 317.489 125.592C317.819 125.592 318.171 125.472 318.171 125.082C318.171 124.73 317.751 124.617 317.369 124.49L317.211 124.437C316.731 124.28 316.319 124.017 316.319 123.447C316.319 122.787 316.889 122.427 317.519 122.427C318.149 122.427 318.509 122.652 318.734 122.892L318.434 123.335C318.224 123.117 317.879 122.952 317.534 122.952C317.189 122.952 316.964 123.102 316.964 123.395C316.964 123.687 317.309 123.815 317.661 123.927L318.141 124.1C318.539 124.265 318.839 124.542 318.839 125.007C318.839 125.78 318.201 126.132 317.481 126.132C316.881 126.132 316.394 125.885 316.094 125.495L316.439 125.075Z" fill="#3C3E3E"/>
<path d="M451.285 116.542V116.549C451.585 116.864 452.005 117.059 452.335 117.059C452.665 117.059 453.018 116.939 453.018 116.549C453.018 116.197 452.598 116.084 452.215 115.957L452.058 115.904C451.578 115.747 451.165 115.484 451.165 114.914C451.165 114.254 451.735 113.894 452.365 113.894C452.995 113.894 453.355 114.119 453.58 114.359L453.28 114.802C453.07 114.584 452.725 114.419 452.38 114.419C452.035 114.419 451.81 114.569 451.81 114.862C451.81 115.154 452.155 115.282 452.508 115.394L452.988 115.567C453.385 115.732 453.685 116.009 453.685 116.474C453.685 117.247 453.048 117.599 452.328 117.599C451.728 117.599 451.24 117.352 450.94 116.962L451.285 116.542Z" fill="#3C3E3E"/>
<path d="M449.431 112.784C449.431 112.529 449.626 112.341 449.903 112.341C450.173 112.341 450.368 112.529 450.368 112.784C450.368 113.039 450.173 113.226 449.903 113.226C449.626 113.226 449.431 113.039 449.431 112.784ZM449.543 113.954H450.263V117.516H449.543V113.954Z" fill="#3C3E3E"/>
<path d="M445.441 112.341H446.154V114.516H446.169C446.356 114.164 446.746 113.886 447.264 113.886C448.291 113.886 448.539 114.546 448.539 115.394V117.516H447.819V115.499C447.819 114.989 447.736 114.479 447.084 114.479C446.431 114.479 446.154 115.041 446.154 115.754V117.516H445.441V112.341Z" fill="#3C3E3E"/>
<path d="M444.807 117.479C444.62 117.561 444.402 117.599 444.155 117.599C443.78 117.599 443.547 117.456 443.397 117.231C443.247 117.006 443.217 116.729 443.217 116.166V114.539H442.692V113.961H443.217V112.896H443.937V113.961H444.792V114.539H443.937V116.151C443.937 116.451 443.937 116.661 444.027 116.804C444.087 116.924 444.192 116.984 444.395 116.984C444.605 116.984 444.762 116.901 444.762 116.901L444.807 117.479Z" fill="#3C3E3E"/>
<path d="M440.585 116.766C440.585 117.554 440.457 117.989 440.195 118.304C439.932 118.626 439.49 118.986 438.605 118.986C437.727 118.986 437.12 118.529 437.015 118.454L437.352 117.951C437.54 118.116 438.095 118.401 438.627 118.401C439.16 118.401 439.46 118.191 439.602 118.011C439.745 117.839 439.872 117.501 439.872 117.014V116.819C439.617 117.194 439.212 117.471 438.605 117.471C437.697 117.471 436.895 116.804 436.895 115.716C436.895 114.531 437.697 113.886 438.612 113.886C439.19 113.886 439.61 114.141 439.857 114.509H439.872V113.954H440.585V116.766ZM438.762 116.886C439.475 116.886 439.895 116.354 439.895 115.694C439.895 114.981 439.475 114.464 438.762 114.464C438.05 114.464 437.63 114.989 437.63 115.694C437.63 116.354 438.05 116.886 438.762 116.886Z" fill="#3C3E3E"/>
<path d="M433.077 113.954H433.797L433.79 114.561C433.985 114.141 434.442 113.886 434.9 113.886C435.912 113.886 436.175 114.554 436.175 115.409V117.516H435.455V115.529C435.455 114.929 435.35 114.479 434.712 114.479C434.045 114.479 433.797 115.041 433.797 115.724V117.516H433.077V113.954Z" fill="#3C3E3E"/>
<path d="M431.223 112.784C431.223 112.529 431.418 112.341 431.695 112.341C431.965 112.341 432.16 112.529 432.16 112.784C432.16 113.039 431.965 113.226 431.695 113.226C431.418 113.226 431.223 113.039 431.223 112.784ZM431.335 113.954H432.055V117.516H431.335V113.954Z" fill="#3C3E3E"/>
<path d="M430.708 117.479C430.52 117.561 430.303 117.599 430.055 117.599C429.68 117.599 429.448 117.456 429.298 117.231C429.148 117.006 429.118 116.729 429.118 116.166V114.539H428.593V113.961H429.118V112.896H429.838V113.961H430.693V114.539H429.838V116.151C429.838 116.451 429.838 116.661 429.928 116.804C429.988 116.924 430.093 116.984 430.295 116.984C430.505 116.984 430.663 116.901 430.663 116.901L430.708 117.479Z" fill="#3C3E3E"/>
<path d="M428.118 117.036C428.073 117.074 427.616 117.599 426.551 117.599C425.493 117.599 424.766 116.864 424.766 115.731C424.766 114.606 425.583 113.886 426.573 113.886C427.563 113.886 428.261 114.591 428.261 115.589C428.261 115.724 428.238 115.904 428.238 115.904H425.493C425.531 116.609 425.981 117.036 426.641 117.036C427.308 117.036 427.736 116.676 427.818 116.624L428.118 117.036ZM427.578 115.424C427.571 115.026 427.271 114.404 426.551 114.404C425.838 114.404 425.523 114.996 425.501 115.424H427.578Z" fill="#3C3E3E"/>
<path d="M423.264 112.341H423.976V117.516H423.264V112.341Z" fill="#3C3E3E"/>
<path d="M418.788 113.954H419.478V114.516C419.793 114.096 420.236 113.886 420.761 113.886C421.811 113.886 422.478 114.674 422.478 115.731C422.478 116.789 421.803 117.599 420.746 117.599C420.183 117.599 419.771 117.359 419.516 116.961L419.508 117.681V118.911H418.788V113.954ZM420.611 116.984C421.323 116.984 421.743 116.436 421.743 115.724C421.743 115.011 421.323 114.471 420.611 114.471C419.898 114.471 419.478 115.011 419.478 115.724C419.478 116.436 419.898 116.984 420.611 116.984Z" fill="#3C3E3E"/>
<path d="M412.636 113.954H413.356L413.348 114.516H413.371C413.536 114.186 413.926 113.886 414.398 113.886C414.923 113.886 415.291 114.126 415.456 114.591C415.696 114.141 416.086 113.886 416.588 113.886C417.541 113.886 417.796 114.584 417.796 115.356V117.516H417.083V115.439C417.083 115.026 417.008 114.479 416.431 114.479C415.861 114.479 415.576 115.026 415.576 115.664V117.516H414.856V115.439C414.856 114.914 414.728 114.479 414.211 114.479C413.641 114.479 413.356 115.026 413.356 115.664V117.516H412.636V113.954Z" fill="#3C3E3E"/>
<path d="M408.11 115.746C408.11 114.644 408.935 113.886 410 113.886C411.058 113.886 411.883 114.644 411.883 115.746C411.883 116.856 411.058 117.599 410 117.599C408.935 117.599 408.11 116.856 408.11 115.746ZM410 116.984C410.713 116.984 411.155 116.429 411.155 115.724C411.155 115.026 410.713 114.471 410 114.471C409.28 114.471 408.838 115.026 408.838 115.724C408.838 116.429 409.28 116.984 410 116.984Z" fill="#3C3E3E"/>
<path d="M407.776 117.059C407.776 117.059 407.371 117.599 406.351 117.599C405.391 117.599 404.551 116.879 404.551 115.739C404.551 114.591 405.428 113.886 406.373 113.886C407.326 113.886 407.716 114.351 407.753 114.396L407.498 114.921C407.378 114.801 407.063 114.486 406.433 114.486C405.803 114.486 405.278 114.966 405.278 115.716C405.278 116.466 405.743 116.984 406.433 116.984C407.131 116.984 407.521 116.534 407.521 116.534L407.776 117.059Z" fill="#3C3E3E"/>
<path d="M398.859 112.341H399.572V114.134C399.572 114.231 399.564 114.419 399.564 114.546C399.827 114.104 400.292 113.886 400.832 113.886C401.874 113.886 402.549 114.681 402.549 115.731C402.549 116.789 401.874 117.599 400.817 117.599C400.299 117.599 399.857 117.389 399.564 116.954H399.549V117.516H398.859V112.341ZM400.682 116.984C401.394 116.984 401.814 116.436 401.814 115.724C401.814 115.011 401.394 114.471 400.682 114.471C399.969 114.471 399.542 115.011 399.542 115.724C399.542 116.436 399.969 116.984 400.682 116.984Z" fill="#3C3E3E"/>
<path d="M394.297 115.746C394.297 114.644 395.122 113.886 396.187 113.886C397.244 113.886 398.069 114.644 398.069 115.746C398.069 116.856 397.244 117.599 396.187 117.599C395.122 117.599 394.297 116.856 394.297 115.746ZM396.187 116.984C396.899 116.984 397.342 116.429 397.342 115.724C397.342 115.026 396.899 114.471 396.187 114.471C395.467 114.471 395.024 115.026 395.024 115.724C395.024 116.429 395.467 116.984 396.187 116.984Z" fill="#3C3E3E"/>
<path d="M392.682 112.784C392.682 112.529 392.877 112.341 393.154 112.341C393.424 112.341 393.619 112.529 393.619 112.784C393.619 113.039 393.424 113.226 393.154 113.226C392.877 113.226 392.682 113.039 392.682 112.784ZM391.947 118.356C391.947 118.356 392.097 118.409 392.284 118.409C392.749 118.409 392.794 117.996 392.794 117.501V113.954H393.514V117.524C393.514 117.936 393.454 118.311 393.252 118.589C393.117 118.776 392.854 118.986 392.389 118.986C392.097 118.986 391.939 118.926 391.939 118.926L391.947 118.356Z" fill="#3C3E3E"/>
<path d="M390.675 117.479C390.487 117.561 390.27 117.599 390.022 117.599C389.647 117.599 389.415 117.456 389.265 117.231C389.115 117.006 389.085 116.729 389.085 116.166V114.539H388.56V113.961H389.085V112.896H389.805V113.961H390.66V114.539H389.805V116.151C389.805 116.451 389.805 116.661 389.895 116.804C389.955 116.924 390.06 116.984 390.262 116.984C390.472 116.984 390.63 116.901 390.63 116.901L390.675 117.479Z" fill="#3C3E3E"/>
<path d="M387.313 117.066C387.17 117.216 386.833 117.599 386.18 117.599C385.52 117.599 384.95 117.186 384.95 116.496C384.95 115.799 385.52 115.446 386.345 115.409L387.298 115.371V115.229C387.298 114.689 386.93 114.419 386.413 114.419C385.895 114.419 385.46 114.651 385.34 114.726L385.123 114.246C385.385 114.096 385.865 113.886 386.458 113.886C387.05 113.886 387.395 114.051 387.635 114.291C387.875 114.539 388.018 114.839 388.018 115.446V117.516H387.32L387.313 117.066ZM386.473 115.859C385.895 115.889 385.663 116.136 385.663 116.474C385.663 116.811 385.925 117.089 386.398 117.089C386.863 117.089 387.17 116.774 387.305 116.571V115.806L386.473 115.859Z" fill="#3C3E3E"/>
<path d="M384.319 117.036C384.274 117.074 383.817 117.599 382.752 117.599C381.694 117.599 380.967 116.864 380.967 115.731C380.967 114.606 381.784 113.886 382.774 113.886C383.764 113.886 384.462 114.591 384.462 115.589C384.462 115.724 384.439 115.904 384.439 115.904H381.694C381.732 116.609 382.182 117.036 382.842 117.036C383.509 117.036 383.937 116.676 384.019 116.624L384.319 117.036ZM383.779 115.424C383.772 115.026 383.472 114.404 382.752 114.404C382.039 114.404 381.724 114.996 381.702 115.424H383.779Z" fill="#3C3E3E"/>
<path d="M378.73 113.954H379.45L379.443 114.501H379.465C379.638 114.096 379.96 113.886 380.343 113.886C380.583 113.886 380.718 113.946 380.718 113.946L380.673 114.614H380.643C380.575 114.584 380.448 114.539 380.253 114.539C379.938 114.539 379.743 114.741 379.668 114.839C379.6 114.936 379.45 115.214 379.45 115.739V117.516H378.73V113.954Z" fill="#3C3E3E"/>
<path d="M375.649 114.756H377.749V116.766C377.651 116.864 377.021 117.606 375.551 117.606C374.074 117.606 372.911 116.541 372.911 114.929C372.911 113.316 374.074 112.266 375.544 112.266C376.871 112.266 377.441 112.964 377.636 113.166L377.141 113.624C376.834 113.264 376.354 112.889 375.544 112.889C374.479 112.889 373.661 113.654 373.661 114.929C373.661 116.204 374.509 116.969 375.589 116.969C376.661 116.969 377.044 116.496 377.044 116.496V115.349H375.649V114.756Z" fill="#3C3E3E"/>
<path d="M369.513 117.126C369.513 116.834 369.723 116.654 370.015 116.654C370.3 116.654 370.51 116.834 370.51 117.126C370.51 117.411 370.3 117.591 370.015 117.591C369.723 117.591 369.513 117.411 369.513 117.126Z" fill="#3C3E3E"/>
<path d="M365.308 112.341H366.02V114.516H366.035C366.223 114.164 366.613 113.886 367.13 113.886C368.158 113.886 368.405 114.546 368.405 115.394V117.516H367.685V115.499C367.685 114.989 367.603 114.479 366.95 114.479C366.298 114.479 366.02 115.041 366.02 115.754V117.516H365.308V112.341Z" fill="#3C3E3E"/>
<path d="M364.274 116.766C364.274 117.554 364.146 117.989 363.884 118.304C363.621 118.626 363.179 118.986 362.294 118.986C361.416 118.986 360.809 118.529 360.704 118.454L361.041 117.951C361.229 118.116 361.784 118.401 362.316 118.401C362.849 118.401 363.149 118.191 363.291 118.011C363.434 117.839 363.561 117.501 363.561 117.014V116.819C363.306 117.194 362.901 117.471 362.294 117.471C361.386 117.471 360.584 116.804 360.584 115.716C360.584 114.531 361.386 113.886 362.301 113.886C362.879 113.886 363.299 114.141 363.546 114.509H363.561V113.954H364.274V116.766ZM362.451 116.886C363.164 116.886 363.584 116.354 363.584 115.694C363.584 114.981 363.164 114.464 362.451 114.464C361.739 114.464 361.319 114.989 361.319 115.694C361.319 116.354 361.739 116.886 362.451 116.886Z" fill="#3C3E3E"/>
<path d="M359.127 117.006C358.932 117.351 358.527 117.599 358.025 117.599C357.515 117.599 357.222 117.426 357.035 117.186C356.855 116.946 356.772 116.594 356.772 116.084V113.946H357.485V116.054C357.485 116.541 357.59 116.999 358.227 116.999C358.857 116.999 359.112 116.459 359.112 115.859V113.946H359.832V117.516H359.135L359.127 117.006Z" fill="#3C3E3E"/>
<path d="M352.277 115.746C352.277 114.644 353.102 113.886 354.167 113.886C355.225 113.886 356.05 114.644 356.05 115.746C356.05 116.856 355.225 117.599 354.167 117.599C353.102 117.599 352.277 116.856 352.277 115.746ZM354.167 116.984C354.88 116.984 355.322 116.429 355.322 115.724C355.322 115.026 354.88 114.471 354.167 114.471C353.447 114.471 353.005 115.026 353.005 115.724C353.005 116.429 353.447 116.984 354.167 116.984Z" fill="#3C3E3E"/>
<path d="M351.922 117.479C351.734 117.561 351.517 117.599 351.269 117.599C350.894 117.599 350.662 117.456 350.512 117.231C350.362 117.006 350.332 116.729 350.332 116.166V114.539H349.807V113.961H350.332V112.896H351.052V113.961H351.907V114.539H351.052V116.151C351.052 116.451 351.052 116.661 351.142 116.804C351.202 116.924 351.307 116.984 351.509 116.984C351.719 116.984 351.877 116.901 351.877 116.901L351.922 117.479Z" fill="#3C3E3E"/>
<path d="M347.838 117.036C347.793 117.074 347.335 117.599 346.27 117.599C345.213 117.599 344.485 116.864 344.485 115.731C344.485 114.606 345.303 113.886 346.293 113.886C347.283 113.886 347.98 114.591 347.98 115.589C347.98 115.724 347.958 115.904 347.958 115.904H345.213C345.25 116.609 345.7 117.036 346.36 117.036C347.028 117.036 347.455 116.676 347.538 116.624L347.838 117.036ZM347.298 115.424C347.29 115.026 346.99 114.404 346.27 114.404C345.558 114.404 345.243 114.996 345.22 115.424H347.298Z" fill="#3C3E3E"/>
<path d="M340.287 112.342H341V114.134C341 114.232 340.992 114.419 340.992 114.547C341.255 114.104 341.72 113.887 342.26 113.887C343.302 113.887 343.977 114.682 343.977 115.732C343.977 116.789 343.302 117.599 342.245 117.599C341.727 117.599 341.285 117.389 340.992 116.954H340.977V117.517H340.287V112.342ZM342.11 116.984C342.822 116.984 343.242 116.437 343.242 115.724C343.242 115.012 342.822 114.472 342.11 114.472C341.397 114.472 340.97 115.012 340.97 115.724C340.97 116.437 341.397 116.984 342.11 116.984Z" fill="#3C3E3E"/>
<path d="M334.698 113.954H335.418L335.411 114.561C335.606 114.141 336.063 113.886 336.521 113.886C337.533 113.886 337.796 114.554 337.796 115.409V117.516H337.076V115.529C337.076 114.929 336.971 114.479 336.333 114.479C335.666 114.479 335.418 115.041 335.418 115.724V117.516H334.698V113.954Z" fill="#3C3E3E"/>
<path d="M333.07 117.066C332.927 117.216 332.59 117.599 331.937 117.599C331.277 117.599 330.707 117.186 330.707 116.496C330.707 115.799 331.277 115.446 332.102 115.409L333.055 115.371V115.229C333.055 114.689 332.687 114.419 332.17 114.419C331.652 114.419 331.217 114.651 331.097 114.726L330.88 114.246C331.142 114.096 331.622 113.886 332.215 113.886C332.807 113.886 333.152 114.051 333.392 114.291C333.632 114.539 333.775 114.839 333.775 115.446V117.516H333.077L333.07 117.066ZM332.23 115.859C331.652 115.889 331.42 116.136 331.42 116.474C331.42 116.811 331.682 117.089 332.155 117.089C332.62 117.089 332.927 116.774 333.062 116.571V115.806L332.23 115.859Z" fill="#3C3E3E"/>
<path d="M330.286 117.059C330.286 117.059 329.881 117.599 328.861 117.599C327.901 117.599 327.061 116.879 327.061 115.739C327.061 114.591 327.938 113.886 328.883 113.886C329.836 113.886 330.226 114.351 330.263 114.396L330.008 114.921C329.888 114.801 329.573 114.486 328.943 114.486C328.313 114.486 327.788 114.966 327.788 115.716C327.788 116.466 328.253 116.984 328.943 116.984C329.641 116.984 330.031 116.534 330.031 116.534L330.286 117.059Z" fill="#3C3E3E"/>
<path d="M322.701 116.542V116.549C323.001 116.864 323.421 117.059 323.751 117.059C324.081 117.059 324.434 116.939 324.434 116.549C324.434 116.197 324.014 116.084 323.631 115.957L323.474 115.904C322.994 115.747 322.581 115.484 322.581 114.914C322.581 114.254 323.151 113.894 323.781 113.894C324.411 113.894 324.771 114.119 324.996 114.359L324.696 114.802C324.486 114.584 324.141 114.419 323.796 114.419C323.451 114.419 323.226 114.569 323.226 114.862C323.226 115.154 323.571 115.282 323.924 115.394L324.404 115.567C324.801 115.732 325.101 116.009 325.101 116.474C325.101 117.247 324.464 117.599 323.744 117.599C323.144 117.599 322.656 117.352 322.356 116.962L322.701 116.542Z" fill="#3C3E3E"/>
<path d="M322.105 117.479C321.918 117.561 321.7 117.599 321.453 117.599C321.078 117.599 320.845 117.456 320.695 117.231C320.545 117.006 320.515 116.729 320.515 116.166V114.539H319.99V113.961H320.515V112.896H321.235V113.961H322.09V114.539H321.235V116.151C321.235 116.451 321.235 116.661 321.325 116.804C321.385 116.924 321.49 116.984 321.693 116.984C321.903 116.984 322.06 116.901 322.06 116.901L322.105 117.479Z" fill="#3C3E3E"/>
<path d="M315.935 112.342H316.647V114.134C316.647 114.232 316.64 114.419 316.64 114.547C316.902 114.104 317.367 113.887 317.907 113.887C318.95 113.887 319.625 114.682 319.625 115.732C319.625 116.789 318.95 117.599 317.892 117.599C317.375 117.599 316.932 117.389 316.64 116.954H316.625V117.517H315.935V112.342ZM317.757 116.984C318.47 116.984 318.89 116.437 318.89 115.724C318.89 115.012 318.47 114.472 317.757 114.472C317.045 114.472 316.617 115.012 316.617 115.724C316.617 116.437 317.045 116.984 317.757 116.984Z" fill="#3C3E3E"/>
<path d="M315.04 117.036C314.995 117.074 314.538 117.599 313.473 117.599C312.415 117.599 311.688 116.864 311.688 115.731C311.688 114.606 312.505 113.886 313.495 113.886C314.485 113.886 315.183 114.591 315.183 115.589C315.183 115.724 315.16 115.904 315.16 115.904H312.415C312.453 116.609 312.903 117.036 313.563 117.036C314.23 117.036 314.658 116.676 314.74 116.624L315.04 117.036ZM314.5 115.424C314.493 115.026 314.193 114.404 313.473 114.404C312.76 114.404 312.445 114.996 312.423 115.424H314.5Z" fill="#3C3E3E"/>
<path d="M310.213 117.516V116.946C309.92 117.381 309.463 117.599 308.945 117.599C307.888 117.599 307.213 116.789 307.213 115.731C307.213 114.681 307.888 113.886 308.93 113.886C309.508 113.886 309.928 114.141 310.175 114.509H310.19V112.341H310.903V117.516H310.213ZM309.08 116.984C309.793 116.984 310.213 116.436 310.213 115.724C310.213 115.011 309.793 114.471 309.08 114.471C308.368 114.471 307.948 115.011 307.948 115.724C307.948 116.436 308.368 116.984 309.08 116.984Z" fill="#3C3E3E"/>
<path d="M304.962 116.766C304.962 117.554 304.835 117.989 304.572 118.304C304.31 118.626 303.867 118.986 302.982 118.986C302.105 118.986 301.497 118.529 301.392 118.454L301.73 117.951C301.917 118.116 302.472 118.401 303.005 118.401C303.537 118.401 303.837 118.191 303.98 118.011C304.122 117.839 304.25 117.501 304.25 117.014V116.819C303.995 117.194 303.59 117.471 302.982 117.471C302.075 117.471 301.272 116.804 301.272 115.716C301.272 114.531 302.075 113.886 302.99 113.886C303.567 113.886 303.987 114.141 304.235 114.509H304.25V113.954H304.962V116.766ZM303.14 116.886C303.852 116.886 304.272 116.354 304.272 115.694C304.272 114.981 303.852 114.464 303.14 114.464C302.427 114.464 302.007 114.989 302.007 115.694C302.007 116.354 302.427 116.886 303.14 116.886Z" fill="#3C3E3E"/>
<path d="M297.455 113.954H298.175L298.168 114.561C298.363 114.141 298.82 113.886 299.278 113.886C300.29 113.886 300.553 114.554 300.553 115.409V117.516H299.833V115.529C299.833 114.929 299.728 114.479 299.09 114.479C298.423 114.479 298.175 115.041 298.175 115.724V117.516H297.455V113.954Z" fill="#3C3E3E"/>
<path d="M295.599 112.784C295.599 112.529 295.794 112.341 296.071 112.341C296.341 112.341 296.536 112.529 296.536 112.784C296.536 113.039 296.341 113.226 296.071 113.226C295.794 113.226 295.599 113.039 295.599 112.784ZM295.711 113.954H296.431V117.516H295.711V113.954Z" fill="#3C3E3E"/>
<path d="M295.086 117.479C294.898 117.561 294.681 117.599 294.433 117.599C294.058 117.599 293.826 117.456 293.676 117.231C293.526 117.006 293.496 116.729 293.496 116.166V114.539H292.971V113.961H293.496V112.896H294.216V113.961H295.071V114.539H294.216V116.151C294.216 116.451 294.216 116.661 294.306 116.804C294.366 116.924 294.471 116.984 294.673 116.984C294.883 116.984 295.041 116.901 295.041 116.901L295.086 117.479Z" fill="#3C3E3E"/>
<path d="M290.247 116.541V116.549C290.547 116.864 290.967 117.059 291.297 117.059C291.627 117.059 291.98 116.939 291.98 116.549C291.98 116.196 291.56 116.084 291.177 115.956L291.02 115.904C290.54 115.746 290.127 115.484 290.127 114.914C290.127 114.254 290.697 113.894 291.327 113.894C291.957 113.894 292.317 114.119 292.542 114.359L292.242 114.801C292.032 114.584 291.687 114.419 291.342 114.419C290.997 114.419 290.772 114.569 290.772 114.861C290.772 115.154 291.117 115.281 291.47 115.394L291.95 115.566C292.347 115.731 292.647 116.009 292.647 116.474C292.647 117.246 292.01 117.599 291.29 117.599C290.69 117.599 290.202 117.351 289.902 116.961L290.247 116.541Z" fill="#3C3E3E"/>
<path d="M288.393 112.784C288.393 112.529 288.588 112.341 288.865 112.341C289.135 112.341 289.33 112.529 289.33 112.784C289.33 113.039 289.135 113.226 288.865 113.226C288.588 113.226 288.393 113.039 288.393 112.784ZM288.505 113.954H289.225V117.516H288.505V113.954Z" fill="#3C3E3E"/>
<path d="M285.32 112.341H286.048V116.901H287.87V117.516H285.32V112.341Z" fill="#3C3E3E"/>
<g clip-path="url(#clip6_6290_205156)">
<rect width="17.3583" height="6.50937" transform="translate(312.004 135.02)" fill="#BED73C"/>
</g>
<path d="M315.259 135.291H326.108C327.755 135.291 329.091 136.626 329.091 138.274C329.091 139.922 327.755 141.258 326.108 141.258H315.259C313.611 141.258 312.275 139.922 312.275 138.274C312.275 136.626 313.611 135.291 315.259 135.291Z" stroke="#004357" stroke-width="0.542447"/>
<g clip-path="url(#clip7_6290_205156)">
<rect width="17.3583" height="6.50937" transform="translate(331.532 135.02)" fill="#BED73C"/>
</g>
<path d="M334.787 135.291H345.636C347.284 135.291 348.619 136.626 348.619 138.274C348.619 139.922 347.284 141.258 345.636 141.258H334.787C333.139 141.258 331.803 139.922 331.803 138.274C331.803 136.626 333.139 135.291 334.787 135.291Z" stroke="#004357" stroke-width="0.542447"/>
<g clip-path="url(#clip8_6290_205156)">
<rect width="17.3583" height="6.50937" transform="translate(351.061 135.02)" fill="#BED73C"/>
</g>
<path d="M354.315 135.291H365.164C366.812 135.291 368.148 136.626 368.148 138.274C368.148 139.922 366.812 141.258 365.164 141.258H354.315C352.668 141.258 351.332 139.922 351.332 138.274C351.332 136.626 352.668 135.291 354.315 135.291Z" stroke="#004357" stroke-width="0.542447"/>
<g clip-path="url(#clip9_6290_205156)">
<rect width="17.3583" height="6.50937" transform="translate(370.588 135.02)" fill="#BED73C"/>
</g>
<path d="M373.843 135.291H384.692C386.339 135.291 387.675 136.626 387.675 138.274C387.675 139.922 386.339 141.258 384.692 141.258H373.843C372.195 141.258 370.859 139.922 370.859 138.274C370.859 136.626 372.195 135.291 373.843 135.291Z" stroke="#004357" stroke-width="0.542447"/>
<g clip-path="url(#clip10_6290_205156)">
<rect width="6.50937" height="6.50937" transform="translate(390.116 135.02)" fill="#BED73C"/>
</g>
<path d="M393.371 135.291H404.22C405.868 135.291 407.203 136.626 407.203 138.274C407.203 139.922 405.868 141.258 404.22 141.258H393.371C391.723 141.258 390.387 139.922 390.387 138.274C390.387 136.626 391.723 135.291 393.371 135.291Z" stroke="#004357" stroke-width="0.542447"/>
<path d="M412.899 135.291H423.748C425.396 135.291 426.732 136.626 426.732 138.274C426.732 139.922 425.396 141.258 423.748 141.258H412.899C411.251 141.258 409.916 139.922 409.916 138.274C409.916 136.626 411.251 135.291 412.899 135.291Z" stroke="#004357" stroke-width="0.542447"/>
</g>
<defs>
<clipPath id="clip0_6290_205156">
<path d="M53.4941 68.4491C53.4941 67.0187 54.6537 65.8591 56.0841 65.8591H218.404C219.835 65.8591 220.994 67.0187 220.994 68.4491V86.3942C220.994 87.8246 219.835 88.9841 218.404 88.9841H56.0841C54.6537 88.9841 53.4941 87.8246 53.4941 86.3942V68.4491Z" fill="white"/>
</clipPath>
<clipPath id="clip1_6290_205156">
<path d="M57.2441 91.5741C57.2441 90.1437 58.4037 88.9841 59.8341 88.9841H222.154C223.585 88.9841 224.744 90.1437 224.744 91.5741V110.144C224.744 111.575 223.585 112.734 222.154 112.734H59.8341C58.4037 112.734 57.2441 111.575 57.2441 110.144V91.5741Z" fill="white"/>
</clipPath>
<clipPath id="clip2_6290_205156">
<path d="M53.4941 115.324C53.4941 113.894 54.6537 112.734 56.0841 112.734H218.404C219.835 112.734 220.994 113.894 220.994 115.324V133.269C220.994 134.7 219.835 135.859 218.404 135.859H56.0841C54.6537 135.859 53.4941 134.7 53.4941 133.269V115.324Z" fill="white"/>
</clipPath>
<clipPath id="clip3_6290_205156">
<path d="M57.2441 138.449C57.2441 137.019 58.4037 135.859 59.8341 135.859H222.154C223.585 135.859 224.744 137.019 224.744 138.449V157.019C224.744 158.45 223.585 159.609 222.154 159.609H59.8341C58.4037 159.609 57.2441 158.45 57.2441 157.019V138.449Z" fill="white"/>
</clipPath>
<clipPath id="clip4_6290_205156">
<rect width="35" height="35" fill="white" transform="translate(178.26 154.167)"/>
</clipPath>
<clipPath id="clip5_6290_205156">
<path d="M277.315 97.4097C277.315 95.7544 278.657 94.4126 280.313 94.4126H458.693C460.349 94.4126 461.69 95.7545 461.69 97.4097V146.032C461.69 147.687 460.349 149.029 458.693 149.029H280.313C278.657 149.029 277.315 147.687 277.315 146.032V97.4097Z" fill="white"/>
</clipPath>
<clipPath id="clip6_6290_205156">
<path d="M312.004 138.274C312.004 136.477 313.461 135.02 315.259 135.02H326.108C327.905 135.02 329.362 136.477 329.362 138.274V138.274C329.362 140.072 327.905 141.529 326.108 141.529H315.259C313.461 141.529 312.004 140.072 312.004 138.274V138.274Z" fill="white"/>
</clipPath>
<clipPath id="clip7_6290_205156">
<path d="M331.532 138.274C331.532 136.477 332.989 135.02 334.787 135.02H345.636C347.433 135.02 348.891 136.477 348.891 138.274V138.274C348.891 140.072 347.433 141.529 345.636 141.529H334.787C332.989 141.529 331.532 140.072 331.532 138.274V138.274Z" fill="white"/>
</clipPath>
<clipPath id="clip8_6290_205156">
<path d="M351.061 138.274C351.061 136.477 352.518 135.02 354.315 135.02H365.164C366.962 135.02 368.419 136.477 368.419 138.274V138.274C368.419 140.072 366.962 141.529 365.164 141.529H354.315C352.518 141.529 351.061 140.072 351.061 138.274V138.274Z" fill="white"/>
</clipPath>
<clipPath id="clip9_6290_205156">
<path d="M370.588 138.274C370.588 136.477 372.045 135.02 373.843 135.02H384.692C386.489 135.02 387.946 136.477 387.946 138.274V138.274C387.946 140.072 386.489 141.529 384.692 141.529H373.843C372.045 141.529 370.588 140.072 370.588 138.274V138.274Z" fill="white"/>
</clipPath>
<clipPath id="clip10_6290_205156">
<path d="M390.116 138.274C390.116 136.477 391.573 135.02 393.371 135.02H404.22C406.017 135.02 407.475 136.477 407.475 138.274V138.274C407.475 140.072 406.017 141.529 404.22 141.529H393.371C391.573 141.529 390.116 140.072 390.116 138.274V138.274Z" fill="white"/>
</clipPath>
</defs>
</svg>
