<svg width="720" height="284" viewBox="0 0 720 284" fill="none" xmlns="http://www.w3.org/2000/svg">
<g opacity="0.4">
<g clip-path="url(#clip0_6290_204848)">
<path d="M60.1807 76.5414C60.1807 74.9322 61.4852 73.6277 63.0943 73.6277H245.705C247.314 73.6277 248.618 74.9322 248.618 76.5414V96.7296C248.618 98.3388 247.314 99.6433 245.704 99.6433H63.0943C61.4852 99.6433 60.1807 98.3388 60.1807 96.7296V76.5414Z" fill="white"/>
<path d="M60.1807 76.5411C60.1807 74.9319 61.4852 73.6274 63.0943 73.6274H245.705C247.314 73.6274 248.618 74.9319 248.618 76.5411V96.7294C248.618 98.3386 247.314 99.6431 245.704 99.6431H63.0943C61.4852 99.6431 60.1807 98.3386 60.1807 96.7294V76.5411Z" fill="white" stroke="#004357" stroke-width="0.527344"/>
<path d="M166.617 85.2414H167.832L167.823 85.9913C168.098 85.4028 168.63 85.156 169.228 85.156C170.547 85.156 170.879 86.0103 170.879 87.1114V89.8357H169.664V87.3772C169.664 86.6937 169.541 86.1527 168.838 86.1527C168.088 86.1527 167.832 86.7792 167.832 87.548V89.8357H166.617V85.2414Z" fill="#3C3E3E"/>
<path d="M160.799 87.5575C160.799 86.1052 161.881 85.156 163.295 85.156C164.7 85.156 165.782 86.1052 165.782 87.5575C165.782 89.0098 164.7 89.9401 163.295 89.9401C161.881 89.9401 160.799 89.0098 160.799 87.5575ZM163.295 88.9339C164.074 88.9339 164.529 88.3169 164.529 87.5291C164.529 86.7412 164.074 86.1337 163.295 86.1337C162.498 86.1337 162.061 86.7412 162.061 87.5291C162.061 88.3169 162.498 88.9339 163.295 88.9339Z" fill="#3C3E3E"/>
<path d="M158.588 83.8365C158.588 83.4474 158.892 83.1626 159.319 83.1626C159.746 83.1626 160.05 83.4474 160.05 83.8365C160.05 84.2352 159.746 84.5105 159.319 84.5105C158.892 84.5105 158.588 84.2352 158.588 83.8365ZM158.711 85.2414H159.926V89.8356H158.711V85.2414Z" fill="#3C3E3E"/>
<path d="M157.971 89.7881C157.914 89.8071 157.553 89.94 157.041 89.94C156.585 89.94 156.253 89.8451 156.044 89.6078C155.807 89.3515 155.712 88.9433 155.712 88.3168V86.1906H155.028V85.2508H155.712V83.9409H156.917V85.2508H157.98V86.1906H156.917V88.051C156.917 88.4212 156.946 88.6396 157.041 88.7724C157.117 88.8863 157.259 88.9243 157.468 88.9243C157.715 88.9243 157.904 88.8484 157.904 88.8484L157.971 89.7881Z" fill="#3C3E3E"/>
<path d="M153.275 89.3041C153.086 89.6363 152.554 89.9401 151.871 89.9401C150.978 89.9401 150.257 89.456 150.257 88.4973C150.257 87.5385 151.197 87.1683 152.146 87.1019L153.247 87.026V86.9026C153.247 86.3141 152.858 86.0388 152.222 86.0388C151.614 86.0388 151.111 86.2666 150.912 86.4185L150.542 85.6401C150.893 85.4313 151.538 85.156 152.336 85.156C153.152 85.156 153.617 85.3648 153.959 85.6876C154.291 86.0103 154.462 86.428 154.462 87.2063V89.8357H153.294L153.275 89.3041ZM152.431 87.8138C151.785 87.8518 151.472 88.0701 151.472 88.4593C151.472 88.8485 151.766 89.1142 152.269 89.1142C152.744 89.1142 153.095 88.839 153.256 88.6112V87.7664L152.431 87.8138Z" fill="#3C3E3E"/>
<path d="M142.59 85.2414H143.805L143.795 85.9344H143.824C144.033 85.5072 144.593 85.156 145.191 85.156C145.855 85.156 146.254 85.4218 146.472 86.0293C146.795 85.4692 147.317 85.156 147.981 85.156C149.187 85.156 149.519 86.0103 149.519 87.0639V89.8357H148.304V87.2633C148.304 86.7032 148.181 86.1527 147.583 86.1527C146.975 86.1527 146.662 86.6748 146.662 87.4626V89.8357H145.447V87.2538C145.447 86.6273 145.286 86.1527 144.707 86.1527C144.08 86.1527 143.805 86.7412 143.805 87.4626V89.8357H142.59V85.2414Z" fill="#3C3E3E"/>
<path d="M139.16 85.2414H140.366L140.347 85.9818H140.375C140.556 85.4882 141.011 85.156 141.505 85.156C141.818 85.156 141.989 85.2414 141.989 85.2414L141.903 86.2951H141.846C141.714 86.2571 141.505 86.2381 141.343 86.2381C140.983 86.2381 140.698 86.39 140.537 86.6842C140.413 86.9121 140.366 87.2253 140.366 87.5765V89.8357H139.16V85.2414Z" fill="#3C3E3E"/>
<path d="M133.342 87.5575C133.342 86.1052 134.424 85.156 135.838 85.156C137.243 85.156 138.325 86.1052 138.325 87.5575C138.325 89.0098 137.243 89.9401 135.838 89.9401C134.424 89.9401 133.342 89.0098 133.342 87.5575ZM135.838 88.9339C136.617 88.9339 137.072 88.3169 137.072 87.5291C137.072 86.7412 136.617 86.1337 135.838 86.1337C135.041 86.1337 134.604 86.7412 134.604 87.5291C134.604 88.3169 135.041 88.9339 135.838 88.9339Z" fill="#3C3E3E"/>
<path d="M130.98 86.1906H130.354V85.2509H130.98V84.8997C130.98 84.3397 131.132 83.884 131.369 83.6277C131.606 83.3525 131.986 83.1721 132.518 83.1721C133.078 83.1721 133.419 83.267 133.419 83.267L133.344 84.1403C133.344 84.1403 133.078 84.0644 132.821 84.0644C132.299 84.0644 132.176 84.4156 132.176 84.8522V85.2509H133.23V86.1906H132.195V89.8356H130.98V86.1906Z" fill="#3C3E3E"/>
<path d="M125.432 85.2414H126.647L126.637 85.9913C126.912 85.4028 127.444 85.156 128.042 85.156C129.361 85.156 129.694 86.0103 129.694 87.1114V89.8357H128.479V87.3772C128.479 86.6937 128.355 86.1527 127.653 86.1527C126.903 86.1527 126.647 86.7792 126.647 87.548V89.8357H125.432V85.2414Z" fill="#3C3E3E"/>
<path d="M122.937 83.8365C122.937 83.4474 123.24 83.1626 123.667 83.1626C124.095 83.1626 124.398 83.4474 124.398 83.8365C124.398 84.2352 124.095 84.5105 123.667 84.5105C123.24 84.5105 122.937 84.2352 122.937 83.8365ZM123.06 85.2414H124.275V89.8356H123.06V85.2414Z" fill="#3C3E3E"/>
<path d="M118.769 83.2859H119.974V89.8355H118.769V83.2859Z" fill="#3C3E3E"/>
<path d="M116.494 89.3041C116.304 89.6363 115.773 89.9401 115.089 89.9401C114.197 89.9401 113.476 89.456 113.476 88.4973C113.476 87.5385 114.415 87.1683 115.365 87.1019L116.466 87.026V86.9026C116.466 86.3141 116.076 86.0388 115.44 86.0388C114.833 86.0388 114.33 86.2666 114.131 86.4185L113.76 85.6401C114.112 85.4313 114.757 85.156 115.554 85.156C116.371 85.156 116.836 85.3648 117.178 85.6876C117.51 86.0103 117.681 86.428 117.681 87.2063V89.8357H116.513L116.494 89.3041ZM115.649 87.8138C115.004 87.8518 114.691 88.0701 114.691 88.4593C114.691 88.8485 114.985 89.1142 115.488 89.1142C115.963 89.1142 116.314 88.839 116.475 88.6112V87.7664L115.649 87.8138Z" fill="#3C3E3E"/>
<path d="M108.468 85.2414H109.683L109.673 85.9913C109.949 85.4028 110.48 85.156 111.078 85.156C112.398 85.156 112.73 86.0103 112.73 87.1114V89.8357H111.515V87.3772C111.515 86.6937 111.391 86.1527 110.689 86.1527C109.939 86.1527 109.683 86.7792 109.683 87.548V89.8357H108.468V85.2414Z" fill="#3C3E3E"/>
<path d="M102.649 87.5575C102.649 86.1052 103.732 85.156 105.146 85.156C106.551 85.156 107.633 86.1052 107.633 87.5575C107.633 89.0098 106.551 89.9401 105.146 89.9401C103.732 89.9401 102.649 89.0098 102.649 87.5575ZM105.146 88.9339C105.924 88.9339 106.38 88.3169 106.38 87.5291C106.38 86.7412 105.924 86.1337 105.146 86.1337C104.349 86.1337 103.912 86.7412 103.912 87.5291C103.912 88.3169 104.349 88.9339 105.146 88.9339Z" fill="#3C3E3E"/>
<path d="M98.9887 88.4023C99.5298 88.82 99.9949 89.0288 100.384 89.0288C100.84 89.0288 101.049 88.858 101.049 88.5922C101.049 88.3549 100.868 88.222 100.28 88.0226L99.7481 87.8423C99.0646 87.6145 98.7134 87.2063 98.7134 86.5324C98.7134 85.6971 99.4728 85.156 100.356 85.156C101.172 85.156 101.628 85.3743 102.007 85.6496L101.485 86.4564C101.219 86.2571 100.83 86.0673 100.413 86.0673C100.014 86.0673 99.8145 86.2191 99.8145 86.4375C99.8145 86.6368 99.9664 86.7982 100.479 86.9595L100.802 87.0639C101.817 87.3962 102.178 87.7569 102.178 88.4213C102.178 89.2946 101.485 89.9401 100.356 89.9401C99.6532 89.9401 98.8653 89.6553 98.4951 89.2282L98.9887 88.4023Z" fill="#3C3E3E"/>
<path d="M95.4072 85.2414H96.6127L96.5937 85.9818H96.6222C96.8026 85.4882 97.2582 85.156 97.7518 85.156C98.065 85.156 98.2359 85.2414 98.2359 85.2414L98.1505 86.2951H98.0935C97.9606 86.2571 97.7518 86.2381 97.5904 86.2381C97.2297 86.2381 96.945 86.39 96.7836 86.6842C96.6602 86.9121 96.6127 87.2253 96.6127 87.5765V89.8357H95.4072V85.2414Z" fill="#3C3E3E"/>
<path d="M94.4295 89.1997C94.1732 89.4655 93.4803 89.9401 92.3602 89.9401C90.9744 89.9401 89.9492 89.0953 89.9492 87.6145C89.9492 86.1432 91.0218 85.156 92.3318 85.156C93.7461 85.156 94.6004 86.0862 94.6004 87.3107C94.6004 87.548 94.5814 87.9277 94.5814 87.9277H91.2022C91.3161 88.6586 91.8761 89.0098 92.5691 89.0098C93.1861 89.0098 93.7366 88.7346 93.9549 88.5447L94.4295 89.1997ZM93.3854 87.1399C93.3664 86.6368 93.1766 86.0578 92.3223 86.0578C91.6009 86.0578 91.2212 86.5608 91.1832 87.1399H93.3854Z" fill="#3C3E3E"/>
<path d="M87.1903 83.2859C87.8452 83.2859 88.4148 83.4188 88.8324 83.77C89.2596 84.1212 89.5159 84.5863 89.5159 85.2508C89.5159 85.9152 89.2596 86.3898 88.8324 86.741C88.4148 87.0923 87.8452 87.2536 87.1903 87.2536H86.3265V89.8355H85.083V83.2859H87.1903ZM87.0384 86.2854C87.4181 86.2854 87.6744 86.1905 87.8832 86.0386C88.092 85.8867 88.2439 85.621 88.2439 85.2508C88.2439 84.8901 88.0636 84.6243 87.8547 84.4724C87.6459 84.3205 87.3896 84.2541 87.0099 84.2541H86.317V86.2854H87.0384Z" fill="#3C3E3E"/>
<path d="M222.854 78.989H254.758C258.981 78.989 262.405 82.4125 262.405 86.6355C262.405 90.8585 258.981 94.282 254.758 94.282H222.854C218.63 94.282 215.207 90.8585 215.207 86.6355C215.207 82.4125 218.63 78.989 222.854 78.989Z" stroke="#BDBDBD" stroke-width="0.527344"/>
<path d="M237.276 89.1309C237.188 89.153 236.863 89.249 236.435 89.249C236.014 89.249 235.733 89.1235 235.549 88.9094C235.364 88.6953 235.29 88.3926 235.29 87.8389V86.4288H234.773V85.5354H235.29V84.5461H236.479V85.5354H237.284V86.4288H236.479V87.7355C236.479 88.0456 236.523 88.1194 236.582 88.1859C236.634 88.2449 236.708 88.2745 236.863 88.2745C237.047 88.2745 237.217 88.208 237.217 88.208L237.276 89.1309Z" fill="#7C7C7C"/>
<path d="M232.259 85.5281H233.44L233.433 86.0449H233.447C233.654 85.6462 233.957 85.4617 234.348 85.4617C234.592 85.4617 234.717 85.5281 234.717 85.5281L234.651 86.6134H234.599C234.533 86.5765 234.378 86.5248 234.171 86.5248C233.905 86.5248 233.713 86.6725 233.625 86.7906C233.536 86.9087 233.44 87.145 233.44 87.551V89.1678H232.259V85.5281Z" fill="#7C7C7C"/>
<path d="M230.375 88.7839C230.22 88.939 229.925 89.2491 229.334 89.2491C228.692 89.2491 228.013 88.9021 228.013 88.09C228.013 87.2778 228.758 87.0047 229.43 86.9751L230.346 86.9382V86.857C230.346 86.4731 230.072 86.2738 229.6 86.2738C229.135 86.2738 228.67 86.4805 228.485 86.5986L228.175 85.8308C228.485 85.6758 229.054 85.4617 229.733 85.4617C230.412 85.4617 230.803 85.6167 231.091 85.8825C231.372 86.1483 231.527 86.5026 231.527 87.1154V89.1678H230.397L230.375 88.7839ZM229.77 87.6027C229.408 87.6175 229.194 87.7725 229.194 88.0457C229.194 88.3262 229.423 88.496 229.748 88.496C230.065 88.496 230.279 88.2893 230.353 88.1638V87.5658L229.77 87.6027Z" fill="#7C7C7C"/>
<path d="M227.781 89.1309C227.692 89.153 227.368 89.249 226.939 89.249C226.519 89.249 226.238 89.1235 226.054 88.9094C225.869 88.6953 225.795 88.3926 225.795 87.8389V86.4288H225.278V85.5354H225.795V84.5461H226.984V85.5354H227.788V86.4288H226.984V87.7355C226.984 88.0456 227.028 88.1194 227.087 88.1859C227.139 88.2449 227.213 88.2745 227.368 88.2745C227.552 88.2745 227.722 88.208 227.722 88.208L227.781 89.1309Z" fill="#7C7C7C"/>
<path d="M221.862 87.6175C222.231 88.0014 222.8 88.2598 223.191 88.2598C223.575 88.2598 223.87 88.0752 223.87 87.7356C223.87 87.3886 223.486 87.2631 223.272 87.1745L222.563 86.9087C221.921 86.6725 221.493 86.2886 221.493 85.5355C221.493 84.4871 222.431 84.0146 223.368 84.0146C223.959 84.0146 224.638 84.2952 224.985 84.6422L224.476 85.4764C224.18 85.1811 223.723 84.9596 223.339 84.9596C222.955 84.9596 222.674 85.1073 222.674 85.4174C222.674 85.7275 222.947 85.8456 223.191 85.9342L223.951 86.2221C224.594 86.4657 225.059 86.8792 225.059 87.6175C225.059 88.7249 224.062 89.2564 223.08 89.2564C222.342 89.2564 221.685 88.8725 221.271 88.4886L221.862 87.6175Z" fill="#7C7C7C"/>
<path d="M243.297 83.823L242.801 84.3187L244.763 86.2839H240.484V86.9871H244.763L242.801 88.9523L243.297 89.448L246.109 86.6355L243.297 83.823Z" fill="#004357"/>
<path d="M69.1455 85.5808C68.5654 85.5808 68.0908 86.0554 68.0908 86.6355C68.0908 87.2156 68.5654 87.6902 69.1455 87.6902C69.7256 87.6902 70.2002 87.2156 70.2002 86.6355C70.2002 86.0554 69.7256 85.5808 69.1455 85.5808ZM75.4736 85.5808C74.8936 85.5808 74.4189 86.0554 74.4189 86.6355C74.4189 87.2156 74.8936 87.6902 75.4736 87.6902C76.0537 87.6902 76.5283 87.2156 76.5283 86.6355C76.5283 86.0554 76.0537 85.5808 75.4736 85.5808ZM72.3096 85.5808C71.7295 85.5808 71.2549 86.0554 71.2549 86.6355C71.2549 87.2156 71.7295 87.6902 72.3096 87.6902C72.8896 87.6902 73.3643 87.2156 73.3643 86.6355C73.3643 86.0554 72.8896 85.5808 72.3096 85.5808Z" fill="#3C3E3E"/>
</g>
<path d="M60.1807 76.5414C60.1807 74.9322 61.4852 73.6277 63.0943 73.6277H245.705C247.314 73.6277 248.618 74.9322 248.618 76.5414V96.7296C248.618 98.3388 247.314 99.6433 245.704 99.6433H63.0943C61.4852 99.6433 60.1807 98.3388 60.1807 96.7296V76.5414Z" stroke="#004357" stroke-width="0.527344"/>
</g>
<g clip-path="url(#clip1_6290_204848)">
<path d="M64.3994 102.557C64.3994 100.948 65.7039 99.6433 67.3131 99.6433H249.923C251.532 99.6433 252.837 100.948 252.837 102.557V123.448C252.837 125.058 251.532 126.362 249.923 126.362H67.3131C65.7039 126.362 64.3994 125.058 64.3994 123.448V102.557Z" fill="#F3F4F6"/>
<path d="M64.1807 102.941C64.1807 101.332 65.4852 100.028 67.0943 100.028H249.705C251.314 100.028 252.618 101.332 252.618 102.941V123.13C252.618 124.739 251.314 126.043 249.704 126.043H67.0943C65.4852 126.043 64.1807 124.739 64.1807 123.13V102.941Z" fill="white" stroke="#004357" stroke-width="0.527344"/>
<path d="M119.377 115.567C119.121 115.832 118.428 116.307 117.307 116.307C115.922 116.307 114.896 115.462 114.896 113.981C114.896 112.51 115.969 111.523 117.279 111.523C118.693 111.523 119.548 112.453 119.548 113.678C119.548 113.915 119.529 114.295 119.529 114.295H116.149C116.263 115.026 116.823 115.377 117.516 115.377C118.133 115.377 118.684 115.102 118.902 114.912L119.377 115.567ZM118.333 113.507C118.314 113.004 118.124 112.425 117.27 112.425C116.548 112.425 116.168 112.928 116.13 113.507H118.333Z" fill="#3C3E3E"/>
<path d="M107.182 111.609H108.397L108.387 112.302H108.416C108.624 111.874 109.184 111.523 109.782 111.523C110.447 111.523 110.846 111.789 111.064 112.396C111.387 111.836 111.909 111.523 112.573 111.523C113.779 111.523 114.111 112.377 114.111 113.431V116.203H112.896V113.63C112.896 113.07 112.773 112.52 112.175 112.52C111.567 112.52 111.254 113.042 111.254 113.83V116.203H110.039V113.621C110.039 112.994 109.877 112.52 109.298 112.52C108.672 112.52 108.397 113.108 108.397 113.83V116.203H107.182V111.609Z" fill="#3C3E3E"/>
<path d="M101.363 113.925C101.363 112.472 102.445 111.523 103.86 111.523C105.265 111.523 106.347 112.472 106.347 113.925C106.347 115.377 105.265 116.307 103.86 116.307C102.445 116.307 101.363 115.377 101.363 113.925ZM103.86 115.301C104.638 115.301 105.094 114.684 105.094 113.896C105.094 113.108 104.638 112.501 103.86 112.501C103.062 112.501 102.626 113.108 102.626 113.896C102.626 114.684 103.062 115.301 103.86 115.301Z" fill="#3C3E3E"/>
<path d="M100.998 115.69C100.903 115.775 100.428 116.307 99.204 116.307C97.951 116.307 96.793 115.443 96.793 113.943C96.793 112.434 97.989 111.523 99.223 111.523C100.381 111.523 100.837 111.988 100.96 112.111L100.628 113.023C100.485 112.89 100.077 112.539 99.3654 112.539C98.6439 112.539 98.0649 113.042 98.0649 113.887C98.0649 114.731 98.6439 115.282 99.4318 115.282C100.22 115.282 100.656 114.798 100.656 114.798L100.998 115.69Z" fill="#3C3E3E"/>
<path d="M91.7578 111.608H92.9728L92.9633 112.358C93.2386 111.77 93.7702 111.523 94.3682 111.523C95.6876 111.523 96.0198 112.377 96.0198 113.478V116.203H94.8048V113.744C94.8048 113.061 94.6814 112.52 93.979 112.52C93.2291 112.52 92.9728 113.146 92.9728 113.915V116.203H91.7578V111.608Z" fill="#3C3E3E"/>
<path d="M89.3125 109.653H90.5465V116.203H89.3125V109.653Z" fill="#3C3E3E"/>
<path d="M227.072 105.356H258.977C263.2 105.356 266.623 108.78 266.623 113.003C266.623 117.226 263.2 120.649 258.977 120.649H227.072C222.849 120.649 219.426 117.226 219.426 113.003C219.426 108.78 222.849 105.356 227.072 105.356Z" stroke="#BDBDBD" stroke-width="0.527344"/>
<path d="M241.495 115.498C241.406 115.52 241.082 115.616 240.653 115.616C240.233 115.616 239.952 115.491 239.767 115.277C239.583 115.062 239.509 114.76 239.509 114.206V112.796H238.992V111.903H239.509V110.913H240.698V111.903H241.502V112.796H240.698V114.103C240.698 114.413 240.742 114.487 240.801 114.553C240.853 114.612 240.926 114.642 241.082 114.642C241.266 114.642 241.436 114.575 241.436 114.575L241.495 115.498Z" fill="#7C7C7C"/>
<path d="M236.478 111.895H237.659L237.651 112.412H237.666C237.873 112.013 238.176 111.829 238.567 111.829C238.811 111.829 238.936 111.895 238.936 111.895L238.87 112.981H238.818C238.751 112.944 238.596 112.892 238.39 112.892C238.124 112.892 237.932 113.04 237.843 113.158C237.755 113.276 237.659 113.512 237.659 113.918V115.535H236.478V111.895Z" fill="#7C7C7C"/>
<path d="M234.594 115.151C234.439 115.306 234.144 115.616 233.553 115.616C232.911 115.616 232.231 115.269 232.231 114.457C232.231 113.645 232.977 113.372 233.649 113.342L234.564 113.305V113.224C234.564 112.84 234.291 112.641 233.819 112.641C233.354 112.641 232.889 112.848 232.704 112.966L232.394 112.198C232.704 112.043 233.272 111.829 233.952 111.829C234.631 111.829 235.022 111.984 235.31 112.25C235.591 112.515 235.746 112.87 235.746 113.483V115.535H234.616L234.594 115.151ZM233.989 113.97C233.627 113.985 233.413 114.14 233.413 114.413C233.413 114.693 233.642 114.863 233.966 114.863C234.284 114.863 234.498 114.656 234.572 114.531V113.933L233.989 113.97Z" fill="#7C7C7C"/>
<path d="M232 115.498C231.911 115.52 231.586 115.616 231.158 115.616C230.737 115.616 230.457 115.491 230.272 115.277C230.088 115.062 230.014 114.76 230.014 114.206V112.796H229.497V111.903H230.014V110.913H231.202V111.903H232.007V112.796H231.202V114.103C231.202 114.413 231.247 114.487 231.306 114.553C231.358 114.612 231.431 114.642 231.586 114.642C231.771 114.642 231.941 114.575 231.941 114.575L232 115.498Z" fill="#7C7C7C"/>
<path d="M226.081 113.985C226.45 114.369 227.018 114.627 227.41 114.627C227.794 114.627 228.089 114.442 228.089 114.103C228.089 113.756 227.705 113.63 227.491 113.542L226.782 113.276C226.14 113.04 225.712 112.656 225.712 111.903C225.712 110.854 226.649 110.382 227.587 110.382C228.178 110.382 228.857 110.662 229.204 111.009L228.694 111.844C228.399 111.548 227.941 111.327 227.557 111.327C227.174 111.327 226.893 111.474 226.893 111.785C226.893 112.095 227.166 112.213 227.41 112.301L228.17 112.589C228.812 112.833 229.278 113.246 229.278 113.985C229.278 115.092 228.281 115.624 227.299 115.624C226.561 115.624 225.904 115.24 225.49 114.856L226.081 113.985Z" fill="#7C7C7C"/>
<path d="M247.516 110.19L247.02 110.686L248.982 112.651H244.703V113.354H248.982L247.02 115.319L247.516 115.815L250.328 113.003L247.516 110.19Z" fill="#004357"/>
<path d="M73.3643 111.948C72.7842 111.948 72.3096 112.423 72.3096 113.003C72.3096 113.583 72.7842 114.057 73.3643 114.057C73.9443 114.057 74.4189 113.583 74.4189 113.003C74.4189 112.423 73.9443 111.948 73.3643 111.948ZM79.6924 111.948C79.1123 111.948 78.6377 112.423 78.6377 113.003C78.6377 113.583 79.1123 114.057 79.6924 114.057C80.2725 114.057 80.7471 113.583 80.7471 113.003C80.7471 112.423 80.2725 111.948 79.6924 111.948ZM76.5283 111.948C75.9482 111.948 75.4736 112.423 75.4736 113.003C75.4736 113.583 75.9482 114.057 76.5283 114.057C77.1084 114.057 77.583 113.583 77.583 113.003C77.583 112.423 77.1084 111.948 76.5283 111.948Z" fill="white"/>
</g>
<path d="M64.3994 102.557C64.3994 100.948 65.7039 99.6433 67.3131 99.6433H249.923C251.532 99.6433 252.837 100.948 252.837 102.557V123.448C252.837 125.058 251.532 126.362 249.923 126.362H67.3131C65.7039 126.362 64.3994 125.058 64.3994 123.448V102.557Z" stroke="#004357" stroke-width="0.527344"/>
<g opacity="0.4">
<g clip-path="url(#clip2_6290_204848)">
<path d="M60.1807 129.276C60.1807 127.667 61.4852 126.362 63.0943 126.362H245.705C247.314 126.362 248.618 127.667 248.618 129.276V149.464C248.618 151.073 247.314 152.378 245.704 152.378H63.0943C61.4852 152.378 60.1807 151.073 60.1807 149.464V129.276Z" fill="white"/>
<path d="M60.1807 129.341C60.1807 127.732 61.4852 126.428 63.0943 126.428H245.705C247.314 126.428 248.618 127.732 248.618 129.341V149.53C248.618 151.139 247.314 152.443 245.704 152.443H63.0943C61.4852 152.443 60.1807 151.139 60.1807 149.53V129.341Z" fill="white" stroke="#004357" stroke-width="0.527344"/>
<path d="M120.876 141.136C121.417 141.554 121.883 141.763 122.272 141.763C122.727 141.763 122.936 141.592 122.936 141.326C122.936 141.089 122.756 140.956 122.167 140.757L121.636 140.576C120.952 140.349 120.601 139.94 120.601 139.267C120.601 138.431 121.361 137.89 122.243 137.89C123.06 137.89 123.515 138.108 123.895 138.384L123.373 139.191C123.107 138.991 122.718 138.801 122.3 138.801C121.902 138.801 121.702 138.953 121.702 139.172C121.702 139.371 121.854 139.532 122.367 139.694L122.689 139.798C123.705 140.13 124.066 140.491 124.066 141.155C124.066 142.029 123.373 142.674 122.243 142.674C121.541 142.674 120.753 142.389 120.383 141.962L120.876 141.136Z" fill="#3C3E3E"/>
<path d="M119.747 141.934C119.491 142.2 118.798 142.674 117.678 142.674C116.292 142.674 115.267 141.83 115.267 140.349C115.267 138.878 116.339 137.89 117.649 137.89C119.063 137.89 119.918 138.821 119.918 140.045C119.918 140.282 119.899 140.662 119.899 140.662H116.52C116.633 141.393 117.194 141.744 117.886 141.744C118.503 141.744 119.054 141.469 119.272 141.279L119.747 141.934ZM118.703 139.874C118.684 139.371 118.494 138.792 117.64 138.792C116.918 138.792 116.539 139.295 116.501 139.874H118.703Z" fill="#3C3E3E"/>
<path d="M111.624 141.137C112.166 141.554 112.631 141.763 113.02 141.763C113.475 141.763 113.684 141.592 113.684 141.327C113.684 141.089 113.504 140.956 112.915 140.757L112.384 140.577C111.7 140.349 111.349 139.941 111.349 139.267C111.349 138.431 112.109 137.89 112.991 137.89C113.808 137.89 114.263 138.109 114.643 138.384L114.121 139.191C113.855 138.991 113.466 138.802 113.048 138.802C112.65 138.802 112.45 138.954 112.45 139.172C112.45 139.371 112.602 139.533 113.115 139.694L113.437 139.798C114.453 140.131 114.814 140.491 114.814 141.156C114.814 142.029 114.121 142.674 112.991 142.674C112.289 142.674 111.501 142.39 111.131 141.963L111.624 141.137Z" fill="#3C3E3E"/>
<path d="M106.115 137.976H107.33L107.321 138.726C107.596 138.137 108.128 137.89 108.726 137.89C110.045 137.89 110.377 138.745 110.377 139.846V142.57H109.162V140.112C109.162 139.428 109.039 138.887 108.336 138.887C107.587 138.887 107.33 139.514 107.33 140.282V142.57H106.115V137.976Z" fill="#3C3E3E"/>
<path d="M105.138 141.934C104.881 142.2 104.188 142.674 103.068 142.674C101.682 142.674 100.657 141.829 100.657 140.349C100.657 138.877 101.73 137.89 103.04 137.89C104.454 137.89 105.308 138.82 105.308 140.045C105.308 140.282 105.289 140.662 105.289 140.662H101.91C102.024 141.393 102.584 141.744 103.277 141.744C103.894 141.744 104.445 141.469 104.663 141.279L105.138 141.934ZM104.093 139.874C104.074 139.371 103.885 138.792 103.03 138.792C102.309 138.792 101.929 139.295 101.891 139.874H104.093Z" fill="#3C3E3E"/>
<path d="M95.1768 137.976H96.4107L96.3918 138.65C96.762 138.099 97.3315 137.871 97.939 137.871C99.2869 137.871 100.113 138.915 100.113 140.282C100.113 141.583 99.2489 142.655 97.8536 142.655C97.1511 142.655 96.7525 142.409 96.3728 141.953C96.3823 142.238 96.3728 142.532 96.3728 142.817V144.307H95.1768V137.976ZM97.6352 141.725C98.4231 141.725 98.8787 141.051 98.8787 140.282C98.8787 139.485 98.3851 138.859 97.5973 138.859C96.8664 138.859 96.3538 139.419 96.3538 140.282C96.3538 141.051 96.8569 141.725 97.6352 141.725Z" fill="#3C3E3E"/>
<path d="M91.3389 140.159L89.7443 137.976H91.1301L92.0888 139.475L93.0475 137.976H94.4334L92.8387 140.168L94.6327 142.57H93.2374L92.0888 140.89L90.9403 142.57H89.5449L91.3389 140.159Z" fill="#3C3E3E"/>
<path d="M85.0938 136.02H89.1374V137.045H86.3277V138.669H88.9761V139.684H86.3277V141.545H89.2134V142.57H85.0938V136.02Z" fill="#3C3E3E"/>
<path d="M222.854 131.723H254.758C258.981 131.723 262.405 135.147 262.405 139.37C262.405 143.593 258.981 147.016 254.758 147.016H222.854C218.63 147.016 215.207 143.593 215.207 139.37C215.207 135.147 218.63 131.723 222.854 131.723Z" stroke="#BDBDBD" stroke-width="0.527344"/>
<path d="M237.276 141.865C237.188 141.887 236.863 141.983 236.435 141.983C236.014 141.983 235.733 141.858 235.549 141.644C235.364 141.43 235.29 141.127 235.29 140.573V139.163H234.773V138.27H235.29V137.281H236.479V138.27H237.284V139.163H236.479V140.47C236.479 140.78 236.523 140.854 236.582 140.92C236.634 140.979 236.708 141.009 236.863 141.009C237.047 141.009 237.217 140.942 237.217 140.942L237.276 141.865Z" fill="#7C7C7C"/>
<path d="M232.259 138.262H233.44L233.433 138.779H233.447C233.654 138.381 233.957 138.196 234.348 138.196C234.592 138.196 234.717 138.262 234.717 138.262L234.651 139.348H234.599C234.533 139.311 234.378 139.259 234.171 139.259C233.905 139.259 233.713 139.407 233.625 139.525C233.536 139.643 233.44 139.879 233.44 140.285V141.902H232.259V138.262Z" fill="#7C7C7C"/>
<path d="M230.375 141.518C230.22 141.673 229.925 141.983 229.334 141.983C228.692 141.983 228.013 141.636 228.013 140.824C228.013 140.012 228.758 139.739 229.43 139.71L230.346 139.673V139.591C230.346 139.207 230.072 139.008 229.6 139.008C229.135 139.008 228.67 139.215 228.485 139.333L228.175 138.565C228.485 138.41 229.054 138.196 229.733 138.196C230.412 138.196 230.803 138.351 231.091 138.617C231.372 138.883 231.527 139.237 231.527 139.85V141.902H230.397L230.375 141.518ZM229.77 140.337C229.408 140.352 229.194 140.507 229.194 140.78C229.194 141.061 229.423 141.23 229.748 141.23C230.065 141.23 230.279 141.024 230.353 140.898V140.3L229.77 140.337Z" fill="#7C7C7C"/>
<path d="M227.781 141.865C227.692 141.887 227.368 141.983 226.939 141.983C226.519 141.983 226.238 141.858 226.054 141.644C225.869 141.43 225.795 141.127 225.795 140.573V139.163H225.278V138.27H225.795V137.281H226.984V138.27H227.788V139.163H226.984V140.47C226.984 140.78 227.028 140.854 227.087 140.92C227.139 140.979 227.213 141.009 227.368 141.009C227.552 141.009 227.722 140.942 227.722 140.942L227.781 141.865Z" fill="#7C7C7C"/>
<path d="M221.862 140.352C222.231 140.736 222.8 140.994 223.191 140.994C223.575 140.994 223.87 140.81 223.87 140.47C223.87 140.123 223.486 139.997 223.272 139.909L222.563 139.643C221.921 139.407 221.493 139.023 221.493 138.27C221.493 137.222 222.431 136.749 223.368 136.749C223.959 136.749 224.638 137.03 224.985 137.377L224.476 138.211C224.18 137.916 223.723 137.694 223.339 137.694C222.955 137.694 222.674 137.842 222.674 138.152C222.674 138.462 222.947 138.58 223.191 138.669L223.951 138.956C224.594 139.2 225.059 139.614 225.059 140.352C225.059 141.459 224.062 141.991 223.08 141.991C222.342 141.991 221.685 141.607 221.271 141.223L221.862 140.352Z" fill="#7C7C7C"/>
<path d="M243.297 136.557L242.801 137.053L244.763 139.018H240.484V139.721H244.763L242.801 141.687L243.297 142.182L246.109 139.37L243.297 136.557Z" fill="#004357"/>
<path d="M69.1455 138.315C68.5654 138.315 68.0908 138.79 68.0908 139.37C68.0908 139.95 68.5654 140.425 69.1455 140.425C69.7256 140.425 70.2002 139.95 70.2002 139.37C70.2002 138.79 69.7256 138.315 69.1455 138.315ZM75.4736 138.315C74.8936 138.315 74.4189 138.79 74.4189 139.37C74.4189 139.95 74.8936 140.425 75.4736 140.425C76.0537 140.425 76.5283 139.95 76.5283 139.37C76.5283 138.79 76.0537 138.315 75.4736 138.315ZM72.3096 138.315C71.7295 138.315 71.2549 138.79 71.2549 139.37C71.2549 139.95 71.7295 140.425 72.3096 140.425C72.8896 140.425 73.3643 139.95 73.3643 139.37C73.3643 138.79 72.8896 138.315 72.3096 138.315Z" fill="#3C3E3E"/>
</g>
<path d="M60.1807 129.276C60.1807 127.667 61.4852 126.362 63.0943 126.362H245.705C247.314 126.362 248.618 127.667 248.618 129.276V149.464C248.618 151.073 247.314 152.378 245.704 152.378H63.0943C61.4852 152.378 60.1807 151.073 60.1807 149.464V129.276Z" stroke="#004357" stroke-width="0.527344"/>
</g>
<g opacity="0.4">
<g clip-path="url(#clip3_6290_204848)">
<path d="M64.3994 155.291C64.3994 153.682 65.7039 152.378 67.3131 152.378H249.923C251.532 152.378 252.837 153.682 252.837 155.291V176.183C252.837 177.792 251.532 179.096 249.923 179.096H67.3131C65.7039 179.096 64.3994 177.792 64.3994 176.183V155.291Z" fill="white"/>
<path d="M64.1807 154.941C64.1807 153.332 65.4852 152.028 67.0943 152.028H249.705C251.314 152.028 252.618 153.332 252.618 154.941V175.13C252.618 176.739 251.314 178.043 249.704 178.043H67.0943C65.4852 178.043 64.1807 176.739 64.1807 175.13V154.941Z" fill="white" stroke="#004357" stroke-width="0.527344"/>
<path d="M110.106 167.504C110.647 167.921 111.112 168.13 111.501 168.13C111.957 168.13 112.166 167.959 112.166 167.693C112.166 167.456 111.985 167.323 111.397 167.124L110.865 166.944C110.182 166.716 109.831 166.308 109.831 165.634C109.831 164.798 110.59 164.257 111.473 164.257C112.289 164.257 112.745 164.476 113.124 164.751L112.602 165.558C112.337 165.358 111.947 165.169 111.53 165.169C111.131 165.169 110.932 165.32 110.932 165.539C110.932 165.738 111.084 165.899 111.596 166.061L111.919 166.165C112.935 166.497 113.295 166.858 113.295 167.523C113.295 168.396 112.602 169.041 111.473 169.041C110.77 169.041 109.982 168.757 109.612 168.329L110.106 167.504Z" fill="#3C3E3E"/>
<path d="M109.251 168.89C109.194 168.909 108.834 169.042 108.321 169.042C107.865 169.042 107.533 168.947 107.324 168.709C107.087 168.453 106.992 168.045 106.992 167.418V165.292H106.309V164.352H106.992V163.042H108.198V164.352H109.261V165.292H108.198V167.153C108.198 167.523 108.226 167.741 108.321 167.874C108.397 167.988 108.539 168.026 108.748 168.026C108.995 168.026 109.185 167.95 109.185 167.95L109.251 168.89Z" fill="#3C3E3E"/>
<path d="M101.01 162.387H102.225V164.438C102.225 164.694 102.206 164.903 102.196 165.036C102.623 164.447 103.174 164.238 103.772 164.238C105.11 164.238 105.946 165.292 105.946 166.64C105.946 167.95 105.082 169.022 103.687 169.022C103.041 169.022 102.519 168.795 102.158 168.273L102.13 168.937H101.01V162.387ZM103.468 168.092C104.256 168.092 104.712 167.418 104.712 166.649C104.712 165.852 104.218 165.226 103.43 165.226C102.699 165.226 102.187 165.786 102.187 166.649C102.187 167.418 102.69 168.092 103.468 168.092Z" fill="#3C3E3E"/>
<path d="M99.9852 168.301C99.7289 168.567 99.036 169.041 97.9159 169.041C96.53 169.041 95.5049 168.197 95.5049 166.716C95.5049 165.245 96.5775 164.257 97.8874 164.257C99.3018 164.257 100.156 165.188 100.156 166.412C100.156 166.649 100.137 167.029 100.137 167.029H96.7579C96.8718 167.76 97.4318 168.111 98.1247 168.111C98.7417 168.111 99.2923 167.836 99.5106 167.646L99.9852 168.301ZM98.9411 166.241C98.9221 165.738 98.7322 165.159 97.8779 165.159C97.1565 165.159 96.7768 165.662 96.7389 166.241H98.9411Z" fill="#3C3E3E"/>
<path d="M91.4103 162.387C92.5493 162.387 93.3941 162.758 93.8972 163.213C94.4098 163.659 94.9414 164.409 94.9414 165.653C94.9414 166.906 94.4098 167.675 93.8972 168.121C93.3941 168.567 92.5493 168.937 91.4103 168.937H89.3125V162.387H91.4103ZM91.4577 167.893C92.1696 167.893 92.6917 167.656 93.0145 167.352C93.3277 167.048 93.6694 166.545 93.6694 165.662C93.6694 164.789 93.3277 164.257 93.0145 163.954C92.6917 163.659 92.1696 163.422 91.4577 163.422H90.5465V167.893H91.4577Z" fill="#3C3E3E"/>
<path d="M227.072 158.091H258.977C263.2 158.091 266.623 161.514 266.623 165.737C266.623 169.96 263.2 173.384 258.977 173.384H227.072C222.849 173.384 219.426 169.96 219.426 165.737C219.426 161.514 222.849 158.091 227.072 158.091Z" stroke="#BDBDBD" stroke-width="0.527344"/>
<path d="M241.495 168.232C241.406 168.255 241.082 168.351 240.653 168.351C240.233 168.351 239.952 168.225 239.767 168.011C239.583 167.797 239.509 167.494 239.509 166.94V165.53H238.992V164.637H239.509V163.648H240.698V164.637H241.502V165.53H240.698V166.837C240.698 167.147 240.742 167.221 240.801 167.287C240.853 167.346 240.926 167.376 241.082 167.376C241.266 167.376 241.436 167.31 241.436 167.31L241.495 168.232Z" fill="#7C7C7C"/>
<path d="M236.478 164.63H237.659L237.651 165.146H237.666C237.873 164.748 238.176 164.563 238.567 164.563C238.811 164.563 238.936 164.63 238.936 164.63L238.87 165.715H238.818C238.751 165.678 238.596 165.626 238.39 165.626C238.124 165.626 237.932 165.774 237.843 165.892C237.755 166.01 237.659 166.247 237.659 166.653V168.269H236.478V164.63Z" fill="#7C7C7C"/>
<path d="M234.594 167.885C234.439 168.041 234.144 168.351 233.553 168.351C232.911 168.351 232.231 168.004 232.231 167.192C232.231 166.379 232.977 166.106 233.649 166.077L234.564 166.04V165.959C234.564 165.575 234.291 165.375 233.819 165.375C233.354 165.375 232.889 165.582 232.704 165.7L232.394 164.932C232.704 164.777 233.272 164.563 233.952 164.563C234.631 164.563 235.022 164.718 235.31 164.984C235.591 165.25 235.746 165.604 235.746 166.217V168.269H234.616L234.594 167.885ZM233.989 166.704C233.627 166.719 233.413 166.874 233.413 167.147C233.413 167.428 233.642 167.598 233.966 167.598C234.284 167.598 234.498 167.391 234.572 167.265V166.667L233.989 166.704Z" fill="#7C7C7C"/>
<path d="M232 168.232C231.911 168.255 231.586 168.351 231.158 168.351C230.737 168.351 230.457 168.225 230.272 168.011C230.088 167.797 230.014 167.494 230.014 166.94V165.53H229.497V164.637H230.014V163.648H231.202V164.637H232.007V165.53H231.202V166.837C231.202 167.147 231.247 167.221 231.306 167.287C231.358 167.346 231.431 167.376 231.586 167.376C231.771 167.376 231.941 167.31 231.941 167.31L232 168.232Z" fill="#7C7C7C"/>
<path d="M226.081 166.719C226.45 167.103 227.018 167.361 227.41 167.361C227.794 167.361 228.089 167.177 228.089 166.837C228.089 166.49 227.705 166.365 227.491 166.276L226.782 166.01C226.14 165.774 225.712 165.39 225.712 164.637C225.712 163.589 226.649 163.116 227.587 163.116C228.178 163.116 228.857 163.397 229.204 163.744L228.694 164.578C228.399 164.283 227.941 164.061 227.557 164.061C227.174 164.061 226.893 164.209 226.893 164.519C226.893 164.829 227.166 164.947 227.41 165.036L228.17 165.324C228.812 165.567 229.278 165.981 229.278 166.719C229.278 167.826 228.281 168.358 227.299 168.358C226.561 168.358 225.904 167.974 225.49 167.59L226.081 166.719Z" fill="#7C7C7C"/>
<path d="M247.516 162.925L247.02 163.42L248.982 165.385H244.703V166.089H248.982L247.02 168.054L247.516 168.55L250.328 165.737L247.516 162.925Z" fill="#004357"/>
<path d="M73.3643 164.682C72.7842 164.682 72.3096 165.157 72.3096 165.737C72.3096 166.317 72.7842 166.792 73.3643 166.792C73.9443 166.792 74.4189 166.317 74.4189 165.737C74.4189 165.157 73.9443 164.682 73.3643 164.682ZM79.6924 164.682C79.1123 164.682 78.6377 165.157 78.6377 165.737C78.6377 166.317 79.1123 166.792 79.6924 166.792C80.2725 166.792 80.7471 166.317 80.7471 165.737C80.7471 165.157 80.2725 164.682 79.6924 164.682ZM76.5283 164.682C75.9482 164.682 75.4736 165.157 75.4736 165.737C75.4736 166.317 75.9482 166.792 76.5283 166.792C77.1084 166.792 77.583 166.317 77.583 165.737C77.583 165.157 77.1084 164.682 76.5283 164.682Z" fill="#3C3E3E"/>
</g>
<path d="M64.3994 155.291C64.3994 153.682 65.7039 152.378 67.3131 152.378H249.923C251.532 152.378 252.837 153.682 252.837 155.291V176.183C252.837 177.792 251.532 179.096 249.923 179.096H67.3131C65.7039 179.096 64.3994 177.792 64.3994 176.183V155.291Z" stroke="#004357" stroke-width="0.527344"/>
</g>
<path d="M51.2153 109.292C51.4254 109.618 51.3311 110.054 51.0045 110.264L45.6832 113.688C45.3566 113.898 44.9215 113.804 44.7114 113.478C44.5012 113.151 44.5956 112.716 44.9221 112.506L49.6522 109.462L46.6081 104.732C46.398 104.405 46.4923 103.97 46.8189 103.76C47.1454 103.55 47.5805 103.644 47.7906 103.971L51.2153 109.292ZM25.1375 50.2118C17.1664 58.8291 14.5685 71.5587 18.4566 83.1151C22.3357 94.6445 32.6978 105.065 50.773 108.985L50.475 110.36C31.9703 106.347 21.1777 95.6127 17.1237 83.5635C13.0789 71.5413 15.7696 58.2683 24.1052 49.2569L25.1375 50.2118Z" fill="#004357"/>
<path d="M309.721 130.581L291.396 130.581C288.29 130.581 285.771 133.1 285.771 136.206L285.771 163.045" stroke="#BED73C" stroke-width="1.40625" stroke-linecap="round" stroke-linejoin="round" stroke-dasharray="2.81 2.81"/>
<path d="M190.225 203.68L178.306 203.68C175.199 203.68 172.681 201.161 172.681 198.055L172.681 182.586" stroke="#BED73C" stroke-width="1.40625" stroke-linecap="round" stroke-linejoin="round" stroke-dasharray="2.81 2.81"/>
<path d="M204.161 166.189H307.551C313.296 166.189 317.954 170.847 317.954 176.592V228.602C317.954 234.348 313.296 239.005 307.551 239.005H204.161C198.415 239.005 193.758 234.348 193.758 228.602V176.592C193.758 170.847 198.415 166.189 204.161 166.189Z" fill="white"/>
<path d="M204.161 166.189H307.551C313.296 166.189 317.954 170.847 317.954 176.592V228.602C317.954 234.348 313.296 239.005 307.551 239.005H204.161C198.415 239.005 193.758 234.348 193.758 228.602V176.592C193.758 170.847 198.415 166.189 204.161 166.189Z" stroke="#004357" stroke-width="0.904586"/>
<path d="M204.161 166.08H307.551C313.296 166.08 317.953 170.737 317.953 176.483V228.602C317.953 234.348 313.296 239.005 307.551 239.005H204.161C198.415 239.005 193.758 234.348 193.758 228.602V176.483C193.758 170.737 198.415 166.08 204.161 166.08Z" fill="white" stroke="#004357" stroke-width="0.904586"/>
<g clip-path="url(#clip4_6290_204848)">
<path d="M231.881 198.568L223.883 195.607V193.907C223.883 193.592 223.622 193.33 223.307 193.33C222.991 193.33 222.73 193.592 222.73 193.907V195.737L220.23 197.798L217.731 195.737V193.915C217.731 193.599 217.469 193.338 217.154 193.338C216.839 193.338 216.577 193.599 216.577 193.915V195.614L208.579 198.575C207.157 199.106 206.195 200.482 206.195 201.997V211.78C206.195 212.095 206.457 212.356 206.772 212.356H233.689C234.004 212.356 234.265 212.095 234.265 211.78V201.99C234.265 200.475 233.304 199.098 231.881 198.568ZM216.624 199.129L217.416 196.968L219.138 198.391L216.885 199.375C216.785 199.421 216.708 199.375 216.677 199.337C216.639 199.306 216.585 199.237 216.624 199.129ZM219.146 202.736H221.315L223.345 211.195H217.116L219.146 202.736ZM221.276 201.582H219.177L218.877 199.767L220.23 199.175L221.584 199.767L221.276 201.582ZM221.322 198.391L223.045 196.968L223.837 199.129C223.876 199.229 223.822 199.306 223.791 199.337C223.76 199.367 223.683 199.413 223.583 199.375L221.322 198.391ZM207.349 201.99C207.349 200.952 208.003 200.006 208.979 199.644L216.185 196.976L215.539 198.737C215.355 199.252 215.485 199.806 215.878 200.175C216.139 200.421 216.462 200.544 216.793 200.544C216.977 200.544 217.162 200.505 217.339 200.429L217.785 200.236L218.1 202.136L215.931 211.195H211.194V209.08C211.194 208.765 210.933 208.504 210.617 208.504C210.302 208.504 210.041 208.765 210.041 209.08V211.195H207.349V201.99ZM233.112 211.195H230.42V209.08C230.42 208.765 230.159 208.504 229.843 208.504C229.528 208.504 229.267 208.765 229.267 209.08V211.195H224.529L222.353 202.136L222.668 200.236L223.114 200.429C223.291 200.505 223.476 200.544 223.66 200.544C223.991 200.544 224.322 200.421 224.575 200.175C224.975 199.798 225.106 199.244 224.914 198.737L224.276 196.983L231.481 199.652C232.458 200.013 233.112 200.952 233.112 201.997V211.195Z" fill="#004357"/>
<path d="M229.844 206.197C229.529 206.197 229.268 206.458 229.268 206.773V207.158C229.268 207.473 229.529 207.735 229.844 207.735C230.16 207.735 230.421 207.473 230.421 207.158V206.773C230.421 206.458 230.16 206.197 229.844 206.197Z" fill="#004357"/>
<path d="M210.618 207.735C210.933 207.735 211.195 207.473 211.195 207.158V206.773C211.195 206.458 210.933 206.197 210.618 206.197C210.302 206.197 210.041 206.458 210.041 206.773V207.158C210.041 207.473 210.302 207.735 210.618 207.735Z" fill="#004357"/>
<path d="M218.501 190.47C218.501 189.516 219.277 188.739 220.231 188.739H225.122C225.314 188.201 225.422 187.616 225.422 187.009V183.933C225.422 181.072 223.092 178.742 220.231 178.742C217.37 178.742 215.04 181.072 215.04 183.933V187.009C215.04 189.87 217.37 192.2 220.231 192.2C219.277 192.2 218.501 191.423 218.501 190.47Z" fill="#BED73C"/>
<path d="M228.69 181.433H227.729V180.472C227.729 176.335 224.368 172.974 220.231 172.974C216.093 172.974 212.732 176.335 212.732 180.472V181.433H211.771C210.602 181.433 209.656 182.379 209.656 183.548V188.932C209.656 190.1 210.602 191.046 211.771 191.046C212.94 191.046 213.886 190.1 213.886 188.932V180.472C213.886 176.973 216.731 174.127 220.231 174.127C223.73 174.127 226.575 176.973 226.575 180.472V189.893H220.231C219.915 189.893 219.654 190.154 219.654 190.47C219.654 190.785 219.915 191.046 220.231 191.046H228.69C229.859 191.046 230.805 190.1 230.805 188.932V183.548C230.805 182.379 229.859 181.433 228.69 181.433Z" fill="#BED73C"/>
</g>
<path d="M309.041 219.585H310.981L310.807 226.706H309.201L309.041 219.585ZM308.839 228.66C308.839 227.98 309.316 227.575 310.011 227.575C310.677 227.575 311.169 227.98 311.169 228.66C311.169 229.326 310.677 229.731 310.011 229.731C309.316 229.731 308.839 229.326 308.839 228.66Z" fill="#3C3E3E"/>
<path d="M299.773 222.567H301.655L301.626 223.595C302.19 222.755 303.059 222.408 303.985 222.408C306.04 222.408 307.3 224 307.3 226.084C307.3 228.067 305.983 229.702 303.855 229.702C302.784 229.702 302.176 229.326 301.597 228.631C301.612 229.065 301.597 229.514 301.597 229.948V232.221H299.773V222.567ZM303.522 228.284C304.723 228.284 305.418 227.256 305.418 226.084C305.418 224.868 304.665 223.913 303.464 223.913C302.35 223.913 301.568 224.767 301.568 226.084C301.568 227.256 302.335 228.284 303.522 228.284Z" fill="#3C3E3E"/>
<path d="M296.114 219.585H297.952V229.572H296.114V219.585Z" fill="#3C3E3E"/>
<path d="M294.551 228.602C294.16 229.008 293.104 229.731 291.396 229.731C289.283 229.731 287.72 228.443 287.72 226.185C287.72 223.942 289.355 222.437 291.353 222.437C293.509 222.437 294.812 223.855 294.812 225.722C294.812 226.084 294.783 226.663 294.783 226.663H289.63C289.804 227.777 290.658 228.313 291.714 228.313C292.655 228.313 293.495 227.893 293.827 227.604L294.551 228.602ZM292.959 225.462C292.93 224.695 292.641 223.812 291.338 223.812C290.238 223.812 289.659 224.579 289.601 225.462H292.959Z" fill="#3C3E3E"/>
<path d="M280.029 219.585H281.867V223.624H281.896C282.273 222.885 282.982 222.437 283.995 222.437C286.007 222.437 286.513 223.739 286.513 225.418V229.572H284.661V225.823C284.661 224.781 284.473 223.956 283.402 223.956C282.258 223.956 281.867 224.912 281.867 226.084V229.572H280.029V219.585Z" fill="#3C3E3E"/>
<path d="M268.216 226.099C268.216 223.884 269.866 222.437 272.022 222.437C274.164 222.437 275.814 223.884 275.814 226.099C275.814 228.313 274.164 229.731 272.022 229.731C269.866 229.731 268.216 228.313 268.216 226.099ZM272.022 228.197C273.209 228.197 273.904 227.256 273.904 226.055C273.904 224.854 273.209 223.928 272.022 223.928C270.807 223.928 270.141 224.854 270.141 226.055C270.141 227.256 270.807 228.197 272.022 228.197Z" fill="#3C3E3E"/>
<path d="M267.579 229.5C267.492 229.529 266.942 229.731 266.16 229.731C265.465 229.731 264.959 229.587 264.64 229.225C264.279 228.834 264.134 228.212 264.134 227.256V224.014H263.092V222.582H264.134V220.584H265.972V222.582H267.593V224.014H265.972V226.851C265.972 227.416 266.015 227.749 266.16 227.951C266.276 228.125 266.493 228.183 266.811 228.183C267.188 228.183 267.477 228.067 267.477 228.067L267.579 229.5Z" fill="#3C3E3E"/>
<path d="M259.456 228.602C259.066 229.008 258.009 229.731 256.301 229.731C254.188 229.731 252.625 228.443 252.625 226.185C252.625 223.942 254.26 222.437 256.258 222.437C258.414 222.437 259.717 223.855 259.717 225.722C259.717 226.084 259.688 226.663 259.688 226.663H254.535C254.709 227.777 255.563 228.313 256.62 228.313C257.56 228.313 258.4 227.893 258.733 227.604L259.456 228.602ZM257.864 225.462C257.835 224.695 257.546 223.812 256.243 223.812C255.143 223.812 254.564 224.579 254.507 225.462H257.864Z" fill="#3C3E3E"/>
<path d="M247.858 222.567H249.697L249.668 223.696H249.711C249.986 222.943 250.681 222.437 251.433 222.437C251.911 222.437 252.171 222.567 252.171 222.567L252.041 224.174H251.954C251.752 224.116 251.433 224.087 251.187 224.087C250.637 224.087 250.203 224.318 249.957 224.767C249.769 225.114 249.697 225.592 249.697 226.127V229.572H247.858V222.567Z" fill="#3C3E3E"/>
<path d="M246.368 228.602C245.977 229.008 244.92 229.731 243.212 229.731C241.099 229.731 239.536 228.443 239.536 226.185C239.536 223.942 241.172 222.437 243.169 222.437C245.325 222.437 246.628 223.855 246.628 225.722C246.628 226.084 246.599 226.663 246.599 226.663H241.447C241.62 227.777 242.474 228.313 243.531 228.313C244.472 228.313 245.311 227.893 245.644 227.604L246.368 228.602ZM244.776 225.462C244.747 224.695 244.457 223.812 243.154 223.812C242.055 223.812 241.476 224.579 241.418 225.462H244.776Z" fill="#3C3E3E"/>
<path d="M231.846 219.585H233.684V223.624H233.713C234.089 222.885 234.798 222.437 235.811 222.437C237.823 222.437 238.33 223.739 238.33 225.418V229.572H236.477V225.823C236.477 224.781 236.289 223.956 235.218 223.956C234.075 223.956 233.684 224.912 233.684 226.084V229.572H231.846V219.585Z" fill="#3C3E3E"/>
<path d="M216.678 222.567H218.53L218.516 223.624H218.559C218.878 222.972 219.732 222.437 220.643 222.437C221.657 222.437 222.264 222.842 222.597 223.768C223.089 222.914 223.885 222.437 224.899 222.437C226.737 222.437 227.243 223.739 227.243 225.346V229.572H225.391V225.65C225.391 224.796 225.203 223.956 224.291 223.956C223.364 223.956 222.887 224.753 222.887 225.954V229.572H221.034V225.635C221.034 224.68 220.788 223.956 219.905 223.956C218.95 223.956 218.53 224.854 218.53 225.954V229.572H216.678V222.567Z" fill="#3C3E3E"/>
<path d="M212.959 219.585H214.783L213.408 222.943H211.902L212.959 219.585Z" fill="#3C3E3E"/>
<path d="M208.13 219.585H210.011V229.572H208.13V219.585Z" fill="#3C3E3E"/>
<path d="M204.754 219.585H206.187L205.13 222.943H203.379L204.754 219.585ZM201.917 219.585H203.35L202.293 222.943H200.542L201.917 219.585Z" fill="#3C3E3E"/>
<path d="M294.418 245.991L286.066 238.553H306.379L298.028 245.991C296.999 246.908 295.447 246.908 294.418 245.991Z" fill="white"/>
<path d="M286.089 239.184L294.489 246.159C295.494 246.994 296.951 246.994 297.956 246.159L306.354 239.184" stroke="#004357" stroke-width="0.904586" stroke-linecap="square"/>
<path d="M329.259 243.616C328.872 243.652 328.587 243.995 328.623 244.381L329.204 250.683C329.24 251.069 329.582 251.354 329.969 251.318C330.356 251.282 330.64 250.94 330.605 250.553L330.088 244.952L335.689 244.435C336.076 244.4 336.36 244.057 336.325 243.671C336.289 243.284 335.947 242.999 335.56 243.035L329.259 243.616ZM391.202 229.113C374.093 256.937 344.451 255.975 329.773 243.776L328.874 244.857C344.18 257.578 374.822 258.436 392.4 229.85L391.202 229.113Z" fill="#004357"/>
<path d="M368.09 100.334C368.353 100.62 368.797 100.639 369.084 100.377L373.748 96.0999C374.034 95.8374 374.053 95.3926 373.791 95.1064C373.528 94.8202 373.083 94.801 372.797 95.0634L368.651 98.8652L364.85 94.7195C364.587 94.4333 364.142 94.414 363.856 94.6765C363.57 94.9389 363.551 95.3837 363.813 95.6699L368.09 100.334ZM369.311 99.889C370.723 67.2568 397.089 53.6772 415.848 57.1944L416.107 55.8122C396.546 52.1446 369.357 66.3016 367.906 99.8282L369.311 99.889Z" fill="#004357"/>
<g clip-path="url(#clip5_6290_204848)">
<path d="M311.979 109.122C311.979 107.26 313.489 105.75 315.351 105.75H516.03C517.892 105.75 519.401 107.26 519.401 109.122V163.822C519.401 165.684 517.892 167.194 516.03 167.194H315.351C313.489 167.194 311.979 165.684 311.979 163.822V109.122Z" fill="#F3F4F6"/>
<path d="M311.979 109.122C311.979 107.26 313.489 105.75 315.351 105.75H516.03C517.892 105.75 519.401 107.26 519.401 109.122V163.822C519.401 165.684 517.892 167.194 516.03 167.194H315.351C313.489 167.194 311.979 165.684 311.979 163.822V109.122Z" fill="#F3F4F6"/>
<path d="M469.446 118.506C469.446 117.916 469.861 117.564 470.464 117.564C471.042 117.564 471.469 117.916 471.469 118.506C471.469 119.084 471.042 119.436 470.464 119.436C469.861 119.436 469.446 119.084 469.446 118.506Z" fill="#3C3E3E"/>
<path d="M467.939 118.456C467.6 118.808 466.683 119.436 465.2 119.436C463.366 119.436 462.01 118.318 462.01 116.358C462.01 114.411 463.429 113.105 465.163 113.105C467.034 113.105 468.165 114.336 468.165 115.956C468.165 116.27 468.14 116.773 468.14 116.773H463.668C463.819 117.74 464.56 118.205 465.477 118.205C466.293 118.205 467.022 117.84 467.311 117.589L467.939 118.456ZM466.557 115.73C466.532 115.064 466.281 114.298 465.15 114.298C464.195 114.298 463.693 114.964 463.643 115.73H466.557Z" fill="#3C3E3E"/>
<path d="M455.321 113.218H456.929L456.917 114.21C457.281 113.431 457.984 113.105 458.776 113.105C460.522 113.105 460.961 114.235 460.961 115.692V119.298H459.354V116.044C459.354 115.14 459.19 114.424 458.261 114.424C457.268 114.424 456.929 115.253 456.929 116.27V119.298H455.321V113.218Z" fill="#3C3E3E"/>
<path d="M447.622 116.283C447.622 114.361 449.054 113.105 450.926 113.105C452.785 113.105 454.217 114.361 454.217 116.283C454.217 118.205 452.785 119.436 450.926 119.436C449.054 119.436 447.622 118.205 447.622 116.283ZM450.926 118.104C451.956 118.104 452.559 117.288 452.559 116.245C452.559 115.203 451.956 114.399 450.926 114.399C449.871 114.399 449.293 115.203 449.293 116.245C449.293 117.288 449.871 118.104 450.926 118.104Z" fill="#3C3E3E"/>
<path d="M444.905 119.298L444.918 118.343C444.428 119.122 443.636 119.436 442.795 119.436C441.011 119.436 439.918 118.054 439.918 116.245C439.918 114.524 441.061 113.105 442.908 113.105C443.724 113.105 444.44 113.406 444.867 114.059C444.855 113.783 444.855 113.457 444.855 113.029V110.63H446.45V119.298H444.905ZM443.247 118.129C444.214 118.129 444.892 117.388 444.892 116.245C444.892 115.228 444.227 114.336 443.197 114.336C442.154 114.336 441.551 115.228 441.551 116.245C441.551 117.3 442.204 118.129 443.247 118.129Z" fill="#3C3E3E"/>
<path d="M436.875 119.235C436.799 119.26 436.322 119.436 435.644 119.436C435.041 119.436 434.601 119.31 434.325 118.996C434.011 118.657 433.885 118.117 433.885 117.288V114.474H432.98V113.23H433.885V111.497H435.48V113.23H436.887V114.474H435.48V116.936C435.48 117.426 435.518 117.715 435.644 117.891C435.744 118.041 435.932 118.092 436.209 118.092C436.535 118.092 436.787 117.991 436.787 117.991L436.875 119.235Z" fill="#3C3E3E"/>
<path d="M428.388 117.401C429.104 117.954 429.719 118.23 430.234 118.23C430.837 118.23 431.113 118.004 431.113 117.652C431.113 117.338 430.875 117.162 430.096 116.898L429.393 116.66C428.488 116.358 428.023 115.818 428.023 114.926C428.023 113.821 429.028 113.105 430.196 113.105C431.277 113.105 431.88 113.394 432.382 113.758L431.691 114.826C431.34 114.562 430.825 114.311 430.272 114.311C429.744 114.311 429.48 114.512 429.48 114.801C429.48 115.064 429.681 115.278 430.36 115.491L430.787 115.63C432.131 116.069 432.608 116.547 432.608 117.426C432.608 118.582 431.691 119.436 430.196 119.436C429.267 119.436 428.224 119.059 427.734 118.494L428.388 117.401Z" fill="#3C3E3E"/>
<path d="M420.485 116.283C420.485 114.361 421.917 113.105 423.789 113.105C425.648 113.105 427.08 114.361 427.08 116.283C427.08 118.205 425.648 119.436 423.789 119.436C421.917 119.436 420.485 118.205 420.485 116.283ZM423.789 118.104C424.819 118.104 425.422 117.288 425.422 116.245C425.422 115.203 424.819 114.399 423.789 114.399C422.734 114.399 422.156 115.203 422.156 116.245C422.156 117.288 422.734 118.104 423.789 118.104Z" fill="#3C3E3E"/>
<path d="M410.252 113.218H411.86L411.847 114.135H411.885C412.161 113.57 412.902 113.105 413.694 113.105C414.573 113.105 415.101 113.456 415.39 114.26C415.817 113.519 416.508 113.105 417.387 113.105C418.982 113.105 419.422 114.235 419.422 115.63V119.298H417.814V115.893C417.814 115.152 417.651 114.424 416.859 114.424C416.055 114.424 415.641 115.115 415.641 116.157V119.298H414.033V115.881C414.033 115.052 413.819 114.424 413.053 114.424C412.224 114.424 411.86 115.203 411.86 116.157V119.298H410.252V113.218Z" fill="#3C3E3E"/>
<path d="M407.113 110.63H408.709V119.298H407.113V110.63Z" fill="#3C3E3E"/>
<path d="M404.103 118.594C403.852 119.034 403.148 119.436 402.244 119.436C401.063 119.436 400.108 118.795 400.108 117.526C400.108 116.258 401.352 115.768 402.608 115.68L404.065 115.579V115.416C404.065 114.637 403.55 114.273 402.709 114.273C401.905 114.273 401.239 114.574 400.975 114.775L400.485 113.745C400.95 113.469 401.804 113.105 402.859 113.105C403.94 113.105 404.555 113.381 405.007 113.808C405.447 114.235 405.673 114.788 405.673 115.818V119.298H404.128L404.103 118.594ZM402.985 116.622C402.131 116.672 401.716 116.961 401.716 117.476C401.716 117.991 402.106 118.343 402.771 118.343C403.4 118.343 403.864 117.979 404.078 117.677V116.559L402.985 116.622Z" fill="#3C3E3E"/>
<path d="M396.789 118.456C396.45 118.808 395.533 119.436 394.051 119.436C392.217 119.436 390.86 118.318 390.86 116.358C390.86 114.411 392.28 113.105 394.013 113.105C395.885 113.105 397.016 114.336 397.016 115.956C397.016 116.27 396.99 116.773 396.99 116.773H392.518C392.669 117.74 393.41 118.205 394.327 118.205C395.144 118.205 395.872 117.84 396.161 117.589L396.789 118.456ZM395.408 115.73C395.383 115.064 395.131 114.298 394.001 114.298C393.046 114.298 392.544 114.964 392.493 115.73H395.408Z" fill="#3C3E3E"/>
<path d="M386.724 113.218H388.319L388.294 114.198H388.332C388.57 113.544 389.173 113.105 389.826 113.105C390.241 113.105 390.467 113.218 390.467 113.218L390.354 114.612H390.279C390.103 114.562 389.826 114.537 389.613 114.537C389.135 114.537 388.759 114.738 388.545 115.127C388.382 115.429 388.319 115.843 388.319 116.308V119.298H386.724V113.218Z" fill="#3C3E3E"/>
<path d="M383.495 110.63H385.078L383.885 113.544H382.578L383.495 110.63Z" fill="#3C3E3E"/>
<path d="M379.492 118.443C379.14 119.046 378.487 119.411 377.608 119.411C376.867 119.411 376.364 119.21 376.025 118.871C375.573 118.406 375.435 117.665 375.435 116.823V113.218H377.042V116.471C377.042 117.376 377.193 118.092 378.123 118.092C379.09 118.092 379.454 117.325 379.454 116.308V113.218H381.062V119.298H379.505L379.492 118.443Z" fill="#3C3E3E"/>
<path d="M367.848 116.283C367.848 114.361 369.28 113.105 371.151 113.105C373.011 113.105 374.443 114.361 374.443 116.283C374.443 118.205 373.011 119.436 371.151 119.436C369.28 119.436 367.848 118.205 367.848 116.283ZM371.151 118.104C372.181 118.104 372.784 117.288 372.784 116.245C372.784 115.203 372.181 114.399 371.151 114.399C370.096 114.399 369.518 115.203 369.518 116.245C369.518 117.288 370.096 118.104 371.151 118.104Z" fill="#3C3E3E"/>
<path d="M362.914 115.73L359.912 110.63H361.721L363.743 114.348L365.753 110.63H367.562L364.547 115.73V119.298H362.914V115.73Z" fill="#3C3E3E"/>
<path d="M473.853 135.52H474.697L474.621 139.79H473.921L473.853 135.52ZM473.71 140.903C473.71 140.574 473.946 140.372 474.275 140.372C474.596 140.372 474.832 140.574 474.832 140.903C474.832 141.224 474.596 141.427 474.275 141.427C473.946 141.427 473.71 141.224 473.71 140.903Z" fill="#3C3E3E"/>
<path d="M472.438 140.498C472.438 141.384 472.295 141.874 472 142.228C471.704 142.591 471.206 142.996 470.211 142.996C469.224 142.996 468.54 142.481 468.422 142.397L468.802 141.831C469.013 142.017 469.637 142.338 470.236 142.338C470.835 142.338 471.173 142.101 471.333 141.899C471.493 141.705 471.637 141.325 471.637 140.777V140.557C471.35 140.979 470.894 141.291 470.211 141.291C469.19 141.291 468.287 140.54 468.287 139.317C468.287 137.984 469.19 137.258 470.219 137.258C470.869 137.258 471.341 137.545 471.62 137.959H471.637V137.334H472.438V140.498ZM470.388 140.633C471.19 140.633 471.662 140.034 471.662 139.292C471.662 138.49 471.19 137.908 470.388 137.908C469.586 137.908 469.114 138.499 469.114 139.292C469.114 140.034 469.586 140.633 470.388 140.633Z" fill="#3C3E3E"/>
<path d="M463.992 137.334H464.802L464.794 138.018C465.013 137.545 465.528 137.259 466.043 137.259C467.182 137.259 467.477 138.009 467.477 138.971V141.342H466.667V139.106C466.667 138.431 466.549 137.925 465.832 137.925C465.081 137.925 464.802 138.558 464.802 139.326V141.342H463.992V137.334Z" fill="#3C3E3E"/>
<path d="M461.905 136.018C461.905 135.731 462.125 135.52 462.437 135.52C462.741 135.52 462.96 135.731 462.96 136.018C462.96 136.305 462.741 136.516 462.437 136.516C462.125 136.516 461.905 136.305 461.905 136.018ZM462.032 137.334H462.842V141.342H462.032V137.334Z" fill="#3C3E3E"/>
<path d="M456.908 139.351C456.908 138.11 457.836 137.258 459.034 137.258C460.224 137.258 461.152 138.11 461.152 139.351C461.152 140.6 460.224 141.435 459.034 141.435C457.836 141.435 456.908 140.6 456.908 139.351ZM459.034 140.743C459.836 140.743 460.334 140.119 460.334 139.325C460.334 138.541 459.836 137.916 459.034 137.916C458.224 137.916 457.727 138.541 457.727 139.325C457.727 140.119 458.224 140.743 459.034 140.743Z" fill="#3C3E3E"/>
<path d="M456.057 140.498C456.057 141.384 455.914 141.874 455.619 142.228C455.323 142.591 454.826 142.996 453.83 142.996C452.843 142.996 452.159 142.481 452.041 142.397L452.421 141.831C452.632 142.017 453.256 142.338 453.855 142.338C454.454 142.338 454.792 142.101 454.952 141.899C455.112 141.705 455.256 141.325 455.256 140.777V140.557C454.969 140.979 454.513 141.291 453.83 141.291C452.809 141.291 451.906 140.54 451.906 139.317C451.906 137.984 452.809 137.258 453.838 137.258C454.488 137.258 454.961 137.545 455.239 137.959H455.256V137.334H456.057V140.498ZM454.007 140.633C454.809 140.633 455.281 140.034 455.281 139.292C455.281 138.49 454.809 137.908 454.007 137.908C453.206 137.908 452.733 138.499 452.733 139.292C452.733 140.034 453.206 140.633 454.007 140.633Z" fill="#3C3E3E"/>
<path d="M443.607 137.334H444.417L444.409 137.967H444.434C444.62 137.596 445.059 137.258 445.59 137.258C446.181 137.258 446.594 137.528 446.78 138.051C447.05 137.545 447.489 137.258 448.054 137.258C449.126 137.258 449.412 138.043 449.412 138.912V141.342H448.611V139.005C448.611 138.541 448.526 137.925 447.877 137.925C447.236 137.925 446.915 138.541 446.915 139.258V141.342H446.105V139.005C446.105 138.414 445.961 137.925 445.379 137.925C444.738 137.925 444.417 138.541 444.417 139.258V141.342H443.607V137.334Z" fill="#3C3E3E"/>
<path d="M441.699 140.768C441.48 141.157 441.024 141.435 440.459 141.435C439.885 141.435 439.556 141.241 439.345 140.971C439.143 140.701 439.05 140.304 439.05 139.731V137.326H439.851V139.697C439.851 140.245 439.969 140.76 440.687 140.76C441.395 140.76 441.682 140.152 441.682 139.477V137.326H442.492V141.342H441.708L441.699 140.768Z" fill="#3C3E3E"/>
<path d="M438.413 141.3C438.202 141.393 437.957 141.435 437.679 141.435C437.257 141.435 436.995 141.275 436.826 141.021C436.658 140.768 436.624 140.456 436.624 139.823V137.992H436.033V137.343H436.624V136.145H437.434V137.343H438.396V137.992H437.434V139.806C437.434 140.144 437.434 140.38 437.535 140.54C437.603 140.675 437.721 140.743 437.949 140.743C438.185 140.743 438.362 140.65 438.362 140.65L438.413 141.3Z" fill="#3C3E3E"/>
<path d="M431.898 137.334H432.708L432.7 138.018C432.919 137.545 433.434 137.259 433.949 137.259C435.088 137.259 435.383 138.009 435.383 138.971V141.342H434.573V139.106C434.573 138.431 434.455 137.925 433.738 137.925C432.987 137.925 432.708 138.558 432.708 139.326V141.342H431.898V137.334Z" fill="#3C3E3E"/>
<path d="M430.935 140.802C430.884 140.844 430.369 141.435 429.171 141.435C427.982 141.435 427.163 140.608 427.163 139.334C427.163 138.069 428.083 137.259 429.197 137.259C430.31 137.259 431.095 138.052 431.095 139.174C431.095 139.326 431.07 139.528 431.07 139.528H427.982C428.024 140.321 428.53 140.802 429.272 140.802C430.023 140.802 430.504 140.397 430.597 140.338L430.935 140.802ZM430.327 138.988C430.319 138.541 429.981 137.841 429.171 137.841C428.37 137.841 428.015 138.507 427.99 138.988H430.327Z" fill="#3C3E3E"/>
<path d="M420.544 137.334H421.354L421.346 137.967H421.371C421.556 137.596 421.995 137.258 422.527 137.258C423.117 137.258 423.531 137.528 423.716 138.051C423.986 137.545 424.425 137.258 424.991 137.258C426.062 137.258 426.349 138.043 426.349 138.912V141.342H425.547V139.005C425.547 138.541 425.463 137.925 424.813 137.925C424.172 137.925 423.851 138.541 423.851 139.258V141.342H423.041V139.005C423.041 138.414 422.898 137.925 422.316 137.925C421.675 137.925 421.354 138.541 421.354 139.258V141.342H420.544V137.334Z" fill="#3C3E3E"/>
<path d="M415.454 139.351C415.454 138.111 416.382 137.259 417.58 137.259C418.77 137.259 419.698 138.111 419.698 139.351C419.698 140.6 418.77 141.435 417.58 141.435C416.382 141.435 415.454 140.6 415.454 139.351ZM417.58 140.743C418.382 140.743 418.88 140.119 418.88 139.326C418.88 138.541 418.382 137.917 417.58 137.917C416.77 137.917 416.273 138.541 416.273 139.326C416.273 140.119 416.77 140.743 417.58 140.743Z" fill="#3C3E3E"/>
<path d="M408.835 137.334H409.645L409.637 137.967H409.662C409.847 137.596 410.286 137.258 410.818 137.258C411.408 137.258 411.822 137.528 412.007 138.051C412.277 137.545 412.716 137.258 413.282 137.258C414.353 137.258 414.64 138.043 414.64 138.912V141.342H413.838V139.005C413.838 138.541 413.754 137.925 413.104 137.925C412.463 137.925 412.142 138.541 412.142 139.258V141.342H411.332V139.005C411.332 138.414 411.189 137.925 410.607 137.925C409.966 137.925 409.645 138.541 409.645 139.258V141.342H408.835V137.334Z" fill="#3C3E3E"/>
<path d="M406.191 140.802C406.14 140.844 405.625 141.435 404.427 141.435C403.237 141.435 402.419 140.608 402.419 139.334C402.419 138.069 403.339 137.259 404.452 137.259C405.566 137.259 406.351 138.052 406.351 139.174C406.351 139.326 406.326 139.528 406.326 139.528H403.237C403.28 140.321 403.786 140.802 404.528 140.802C405.279 140.802 405.76 140.397 405.853 140.338L406.191 140.802ZM405.583 138.988C405.575 138.541 405.237 137.841 404.427 137.841C403.626 137.841 403.271 138.507 403.246 138.988H405.583Z" fill="#3C3E3E"/>
<path d="M398.107 135.52H398.909V137.967H398.926C399.137 137.571 399.576 137.258 400.158 137.258C401.314 137.258 401.592 138.001 401.592 138.954V141.342H400.782V139.072C400.782 138.499 400.689 137.925 399.955 137.925C399.221 137.925 398.909 138.558 398.909 139.359V141.342H398.107V135.52Z" fill="#3C3E3E"/>
<path d="M397.395 141.3C397.184 141.393 396.939 141.435 396.661 141.435C396.239 141.435 395.978 141.275 395.809 141.022C395.64 140.769 395.606 140.456 395.606 139.824V137.993H395.016V137.343H395.606V136.145H396.416V137.343H397.378V137.993H396.416V139.807C396.416 140.144 396.416 140.38 396.517 140.541C396.585 140.676 396.703 140.743 396.931 140.743C397.167 140.743 397.344 140.65 397.344 140.65L397.395 141.3Z" fill="#3C3E3E"/>
<path d="M388.772 137.334H389.549V137.967C389.903 137.495 390.401 137.259 390.992 137.259C392.173 137.259 392.924 138.144 392.924 139.334C392.924 140.524 392.164 141.435 390.975 141.435C390.342 141.435 389.878 141.165 389.591 140.718L389.582 141.528V142.912H388.772V137.334ZM390.823 140.743C391.624 140.743 392.097 140.127 392.097 139.326C392.097 138.524 391.624 137.917 390.823 137.917C390.021 137.917 389.549 138.524 389.549 139.326C389.549 140.127 390.021 140.743 390.823 140.743Z" fill="#3C3E3E"/>
<path d="M387.774 140.802C387.723 140.844 387.208 141.435 386.01 141.435C384.82 141.435 384.002 140.608 384.002 139.334C384.002 138.068 384.922 137.258 386.035 137.258C387.149 137.258 387.934 138.051 387.934 139.174C387.934 139.325 387.909 139.528 387.909 139.528H384.82C384.863 140.321 385.369 140.802 386.111 140.802C386.862 140.802 387.343 140.397 387.436 140.338L387.774 140.802ZM387.166 138.988C387.158 138.541 386.82 137.84 386.01 137.84C385.209 137.84 384.854 138.507 384.829 138.988H387.166Z" fill="#3C3E3E"/>
<path d="M383.267 140.802C383.216 140.844 382.701 141.435 381.503 141.435C380.314 141.435 379.495 140.608 379.495 139.334C379.495 138.068 380.415 137.258 381.529 137.258C382.642 137.258 383.427 138.051 383.427 139.174C383.427 139.325 383.402 139.528 383.402 139.528H380.314C380.356 140.321 380.862 140.802 381.604 140.802C382.355 140.802 382.836 140.397 382.929 140.338L383.267 140.802ZM382.659 138.988C382.651 138.541 382.313 137.84 381.503 137.84C380.702 137.84 380.347 138.507 380.322 138.988H382.659Z" fill="#3C3E3E"/>
<path d="M375.696 135.52H376.498V138.937L378.135 137.334H379.08L377.51 138.845L379.282 141.342H378.337L376.962 139.402L376.498 139.84V141.342H375.696V135.52Z" fill="#3C3E3E"/>
<path d="M371.984 140.448H372.811L372.035 142.523H371.394L371.984 140.448Z" fill="#3C3E3E"/>
<path d="M366.607 137.334H367.384V137.967C367.738 137.495 368.236 137.258 368.826 137.258C370.008 137.258 370.759 138.144 370.759 139.334C370.759 140.524 369.999 141.435 368.81 141.435C368.177 141.435 367.713 141.165 367.426 140.718L367.417 141.528V142.911H366.607V137.334ZM368.658 140.743C369.459 140.743 369.932 140.127 369.932 139.325C369.932 138.524 369.459 137.916 368.658 137.916C367.856 137.916 367.384 138.524 367.384 139.325C367.384 140.127 367.856 140.743 368.658 140.743Z" fill="#3C3E3E"/>
<path d="M365.609 140.802C365.559 140.844 365.044 141.435 363.846 141.435C362.656 141.435 361.838 140.608 361.838 139.334C361.838 138.068 362.758 137.258 363.871 137.258C364.985 137.258 365.77 138.051 365.77 139.174C365.77 139.325 365.744 139.528 365.744 139.528H362.656C362.699 140.321 363.205 140.802 363.947 140.802C364.698 140.802 365.179 140.397 365.272 140.338L365.609 140.802ZM365.002 138.988C364.994 138.541 364.656 137.84 363.846 137.84C363.044 137.84 362.69 138.507 362.665 138.988H365.002Z" fill="#3C3E3E"/>
<path d="M361.436 141.3C361.225 141.393 360.98 141.435 360.702 141.435C360.28 141.435 360.019 141.275 359.85 141.021C359.681 140.768 359.647 140.456 359.647 139.823V137.992H359.057V137.343H359.647V136.145H360.457V137.343H361.419V137.992H360.457V139.806C360.457 140.144 360.457 140.38 360.559 140.54C360.626 140.675 360.744 140.743 360.972 140.743C361.208 140.743 361.385 140.65 361.385 140.65L361.436 141.3Z" fill="#3C3E3E"/>
<path d="M355.994 140.245V140.253C356.331 140.608 356.804 140.827 357.175 140.827C357.546 140.827 357.943 140.692 357.943 140.253C357.943 139.857 357.47 139.73 357.04 139.587L356.863 139.528C356.323 139.351 355.859 139.055 355.859 138.414C355.859 137.672 356.5 137.267 357.209 137.267C357.917 137.267 358.322 137.52 358.575 137.79L358.238 138.288C358.002 138.043 357.614 137.857 357.225 137.857C356.837 137.857 356.584 138.026 356.584 138.355C356.584 138.684 356.972 138.828 357.369 138.954L357.909 139.148C358.356 139.334 358.694 139.646 358.694 140.169C358.694 141.038 357.976 141.435 357.166 141.435C356.491 141.435 355.943 141.156 355.605 140.718L355.994 140.245Z" fill="#3C3E3E"/>
<path d="M507.696 130.645V130.654C508.033 131.008 508.506 131.228 508.877 131.228C509.248 131.228 509.645 131.093 509.645 130.654C509.645 130.257 509.172 130.131 508.742 129.987L508.565 129.928C508.025 129.751 507.561 129.456 507.561 128.814C507.561 128.072 508.202 127.667 508.911 127.667C509.619 127.667 510.024 127.92 510.278 128.19L509.94 128.688C509.704 128.443 509.316 128.258 508.928 128.258C508.539 128.258 508.286 128.426 508.286 128.755C508.286 129.084 508.674 129.228 509.071 129.354L509.611 129.549C510.058 129.734 510.396 130.046 510.396 130.569C510.396 131.439 509.679 131.835 508.869 131.835C508.194 131.835 507.645 131.557 507.308 131.118L507.696 130.645Z" fill="#3C3E3E"/>
<path d="M505.609 126.418C505.609 126.131 505.829 125.92 506.141 125.92C506.445 125.92 506.664 126.131 506.664 126.418C506.664 126.705 506.445 126.916 506.141 126.916C505.829 126.916 505.609 126.705 505.609 126.418ZM505.736 127.734H506.546V131.742H505.736V127.734Z" fill="#3C3E3E"/>
<path d="M501.122 125.92H501.924V128.367H501.941C502.151 127.97 502.59 127.658 503.172 127.658C504.328 127.658 504.607 128.401 504.607 129.354V131.742H503.797V129.472C503.797 128.899 503.704 128.325 502.97 128.325C502.236 128.325 501.924 128.958 501.924 129.759V131.742H501.122V125.92Z" fill="#3C3E3E"/>
<path d="M500.409 131.7C500.198 131.793 499.953 131.835 499.675 131.835C499.253 131.835 498.991 131.675 498.822 131.422C498.654 131.168 498.62 130.856 498.62 130.223V128.392H498.029V127.743H498.62V126.545H499.43V127.743H500.392V128.392H499.43V130.207C499.43 130.544 499.43 130.78 499.531 130.941C499.599 131.076 499.717 131.143 499.945 131.143C500.181 131.143 500.358 131.05 500.358 131.05L500.409 131.7Z" fill="#3C3E3E"/>
<path d="M495.657 130.898C495.657 131.784 495.514 132.274 495.218 132.628C494.923 132.991 494.425 133.396 493.43 133.396C492.442 133.396 491.759 132.881 491.641 132.797L492.021 132.231C492.231 132.417 492.856 132.738 493.455 132.738C494.054 132.738 494.391 132.501 494.552 132.299C494.712 132.105 494.856 131.725 494.856 131.177V130.957C494.569 131.379 494.113 131.691 493.43 131.691C492.409 131.691 491.506 130.94 491.506 129.717C491.506 128.384 492.409 127.658 493.438 127.658C494.088 127.658 494.56 127.945 494.839 128.359H494.856V127.734H495.657V130.898ZM493.607 131.033C494.408 131.033 494.881 130.434 494.881 129.692C494.881 128.89 494.408 128.308 493.607 128.308C492.805 128.308 492.333 128.899 492.333 129.692C492.333 130.434 492.805 131.033 493.607 131.033Z" fill="#3C3E3E"/>
<path d="M487.212 127.734H488.022L488.013 128.418C488.233 127.945 488.748 127.658 489.262 127.658C490.401 127.658 490.697 128.409 490.697 129.371V131.742H489.887V129.506C489.887 128.831 489.768 128.325 489.051 128.325C488.3 128.325 488.022 128.958 488.022 129.725V131.742H487.212V127.734Z" fill="#3C3E3E"/>
<path d="M485.125 126.418C485.125 126.131 485.344 125.92 485.657 125.92C485.96 125.92 486.18 126.131 486.18 126.418C486.18 126.705 485.96 126.916 485.657 126.916C485.344 126.916 485.125 126.705 485.125 126.418ZM485.252 127.734H486.062V131.742H485.252V127.734Z" fill="#3C3E3E"/>
<path d="M484.546 131.7C484.335 131.793 484.091 131.835 483.812 131.835C483.39 131.835 483.129 131.675 482.96 131.422C482.791 131.168 482.758 130.856 482.758 130.223V128.392H482.167V127.743H482.758V126.545H483.568V127.743H484.529V128.392H483.568V130.207C483.568 130.544 483.568 130.78 483.669 130.941C483.736 131.076 483.854 131.143 484.082 131.143C484.319 131.143 484.496 131.05 484.496 131.05L484.546 131.7Z" fill="#3C3E3E"/>
<path d="M481.633 131.202C481.582 131.244 481.068 131.835 479.869 131.835C478.68 131.835 477.861 131.008 477.861 129.734C477.861 128.468 478.781 127.658 479.895 127.658C481.009 127.658 481.793 128.452 481.793 129.574C481.793 129.726 481.768 129.928 481.768 129.928H478.68C478.722 130.721 479.228 131.202 479.971 131.202C480.722 131.202 481.203 130.797 481.295 130.738L481.633 131.202ZM481.025 129.388C481.017 128.941 480.679 128.241 479.869 128.241C479.068 128.241 478.714 128.907 478.688 129.388H481.025Z" fill="#3C3E3E"/>
<path d="M476.172 125.92H476.973V131.742H476.172V125.92Z" fill="#3C3E3E"/>
<path d="M471.137 127.734H471.913V128.367C472.267 127.894 472.765 127.658 473.356 127.658C474.537 127.658 475.288 128.544 475.288 129.734C475.288 130.924 474.529 131.835 473.339 131.835C472.706 131.835 472.242 131.565 471.955 131.118L471.947 131.928V133.311H471.137V127.734ZM473.187 131.143C473.989 131.143 474.461 130.527 474.461 129.725C474.461 128.924 473.989 128.316 473.187 128.316C472.385 128.316 471.913 128.924 471.913 129.725C471.913 130.527 472.385 131.143 473.187 131.143Z" fill="#3C3E3E"/>
<path d="M464.215 127.734H465.025L465.016 128.367H465.042C465.227 127.996 465.666 127.658 466.198 127.658C466.788 127.658 467.202 127.928 467.387 128.452C467.657 127.945 468.096 127.658 468.661 127.658C469.733 127.658 470.02 128.443 470.02 129.312V131.742H469.218V129.405C469.218 128.941 469.134 128.325 468.484 128.325C467.843 128.325 467.522 128.941 467.522 129.658V131.742H466.712V129.405C466.712 128.814 466.569 128.325 465.987 128.325C465.345 128.325 465.025 128.941 465.025 129.658V131.742H464.215V127.734Z" fill="#3C3E3E"/>
<path d="M459.124 129.751C459.124 128.51 460.052 127.658 461.25 127.658C462.44 127.658 463.368 128.51 463.368 129.751C463.368 130.999 462.44 131.835 461.25 131.835C460.052 131.835 459.124 130.999 459.124 129.751ZM461.25 131.143C462.052 131.143 462.55 130.519 462.55 129.725C462.55 128.941 462.052 128.316 461.25 128.316C460.44 128.316 459.942 128.941 459.942 129.725C459.942 130.519 460.44 131.143 461.25 131.143Z" fill="#3C3E3E"/>
<path d="M458.747 131.227C458.747 131.227 458.292 131.835 457.144 131.835C456.064 131.835 455.119 131.025 455.119 129.742C455.119 128.451 456.106 127.658 457.169 127.658C458.241 127.658 458.68 128.181 458.722 128.232L458.435 128.823C458.3 128.688 457.946 128.333 457.237 128.333C456.528 128.333 455.938 128.873 455.938 129.717C455.938 130.561 456.461 131.143 457.237 131.143C458.022 131.143 458.46 130.637 458.46 130.637L458.747 131.227Z" fill="#3C3E3E"/>
<path d="M448.717 125.92H449.518V127.937C449.518 128.046 449.51 128.257 449.51 128.401C449.805 127.903 450.328 127.658 450.936 127.658C452.109 127.658 452.868 128.553 452.868 129.734C452.868 130.924 452.109 131.835 450.919 131.835C450.337 131.835 449.839 131.599 449.51 131.109H449.493V131.742H448.717V125.92ZM450.767 131.143C451.569 131.143 452.041 130.527 452.041 129.725C452.041 128.924 451.569 128.316 450.767 128.316C449.966 128.316 449.485 128.924 449.485 129.725C449.485 130.527 449.966 131.143 450.767 131.143Z" fill="#3C3E3E"/>
<path d="M443.584 129.751C443.584 128.511 444.512 127.658 445.71 127.658C446.9 127.658 447.828 128.511 447.828 129.751C447.828 131 446.9 131.835 445.71 131.835C444.512 131.835 443.584 131 443.584 129.751ZM445.71 131.143C446.512 131.143 447.01 130.519 447.01 129.726C447.01 128.941 446.512 128.317 445.71 128.317C444.9 128.317 444.402 128.941 444.402 129.726C444.402 130.519 444.9 131.143 445.71 131.143Z" fill="#3C3E3E"/>
<path d="M441.767 126.418C441.767 126.131 441.986 125.92 442.299 125.92C442.602 125.92 442.822 126.131 442.822 126.418C442.822 126.705 442.602 126.916 442.299 126.916C441.986 126.916 441.767 126.705 441.767 126.418ZM440.94 132.687C440.94 132.687 441.109 132.746 441.32 132.746C441.843 132.746 441.894 132.282 441.894 131.725V127.734H442.704V131.75C442.704 132.215 442.636 132.636 442.408 132.949C442.256 133.16 441.961 133.396 441.438 133.396C441.109 133.396 440.932 133.328 440.932 133.328L440.94 132.687Z" fill="#3C3E3E"/>
<path d="M439.508 131.7C439.297 131.793 439.053 131.835 438.774 131.835C438.352 131.835 438.091 131.675 437.922 131.422C437.753 131.168 437.72 130.856 437.72 130.223V128.392H437.129V127.743H437.72V126.545H438.53V127.743H439.491V128.392H438.53V130.207C438.53 130.544 438.53 130.78 438.631 130.941C438.698 131.076 438.816 131.143 439.044 131.143C439.28 131.143 439.458 131.05 439.458 131.05L439.508 131.7Z" fill="#3C3E3E"/>
<path d="M435.727 131.236C435.567 131.405 435.187 131.835 434.453 131.835C433.711 131.835 433.069 131.371 433.069 130.595C433.069 129.81 433.711 129.413 434.639 129.371L435.71 129.329V129.169C435.71 128.561 435.297 128.258 434.715 128.258C434.132 128.258 433.643 128.519 433.508 128.603L433.263 128.063C433.559 127.895 434.099 127.658 434.765 127.658C435.432 127.658 435.82 127.844 436.09 128.114C436.36 128.393 436.52 128.73 436.52 129.413V131.742H435.736L435.727 131.236ZM434.782 129.878C434.132 129.911 433.871 130.19 433.871 130.569C433.871 130.949 434.166 131.261 434.698 131.261C435.221 131.261 435.567 130.907 435.719 130.679V129.818L434.782 129.878Z" fill="#3C3E3E"/>
<path d="M432.359 131.202C432.309 131.244 431.794 131.835 430.596 131.835C429.406 131.835 428.588 131.008 428.588 129.734C428.588 128.468 429.508 127.658 430.621 127.658C431.735 127.658 432.52 128.451 432.52 129.574C432.52 129.725 432.494 129.928 432.494 129.928H429.406C429.449 130.721 429.955 131.202 430.697 131.202C431.448 131.202 431.929 130.797 432.022 130.738L432.359 131.202ZM431.752 129.388C431.744 128.941 431.406 128.24 430.596 128.24C429.794 128.24 429.44 128.907 429.415 129.388H431.752Z" fill="#3C3E3E"/>
<path d="M426.072 127.734H426.882L426.874 128.35H426.899C427.093 127.894 427.456 127.658 427.886 127.658C428.156 127.658 428.308 127.726 428.308 127.726L428.258 128.477H428.224C428.148 128.443 428.004 128.392 427.785 128.392C427.431 128.392 427.211 128.62 427.127 128.73C427.051 128.839 426.882 129.152 426.882 129.742V131.742H426.072V127.734Z" fill="#3C3E3E"/>
<path d="M422.605 128.637H424.968V130.898C424.858 131.008 424.149 131.843 422.495 131.843C420.833 131.843 419.525 130.645 419.525 128.831C419.525 127.017 420.833 125.836 422.487 125.836C423.98 125.836 424.622 126.621 424.841 126.848L424.284 127.363C423.938 126.958 423.398 126.536 422.487 126.536C421.289 126.536 420.369 127.397 420.369 128.831C420.369 130.266 421.323 131.126 422.538 131.126C423.744 131.126 424.174 130.595 424.174 130.595V129.304H422.605V128.637Z" fill="#3C3E3E"/>
<path d="M415.702 131.303C415.702 130.974 415.938 130.772 416.267 130.772C416.588 130.772 416.824 130.974 416.824 131.303C416.824 131.624 416.588 131.826 416.267 131.826C415.938 131.826 415.702 131.624 415.702 131.303Z" fill="#3C3E3E"/>
<path d="M410.971 125.92H411.772V128.367H411.789C412 127.97 412.439 127.658 413.021 127.658C414.177 127.658 414.455 128.401 414.455 129.354V131.742H413.645V129.472C413.645 128.899 413.553 128.325 412.819 128.325C412.084 128.325 411.772 128.958 411.772 129.759V131.742H410.971V125.92Z" fill="#3C3E3E"/>
<path d="M409.808 130.898C409.808 131.784 409.665 132.274 409.37 132.628C409.074 132.991 408.577 133.396 407.581 133.396C406.594 133.396 405.91 132.881 405.792 132.797L406.172 132.232C406.383 132.417 407.007 132.738 407.606 132.738C408.205 132.738 408.543 132.502 408.703 132.299C408.863 132.105 409.007 131.725 409.007 131.177V130.958C408.72 131.379 408.264 131.692 407.581 131.692C406.56 131.692 405.657 130.941 405.657 129.717C405.657 128.384 406.56 127.658 407.589 127.658C408.239 127.658 408.712 127.945 408.99 128.359H409.007V127.734H409.808V130.898ZM407.758 131.033C408.56 131.033 409.032 130.434 409.032 129.692C409.032 128.89 408.56 128.308 407.758 128.308C406.957 128.308 406.484 128.899 406.484 129.692C406.484 130.434 406.957 131.033 407.758 131.033Z" fill="#3C3E3E"/>
<path d="M404.019 131.168C403.799 131.556 403.344 131.835 402.778 131.835C402.204 131.835 401.875 131.641 401.664 131.371C401.462 131.101 401.369 130.704 401.369 130.131V127.726H402.171V130.097C402.171 130.645 402.289 131.16 403.006 131.16C403.715 131.16 404.002 130.552 404.002 129.877V127.726H404.812V131.742H404.027L404.019 131.168Z" fill="#3C3E3E"/>
<path d="M396.312 129.751C396.312 128.51 397.241 127.658 398.439 127.658C399.628 127.658 400.557 128.51 400.557 129.751C400.557 130.999 399.628 131.835 398.439 131.835C397.241 131.835 396.312 130.999 396.312 129.751ZM398.439 131.143C399.24 131.143 399.738 130.519 399.738 129.725C399.738 128.941 399.24 128.316 398.439 128.316C397.629 128.316 397.131 128.941 397.131 129.725C397.131 130.519 397.629 131.143 398.439 131.143Z" fill="#3C3E3E"/>
<path d="M395.912 131.7C395.701 131.793 395.456 131.835 395.178 131.835C394.756 131.835 394.494 131.675 394.325 131.422C394.157 131.168 394.123 130.856 394.123 130.223V128.392H393.532V127.743H394.123V126.545H394.933V127.743H395.895V128.392H394.933V130.207C394.933 130.544 394.933 130.78 395.034 130.941C395.102 131.076 395.22 131.143 395.448 131.143C395.684 131.143 395.861 131.05 395.861 131.05L395.912 131.7Z" fill="#3C3E3E"/>
<path d="M391.317 131.202C391.267 131.244 390.752 131.835 389.554 131.835C388.364 131.835 387.546 131.008 387.546 129.734C387.546 128.468 388.466 127.658 389.579 127.658C390.693 127.658 391.478 128.451 391.478 129.574C391.478 129.725 391.452 129.928 391.452 129.928H388.364C388.407 130.721 388.913 131.202 389.655 131.202C390.406 131.202 390.887 130.797 390.98 130.738L391.317 131.202ZM390.71 129.388C390.702 128.941 390.364 128.24 389.554 128.24C388.752 128.24 388.398 128.907 388.373 129.388H390.71Z" fill="#3C3E3E"/>
<path d="M382.823 125.92H383.625V127.937C383.625 128.047 383.616 128.258 383.616 128.401C383.912 127.903 384.435 127.659 385.042 127.659C386.215 127.659 386.974 128.553 386.974 129.734C386.974 130.924 386.215 131.835 385.025 131.835C384.443 131.835 383.945 131.599 383.616 131.109H383.599V131.742H382.823V125.92ZM384.874 131.143C385.675 131.143 386.148 130.527 386.148 129.726C386.148 128.924 385.675 128.317 384.874 128.317C384.072 128.317 383.591 128.924 383.591 129.726C383.591 130.527 384.072 131.143 384.874 131.143Z" fill="#3C3E3E"/>
<path d="M376.535 127.734H377.345L377.337 128.418C377.556 127.945 378.071 127.658 378.585 127.658C379.725 127.658 380.02 128.409 380.02 129.371V131.742H379.21V129.506C379.21 128.831 379.092 128.325 378.375 128.325C377.624 128.325 377.345 128.958 377.345 129.725V131.742H376.535V127.734Z" fill="#3C3E3E"/>
<path d="M374.703 131.236C374.542 131.405 374.163 131.835 373.429 131.835C372.686 131.835 372.045 131.371 372.045 130.595C372.045 129.81 372.686 129.413 373.614 129.371L374.686 129.329V129.169C374.686 128.561 374.272 128.258 373.69 128.258C373.108 128.258 372.619 128.519 372.484 128.603L372.239 128.063C372.534 127.895 373.074 127.658 373.741 127.658C374.407 127.658 374.796 127.844 375.066 128.114C375.336 128.393 375.496 128.73 375.496 129.413V131.742H374.711L374.703 131.236ZM373.758 129.878C373.108 129.911 372.846 130.19 372.846 130.569C372.846 130.949 373.142 131.261 373.673 131.261C374.196 131.261 374.542 130.907 374.694 130.679V129.818L373.758 129.878Z" fill="#3C3E3E"/>
<path d="M371.571 131.227C371.571 131.227 371.116 131.835 369.968 131.835C368.888 131.835 367.943 131.025 367.943 129.742C367.943 128.451 368.931 127.658 369.994 127.658C371.065 127.658 371.504 128.181 371.546 128.232L371.259 128.823C371.124 128.688 370.77 128.333 370.061 128.333C369.352 128.333 368.762 128.873 368.762 129.717C368.762 130.561 369.285 131.143 370.061 131.143C370.846 131.143 371.285 130.637 371.285 130.637L371.571 131.227Z" fill="#3C3E3E"/>
<path d="M363.039 130.645V130.654C363.377 131.008 363.849 131.228 364.221 131.228C364.592 131.228 364.989 131.093 364.989 130.654C364.989 130.257 364.516 130.131 364.086 129.987L363.909 129.928C363.369 129.751 362.904 129.456 362.904 128.814C362.904 128.072 363.546 127.667 364.254 127.667C364.963 127.667 365.368 127.92 365.621 128.19L365.284 128.688C365.048 128.443 364.659 128.258 364.271 128.258C363.883 128.258 363.63 128.426 363.63 128.755C363.63 129.084 364.018 129.228 364.415 129.354L364.955 129.549C365.402 129.734 365.739 130.046 365.739 130.569C365.739 131.439 365.022 131.835 364.212 131.835C363.537 131.835 362.989 131.557 362.651 131.118L363.039 130.645Z" fill="#3C3E3E"/>
<path d="M362.368 131.7C362.157 131.793 361.912 131.835 361.634 131.835C361.212 131.835 360.95 131.675 360.781 131.422C360.613 131.168 360.579 130.856 360.579 130.223V128.392H359.988V127.743H360.579V126.545H361.389V127.743H362.351V128.392H361.389V130.207C361.389 130.544 361.389 130.78 361.49 130.941C361.558 131.076 361.676 131.143 361.904 131.143C362.14 131.143 362.317 131.05 362.317 131.05L362.368 131.7Z" fill="#3C3E3E"/>
<path d="M355.427 125.92H356.228V127.937C356.228 128.047 356.22 128.258 356.22 128.401C356.515 127.903 357.038 127.659 357.646 127.659C358.819 127.659 359.578 128.553 359.578 129.734C359.578 130.924 358.819 131.835 357.629 131.835C357.047 131.835 356.549 131.599 356.22 131.109H356.203V131.742H355.427V125.92ZM357.477 131.143C358.279 131.143 358.751 130.527 358.751 129.726C358.751 128.924 358.279 128.317 357.477 128.317C356.676 128.317 356.195 128.924 356.195 129.726C356.195 130.527 356.676 131.143 357.477 131.143Z" fill="#3C3E3E"/>
<path d="M354.42 131.202C354.369 131.244 353.855 131.835 352.657 131.835C351.467 131.835 350.648 131.008 350.648 129.734C350.648 128.468 351.568 127.658 352.682 127.658C353.796 127.658 354.58 128.452 354.58 129.574C354.58 129.726 354.555 129.928 354.555 129.928H351.467C351.509 130.721 352.015 131.202 352.758 131.202C353.509 131.202 353.99 130.797 354.083 130.738L354.42 131.202ZM353.813 129.388C353.804 128.941 353.467 128.241 352.657 128.241C351.855 128.241 351.501 128.907 351.475 129.388H353.813Z" fill="#3C3E3E"/>
<path d="M348.989 131.742V131.101C348.66 131.59 348.146 131.835 347.563 131.835C346.374 131.835 345.614 130.924 345.614 129.734C345.614 128.553 346.374 127.658 347.546 127.658C348.196 127.658 348.669 127.945 348.947 128.359H348.964V125.92H349.766V131.742H348.989ZM347.715 131.143C348.517 131.143 348.989 130.527 348.989 129.725C348.989 128.924 348.517 128.316 347.715 128.316C346.914 128.316 346.441 128.924 346.441 129.725C346.441 130.527 346.914 131.143 347.715 131.143Z" fill="#3C3E3E"/>
<path d="M343.083 130.898C343.083 131.784 342.939 132.274 342.644 132.628C342.349 132.991 341.851 133.396 340.855 133.396C339.868 133.396 339.185 132.881 339.067 132.797L339.446 132.232C339.657 132.417 340.282 132.738 340.881 132.738C341.48 132.738 341.817 132.502 341.978 132.299C342.138 132.105 342.281 131.725 342.281 131.177V130.958C341.994 131.379 341.539 131.692 340.855 131.692C339.834 131.692 338.932 130.941 338.932 129.717C338.932 128.384 339.834 127.658 340.864 127.658C341.514 127.658 341.986 127.945 342.264 128.359H342.281V127.734H343.083V130.898ZM341.033 131.033C341.834 131.033 342.307 130.434 342.307 129.692C342.307 128.89 341.834 128.308 341.033 128.308C340.231 128.308 339.759 128.899 339.759 129.692C339.759 130.434 340.231 131.033 341.033 131.033Z" fill="#3C3E3E"/>
<path d="M334.637 127.734H335.447L335.438 128.418C335.658 127.945 336.172 127.658 336.687 127.658C337.826 127.658 338.121 128.409 338.121 129.371V131.742H337.311V129.506C337.311 128.831 337.193 128.325 336.476 128.325C335.725 128.325 335.447 128.958 335.447 129.726V131.742H334.637V127.734Z" fill="#3C3E3E"/>
<path d="M332.549 126.418C332.549 126.131 332.768 125.92 333.08 125.92C333.384 125.92 333.604 126.131 333.604 126.418C333.604 126.705 333.384 126.916 333.08 126.916C332.768 126.916 332.549 126.705 332.549 126.418ZM332.675 127.734H333.485V131.742H332.675V127.734Z" fill="#3C3E3E"/>
<path d="M331.971 131.7C331.76 131.793 331.516 131.835 331.237 131.835C330.815 131.835 330.554 131.675 330.385 131.422C330.216 131.168 330.182 130.856 330.182 130.223V128.392H329.592V127.743H330.182V126.545H330.992V127.743H331.954V128.392H330.992V130.207C330.992 130.544 330.992 130.78 331.094 130.941C331.161 131.076 331.279 131.143 331.507 131.143C331.743 131.143 331.921 131.05 331.921 131.05L331.971 131.7Z" fill="#3C3E3E"/>
<path d="M326.529 130.645V130.654C326.866 131.008 327.339 131.228 327.71 131.228C328.081 131.228 328.478 131.093 328.478 130.654C328.478 130.257 328.005 130.131 327.575 129.987L327.398 129.928C326.858 129.751 326.394 129.456 326.394 128.814C326.394 128.072 327.035 127.667 327.744 127.667C328.452 127.667 328.857 127.92 329.111 128.19L328.773 128.688C328.537 128.443 328.149 128.258 327.761 128.258C327.372 128.258 327.119 128.426 327.119 128.755C327.119 129.084 327.508 129.228 327.904 129.354L328.444 129.549C328.891 129.734 329.229 130.046 329.229 130.569C329.229 131.439 328.512 131.835 327.702 131.835C327.027 131.835 326.478 131.557 326.141 131.118L326.529 130.645Z" fill="#3C3E3E"/>
<path d="M324.441 126.418C324.441 126.131 324.661 125.92 324.973 125.92C325.277 125.92 325.496 126.131 325.496 126.418C325.496 126.705 325.277 126.916 324.973 126.916C324.661 126.916 324.441 126.705 324.441 126.418ZM324.568 127.734H325.378V131.742H324.568V127.734Z" fill="#3C3E3E"/>
<path d="M320.985 125.92H321.804V131.05H323.854V131.742H320.985V125.92Z" fill="#3C3E3E"/>
<g clip-path="url(#clip6_6290_204848)">
<rect width="19.5281" height="7.32304" transform="translate(351.004 151.433)" fill="#BED73C"/>
</g>
<path d="M354.665 151.738H366.87C368.724 151.738 370.227 153.241 370.227 155.095C370.227 156.949 368.724 158.451 366.87 158.451H354.665C352.812 158.451 351.309 156.949 351.309 155.095C351.309 153.241 352.812 151.738 354.665 151.738Z" stroke="#004357" stroke-width="0.610253"/>
<g clip-path="url(#clip7_6290_204848)">
<rect width="19.5281" height="7.32304" transform="translate(372.973 151.433)" fill="#BED73C"/>
</g>
<path d="M376.634 151.738H388.839C390.693 151.738 392.196 153.241 392.196 155.095C392.196 156.949 390.693 158.451 388.839 158.451H376.634C374.78 158.451 373.278 156.949 373.278 155.095C373.278 153.241 374.78 151.738 376.634 151.738Z" stroke="#004357" stroke-width="0.610253"/>
<g clip-path="url(#clip8_6290_204848)">
<rect width="19.5281" height="7.32304" transform="translate(394.942 151.433)" fill="#BED73C"/>
</g>
<path d="M398.604 151.738H410.809C412.663 151.738 414.165 153.241 414.165 155.095C414.165 156.949 412.663 158.451 410.809 158.451H398.604C396.75 158.451 395.248 156.949 395.248 155.095C395.248 153.241 396.75 151.738 398.604 151.738Z" stroke="#004357" stroke-width="0.610253"/>
<g clip-path="url(#clip9_6290_204848)">
<rect width="19.5281" height="7.32304" transform="translate(416.911 151.433)" fill="#BED73C"/>
</g>
<path d="M420.573 151.738H432.778C434.631 151.738 436.134 153.241 436.134 155.095C436.134 156.949 434.631 158.451 432.778 158.451H420.573C418.719 158.451 417.216 156.949 417.216 155.095C417.216 153.241 418.719 151.738 420.573 151.738Z" stroke="#004357" stroke-width="0.610253"/>
<g clip-path="url(#clip10_6290_204848)">
<rect width="7.32304" height="7.32304" transform="translate(438.881 151.433)" fill="#BED73C"/>
</g>
<path d="M442.542 151.738H454.747C456.601 151.738 458.104 153.241 458.104 155.095C458.104 156.949 456.601 158.451 454.747 158.451H442.542C440.689 158.451 439.186 156.949 439.186 155.095C439.186 153.241 440.689 151.738 442.542 151.738Z" stroke="#004357" stroke-width="0.610253"/>
<g clip-path="url(#clip11_6290_204848)">
</g>
<path d="M464.511 151.738H476.716C478.57 151.738 480.073 153.241 480.073 155.095C480.073 156.949 478.57 158.451 476.716 158.451H464.511C462.657 158.451 461.155 156.949 461.155 155.095C461.155 153.241 462.657 151.738 464.511 151.738Z" stroke="#004357" stroke-width="0.610253"/>
</g>
<defs>
<clipPath id="clip0_6290_204848">
<path d="M60.1807 76.5414C60.1807 74.9322 61.4852 73.6277 63.0943 73.6277H245.705C247.314 73.6277 248.618 74.9322 248.618 76.5414V96.7296C248.618 98.3388 247.314 99.6433 245.704 99.6433H63.0943C61.4852 99.6433 60.1807 98.3388 60.1807 96.7296V76.5414Z" fill="white"/>
</clipPath>
<clipPath id="clip1_6290_204848">
<path d="M64.3994 102.557C64.3994 100.948 65.7039 99.6433 67.3131 99.6433H249.923C251.532 99.6433 252.837 100.948 252.837 102.557V123.448C252.837 125.058 251.532 126.362 249.923 126.362H67.3131C65.7039 126.362 64.3994 125.058 64.3994 123.448V102.557Z" fill="white"/>
</clipPath>
<clipPath id="clip2_6290_204848">
<path d="M60.1807 129.276C60.1807 127.667 61.4852 126.362 63.0943 126.362H245.705C247.314 126.362 248.618 127.667 248.618 129.276V149.464C248.618 151.073 247.314 152.378 245.704 152.378H63.0943C61.4852 152.378 60.1807 151.073 60.1807 149.464V129.276Z" fill="white"/>
</clipPath>
<clipPath id="clip3_6290_204848">
<path d="M64.3994 155.291C64.3994 153.682 65.7039 152.378 67.3131 152.378H249.923C251.532 152.378 252.837 153.682 252.837 155.291V176.183C252.837 177.792 251.532 179.096 249.923 179.096H67.3131C65.7039 179.096 64.3994 177.792 64.3994 176.183V155.291Z" fill="white"/>
</clipPath>
<clipPath id="clip4_6290_204848">
<rect width="39.375" height="39.375" fill="white" transform="translate(200.542 172.974)"/>
</clipPath>
<clipPath id="clip5_6290_204848">
<path d="M311.979 109.122C311.979 107.26 313.489 105.75 315.351 105.75H516.03C517.892 105.75 519.401 107.26 519.401 109.122V163.822C519.401 165.684 517.892 167.194 516.03 167.194H315.351C313.489 167.194 311.979 165.684 311.979 163.822V109.122Z" fill="white"/>
</clipPath>
<clipPath id="clip6_6290_204848">
<path d="M351.004 155.095C351.004 153.073 352.643 151.433 354.665 151.433H366.87C368.893 151.433 370.532 153.073 370.532 155.095V155.095C370.532 157.117 368.893 158.756 366.87 158.756H354.665C352.643 158.756 351.004 157.117 351.004 155.095V155.095Z" fill="white"/>
</clipPath>
<clipPath id="clip7_6290_204848">
<path d="M372.973 155.095C372.973 153.073 374.612 151.433 376.634 151.433H388.839C390.861 151.433 392.501 153.073 392.501 155.095V155.095C392.501 157.117 390.861 158.756 388.839 158.756H376.634C374.612 158.756 372.973 157.117 372.973 155.095V155.095Z" fill="white"/>
</clipPath>
<clipPath id="clip8_6290_204848">
<path d="M394.942 155.095C394.942 153.073 396.582 151.433 398.604 151.433H410.809C412.831 151.433 414.47 153.073 414.47 155.095V155.095C414.47 157.117 412.831 158.756 410.809 158.756H398.604C396.582 158.756 394.942 157.117 394.942 155.095V155.095Z" fill="white"/>
</clipPath>
<clipPath id="clip9_6290_204848">
<path d="M416.911 155.095C416.911 153.073 418.55 151.433 420.573 151.433H432.778C434.8 151.433 436.439 153.073 436.439 155.095V155.095C436.439 157.117 434.8 158.756 432.778 158.756H420.573C418.55 158.756 416.911 157.117 416.911 155.095V155.095Z" fill="white"/>
</clipPath>
<clipPath id="clip10_6290_204848">
<path d="M438.881 155.095C438.881 153.073 440.52 151.433 442.542 151.433H454.747C456.77 151.433 458.409 153.073 458.409 155.095V155.095C458.409 157.117 456.77 158.756 454.747 158.756H442.542C440.52 158.756 438.881 157.117 438.881 155.095V155.095Z" fill="white"/>
</clipPath>
<clipPath id="clip11_6290_204848">
<path d="M460.85 155.095C460.85 153.073 462.489 151.433 464.511 151.433H476.716C478.738 151.433 480.378 153.073 480.378 155.095V155.095C480.378 157.117 478.738 158.756 476.716 158.756H464.511C462.489 158.756 460.85 157.117 460.85 155.095V155.095Z" fill="white"/>
</clipPath>
</defs>
</svg>
