<svg width="720" height="284" viewBox="0 0 720 284" fill="none" xmlns="http://www.w3.org/2000/svg">
<g opacity="0.4">
<g clip-path="url(#clip0_6291_211451)">
<path d="M60.1807 76.5414C60.1807 74.9322 61.4852 73.6277 63.0943 73.6277H245.705C247.314 73.6277 248.618 74.9322 248.618 76.5414V96.7296C248.618 98.3388 247.314 99.6433 245.704 99.6433H63.0943C61.4852 99.6433 60.1807 98.3388 60.1807 96.7296V76.5414Z" fill="white"/>
<path d="M60.1807 76.5411C60.1807 74.9319 61.4852 73.6274 63.0943 73.6274H245.705C247.314 73.6274 248.618 74.9319 248.618 76.5411V96.7294C248.618 98.3386 247.314 99.6431 245.704 99.6431H63.0943C61.4852 99.6431 60.1807 98.3386 60.1807 96.7294V76.5411Z" fill="white" stroke="#004357" stroke-width="0.527344"/>
<path d="M72.3096 94.2163C68.0865 94.2163 64.6631 90.7929 64.6631 86.5698C64.6631 82.3468 68.0865 78.9233 72.3096 78.9233C76.5326 78.9233 79.9561 82.3468 79.9561 86.5698C79.9561 90.7929 76.5326 94.2163 72.3096 94.2163Z" fill="#F3F4F6" stroke="#BDBDBD" stroke-width="0.527344"/>
<path d="M166.617 85.2414H167.832L167.823 85.9913C168.098 85.4028 168.63 85.156 169.228 85.156C170.547 85.156 170.879 86.0103 170.879 87.1114V89.8357H169.664V87.3772C169.664 86.6937 169.541 86.1527 168.838 86.1527C168.088 86.1527 167.832 86.7792 167.832 87.548V89.8357H166.617V85.2414Z" fill="#3C3E3E"/>
<path d="M160.799 87.5575C160.799 86.1052 161.881 85.156 163.295 85.156C164.7 85.156 165.782 86.1052 165.782 87.5575C165.782 89.0098 164.7 89.9401 163.295 89.9401C161.881 89.9401 160.799 89.0098 160.799 87.5575ZM163.295 88.9339C164.074 88.9339 164.529 88.3169 164.529 87.5291C164.529 86.7412 164.074 86.1337 163.295 86.1337C162.498 86.1337 162.061 86.7412 162.061 87.5291C162.061 88.3169 162.498 88.9339 163.295 88.9339Z" fill="#3C3E3E"/>
<path d="M158.588 83.8365C158.588 83.4474 158.892 83.1626 159.319 83.1626C159.746 83.1626 160.05 83.4474 160.05 83.8365C160.05 84.2352 159.746 84.5105 159.319 84.5105C158.892 84.5105 158.588 84.2352 158.588 83.8365ZM158.711 85.2414H159.926V89.8356H158.711V85.2414Z" fill="#3C3E3E"/>
<path d="M157.971 89.7881C157.914 89.8071 157.553 89.94 157.041 89.94C156.585 89.94 156.253 89.8451 156.044 89.6078C155.807 89.3515 155.712 88.9433 155.712 88.3168V86.1906H155.028V85.2508H155.712V83.9409H156.917V85.2508H157.98V86.1906H156.917V88.051C156.917 88.4212 156.946 88.6396 157.041 88.7724C157.117 88.8863 157.259 88.9243 157.468 88.9243C157.715 88.9243 157.904 88.8484 157.904 88.8484L157.971 89.7881Z" fill="#3C3E3E"/>
<path d="M153.275 89.3041C153.086 89.6363 152.554 89.9401 151.871 89.9401C150.978 89.9401 150.257 89.456 150.257 88.4973C150.257 87.5385 151.197 87.1683 152.146 87.1019L153.247 87.026V86.9026C153.247 86.3141 152.858 86.0388 152.222 86.0388C151.614 86.0388 151.111 86.2666 150.912 86.4185L150.542 85.6401C150.893 85.4313 151.538 85.156 152.336 85.156C153.152 85.156 153.617 85.3648 153.959 85.6876C154.291 86.0103 154.462 86.428 154.462 87.2063V89.8357H153.294L153.275 89.3041ZM152.431 87.8138C151.785 87.8518 151.472 88.0701 151.472 88.4593C151.472 88.8485 151.766 89.1142 152.269 89.1142C152.744 89.1142 153.095 88.839 153.256 88.6112V87.7664L152.431 87.8138Z" fill="#3C3E3E"/>
<path d="M142.59 85.2414H143.805L143.795 85.9344H143.824C144.033 85.5072 144.593 85.156 145.191 85.156C145.855 85.156 146.254 85.4218 146.472 86.0293C146.795 85.4692 147.317 85.156 147.981 85.156C149.187 85.156 149.519 86.0103 149.519 87.0639V89.8357H148.304V87.2633C148.304 86.7032 148.181 86.1527 147.583 86.1527C146.975 86.1527 146.662 86.6748 146.662 87.4626V89.8357H145.447V87.2538C145.447 86.6273 145.286 86.1527 144.707 86.1527C144.08 86.1527 143.805 86.7412 143.805 87.4626V89.8357H142.59V85.2414Z" fill="#3C3E3E"/>
<path d="M139.16 85.2414H140.366L140.347 85.9818H140.375C140.556 85.4882 141.011 85.156 141.505 85.156C141.818 85.156 141.989 85.2414 141.989 85.2414L141.903 86.2951H141.846C141.714 86.2571 141.505 86.2381 141.343 86.2381C140.983 86.2381 140.698 86.39 140.537 86.6842C140.413 86.9121 140.366 87.2253 140.366 87.5765V89.8357H139.16V85.2414Z" fill="#3C3E3E"/>
<path d="M133.342 87.5575C133.342 86.1052 134.424 85.156 135.838 85.156C137.243 85.156 138.325 86.1052 138.325 87.5575C138.325 89.0098 137.243 89.9401 135.838 89.9401C134.424 89.9401 133.342 89.0098 133.342 87.5575ZM135.838 88.9339C136.617 88.9339 137.072 88.3169 137.072 87.5291C137.072 86.7412 136.617 86.1337 135.838 86.1337C135.041 86.1337 134.604 86.7412 134.604 87.5291C134.604 88.3169 135.041 88.9339 135.838 88.9339Z" fill="#3C3E3E"/>
<path d="M130.98 86.1906H130.354V85.2509H130.98V84.8997C130.98 84.3397 131.132 83.884 131.369 83.6277C131.606 83.3525 131.986 83.1721 132.518 83.1721C133.078 83.1721 133.419 83.267 133.419 83.267L133.344 84.1403C133.344 84.1403 133.078 84.0644 132.821 84.0644C132.299 84.0644 132.176 84.4156 132.176 84.8522V85.2509H133.23V86.1906H132.195V89.8356H130.98V86.1906Z" fill="#3C3E3E"/>
<path d="M125.432 85.2414H126.647L126.637 85.9913C126.912 85.4028 127.444 85.156 128.042 85.156C129.361 85.156 129.694 86.0103 129.694 87.1114V89.8357H128.479V87.3772C128.479 86.6937 128.355 86.1527 127.653 86.1527C126.903 86.1527 126.647 86.7792 126.647 87.548V89.8357H125.432V85.2414Z" fill="#3C3E3E"/>
<path d="M122.937 83.8365C122.937 83.4474 123.24 83.1626 123.667 83.1626C124.095 83.1626 124.398 83.4474 124.398 83.8365C124.398 84.2352 124.095 84.5105 123.667 84.5105C123.24 84.5105 122.937 84.2352 122.937 83.8365ZM123.06 85.2414H124.275V89.8356H123.06V85.2414Z" fill="#3C3E3E"/>
<path d="M118.769 83.2859H119.974V89.8355H118.769V83.2859Z" fill="#3C3E3E"/>
<path d="M116.494 89.3041C116.304 89.6363 115.773 89.9401 115.089 89.9401C114.197 89.9401 113.476 89.456 113.476 88.4973C113.476 87.5385 114.415 87.1683 115.365 87.1019L116.466 87.026V86.9026C116.466 86.3141 116.076 86.0388 115.44 86.0388C114.833 86.0388 114.33 86.2666 114.131 86.4185L113.76 85.6401C114.112 85.4313 114.757 85.156 115.554 85.156C116.371 85.156 116.836 85.3648 117.178 85.6876C117.51 86.0103 117.681 86.428 117.681 87.2063V89.8357H116.513L116.494 89.3041ZM115.649 87.8138C115.004 87.8518 114.691 88.0701 114.691 88.4593C114.691 88.8485 114.985 89.1142 115.488 89.1142C115.963 89.1142 116.314 88.839 116.475 88.6112V87.7664L115.649 87.8138Z" fill="#3C3E3E"/>
<path d="M108.468 85.2414H109.683L109.673 85.9913C109.949 85.4028 110.48 85.156 111.078 85.156C112.398 85.156 112.73 86.0103 112.73 87.1114V89.8357H111.515V87.3772C111.515 86.6937 111.391 86.1527 110.689 86.1527C109.939 86.1527 109.683 86.7792 109.683 87.548V89.8357H108.468V85.2414Z" fill="#3C3E3E"/>
<path d="M102.649 87.5575C102.649 86.1052 103.732 85.156 105.146 85.156C106.551 85.156 107.633 86.1052 107.633 87.5575C107.633 89.0098 106.551 89.9401 105.146 89.9401C103.732 89.9401 102.649 89.0098 102.649 87.5575ZM105.146 88.9339C105.924 88.9339 106.38 88.3169 106.38 87.5291C106.38 86.7412 105.924 86.1337 105.146 86.1337C104.349 86.1337 103.912 86.7412 103.912 87.5291C103.912 88.3169 104.349 88.9339 105.146 88.9339Z" fill="#3C3E3E"/>
<path d="M98.9887 88.4023C99.5298 88.82 99.9949 89.0288 100.384 89.0288C100.84 89.0288 101.049 88.858 101.049 88.5922C101.049 88.3549 100.868 88.222 100.28 88.0226L99.7481 87.8423C99.0646 87.6145 98.7134 87.2063 98.7134 86.5324C98.7134 85.6971 99.4728 85.156 100.356 85.156C101.172 85.156 101.628 85.3743 102.007 85.6496L101.485 86.4564C101.219 86.2571 100.83 86.0673 100.413 86.0673C100.014 86.0673 99.8145 86.2191 99.8145 86.4375C99.8145 86.6368 99.9664 86.7982 100.479 86.9595L100.802 87.0639C101.817 87.3962 102.178 87.7569 102.178 88.4213C102.178 89.2946 101.485 89.9401 100.356 89.9401C99.6532 89.9401 98.8653 89.6553 98.4951 89.2282L98.9887 88.4023Z" fill="#3C3E3E"/>
<path d="M95.4072 85.2414H96.6127L96.5937 85.9818H96.6222C96.8026 85.4882 97.2582 85.156 97.7518 85.156C98.065 85.156 98.2359 85.2414 98.2359 85.2414L98.1505 86.2951H98.0935C97.9606 86.2571 97.7518 86.2381 97.5904 86.2381C97.2297 86.2381 96.945 86.39 96.7836 86.6842C96.6602 86.9121 96.6127 87.2253 96.6127 87.5765V89.8357H95.4072V85.2414Z" fill="#3C3E3E"/>
<path d="M94.4295 89.1997C94.1732 89.4655 93.4803 89.9401 92.3602 89.9401C90.9744 89.9401 89.9492 89.0953 89.9492 87.6145C89.9492 86.1432 91.0218 85.156 92.3318 85.156C93.7461 85.156 94.6004 86.0862 94.6004 87.3107C94.6004 87.548 94.5814 87.9277 94.5814 87.9277H91.2022C91.3161 88.6586 91.8761 89.0098 92.5691 89.0098C93.1861 89.0098 93.7366 88.7346 93.9549 88.5447L94.4295 89.1997ZM93.3854 87.1399C93.3664 86.6368 93.1766 86.0578 92.3223 86.0578C91.6009 86.0578 91.2212 86.5608 91.1832 87.1399H93.3854Z" fill="#3C3E3E"/>
<path d="M87.1903 83.2859C87.8452 83.2859 88.4148 83.4188 88.8324 83.77C89.2596 84.1212 89.5159 84.5863 89.5159 85.2508C89.5159 85.9152 89.2596 86.3898 88.8324 86.741C88.4148 87.0923 87.8452 87.2536 87.1903 87.2536H86.3265V89.8355H85.083V83.2859H87.1903ZM87.0384 86.2854C87.4181 86.2854 87.6744 86.1905 87.8832 86.0386C88.092 85.8867 88.2439 85.621 88.2439 85.2508C88.2439 84.8901 88.0636 84.6243 87.8547 84.4724C87.6459 84.3205 87.3896 84.2541 87.0099 84.2541H86.317V86.2854H87.0384Z" fill="#3C3E3E"/>
<path d="M222.854 78.989H254.758C258.981 78.989 262.405 82.4125 262.405 86.6355C262.405 90.8585 258.981 94.282 254.758 94.282H222.854C218.631 94.282 215.208 90.8585 215.208 86.6355C215.208 82.4125 218.631 78.989 222.854 78.989Z" stroke="#BDBDBD" stroke-width="0.527344"/>
<path d="M237.277 89.1309C237.189 89.153 236.864 89.249 236.436 89.249C236.015 89.249 235.734 89.1235 235.55 88.9094C235.365 88.6953 235.291 88.3926 235.291 87.8389V86.4288H234.774V85.5354H235.291V84.5461H236.48V85.5354H237.285V86.4288H236.48V87.7355C236.48 88.0456 236.524 88.1194 236.583 88.1859C236.635 88.2449 236.709 88.2745 236.864 88.2745C237.048 88.2745 237.218 88.208 237.218 88.208L237.277 89.1309Z" fill="#7C7C7C"/>
<path d="M232.26 85.5281H233.441L233.434 86.0449H233.448C233.655 85.6462 233.958 85.4617 234.349 85.4617C234.593 85.4617 234.718 85.5281 234.718 85.5281L234.652 86.6134H234.6C234.534 86.5765 234.379 86.5248 234.172 86.5248C233.906 86.5248 233.714 86.6725 233.626 86.7906C233.537 86.9087 233.441 87.145 233.441 87.551V89.1678H232.26V85.5281Z" fill="#7C7C7C"/>
<path d="M230.376 88.7839C230.221 88.939 229.926 89.2491 229.335 89.2491C228.693 89.2491 228.014 88.9021 228.014 88.09C228.014 87.2778 228.759 87.0047 229.431 86.9751L230.347 86.9382V86.857C230.347 86.4731 230.073 86.2738 229.601 86.2738C229.136 86.2738 228.671 86.4805 228.486 86.5986L228.176 85.8308C228.486 85.6758 229.055 85.4617 229.734 85.4617C230.413 85.4617 230.804 85.6167 231.092 85.8825C231.373 86.1483 231.528 86.5026 231.528 87.1154V89.1678H230.398L230.376 88.7839ZM229.771 87.6027C229.409 87.6175 229.195 87.7725 229.195 88.0457C229.195 88.3262 229.424 88.496 229.749 88.496C230.066 88.496 230.28 88.2893 230.354 88.1638V87.5658L229.771 87.6027Z" fill="#7C7C7C"/>
<path d="M227.782 89.1309C227.693 89.153 227.369 89.249 226.94 89.249C226.52 89.249 226.239 89.1235 226.054 88.9094C225.87 88.6953 225.796 88.3926 225.796 87.8389V86.4288H225.279V85.5354H225.796V84.5461H226.985V85.5354H227.789V86.4288H226.985V87.7355C226.985 88.0456 227.029 88.1194 227.088 88.1859C227.14 88.2449 227.214 88.2745 227.369 88.2745C227.553 88.2745 227.723 88.208 227.723 88.208L227.782 89.1309Z" fill="#7C7C7C"/>
<path d="M221.863 87.6175C222.232 88.0014 222.801 88.2598 223.192 88.2598C223.576 88.2598 223.871 88.0752 223.871 87.7356C223.871 87.3886 223.487 87.2631 223.273 87.1745L222.564 86.9087C221.922 86.6725 221.494 86.2886 221.494 85.5355C221.494 84.4871 222.432 84.0146 223.369 84.0146C223.96 84.0146 224.639 84.2952 224.986 84.6422L224.477 85.4764C224.181 85.1811 223.724 84.9596 223.34 84.9596C222.956 84.9596 222.675 85.1073 222.675 85.4174C222.675 85.7275 222.948 85.8456 223.192 85.9342L223.952 86.2221C224.595 86.4657 225.06 86.8792 225.06 87.6175C225.06 88.7249 224.063 89.2564 223.081 89.2564C222.343 89.2564 221.686 88.8725 221.272 88.4886L221.863 87.6175Z" fill="#7C7C7C"/>
<path d="M243.297 83.823L242.801 84.3187L244.763 86.2839H240.484V86.9871H244.763L242.801 88.9523L243.297 89.448L246.109 86.6355L243.297 83.823Z" fill="#004357"/>
<path d="M69.1455 85.5808C68.5654 85.5808 68.0908 86.0554 68.0908 86.6355C68.0908 87.2156 68.5654 87.6902 69.1455 87.6902C69.7256 87.6902 70.2002 87.2156 70.2002 86.6355C70.2002 86.0554 69.7256 85.5808 69.1455 85.5808ZM75.4736 85.5808C74.8936 85.5808 74.4189 86.0554 74.4189 86.6355C74.4189 87.2156 74.8936 87.6902 75.4736 87.6902C76.0537 87.6902 76.5283 87.2156 76.5283 86.6355C76.5283 86.0554 76.0537 85.5808 75.4736 85.5808ZM72.3096 85.5808C71.7295 85.5808 71.2549 86.0554 71.2549 86.6355C71.2549 87.2156 71.7295 87.6902 72.3096 87.6902C72.8896 87.6902 73.3643 87.2156 73.3643 86.6355C73.3643 86.0554 72.8896 85.5808 72.3096 85.5808Z" fill="#3C3E3E"/>
</g>
<path d="M60.1807 76.5414C60.1807 74.9322 61.4852 73.6277 63.0943 73.6277H245.705C247.314 73.6277 248.618 74.9322 248.618 76.5414V96.7296C248.618 98.3388 247.314 99.6433 245.704 99.6433H63.0943C61.4852 99.6433 60.1807 98.3388 60.1807 96.7296V76.5414Z" stroke="#004357" stroke-width="0.527344"/>
</g>
<g clip-path="url(#clip1_6291_211451)">
<path d="M64.3994 102.557C64.3994 100.948 65.7039 99.6433 67.3131 99.6433H249.923C251.532 99.6433 252.837 100.948 252.837 102.557V123.448C252.837 125.058 251.532 126.362 249.923 126.362H67.3131C65.7039 126.362 64.3994 125.058 64.3994 123.448V102.557Z" fill="#F3F4F6"/>
<path d="M64.1807 102.941C64.1807 101.332 65.4852 100.028 67.0943 100.028H249.705C251.314 100.028 252.618 101.332 252.618 102.941V123.13C252.618 124.739 251.314 126.043 249.704 126.043H67.0943C65.4852 126.043 64.1807 124.739 64.1807 123.13V102.941Z" fill="white" stroke="#004357" stroke-width="0.527344"/>
<path d="M76.3096 120.616C72.0865 120.616 68.6631 117.193 68.6631 112.97C68.6631 108.747 72.0865 105.323 76.3096 105.323C80.5326 105.323 83.9561 108.747 83.9561 112.97C83.9561 117.193 80.5326 120.616 76.3096 120.616Z" fill="#004357" stroke="#BDBDBD" stroke-width="0.527344"/>
<path d="M119.377 115.567C119.121 115.832 118.428 116.307 117.307 116.307C115.922 116.307 114.896 115.462 114.896 113.981C114.896 112.51 115.969 111.523 117.279 111.523C118.693 111.523 119.548 112.453 119.548 113.678C119.548 113.915 119.529 114.295 119.529 114.295H116.149C116.263 115.026 116.823 115.377 117.516 115.377C118.133 115.377 118.684 115.102 118.902 114.912L119.377 115.567ZM118.333 113.507C118.314 113.004 118.124 112.425 117.27 112.425C116.548 112.425 116.168 112.928 116.13 113.507H118.333Z" fill="#3C3E3E"/>
<path d="M107.182 111.608H108.397L108.387 112.301H108.416C108.624 111.874 109.184 111.523 109.782 111.523C110.447 111.523 110.846 111.789 111.064 112.396C111.387 111.836 111.909 111.523 112.573 111.523C113.779 111.523 114.111 112.377 114.111 113.431V116.203H112.896V113.63C112.896 113.07 112.773 112.52 112.175 112.52C111.567 112.52 111.254 113.042 111.254 113.83V116.203H110.039V113.621C110.039 112.994 109.877 112.52 109.298 112.52C108.672 112.52 108.397 113.108 108.397 113.83V116.203H107.182V111.608Z" fill="#3C3E3E"/>
<path d="M101.363 113.924C101.363 112.472 102.445 111.523 103.86 111.523C105.265 111.523 106.347 112.472 106.347 113.924C106.347 115.377 105.265 116.307 103.86 116.307C102.445 116.307 101.363 115.377 101.363 113.924ZM103.86 115.301C104.638 115.301 105.094 114.684 105.094 113.896C105.094 113.108 104.638 112.501 103.86 112.501C103.062 112.501 102.626 113.108 102.626 113.896C102.626 114.684 103.062 115.301 103.86 115.301Z" fill="#3C3E3E"/>
<path d="M100.998 115.69C100.903 115.775 100.428 116.307 99.204 116.307C97.951 116.307 96.793 115.443 96.793 113.943C96.793 112.434 97.989 111.523 99.223 111.523C100.381 111.523 100.837 111.988 100.96 112.111L100.628 113.023C100.485 112.89 100.077 112.539 99.3654 112.539C98.6439 112.539 98.0649 113.042 98.0649 113.887C98.0649 114.731 98.6439 115.282 99.4318 115.282C100.22 115.282 100.656 114.798 100.656 114.798L100.998 115.69Z" fill="#3C3E3E"/>
<path d="M91.7578 111.608H92.9728L92.9633 112.358C93.2386 111.77 93.7702 111.523 94.3682 111.523C95.6876 111.523 96.0198 112.377 96.0198 113.478V116.203H94.8048V113.744C94.8048 113.061 94.6814 112.52 93.979 112.52C93.2291 112.52 92.9728 113.146 92.9728 113.915V116.203H91.7578V111.608Z" fill="#3C3E3E"/>
<path d="M89.3125 109.653H90.5465V116.203H89.3125V109.653Z" fill="#3C3E3E"/>
<path d="M227.073 105.356H258.977C263.2 105.356 266.624 108.78 266.624 113.003C266.624 117.226 263.2 120.649 258.977 120.649H227.073C222.85 120.649 219.427 117.226 219.427 113.003C219.427 108.78 222.85 105.356 227.073 105.356Z" stroke="#BDBDBD" stroke-width="0.527344"/>
<path d="M241.496 115.498C241.407 115.52 241.082 115.616 240.654 115.616C240.233 115.616 239.953 115.491 239.768 115.277C239.584 115.062 239.51 114.76 239.51 114.206V112.796H238.993V111.903H239.51V110.913H240.699V111.903H241.503V112.796H240.699V114.103C240.699 114.413 240.743 114.487 240.802 114.553C240.854 114.612 240.927 114.642 241.082 114.642C241.267 114.642 241.437 114.575 241.437 114.575L241.496 115.498Z" fill="#7C7C7C"/>
<path d="M236.479 111.895H237.66L237.652 112.412H237.667C237.874 112.013 238.177 111.829 238.568 111.829C238.811 111.829 238.937 111.895 238.937 111.895L238.871 112.981H238.819C238.752 112.944 238.597 112.892 238.391 112.892C238.125 112.892 237.933 113.04 237.844 113.158C237.756 113.276 237.66 113.512 237.66 113.918V115.535H236.479V111.895Z" fill="#7C7C7C"/>
<path d="M234.595 115.151C234.44 115.306 234.145 115.616 233.554 115.616C232.912 115.616 232.232 115.269 232.232 114.457C232.232 113.645 232.978 113.372 233.65 113.342L234.565 113.305V113.224C234.565 112.84 234.292 112.641 233.82 112.641C233.355 112.641 232.889 112.848 232.705 112.966L232.395 112.198C232.705 112.043 233.273 111.829 233.953 111.829C234.632 111.829 235.023 111.984 235.311 112.25C235.592 112.515 235.747 112.87 235.747 113.483V115.535H234.617L234.595 115.151ZM233.99 113.97C233.628 113.985 233.414 114.14 233.414 114.413C233.414 114.693 233.643 114.863 233.967 114.863C234.285 114.863 234.499 114.656 234.573 114.531V113.933L233.99 113.97Z" fill="#7C7C7C"/>
<path d="M232.001 115.498C231.912 115.52 231.587 115.616 231.159 115.616C230.738 115.616 230.458 115.491 230.273 115.277C230.089 115.062 230.015 114.76 230.015 114.206V112.796H229.498V111.903H230.015V110.913H231.203V111.903H232.008V112.796H231.203V114.103C231.203 114.413 231.248 114.487 231.307 114.553C231.359 114.612 231.432 114.642 231.587 114.642C231.772 114.642 231.942 114.575 231.942 114.575L232.001 115.498Z" fill="#7C7C7C"/>
<path d="M226.082 113.985C226.451 114.369 227.019 114.627 227.411 114.627C227.795 114.627 228.09 114.442 228.09 114.103C228.09 113.756 227.706 113.63 227.492 113.542L226.783 113.276C226.141 113.04 225.713 112.656 225.713 111.903C225.713 110.854 226.65 110.382 227.588 110.382C228.179 110.382 228.858 110.662 229.205 111.009L228.695 111.844C228.4 111.548 227.942 111.327 227.558 111.327C227.174 111.327 226.894 111.474 226.894 111.785C226.894 112.095 227.167 112.213 227.411 112.301L228.171 112.589C228.813 112.833 229.279 113.246 229.279 113.985C229.279 115.092 228.282 115.624 227.3 115.624C226.562 115.624 225.905 115.24 225.491 114.856L226.082 113.985Z" fill="#7C7C7C"/>
<path d="M247.516 110.19L247.02 110.686L248.982 112.651H244.703V113.354H248.982L247.02 115.319L247.516 115.815L250.328 113.003L247.516 110.19Z" fill="#004357"/>
<path d="M73.3643 111.948C72.7842 111.948 72.3096 112.423 72.3096 113.003C72.3096 113.583 72.7842 114.057 73.3643 114.057C73.9443 114.057 74.4189 113.583 74.4189 113.003C74.4189 112.423 73.9443 111.948 73.3643 111.948ZM79.6924 111.948C79.1123 111.948 78.6377 112.423 78.6377 113.003C78.6377 113.583 79.1123 114.057 79.6924 114.057C80.2725 114.057 80.7471 113.583 80.7471 113.003C80.7471 112.423 80.2725 111.948 79.6924 111.948ZM76.5283 111.948C75.9482 111.948 75.4736 112.423 75.4736 113.003C75.4736 113.583 75.9482 114.057 76.5283 114.057C77.1084 114.057 77.583 113.583 77.583 113.003C77.583 112.423 77.1084 111.948 76.5283 111.948Z" fill="white"/>
</g>
<path d="M64.3994 102.557C64.3994 100.948 65.7039 99.6433 67.3131 99.6433H249.923C251.532 99.6433 252.837 100.948 252.837 102.557V123.448C252.837 125.058 251.532 126.362 249.923 126.362H67.3131C65.7039 126.362 64.3994 125.058 64.3994 123.448V102.557Z" stroke="#004357" stroke-width="0.527344"/>
<g opacity="0.4">
<g clip-path="url(#clip2_6291_211451)">
<path d="M60.1807 129.276C60.1807 127.667 61.4852 126.362 63.0943 126.362H245.705C247.314 126.362 248.618 127.667 248.618 129.276V149.464C248.618 151.073 247.314 152.378 245.704 152.378H63.0943C61.4852 152.378 60.1807 151.073 60.1807 149.464V129.276Z" fill="white"/>
<path d="M60.1807 129.341C60.1807 127.732 61.4852 126.428 63.0943 126.428H245.705C247.314 126.428 248.618 127.732 248.618 129.341V149.53C248.618 151.139 247.314 152.443 245.704 152.443H63.0943C61.4852 152.443 60.1807 151.139 60.1807 149.53V129.341Z" fill="white" stroke="#004357" stroke-width="0.527344"/>
<path d="M72.3096 147.016C68.0865 147.016 64.6631 143.593 64.6631 139.37C64.6631 135.147 68.0865 131.723 72.3096 131.723C76.5326 131.723 79.9561 135.147 79.9561 139.37C79.9561 143.593 76.5326 147.016 72.3096 147.016Z" fill="#F3F4F6" stroke="#BDBDBD" stroke-width="0.527344"/>
<path d="M120.876 141.136C121.417 141.554 121.883 141.763 122.272 141.763C122.727 141.763 122.936 141.592 122.936 141.326C122.936 141.089 122.756 140.956 122.167 140.757L121.636 140.576C120.952 140.349 120.601 139.94 120.601 139.267C120.601 138.431 121.361 137.89 122.243 137.89C123.06 137.89 123.515 138.108 123.895 138.384L123.373 139.191C123.107 138.991 122.718 138.801 122.3 138.801C121.902 138.801 121.702 138.953 121.702 139.172C121.702 139.371 121.854 139.532 122.367 139.694L122.689 139.798C123.705 140.13 124.066 140.491 124.066 141.155C124.066 142.029 123.373 142.674 122.243 142.674C121.541 142.674 120.753 142.389 120.383 141.962L120.876 141.136Z" fill="#3C3E3E"/>
<path d="M119.747 141.934C119.491 142.2 118.798 142.674 117.678 142.674C116.292 142.674 115.267 141.83 115.267 140.349C115.267 138.878 116.339 137.89 117.649 137.89C119.063 137.89 119.918 138.821 119.918 140.045C119.918 140.282 119.899 140.662 119.899 140.662H116.52C116.633 141.393 117.194 141.744 117.886 141.744C118.503 141.744 119.054 141.469 119.272 141.279L119.747 141.934ZM118.703 139.874C118.684 139.371 118.494 138.792 117.64 138.792C116.918 138.792 116.539 139.295 116.501 139.874H118.703Z" fill="#3C3E3E"/>
<path d="M111.624 141.136C112.166 141.554 112.631 141.763 113.02 141.763C113.475 141.763 113.684 141.592 113.684 141.326C113.684 141.089 113.504 140.956 112.915 140.757L112.384 140.576C111.7 140.349 111.349 139.94 111.349 139.267C111.349 138.431 112.109 137.89 112.991 137.89C113.808 137.89 114.263 138.108 114.643 138.384L114.121 139.191C113.855 138.991 113.466 138.801 113.048 138.801C112.65 138.801 112.45 138.953 112.45 139.172C112.45 139.371 112.602 139.532 113.115 139.694L113.437 139.798C114.453 140.13 114.814 140.491 114.814 141.155C114.814 142.029 114.121 142.674 112.991 142.674C112.289 142.674 111.501 142.389 111.131 141.962L111.624 141.136Z" fill="#3C3E3E"/>
<path d="M106.115 137.976H107.33L107.321 138.725C107.596 138.137 108.128 137.89 108.726 137.89C110.045 137.89 110.377 138.744 110.377 139.846V142.57H109.162V140.111C109.162 139.428 109.039 138.887 108.336 138.887C107.587 138.887 107.33 139.513 107.33 140.282V142.57H106.115V137.976Z" fill="#3C3E3E"/>
<path d="M105.138 141.934C104.881 142.2 104.188 142.674 103.068 142.674C101.682 142.674 100.657 141.829 100.657 140.349C100.657 138.877 101.73 137.89 103.04 137.89C104.454 137.89 105.308 138.82 105.308 140.045C105.308 140.282 105.289 140.662 105.289 140.662H101.91C102.024 141.393 102.584 141.744 103.277 141.744C103.894 141.744 104.445 141.469 104.663 141.279L105.138 141.934ZM104.093 139.874C104.074 139.371 103.885 138.792 103.03 138.792C102.309 138.792 101.929 139.295 101.891 139.874H104.093Z" fill="#3C3E3E"/>
<path d="M95.1768 137.976H96.4107L96.3918 138.65C96.762 138.099 97.3315 137.872 97.939 137.872C99.2869 137.872 100.113 138.916 100.113 140.283C100.113 141.583 99.2489 142.656 97.8536 142.656C97.1511 142.656 96.7525 142.409 96.3728 141.953C96.3823 142.238 96.3728 142.532 96.3728 142.817V144.307H95.1768V137.976ZM97.6352 141.725C98.4231 141.725 98.8787 141.051 98.8787 140.283C98.8787 139.485 98.3851 138.859 97.5973 138.859C96.8664 138.859 96.3538 139.419 96.3538 140.283C96.3538 141.051 96.8569 141.725 97.6352 141.725Z" fill="#3C3E3E"/>
<path d="M91.3389 140.159L89.7443 137.976H91.1301L92.0888 139.475L93.0475 137.976H94.4334L92.8387 140.168L94.6327 142.57H93.2374L92.0888 140.89L90.9403 142.57H89.5449L91.3389 140.159Z" fill="#3C3E3E"/>
<path d="M85.0938 136.02H89.1374V137.045H86.3277V138.669H88.9761V139.684H86.3277V141.545H89.2134V142.57H85.0938V136.02Z" fill="#3C3E3E"/>
<path d="M222.854 131.723H254.758C258.981 131.723 262.405 135.147 262.405 139.37C262.405 143.593 258.981 147.016 254.758 147.016H222.854C218.631 147.016 215.208 143.593 215.208 139.37C215.208 135.147 218.631 131.723 222.854 131.723Z" stroke="#BDBDBD" stroke-width="0.527344"/>
<path d="M237.277 141.865C237.189 141.888 236.864 141.984 236.436 141.984C236.015 141.984 235.734 141.858 235.55 141.644C235.365 141.43 235.291 141.127 235.291 140.573V139.163H234.774V138.27H235.291V137.281H236.48V138.27H237.285V139.163H236.48V140.47C236.48 140.78 236.524 140.854 236.583 140.92C236.635 140.98 236.709 141.009 236.864 141.009C237.048 141.009 237.218 140.943 237.218 140.943L237.277 141.865Z" fill="#7C7C7C"/>
<path d="M232.26 138.262H233.441L233.434 138.779H233.448C233.655 138.381 233.958 138.196 234.349 138.196C234.593 138.196 234.718 138.262 234.718 138.262L234.652 139.348H234.6C234.534 139.311 234.379 139.259 234.172 139.259C233.906 139.259 233.714 139.407 233.626 139.525C233.537 139.643 233.441 139.879 233.441 140.285V141.902H232.26V138.262Z" fill="#7C7C7C"/>
<path d="M230.376 141.518C230.221 141.673 229.926 141.983 229.335 141.983C228.693 141.983 228.014 141.636 228.014 140.824C228.014 140.012 228.759 139.739 229.431 139.71L230.347 139.673V139.591C230.347 139.207 230.073 139.008 229.601 139.008C229.136 139.008 228.671 139.215 228.486 139.333L228.176 138.565C228.486 138.41 229.055 138.196 229.734 138.196C230.413 138.196 230.804 138.351 231.092 138.617C231.373 138.883 231.528 139.237 231.528 139.85V141.902H230.398L230.376 141.518ZM229.771 140.337C229.409 140.352 229.195 140.507 229.195 140.78C229.195 141.061 229.424 141.23 229.749 141.23C230.066 141.23 230.28 141.024 230.354 140.898V140.3L229.771 140.337Z" fill="#7C7C7C"/>
<path d="M227.782 141.865C227.693 141.888 227.369 141.984 226.94 141.984C226.52 141.984 226.239 141.858 226.054 141.644C225.87 141.43 225.796 141.127 225.796 140.573V139.163H225.279V138.27H225.796V137.281H226.985V138.27H227.789V139.163H226.985V140.47C226.985 140.78 227.029 140.854 227.088 140.92C227.14 140.98 227.214 141.009 227.369 141.009C227.553 141.009 227.723 140.943 227.723 140.943L227.782 141.865Z" fill="#7C7C7C"/>
<path d="M221.863 140.352C222.232 140.736 222.801 140.994 223.192 140.994C223.576 140.994 223.871 140.81 223.871 140.47C223.871 140.123 223.487 139.997 223.273 139.909L222.564 139.643C221.922 139.407 221.494 139.023 221.494 138.27C221.494 137.222 222.432 136.749 223.369 136.749C223.96 136.749 224.639 137.03 224.986 137.377L224.477 138.211C224.181 137.916 223.724 137.694 223.34 137.694C222.956 137.694 222.675 137.842 222.675 138.152C222.675 138.462 222.948 138.58 223.192 138.669L223.952 138.956C224.595 139.2 225.06 139.614 225.06 140.352C225.06 141.459 224.063 141.991 223.081 141.991C222.343 141.991 221.686 141.607 221.272 141.223L221.863 140.352Z" fill="#7C7C7C"/>
<path d="M243.297 136.557L242.801 137.053L244.763 139.018H240.484V139.721H244.763L242.801 141.687L243.297 142.182L246.109 139.37L243.297 136.557Z" fill="#004357"/>
<path d="M69.1455 138.315C68.5654 138.315 68.0908 138.79 68.0908 139.37C68.0908 139.95 68.5654 140.425 69.1455 140.425C69.7256 140.425 70.2002 139.95 70.2002 139.37C70.2002 138.79 69.7256 138.315 69.1455 138.315ZM75.4736 138.315C74.8936 138.315 74.4189 138.79 74.4189 139.37C74.4189 139.95 74.8936 140.425 75.4736 140.425C76.0537 140.425 76.5283 139.95 76.5283 139.37C76.5283 138.79 76.0537 138.315 75.4736 138.315ZM72.3096 138.315C71.7295 138.315 71.2549 138.79 71.2549 139.37C71.2549 139.95 71.7295 140.425 72.3096 140.425C72.8896 140.425 73.3643 139.95 73.3643 139.37C73.3643 138.79 72.8896 138.315 72.3096 138.315Z" fill="#3C3E3E"/>
</g>
<path d="M60.1807 129.276C60.1807 127.667 61.4852 126.362 63.0943 126.362H245.705C247.314 126.362 248.618 127.667 248.618 129.276V149.464C248.618 151.073 247.314 152.378 245.704 152.378H63.0943C61.4852 152.378 60.1807 151.073 60.1807 149.464V129.276Z" stroke="#004357" stroke-width="0.527344"/>
</g>
<g opacity="0.4">
<g clip-path="url(#clip3_6291_211451)">
<path d="M64.3994 155.291C64.3994 153.682 65.7039 152.378 67.3131 152.378H249.923C251.532 152.378 252.837 153.682 252.837 155.291V176.183C252.837 177.792 251.532 179.096 249.923 179.096H67.3131C65.7039 179.096 64.3994 177.792 64.3994 176.183V155.291Z" fill="white"/>
<path d="M64.1807 154.941C64.1807 153.332 65.4852 152.028 67.0943 152.028H249.705C251.314 152.028 252.618 153.332 252.618 154.941V175.13C252.618 176.739 251.314 178.043 249.704 178.043H67.0943C65.4852 178.043 64.1807 176.739 64.1807 175.13V154.941Z" fill="white" stroke="#004357" stroke-width="0.527344"/>
<path d="M76.5283 173.384C72.3053 173.384 68.8818 169.96 68.8818 165.737C68.8818 161.514 72.3053 158.091 76.5283 158.091C80.7514 158.091 84.1748 161.514 84.1748 165.737C84.1748 169.96 80.7514 173.384 76.5283 173.384Z" fill="#F3F4F6" stroke="#BDBDBD" stroke-width="0.527344"/>
<path d="M110.106 167.504C110.647 167.921 111.112 168.13 111.501 168.13C111.957 168.13 112.166 167.959 112.166 167.693C112.166 167.456 111.985 167.323 111.397 167.124L110.865 166.944C110.182 166.716 109.831 166.308 109.831 165.634C109.831 164.798 110.59 164.257 111.473 164.257C112.289 164.257 112.745 164.476 113.124 164.751L112.602 165.558C112.337 165.358 111.947 165.169 111.53 165.169C111.131 165.169 110.932 165.32 110.932 165.539C110.932 165.738 111.084 165.899 111.596 166.061L111.919 166.165C112.935 166.497 113.295 166.858 113.295 167.523C113.295 168.396 112.602 169.041 111.473 169.041C110.77 169.041 109.982 168.757 109.612 168.329L110.106 167.504Z" fill="#3C3E3E"/>
<path d="M109.251 168.89C109.194 168.909 108.834 169.042 108.321 169.042C107.865 169.042 107.533 168.947 107.324 168.709C107.087 168.453 106.992 168.045 106.992 167.418V165.292H106.309V164.352H106.992V163.042H108.198V164.352H109.261V165.292H108.198V167.153C108.198 167.523 108.226 167.741 108.321 167.874C108.397 167.988 108.539 168.026 108.748 168.026C108.995 168.026 109.185 167.95 109.185 167.95L109.251 168.89Z" fill="#3C3E3E"/>
<path d="M101.01 162.387H102.225V164.438C102.225 164.694 102.206 164.903 102.196 165.036C102.623 164.447 103.174 164.238 103.772 164.238C105.11 164.238 105.946 165.292 105.946 166.64C105.946 167.95 105.082 169.022 103.687 169.022C103.041 169.022 102.519 168.795 102.158 168.273L102.13 168.937H101.01V162.387ZM103.468 168.092C104.256 168.092 104.712 167.418 104.712 166.649C104.712 165.852 104.218 165.226 103.43 165.226C102.699 165.226 102.187 165.786 102.187 166.649C102.187 167.418 102.69 168.092 103.468 168.092Z" fill="#3C3E3E"/>
<path d="M99.9852 168.301C99.7289 168.567 99.036 169.041 97.9159 169.041C96.53 169.041 95.5049 168.197 95.5049 166.716C95.5049 165.245 96.5775 164.257 97.8874 164.257C99.3018 164.257 100.156 165.188 100.156 166.412C100.156 166.649 100.137 167.029 100.137 167.029H96.7579C96.8718 167.76 97.4318 168.111 98.1247 168.111C98.7417 168.111 99.2923 167.836 99.5106 167.646L99.9852 168.301ZM98.9411 166.241C98.9221 165.738 98.7322 165.159 97.8779 165.159C97.1565 165.159 96.7768 165.662 96.7389 166.241H98.9411Z" fill="#3C3E3E"/>
<path d="M91.4103 162.387C92.5493 162.387 93.3941 162.758 93.8972 163.213C94.4098 163.659 94.9414 164.409 94.9414 165.653C94.9414 166.906 94.4098 167.675 93.8972 168.121C93.3941 168.567 92.5493 168.937 91.4103 168.937H89.3125V162.387H91.4103ZM91.4577 167.893C92.1696 167.893 92.6917 167.656 93.0145 167.352C93.3277 167.048 93.6694 166.545 93.6694 165.662C93.6694 164.789 93.3277 164.257 93.0145 163.954C92.6917 163.659 92.1696 163.422 91.4577 163.422H90.5465V167.893H91.4577Z" fill="#3C3E3E"/>
<path d="M227.073 158.091H258.977C263.2 158.091 266.624 161.514 266.624 165.737C266.624 169.96 263.2 173.384 258.977 173.384H227.073C222.85 173.384 219.427 169.96 219.427 165.737C219.427 161.514 222.85 158.091 227.073 158.091Z" stroke="#BDBDBD" stroke-width="0.527344"/>
<path d="M241.496 168.232C241.407 168.255 241.082 168.351 240.654 168.351C240.233 168.351 239.953 168.225 239.768 168.011C239.584 167.797 239.51 167.494 239.51 166.94V165.53H238.993V164.637H239.51V163.648H240.699V164.637H241.503V165.53H240.699V166.837C240.699 167.147 240.743 167.221 240.802 167.287C240.854 167.346 240.927 167.376 241.082 167.376C241.267 167.376 241.437 167.31 241.437 167.31L241.496 168.232Z" fill="#7C7C7C"/>
<path d="M236.479 164.63H237.66L237.652 165.146H237.667C237.874 164.748 238.177 164.563 238.568 164.563C238.811 164.563 238.937 164.63 238.937 164.63L238.871 165.715H238.819C238.752 165.678 238.597 165.626 238.391 165.626C238.125 165.626 237.933 165.774 237.844 165.892C237.756 166.01 237.66 166.247 237.66 166.653V168.269H236.479V164.63Z" fill="#7C7C7C"/>
<path d="M234.595 167.885C234.44 168.041 234.145 168.351 233.554 168.351C232.912 168.351 232.232 168.004 232.232 167.192C232.232 166.379 232.978 166.106 233.65 166.077L234.565 166.04V165.959C234.565 165.575 234.292 165.375 233.82 165.375C233.355 165.375 232.889 165.582 232.705 165.7L232.395 164.932C232.705 164.777 233.273 164.563 233.953 164.563C234.632 164.563 235.023 164.718 235.311 164.984C235.592 165.25 235.747 165.604 235.747 166.217V168.269H234.617L234.595 167.885ZM233.99 166.704C233.628 166.719 233.414 166.874 233.414 167.147C233.414 167.428 233.643 167.598 233.967 167.598C234.285 167.598 234.499 167.391 234.573 167.265V166.667L233.99 166.704Z" fill="#7C7C7C"/>
<path d="M232.001 168.232C231.912 168.255 231.587 168.351 231.159 168.351C230.738 168.351 230.458 168.225 230.273 168.011C230.089 167.797 230.015 167.494 230.015 166.94V165.53H229.498V164.637H230.015V163.648H231.203V164.637H232.008V165.53H231.203V166.837C231.203 167.147 231.248 167.221 231.307 167.287C231.359 167.346 231.432 167.376 231.587 167.376C231.772 167.376 231.942 167.31 231.942 167.31L232.001 168.232Z" fill="#7C7C7C"/>
<path d="M226.082 166.719C226.451 167.103 227.019 167.361 227.411 167.361C227.795 167.361 228.09 167.177 228.09 166.837C228.09 166.49 227.706 166.365 227.492 166.276L226.783 166.01C226.141 165.774 225.713 165.39 225.713 164.637C225.713 163.589 226.65 163.116 227.588 163.116C228.179 163.116 228.858 163.397 229.205 163.744L228.695 164.578C228.4 164.283 227.942 164.061 227.558 164.061C227.174 164.061 226.894 164.209 226.894 164.519C226.894 164.829 227.167 164.947 227.411 165.036L228.171 165.324C228.813 165.567 229.279 165.981 229.279 166.719C229.279 167.826 228.282 168.358 227.3 168.358C226.562 168.358 225.905 167.974 225.491 167.59L226.082 166.719Z" fill="#7C7C7C"/>
<path d="M247.516 162.925L247.02 163.42L248.982 165.385H244.703V166.089H248.982L247.02 168.054L247.516 168.55L250.328 165.737L247.516 162.925Z" fill="#004357"/>
<path d="M73.3643 164.682C72.7842 164.682 72.3096 165.157 72.3096 165.737C72.3096 166.317 72.7842 166.792 73.3643 166.792C73.9443 166.792 74.4189 166.317 74.4189 165.737C74.4189 165.157 73.9443 164.682 73.3643 164.682ZM79.6924 164.682C79.1123 164.682 78.6377 165.157 78.6377 165.737C78.6377 166.317 79.1123 166.792 79.6924 166.792C80.2725 166.792 80.7471 166.317 80.7471 165.737C80.7471 165.157 80.2725 164.682 79.6924 164.682ZM76.5283 164.682C75.9482 164.682 75.4736 165.157 75.4736 165.737C75.4736 166.317 75.9482 166.792 76.5283 166.792C77.1084 166.792 77.583 166.317 77.583 165.737C77.583 165.157 77.1084 164.682 76.5283 164.682Z" fill="#3C3E3E"/>
</g>
<path d="M64.3994 155.291C64.3994 153.682 65.7039 152.378 67.3131 152.378H249.923C251.532 152.378 252.837 153.682 252.837 155.291V176.183C252.837 177.792 251.532 179.096 249.923 179.096H67.3131C65.7039 179.096 64.3994 177.792 64.3994 176.183V155.291Z" stroke="#004357" stroke-width="0.527344"/>
</g>
<path d="M51.2153 109.292C51.4254 109.618 51.3311 110.053 51.0045 110.263L45.6832 113.688C45.3566 113.898 44.9215 113.804 44.7114 113.477C44.5012 113.151 44.5956 112.716 44.9221 112.506L49.6522 109.461L46.6081 104.731C46.398 104.405 46.4923 103.97 46.8189 103.76C47.1454 103.549 47.5805 103.644 47.7906 103.97L51.2153 109.292ZM25.1375 50.2116C17.1664 58.8289 14.5685 71.5585 18.4566 83.1148C22.3357 94.6443 32.6978 105.065 50.773 108.985L50.475 110.359C31.9703 106.346 21.1777 95.6124 17.1237 83.5633C13.0789 71.541 15.7696 58.2681 24.1052 49.2567L25.1375 50.2116Z" fill="#004357"/>
<path d="M309.721 130.581L291.396 130.581C288.29 130.581 285.771 133.1 285.771 136.206L285.771 163.045" stroke="#BED73C" stroke-width="1.40625" stroke-linecap="round" stroke-linejoin="round" stroke-dasharray="2.81 2.81"/>
<path d="M190.225 203.68L178.306 203.68C175.199 203.68 172.681 201.161 172.681 198.055L172.681 182.586" stroke="#BED73C" stroke-width="1.40625" stroke-linecap="round" stroke-linejoin="round" stroke-dasharray="2.81 2.81"/>
<path d="M204.161 166.189H307.551C313.296 166.189 317.954 170.847 317.954 176.592V228.602C317.954 234.348 313.296 239.005 307.551 239.005H204.161C198.415 239.005 193.758 234.348 193.758 228.602V176.592C193.758 170.847 198.415 166.189 204.161 166.189Z" fill="white"/>
<path d="M204.161 166.189H307.551C313.296 166.189 317.954 170.847 317.954 176.592V228.602C317.954 234.348 313.296 239.005 307.551 239.005H204.161C198.415 239.005 193.758 234.348 193.758 228.602V176.592C193.758 170.847 198.415 166.189 204.161 166.189Z" stroke="#004357" stroke-width="0.904586"/>
<path d="M204.161 166.08H307.551C313.296 166.08 317.953 170.737 317.953 176.483V228.602C317.953 234.348 313.296 239.005 307.551 239.005H204.161C198.415 239.005 193.758 234.348 193.758 228.602V176.483C193.758 170.737 198.415 166.08 204.161 166.08Z" fill="white" stroke="#004357" stroke-width="0.904586"/>
<g clip-path="url(#clip4_6291_211451)">
<path d="M231.881 198.568L223.883 195.607V193.907C223.883 193.592 223.622 193.331 223.307 193.331C222.991 193.331 222.73 193.592 222.73 193.907V195.738L220.23 197.799L217.731 195.738V193.915C217.731 193.6 217.469 193.338 217.154 193.338C216.839 193.338 216.577 193.6 216.577 193.915V195.615L208.579 198.575C207.157 199.106 206.195 200.483 206.195 201.998V211.78C206.195 212.095 206.457 212.357 206.772 212.357H233.689C234.004 212.357 234.265 212.095 234.265 211.78V201.99C234.265 200.475 233.304 199.098 231.881 198.568ZM216.624 199.129L217.416 196.968L219.138 198.391L216.885 199.375C216.785 199.421 216.708 199.375 216.677 199.337C216.639 199.306 216.585 199.237 216.624 199.129ZM219.146 202.736H221.315L223.345 211.195H217.116L219.146 202.736ZM221.276 201.582H219.177L218.877 199.767L220.23 199.175L221.584 199.767L221.276 201.582ZM221.322 198.391L223.045 196.968L223.837 199.129C223.876 199.229 223.822 199.306 223.791 199.337C223.76 199.368 223.683 199.414 223.583 199.375L221.322 198.391ZM207.349 201.99C207.349 200.952 208.003 200.006 208.979 199.644L216.185 196.976L215.539 198.737C215.355 199.252 215.485 199.806 215.878 200.175C216.139 200.421 216.462 200.544 216.793 200.544C216.977 200.544 217.162 200.506 217.339 200.429L217.785 200.237L218.1 202.136L215.931 211.195H211.194V209.081C211.194 208.765 210.933 208.504 210.617 208.504C210.302 208.504 210.041 208.765 210.041 209.081V211.195H207.349V201.99ZM233.112 211.195H230.42V209.081C230.42 208.765 230.159 208.504 229.843 208.504C229.528 208.504 229.267 208.765 229.267 209.081V211.195H224.529L222.353 202.136L222.668 200.237L223.114 200.429C223.291 200.506 223.476 200.544 223.66 200.544C223.991 200.544 224.322 200.421 224.575 200.175C224.975 199.798 225.106 199.245 224.914 198.737L224.276 196.984L231.481 199.652C232.458 200.014 233.112 200.952 233.112 201.998V211.195Z" fill="#004357"/>
<path d="M229.844 206.197C229.529 206.197 229.268 206.458 229.268 206.773V207.158C229.268 207.473 229.529 207.735 229.844 207.735C230.16 207.735 230.421 207.473 230.421 207.158V206.773C230.421 206.458 230.16 206.197 229.844 206.197Z" fill="#004357"/>
<path d="M210.618 207.735C210.933 207.735 211.195 207.473 211.195 207.158V206.773C211.195 206.458 210.933 206.197 210.618 206.197C210.302 206.197 210.041 206.458 210.041 206.773V207.158C210.041 207.473 210.302 207.735 210.618 207.735Z" fill="#004357"/>
<path d="M218.501 190.47C218.501 189.516 219.277 188.74 220.231 188.74H225.122C225.314 188.201 225.422 187.617 225.422 187.009V183.933C225.422 181.072 223.092 178.742 220.231 178.742C217.37 178.742 215.04 181.072 215.04 183.933V187.009C215.04 189.87 217.37 192.2 220.231 192.2C219.277 192.2 218.501 191.423 218.501 190.47Z" fill="#BED73C"/>
<path d="M228.69 181.434H227.729V180.472C227.729 176.335 224.368 172.974 220.231 172.974C216.093 172.974 212.732 176.335 212.732 180.472V181.434H211.771C210.602 181.434 209.656 182.38 209.656 183.548V188.932C209.656 190.101 210.602 191.047 211.771 191.047C212.94 191.047 213.886 190.101 213.886 188.932V180.472C213.886 176.973 216.731 174.128 220.231 174.128C223.73 174.128 226.575 176.973 226.575 180.472V189.893H220.231C219.915 189.893 219.654 190.155 219.654 190.47C219.654 190.785 219.915 191.047 220.231 191.047H228.69C229.859 191.047 230.805 190.101 230.805 188.932V183.548C230.805 182.38 229.859 181.434 228.69 181.434Z" fill="#BED73C"/>
</g>
<path d="M309.041 219.585H310.981L310.807 226.706H309.201L309.041 219.585ZM308.839 228.66C308.839 227.98 309.316 227.575 310.011 227.575C310.677 227.575 311.169 227.98 311.169 228.66C311.169 229.326 310.677 229.731 310.011 229.731C309.316 229.731 308.839 229.326 308.839 228.66Z" fill="#3C3E3E"/>
<path d="M299.773 222.567H301.655L301.626 223.595C302.19 222.755 303.059 222.408 303.985 222.408C306.04 222.408 307.3 224 307.3 226.084C307.3 228.067 305.983 229.702 303.855 229.702C302.784 229.702 302.176 229.326 301.597 228.631C301.612 229.065 301.597 229.514 301.597 229.948V232.221H299.773V222.567ZM303.522 228.284C304.723 228.284 305.418 227.256 305.418 226.084C305.418 224.868 304.665 223.913 303.464 223.913C302.35 223.913 301.568 224.767 301.568 226.084C301.568 227.256 302.335 228.284 303.522 228.284Z" fill="#3C3E3E"/>
<path d="M296.114 219.585H297.952V229.572H296.114V219.585Z" fill="#3C3E3E"/>
<path d="M294.551 228.602C294.16 229.008 293.104 229.731 291.396 229.731C289.283 229.731 287.72 228.443 287.72 226.185C287.72 223.942 289.355 222.437 291.353 222.437C293.509 222.437 294.812 223.855 294.812 225.722C294.812 226.084 294.783 226.663 294.783 226.663H289.63C289.804 227.777 290.658 228.313 291.714 228.313C292.655 228.313 293.495 227.893 293.827 227.604L294.551 228.602ZM292.959 225.462C292.93 224.695 292.641 223.812 291.338 223.812C290.238 223.812 289.659 224.579 289.601 225.462H292.959Z" fill="#3C3E3E"/>
<path d="M280.029 219.585H281.867V223.624H281.896C282.273 222.885 282.982 222.437 283.995 222.437C286.007 222.437 286.513 223.739 286.513 225.418V229.572H284.661V225.823C284.661 224.781 284.473 223.956 283.402 223.956C282.258 223.956 281.867 224.912 281.867 226.084V229.572H280.029V219.585Z" fill="#3C3E3E"/>
<path d="M268.216 226.099C268.216 223.884 269.866 222.437 272.022 222.437C274.164 222.437 275.814 223.884 275.814 226.099C275.814 228.313 274.164 229.731 272.022 229.731C269.866 229.731 268.216 228.313 268.216 226.099ZM272.022 228.197C273.209 228.197 273.904 227.256 273.904 226.055C273.904 224.854 273.209 223.928 272.022 223.928C270.807 223.928 270.141 224.854 270.141 226.055C270.141 227.256 270.807 228.197 272.022 228.197Z" fill="#3C3E3E"/>
<path d="M267.579 229.5C267.492 229.529 266.942 229.731 266.16 229.731C265.465 229.731 264.959 229.587 264.64 229.225C264.279 228.834 264.134 228.212 264.134 227.256V224.014H263.092V222.582H264.134V220.584H265.972V222.582H267.593V224.014H265.972V226.851C265.972 227.416 266.015 227.749 266.16 227.951C266.276 228.125 266.493 228.183 266.811 228.183C267.188 228.183 267.477 228.067 267.477 228.067L267.579 229.5Z" fill="#3C3E3E"/>
<path d="M259.456 228.602C259.066 229.008 258.009 229.731 256.301 229.731C254.188 229.731 252.625 228.443 252.625 226.185C252.625 223.942 254.26 222.437 256.258 222.437C258.414 222.437 259.717 223.855 259.717 225.722C259.717 226.084 259.688 226.663 259.688 226.663H254.535C254.709 227.777 255.563 228.313 256.62 228.313C257.56 228.313 258.4 227.893 258.733 227.604L259.456 228.602ZM257.864 225.462C257.835 224.695 257.546 223.812 256.243 223.812C255.143 223.812 254.564 224.579 254.507 225.462H257.864Z" fill="#3C3E3E"/>
<path d="M247.858 222.567H249.697L249.668 223.696H249.711C249.986 222.943 250.681 222.437 251.433 222.437C251.911 222.437 252.171 222.567 252.171 222.567L252.041 224.174H251.954C251.752 224.116 251.433 224.087 251.187 224.087C250.637 224.087 250.203 224.318 249.957 224.767C249.769 225.114 249.697 225.592 249.697 226.127V229.572H247.858V222.567Z" fill="#3C3E3E"/>
<path d="M246.368 228.602C245.977 229.008 244.92 229.731 243.212 229.731C241.099 229.731 239.536 228.443 239.536 226.185C239.536 223.942 241.172 222.437 243.169 222.437C245.325 222.437 246.628 223.855 246.628 225.722C246.628 226.084 246.599 226.663 246.599 226.663H241.447C241.62 227.777 242.474 228.313 243.531 228.313C244.472 228.313 245.311 227.893 245.644 227.604L246.368 228.602ZM244.776 225.462C244.747 224.695 244.457 223.812 243.154 223.812C242.055 223.812 241.476 224.579 241.418 225.462H244.776Z" fill="#3C3E3E"/>
<path d="M231.846 219.585H233.684V223.624H233.713C234.089 222.885 234.798 222.437 235.811 222.437C237.823 222.437 238.33 223.739 238.33 225.418V229.572H236.477V225.823C236.477 224.781 236.289 223.956 235.218 223.956C234.075 223.956 233.684 224.912 233.684 226.084V229.572H231.846V219.585Z" fill="#3C3E3E"/>
<path d="M216.678 222.567H218.53L218.516 223.624H218.559C218.878 222.972 219.732 222.437 220.643 222.437C221.657 222.437 222.264 222.842 222.597 223.768C223.089 222.914 223.885 222.437 224.899 222.437C226.737 222.437 227.243 223.739 227.243 225.346V229.572H225.391V225.65C225.391 224.796 225.203 223.956 224.291 223.956C223.364 223.956 222.887 224.753 222.887 225.954V229.572H221.034V225.635C221.034 224.68 220.788 223.956 219.905 223.956C218.95 223.956 218.53 224.854 218.53 225.954V229.572H216.678V222.567Z" fill="#3C3E3E"/>
<path d="M212.959 219.585H214.783L213.408 222.943H211.902L212.959 219.585Z" fill="#3C3E3E"/>
<path d="M208.13 219.585H210.011V229.572H208.13V219.585Z" fill="#3C3E3E"/>
<path d="M204.754 219.585H206.187L205.13 222.943H203.379L204.754 219.585ZM201.917 219.585H203.35L202.293 222.943H200.542L201.917 219.585Z" fill="#3C3E3E"/>
<path d="M294.418 245.991L286.066 238.553H306.379L298.028 245.991C296.999 246.908 295.447 246.908 294.418 245.991Z" fill="white"/>
<path d="M286.089 239.184L294.489 246.159C295.494 246.994 296.951 246.994 297.956 246.159L306.354 239.184" stroke="#004357" stroke-width="0.904586" stroke-linecap="square"/>
<path d="M329.258 243.616C328.871 243.652 328.586 243.994 328.622 244.381L329.203 250.682C329.239 251.069 329.581 251.354 329.968 251.318C330.355 251.282 330.639 250.94 330.604 250.553L330.087 244.952L335.688 244.435C336.075 244.4 336.359 244.057 336.324 243.67C336.288 243.284 335.946 242.999 335.559 243.035L329.258 243.616ZM391.201 229.113C374.092 256.937 344.45 255.975 329.772 243.776L328.873 244.857C344.179 257.578 374.821 258.436 392.399 229.85L391.201 229.113Z" fill="#004357"/>
<path d="M368.09 100.334C368.353 100.62 368.797 100.639 369.084 100.377L373.748 96.0999C374.034 95.8374 374.053 95.3926 373.791 95.1064C373.528 94.8202 373.083 94.801 372.797 95.0634L368.651 98.8652L364.85 94.7195C364.587 94.4333 364.142 94.414 363.856 94.6765C363.57 94.9389 363.551 95.3837 363.813 95.6699L368.09 100.334ZM369.311 99.889C370.723 67.2568 397.089 53.6772 415.848 57.1944L416.107 55.8122C396.546 52.1446 369.357 66.3016 367.906 99.8282L369.311 99.889Z" fill="#004357"/>
<g clip-path="url(#clip5_6291_211451)">
<path d="M311.979 109.122C311.979 107.26 313.489 105.75 315.351 105.75H516.03C517.892 105.75 519.401 107.26 519.401 109.122V163.822C519.401 165.684 517.892 167.194 516.03 167.194H315.351C313.489 167.194 311.979 165.684 311.979 163.822V109.122Z" fill="#F3F4F6"/>
<path d="M311.979 109.122C311.979 107.26 313.489 105.75 315.351 105.75H516.03C517.892 105.75 519.401 107.26 519.401 109.122V163.822C519.401 165.684 517.892 167.194 516.03 167.194H315.351C313.489 167.194 311.979 165.684 311.979 163.822V109.122Z" fill="white"/>
<path d="M469.446 118.506C469.446 117.916 469.861 117.564 470.464 117.564C471.042 117.564 471.469 117.916 471.469 118.506C471.469 119.084 471.042 119.436 470.464 119.436C469.861 119.436 469.446 119.084 469.446 118.506Z" fill="#3C3E3E"/>
<path d="M467.939 118.456C467.6 118.808 466.683 119.436 465.2 119.436C463.366 119.436 462.01 118.318 462.01 116.358C462.01 114.411 463.429 113.105 465.163 113.105C467.034 113.105 468.165 114.336 468.165 115.956C468.165 116.27 468.14 116.773 468.14 116.773H463.668C463.819 117.74 464.56 118.205 465.477 118.205C466.293 118.205 467.022 117.84 467.311 117.589L467.939 118.456ZM466.557 115.73C466.532 115.064 466.281 114.298 465.15 114.298C464.195 114.298 463.693 114.964 463.643 115.73H466.557Z" fill="#3C3E3E"/>
<path d="M455.321 113.218H456.929L456.917 114.21C457.281 113.431 457.984 113.105 458.776 113.105C460.522 113.105 460.961 114.235 460.961 115.692V119.298H459.354V116.044C459.354 115.14 459.19 114.424 458.261 114.424C457.268 114.424 456.929 115.253 456.929 116.27V119.298H455.321V113.218Z" fill="#3C3E3E"/>
<path d="M447.622 116.283C447.622 114.361 449.054 113.105 450.926 113.105C452.785 113.105 454.217 114.361 454.217 116.283C454.217 118.205 452.785 119.436 450.926 119.436C449.054 119.436 447.622 118.205 447.622 116.283ZM450.926 118.104C451.956 118.104 452.559 117.288 452.559 116.245C452.559 115.203 451.956 114.399 450.926 114.399C449.871 114.399 449.293 115.203 449.293 116.245C449.293 117.288 449.871 118.104 450.926 118.104Z" fill="#3C3E3E"/>
<path d="M444.905 119.298L444.918 118.343C444.428 119.122 443.636 119.436 442.795 119.436C441.011 119.436 439.918 118.054 439.918 116.245C439.918 114.524 441.061 113.105 442.908 113.105C443.724 113.105 444.44 113.406 444.867 114.059C444.855 113.783 444.855 113.457 444.855 113.029V110.63H446.45V119.298H444.905ZM443.247 118.129C444.214 118.129 444.892 117.388 444.892 116.245C444.892 115.228 444.227 114.336 443.197 114.336C442.154 114.336 441.551 115.228 441.551 116.245C441.551 117.3 442.204 118.129 443.247 118.129Z" fill="#3C3E3E"/>
<path d="M436.875 119.235C436.799 119.26 436.322 119.436 435.644 119.436C435.041 119.436 434.601 119.31 434.325 118.996C434.011 118.657 433.885 118.117 433.885 117.288V114.474H432.98V113.23H433.885V111.497H435.48V113.23H436.887V114.474H435.48V116.936C435.48 117.426 435.518 117.715 435.644 117.891C435.744 118.041 435.932 118.092 436.209 118.092C436.535 118.092 436.787 117.991 436.787 117.991L436.875 119.235Z" fill="#3C3E3E"/>
<path d="M428.388 117.401C429.104 117.954 429.719 118.23 430.234 118.23C430.837 118.23 431.113 118.004 431.113 117.652C431.113 117.338 430.875 117.162 430.096 116.898L429.393 116.66C428.488 116.358 428.023 115.818 428.023 114.926C428.023 113.821 429.028 113.105 430.196 113.105C431.277 113.105 431.88 113.394 432.382 113.758L431.691 114.826C431.34 114.562 430.825 114.311 430.272 114.311C429.744 114.311 429.48 114.512 429.48 114.801C429.48 115.064 429.681 115.278 430.36 115.491L430.787 115.63C432.131 116.069 432.608 116.547 432.608 117.426C432.608 118.582 431.691 119.436 430.196 119.436C429.267 119.436 428.224 119.059 427.734 118.494L428.388 117.401Z" fill="#3C3E3E"/>
<path d="M420.485 116.283C420.485 114.361 421.917 113.105 423.789 113.105C425.648 113.105 427.08 114.361 427.08 116.283C427.08 118.205 425.648 119.436 423.789 119.436C421.917 119.436 420.485 118.205 420.485 116.283ZM423.789 118.104C424.819 118.104 425.422 117.288 425.422 116.245C425.422 115.203 424.819 114.399 423.789 114.399C422.734 114.399 422.156 115.203 422.156 116.245C422.156 117.288 422.734 118.104 423.789 118.104Z" fill="#3C3E3E"/>
<path d="M410.252 113.218H411.86L411.847 114.135H411.885C412.161 113.57 412.902 113.105 413.694 113.105C414.573 113.105 415.101 113.456 415.39 114.26C415.817 113.519 416.508 113.105 417.387 113.105C418.982 113.105 419.422 114.235 419.422 115.63V119.298H417.814V115.893C417.814 115.152 417.651 114.424 416.859 114.424C416.055 114.424 415.641 115.115 415.641 116.157V119.298H414.033V115.881C414.033 115.052 413.819 114.424 413.053 114.424C412.224 114.424 411.86 115.203 411.86 116.157V119.298H410.252V113.218Z" fill="#3C3E3E"/>
<path d="M407.113 110.63H408.709V119.298H407.113V110.63Z" fill="#3C3E3E"/>
<path d="M404.103 118.594C403.852 119.034 403.148 119.436 402.244 119.436C401.063 119.436 400.108 118.795 400.108 117.526C400.108 116.258 401.352 115.768 402.608 115.68L404.065 115.579V115.416C404.065 114.637 403.55 114.273 402.709 114.273C401.905 114.273 401.239 114.574 400.975 114.775L400.485 113.745C400.95 113.469 401.804 113.105 402.859 113.105C403.94 113.105 404.555 113.381 405.007 113.808C405.447 114.235 405.673 114.788 405.673 115.818V119.298H404.128L404.103 118.594ZM402.985 116.622C402.131 116.672 401.716 116.961 401.716 117.476C401.716 117.991 402.106 118.343 402.771 118.343C403.4 118.343 403.864 117.979 404.078 117.677V116.559L402.985 116.622Z" fill="#3C3E3E"/>
<path d="M396.789 118.456C396.45 118.808 395.533 119.436 394.051 119.436C392.217 119.436 390.86 118.318 390.86 116.358C390.86 114.411 392.28 113.105 394.013 113.105C395.885 113.105 397.016 114.336 397.016 115.956C397.016 116.27 396.99 116.773 396.99 116.773H392.518C392.669 117.74 393.41 118.205 394.327 118.205C395.144 118.205 395.872 117.84 396.161 117.589L396.789 118.456ZM395.408 115.73C395.383 115.064 395.131 114.298 394.001 114.298C393.046 114.298 392.544 114.964 392.493 115.73H395.408Z" fill="#3C3E3E"/>
<path d="M386.724 113.218H388.319L388.294 114.198H388.332C388.57 113.544 389.173 113.105 389.826 113.105C390.241 113.105 390.467 113.218 390.467 113.218L390.354 114.612H390.279C390.103 114.562 389.826 114.537 389.613 114.537C389.135 114.537 388.759 114.738 388.545 115.127C388.382 115.429 388.319 115.843 388.319 116.308V119.298H386.724V113.218Z" fill="#3C3E3E"/>
<path d="M383.495 110.63H385.078L383.885 113.544H382.578L383.495 110.63Z" fill="#3C3E3E"/>
<path d="M379.492 118.443C379.14 119.046 378.487 119.411 377.608 119.411C376.867 119.411 376.364 119.21 376.025 118.871C375.573 118.406 375.435 117.665 375.435 116.823V113.218H377.042V116.471C377.042 117.376 377.193 118.092 378.123 118.092C379.09 118.092 379.454 117.325 379.454 116.308V113.218H381.062V119.298H379.505L379.492 118.443Z" fill="#3C3E3E"/>
<path d="M367.848 116.283C367.848 114.361 369.28 113.105 371.151 113.105C373.011 113.105 374.443 114.361 374.443 116.283C374.443 118.205 373.011 119.436 371.151 119.436C369.28 119.436 367.848 118.205 367.848 116.283ZM371.151 118.104C372.181 118.104 372.784 117.288 372.784 116.245C372.784 115.203 372.181 114.399 371.151 114.399C370.096 114.399 369.518 115.203 369.518 116.245C369.518 117.288 370.096 118.104 371.151 118.104Z" fill="#3C3E3E"/>
<path d="M362.914 115.73L359.912 110.63H361.721L363.743 114.348L365.753 110.63H367.562L364.547 115.73V119.298H362.914V115.73Z" fill="#3C3E3E"/>
<path d="M473.852 135.52H474.696L474.62 139.79H473.92L473.852 135.52ZM473.709 140.903C473.709 140.574 473.945 140.372 474.274 140.372C474.595 140.372 474.831 140.574 474.831 140.903C474.831 141.224 474.595 141.427 474.274 141.427C473.945 141.427 473.709 141.224 473.709 140.903Z" fill="#3C3E3E"/>
<path d="M472.437 140.498C472.437 141.384 472.294 141.874 471.999 142.228C471.703 142.591 471.206 142.996 470.21 142.996C469.223 142.996 468.539 142.481 468.421 142.397L468.801 141.831C469.012 142.017 469.636 142.338 470.235 142.338C470.834 142.338 471.172 142.101 471.332 141.899C471.492 141.705 471.636 141.325 471.636 140.777V140.557C471.349 140.979 470.893 141.291 470.21 141.291C469.189 141.291 468.286 140.54 468.286 139.317C468.286 137.984 469.189 137.258 470.218 137.258C470.868 137.258 471.341 137.545 471.619 137.959H471.636V137.334H472.437V140.498ZM470.387 140.633C471.189 140.633 471.661 140.034 471.661 139.292C471.661 138.49 471.189 137.908 470.387 137.908C469.586 137.908 469.113 138.499 469.113 139.292C469.113 140.034 469.586 140.633 470.387 140.633Z" fill="#3C3E3E"/>
<path d="M463.991 137.334H464.801L464.793 138.018C465.012 137.545 465.527 137.259 466.042 137.259C467.181 137.259 467.476 138.009 467.476 138.971V141.342H466.666V139.106C466.666 138.431 466.548 137.925 465.831 137.925C465.08 137.925 464.801 138.558 464.801 139.326V141.342H463.991V137.334Z" fill="#3C3E3E"/>
<path d="M461.904 136.018C461.904 135.731 462.124 135.52 462.436 135.52C462.74 135.52 462.959 135.731 462.959 136.018C462.959 136.305 462.74 136.516 462.436 136.516C462.124 136.516 461.904 136.305 461.904 136.018ZM462.031 137.334H462.841V141.342H462.031V137.334Z" fill="#3C3E3E"/>
<path d="M456.907 139.351C456.907 138.11 457.835 137.258 459.033 137.258C460.223 137.258 461.151 138.11 461.151 139.351C461.151 140.6 460.223 141.435 459.033 141.435C457.835 141.435 456.907 140.6 456.907 139.351ZM459.033 140.743C459.835 140.743 460.333 140.119 460.333 139.325C460.333 138.541 459.835 137.916 459.033 137.916C458.223 137.916 457.726 138.541 457.726 139.325C457.726 140.119 458.223 140.743 459.033 140.743Z" fill="#3C3E3E"/>
<path d="M456.057 140.498C456.057 141.384 455.913 141.874 455.618 142.228C455.322 142.591 454.825 142.996 453.829 142.996C452.842 142.996 452.158 142.481 452.04 142.397L452.42 141.831C452.631 142.017 453.255 142.338 453.854 142.338C454.453 142.338 454.791 142.101 454.951 141.899C455.112 141.705 455.255 141.325 455.255 140.777V140.557C454.968 140.979 454.512 141.291 453.829 141.291C452.808 141.291 451.905 140.54 451.905 139.317C451.905 137.984 452.808 137.258 453.837 137.258C454.487 137.258 454.96 137.545 455.238 137.959H455.255V137.334H456.057V140.498ZM454.006 140.633C454.808 140.633 455.28 140.034 455.28 139.292C455.28 138.49 454.808 137.908 454.006 137.908C453.205 137.908 452.732 138.499 452.732 139.292C452.732 140.034 453.205 140.633 454.006 140.633Z" fill="#3C3E3E"/>
<path d="M443.606 137.334H444.416L444.408 137.967H444.433C444.619 137.596 445.058 137.258 445.589 137.258C446.18 137.258 446.593 137.528 446.779 138.051C447.049 137.545 447.488 137.258 448.053 137.258C449.125 137.258 449.411 138.043 449.411 138.912V141.342H448.61V139.005C448.61 138.541 448.526 137.925 447.876 137.925C447.235 137.925 446.914 138.541 446.914 139.258V141.342H446.104V139.005C446.104 138.414 445.961 137.925 445.378 137.925C444.737 137.925 444.416 138.541 444.416 139.258V141.342H443.606V137.334Z" fill="#3C3E3E"/>
<path d="M441.698 140.768C441.479 141.157 441.023 141.435 440.458 141.435C439.884 141.435 439.555 141.241 439.344 140.971C439.142 140.701 439.049 140.304 439.049 139.731V137.326H439.85V139.697C439.85 140.245 439.969 140.76 440.686 140.76C441.394 140.76 441.681 140.152 441.681 139.477V137.326H442.491V141.342H441.707L441.698 140.768Z" fill="#3C3E3E"/>
<path d="M438.412 141.3C438.201 141.393 437.956 141.435 437.678 141.435C437.256 141.435 436.994 141.275 436.825 141.021C436.657 140.768 436.623 140.456 436.623 139.823V137.992H436.032V137.343H436.623V136.145H437.433V137.343H438.395V137.992H437.433V139.806C437.433 140.144 437.433 140.38 437.534 140.54C437.602 140.675 437.72 140.743 437.948 140.743C438.184 140.743 438.361 140.65 438.361 140.65L438.412 141.3Z" fill="#3C3E3E"/>
<path d="M431.897 137.334H432.707L432.699 138.018C432.918 137.545 433.433 137.259 433.948 137.259C435.087 137.259 435.382 138.009 435.382 138.971V141.342H434.572V139.106C434.572 138.431 434.454 137.925 433.737 137.925C432.986 137.925 432.707 138.558 432.707 139.326V141.342H431.897V137.334Z" fill="#3C3E3E"/>
<path d="M430.934 140.802C430.883 140.844 430.368 141.435 429.17 141.435C427.981 141.435 427.162 140.608 427.162 139.334C427.162 138.069 428.082 137.259 429.196 137.259C430.309 137.259 431.094 138.052 431.094 139.174C431.094 139.326 431.069 139.528 431.069 139.528H427.981C428.023 140.321 428.529 140.802 429.271 140.802C430.022 140.802 430.503 140.397 430.596 140.338L430.934 140.802ZM430.326 138.988C430.318 138.541 429.98 137.841 429.17 137.841C428.369 137.841 428.014 138.507 427.989 138.988H430.326Z" fill="#3C3E3E"/>
<path d="M420.543 137.334H421.353L421.345 137.967H421.37C421.555 137.596 421.994 137.258 422.526 137.258C423.116 137.258 423.53 137.528 423.715 138.051C423.985 137.545 424.424 137.258 424.99 137.258C426.061 137.258 426.348 138.043 426.348 138.912V141.342H425.546V139.005C425.546 138.541 425.462 137.925 424.812 137.925C424.171 137.925 423.85 138.541 423.85 139.258V141.342H423.04V139.005C423.04 138.414 422.897 137.925 422.315 137.925C421.674 137.925 421.353 138.541 421.353 139.258V141.342H420.543V137.334Z" fill="#3C3E3E"/>
<path d="M415.453 139.351C415.453 138.111 416.381 137.259 417.579 137.259C418.769 137.259 419.697 138.111 419.697 139.351C419.697 140.6 418.769 141.435 417.579 141.435C416.381 141.435 415.453 140.6 415.453 139.351ZM417.579 140.743C418.381 140.743 418.879 140.119 418.879 139.326C418.879 138.541 418.381 137.917 417.579 137.917C416.769 137.917 416.272 138.541 416.272 139.326C416.272 140.119 416.769 140.743 417.579 140.743Z" fill="#3C3E3E"/>
<path d="M408.834 137.334H409.644L409.636 137.967H409.661C409.846 137.596 410.285 137.258 410.817 137.258C411.407 137.258 411.821 137.528 412.006 138.051C412.276 137.545 412.715 137.258 413.281 137.258C414.352 137.258 414.639 138.043 414.639 138.912V141.342H413.837V139.005C413.837 138.541 413.753 137.925 413.103 137.925C412.462 137.925 412.141 138.541 412.141 139.258V141.342H411.331V139.005C411.331 138.414 411.188 137.925 410.606 137.925C409.965 137.925 409.644 138.541 409.644 139.258V141.342H408.834V137.334Z" fill="#3C3E3E"/>
<path d="M406.19 140.802C406.139 140.844 405.624 141.435 404.426 141.435C403.236 141.435 402.418 140.608 402.418 139.334C402.418 138.069 403.338 137.259 404.451 137.259C405.565 137.259 406.35 138.052 406.35 139.174C406.35 139.326 406.325 139.528 406.325 139.528H403.236C403.279 140.321 403.785 140.802 404.527 140.802C405.278 140.802 405.759 140.397 405.852 140.338L406.19 140.802ZM405.582 138.988C405.574 138.541 405.236 137.841 404.426 137.841C403.625 137.841 403.27 138.507 403.245 138.988H405.582Z" fill="#3C3E3E"/>
<path d="M398.106 135.52H398.908V137.967H398.925C399.136 137.571 399.575 137.258 400.157 137.258C401.313 137.258 401.591 138.001 401.591 138.954V141.342H400.781V139.072C400.781 138.499 400.688 137.925 399.954 137.925C399.22 137.925 398.908 138.558 398.908 139.359V141.342H398.106V135.52Z" fill="#3C3E3E"/>
<path d="M397.394 141.3C397.183 141.393 396.938 141.435 396.66 141.435C396.238 141.435 395.977 141.275 395.808 141.022C395.639 140.769 395.605 140.456 395.605 139.824V137.993H395.015V137.343H395.605V136.145H396.415V137.343H397.377V137.993H396.415V139.807C396.415 140.144 396.415 140.38 396.517 140.541C396.584 140.676 396.702 140.743 396.93 140.743C397.166 140.743 397.343 140.65 397.343 140.65L397.394 141.3Z" fill="#3C3E3E"/>
<path d="M388.771 137.334H389.548V137.967C389.902 137.495 390.4 137.258 390.991 137.258C392.172 137.258 392.923 138.144 392.923 139.334C392.923 140.524 392.163 141.435 390.974 141.435C390.341 141.435 389.877 141.165 389.59 140.718L389.581 141.528V142.911H388.771V137.334ZM390.822 140.743C391.623 140.743 392.096 140.127 392.096 139.325C392.096 138.524 391.623 137.916 390.822 137.916C390.02 137.916 389.548 138.524 389.548 139.325C389.548 140.127 390.02 140.743 390.822 140.743Z" fill="#3C3E3E"/>
<path d="M387.773 140.802C387.722 140.844 387.207 141.435 386.009 141.435C384.819 141.435 384.001 140.608 384.001 139.334C384.001 138.068 384.921 137.258 386.034 137.258C387.148 137.258 387.933 138.051 387.933 139.174C387.933 139.325 387.908 139.528 387.908 139.528H384.819C384.862 140.321 385.368 140.802 386.11 140.802C386.861 140.802 387.342 140.397 387.435 140.338L387.773 140.802ZM387.165 138.988C387.157 138.541 386.819 137.84 386.009 137.84C385.208 137.84 384.853 138.507 384.828 138.988H387.165Z" fill="#3C3E3E"/>
<path d="M383.266 140.802C383.215 140.844 382.7 141.435 381.502 141.435C380.313 141.435 379.494 140.608 379.494 139.334C379.494 138.068 380.414 137.258 381.528 137.258C382.641 137.258 383.426 138.051 383.426 139.174C383.426 139.325 383.401 139.528 383.401 139.528H380.313C380.355 140.321 380.861 140.802 381.604 140.802C382.354 140.802 382.835 140.397 382.928 140.338L383.266 140.802ZM382.658 138.988C382.65 138.541 382.312 137.84 381.502 137.84C380.701 137.84 380.346 138.507 380.321 138.988H382.658Z" fill="#3C3E3E"/>
<path d="M375.695 135.52H376.497V138.937L378.134 137.334H379.079L377.509 138.845L379.281 141.342H378.336L376.961 139.402L376.497 139.84V141.342H375.695V135.52Z" fill="#3C3E3E"/>
<path d="M371.983 140.448H372.81L372.034 142.523H371.393L371.983 140.448Z" fill="#3C3E3E"/>
<path d="M366.606 137.334H367.383V137.967C367.737 137.495 368.235 137.258 368.826 137.258C370.007 137.258 370.758 138.144 370.758 139.334C370.758 140.524 369.998 141.435 368.809 141.435C368.176 141.435 367.712 141.165 367.425 140.718L367.416 141.528V142.911H366.606V137.334ZM368.657 140.743C369.458 140.743 369.931 140.127 369.931 139.325C369.931 138.524 369.458 137.916 368.657 137.916C367.855 137.916 367.383 138.524 367.383 139.325C367.383 140.127 367.855 140.743 368.657 140.743Z" fill="#3C3E3E"/>
<path d="M365.608 140.802C365.558 140.844 365.043 141.435 363.845 141.435C362.655 141.435 361.837 140.608 361.837 139.334C361.837 138.068 362.757 137.258 363.87 137.258C364.984 137.258 365.769 138.051 365.769 139.174C365.769 139.325 365.743 139.528 365.743 139.528H362.655C362.698 140.321 363.204 140.802 363.946 140.802C364.697 140.802 365.178 140.397 365.271 140.338L365.608 140.802ZM365.001 138.988C364.993 138.541 364.655 137.84 363.845 137.84C363.043 137.84 362.689 138.507 362.664 138.988H365.001Z" fill="#3C3E3E"/>
<path d="M361.435 141.3C361.224 141.393 360.979 141.435 360.701 141.435C360.279 141.435 360.018 141.275 359.849 141.021C359.68 140.768 359.646 140.456 359.646 139.823V137.992H359.056V137.343H359.646V136.145H360.456V137.343H361.418V137.992H360.456V139.806C360.456 140.144 360.456 140.38 360.558 140.54C360.625 140.675 360.743 140.743 360.971 140.743C361.207 140.743 361.384 140.65 361.384 140.65L361.435 141.3Z" fill="#3C3E3E"/>
<path d="M355.993 140.245V140.253C356.33 140.608 356.803 140.827 357.174 140.827C357.545 140.827 357.942 140.692 357.942 140.253C357.942 139.857 357.469 139.73 357.039 139.587L356.862 139.528C356.322 139.351 355.858 139.055 355.858 138.414C355.858 137.672 356.499 137.267 357.208 137.267C357.916 137.267 358.321 137.52 358.574 137.79L358.237 138.288C358.001 138.043 357.613 137.857 357.224 137.857C356.836 137.857 356.583 138.026 356.583 138.355C356.583 138.684 356.971 138.828 357.368 138.954L357.908 139.148C358.355 139.334 358.693 139.646 358.693 140.169C358.693 141.038 357.975 141.435 357.165 141.435C356.49 141.435 355.942 141.156 355.604 140.718L355.993 140.245Z" fill="#3C3E3E"/>
<path d="M507.695 130.645V130.654C508.032 131.008 508.505 131.228 508.876 131.228C509.247 131.228 509.644 131.093 509.644 130.654C509.644 130.257 509.171 130.131 508.741 129.987L508.564 129.928C508.024 129.751 507.56 129.456 507.56 128.814C507.56 128.072 508.201 127.667 508.91 127.667C509.619 127.667 510.024 127.92 510.277 128.19L509.939 128.688C509.703 128.443 509.315 128.258 508.927 128.258C508.539 128.258 508.285 128.426 508.285 128.755C508.285 129.084 508.674 129.228 509.07 129.354L509.61 129.549C510.057 129.734 510.395 130.046 510.395 130.569C510.395 131.439 509.678 131.835 508.868 131.835C508.193 131.835 507.644 131.557 507.307 131.118L507.695 130.645Z" fill="#3C3E3E"/>
<path d="M505.608 126.418C505.608 126.131 505.828 125.92 506.14 125.92C506.444 125.92 506.663 126.131 506.663 126.418C506.663 126.705 506.444 126.916 506.14 126.916C505.828 126.916 505.608 126.705 505.608 126.418ZM505.735 127.734H506.545V131.742H505.735V127.734Z" fill="#3C3E3E"/>
<path d="M501.121 125.92H501.923V128.367H501.94C502.15 127.97 502.589 127.658 503.171 127.658C504.327 127.658 504.606 128.401 504.606 129.354V131.742H503.796V129.472C503.796 128.899 503.703 128.325 502.969 128.325C502.235 128.325 501.923 128.958 501.923 129.759V131.742H501.121V125.92Z" fill="#3C3E3E"/>
<path d="M500.408 131.7C500.197 131.793 499.952 131.835 499.674 131.835C499.252 131.835 498.99 131.675 498.821 131.422C498.653 131.168 498.619 130.856 498.619 130.223V128.392H498.028V127.743H498.619V126.545H499.429V127.743H500.391V128.392H499.429V130.207C499.429 130.544 499.429 130.78 499.53 130.941C499.598 131.076 499.716 131.143 499.944 131.143C500.18 131.143 500.357 131.05 500.357 131.05L500.408 131.7Z" fill="#3C3E3E"/>
<path d="M495.656 130.898C495.656 131.784 495.513 132.274 495.217 132.628C494.922 132.991 494.424 133.396 493.429 133.396C492.441 133.396 491.758 132.881 491.64 132.797L492.02 132.231C492.231 132.417 492.855 132.738 493.454 132.738C494.053 132.738 494.391 132.501 494.551 132.299C494.711 132.105 494.855 131.725 494.855 131.177V130.957C494.568 131.379 494.112 131.691 493.429 131.691C492.408 131.691 491.505 130.94 491.505 129.717C491.505 128.384 492.408 127.658 493.437 127.658C494.087 127.658 494.559 127.945 494.838 128.359H494.855V127.734H495.656V130.898ZM493.606 131.033C494.407 131.033 494.88 130.434 494.88 129.692C494.88 128.89 494.407 128.308 493.606 128.308C492.804 128.308 492.332 128.899 492.332 129.692C492.332 130.434 492.804 131.033 493.606 131.033Z" fill="#3C3E3E"/>
<path d="M487.211 127.734H488.021L488.013 128.418C488.232 127.945 488.747 127.658 489.261 127.658C490.4 127.658 490.696 128.409 490.696 129.371V131.742H489.886V129.506C489.886 128.831 489.768 128.325 489.05 128.325C488.299 128.325 488.021 128.958 488.021 129.725V131.742H487.211V127.734Z" fill="#3C3E3E"/>
<path d="M485.124 126.418C485.124 126.131 485.343 125.92 485.656 125.92C485.959 125.92 486.179 126.131 486.179 126.418C486.179 126.705 485.959 126.916 485.656 126.916C485.343 126.916 485.124 126.705 485.124 126.418ZM485.251 127.734H486.061V131.742H485.251V127.734Z" fill="#3C3E3E"/>
<path d="M484.545 131.7C484.334 131.793 484.09 131.835 483.811 131.835C483.389 131.835 483.128 131.675 482.959 131.422C482.79 131.168 482.757 130.856 482.757 130.223V128.392H482.166V127.743H482.757V126.545H483.567V127.743H484.529V128.392H483.567V130.207C483.567 130.544 483.567 130.78 483.668 130.941C483.735 131.076 483.854 131.143 484.081 131.143C484.318 131.143 484.495 131.05 484.495 131.05L484.545 131.7Z" fill="#3C3E3E"/>
<path d="M481.632 131.202C481.581 131.244 481.067 131.835 479.868 131.835C478.679 131.835 477.86 131.008 477.86 129.734C477.86 128.468 478.78 127.658 479.894 127.658C481.008 127.658 481.792 128.452 481.792 129.574C481.792 129.726 481.767 129.928 481.767 129.928H478.679C478.721 130.721 479.227 131.202 479.97 131.202C480.721 131.202 481.202 130.797 481.294 130.738L481.632 131.202ZM481.024 129.388C481.016 128.941 480.678 128.241 479.868 128.241C479.067 128.241 478.713 128.907 478.687 129.388H481.024Z" fill="#3C3E3E"/>
<path d="M476.171 125.92H476.972V131.742H476.171V125.92Z" fill="#3C3E3E"/>
<path d="M471.136 127.734H471.912V128.367C472.266 127.894 472.764 127.658 473.355 127.658C474.536 127.658 475.287 128.544 475.287 129.734C475.287 130.924 474.528 131.835 473.338 131.835C472.705 131.835 472.241 131.565 471.954 131.118L471.946 131.928V133.311H471.136V127.734ZM473.186 131.143C473.988 131.143 474.46 130.527 474.46 129.725C474.46 128.924 473.988 128.316 473.186 128.316C472.384 128.316 471.912 128.924 471.912 129.725C471.912 130.527 472.384 131.143 473.186 131.143Z" fill="#3C3E3E"/>
<path d="M464.214 127.734H465.024L465.015 128.367H465.041C465.226 127.996 465.665 127.658 466.197 127.658C466.787 127.658 467.201 127.928 467.386 128.452C467.656 127.945 468.095 127.658 468.66 127.658C469.732 127.658 470.019 128.443 470.019 129.312V131.742H469.217V129.405C469.217 128.941 469.133 128.325 468.483 128.325C467.842 128.325 467.521 128.941 467.521 129.658V131.742H466.711V129.405C466.711 128.814 466.568 128.325 465.986 128.325C465.344 128.325 465.024 128.941 465.024 129.658V131.742H464.214V127.734Z" fill="#3C3E3E"/>
<path d="M459.123 129.751C459.123 128.51 460.051 127.658 461.249 127.658C462.439 127.658 463.367 128.51 463.367 129.751C463.367 130.999 462.439 131.835 461.249 131.835C460.051 131.835 459.123 130.999 459.123 129.751ZM461.249 131.143C462.051 131.143 462.549 130.519 462.549 129.725C462.549 128.941 462.051 128.316 461.249 128.316C460.439 128.316 459.941 128.941 459.941 129.725C459.941 130.519 460.439 131.143 461.249 131.143Z" fill="#3C3E3E"/>
<path d="M458.746 131.227C458.746 131.227 458.291 131.835 457.143 131.835C456.063 131.835 455.118 131.025 455.118 129.742C455.118 128.451 456.105 127.658 457.168 127.658C458.24 127.658 458.679 128.181 458.721 128.232L458.434 128.823C458.299 128.688 457.945 128.333 457.236 128.333C456.527 128.333 455.937 128.873 455.937 129.717C455.937 130.561 456.46 131.143 457.236 131.143C458.021 131.143 458.459 130.637 458.459 130.637L458.746 131.227Z" fill="#3C3E3E"/>
<path d="M448.716 125.92H449.517V127.937C449.517 128.046 449.509 128.257 449.509 128.401C449.804 127.903 450.327 127.658 450.935 127.658C452.108 127.658 452.867 128.553 452.867 129.734C452.867 130.924 452.108 131.835 450.918 131.835C450.336 131.835 449.838 131.599 449.509 131.109H449.492V131.742H448.716V125.92ZM450.766 131.143C451.568 131.143 452.04 130.527 452.04 129.725C452.04 128.924 451.568 128.316 450.766 128.316C449.965 128.316 449.484 128.924 449.484 129.725C449.484 130.527 449.965 131.143 450.766 131.143Z" fill="#3C3E3E"/>
<path d="M443.583 129.751C443.583 128.511 444.511 127.658 445.709 127.658C446.899 127.658 447.827 128.511 447.827 129.751C447.827 131 446.899 131.835 445.709 131.835C444.511 131.835 443.583 131 443.583 129.751ZM445.709 131.143C446.511 131.143 447.009 130.519 447.009 129.726C447.009 128.941 446.511 128.317 445.709 128.317C444.899 128.317 444.401 128.941 444.401 129.726C444.401 130.519 444.899 131.143 445.709 131.143Z" fill="#3C3E3E"/>
<path d="M441.766 126.418C441.766 126.131 441.985 125.92 442.298 125.92C442.601 125.92 442.821 126.131 442.821 126.418C442.821 126.705 442.601 126.916 442.298 126.916C441.985 126.916 441.766 126.705 441.766 126.418ZM440.939 132.687C440.939 132.687 441.108 132.746 441.319 132.746C441.842 132.746 441.893 132.282 441.893 131.725V127.734H442.703V131.75C442.703 132.215 442.635 132.636 442.407 132.949C442.255 133.16 441.96 133.396 441.437 133.396C441.108 133.396 440.931 133.328 440.931 133.328L440.939 132.687Z" fill="#3C3E3E"/>
<path d="M439.507 131.7C439.296 131.793 439.052 131.835 438.773 131.835C438.351 131.835 438.09 131.675 437.921 131.422C437.752 131.168 437.719 130.856 437.719 130.223V128.392H437.128V127.743H437.719V126.545H438.529V127.743H439.49V128.392H438.529V130.207C438.529 130.544 438.529 130.78 438.63 130.941C438.697 131.076 438.815 131.143 439.043 131.143C439.279 131.143 439.457 131.05 439.457 131.05L439.507 131.7Z" fill="#3C3E3E"/>
<path d="M435.726 131.236C435.566 131.405 435.186 131.835 434.452 131.835C433.71 131.835 433.068 131.371 433.068 130.595C433.068 129.81 433.71 129.413 434.638 129.371L435.709 129.329V129.169C435.709 128.561 435.296 128.258 434.714 128.258C434.131 128.258 433.642 128.519 433.507 128.603L433.262 128.063C433.558 127.895 434.098 127.658 434.764 127.658C435.431 127.658 435.819 127.844 436.089 128.114C436.359 128.393 436.519 128.73 436.519 129.413V131.742H435.735L435.726 131.236ZM434.781 129.878C434.131 129.911 433.87 130.19 433.87 130.569C433.87 130.949 434.165 131.261 434.697 131.261C435.22 131.261 435.566 130.907 435.718 130.679V129.818L434.781 129.878Z" fill="#3C3E3E"/>
<path d="M432.358 131.202C432.308 131.244 431.793 131.835 430.595 131.835C429.405 131.835 428.587 131.008 428.587 129.734C428.587 128.468 429.507 127.658 430.62 127.658C431.734 127.658 432.519 128.451 432.519 129.574C432.519 129.725 432.493 129.928 432.493 129.928H429.405C429.448 130.721 429.954 131.202 430.696 131.202C431.447 131.202 431.928 130.797 432.021 130.738L432.358 131.202ZM431.751 129.388C431.743 128.941 431.405 128.24 430.595 128.24C429.793 128.24 429.439 128.907 429.414 129.388H431.751Z" fill="#3C3E3E"/>
<path d="M426.071 127.734H426.881L426.873 128.35H426.898C427.092 127.894 427.455 127.658 427.885 127.658C428.155 127.658 428.307 127.726 428.307 127.726L428.257 128.477H428.223C428.147 128.443 428.003 128.392 427.784 128.392C427.43 128.392 427.21 128.62 427.126 128.73C427.05 128.839 426.881 129.152 426.881 129.742V131.742H426.071V127.734Z" fill="#3C3E3E"/>
<path d="M422.604 128.637H424.967V130.898C424.857 131.008 424.148 131.843 422.494 131.843C420.832 131.843 419.524 130.645 419.524 128.831C419.524 127.017 420.832 125.836 422.486 125.836C423.979 125.836 424.621 126.621 424.84 126.848L424.283 127.363C423.937 126.958 423.397 126.536 422.486 126.536C421.288 126.536 420.368 127.397 420.368 128.831C420.368 130.266 421.322 131.126 422.537 131.126C423.743 131.126 424.173 130.595 424.173 130.595V129.304H422.604V128.637Z" fill="#3C3E3E"/>
<path d="M415.701 131.303C415.701 130.974 415.937 130.772 416.266 130.772C416.587 130.772 416.823 130.974 416.823 131.303C416.823 131.624 416.587 131.826 416.266 131.826C415.937 131.826 415.701 131.624 415.701 131.303Z" fill="#3C3E3E"/>
<path d="M410.97 125.92H411.771V128.367H411.788C411.999 127.97 412.438 127.658 413.02 127.658C414.176 127.658 414.454 128.401 414.454 129.354V131.742H413.644V129.472C413.644 128.899 413.552 128.325 412.818 128.325C412.083 128.325 411.771 128.958 411.771 129.759V131.742H410.97V125.92Z" fill="#3C3E3E"/>
<path d="M409.807 130.898C409.807 131.784 409.664 132.274 409.369 132.628C409.073 132.991 408.576 133.396 407.58 133.396C406.593 133.396 405.909 132.881 405.791 132.797L406.171 132.232C406.382 132.417 407.006 132.738 407.605 132.738C408.204 132.738 408.542 132.502 408.702 132.299C408.862 132.105 409.006 131.725 409.006 131.177V130.958C408.719 131.379 408.263 131.692 407.58 131.692C406.559 131.692 405.656 130.941 405.656 129.717C405.656 128.384 406.559 127.658 407.588 127.658C408.238 127.658 408.711 127.945 408.989 128.359H409.006V127.734H409.807V130.898ZM407.757 131.033C408.559 131.033 409.031 130.434 409.031 129.692C409.031 128.89 408.559 128.308 407.757 128.308C406.956 128.308 406.483 128.899 406.483 129.692C406.483 130.434 406.956 131.033 407.757 131.033Z" fill="#3C3E3E"/>
<path d="M404.018 131.168C403.798 131.556 403.343 131.835 402.777 131.835C402.203 131.835 401.874 131.641 401.663 131.371C401.461 131.101 401.368 130.704 401.368 130.131V127.726H402.17V130.097C402.17 130.645 402.288 131.16 403.005 131.16C403.714 131.16 404.001 130.552 404.001 129.877V127.726H404.811V131.742H404.026L404.018 131.168Z" fill="#3C3E3E"/>
<path d="M396.312 129.751C396.312 128.51 397.24 127.658 398.438 127.658C399.627 127.658 400.556 128.51 400.556 129.751C400.556 130.999 399.627 131.835 398.438 131.835C397.24 131.835 396.312 130.999 396.312 129.751ZM398.438 131.143C399.239 131.143 399.737 130.519 399.737 129.725C399.737 128.941 399.239 128.316 398.438 128.316C397.628 128.316 397.13 128.941 397.13 129.725C397.13 130.519 397.628 131.143 398.438 131.143Z" fill="#3C3E3E"/>
<path d="M395.911 131.7C395.7 131.793 395.455 131.835 395.177 131.835C394.755 131.835 394.493 131.675 394.324 131.422C394.156 131.168 394.122 130.856 394.122 130.223V128.392H393.531V127.743H394.122V126.545H394.932V127.743H395.894V128.392H394.932V130.207C394.932 130.544 394.932 130.78 395.033 130.941C395.101 131.076 395.219 131.143 395.447 131.143C395.683 131.143 395.86 131.05 395.86 131.05L395.911 131.7Z" fill="#3C3E3E"/>
<path d="M391.316 131.202C391.266 131.244 390.751 131.835 389.553 131.835C388.363 131.835 387.545 131.008 387.545 129.734C387.545 128.468 388.465 127.658 389.578 127.658C390.692 127.658 391.477 128.451 391.477 129.574C391.477 129.725 391.451 129.928 391.451 129.928H388.363C388.406 130.721 388.912 131.202 389.654 131.202C390.405 131.202 390.886 130.797 390.979 130.738L391.316 131.202ZM390.709 129.388C390.701 128.941 390.363 128.24 389.553 128.24C388.751 128.24 388.397 128.907 388.372 129.388H390.709Z" fill="#3C3E3E"/>
<path d="M382.822 125.92H383.624V127.937C383.624 128.047 383.615 128.258 383.615 128.401C383.911 127.903 384.434 127.659 385.041 127.659C386.214 127.659 386.974 128.553 386.974 129.734C386.974 130.924 386.214 131.835 385.024 131.835C384.442 131.835 383.944 131.599 383.615 131.109H383.599V131.742H382.822V125.92ZM384.873 131.143C385.674 131.143 386.147 130.527 386.147 129.726C386.147 128.924 385.674 128.317 384.873 128.317C384.071 128.317 383.59 128.924 383.59 129.726C383.59 130.527 384.071 131.143 384.873 131.143Z" fill="#3C3E3E"/>
<path d="M376.534 127.734H377.344L377.336 128.418C377.555 127.945 378.07 127.658 378.584 127.658C379.724 127.658 380.019 128.409 380.019 129.371V131.742H379.209V129.506C379.209 128.831 379.091 128.325 378.374 128.325C377.623 128.325 377.344 128.958 377.344 129.725V131.742H376.534V127.734Z" fill="#3C3E3E"/>
<path d="M374.702 131.236C374.541 131.405 374.162 131.835 373.428 131.835C372.685 131.835 372.044 131.371 372.044 130.595C372.044 129.81 372.685 129.413 373.613 129.371L374.685 129.329V129.169C374.685 128.561 374.271 128.258 373.689 128.258C373.107 128.258 372.618 128.519 372.483 128.603L372.238 128.063C372.533 127.895 373.073 127.658 373.74 127.658C374.406 127.658 374.795 127.844 375.065 128.114C375.335 128.393 375.495 128.73 375.495 129.413V131.742H374.71L374.702 131.236ZM373.757 129.878C373.107 129.911 372.846 130.19 372.846 130.569C372.846 130.949 373.141 131.261 373.672 131.261C374.196 131.261 374.541 130.907 374.693 130.679V129.818L373.757 129.878Z" fill="#3C3E3E"/>
<path d="M371.571 131.227C371.571 131.227 371.115 131.835 369.967 131.835C368.887 131.835 367.942 131.025 367.942 129.742C367.942 128.451 368.93 127.658 369.993 127.658C371.064 127.658 371.503 128.181 371.545 128.232L371.258 128.823C371.123 128.688 370.769 128.333 370.06 128.333C369.351 128.333 368.761 128.873 368.761 129.717C368.761 130.561 369.284 131.143 370.06 131.143C370.845 131.143 371.284 130.637 371.284 130.637L371.571 131.227Z" fill="#3C3E3E"/>
<path d="M363.039 130.645V130.654C363.376 131.008 363.849 131.228 364.22 131.228C364.591 131.228 364.988 131.093 364.988 130.654C364.988 130.257 364.515 130.131 364.085 129.987L363.908 129.928C363.368 129.751 362.904 129.456 362.904 128.814C362.904 128.072 363.545 127.667 364.254 127.667C364.962 127.667 365.367 127.92 365.62 128.19L365.283 128.688C365.047 128.443 364.659 128.258 364.27 128.258C363.882 128.258 363.629 128.426 363.629 128.755C363.629 129.084 364.017 129.228 364.414 129.354L364.954 129.549C365.401 129.734 365.739 130.046 365.739 130.569C365.739 131.439 365.021 131.835 364.211 131.835C363.536 131.835 362.988 131.557 362.65 131.118L363.039 130.645Z" fill="#3C3E3E"/>
<path d="M362.367 131.7C362.156 131.793 361.911 131.835 361.633 131.835C361.211 131.835 360.949 131.675 360.78 131.422C360.612 131.168 360.578 130.856 360.578 130.223V128.392H359.987V127.743H360.578V126.545H361.388V127.743H362.35V128.392H361.388V130.207C361.388 130.544 361.388 130.78 361.489 130.941C361.557 131.076 361.675 131.143 361.903 131.143C362.139 131.143 362.316 131.05 362.316 131.05L362.367 131.7Z" fill="#3C3E3E"/>
<path d="M355.426 125.92H356.227V127.937C356.227 128.047 356.219 128.258 356.219 128.401C356.514 127.903 357.037 127.659 357.645 127.659C358.818 127.659 359.577 128.553 359.577 129.734C359.577 130.924 358.818 131.835 357.628 131.835C357.046 131.835 356.548 131.599 356.219 131.109H356.202V131.742H355.426V125.92ZM357.476 131.143C358.278 131.143 358.75 130.527 358.75 129.726C358.75 128.924 358.278 128.317 357.476 128.317C356.675 128.317 356.194 128.924 356.194 129.726C356.194 130.527 356.675 131.143 357.476 131.143Z" fill="#3C3E3E"/>
<path d="M354.419 131.202C354.368 131.244 353.854 131.835 352.656 131.835C351.466 131.835 350.647 131.008 350.647 129.734C350.647 128.468 351.567 127.658 352.681 127.658C353.795 127.658 354.579 128.452 354.579 129.574C354.579 129.726 354.554 129.928 354.554 129.928H351.466C351.508 130.721 352.014 131.202 352.757 131.202C353.508 131.202 353.989 130.797 354.082 130.738L354.419 131.202ZM353.812 129.388C353.803 128.941 353.466 128.241 352.656 128.241C351.854 128.241 351.5 128.907 351.474 129.388H353.812Z" fill="#3C3E3E"/>
<path d="M348.988 131.742V131.101C348.659 131.59 348.145 131.835 347.562 131.835C346.373 131.835 345.613 130.924 345.613 129.734C345.613 128.553 346.373 127.658 347.545 127.658C348.195 127.658 348.668 127.945 348.946 128.359H348.963V125.92H349.765V131.742H348.988ZM347.714 131.143C348.516 131.143 348.988 130.527 348.988 129.725C348.988 128.924 348.516 128.316 347.714 128.316C346.913 128.316 346.44 128.924 346.44 129.725C346.44 130.527 346.913 131.143 347.714 131.143Z" fill="#3C3E3E"/>
<path d="M343.082 130.898C343.082 131.784 342.938 132.274 342.643 132.628C342.348 132.991 341.85 133.396 340.854 133.396C339.867 133.396 339.184 132.881 339.066 132.797L339.445 132.232C339.656 132.417 340.281 132.738 340.88 132.738C341.479 132.738 341.816 132.502 341.977 132.299C342.137 132.105 342.28 131.725 342.28 131.177V130.958C341.993 131.379 341.538 131.692 340.854 131.692C339.833 131.692 338.931 130.941 338.931 129.717C338.931 128.384 339.833 127.658 340.863 127.658C341.513 127.658 341.985 127.945 342.263 128.359H342.28V127.734H343.082V130.898ZM341.032 131.033C341.833 131.033 342.306 130.434 342.306 129.692C342.306 128.89 341.833 128.308 341.032 128.308C340.23 128.308 339.758 128.899 339.758 129.692C339.758 130.434 340.23 131.033 341.032 131.033Z" fill="#3C3E3E"/>
<path d="M334.636 127.734H335.446L335.437 128.418C335.657 127.945 336.171 127.658 336.686 127.658C337.825 127.658 338.12 128.409 338.12 129.371V131.742H337.31V129.506C337.31 128.831 337.192 128.325 336.475 128.325C335.724 128.325 335.446 128.958 335.446 129.726V131.742H334.636V127.734Z" fill="#3C3E3E"/>
<path d="M332.548 126.418C332.548 126.131 332.767 125.92 333.079 125.92C333.383 125.92 333.603 126.131 333.603 126.418C333.603 126.705 333.383 126.916 333.079 126.916C332.767 126.916 332.548 126.705 332.548 126.418ZM332.674 127.734H333.484V131.742H332.674V127.734Z" fill="#3C3E3E"/>
<path d="M331.97 131.7C331.759 131.793 331.515 131.835 331.236 131.835C330.814 131.835 330.553 131.675 330.384 131.422C330.215 131.168 330.181 130.856 330.181 130.223V128.392H329.591V127.743H330.181V126.545H330.991V127.743H331.953V128.392H330.991V130.207C330.991 130.544 330.991 130.78 331.093 130.941C331.16 131.076 331.278 131.143 331.506 131.143C331.742 131.143 331.92 131.05 331.92 131.05L331.97 131.7Z" fill="#3C3E3E"/>
<path d="M326.528 130.645V130.654C326.865 131.008 327.338 131.227 327.709 131.227C328.08 131.227 328.477 131.092 328.477 130.654C328.477 130.257 328.004 130.13 327.574 129.987L327.397 129.928C326.857 129.751 326.393 129.455 326.393 128.814C326.393 128.072 327.034 127.667 327.743 127.667C328.452 127.667 328.857 127.92 329.11 128.19L328.772 128.688C328.536 128.443 328.148 128.257 327.76 128.257C327.372 128.257 327.118 128.426 327.118 128.755C327.118 129.084 327.507 129.228 327.903 129.354L328.443 129.548C328.89 129.734 329.228 130.046 329.228 130.569C329.228 131.438 328.511 131.835 327.701 131.835C327.026 131.835 326.477 131.556 326.14 131.118L326.528 130.645Z" fill="#3C3E3E"/>
<path d="M324.44 126.418C324.44 126.131 324.66 125.92 324.972 125.92C325.276 125.92 325.495 126.131 325.495 126.418C325.495 126.705 325.276 126.916 324.972 126.916C324.66 126.916 324.44 126.705 324.44 126.418ZM324.567 127.734H325.377V131.742H324.567V127.734Z" fill="#3C3E3E"/>
<path d="M320.984 125.92H321.803V131.05H323.853V131.742H320.984V125.92Z" fill="#3C3E3E"/>
<g clip-path="url(#clip6_6291_211451)">
<rect width="19.5281" height="7.32304" transform="translate(351.004 151.433)" fill="#BED73C"/>
</g>
<path d="M354.665 151.738H366.87C368.724 151.738 370.227 153.241 370.227 155.095C370.227 156.949 368.724 158.451 366.87 158.451H354.665C352.812 158.451 351.309 156.949 351.309 155.095C351.309 153.241 352.812 151.738 354.665 151.738Z" stroke="#004357" stroke-width="0.610253"/>
<g clip-path="url(#clip7_6291_211451)">
<rect width="19.5281" height="7.32304" transform="translate(372.973 151.433)" fill="#BED73C"/>
</g>
<path d="M376.634 151.738H388.839C390.693 151.738 392.196 153.241 392.196 155.095C392.196 156.949 390.693 158.451 388.839 158.451H376.634C374.78 158.451 373.278 156.949 373.278 155.095C373.278 153.241 374.78 151.738 376.634 151.738Z" stroke="#004357" stroke-width="0.610253"/>
<g clip-path="url(#clip8_6291_211451)">
<rect width="19.5281" height="7.32304" transform="translate(394.942 151.433)" fill="#BED73C"/>
</g>
<path d="M398.604 151.738H410.809C412.663 151.738 414.165 153.241 414.165 155.095C414.165 156.949 412.663 158.451 410.809 158.451H398.604C396.75 158.451 395.248 156.949 395.248 155.095C395.248 153.241 396.75 151.738 398.604 151.738Z" stroke="#004357" stroke-width="0.610253"/>
<g clip-path="url(#clip9_6291_211451)">
<rect width="19.5281" height="7.32304" transform="translate(416.911 151.433)" fill="#BED73C"/>
</g>
<path d="M420.573 151.738H432.778C434.631 151.738 436.134 153.241 436.134 155.095C436.134 156.949 434.631 158.451 432.778 158.451H420.573C418.719 158.451 417.216 156.949 417.216 155.095C417.216 153.241 418.719 151.738 420.573 151.738Z" stroke="#004357" stroke-width="0.610253"/>
<g clip-path="url(#clip10_6291_211451)">
<rect width="7.32304" height="7.32304" transform="translate(438.881 151.433)" fill="#BED73C"/>
</g>
<path d="M442.542 151.738H454.747C456.601 151.738 458.104 153.241 458.104 155.095C458.104 156.949 456.601 158.451 454.747 158.451H442.542C440.689 158.451 439.186 156.949 439.186 155.095C439.186 153.241 440.689 151.738 442.542 151.738Z" stroke="#004357" stroke-width="0.610253"/>
<path d="M464.511 151.738H476.716C478.57 151.738 480.073 153.241 480.073 155.095C480.073 156.949 478.57 158.451 476.716 158.451H464.511C462.657 158.451 461.155 156.949 461.155 155.095C461.155 153.241 462.657 151.738 464.511 151.738Z" stroke="#004357" stroke-width="0.610253"/>
</g>
<defs>
<clipPath id="clip0_6291_211451">
<path d="M60.1807 76.5414C60.1807 74.9322 61.4852 73.6277 63.0943 73.6277H245.705C247.314 73.6277 248.618 74.9322 248.618 76.5414V96.7296C248.618 98.3388 247.314 99.6433 245.704 99.6433H63.0943C61.4852 99.6433 60.1807 98.3388 60.1807 96.7296V76.5414Z" fill="white"/>
</clipPath>
<clipPath id="clip1_6291_211451">
<path d="M64.3994 102.557C64.3994 100.948 65.7039 99.6433 67.3131 99.6433H249.923C251.532 99.6433 252.837 100.948 252.837 102.557V123.448C252.837 125.058 251.532 126.362 249.923 126.362H67.3131C65.7039 126.362 64.3994 125.058 64.3994 123.448V102.557Z" fill="white"/>
</clipPath>
<clipPath id="clip2_6291_211451">
<path d="M60.1807 129.276C60.1807 127.667 61.4852 126.362 63.0943 126.362H245.705C247.314 126.362 248.618 127.667 248.618 129.276V149.464C248.618 151.073 247.314 152.378 245.704 152.378H63.0943C61.4852 152.378 60.1807 151.073 60.1807 149.464V129.276Z" fill="white"/>
</clipPath>
<clipPath id="clip3_6291_211451">
<path d="M64.3994 155.291C64.3994 153.682 65.7039 152.378 67.3131 152.378H249.923C251.532 152.378 252.837 153.682 252.837 155.291V176.183C252.837 177.792 251.532 179.096 249.923 179.096H67.3131C65.7039 179.096 64.3994 177.792 64.3994 176.183V155.291Z" fill="white"/>
</clipPath>
<clipPath id="clip4_6291_211451">
<rect width="39.375" height="39.375" fill="white" transform="translate(200.542 172.974)"/>
</clipPath>
<clipPath id="clip5_6291_211451">
<path d="M311.979 109.122C311.979 107.26 313.489 105.75 315.351 105.75H516.03C517.892 105.75 519.401 107.26 519.401 109.122V163.822C519.401 165.684 517.892 167.194 516.03 167.194H315.351C313.489 167.194 311.979 165.684 311.979 163.822V109.122Z" fill="white"/>
</clipPath>
<clipPath id="clip6_6291_211451">
<path d="M351.004 155.095C351.004 153.073 352.643 151.433 354.665 151.433H366.87C368.893 151.433 370.532 153.073 370.532 155.095V155.095C370.532 157.117 368.893 158.756 366.87 158.756H354.665C352.643 158.756 351.004 157.117 351.004 155.095V155.095Z" fill="white"/>
</clipPath>
<clipPath id="clip7_6291_211451">
<path d="M372.973 155.095C372.973 153.073 374.612 151.433 376.634 151.433H388.839C390.861 151.433 392.501 153.073 392.501 155.095V155.095C392.501 157.117 390.861 158.756 388.839 158.756H376.634C374.612 158.756 372.973 157.117 372.973 155.095V155.095Z" fill="white"/>
</clipPath>
<clipPath id="clip8_6291_211451">
<path d="M394.942 155.095C394.942 153.073 396.582 151.433 398.604 151.433H410.809C412.831 151.433 414.47 153.073 414.47 155.095V155.095C414.47 157.117 412.831 158.756 410.809 158.756H398.604C396.582 158.756 394.942 157.117 394.942 155.095V155.095Z" fill="white"/>
</clipPath>
<clipPath id="clip9_6291_211451">
<path d="M416.911 155.095C416.911 153.073 418.55 151.433 420.573 151.433H432.778C434.8 151.433 436.439 153.073 436.439 155.095V155.095C436.439 157.117 434.8 158.756 432.778 158.756H420.573C418.55 158.756 416.911 157.117 416.911 155.095V155.095Z" fill="white"/>
</clipPath>
<clipPath id="clip10_6291_211451">
<path d="M438.881 155.095C438.881 153.073 440.52 151.433 442.542 151.433H454.747C456.77 151.433 458.409 153.073 458.409 155.095V155.095C458.409 157.117 456.77 158.756 454.747 158.756H442.542C440.52 158.756 438.881 157.117 438.881 155.095V155.095Z" fill="white"/>
</clipPath>
</defs>
</svg>
