<svg width="720" height="284" viewBox="0 0 720 284" fill="none" xmlns="http://www.w3.org/2000/svg">
<path d="M51.2153 109.292C51.4254 109.618 51.3311 110.053 51.0045 110.263L45.6832 113.688C45.3566 113.898 44.9215 113.804 44.7114 113.477C44.5012 113.151 44.5956 112.716 44.9221 112.506L49.6522 109.461L46.6081 104.731C46.398 104.405 46.4923 103.97 46.8189 103.76C47.1454 103.549 47.5805 103.644 47.7906 103.97L51.2153 109.292ZM25.1375 50.2116C17.1664 58.8289 14.5685 71.5585 18.4566 83.1148C22.3357 94.6443 32.6978 105.065 50.773 108.985L50.475 110.359C31.9703 106.346 21.1777 95.6124 17.1237 83.5633C13.0789 71.541 15.7696 58.2681 24.1052 49.2567L25.1375 50.2116Z" fill="#004357"/>
<path d="M309.721 130.581L291.396 130.581C288.29 130.581 285.771 133.1 285.771 136.206L285.771 163.045" stroke="#BED73C" stroke-width="1.40625" stroke-linecap="round" stroke-linejoin="round" stroke-dasharray="2.81 2.81"/>
<path d="M190.225 203.68L178.306 203.68C175.199 203.68 172.681 201.161 172.681 198.055L172.681 182.586" stroke="#BED73C" stroke-width="1.40625" stroke-linecap="round" stroke-linejoin="round" stroke-dasharray="2.81 2.81"/>
<path d="M329.258 243.616C328.871 243.652 328.586 243.994 328.622 244.381L329.203 250.682C329.239 251.069 329.581 251.354 329.968 251.318C330.355 251.282 330.639 250.94 330.604 250.553L330.087 244.952L335.688 244.435C336.075 244.4 336.359 244.057 336.324 243.67C336.288 243.284 335.946 242.999 335.559 243.035L329.258 243.616ZM391.201 229.113C374.092 256.937 344.45 255.975 329.772 243.776L328.873 244.857C344.179 257.578 374.821 258.436 392.399 229.85L391.201 229.113Z" fill="#004357"/>
<path d="M368.09 100.334C368.353 100.62 368.797 100.639 369.084 100.377L373.748 96.0999C374.034 95.8374 374.053 95.3926 373.791 95.1064C373.528 94.8202 373.083 94.801 372.797 95.0634L368.651 98.8652L364.85 94.7195C364.587 94.4333 364.142 94.414 363.856 94.6765C363.57 94.9389 363.551 95.3837 363.813 95.6699L368.09 100.334ZM369.311 99.889C370.723 67.2568 397.089 53.6772 415.848 57.1944L416.107 55.8122C396.546 52.1446 369.357 66.3016 367.906 99.8282L369.311 99.889Z" fill="#004357"/>
<path d="M69.1455 85.5808C68.5654 85.5808 68.0908 86.0554 68.0908 86.6355C68.0908 87.2156 68.5654 87.6902 69.1455 87.6902C69.7256 87.6902 70.2002 87.2156 70.2002 86.6355C70.2002 86.0554 69.7256 85.5808 69.1455 85.5808ZM75.4736 85.5808C74.8936 85.5808 74.4189 86.0554 74.4189 86.6355C74.4189 87.2156 74.8936 87.6902 75.4736 87.6902C76.0537 87.6902 76.5283 87.2156 76.5283 86.6355C76.5283 86.0554 76.0537 85.5808 75.4736 85.5808ZM72.3096 85.5808C71.7295 85.5808 71.2549 86.0554 71.2549 86.6355C71.2549 87.2156 71.7295 87.6902 72.3096 87.6902C72.8896 87.6902 73.3643 87.2156 73.3643 86.6355C73.3643 86.0554 72.8896 85.5808 72.3096 85.5808Z" fill="#3C3E3E"/>
<path d="M73.3643 111.948C72.7842 111.948 72.3096 112.423 72.3096 113.003C72.3096 113.583 72.7842 114.057 73.3643 114.057C73.9443 114.057 74.4189 113.583 74.4189 113.003C74.4189 112.423 73.9443 111.948 73.3643 111.948ZM79.6924 111.948C79.1123 111.948 78.6377 112.423 78.6377 113.003C78.6377 113.583 79.1123 114.057 79.6924 114.057C80.2725 114.057 80.7471 113.583 80.7471 113.003C80.7471 112.423 80.2725 111.948 79.6924 111.948ZM76.5283 111.948C75.9482 111.948 75.4736 112.423 75.4736 113.003C75.4736 113.583 75.9482 114.057 76.5283 114.057C77.1084 114.057 77.583 113.583 77.583 113.003C77.583 112.423 77.1084 111.948 76.5283 111.948Z" fill="white"/>
<path d="M69.1455 138.315C68.5654 138.315 68.0908 138.79 68.0908 139.37C68.0908 139.95 68.5654 140.425 69.1455 140.425C69.7256 140.425 70.2002 139.95 70.2002 139.37C70.2002 138.79 69.7256 138.315 69.1455 138.315ZM75.4736 138.315C74.8936 138.315 74.4189 138.79 74.4189 139.37C74.4189 139.95 74.8936 140.425 75.4736 140.425C76.0537 140.425 76.5283 139.95 76.5283 139.37C76.5283 138.79 76.0537 138.315 75.4736 138.315ZM72.3096 138.315C71.7295 138.315 71.2549 138.79 71.2549 139.37C71.2549 139.95 71.7295 140.425 72.3096 140.425C72.8896 140.425 73.3643 139.95 73.3643 139.37C73.3643 138.79 72.8896 138.315 72.3096 138.315Z" fill="#3C3E3E"/>
<path d="M73.3643 164.682C72.7842 164.682 72.3096 165.157 72.3096 165.737C72.3096 166.317 72.7842 166.792 73.3643 166.792C73.9443 166.792 74.4189 166.317 74.4189 165.737C74.4189 165.157 73.9443 164.682 73.3643 164.682ZM79.6924 164.682C79.1123 164.682 78.6377 165.157 78.6377 165.737C78.6377 166.317 79.1123 166.792 79.6924 166.792C80.2725 166.792 80.7471 166.317 80.7471 165.737C80.7471 165.157 80.2725 164.682 79.6924 164.682ZM76.5283 164.682C75.9482 164.682 75.4736 165.157 75.4736 165.737C75.4736 166.317 75.9482 166.792 76.5283 166.792C77.1084 166.792 77.583 166.317 77.583 165.737C77.583 165.157 77.1084 164.682 76.5283 164.682Z" fill="#3C3E3E"/>
<path d="M294.418 255.356L286.066 247.918H306.379L298.028 255.356C296.999 256.272 295.447 256.272 294.418 255.356Z" fill="white"/>
<path d="M286.089 248.549L294.489 255.524C295.494 256.358 296.951 256.358 297.956 255.524L306.354 248.549" stroke="#004357" stroke-width="0.904586" stroke-linecap="square"/>
<g clip-path="url(#clip0_6286_125681)">
<path d="M231.881 198.568L223.883 195.607V193.907C223.883 193.592 223.622 193.331 223.307 193.331C222.991 193.331 222.73 193.592 222.73 193.907V195.738L220.23 197.799L217.731 195.738V193.915C217.731 193.6 217.469 193.338 217.154 193.338C216.839 193.338 216.577 193.6 216.577 193.915V195.615L208.579 198.575C207.157 199.106 206.195 200.483 206.195 201.998V211.78C206.195 212.095 206.457 212.357 206.772 212.357H233.689C234.004 212.357 234.265 212.095 234.265 211.78V201.99C234.265 200.475 233.304 199.098 231.881 198.568ZM216.624 199.129L217.416 196.968L219.138 198.391L216.885 199.375C216.785 199.421 216.708 199.375 216.677 199.337C216.639 199.306 216.585 199.237 216.624 199.129ZM219.146 202.736H221.315L223.345 211.195H217.116L219.146 202.736ZM221.276 201.582H219.177L218.877 199.767L220.23 199.175L221.584 199.767L221.276 201.582ZM221.322 198.391L223.045 196.968L223.837 199.129C223.876 199.229 223.822 199.306 223.791 199.337C223.76 199.368 223.683 199.414 223.583 199.375L221.322 198.391ZM207.349 201.99C207.349 200.952 208.003 200.006 208.979 199.644L216.185 196.976L215.539 198.737C215.355 199.252 215.485 199.806 215.878 200.175C216.139 200.421 216.462 200.544 216.793 200.544C216.977 200.544 217.162 200.506 217.339 200.429L217.785 200.237L218.1 202.136L215.931 211.195H211.194V209.081C211.194 208.765 210.933 208.504 210.617 208.504C210.302 208.504 210.041 208.765 210.041 209.081V211.195H207.349V201.99ZM233.112 211.195H230.42V209.081C230.42 208.765 230.159 208.504 229.843 208.504C229.528 208.504 229.267 208.765 229.267 209.081V211.195H224.529L222.353 202.136L222.668 200.237L223.114 200.429C223.291 200.506 223.476 200.544 223.66 200.544C223.991 200.544 224.322 200.421 224.575 200.175C224.975 199.798 225.106 199.245 224.914 198.737L224.276 196.984L231.481 199.652C232.458 200.014 233.112 200.952 233.112 201.998V211.195Z" fill="#004357"/>
<path d="M229.844 206.197C229.529 206.197 229.268 206.458 229.268 206.773V207.158C229.268 207.473 229.529 207.735 229.844 207.735C230.16 207.735 230.421 207.473 230.421 207.158V206.773C230.421 206.458 230.16 206.197 229.844 206.197Z" fill="#004357"/>
<path d="M210.618 207.735C210.933 207.735 211.195 207.473 211.195 207.158V206.773C211.195 206.458 210.933 206.197 210.618 206.197C210.302 206.197 210.041 206.458 210.041 206.773V207.158C210.041 207.473 210.302 207.735 210.618 207.735Z" fill="#004357"/>
<path d="M218.501 190.47C218.501 189.516 219.277 188.74 220.231 188.74H225.122C225.314 188.201 225.422 187.617 225.422 187.009V183.933C225.422 181.072 223.092 178.742 220.231 178.742C217.37 178.742 215.04 181.072 215.04 183.933V187.009C215.04 189.87 217.37 192.2 220.231 192.2C219.277 192.2 218.501 191.423 218.501 190.47Z" fill="#BED73C"/>
<path d="M228.69 181.434H227.729V180.472C227.729 176.335 224.368 172.974 220.231 172.974C216.093 172.974 212.732 176.335 212.732 180.472V181.434H211.771C210.602 181.434 209.656 182.38 209.656 183.548V188.932C209.656 190.101 210.602 191.047 211.771 191.047C212.94 191.047 213.886 190.101 213.886 188.932V180.472C213.886 176.973 216.731 174.128 220.231 174.128C223.73 174.128 226.575 176.973 226.575 180.472V189.893H220.231C219.915 189.893 219.654 190.155 219.654 190.47C219.654 190.785 219.915 191.047 220.231 191.047H228.69C229.859 191.047 230.805 190.101 230.805 188.932V183.548C230.805 182.38 229.859 181.434 228.69 181.434Z" fill="#BED73C"/>
</g>
<g clip-path="url(#clip1_6286_125681)">
<rect width="19.5281" height="7.32304" transform="translate(351.004 156.068)" fill="#BED73C"/>
</g>
<path d="M354.665 156.373H366.87C368.724 156.373 370.227 157.875 370.227 159.729C370.227 161.583 368.724 163.086 366.87 163.086H354.665C352.812 163.086 351.309 161.583 351.309 159.729C351.309 157.875 352.812 156.373 354.665 156.373Z" stroke="#004357" stroke-width="0.610253"/>
<g clip-path="url(#clip2_6286_125681)">
<rect width="19.5281" height="7.32304" transform="translate(372.973 156.068)" fill="#BED73C"/>
</g>
<path d="M376.634 156.373H388.839C390.693 156.373 392.196 157.875 392.196 159.729C392.196 161.583 390.693 163.086 388.839 163.086H376.634C374.78 163.086 373.278 161.583 373.278 159.729C373.278 157.875 374.78 156.373 376.634 156.373Z" stroke="#004357" stroke-width="0.610253"/>
<g clip-path="url(#clip3_6286_125681)">
<rect width="19.5281" height="7.32304" transform="translate(394.942 156.068)" fill="#BED73C"/>
</g>
<path d="M398.604 156.373H410.809C412.663 156.373 414.165 157.875 414.165 159.729C414.165 161.583 412.663 163.086 410.809 163.086H398.604C396.75 163.086 395.248 161.583 395.248 159.729C395.248 157.875 396.75 156.373 398.604 156.373Z" stroke="#004357" stroke-width="0.610253"/>
<g clip-path="url(#clip4_6286_125681)">
<rect width="19.5281" height="7.32304" transform="translate(416.911 156.068)" fill="#BED73C"/>
</g>
<path d="M420.573 156.373H432.778C434.631 156.373 436.134 157.875 436.134 159.729C436.134 161.583 434.631 163.086 432.778 163.086H420.573C418.719 163.086 417.216 161.583 417.216 159.729C417.216 157.875 418.719 156.373 420.573 156.373Z" stroke="#004357" stroke-width="0.610253"/>
<g clip-path="url(#clip5_6286_125681)">
<rect width="7.32304" height="7.32304" transform="translate(438.881 156.068)" fill="#BED73C"/>
</g>
<path d="M442.542 156.373H454.747C456.601 156.373 458.104 157.875 458.104 159.729C458.104 161.583 456.601 163.086 454.747 163.086H442.542C440.689 163.086 439.186 161.583 439.186 159.729C439.186 157.875 440.689 156.373 442.542 156.373Z" stroke="#004357" stroke-width="0.610253"/>
<path d="M464.511 156.373H476.716C478.57 156.373 480.073 157.875 480.073 159.729C480.073 161.583 478.57 163.086 476.716 163.086H464.511C462.657 163.086 461.155 161.583 461.155 159.729C461.155 157.875 462.657 156.373 464.511 156.373Z" stroke="#004357" stroke-width="0.610253"/>
<defs>
<clipPath id="clip0_6286_125681">
<rect width="39.375" height="39.375" fill="white" transform="translate(200.542 172.974)"/>
</clipPath>
<clipPath id="clip1_6286_125681">
<path d="M351.004 159.729C351.004 157.707 352.643 156.068 354.665 156.068H366.87C368.893 156.068 370.532 157.707 370.532 159.729V159.729C370.532 161.751 368.893 163.391 366.87 163.391H354.665C352.643 163.391 351.004 161.751 351.004 159.729V159.729Z" fill="white"/>
</clipPath>
<clipPath id="clip2_6286_125681">
<path d="M372.973 159.729C372.973 157.707 374.612 156.068 376.634 156.068H388.839C390.861 156.068 392.501 157.707 392.501 159.729V159.729C392.501 161.751 390.861 163.391 388.839 163.391H376.634C374.612 163.391 372.973 161.751 372.973 159.729V159.729Z" fill="white"/>
</clipPath>
<clipPath id="clip3_6286_125681">
<path d="M394.942 159.729C394.942 157.707 396.582 156.068 398.604 156.068H410.809C412.831 156.068 414.47 157.707 414.47 159.729V159.729C414.47 161.751 412.831 163.391 410.809 163.391H398.604C396.582 163.391 394.942 161.751 394.942 159.729V159.729Z" fill="white"/>
</clipPath>
<clipPath id="clip4_6286_125681">
<path d="M416.911 159.729C416.911 157.707 418.55 156.068 420.573 156.068H432.778C434.8 156.068 436.439 157.707 436.439 159.729V159.729C436.439 161.751 434.8 163.391 432.778 163.391H420.573C418.55 163.391 416.911 161.751 416.911 159.729V159.729Z" fill="white"/>
</clipPath>
<clipPath id="clip5_6286_125681">
<path d="M438.881 159.729C438.881 157.707 440.52 156.068 442.542 156.068H454.747C456.77 156.068 458.409 157.707 458.409 159.729V159.729C458.409 161.751 456.77 163.391 454.747 163.391H442.542C440.52 163.391 438.881 161.751 438.881 159.729V159.729Z" fill="white"/>
</clipPath>
</defs>
</svg>
