<svg width="900" height="355" viewBox="0 0 900 355" fill="none" xmlns="http://www.w3.org/2000/svg">
<path d="M64.0194 136.297C64.282 136.705 64.1641 137.249 63.7559 137.511L57.1042 141.792C56.696 142.055 56.1522 141.937 55.8895 141.529C55.6268 141.12 55.7447 140.577 56.1529 140.314L62.0655 136.509L58.2604 130.596C57.9977 130.188 58.1156 129.644 58.5238 129.381C58.932 129.119 59.4758 129.237 59.7385 129.645L64.0194 136.297ZM31.4222 62.4464C21.4583 73.2181 18.2108 89.13 23.071 103.575C27.9198 117.987 40.8725 131.013 63.4665 135.913L63.094 137.631C39.9631 132.615 26.4724 119.197 21.4049 104.136C16.3488 89.1082 19.7122 72.517 30.1318 61.2528L31.4222 62.4464Z" fill="#004357"/>
<path d="M387.151 162.908L364.245 162.908C360.362 162.908 357.214 166.056 357.214 169.94L357.214 203.488" stroke="#BED73C" stroke-width="1.75781" stroke-linecap="round" stroke-linejoin="round" stroke-dasharray="3.52 3.52"/>
<path d="M237.781 254.281L222.882 254.281C218.999 254.281 215.851 251.133 215.851 247.25L215.851 227.914" stroke="#BED73C" stroke-width="1.75781" stroke-linecap="round" stroke-linejoin="round" stroke-dasharray="3.52 3.52"/>
<path d="M411.574 304.202C411.091 304.247 410.735 304.675 410.78 305.158L411.506 313.035C411.551 313.518 411.979 313.874 412.462 313.829C412.946 313.785 413.301 313.357 413.257 312.873L412.611 305.872L419.612 305.226C420.096 305.181 420.451 304.753 420.407 304.27C420.362 303.787 419.934 303.431 419.451 303.475L411.574 304.202ZM489.003 286.073C467.617 320.853 430.565 319.65 412.217 304.401L411.093 305.753C430.226 321.654 468.528 322.727 490.501 286.994L489.003 286.073Z" fill="#004357"/>
<path d="M460.113 125.099C460.441 125.457 460.997 125.481 461.355 125.153L467.185 119.807C467.542 119.479 467.567 118.923 467.238 118.565C466.91 118.207 466.354 118.183 465.997 118.511L460.814 123.263L456.062 118.081C455.734 117.723 455.178 117.699 454.82 118.027C454.463 118.355 454.439 118.911 454.767 119.269L460.113 125.099ZM461.639 124.543C463.404 83.7528 496.361 66.7783 519.81 71.1748L520.134 69.4471C495.683 64.8626 461.697 82.5589 459.883 124.467L461.639 124.543Z" fill="#004357"/>
<path d="M86.4316 106.658C85.7065 106.658 85.1133 107.251 85.1133 107.976C85.1133 108.701 85.7065 109.294 86.4316 109.294C87.1567 109.294 87.75 108.701 87.75 107.976C87.75 107.251 87.1567 106.658 86.4316 106.658ZM94.3418 106.658C93.6167 106.658 93.0234 107.251 93.0234 107.976C93.0234 108.701 93.6167 109.294 94.3418 109.294C95.0669 109.294 95.6602 108.701 95.6602 107.976C95.6602 107.251 95.0669 106.658 94.3418 106.658ZM90.3867 106.658C89.6616 106.658 89.0684 107.251 89.0684 107.976C89.0684 108.701 89.6616 109.294 90.3867 109.294C91.1118 109.294 91.7051 108.701 91.7051 107.976C91.7051 107.251 91.1118 106.658 90.3867 106.658Z" fill="#3C3E3E"/>
<path d="M91.7051 139.617C90.98 139.617 90.3867 140.21 90.3867 140.935C90.3867 141.66 90.98 142.253 91.7051 142.253C92.4302 142.253 93.0234 141.66 93.0234 140.935C93.0234 140.21 92.4302 139.617 91.7051 139.617ZM99.6152 139.617C98.8901 139.617 98.2969 140.21 98.2969 140.935C98.2969 141.66 98.8901 142.253 99.6152 142.253C100.34 142.253 100.934 141.66 100.934 140.935C100.934 140.21 100.34 139.617 99.6152 139.617ZM95.6602 139.617C94.9351 139.617 94.3418 140.21 94.3418 140.935C94.3418 141.66 94.9351 142.253 95.6602 142.253C96.3853 142.253 96.9785 141.66 96.9785 140.935C96.9785 140.21 96.3853 139.617 95.6602 139.617Z" fill="white"/>
<path d="M86.4316 172.576C85.7065 172.576 85.1133 173.169 85.1133 173.894C85.1133 174.619 85.7065 175.212 86.4316 175.212C87.1567 175.212 87.75 174.619 87.75 173.894C87.75 173.169 87.1567 172.576 86.4316 172.576ZM94.3418 172.576C93.6167 172.576 93.0234 173.169 93.0234 173.894C93.0234 174.619 93.6167 175.212 94.3418 175.212C95.0669 175.212 95.6602 174.619 95.6602 173.894C95.6602 173.169 95.0669 172.576 94.3418 172.576ZM90.3867 172.576C89.6616 172.576 89.0684 173.169 89.0684 173.894C89.0684 174.619 89.6616 175.212 90.3867 175.212C91.1118 175.212 91.7051 174.619 91.7051 173.894C91.7051 173.169 91.1118 172.576 90.3867 172.576Z" fill="#3C3E3E"/>
<path d="M91.7051 205.535C90.98 205.535 90.3867 206.128 90.3867 206.853C90.3867 207.578 90.98 208.171 91.7051 208.171C92.4302 208.171 93.0234 207.578 93.0234 206.853C93.0234 206.128 92.4302 205.535 91.7051 205.535ZM99.6152 205.535C98.8901 205.535 98.2969 206.128 98.2969 206.853C98.2969 207.578 98.8901 208.171 99.6152 208.171C100.34 208.171 100.934 207.578 100.934 206.853C100.934 206.128 100.34 205.535 99.6152 205.535ZM95.6602 205.535C94.9351 205.535 94.3418 206.128 94.3418 206.853C94.3418 207.578 94.9351 208.171 95.6602 208.171C96.3853 208.171 96.9785 207.578 96.9785 206.853C96.9785 206.128 96.3853 205.535 95.6602 205.535Z" fill="#3C3E3E"/>
<path d="M368.022 319.377L357.583 310.079H382.974L372.535 319.377C371.248 320.522 369.308 320.522 368.022 319.377Z" fill="white"/>
<path d="M357.611 310.868L368.111 319.586C369.367 320.63 371.189 320.63 372.445 319.586L382.943 310.868" stroke="#004357" stroke-width="1.13073" stroke-linecap="square"/>
<g clip-path="url(#clip0_6286_125985)">
<path d="M289.852 247.891L279.854 244.19V242.066C279.854 241.672 279.527 241.345 279.133 241.345C278.739 241.345 278.412 241.672 278.412 242.066V244.354L275.288 246.93L272.164 244.354V242.075C272.164 241.681 271.837 241.354 271.443 241.354C271.049 241.354 270.722 241.681 270.722 242.075V244.2L260.724 247.901C258.946 248.564 257.744 250.285 257.744 252.179V264.406C257.744 264.801 258.071 265.127 258.465 265.127H292.111C292.505 265.127 292.832 264.801 292.832 264.406V252.169C292.832 250.275 291.63 248.555 289.852 247.891ZM270.779 248.593L271.77 245.892L273.923 247.67L271.106 248.901C270.981 248.958 270.885 248.901 270.847 248.853C270.799 248.814 270.731 248.728 270.779 248.593ZM273.932 253.101H276.643L279.181 263.676H271.395L273.932 253.101ZM276.595 251.66H273.971L273.596 249.391L275.288 248.651L276.98 249.391L276.595 251.66ZM276.653 247.67L278.806 245.892L279.796 248.593C279.845 248.718 279.777 248.814 279.739 248.853C279.7 248.891 279.604 248.949 279.479 248.901L276.653 247.67ZM259.186 252.169C259.186 250.871 260.003 249.689 261.224 249.237L270.231 245.901L269.424 248.103C269.193 248.747 269.357 249.439 269.847 249.9C270.174 250.208 270.578 250.362 270.991 250.362C271.222 250.362 271.452 250.314 271.673 250.218L272.231 249.977L272.625 252.352L269.914 263.676H263.993V261.032C263.993 260.638 263.666 260.311 263.272 260.311C262.878 260.311 262.551 260.638 262.551 261.032V263.676H259.186V252.169ZM291.39 263.676H288.025V261.032C288.025 260.638 287.698 260.311 287.304 260.311C286.91 260.311 286.583 260.638 286.583 261.032V263.676H280.662L277.941 252.352L278.335 249.977L278.893 250.218C279.114 250.314 279.345 250.362 279.575 250.362C279.989 250.362 280.402 250.208 280.719 249.9C281.219 249.429 281.383 248.737 281.142 248.103L280.344 245.911L289.352 249.247C290.573 249.698 291.39 250.871 291.39 252.179V263.676Z" fill="#004357"/>
<path d="M287.305 257.427C286.911 257.427 286.584 257.754 286.584 258.148V258.629C286.584 259.023 286.911 259.35 287.305 259.35C287.699 259.35 288.026 259.023 288.026 258.629V258.148C288.026 257.754 287.699 257.427 287.305 257.427Z" fill="#004357"/>
<path d="M263.272 259.35C263.666 259.35 263.993 259.023 263.993 258.629V258.148C263.993 257.754 263.666 257.427 263.272 257.427C262.878 257.427 262.551 257.754 262.551 258.148V258.629C262.551 259.023 262.878 259.35 263.272 259.35Z" fill="#004357"/>
<path d="M273.126 237.769C273.126 236.577 274.097 235.606 275.289 235.606H281.402C281.643 234.933 281.777 234.202 281.777 233.443V229.598C281.777 226.022 278.865 223.109 275.289 223.109C271.713 223.109 268.8 226.022 268.8 229.598V233.443C268.8 237.019 271.713 239.932 275.289 239.932C274.097 239.932 273.126 238.961 273.126 237.769Z" fill="#BED73C"/>
<path d="M285.863 226.474H284.661V225.272C284.661 220.1 280.46 215.899 275.288 215.899C270.116 215.899 265.916 220.1 265.916 225.272V226.474H264.714C263.253 226.474 262.07 227.656 262.07 229.117V235.846C262.07 237.307 263.253 238.49 264.714 238.49C266.175 238.49 267.357 237.307 267.357 235.846V225.272C267.357 220.898 270.914 217.341 275.288 217.341C279.662 217.341 283.219 220.898 283.219 225.272V237.048H275.288C274.894 237.048 274.567 237.375 274.567 237.769C274.567 238.163 274.894 238.49 275.288 238.49H285.863C287.324 238.49 288.506 237.307 288.506 235.846V229.117C288.506 227.656 287.324 226.474 285.863 226.474Z" fill="#BED73C"/>
</g>
<g clip-path="url(#clip1_6286_125985)">
<rect width="24.4101" height="9.1538" transform="translate(438.755 196.516)" fill="#BED73C"/>
</g>
<path d="M443.332 196.898H458.588C460.905 196.898 462.784 198.776 462.784 201.093C462.784 203.41 460.905 205.289 458.588 205.289H443.332C441.015 205.289 439.136 203.41 439.136 201.093C439.136 198.776 441.015 196.898 443.332 196.898Z" stroke="#004357" stroke-width="0.762817"/>
<g clip-path="url(#clip2_6286_125985)">
<rect width="24.4101" height="9.1538" transform="translate(466.216 196.516)" fill="#BED73C"/>
</g>
<path d="M470.793 196.898H486.049C488.366 196.898 490.245 198.776 490.245 201.093C490.245 203.41 488.366 205.289 486.049 205.289H470.793C468.476 205.289 466.597 203.41 466.597 201.093C466.597 198.776 468.476 196.898 470.793 196.898Z" stroke="#004357" stroke-width="0.762817"/>
<g clip-path="url(#clip3_6286_125985)">
<rect width="24.4101" height="9.1538" transform="translate(493.678 196.516)" fill="#BED73C"/>
</g>
<path d="M498.255 196.898H513.511C515.828 196.898 517.706 198.776 517.706 201.093C517.706 203.41 515.828 205.289 513.511 205.289H498.255C495.938 205.289 494.059 203.41 494.059 201.093C494.059 198.776 495.938 196.898 498.255 196.898Z" stroke="#004357" stroke-width="0.762817"/>
<g clip-path="url(#clip4_6286_125985)">
<rect width="24.4101" height="9.1538" transform="translate(521.139 196.516)" fill="#BED73C"/>
</g>
<path d="M525.716 196.898H540.972C543.289 196.898 545.167 198.776 545.167 201.093C545.167 203.41 543.289 205.289 540.972 205.289H525.716C523.398 205.289 521.52 203.41 521.52 201.093C521.52 198.776 523.398 196.898 525.716 196.898Z" stroke="#004357" stroke-width="0.762817"/>
<g clip-path="url(#clip5_6286_125985)">
<rect width="9.1538" height="9.1538" transform="translate(548.601 196.516)" fill="#BED73C"/>
</g>
<path d="M553.177 196.898H568.434C570.751 196.898 572.629 198.776 572.629 201.093C572.629 203.41 570.751 205.289 568.434 205.289H553.177C550.86 205.289 548.982 203.41 548.982 201.093C548.982 198.776 550.86 196.898 553.177 196.898Z" stroke="#004357" stroke-width="0.762817"/>
<g clip-path="url(#clip6_6286_125985)">
</g>
<path d="M580.638 196.898H595.895C598.212 196.898 600.09 198.776 600.09 201.093C600.09 203.41 598.212 205.289 595.895 205.289H580.638C578.321 205.289 576.443 203.41 576.443 201.093C576.443 198.776 578.321 196.898 580.638 196.898Z" stroke="#004357" stroke-width="0.762817"/>
<defs>
<clipPath id="clip0_6286_125985">
<rect width="49.2188" height="49.2188" fill="white" transform="translate(250.678 215.899)"/>
</clipPath>
<clipPath id="clip1_6286_125985">
<path d="M438.755 201.093C438.755 198.565 440.804 196.516 443.332 196.516H458.588C461.116 196.516 463.165 198.565 463.165 201.093V201.093C463.165 203.621 461.116 205.67 458.588 205.67H443.332C440.804 205.67 438.755 203.621 438.755 201.093V201.093Z" fill="white"/>
</clipPath>
<clipPath id="clip2_6286_125985">
<path d="M466.216 201.093C466.216 198.565 468.265 196.516 470.793 196.516H486.049C488.577 196.516 490.626 198.565 490.626 201.093V201.093C490.626 203.621 488.577 205.67 486.049 205.67H470.793C468.265 205.67 466.216 203.621 466.216 201.093V201.093Z" fill="white"/>
</clipPath>
<clipPath id="clip3_6286_125985">
<path d="M493.678 201.093C493.678 198.565 495.727 196.516 498.255 196.516H513.511C516.039 196.516 518.088 198.565 518.088 201.093V201.093C518.088 203.621 516.039 205.67 513.511 205.67H498.255C495.727 205.67 493.678 203.621 493.678 201.093V201.093Z" fill="white"/>
</clipPath>
<clipPath id="clip4_6286_125985">
<path d="M521.139 201.093C521.139 198.565 523.188 196.516 525.716 196.516H540.972C543.5 196.516 545.549 198.565 545.549 201.093V201.093C545.549 203.621 543.5 205.67 540.972 205.67H525.716C523.188 205.67 521.139 203.621 521.139 201.093V201.093Z" fill="white"/>
</clipPath>
<clipPath id="clip5_6286_125985">
<path d="M548.601 201.093C548.601 198.565 550.65 196.516 553.177 196.516H568.434C570.962 196.516 573.011 198.565 573.011 201.093V201.093C573.011 203.621 570.962 205.67 568.434 205.67H553.177C550.65 205.67 548.601 203.621 548.601 201.093V201.093Z" fill="white"/>
</clipPath>
<clipPath id="clip6_6286_125985">
<path d="M576.062 201.093C576.062 198.565 578.111 196.516 580.638 196.516H595.895C598.423 196.516 600.472 198.565 600.472 201.093V201.093C600.472 203.621 598.423 205.67 595.895 205.67H580.638C578.111 205.67 576.062 203.621 576.062 201.093V201.093Z" fill="white"/>
</clipPath>
</defs>
</svg>
