<svg width="900" height="355" viewBox="0 0 900 355" fill="none" xmlns="http://www.w3.org/2000/svg">
<g opacity="0.4">
<g clip-path="url(#clip0_6290_205464)">
<path d="M75.2256 95.3584C75.2256 93.3469 76.8562 91.7163 78.8677 91.7163H307.13C309.142 91.7163 310.772 93.3469 310.772 95.3584V120.594C310.772 122.605 309.142 124.236 307.13 124.236H78.8677C76.8562 124.236 75.2256 122.605 75.2256 120.594V95.3584Z" fill="white"/>
<path d="M75.2256 95.3584C75.2256 93.3469 76.8562 91.7163 78.8677 91.7163H307.13C309.142 91.7163 310.772 93.3469 310.772 95.3584V120.594C310.772 122.605 309.142 124.236 307.13 124.236H78.8677C76.8562 124.236 75.2256 122.605 75.2256 120.594V95.3584Z" fill="white" stroke="#004357" stroke-width="0.65918"/>
<path d="M208.272 106.233H209.791L209.779 107.171C210.123 106.435 210.788 106.126 211.535 106.126C213.185 106.126 213.6 107.194 213.6 108.571V111.976H212.081V108.903C212.081 108.049 211.927 107.372 211.049 107.372C210.112 107.372 209.791 108.155 209.791 109.117V111.976H208.272V106.233Z" fill="#3C3E3E"/>
<path d="M200.999 109.128C200.999 107.313 202.352 106.126 204.12 106.126C205.876 106.126 207.228 107.313 207.228 109.128C207.228 110.944 205.876 112.107 204.12 112.107C202.352 112.107 200.999 110.944 200.999 109.128ZM204.12 110.849C205.093 110.849 205.662 110.078 205.662 109.093C205.662 108.108 205.093 107.349 204.12 107.349C203.123 107.349 202.577 108.108 202.577 109.093C202.577 110.078 203.123 110.849 204.12 110.849Z" fill="#3C3E3E"/>
<path d="M198.235 104.477C198.235 103.991 198.615 103.635 199.149 103.635C199.683 103.635 200.063 103.991 200.063 104.477C200.063 104.976 199.683 105.32 199.149 105.32C198.615 105.32 198.235 104.976 198.235 104.477ZM198.39 106.233H199.908V111.976H198.39V106.233Z" fill="#3C3E3E"/>
<path d="M197.464 111.917C197.393 111.94 196.942 112.106 196.302 112.106C195.732 112.106 195.317 111.988 195.056 111.691C194.759 111.371 194.64 110.861 194.64 110.078V107.42H193.786V106.245H194.64V104.608H196.147V106.245H197.476V107.42H196.147V109.745C196.147 110.208 196.183 110.481 196.302 110.647C196.396 110.789 196.574 110.837 196.835 110.837C197.144 110.837 197.381 110.742 197.381 110.742L197.464 111.917Z" fill="#3C3E3E"/>
<path d="M191.595 111.312C191.358 111.727 190.694 112.107 189.839 112.107C188.724 112.107 187.822 111.501 187.822 110.303C187.822 109.105 188.997 108.642 190.183 108.559L191.56 108.464V108.31C191.56 107.574 191.073 107.23 190.278 107.23C189.519 107.23 188.89 107.515 188.641 107.705L188.178 106.732C188.617 106.471 189.424 106.126 190.421 106.126C191.441 106.126 192.023 106.387 192.45 106.791C192.865 107.194 193.079 107.716 193.079 108.689V111.976H191.619L191.595 111.312ZM190.539 109.449C189.733 109.496 189.341 109.769 189.341 110.256C189.341 110.742 189.709 111.074 190.338 111.074C190.931 111.074 191.37 110.73 191.572 110.445V109.389L190.539 109.449Z" fill="#3C3E3E"/>
<path d="M178.238 106.233H179.757L179.745 107.099H179.781C180.042 106.565 180.742 106.126 181.489 106.126C182.32 106.126 182.818 106.459 183.091 107.218C183.495 106.518 184.147 106.126 184.978 106.126C186.485 106.126 186.9 107.194 186.9 108.511V111.976H185.381V108.761C185.381 108.06 185.227 107.372 184.479 107.372C183.72 107.372 183.328 108.025 183.328 109.01V111.976H181.81V108.749C181.81 107.966 181.608 107.372 180.884 107.372C180.101 107.372 179.757 108.108 179.757 109.01V111.976H178.238V106.233Z" fill="#3C3E3E"/>
<path d="M173.951 106.233H175.458L175.434 107.159H175.47C175.695 106.542 176.265 106.126 176.882 106.126C177.273 106.126 177.487 106.233 177.487 106.233L177.38 107.55H177.309C177.143 107.503 176.882 107.479 176.68 107.479C176.229 107.479 175.873 107.669 175.672 108.037C175.517 108.322 175.458 108.713 175.458 109.152V111.976H173.951V106.233Z" fill="#3C3E3E"/>
<path d="M166.678 109.128C166.678 107.313 168.03 106.126 169.798 106.126C171.554 106.126 172.907 107.313 172.907 109.128C172.907 110.944 171.554 112.107 169.798 112.107C168.03 112.107 166.678 110.944 166.678 109.128ZM169.798 110.849C170.771 110.849 171.341 110.078 171.341 109.093C171.341 108.108 170.771 107.349 169.798 107.349C168.802 107.349 168.256 108.108 168.256 109.093C168.256 110.078 168.802 110.849 169.798 110.849Z" fill="#3C3E3E"/>
<path d="M163.725 107.42H162.942V106.245H163.725V105.806C163.725 105.106 163.915 104.537 164.212 104.216C164.509 103.872 164.983 103.647 165.648 103.647C166.348 103.647 166.775 103.765 166.775 103.765L166.68 104.857C166.68 104.857 166.348 104.762 166.027 104.762C165.375 104.762 165.221 105.201 165.221 105.747V106.245H166.538V107.42H165.244V111.976H163.725V107.42Z" fill="#3C3E3E"/>
<path d="M156.791 106.233H158.31L158.298 107.171C158.642 106.435 159.306 106.126 160.054 106.126C161.703 106.126 162.119 107.194 162.119 108.571V111.976H160.6V108.903C160.6 108.049 160.446 107.372 159.567 107.372C158.63 107.372 158.31 108.155 158.31 109.117V111.976H156.791V106.233Z" fill="#3C3E3E"/>
<path d="M153.671 104.477C153.671 103.991 154.051 103.635 154.585 103.635C155.118 103.635 155.498 103.991 155.498 104.477C155.498 104.976 155.118 105.32 154.585 105.32C154.051 105.32 153.671 104.976 153.671 104.477ZM153.825 106.233H155.344V111.976H153.825V106.233Z" fill="#3C3E3E"/>
<path d="M148.461 103.789H149.968V111.976H148.461V103.789Z" fill="#3C3E3E"/>
<path d="M145.618 111.312C145.381 111.727 144.716 112.107 143.862 112.107C142.746 112.107 141.845 111.501 141.845 110.303C141.845 109.105 143.019 108.642 144.206 108.559L145.582 108.464V108.31C145.582 107.574 145.096 107.23 144.301 107.23C143.541 107.23 142.913 107.515 142.663 107.705L142.201 106.732C142.64 106.471 143.447 106.126 144.443 106.126C145.464 106.126 146.045 106.387 146.472 106.791C146.887 107.194 147.101 107.716 147.101 108.689V111.976H145.642L145.618 111.312ZM144.562 109.449C143.755 109.496 143.363 109.769 143.363 110.256C143.363 110.742 143.731 111.074 144.36 111.074C144.953 111.074 145.392 110.73 145.594 110.445V109.389L144.562 109.449Z" fill="#3C3E3E"/>
<path d="M135.586 106.233H137.105L137.093 107.171C137.437 106.435 138.101 106.126 138.849 106.126C140.498 106.126 140.913 107.194 140.913 108.571V111.976H139.395V108.903C139.395 108.049 139.24 107.372 138.362 107.372C137.425 107.372 137.105 108.155 137.105 109.117V111.976H135.586V106.233Z" fill="#3C3E3E"/>
<path d="M128.312 109.128C128.312 107.313 129.665 106.126 131.433 106.126C133.189 106.126 134.542 107.313 134.542 109.128C134.542 110.944 133.189 112.107 131.433 112.107C129.665 112.107 128.312 110.944 128.312 109.128ZM131.433 110.849C132.406 110.849 132.976 110.078 132.976 109.093C132.976 108.108 132.406 107.349 131.433 107.349C130.436 107.349 129.891 108.108 129.891 109.093C129.891 110.078 130.436 110.849 131.433 110.849Z" fill="#3C3E3E"/>
<path d="M123.737 110.184C124.413 110.706 124.995 110.967 125.481 110.967C126.051 110.967 126.312 110.754 126.312 110.422C126.312 110.125 126.086 109.959 125.351 109.71L124.686 109.484C123.832 109.2 123.393 108.689 123.393 107.847C123.393 106.803 124.342 106.126 125.446 106.126C126.466 106.126 127.036 106.399 127.51 106.743L126.858 107.752C126.525 107.503 126.039 107.266 125.517 107.266C125.019 107.266 124.769 107.455 124.769 107.728C124.769 107.977 124.959 108.179 125.6 108.381L126.003 108.511C127.273 108.927 127.724 109.378 127.724 110.208C127.724 111.3 126.858 112.107 125.446 112.107C124.568 112.107 123.583 111.751 123.12 111.217L123.737 110.184Z" fill="#3C3E3E"/>
<path d="M119.26 106.233H120.767L120.743 107.159H120.779C121.004 106.542 121.573 106.126 122.19 106.126C122.582 106.126 122.796 106.233 122.796 106.233L122.689 107.55H122.618C122.452 107.503 122.19 107.479 121.989 107.479C121.538 107.479 121.182 107.669 120.98 108.037C120.826 108.322 120.767 108.713 120.767 109.152V111.976H119.26V106.233Z" fill="#3C3E3E"/>
<path d="M118.038 111.181C117.718 111.513 116.851 112.107 115.451 112.107C113.719 112.107 112.438 111.051 112.438 109.2C112.438 107.36 113.778 106.126 115.416 106.126C117.184 106.126 118.251 107.289 118.251 108.82C118.251 109.117 118.228 109.591 118.228 109.591H114.004C114.146 110.505 114.846 110.944 115.712 110.944C116.484 110.944 117.172 110.6 117.445 110.362L118.038 111.181ZM116.733 108.606C116.709 107.977 116.472 107.254 115.404 107.254C114.502 107.254 114.027 107.883 113.98 108.606H116.733Z" fill="#3C3E3E"/>
<path d="M108.989 103.789C109.807 103.789 110.519 103.955 111.041 104.394C111.575 104.833 111.896 105.415 111.896 106.245C111.896 107.076 111.575 107.669 111.041 108.108C110.519 108.547 109.807 108.749 108.989 108.749H107.909V111.976H106.354V103.789H108.989ZM108.799 107.538C109.273 107.538 109.594 107.42 109.855 107.23C110.116 107.04 110.306 106.708 110.306 106.245C110.306 105.794 110.08 105.462 109.819 105.272C109.558 105.082 109.238 104.999 108.763 104.999H107.897V107.538H108.799Z" fill="#3C3E3E"/>
<path d="M278.566 98.418H318.447C323.726 98.418 328.005 102.697 328.005 107.976C328.005 113.255 323.726 117.534 318.447 117.534H278.566C273.288 117.534 269.008 113.255 269.008 107.976C269.008 102.697 273.288 98.418 278.566 98.418Z" stroke="#BDBDBD" stroke-width="0.65918"/>
<path d="M296.595 111.095C296.485 111.123 296.078 111.243 295.543 111.243C295.017 111.243 294.667 111.086 294.436 110.819C294.205 110.551 294.113 110.173 294.113 109.48V107.718H293.467V106.601H294.113V105.365H295.599V106.601H296.604V107.718H295.599V109.351C295.599 109.739 295.654 109.831 295.728 109.914C295.792 109.988 295.885 110.025 296.078 110.025C296.309 110.025 296.521 109.942 296.521 109.942L296.595 111.095Z" fill="#7C7C7C"/>
<path d="M290.322 106.592H291.799L291.79 107.238H291.808C292.066 106.74 292.445 106.509 292.934 106.509C293.238 106.509 293.395 106.592 293.395 106.592L293.312 107.948H293.248C293.165 107.902 292.971 107.838 292.712 107.838C292.38 107.838 292.14 108.022 292.03 108.17C291.919 108.318 291.799 108.613 291.799 109.12V111.142H290.322V106.592Z" fill="#7C7C7C"/>
<path d="M287.969 110.662C287.775 110.855 287.406 111.243 286.668 111.243C285.865 111.243 285.016 110.809 285.016 109.794C285.016 108.779 285.948 108.438 286.788 108.401L287.932 108.354V108.253C287.932 107.773 287.59 107.524 287 107.524C286.418 107.524 285.837 107.782 285.606 107.93L285.219 106.97C285.606 106.776 286.317 106.509 287.166 106.509C288.015 106.509 288.504 106.703 288.864 107.035C289.215 107.367 289.408 107.81 289.408 108.576V111.142H287.996L287.969 110.662ZM287.212 109.185C286.76 109.204 286.492 109.397 286.492 109.739C286.492 110.089 286.778 110.302 287.184 110.302C287.581 110.302 287.849 110.043 287.941 109.886V109.139L287.212 109.185Z" fill="#7C7C7C"/>
<path d="M284.726 111.095C284.615 111.123 284.209 111.243 283.674 111.243C283.148 111.243 282.797 111.086 282.567 110.819C282.336 110.551 282.244 110.173 282.244 109.48V107.718H281.598V106.601H282.244V105.365H283.729V106.601H284.735V107.718H283.729V109.351C283.729 109.739 283.785 109.831 283.859 109.914C283.923 109.988 284.016 110.025 284.209 110.025C284.44 110.025 284.652 109.942 284.652 109.942L284.726 111.095Z" fill="#7C7C7C"/>
<path d="M277.327 109.203C277.789 109.683 278.499 110.006 278.988 110.006C279.468 110.006 279.837 109.776 279.837 109.351C279.837 108.917 279.357 108.76 279.09 108.65L278.204 108.318C277.401 108.022 276.866 107.542 276.866 106.601C276.866 105.291 278.038 104.7 279.21 104.7C279.948 104.7 280.797 105.051 281.231 105.484L280.594 106.527C280.225 106.158 279.653 105.881 279.173 105.881C278.693 105.881 278.342 106.066 278.342 106.453C278.342 106.841 278.684 106.989 278.988 107.099L279.939 107.459C280.742 107.764 281.323 108.281 281.323 109.203C281.323 110.588 280.077 111.252 278.85 111.252C277.927 111.252 277.106 110.772 276.589 110.292L277.327 109.203Z" fill="#7C7C7C"/>
<path d="M304.12 104.46L303.5 105.08L305.953 107.537H300.604V108.416H305.953L303.5 110.872L304.12 111.492L307.636 107.976L304.12 104.46Z" fill="#004357"/>
<path d="M86.4316 106.658C85.7065 106.658 85.1133 107.251 85.1133 107.976C85.1133 108.701 85.7065 109.294 86.4316 109.294C87.1567 109.294 87.75 108.701 87.75 107.976C87.75 107.251 87.1567 106.658 86.4316 106.658ZM94.3418 106.658C93.6167 106.658 93.0234 107.251 93.0234 107.976C93.0234 108.701 93.6167 109.294 94.3418 109.294C95.0669 109.294 95.6602 108.701 95.6602 107.976C95.6602 107.251 95.0669 106.658 94.3418 106.658ZM90.3867 106.658C89.6616 106.658 89.0684 107.251 89.0684 107.976C89.0684 108.701 89.6616 109.294 90.3867 109.294C91.1118 109.294 91.7051 108.701 91.7051 107.976C91.7051 107.251 91.1118 106.658 90.3867 106.658Z" fill="#3C3E3E"/>
</g>
<path d="M75.2256 95.3584C75.2256 93.3469 76.8562 91.7163 78.8677 91.7163H307.13C309.142 91.7163 310.772 93.3469 310.772 95.3584V120.594C310.772 122.605 309.142 124.236 307.13 124.236H78.8677C76.8562 124.236 75.2256 122.605 75.2256 120.594V95.3584Z" stroke="#004357" stroke-width="0.65918"/>
</g>
<g clip-path="url(#clip1_6290_205464)">
<path d="M80.499 127.878C80.499 125.866 82.1296 124.236 84.1411 124.236H312.404C314.415 124.236 316.046 125.866 316.046 127.878V153.992C316.046 156.004 314.415 157.634 312.404 157.634H84.1411C82.1296 157.634 80.499 156.004 80.499 153.992V127.878Z" fill="#F3F4F6"/>
<path d="M80.2256 128.358C80.2256 126.347 81.8562 124.716 83.8677 124.716H312.13C314.142 124.716 315.772 126.347 315.772 128.358V153.594C315.772 155.605 314.142 157.236 312.13 157.236H83.8677C81.8562 157.236 80.2256 155.605 80.2256 153.594V128.358Z" fill="white" stroke="#004357" stroke-width="0.65918"/>
<path d="M149.221 144.14C148.9 144.472 148.034 145.066 146.634 145.066C144.902 145.066 143.62 144.01 143.62 142.159C143.62 140.319 144.961 139.085 146.598 139.085C148.366 139.085 149.434 140.248 149.434 141.779C149.434 142.075 149.41 142.55 149.41 142.55H145.186C145.329 143.464 146.029 143.903 146.895 143.903C147.666 143.903 148.354 143.559 148.627 143.321L149.221 144.14ZM147.915 141.565C147.892 140.936 147.654 140.213 146.586 140.213C145.685 140.213 145.21 140.842 145.163 141.565H147.915Z" fill="#3C3E3E"/>
<path d="M133.977 139.192H135.495L135.483 140.058H135.519C135.78 139.524 136.48 139.085 137.228 139.085C138.058 139.085 138.557 139.418 138.829 140.177C139.233 139.477 139.885 139.085 140.716 139.085C142.223 139.085 142.638 140.153 142.638 141.47V144.935H141.119V141.72C141.119 141.019 140.965 140.331 140.218 140.331C139.458 140.331 139.067 140.984 139.067 141.969V144.935H137.548V141.708C137.548 140.925 137.346 140.331 136.623 140.331C135.839 140.331 135.495 141.067 135.495 141.969V144.935H133.977V139.192Z" fill="#3C3E3E"/>
<path d="M126.703 142.087C126.703 140.272 128.056 139.085 129.824 139.085C131.58 139.085 132.932 140.272 132.932 142.087C132.932 143.903 131.58 145.066 129.824 145.066C128.056 145.066 126.703 143.903 126.703 142.087ZM129.824 143.808C130.797 143.808 131.366 143.037 131.366 142.052C131.366 141.067 130.797 140.308 129.824 140.308C128.827 140.308 128.281 141.067 128.281 142.052C128.281 143.037 128.827 143.808 129.824 143.808Z" fill="#3C3E3E"/>
<path d="M126.247 144.294C126.128 144.401 125.535 145.066 124.004 145.066C122.438 145.066 120.99 143.986 120.99 142.111C120.99 140.225 122.485 139.085 124.028 139.085C125.475 139.085 126.045 139.667 126.199 139.821L125.784 140.96C125.606 140.794 125.096 140.355 124.206 140.355C123.304 140.355 122.58 140.984 122.58 142.04C122.58 143.096 123.304 143.784 124.289 143.784C125.274 143.784 125.819 143.179 125.819 143.179L126.247 144.294Z" fill="#3C3E3E"/>
<path d="M114.696 139.192H116.215L116.203 140.13C116.547 139.394 117.212 139.085 117.959 139.085C119.608 139.085 120.024 140.153 120.024 141.53V144.935H118.505V141.862C118.505 141.008 118.351 140.331 117.473 140.331C116.535 140.331 116.215 141.114 116.215 142.075V144.935H114.696V139.192Z" fill="#3C3E3E"/>
<path d="M111.64 136.748H113.182V144.935H111.64V136.748Z" fill="#3C3E3E"/>
<path d="M283.84 131.377H323.721C329 131.377 333.279 135.656 333.279 140.935C333.279 146.214 329 150.493 323.721 150.493H283.84C278.561 150.493 274.282 146.214 274.282 140.935C274.282 135.656 278.561 131.377 283.84 131.377Z" stroke="#BDBDBD" stroke-width="0.65918"/>
<path d="M301.869 144.054C301.758 144.082 301.352 144.202 300.817 144.202C300.291 144.202 299.94 144.045 299.709 143.778C299.479 143.51 299.386 143.132 299.386 142.439V140.677H298.74V139.56H299.386V138.323H300.872V139.56H301.878V140.677H300.872V142.31C300.872 142.698 300.927 142.79 301.001 142.873C301.066 142.947 301.158 142.984 301.352 142.984C301.583 142.984 301.795 142.901 301.795 142.901L301.869 144.054Z" fill="#7C7C7C"/>
<path d="M295.596 139.551H297.072L297.063 140.197H297.081C297.34 139.698 297.718 139.468 298.207 139.468C298.512 139.468 298.669 139.551 298.669 139.551L298.586 140.907H298.521C298.438 140.861 298.244 140.797 297.986 140.797C297.654 140.797 297.414 140.981 297.303 141.129C297.192 141.277 297.072 141.572 297.072 142.079V144.1H295.596V139.551Z" fill="#7C7C7C"/>
<path d="M293.242 143.621C293.048 143.814 292.679 144.202 291.941 144.202C291.138 144.202 290.289 143.768 290.289 142.753C290.289 141.738 291.221 141.397 292.061 141.36L293.205 141.313V141.212C293.205 140.732 292.864 140.483 292.273 140.483C291.692 140.483 291.11 140.741 290.88 140.889L290.492 139.929C290.88 139.735 291.59 139.468 292.439 139.468C293.288 139.468 293.777 139.662 294.137 139.994C294.488 140.326 294.682 140.769 294.682 141.535V144.1H293.27L293.242 143.621ZM292.485 142.144C292.033 142.163 291.766 142.356 291.766 142.698C291.766 143.048 292.052 143.261 292.458 143.261C292.855 143.261 293.122 143.002 293.215 142.845V142.098L292.485 142.144Z" fill="#7C7C7C"/>
<path d="M290 144.054C289.889 144.082 289.483 144.202 288.948 144.202C288.421 144.202 288.071 144.045 287.84 143.778C287.609 143.51 287.517 143.132 287.517 142.439V140.677H286.871V139.56H287.517V138.323H289.003V139.56H290.009V140.677H289.003V142.31C289.003 142.698 289.058 142.79 289.132 142.873C289.197 142.947 289.289 142.984 289.483 142.984C289.713 142.984 289.926 142.901 289.926 142.901L290 144.054Z" fill="#7C7C7C"/>
<path d="M282.601 142.162C283.062 142.642 283.773 142.965 284.262 142.965C284.742 142.965 285.111 142.735 285.111 142.31C285.111 141.876 284.631 141.719 284.363 141.609L283.477 141.277C282.674 140.981 282.139 140.501 282.139 139.56C282.139 138.25 283.311 137.659 284.483 137.659C285.221 137.659 286.071 138.01 286.504 138.443L285.867 139.486C285.498 139.117 284.926 138.84 284.446 138.84C283.966 138.84 283.616 139.025 283.616 139.412C283.616 139.8 283.957 139.948 284.262 140.058L285.212 140.418C286.015 140.723 286.597 141.24 286.597 142.162C286.597 143.547 285.351 144.211 284.123 144.211C283.2 144.211 282.379 143.731 281.862 143.251L282.601 142.162Z" fill="#7C7C7C"/>
<path d="M309.394 137.419L308.774 138.039L311.226 140.496H305.878V141.375H311.226L308.774 143.831L309.394 144.451L312.909 140.935L309.394 137.419Z" fill="#004357"/>
<path d="M91.7051 139.617C90.98 139.617 90.3867 140.21 90.3867 140.935C90.3867 141.66 90.98 142.253 91.7051 142.253C92.4302 142.253 93.0234 141.66 93.0234 140.935C93.0234 140.21 92.4302 139.617 91.7051 139.617ZM99.6152 139.617C98.8901 139.617 98.2969 140.21 98.2969 140.935C98.2969 141.66 98.8901 142.253 99.6152 142.253C100.34 142.253 100.934 141.66 100.934 140.935C100.934 140.21 100.34 139.617 99.6152 139.617ZM95.6602 139.617C94.9351 139.617 94.3418 140.21 94.3418 140.935C94.3418 141.66 94.9351 142.253 95.6602 142.253C96.3853 142.253 96.9785 141.66 96.9785 140.935C96.9785 140.21 96.3853 139.617 95.6602 139.617Z" fill="white"/>
</g>
<path d="M80.499 127.878C80.499 125.866 82.1296 124.236 84.1411 124.236H312.404C314.415 124.236 316.046 125.866 316.046 127.878V153.992C316.046 156.004 314.415 157.634 312.404 157.634H84.1411C82.1296 157.634 80.499 156.004 80.499 153.992V127.878Z" stroke="#004357" stroke-width="0.65918"/>
<g opacity="0.4">
<g clip-path="url(#clip2_6290_205464)">
<path d="M75.2256 161.276C75.2256 159.265 76.8562 157.634 78.8677 157.634H307.13C309.142 157.634 310.772 159.265 310.772 161.276V186.512C310.772 188.523 309.142 190.154 307.13 190.154H78.8677C76.8562 190.154 75.2256 188.523 75.2256 186.512V161.276Z" fill="white"/>
<path d="M75.2256 161.358C75.2256 159.347 76.8562 157.716 78.8677 157.716H307.13C309.142 157.716 310.772 159.347 310.772 161.358V186.594C310.772 188.605 309.142 190.236 307.13 190.236H78.8677C76.8562 190.236 75.2256 188.605 75.2256 186.594V161.358Z" fill="white" stroke="#004357" stroke-width="0.65918"/>
<path d="M151.095 176.102C151.771 176.624 152.352 176.885 152.839 176.885C153.408 176.885 153.669 176.672 153.669 176.34C153.669 176.043 153.444 175.877 152.708 175.628L152.044 175.402C151.189 175.118 150.75 174.607 150.75 173.765C150.75 172.721 151.7 172.044 152.803 172.044C153.824 172.044 154.393 172.317 154.868 172.661L154.215 173.67C153.883 173.421 153.396 173.183 152.874 173.183C152.376 173.183 152.127 173.373 152.127 173.646C152.127 173.895 152.317 174.097 152.957 174.299L153.361 174.429C154.63 174.845 155.081 175.296 155.081 176.126C155.081 177.218 154.215 178.025 152.803 178.025C151.925 178.025 150.94 177.669 150.478 177.135L151.095 176.102Z" fill="#3C3E3E"/>
<path d="M149.682 177.099C149.362 177.431 148.496 178.025 147.096 178.025C145.363 178.025 144.082 176.969 144.082 175.118C144.082 173.278 145.423 172.044 147.06 172.044C148.828 172.044 149.896 173.207 149.896 174.738C149.896 175.034 149.872 175.509 149.872 175.509H145.648C145.791 176.423 146.491 176.862 147.357 176.862C148.128 176.862 148.816 176.518 149.089 176.28L149.682 177.099ZM148.377 174.524C148.354 173.895 148.116 173.172 147.048 173.172C146.147 173.172 145.672 173.8 145.625 174.524H148.377Z" fill="#3C3E3E"/>
<path d="M139.53 176.102C140.206 176.624 140.788 176.885 141.274 176.885C141.844 176.885 142.105 176.672 142.105 176.34C142.105 176.043 141.879 175.877 141.144 175.628L140.479 175.402C139.625 175.118 139.186 174.607 139.186 173.765C139.186 172.721 140.135 172.044 141.239 172.044C142.259 172.044 142.829 172.317 143.303 172.661L142.651 173.67C142.318 173.421 141.832 173.183 141.31 173.183C140.812 173.183 140.562 173.373 140.562 173.646C140.562 173.895 140.752 174.097 141.393 174.299L141.796 174.429C143.066 174.845 143.517 175.296 143.517 176.126C143.517 177.218 142.651 178.025 141.239 178.025C140.361 178.025 139.376 177.669 138.913 177.135L139.53 176.102Z" fill="#3C3E3E"/>
<path d="M132.644 172.151H134.162L134.15 173.089C134.495 172.353 135.159 172.044 135.906 172.044C137.556 172.044 137.971 173.112 137.971 174.489V177.894H136.452V174.821C136.452 173.967 136.298 173.29 135.42 173.29C134.483 173.29 134.162 174.073 134.162 175.034V177.894H132.644V172.151Z" fill="#3C3E3E"/>
<path d="M131.422 177.099C131.101 177.431 130.235 178.025 128.835 178.025C127.103 178.025 125.821 176.969 125.821 175.118C125.821 173.278 127.162 172.044 128.799 172.044C130.567 172.044 131.635 173.207 131.635 174.738C131.635 175.034 131.612 175.509 131.612 175.509H127.387C127.53 176.423 128.23 176.862 129.096 176.862C129.867 176.862 130.556 176.518 130.828 176.28L131.422 177.099ZM130.117 174.524C130.093 173.895 129.855 173.172 128.788 173.172C127.886 173.172 127.411 173.8 127.364 174.524H130.117Z" fill="#3C3E3E"/>
<path d="M118.971 172.151H120.513L120.489 172.994C120.952 172.306 121.664 172.021 122.423 172.021C124.108 172.021 125.141 173.326 125.141 175.035C125.141 176.66 124.061 178.001 122.317 178.001C121.439 178.001 120.94 177.692 120.466 177.123C120.478 177.479 120.466 177.847 120.466 178.203V180.065H118.971V172.151ZM122.044 176.838C123.029 176.838 123.598 175.996 123.598 175.035C123.598 174.038 122.981 173.255 121.996 173.255C121.083 173.255 120.442 173.955 120.442 175.035C120.442 175.996 121.071 176.838 122.044 176.838Z" fill="#3C3E3E"/>
<path d="M114.173 174.88L112.18 172.151H113.912L115.111 174.026L116.309 172.151H118.041L116.048 174.892L118.29 177.894H116.546L115.111 175.794L113.675 177.894H111.931L114.173 174.88Z" fill="#3C3E3E"/>
<path d="M106.366 169.707H111.421V170.988H107.909V173.017H111.219V174.287H107.909V176.613H111.516V177.894H106.366V169.707Z" fill="#3C3E3E"/>
<path d="M278.566 164.336H318.447C323.726 164.336 328.005 168.615 328.005 173.894C328.005 179.173 323.726 183.452 318.447 183.452H278.566C273.288 183.452 269.008 179.173 269.008 173.894C269.008 168.615 273.288 164.336 278.566 164.336Z" stroke="#BDBDBD" stroke-width="0.65918"/>
<path d="M296.595 177.013C296.485 177.041 296.078 177.161 295.543 177.161C295.017 177.161 294.667 177.004 294.436 176.737C294.205 176.469 294.113 176.091 294.113 175.398V173.636H293.467V172.519H294.113V171.282H295.599V172.519H296.604V173.636H295.599V175.269C295.599 175.657 295.654 175.749 295.728 175.832C295.792 175.906 295.885 175.943 296.078 175.943C296.309 175.943 296.521 175.86 296.521 175.86L296.595 177.013Z" fill="#7C7C7C"/>
<path d="M290.322 172.51H291.799L291.79 173.156H291.808C292.066 172.657 292.445 172.427 292.934 172.427C293.238 172.427 293.395 172.51 293.395 172.51L293.312 173.866H293.248C293.165 173.82 292.971 173.756 292.712 173.756C292.38 173.756 292.14 173.94 292.03 174.088C291.919 174.236 291.799 174.531 291.799 175.038V177.059H290.322V172.51Z" fill="#7C7C7C"/>
<path d="M287.969 176.58C287.775 176.773 287.406 177.161 286.668 177.161C285.865 177.161 285.016 176.727 285.016 175.712C285.016 174.697 285.948 174.356 286.788 174.319L287.932 174.272V174.171C287.932 173.691 287.59 173.442 287 173.442C286.418 173.442 285.837 173.7 285.606 173.848L285.219 172.888C285.606 172.694 286.317 172.427 287.166 172.427C288.015 172.427 288.504 172.621 288.864 172.953C289.215 173.285 289.408 173.728 289.408 174.494V177.059H287.996L287.969 176.58ZM287.212 175.103C286.76 175.121 286.492 175.315 286.492 175.657C286.492 176.007 286.778 176.22 287.184 176.22C287.581 176.22 287.849 175.961 287.941 175.804V175.057L287.212 175.103Z" fill="#7C7C7C"/>
<path d="M284.726 177.013C284.615 177.041 284.209 177.161 283.674 177.161C283.148 177.161 282.797 177.004 282.567 176.737C282.336 176.469 282.244 176.091 282.244 175.398V173.636H281.598V172.519H282.244V171.282H283.729V172.519H284.735V173.636H283.729V175.269C283.729 175.657 283.785 175.749 283.859 175.832C283.923 175.906 284.016 175.943 284.209 175.943C284.44 175.943 284.652 175.86 284.652 175.86L284.726 177.013Z" fill="#7C7C7C"/>
<path d="M277.327 175.121C277.789 175.601 278.499 175.924 278.988 175.924C279.468 175.924 279.837 175.694 279.837 175.269C279.837 174.835 279.357 174.678 279.09 174.568L278.204 174.235C277.401 173.94 276.866 173.46 276.866 172.519C276.866 171.209 278.038 170.618 279.21 170.618C279.948 170.618 280.797 170.969 281.231 171.402L280.594 172.445C280.225 172.076 279.653 171.799 279.173 171.799C278.693 171.799 278.342 171.984 278.342 172.371C278.342 172.759 278.684 172.907 278.988 173.017L279.939 173.377C280.742 173.682 281.323 174.199 281.323 175.121C281.323 176.506 280.077 177.17 278.85 177.17C277.927 177.17 277.106 176.69 276.589 176.21L277.327 175.121Z" fill="#7C7C7C"/>
<path d="M304.12 170.378L303.5 170.998L305.953 173.455H300.604V174.333H305.953L303.5 176.79L304.12 177.41L307.636 173.894L304.12 170.378Z" fill="#004357"/>
<path d="M86.4316 172.576C85.7065 172.576 85.1133 173.169 85.1133 173.894C85.1133 174.619 85.7065 175.212 86.4316 175.212C87.1567 175.212 87.75 174.619 87.75 173.894C87.75 173.169 87.1567 172.576 86.4316 172.576ZM94.3418 172.576C93.6167 172.576 93.0234 173.169 93.0234 173.894C93.0234 174.619 93.6167 175.212 94.3418 175.212C95.0669 175.212 95.6602 174.619 95.6602 173.894C95.6602 173.169 95.0669 172.576 94.3418 172.576ZM90.3867 172.576C89.6616 172.576 89.0684 173.169 89.0684 173.894C89.0684 174.619 89.6616 175.212 90.3867 175.212C91.1118 175.212 91.7051 174.619 91.7051 173.894C91.7051 173.169 91.1118 172.576 90.3867 172.576Z" fill="#3C3E3E"/>
</g>
<path d="M75.2256 161.276C75.2256 159.265 76.8562 157.634 78.8677 157.634H307.13C309.142 157.634 310.772 159.265 310.772 161.276V186.512C310.772 188.523 309.142 190.154 307.13 190.154H78.8677C76.8562 190.154 75.2256 188.523 75.2256 186.512V161.276Z" stroke="#004357" stroke-width="0.65918"/>
</g>
<g opacity="0.4">
<g clip-path="url(#clip3_6290_205464)">
<path d="M80.499 193.796C80.499 191.784 82.1296 190.154 84.1411 190.154H312.404C314.415 190.154 316.046 191.784 316.046 193.796V219.91C316.046 221.922 314.415 223.552 312.404 223.552H84.1411C82.1296 223.552 80.499 221.922 80.499 219.91V193.796Z" fill="white"/>
<path d="M80.2256 193.358C80.2256 191.347 81.8562 189.716 83.8677 189.716H312.13C314.142 189.716 315.772 191.347 315.772 193.358V218.594C315.772 220.605 314.142 222.236 312.13 222.236H83.8677C81.8562 222.236 80.2256 220.605 80.2256 218.594V193.358Z" fill="white" stroke="#004357" stroke-width="0.65918"/>
<path d="M137.632 209.061C138.308 209.583 138.889 209.844 139.376 209.844C139.945 209.844 140.206 209.631 140.206 209.299C140.206 209.002 139.981 208.836 139.245 208.587L138.581 208.361C137.727 208.077 137.288 207.566 137.288 206.724C137.288 205.68 138.237 205.003 139.34 205.003C140.361 205.003 140.93 205.276 141.405 205.62L140.752 206.629C140.42 206.38 139.933 206.142 139.411 206.142C138.913 206.142 138.664 206.332 138.664 206.605C138.664 206.854 138.854 207.056 139.494 207.258L139.898 207.388C141.167 207.804 141.618 208.254 141.618 209.085C141.618 210.177 140.752 210.983 139.34 210.983C138.462 210.983 137.477 210.628 137.015 210.094L137.632 209.061Z" fill="#3C3E3E"/>
<path d="M136.564 210.794C136.493 210.817 136.042 210.983 135.401 210.983C134.832 210.983 134.416 210.865 134.155 210.568C133.859 210.248 133.74 209.738 133.74 208.954V206.297H132.886V205.122H133.74V203.485H135.247V205.122H136.576V206.297H135.247V208.622C135.247 209.085 135.283 209.358 135.401 209.524C135.496 209.666 135.674 209.714 135.935 209.714C136.244 209.714 136.481 209.619 136.481 209.619L136.564 210.794Z" fill="#3C3E3E"/>
<path d="M126.262 202.666H127.78V205.229C127.78 205.549 127.757 205.81 127.745 205.976C128.279 205.241 128.967 204.98 129.715 204.98C131.388 204.98 132.432 206.297 132.432 207.982C132.432 209.619 131.352 210.96 129.608 210.96C128.801 210.96 128.148 210.675 127.697 210.022L127.662 210.853H126.262V202.666ZM129.335 209.797C130.32 209.797 130.889 208.955 130.889 207.994C130.889 206.997 130.272 206.214 129.287 206.214C128.374 206.214 127.733 206.914 127.733 207.994C127.733 208.955 128.362 209.797 129.335 209.797Z" fill="#3C3E3E"/>
<path d="M124.98 210.058C124.66 210.39 123.794 210.983 122.394 210.983C120.661 210.983 119.38 209.927 119.38 208.077C119.38 206.237 120.721 205.003 122.358 205.003C124.126 205.003 125.194 206.166 125.194 207.697C125.194 207.993 125.17 208.468 125.17 208.468H120.946C121.088 209.382 121.789 209.821 122.655 209.821C123.426 209.821 124.114 209.477 124.387 209.239L124.98 210.058ZM123.675 207.483C123.651 206.854 123.414 206.131 122.346 206.131C121.444 206.131 120.97 206.759 120.922 207.483H123.675Z" fill="#3C3E3E"/>
<path d="M114.262 202.666C115.686 202.666 116.742 203.129 117.371 203.698C118.011 204.256 118.676 205.193 118.676 206.748C118.676 208.314 118.011 209.275 117.371 209.833C116.742 210.39 115.686 210.853 114.262 210.853H111.64V202.666H114.262ZM114.321 209.548C115.211 209.548 115.864 209.251 116.267 208.872C116.659 208.492 117.086 207.863 117.086 206.76C117.086 205.668 116.659 205.003 116.267 204.624C115.864 204.256 115.211 203.959 114.321 203.959H113.182V209.548H114.321Z" fill="#3C3E3E"/>
<path d="M283.84 197.295H323.721C329 197.295 333.279 201.574 333.279 206.853C333.279 212.132 329 216.411 323.721 216.411H283.84C278.561 216.411 274.282 212.132 274.282 206.853C274.282 201.574 278.561 197.295 283.84 197.295Z" stroke="#BDBDBD" stroke-width="0.65918"/>
<path d="M301.869 209.972C301.758 210 301.352 210.12 300.817 210.12C300.291 210.12 299.94 209.963 299.709 209.696C299.479 209.428 299.386 209.05 299.386 208.357V206.595H298.74V205.478H299.386V204.241H300.872V205.478H301.878V206.595H300.872V208.228C300.872 208.616 300.927 208.708 301.001 208.791C301.066 208.865 301.158 208.902 301.352 208.902C301.583 208.902 301.795 208.819 301.795 208.819L301.869 209.972Z" fill="#7C7C7C"/>
<path d="M295.596 205.469H297.072L297.063 206.115H297.081C297.34 205.616 297.718 205.386 298.207 205.386C298.512 205.386 298.669 205.469 298.669 205.469L298.586 206.825H298.521C298.438 206.779 298.244 206.715 297.986 206.715C297.654 206.715 297.414 206.899 297.303 207.047C297.192 207.195 297.072 207.49 297.072 207.997V210.018H295.596V205.469Z" fill="#7C7C7C"/>
<path d="M293.242 209.539C293.048 209.732 292.679 210.12 291.941 210.12C291.138 210.12 290.289 209.686 290.289 208.671C290.289 207.656 291.221 207.315 292.061 207.278L293.205 207.231V207.13C293.205 206.65 292.864 206.401 292.273 206.401C291.692 206.401 291.11 206.659 290.88 206.807L290.492 205.847C290.88 205.653 291.59 205.386 292.439 205.386C293.288 205.386 293.777 205.58 294.137 205.912C294.488 206.244 294.682 206.687 294.682 207.453V210.018H293.27L293.242 209.539ZM292.485 208.062C292.033 208.08 291.766 208.274 291.766 208.616C291.766 208.966 292.052 209.179 292.458 209.179C292.855 209.179 293.122 208.92 293.215 208.763V208.016L292.485 208.062Z" fill="#7C7C7C"/>
<path d="M290 209.972C289.889 210 289.483 210.12 288.948 210.12C288.421 210.12 288.071 209.963 287.84 209.696C287.609 209.428 287.517 209.05 287.517 208.357V206.595H286.871V205.478H287.517V204.241H289.003V205.478H290.009V206.595H289.003V208.228C289.003 208.616 289.058 208.708 289.132 208.791C289.197 208.865 289.289 208.902 289.483 208.902C289.713 208.902 289.926 208.819 289.926 208.819L290 209.972Z" fill="#7C7C7C"/>
<path d="M282.601 208.08C283.062 208.56 283.773 208.883 284.262 208.883C284.742 208.883 285.111 208.653 285.111 208.228C285.111 207.794 284.631 207.637 284.363 207.527L283.477 207.194C282.674 206.899 282.139 206.419 282.139 205.478C282.139 204.168 283.311 203.577 284.483 203.577C285.221 203.577 286.071 203.928 286.504 204.361L285.867 205.404C285.498 205.035 284.926 204.758 284.446 204.758C283.966 204.758 283.616 204.943 283.616 205.33C283.616 205.718 283.957 205.866 284.262 205.976L285.212 206.336C286.015 206.641 286.597 207.158 286.597 208.08C286.597 209.465 285.351 210.129 284.123 210.129C283.2 210.129 282.379 209.649 281.862 209.169L282.601 208.08Z" fill="#7C7C7C"/>
<path d="M309.394 203.337L308.774 203.957L311.226 206.414H305.878V207.292H311.226L308.774 209.749L309.394 210.369L312.909 206.853L309.394 203.337Z" fill="#004357"/>
<path d="M91.7051 205.535C90.98 205.535 90.3867 206.128 90.3867 206.853C90.3867 207.578 90.98 208.171 91.7051 208.171C92.4302 208.171 93.0234 207.578 93.0234 206.853C93.0234 206.128 92.4302 205.535 91.7051 205.535ZM99.6152 205.535C98.8901 205.535 98.2969 206.128 98.2969 206.853C98.2969 207.578 98.8901 208.171 99.6152 208.171C100.34 208.171 100.934 207.578 100.934 206.853C100.934 206.128 100.34 205.535 99.6152 205.535ZM95.6602 205.535C94.9351 205.535 94.3418 206.128 94.3418 206.853C94.3418 207.578 94.9351 208.171 95.6602 208.171C96.3853 208.171 96.9785 207.578 96.9785 206.853C96.9785 206.128 96.3853 205.535 95.6602 205.535Z" fill="#3C3E3E"/>
</g>
<path d="M80.499 193.796C80.499 191.784 82.1296 190.154 84.1411 190.154H312.404C314.415 190.154 316.046 191.784 316.046 193.796V219.91C316.046 221.922 314.415 223.552 312.404 223.552H84.1411C82.1296 223.552 80.499 221.922 80.499 219.91V193.796Z" stroke="#004357" stroke-width="0.65918"/>
</g>
<path d="M64.0194 136.297C64.282 136.705 64.1641 137.249 63.7559 137.511L57.1042 141.792C56.696 142.055 56.1522 141.937 55.8895 141.529C55.6268 141.12 55.7447 140.577 56.1529 140.314L62.0655 136.509L58.2604 130.596C57.9977 130.188 58.1156 129.644 58.5238 129.381C58.932 129.119 59.4758 129.237 59.7385 129.645L64.0194 136.297ZM31.4222 62.4464C21.4583 73.2181 18.2108 89.13 23.071 103.575C27.9198 117.987 40.8725 131.013 63.4665 135.913L63.094 137.631C39.9631 132.615 26.4724 119.197 21.4049 104.136C16.3488 89.1082 19.7122 72.517 30.1318 61.2528L31.4222 62.4464Z" fill="#004357"/>
<path d="M387.151 162.908L364.245 162.908C360.362 162.908 357.214 166.056 357.214 169.94L357.214 203.488" stroke="#BED73C" stroke-width="1.75781" stroke-linecap="round" stroke-linejoin="round" stroke-dasharray="3.52 3.52"/>
<path d="M237.781 254.281L222.882 254.281C218.999 254.281 215.851 251.133 215.851 247.25L215.851 227.914" stroke="#BED73C" stroke-width="1.75781" stroke-linecap="round" stroke-linejoin="round" stroke-dasharray="3.52 3.52"/>
<path d="M255.201 207.418H384.438C391.62 207.418 397.442 213.24 397.442 220.422V285.435C397.442 292.616 391.62 298.438 384.438 298.438H255.201C248.019 298.438 242.197 292.616 242.197 285.435V220.422C242.197 213.24 248.019 207.418 255.201 207.418Z" fill="white"/>
<path d="M255.201 207.418H384.438C391.62 207.418 397.442 213.24 397.442 220.422V285.435C397.442 292.616 391.62 298.438 384.438 298.438H255.201C248.019 298.438 242.197 292.616 242.197 285.435V220.422C242.197 213.24 248.019 207.418 255.201 207.418Z" stroke="#004357" stroke-width="1.13073"/>
<path d="M255.201 207.282H384.438C391.62 207.282 397.441 213.104 397.441 220.285V285.435C397.441 292.616 391.62 298.438 384.438 298.438H255.201C248.019 298.438 242.197 292.616 242.197 285.435V220.285C242.197 213.104 248.019 207.282 255.201 207.282Z" fill="white" stroke="#004357" stroke-width="1.13073"/>
<g clip-path="url(#clip4_6290_205464)">
<path d="M289.852 247.891L279.854 244.19V242.066C279.854 241.672 279.527 241.345 279.133 241.345C278.739 241.345 278.412 241.672 278.412 242.066V244.354L275.288 246.93L272.164 244.354V242.075C272.164 241.681 271.837 241.354 271.443 241.354C271.049 241.354 270.722 241.681 270.722 242.075V244.2L260.724 247.901C258.946 248.564 257.744 250.285 257.744 252.179V264.406C257.744 264.801 258.071 265.127 258.465 265.127H292.111C292.505 265.127 292.832 264.801 292.832 264.406V252.169C292.832 250.275 291.63 248.555 289.852 247.891ZM270.779 248.593L271.77 245.892L273.923 247.67L271.106 248.901C270.981 248.958 270.885 248.901 270.847 248.853C270.799 248.814 270.731 248.728 270.779 248.593ZM273.932 253.101H276.643L279.181 263.676H271.395L273.932 253.101ZM276.595 251.66H273.971L273.596 249.391L275.288 248.651L276.98 249.391L276.595 251.66ZM276.653 247.67L278.806 245.892L279.796 248.593C279.845 248.718 279.777 248.814 279.739 248.853C279.7 248.891 279.604 248.949 279.479 248.901L276.653 247.67ZM259.186 252.169C259.186 250.871 260.003 249.689 261.224 249.237L270.231 245.901L269.424 248.103C269.193 248.747 269.357 249.439 269.847 249.9C270.174 250.208 270.578 250.362 270.991 250.362C271.222 250.362 271.452 250.314 271.673 250.218L272.231 249.977L272.625 252.352L269.914 263.676H263.993V261.032C263.993 260.638 263.666 260.311 263.272 260.311C262.878 260.311 262.551 260.638 262.551 261.032V263.676H259.186V252.169ZM291.39 263.676H288.025V261.032C288.025 260.638 287.698 260.311 287.304 260.311C286.91 260.311 286.583 260.638 286.583 261.032V263.676H280.662L277.941 252.352L278.335 249.977L278.893 250.218C279.114 250.314 279.345 250.362 279.575 250.362C279.989 250.362 280.402 250.208 280.719 249.9C281.219 249.429 281.383 248.737 281.142 248.103L280.344 245.911L289.352 249.247C290.573 249.698 291.39 250.871 291.39 252.179V263.676Z" fill="#004357"/>
<path d="M287.305 257.427C286.911 257.427 286.584 257.754 286.584 258.148V258.629C286.584 259.023 286.911 259.35 287.305 259.35C287.699 259.35 288.026 259.023 288.026 258.629V258.148C288.026 257.754 287.699 257.427 287.305 257.427Z" fill="#004357"/>
<path d="M263.272 259.35C263.666 259.35 263.993 259.023 263.993 258.629V258.148C263.993 257.754 263.666 257.427 263.272 257.427C262.878 257.427 262.551 257.754 262.551 258.148V258.629C262.551 259.023 262.878 259.35 263.272 259.35Z" fill="#004357"/>
<path d="M273.126 237.769C273.126 236.577 274.097 235.606 275.289 235.606H281.402C281.643 234.933 281.777 234.202 281.777 233.443V229.598C281.777 226.022 278.865 223.109 275.289 223.109C271.713 223.109 268.8 226.022 268.8 229.598V233.443C268.8 237.019 271.713 239.932 275.289 239.932C274.097 239.932 273.126 238.961 273.126 237.769Z" fill="#BED73C"/>
<path d="M285.863 226.474H284.661V225.272C284.661 220.1 280.46 215.899 275.288 215.899C270.116 215.899 265.916 220.1 265.916 225.272V226.474H264.714C263.253 226.474 262.07 227.656 262.07 229.117V235.846C262.07 237.307 263.253 238.49 264.714 238.49C266.175 238.49 267.357 237.307 267.357 235.846V225.272C267.357 220.898 270.914 217.341 275.288 217.341C279.662 217.341 283.219 220.898 283.219 225.272V237.048H275.288C274.894 237.048 274.567 237.375 274.567 237.769C274.567 238.163 274.894 238.49 275.288 238.49H285.863C287.324 238.49 288.506 237.307 288.506 235.846V229.117C288.506 227.656 287.324 226.474 285.863 226.474Z" fill="#BED73C"/>
</g>
<path d="M386.302 274.164H388.726L388.509 283.065H386.501L386.302 274.164ZM386.049 285.507C386.049 284.657 386.646 284.15 387.514 284.15C388.346 284.15 388.962 284.657 388.962 285.507C388.962 286.339 388.346 286.846 387.514 286.846C386.646 286.846 386.049 286.339 386.049 285.507Z" fill="#3C3E3E"/>
<path d="M374.718 277.89H377.07L377.034 279.175C377.739 278.126 378.825 277.691 379.982 277.691C382.551 277.691 384.125 279.681 384.125 282.287C384.125 284.765 382.479 286.81 379.82 286.81C378.481 286.81 377.721 286.339 376.997 285.471C377.015 286.014 376.997 286.574 376.997 287.117V289.958H374.718V277.89ZM379.404 285.037C380.905 285.037 381.774 283.752 381.774 282.287C381.774 280.767 380.833 279.573 379.331 279.573C377.938 279.573 376.961 280.64 376.961 282.287C376.961 283.752 377.92 285.037 379.404 285.037Z" fill="#3C3E3E"/>
<path d="M370.143 274.164H372.44V286.647H370.143V274.164Z" fill="#3C3E3E"/>
<path d="M368.189 285.435C367.7 285.941 366.38 286.846 364.245 286.846C361.603 286.846 359.649 285.236 359.649 282.413C359.649 279.609 361.694 277.728 364.19 277.728C366.886 277.728 368.514 279.501 368.514 281.834C368.514 282.287 368.478 283.01 368.478 283.01H362.038C362.255 284.403 363.322 285.073 364.643 285.073C365.819 285.073 366.868 284.548 367.284 284.186L368.189 285.435ZM366.199 281.509C366.162 280.55 365.801 279.446 364.172 279.446C362.797 279.446 362.074 280.405 362.001 281.509H366.199Z" fill="#3C3E3E"/>
<path d="M350.037 274.164H352.335V279.211H352.371C352.841 278.288 353.728 277.728 354.994 277.728C357.509 277.728 358.142 279.356 358.142 281.455V286.647H355.826V281.961C355.826 280.659 355.591 279.627 354.252 279.627C352.823 279.627 352.335 280.821 352.335 282.287V286.647H350.037V274.164Z" fill="#3C3E3E"/>
<path d="M335.27 282.305C335.27 279.537 337.332 277.728 340.028 277.728C342.705 277.728 344.768 279.537 344.768 282.305C344.768 285.073 342.705 286.846 340.028 286.846C337.332 286.846 335.27 285.073 335.27 282.305ZM340.028 284.928C341.511 284.928 342.38 283.752 342.38 282.25C342.38 280.749 341.511 279.591 340.028 279.591C338.508 279.591 337.676 280.749 337.676 282.25C337.676 283.752 338.508 284.928 340.028 284.928Z" fill="#3C3E3E"/>
<path d="M334.474 286.556C334.365 286.593 333.678 286.846 332.701 286.846C331.832 286.846 331.199 286.665 330.801 286.213C330.349 285.724 330.168 284.946 330.168 283.752V279.7H328.865V277.909H330.168V275.412H332.465V277.909H334.492V279.7H332.465V283.246C332.465 283.951 332.52 284.367 332.701 284.621C332.845 284.838 333.117 284.91 333.515 284.91C333.985 284.91 334.347 284.765 334.347 284.765L334.474 286.556Z" fill="#3C3E3E"/>
<path d="M324.321 285.435C323.832 285.941 322.511 286.846 320.377 286.846C317.735 286.846 315.781 285.236 315.781 282.413C315.781 279.609 317.826 277.728 320.322 277.728C323.018 277.728 324.646 279.501 324.646 281.834C324.646 282.287 324.61 283.01 324.61 283.01H318.169C318.386 284.403 319.454 285.073 320.775 285.073C321.951 285.073 323 284.548 323.416 284.186L324.321 285.435ZM322.33 281.509C322.294 280.55 321.932 279.446 320.304 279.446C318.929 279.446 318.206 280.405 318.133 281.509H322.33Z" fill="#3C3E3E"/>
<path d="M309.823 277.89H312.121L312.085 279.302H312.139C312.483 278.361 313.351 277.728 314.292 277.728C314.889 277.728 315.215 277.89 315.215 277.89L315.052 279.899H314.943C314.69 279.826 314.292 279.79 313.984 279.79C313.297 279.79 312.754 280.079 312.447 280.64C312.211 281.075 312.121 281.672 312.121 282.341V286.647H309.823V277.89Z" fill="#3C3E3E"/>
<path d="M307.96 285.435C307.472 285.941 306.151 286.846 304.016 286.846C301.375 286.846 299.421 285.236 299.421 282.413C299.421 279.609 301.465 277.728 303.962 277.728C306.658 277.728 308.286 279.501 308.286 281.834C308.286 282.287 308.25 283.01 308.25 283.01H301.809C302.026 284.403 303.094 285.073 304.414 285.073C305.59 285.073 306.64 284.548 307.056 284.186L307.96 285.435ZM305.97 281.509C305.934 280.55 305.572 279.446 303.944 279.446C302.569 279.446 301.845 280.405 301.773 281.509H305.97Z" fill="#3C3E3E"/>
<path d="M289.808 274.164H292.105V279.211H292.141C292.612 278.288 293.498 277.728 294.765 277.728C297.28 277.728 297.913 279.356 297.913 281.455V286.647H295.597V281.961C295.597 280.659 295.362 279.627 294.023 279.627C292.594 279.627 292.105 280.821 292.105 282.287V286.647H289.808V274.164Z" fill="#3C3E3E"/>
<path d="M270.848 277.89H273.163L273.145 279.211H273.2C273.598 278.397 274.665 277.728 275.805 277.728C277.071 277.728 277.831 278.234 278.247 279.392C278.862 278.325 279.857 277.728 281.124 277.728C283.421 277.728 284.055 279.356 284.055 281.364V286.647H281.739V281.744C281.739 280.676 281.504 279.627 280.364 279.627C279.206 279.627 278.609 280.622 278.609 282.124V286.647H276.293V281.726C276.293 280.532 275.986 279.627 274.882 279.627C273.688 279.627 273.163 280.749 273.163 282.124V286.647H270.848V277.89Z" fill="#3C3E3E"/>
<path d="M266.199 274.164H268.478L266.759 278.361H264.878L266.199 274.164Z" fill="#3C3E3E"/>
<path d="M260.163 274.164H262.515V286.647H260.163V274.164Z" fill="#3C3E3E"/>
<path d="M255.942 274.164H257.734L256.413 278.361H254.224L255.942 274.164ZM252.396 274.164H254.188L252.867 278.361H250.678L252.396 274.164Z" fill="#3C3E3E"/>
<path d="M368.022 307.171L357.583 297.873H382.974L372.535 307.171C371.248 308.316 369.308 308.316 368.022 307.171Z" fill="white"/>
<path d="M357.611 298.662L368.111 307.381C369.367 308.424 371.189 308.424 372.445 307.38L382.943 298.662" stroke="#004357" stroke-width="1.13073" stroke-linecap="square"/>
<path d="M411.574 304.202C411.091 304.247 410.735 304.675 410.78 305.158L411.506 313.035C411.551 313.518 411.979 313.874 412.462 313.829C412.946 313.785 413.301 313.357 413.257 312.873L412.611 305.872L419.612 305.226C420.096 305.181 420.451 304.753 420.407 304.27C420.362 303.787 419.934 303.431 419.451 303.475L411.574 304.202ZM489.003 286.073C467.617 320.853 430.565 319.65 412.217 304.401L411.093 305.753C430.226 321.654 468.528 322.727 490.501 286.994L489.003 286.073Z" fill="#004357"/>
<path d="M460.113 125.099C460.441 125.457 460.997 125.481 461.355 125.153L467.185 119.807C467.542 119.479 467.567 118.923 467.238 118.565C466.91 118.207 466.354 118.183 465.997 118.511L460.814 123.263L456.062 118.081C455.734 117.723 455.178 117.699 454.82 118.027C454.463 118.355 454.439 118.911 454.767 119.269L460.113 125.099ZM461.639 124.543C463.404 83.7528 496.361 66.7783 519.81 71.1748L520.134 69.4471C495.683 64.8626 461.697 82.5589 459.883 124.467L461.639 124.543Z" fill="#004357"/>
<g clip-path="url(#clip5_6290_205464)">
<path d="M389.975 136.084C389.975 133.757 391.862 131.87 394.189 131.87H645.037C647.365 131.87 649.252 133.757 649.252 136.084V204.459C649.252 206.787 647.365 208.674 645.037 208.674H394.189C391.862 208.674 389.975 206.787 389.975 204.459V136.084Z" fill="#F3F4F6"/>
<path d="M389.975 136.084C389.975 133.757 391.862 131.87 394.189 131.87H645.037C647.365 131.87 649.252 133.757 649.252 136.084V204.459C649.252 206.787 647.365 208.674 645.037 208.674H394.189C391.862 208.674 389.975 206.787 389.975 204.459V136.084Z" fill="#F3F4F6"/>
<path d="M586.809 147.814C586.809 147.076 587.327 146.637 588.08 146.637C588.803 146.637 589.337 147.076 589.337 147.814C589.337 148.537 588.803 148.976 588.08 148.976C587.327 148.976 586.809 148.537 586.809 147.814Z" fill="#3C3E3E"/>
<path d="M584.924 147.752C584.5 148.191 583.354 148.976 581.501 148.976C579.209 148.976 577.513 147.579 577.513 145.129C577.513 142.696 579.287 141.062 581.454 141.062C583.794 141.062 585.207 142.601 585.207 144.627C585.207 145.019 585.175 145.648 585.175 145.648H579.585C579.774 146.857 580.7 147.438 581.846 147.438C582.867 147.438 583.778 146.982 584.139 146.668L584.924 147.752ZM583.197 144.344C583.165 143.512 582.851 142.554 581.438 142.554C580.245 142.554 579.617 143.386 579.554 144.344H583.197Z" fill="#3C3E3E"/>
<path d="M569.152 141.204H571.162L571.147 142.444C571.602 141.471 572.481 141.062 573.47 141.062C575.653 141.062 576.203 142.476 576.203 144.297V148.804H574.193V144.737C574.193 143.606 573.989 142.711 572.827 142.711C571.586 142.711 571.162 143.748 571.162 145.019V148.804H569.152V141.204Z" fill="#3C3E3E"/>
<path d="M559.527 145.035C559.527 142.633 561.317 141.062 563.657 141.062C565.981 141.062 567.771 142.633 567.771 145.035C567.771 147.438 565.981 148.976 563.657 148.976C561.317 148.976 559.527 147.438 559.527 145.035ZM563.657 147.312C564.945 147.312 565.698 146.291 565.698 144.988C565.698 143.685 564.945 142.68 563.657 142.68C562.338 142.68 561.616 143.685 561.616 144.988C561.616 146.291 562.338 147.312 563.657 147.312Z" fill="#3C3E3E"/>
<path d="M556.131 148.804L556.147 147.61C555.535 148.584 554.545 148.976 553.493 148.976C551.264 148.976 549.897 147.249 549.897 144.988C549.897 142.837 551.326 141.063 553.635 141.063C554.655 141.063 555.55 141.439 556.084 142.256C556.068 141.91 556.068 141.502 556.068 140.968V137.969H558.063V148.804H556.131ZM554.059 147.343C555.268 147.343 556.115 146.417 556.115 144.988C556.115 143.716 555.283 142.601 553.996 142.601C552.692 142.601 551.939 143.716 551.939 144.988C551.939 146.307 552.755 147.343 554.059 147.343Z" fill="#3C3E3E"/>
<path d="M546.093 148.725C545.999 148.757 545.402 148.976 544.554 148.976C543.801 148.976 543.251 148.819 542.906 148.427C542.513 148.003 542.356 147.328 542.356 146.291V142.774H541.226V141.22H542.356V139.053H544.35V141.22H546.109V142.774H544.35V145.852C544.35 146.464 544.397 146.825 544.554 147.045C544.68 147.234 544.916 147.296 545.261 147.296C545.669 147.296 545.983 147.171 545.983 147.171L546.093 148.725Z" fill="#3C3E3E"/>
<path d="M535.484 146.433C536.38 147.124 537.149 147.469 537.793 147.469C538.546 147.469 538.892 147.186 538.892 146.747C538.892 146.354 538.593 146.134 537.62 145.805L536.741 145.506C535.61 145.129 535.029 144.454 535.029 143.339C535.029 141.958 536.285 141.062 537.746 141.062C539.096 141.062 539.85 141.424 540.478 141.879L539.614 143.214C539.174 142.884 538.531 142.57 537.84 142.57C537.18 142.57 536.851 142.821 536.851 143.182C536.851 143.512 537.102 143.779 537.95 144.046L538.484 144.219C540.164 144.768 540.76 145.365 540.76 146.464C540.76 147.909 539.614 148.976 537.746 148.976C536.584 148.976 535.28 148.505 534.668 147.799L535.484 146.433Z" fill="#3C3E3E"/>
<path d="M525.607 145.035C525.607 142.633 527.397 141.062 529.737 141.062C532.061 141.062 533.851 142.633 533.851 145.035C533.851 147.438 532.061 148.976 529.737 148.976C527.397 148.976 525.607 147.438 525.607 145.035ZM529.737 147.312C531.025 147.312 531.778 146.291 531.778 144.988C531.778 143.685 531.025 142.68 529.737 142.68C528.418 142.68 527.696 143.685 527.696 144.988C527.696 146.291 528.418 147.312 529.737 147.312Z" fill="#3C3E3E"/>
<path d="M512.815 141.204H514.825L514.81 142.35H514.857C515.202 141.643 516.129 141.062 517.118 141.062C518.217 141.062 518.876 141.502 519.238 142.507C519.771 141.581 520.635 141.062 521.734 141.062C523.728 141.062 524.278 142.476 524.278 144.219V148.804H522.268V144.548C522.268 143.622 522.064 142.711 521.075 142.711C520.07 142.711 519.552 143.575 519.552 144.878V148.804H517.542V144.533C517.542 143.496 517.275 142.711 516.317 142.711C515.281 142.711 514.825 143.685 514.825 144.878V148.804H512.815V141.204Z" fill="#3C3E3E"/>
<path d="M508.892 137.969H510.886V148.804H508.892V137.969Z" fill="#3C3E3E"/>
<path d="M505.129 147.924C504.815 148.474 503.936 148.976 502.805 148.976C501.329 148.976 500.136 148.176 500.136 146.59C500.136 145.004 501.69 144.391 503.26 144.281L505.082 144.156V143.952C505.082 142.978 504.438 142.523 503.386 142.523C502.381 142.523 501.549 142.9 501.219 143.151L500.607 141.863C501.188 141.518 502.256 141.062 503.575 141.062C504.925 141.062 505.694 141.408 506.26 141.942C506.809 142.476 507.092 143.167 507.092 144.454V148.804H505.16L505.129 147.924ZM503.732 145.459C502.664 145.522 502.146 145.883 502.146 146.527C502.146 147.171 502.632 147.61 503.465 147.61C504.25 147.61 504.831 147.155 505.098 146.778V145.381L503.732 145.459Z" fill="#3C3E3E"/>
<path d="M495.987 147.752C495.563 148.191 494.416 148.976 492.564 148.976C490.271 148.976 488.575 147.579 488.575 145.129C488.575 142.696 490.35 141.062 492.516 141.062C494.856 141.062 496.269 142.601 496.269 144.627C496.269 145.019 496.238 145.648 496.238 145.648H490.648C490.836 146.857 491.763 147.438 492.909 147.438C493.93 147.438 494.84 146.982 495.201 146.668L495.987 147.752ZM494.259 144.344C494.228 143.512 493.914 142.554 492.501 142.554C491.307 142.554 490.679 143.386 490.616 144.344H494.259Z" fill="#3C3E3E"/>
<path d="M483.404 141.204H485.398L485.367 142.429H485.414C485.713 141.612 486.466 141.062 487.283 141.062C487.801 141.062 488.084 141.204 488.084 141.204L487.942 142.947H487.848C487.628 142.884 487.283 142.853 487.016 142.853C486.419 142.853 485.948 143.104 485.681 143.591C485.477 143.967 485.398 144.486 485.398 145.067V148.804H483.404V141.204Z" fill="#3C3E3E"/>
<path d="M479.369 137.969H481.347L479.856 141.612H478.223L479.369 137.969Z" fill="#3C3E3E"/>
<path d="M474.366 147.736C473.926 148.49 473.11 148.945 472.01 148.945C471.084 148.945 470.456 148.694 470.032 148.27C469.467 147.689 469.294 146.762 469.294 145.71V141.204H471.304V145.271C471.304 146.401 471.492 147.296 472.654 147.296C473.863 147.296 474.319 146.338 474.319 145.067V141.204H476.328V148.804H474.381L474.366 147.736Z" fill="#3C3E3E"/>
<path d="M459.81 145.035C459.81 142.633 461.6 141.062 463.939 141.062C466.263 141.062 468.053 142.633 468.053 145.035C468.053 147.438 466.263 148.976 463.939 148.976C461.6 148.976 459.81 147.438 459.81 145.035ZM463.939 147.312C465.227 147.312 465.98 146.291 465.98 144.988C465.98 143.685 465.227 142.68 463.939 142.68C462.62 142.68 461.898 143.685 461.898 144.988C461.898 146.291 462.62 147.312 463.939 147.312Z" fill="#3C3E3E"/>
<path d="M453.643 144.344L449.891 137.969H452.152L454.68 142.617L457.192 137.969H459.453L455.685 144.344V148.804H453.643V144.344Z" fill="#3C3E3E"/>
<path d="M592.317 169.082H593.372L593.277 174.419H592.401L592.317 169.082ZM592.138 175.811C592.138 175.399 592.433 175.146 592.844 175.146C593.245 175.146 593.54 175.399 593.54 175.811C593.54 176.211 593.245 176.465 592.844 176.465C592.433 176.465 592.138 176.211 592.138 175.811Z" fill="#3C3E3E"/>
<path d="M590.547 175.304C590.547 176.412 590.368 177.024 589.999 177.467C589.63 177.92 589.008 178.426 587.763 178.426C586.529 178.426 585.675 177.783 585.527 177.677L586.002 176.971C586.265 177.203 587.046 177.604 587.795 177.604C588.544 177.604 588.965 177.308 589.166 177.055C589.366 176.813 589.546 176.338 589.546 175.652V175.378C589.187 175.906 588.617 176.296 587.763 176.296C586.487 176.296 585.358 175.357 585.358 173.828C585.358 172.161 586.487 171.254 587.774 171.254C588.586 171.254 589.176 171.613 589.524 172.13H589.546V171.349H590.547V175.304ZM587.985 175.473C588.987 175.473 589.577 174.724 589.577 173.796C589.577 172.794 588.987 172.067 587.985 172.067C586.983 172.067 586.392 172.805 586.392 173.796C586.392 174.724 586.983 175.473 587.985 175.473Z" fill="#3C3E3E"/>
<path d="M579.99 171.349H581.003L580.992 172.204C581.266 171.613 581.91 171.254 582.553 171.254C583.977 171.254 584.346 172.193 584.346 173.395V176.359H583.334V173.564C583.334 172.72 583.186 172.088 582.289 172.088C581.351 172.088 581.003 172.879 581.003 173.838V176.359H579.99V171.349Z" fill="#3C3E3E"/>
<path d="M577.382 169.704C577.382 169.345 577.656 169.082 578.046 169.082C578.426 169.082 578.7 169.345 578.7 169.704C578.7 170.063 578.426 170.326 578.046 170.326C577.656 170.326 577.382 170.063 577.382 169.704ZM577.54 171.349H578.553V176.359H577.54V171.349Z" fill="#3C3E3E"/>
<path d="M571.135 173.87C571.135 172.32 572.295 171.254 573.793 171.254C575.28 171.254 576.44 172.32 576.44 173.87C576.44 175.431 575.28 176.475 573.793 176.475C572.295 176.475 571.135 175.431 571.135 173.87ZM573.793 175.61C574.795 175.61 575.417 174.83 575.417 173.838C575.417 172.858 574.795 172.077 573.793 172.077C572.78 172.077 572.158 172.858 572.158 173.838C572.158 174.83 572.78 175.61 573.793 175.61Z" fill="#3C3E3E"/>
<path d="M570.072 175.304C570.072 176.412 569.893 177.024 569.523 177.467C569.154 177.92 568.532 178.426 567.287 178.426C566.054 178.426 565.199 177.783 565.052 177.677L565.526 176.971C565.79 177.203 566.57 177.604 567.319 177.604C568.068 177.604 568.49 177.308 568.69 177.055C568.891 176.813 569.07 176.338 569.07 175.652V175.378C568.711 175.906 568.142 176.296 567.287 176.296C566.011 176.296 564.883 175.357 564.883 173.828C564.883 172.161 566.011 171.254 567.298 171.254C568.11 171.254 568.701 171.613 569.049 172.13H569.07V171.349H570.072V175.304ZM567.509 175.473C568.511 175.473 569.102 174.724 569.102 173.796C569.102 172.794 568.511 172.067 567.509 172.067C566.507 172.067 565.916 172.805 565.916 173.796C565.916 174.724 566.507 175.473 567.509 175.473Z" fill="#3C3E3E"/>
<path d="M554.509 171.349H555.521L555.511 172.14H555.542C555.774 171.676 556.323 171.254 556.987 171.254C557.726 171.254 558.242 171.592 558.474 172.246C558.812 171.613 559.36 171.254 560.067 171.254C561.406 171.254 561.765 172.235 561.765 173.322V176.359H560.763V173.438C560.763 172.858 560.658 172.088 559.846 172.088C559.044 172.088 558.643 172.858 558.643 173.754V176.359H557.631V173.438C557.631 172.699 557.451 172.088 556.724 172.088C555.922 172.088 555.521 172.858 555.521 173.754V176.359H554.509V171.349Z" fill="#3C3E3E"/>
<path d="M552.124 175.642C551.85 176.127 551.28 176.475 550.574 176.475C549.857 176.475 549.445 176.233 549.182 175.895C548.929 175.558 548.812 175.062 548.812 174.345V171.339H549.814V174.303C549.814 174.988 549.962 175.631 550.859 175.631C551.745 175.631 552.103 174.872 552.103 174.028V171.339H553.116V176.359H552.135L552.124 175.642Z" fill="#3C3E3E"/>
<path d="M548.015 176.306C547.752 176.422 547.446 176.475 547.098 176.475C546.57 176.475 546.243 176.275 546.032 175.958C545.821 175.642 545.779 175.252 545.779 174.461V172.172H545.041V171.36H545.779V169.862H546.792V171.36H547.994V172.172H546.792V174.44C546.792 174.862 546.792 175.157 546.918 175.357C547.003 175.526 547.15 175.61 547.435 175.61C547.73 175.61 547.952 175.494 547.952 175.494L548.015 176.306Z" fill="#3C3E3E"/>
<path d="M539.873 171.349H540.886L540.875 172.204C541.149 171.613 541.793 171.254 542.436 171.254C543.86 171.254 544.229 172.193 544.229 173.395V176.359H543.216V173.564C543.216 172.72 543.069 172.088 542.172 172.088C541.234 172.088 540.886 172.879 540.886 173.838V176.359H539.873V171.349Z" fill="#3C3E3E"/>
<path d="M538.668 175.684C538.604 175.737 537.961 176.475 536.463 176.475C534.976 176.475 533.953 175.442 533.953 173.849C533.953 172.267 535.103 171.254 536.495 171.254C537.887 171.254 538.868 172.246 538.868 173.649C538.868 173.838 538.836 174.092 538.836 174.092H534.976C535.029 175.083 535.662 175.684 536.59 175.684C537.529 175.684 538.13 175.178 538.246 175.104L538.668 175.684ZM537.908 173.417C537.898 172.858 537.476 171.982 536.463 171.982C535.461 171.982 535.018 172.815 534.987 173.417H537.908Z" fill="#3C3E3E"/>
<path d="M525.68 171.349H526.692L526.682 172.14H526.713C526.945 171.676 527.494 171.254 528.158 171.254C528.896 171.254 529.413 171.592 529.645 172.246C529.983 171.613 530.531 171.254 531.238 171.254C532.577 171.254 532.936 172.235 532.936 173.322V176.359H531.934V173.438C531.934 172.858 531.829 172.088 531.016 172.088C530.215 172.088 529.814 172.858 529.814 173.754V176.359H528.802V173.438C528.802 172.699 528.622 172.088 527.895 172.088C527.093 172.088 526.692 172.858 526.692 173.754V176.359H525.68V171.349Z" fill="#3C3E3E"/>
<path d="M519.317 173.87C519.317 172.32 520.478 171.254 521.975 171.254C523.462 171.254 524.622 172.32 524.622 173.87C524.622 175.431 523.462 176.475 521.975 176.475C520.478 176.475 519.317 175.431 519.317 173.87ZM521.975 175.61C522.977 175.61 523.599 174.83 523.599 173.838C523.599 172.858 522.977 172.077 521.975 172.077C520.963 172.077 520.34 172.858 520.34 173.838C520.34 174.83 520.963 175.61 521.975 175.61Z" fill="#3C3E3E"/>
<path d="M511.044 171.349H512.056L512.046 172.14H512.078C512.31 171.676 512.858 171.254 513.522 171.254C514.261 171.254 514.778 171.592 515.01 172.246C515.347 171.613 515.896 171.254 516.602 171.254C517.942 171.254 518.3 172.235 518.3 173.322V176.359H517.298V173.438C517.298 172.858 517.193 172.088 516.381 172.088C515.579 172.088 515.178 172.858 515.178 173.754V176.359H514.166V173.438C514.166 172.699 513.987 172.088 513.259 172.088C512.457 172.088 512.056 172.858 512.056 173.754V176.359H511.044V171.349Z" fill="#3C3E3E"/>
<path d="M507.738 175.684C507.675 175.737 507.031 176.475 505.534 176.475C504.046 176.475 503.023 175.442 503.023 173.849C503.023 172.267 504.173 171.254 505.565 171.254C506.957 171.254 507.938 172.246 507.938 173.649C507.938 173.838 507.907 174.092 507.907 174.092H504.046C504.099 175.083 504.732 175.684 505.66 175.684C506.599 175.684 507.2 175.178 507.316 175.104L507.738 175.684ZM506.979 173.417C506.968 172.858 506.546 171.982 505.534 171.982C504.532 171.982 504.089 172.815 504.057 173.417H506.979Z" fill="#3C3E3E"/>
<path d="M497.635 169.082H498.637V172.14H498.658C498.921 171.645 499.47 171.254 500.198 171.254C501.643 171.254 501.991 172.183 501.991 173.374V176.359H500.978V173.522C500.978 172.805 500.862 172.088 499.945 172.088C499.027 172.088 498.637 172.879 498.637 173.881V176.359H497.635V169.082Z" fill="#3C3E3E"/>
<path d="M496.744 176.306C496.48 176.422 496.174 176.475 495.826 176.475C495.299 176.475 494.972 176.275 494.761 175.958C494.55 175.642 494.508 175.252 494.508 174.461V172.172H493.77V171.36H494.508V169.862H495.52V171.36H496.723V172.172H495.52V174.44C495.52 174.862 495.52 175.157 495.647 175.357C495.731 175.526 495.879 175.61 496.164 175.61C496.459 175.61 496.68 175.494 496.68 175.494L496.744 176.306Z" fill="#3C3E3E"/>
<path d="M485.966 171.349H486.936V172.14C487.379 171.55 488.001 171.254 488.74 171.254C490.216 171.254 491.155 172.362 491.155 173.849C491.155 175.336 490.206 176.475 488.719 176.475C487.928 176.475 487.347 176.138 486.989 175.579L486.978 176.591V178.321H485.966V171.349ZM488.529 175.61C489.531 175.61 490.121 174.84 490.121 173.838C490.121 172.836 489.531 172.077 488.529 172.077C487.527 172.077 486.936 172.836 486.936 173.838C486.936 174.84 487.527 175.61 488.529 175.61Z" fill="#3C3E3E"/>
<path d="M484.717 175.684C484.654 175.737 484.011 176.475 482.513 176.475C481.026 176.475 480.003 175.442 480.003 173.849C480.003 172.267 481.153 171.254 482.545 171.254C483.937 171.254 484.918 172.246 484.918 173.649C484.918 173.838 484.886 174.092 484.886 174.092H481.026C481.079 175.083 481.712 175.684 482.64 175.684C483.578 175.684 484.179 175.178 484.296 175.104L484.717 175.684ZM483.958 173.417C483.947 172.858 483.526 171.982 482.513 171.982C481.511 171.982 481.068 172.815 481.037 173.417H483.958Z" fill="#3C3E3E"/>
<path d="M479.084 175.684C479.02 175.737 478.377 176.475 476.879 176.475C475.392 176.475 474.369 175.442 474.369 173.849C474.369 172.267 475.519 171.254 476.911 171.254C478.303 171.254 479.284 172.246 479.284 173.649C479.284 173.838 479.252 174.092 479.252 174.092H475.392C475.445 175.083 476.078 175.684 477.006 175.684C477.945 175.684 478.546 175.178 478.662 175.104L479.084 175.684ZM478.324 173.417C478.314 172.858 477.892 171.982 476.879 171.982C475.877 171.982 475.434 172.815 475.403 173.417H478.324Z" fill="#3C3E3E"/>
<path d="M469.62 169.082H470.622V173.353L472.668 171.349H473.849L471.888 173.237L474.103 176.359H472.921L471.202 173.933L470.622 174.482V176.359H469.62V169.082Z" fill="#3C3E3E"/>
<path d="M464.979 175.241H466.013L465.043 177.836H464.241L464.979 175.241Z" fill="#3C3E3E"/>
<path d="M458.26 171.349H459.23V172.14C459.673 171.55 460.295 171.254 461.034 171.254C462.51 171.254 463.449 172.362 463.449 173.849C463.449 175.336 462.5 176.475 461.012 176.475C460.221 176.475 459.641 176.138 459.283 175.579L459.272 176.591V178.321H458.26V171.349ZM460.823 175.61C461.825 175.61 462.415 174.84 462.415 173.838C462.415 172.836 461.825 172.077 460.823 172.077C459.821 172.077 459.23 172.836 459.23 173.838C459.23 174.84 459.821 175.61 460.823 175.61Z" fill="#3C3E3E"/>
<path d="M457.011 175.684C456.948 175.737 456.305 176.475 454.807 176.475C453.32 176.475 452.297 175.442 452.297 173.849C452.297 172.267 453.446 171.254 454.839 171.254C456.231 171.254 457.212 172.246 457.212 173.649C457.212 173.838 457.18 174.092 457.18 174.092H453.32C453.373 175.083 454.005 175.684 454.934 175.684C455.872 175.684 456.473 175.178 456.589 175.104L457.011 175.684ZM456.252 173.417C456.241 172.858 455.82 171.982 454.807 171.982C453.805 171.982 453.362 172.815 453.33 173.417H456.252Z" fill="#3C3E3E"/>
<path d="M451.796 176.306C451.532 176.422 451.226 176.475 450.878 176.475C450.351 176.475 450.024 176.275 449.813 175.958C449.602 175.642 449.56 175.252 449.56 174.461V172.172H448.821V171.36H449.56V169.862H450.572V171.36H451.774V172.172H450.572V174.44C450.572 174.862 450.572 175.157 450.699 175.357C450.783 175.526 450.931 175.61 451.215 175.61C451.511 175.61 451.732 175.494 451.732 175.494L451.796 176.306Z" fill="#3C3E3E"/>
<path d="M444.992 174.988V174.998C445.414 175.441 446.004 175.716 446.469 175.716C446.933 175.716 447.428 175.547 447.428 174.998C447.428 174.503 446.838 174.345 446.3 174.165L446.078 174.091C445.403 173.87 444.823 173.501 444.823 172.699C444.823 171.771 445.625 171.265 446.511 171.265C447.397 171.265 447.903 171.581 448.219 171.919L447.797 172.541C447.502 172.235 447.017 172.003 446.532 172.003C446.047 172.003 445.73 172.214 445.73 172.625C445.73 173.037 446.215 173.216 446.711 173.374L447.386 173.617C447.945 173.849 448.367 174.239 448.367 174.893C448.367 175.979 447.471 176.475 446.458 176.475C445.614 176.475 444.929 176.127 444.507 175.579L444.992 174.988Z" fill="#3C3E3E"/>
<path d="M634.62 162.988V162.998C635.042 163.441 635.632 163.716 636.096 163.716C636.561 163.716 637.056 163.547 637.056 162.998C637.056 162.503 636.466 162.345 635.928 162.165L635.706 162.091C635.031 161.87 634.451 161.501 634.451 160.699C634.451 159.771 635.253 159.265 636.139 159.265C637.025 159.265 637.531 159.581 637.847 159.919L637.425 160.541C637.13 160.235 636.645 160.003 636.16 160.003C635.675 160.003 635.358 160.214 635.358 160.625C635.358 161.037 635.843 161.216 636.339 161.374L637.014 161.617C637.573 161.849 637.995 162.239 637.995 162.893C637.995 163.979 637.098 164.475 636.086 164.475C635.242 164.475 634.557 164.127 634.135 163.579L634.62 162.988Z" fill="#3C3E3E"/>
<path d="M632.012 157.704C632.012 157.345 632.286 157.082 632.676 157.082C633.056 157.082 633.33 157.345 633.33 157.704C633.33 158.063 633.056 158.326 632.676 158.326C632.286 158.326 632.012 158.063 632.012 157.704ZM632.17 159.349H633.182V164.359H632.17V159.349Z" fill="#3C3E3E"/>
<path d="M626.402 157.082H627.404V160.14H627.425C627.689 159.645 628.238 159.254 628.965 159.254C630.41 159.254 630.758 160.183 630.758 161.374V164.359H629.746V161.522C629.746 160.805 629.63 160.088 628.712 160.088C627.795 160.088 627.404 160.879 627.404 161.881V164.359H626.402V157.082Z" fill="#3C3E3E"/>
<path d="M625.51 164.306C625.247 164.422 624.941 164.475 624.593 164.475C624.065 164.475 623.738 164.275 623.528 163.958C623.317 163.642 623.274 163.252 623.274 162.461V160.172H622.536V159.36H623.274V157.862H624.287V159.36H625.489V160.172H624.287V162.44C624.287 162.862 624.287 163.157 624.413 163.357C624.498 163.526 624.646 163.61 624.93 163.61C625.226 163.61 625.447 163.494 625.447 163.494L625.51 164.306Z" fill="#3C3E3E"/>
<path d="M619.572 163.304C619.572 164.412 619.393 165.024 619.023 165.467C618.654 165.92 618.032 166.426 616.787 166.426C615.554 166.426 614.699 165.783 614.552 165.677L615.026 164.971C615.29 165.203 616.07 165.604 616.819 165.604C617.568 165.604 617.99 165.308 618.19 165.055C618.391 164.813 618.57 164.338 618.57 163.652V163.378C618.211 163.906 617.642 164.296 616.787 164.296C615.511 164.296 614.383 163.357 614.383 161.828C614.383 160.161 615.511 159.254 616.798 159.254C617.61 159.254 618.201 159.613 618.549 160.13H618.57V159.349H619.572V163.304ZM617.009 163.473C618.011 163.473 618.602 162.724 618.602 161.796C618.602 160.794 618.011 160.067 617.009 160.067C616.007 160.067 615.416 160.805 615.416 161.796C615.416 162.724 616.007 163.473 617.009 163.473Z" fill="#3C3E3E"/>
<path d="M609.015 159.349H610.027L610.017 160.204C610.291 159.613 610.934 159.254 611.578 159.254C613.001 159.254 613.371 160.193 613.371 161.395V164.359H612.358V161.564C612.358 160.72 612.21 160.088 611.314 160.088C610.375 160.088 610.027 160.879 610.027 161.838V164.359H609.015V159.349Z" fill="#3C3E3E"/>
<path d="M606.406 157.704C606.406 157.345 606.68 157.082 607.071 157.082C607.45 157.082 607.725 157.345 607.725 157.704C607.725 158.063 607.45 158.326 607.071 158.326C606.68 158.326 606.406 158.063 606.406 157.704ZM606.564 159.349H607.577V164.359H606.564V159.349Z" fill="#3C3E3E"/>
<path d="M605.683 164.306C605.42 164.422 605.114 164.475 604.766 164.475C604.238 164.475 603.911 164.275 603.7 163.958C603.489 163.642 603.447 163.252 603.447 162.461V160.172H602.709V159.36H603.447V157.862H604.46V159.36H605.662V160.172H604.46V162.44C604.46 162.862 604.46 163.157 604.586 163.357C604.671 163.526 604.818 163.61 605.103 163.61C605.398 163.61 605.62 163.494 605.62 163.494L605.683 164.306Z" fill="#3C3E3E"/>
<path d="M602.042 163.684C601.978 163.737 601.335 164.475 599.837 164.475C598.35 164.475 597.327 163.442 597.327 161.849C597.327 160.267 598.477 159.254 599.869 159.254C601.261 159.254 602.242 160.246 602.242 161.649C602.242 161.838 602.21 162.092 602.21 162.092H598.35C598.403 163.083 599.036 163.684 599.964 163.684C600.903 163.684 601.504 163.178 601.62 163.104L602.042 163.684ZM601.282 161.417C601.272 160.858 600.85 159.982 599.837 159.982C598.835 159.982 598.392 160.815 598.361 161.417H601.282Z" fill="#3C3E3E"/>
<path d="M595.215 157.082H596.217V164.359H595.215V157.082Z" fill="#3C3E3E"/>
<path d="M588.921 159.349H589.891V160.14C590.334 159.55 590.956 159.254 591.695 159.254C593.171 159.254 594.11 160.362 594.11 161.849C594.11 163.336 593.161 164.475 591.674 164.475C590.883 164.475 590.303 164.138 589.944 163.579L589.933 164.591V166.321H588.921V159.349ZM591.484 163.61C592.486 163.61 593.076 162.84 593.076 161.838C593.076 160.836 592.486 160.077 591.484 160.077C590.482 160.077 589.891 160.836 589.891 161.838C589.891 162.84 590.482 163.61 591.484 163.61Z" fill="#3C3E3E"/>
<path d="M580.269 159.349H581.281L581.271 160.14H581.302C581.534 159.676 582.083 159.254 582.747 159.254C583.485 159.254 584.002 159.592 584.234 160.246C584.572 159.613 585.12 159.254 585.827 159.254C587.166 159.254 587.525 160.235 587.525 161.322V164.359H586.523V161.438C586.523 160.858 586.417 160.088 585.605 160.088C584.804 160.088 584.403 160.858 584.403 161.754V164.359H583.39V161.438C583.39 160.699 583.211 160.088 582.483 160.088C581.682 160.088 581.281 160.858 581.281 161.754V164.359H580.269V159.349Z" fill="#3C3E3E"/>
<path d="M573.905 161.87C573.905 160.32 575.065 159.254 576.563 159.254C578.05 159.254 579.21 160.32 579.21 161.87C579.21 163.431 578.05 164.475 576.563 164.475C575.065 164.475 573.905 163.431 573.905 161.87ZM576.563 163.61C577.565 163.61 578.187 162.83 578.187 161.838C578.187 160.858 577.565 160.077 576.563 160.077C575.551 160.077 574.928 160.858 574.928 161.838C574.928 162.83 575.551 163.61 576.563 163.61Z" fill="#3C3E3E"/>
<path d="M573.435 163.716C573.435 163.716 572.865 164.475 571.431 164.475C570.081 164.475 568.899 163.463 568.899 161.859C568.899 160.246 570.133 159.254 571.462 159.254C572.802 159.254 573.35 159.908 573.403 159.972L573.044 160.71C572.876 160.541 572.433 160.098 571.547 160.098C570.661 160.098 569.922 160.773 569.922 161.828C569.922 162.883 570.576 163.61 571.547 163.61C572.528 163.61 573.076 162.977 573.076 162.977L573.435 163.716Z" fill="#3C3E3E"/>
<path d="M560.896 157.082H561.897V159.602C561.897 159.74 561.887 160.003 561.887 160.183C562.256 159.56 562.91 159.254 563.669 159.254C565.135 159.254 566.085 160.372 566.085 161.849C566.085 163.336 565.135 164.475 563.648 164.475C562.921 164.475 562.298 164.18 561.887 163.568H561.866V164.359H560.896V157.082ZM563.458 163.61C564.46 163.61 565.051 162.84 565.051 161.838C565.051 160.836 564.46 160.077 563.458 160.077C562.456 160.077 561.855 160.836 561.855 161.838C561.855 162.84 562.456 163.61 563.458 163.61Z" fill="#3C3E3E"/>
<path d="M554.48 161.87C554.48 160.32 555.641 159.254 557.138 159.254C558.625 159.254 559.786 160.32 559.786 161.87C559.786 163.431 558.625 164.475 557.138 164.475C555.641 164.475 554.48 163.431 554.48 161.87ZM557.138 163.61C558.14 163.61 558.762 162.83 558.762 161.838C558.762 160.858 558.14 160.077 557.138 160.077C556.126 160.077 555.504 160.858 555.504 161.838C555.504 162.83 556.126 163.61 557.138 163.61Z" fill="#3C3E3E"/>
<path d="M552.209 157.704C552.209 157.345 552.483 157.082 552.874 157.082C553.253 157.082 553.528 157.345 553.528 157.704C553.528 158.063 553.253 158.326 552.874 158.326C552.483 158.326 552.209 158.063 552.209 157.704ZM551.176 165.54C551.176 165.54 551.387 165.614 551.65 165.614C552.304 165.614 552.367 165.034 552.367 164.338V159.349H553.38V164.37C553.38 164.95 553.296 165.477 553.011 165.867C552.821 166.131 552.452 166.426 551.798 166.426C551.387 166.426 551.165 166.342 551.165 166.342L551.176 165.54Z" fill="#3C3E3E"/>
<path d="M549.385 164.306C549.122 164.422 548.816 164.475 548.468 164.475C547.94 164.475 547.613 164.275 547.403 163.958C547.192 163.642 547.149 163.252 547.149 162.461V160.172H546.411V159.36H547.149V157.862H548.162V159.36H549.364V160.172H548.162V162.44C548.162 162.862 548.162 163.157 548.288 163.357C548.373 163.526 548.521 163.61 548.805 163.61C549.101 163.61 549.322 163.494 549.322 163.494L549.385 164.306Z" fill="#3C3E3E"/>
<path d="M544.658 163.726C544.458 163.937 543.983 164.475 543.066 164.475C542.138 164.475 541.336 163.895 541.336 162.925C541.336 161.944 542.137 161.448 543.298 161.395L544.637 161.343V161.142C544.637 160.383 544.12 160.003 543.393 160.003C542.665 160.003 542.053 160.33 541.884 160.436L541.579 159.761C541.948 159.55 542.623 159.254 543.456 159.254C544.289 159.254 544.774 159.486 545.112 159.824C545.449 160.172 545.65 160.594 545.65 161.448V164.359H544.669L544.658 163.726ZM543.477 162.028C542.665 162.07 542.338 162.418 542.338 162.893C542.338 163.368 542.707 163.758 543.371 163.758C544.025 163.758 544.458 163.315 544.648 163.03V161.954L543.477 162.028Z" fill="#3C3E3E"/>
<path d="M540.45 163.684C540.387 163.737 539.743 164.475 538.245 164.475C536.758 164.475 535.735 163.442 535.735 161.849C535.735 160.267 536.885 159.254 538.277 159.254C539.669 159.254 540.65 160.246 540.65 161.649C540.65 161.838 540.619 162.092 540.619 162.092H536.758C536.811 163.083 537.444 163.684 538.372 163.684C539.311 163.684 539.912 163.178 540.028 163.104L540.45 163.684ZM539.69 161.417C539.68 160.858 539.258 159.982 538.245 159.982C537.244 159.982 536.801 160.815 536.769 161.417H539.69Z" fill="#3C3E3E"/>
<path d="M532.591 159.349H533.603L533.593 160.119H533.624C533.867 159.55 534.321 159.254 534.858 159.254C535.196 159.254 535.386 159.339 535.386 159.339L535.322 160.277H535.28C535.185 160.235 535.006 160.172 534.732 160.172C534.289 160.172 534.015 160.457 533.909 160.594C533.814 160.731 533.603 161.121 533.603 161.859V164.359H532.591V159.349Z" fill="#3C3E3E"/>
<path d="M528.256 160.478H531.209V163.304C531.072 163.442 530.186 164.486 528.119 164.486C526.041 164.486 524.406 162.988 524.406 160.72C524.406 158.453 526.041 156.976 528.108 156.976C529.975 156.976 530.777 157.957 531.051 158.242L530.355 158.885C529.922 158.379 529.247 157.852 528.108 157.852C526.611 157.852 525.461 158.927 525.461 160.72C525.461 162.513 526.653 163.589 528.171 163.589C529.68 163.589 530.218 162.925 530.218 162.925V161.311H528.256V160.478Z" fill="#3C3E3E"/>
<path d="M519.628 163.811C519.628 163.399 519.923 163.146 520.335 163.146C520.735 163.146 521.031 163.399 521.031 163.811C521.031 164.211 520.735 164.465 520.335 164.465C519.923 164.465 519.628 164.211 519.628 163.811Z" fill="#3C3E3E"/>
<path d="M513.713 157.082H514.715V160.14H514.736C515 159.645 515.548 159.254 516.276 159.254C517.721 159.254 518.069 160.183 518.069 161.374V164.359H517.056V161.522C517.056 160.805 516.94 160.088 516.023 160.088C515.105 160.088 514.715 160.879 514.715 161.881V164.359H513.713V157.082Z" fill="#3C3E3E"/>
<path d="M512.26 163.304C512.26 164.412 512.081 165.024 511.712 165.467C511.343 165.92 510.721 166.426 509.476 166.426C508.242 166.426 507.388 165.783 507.24 165.677L507.715 164.971C507.978 165.203 508.759 165.604 509.508 165.604C510.256 165.604 510.678 165.308 510.879 165.055C511.079 164.813 511.258 164.338 511.258 163.652V163.378C510.9 163.906 510.33 164.296 509.476 164.296C508.2 164.296 507.071 163.357 507.071 161.828C507.071 160.161 508.2 159.254 509.487 159.254C510.299 159.254 510.889 159.613 511.237 160.13H511.258V159.349H512.26V163.304ZM509.697 163.473C510.699 163.473 511.29 162.724 511.29 161.796C511.29 160.794 510.699 160.067 509.697 160.067C508.696 160.067 508.105 160.805 508.105 161.796C508.105 162.724 508.696 163.473 509.697 163.473Z" fill="#3C3E3E"/>
<path d="M505.024 163.642C504.749 164.127 504.18 164.475 503.473 164.475C502.756 164.475 502.345 164.233 502.081 163.895C501.828 163.558 501.712 163.062 501.712 162.345V159.339H502.714V162.303C502.714 162.988 502.862 163.631 503.758 163.631C504.644 163.631 505.003 162.872 505.003 162.028V159.339H506.015V164.359H505.034L505.024 163.642Z" fill="#3C3E3E"/>
<path d="M495.391 161.87C495.391 160.32 496.551 159.254 498.048 159.254C499.536 159.254 500.696 160.32 500.696 161.87C500.696 163.431 499.536 164.475 498.048 164.475C496.551 164.475 495.391 163.431 495.391 161.87ZM498.048 163.61C499.05 163.61 499.673 162.83 499.673 161.838C499.673 160.858 499.05 160.077 498.048 160.077C497.036 160.077 496.414 160.858 496.414 161.838C496.414 162.83 497.036 163.61 498.048 163.61Z" fill="#3C3E3E"/>
<path d="M494.889 164.306C494.626 164.422 494.32 164.475 493.972 164.475C493.444 164.475 493.117 164.275 492.906 163.958C492.696 163.642 492.653 163.252 492.653 162.461V160.172H491.915V159.36H492.653V157.862H493.666V159.36H494.868V160.172H493.666V162.44C493.666 162.862 493.666 163.157 493.792 163.357C493.877 163.526 494.024 163.61 494.309 163.61C494.604 163.61 494.826 163.494 494.826 163.494L494.889 164.306Z" fill="#3C3E3E"/>
<path d="M489.147 163.684C489.084 163.737 488.44 164.475 486.943 164.475C485.456 164.475 484.433 163.442 484.433 161.849C484.433 160.267 485.582 159.254 486.974 159.254C488.367 159.254 489.347 160.246 489.347 161.649C489.347 161.838 489.316 162.092 489.316 162.092H485.456C485.508 163.083 486.141 163.684 487.069 163.684C488.008 163.684 488.609 163.178 488.725 163.104L489.147 163.684ZM488.388 161.417C488.377 160.858 487.955 159.982 486.943 159.982C485.941 159.982 485.498 160.815 485.466 161.417H488.388Z" fill="#3C3E3E"/>
<path d="M478.529 157.082H479.531V159.602C479.531 159.74 479.521 160.003 479.521 160.183C479.89 159.56 480.544 159.254 481.303 159.254C482.769 159.254 483.718 160.372 483.718 161.849C483.718 163.336 482.769 164.475 481.282 164.475C480.554 164.475 479.932 164.18 479.521 163.568H479.5V164.359H478.529V157.082ZM481.092 163.61C482.094 163.61 482.685 162.84 482.685 161.838C482.685 160.836 482.094 160.077 481.092 160.077C480.09 160.077 479.489 160.836 479.489 161.838C479.489 162.84 480.09 163.61 481.092 163.61Z" fill="#3C3E3E"/>
<path d="M470.669 159.349H471.681L471.671 160.204C471.945 159.613 472.588 159.254 473.232 159.254C474.656 159.254 475.025 160.193 475.025 161.395V164.359H474.012V161.564C474.012 160.72 473.865 160.088 472.968 160.088C472.029 160.088 471.681 160.879 471.681 161.838V164.359H470.669V159.349Z" fill="#3C3E3E"/>
<path d="M468.379 163.726C468.179 163.937 467.704 164.475 466.786 164.475C465.858 164.475 465.057 163.895 465.057 162.925C465.057 161.944 465.858 161.448 467.018 161.395L468.358 161.343V161.142C468.358 160.383 467.841 160.003 467.113 160.003C466.386 160.003 465.774 160.33 465.605 160.436L465.299 159.761C465.668 159.55 466.343 159.254 467.177 159.254C468.01 159.254 468.495 159.486 468.832 159.824C469.17 160.172 469.37 160.594 469.37 161.448V164.359H468.389L468.379 163.726ZM467.198 162.028C466.386 162.07 466.059 162.418 466.059 162.893C466.059 163.368 466.428 163.758 467.092 163.758C467.746 163.758 468.179 163.315 468.368 163.03V161.954L467.198 162.028Z" fill="#3C3E3E"/>
<path d="M464.465 163.716C464.465 163.716 463.895 164.475 462.461 164.475C461.111 164.475 459.93 163.463 459.93 161.859C459.93 160.246 461.164 159.254 462.493 159.254C463.832 159.254 464.38 159.908 464.433 159.972L464.075 160.71C463.906 160.541 463.463 160.098 462.577 160.098C461.691 160.098 460.953 160.773 460.953 161.828C460.953 162.883 461.607 163.61 462.577 163.61C463.558 163.61 464.106 162.977 464.106 162.977L464.465 163.716Z" fill="#3C3E3E"/>
<path d="M453.799 162.988V162.998C454.221 163.441 454.811 163.716 455.275 163.716C455.739 163.716 456.235 163.547 456.235 162.998C456.235 162.503 455.644 162.345 455.106 162.165L454.885 162.091C454.21 161.87 453.63 161.501 453.63 160.699C453.63 159.771 454.431 159.265 455.317 159.265C456.203 159.265 456.71 159.581 457.026 159.919L456.604 160.541C456.309 160.235 455.824 160.003 455.338 160.003C454.853 160.003 454.537 160.214 454.537 160.625C454.537 161.037 455.022 161.216 455.518 161.374L456.193 161.617C456.752 161.849 457.174 162.239 457.174 162.893C457.174 163.979 456.277 164.475 455.265 164.475C454.421 164.475 453.735 164.127 453.313 163.579L453.799 162.988Z" fill="#3C3E3E"/>
<path d="M452.96 164.306C452.696 164.422 452.39 164.475 452.042 164.475C451.515 164.475 451.188 164.275 450.977 163.958C450.766 163.642 450.724 163.252 450.724 162.461V160.172H449.985V159.36H450.724V157.862H451.736V159.36H452.938V160.172H451.736V162.44C451.736 162.862 451.736 163.157 451.863 163.357C451.947 163.526 452.095 163.61 452.379 163.61C452.675 163.61 452.896 163.494 452.896 163.494L452.96 164.306Z" fill="#3C3E3E"/>
<path d="M444.283 157.082H445.285V159.602C445.285 159.74 445.275 160.003 445.275 160.183C445.644 159.56 446.298 159.254 447.057 159.254C448.523 159.254 449.472 160.372 449.472 161.849C449.472 163.336 448.523 164.475 447.036 164.475C446.308 164.475 445.686 164.18 445.275 163.568H445.254V164.359H444.283V157.082ZM446.846 163.61C447.848 163.61 448.439 162.84 448.439 161.838C448.439 160.836 447.848 160.077 446.846 160.077C445.844 160.077 445.243 160.836 445.243 161.838C445.243 162.84 445.844 163.61 446.846 163.61Z" fill="#3C3E3E"/>
<path d="M443.025 163.684C442.962 163.737 442.318 164.475 440.821 164.475C439.334 164.475 438.311 163.442 438.311 161.849C438.311 160.267 439.46 159.254 440.852 159.254C442.245 159.254 443.225 160.246 443.225 161.649C443.225 161.838 443.194 162.092 443.194 162.092H439.334C439.386 163.083 440.019 163.684 440.947 163.684C441.886 163.684 442.487 163.178 442.603 163.104L443.025 163.684ZM442.266 161.417C442.255 160.858 441.833 159.982 440.821 159.982C439.819 159.982 439.376 160.815 439.344 161.417H442.266Z" fill="#3C3E3E"/>
<path d="M436.236 164.359V163.558C435.825 164.169 435.182 164.475 434.454 164.475C432.967 164.475 432.018 163.336 432.018 161.849C432.018 160.372 432.967 159.254 434.433 159.254C435.245 159.254 435.836 159.613 436.184 160.13H436.205V157.082H437.207V164.359H436.236ZM434.644 163.61C435.646 163.61 436.236 162.84 436.236 161.838C436.236 160.836 435.646 160.077 434.644 160.077C433.642 160.077 433.051 160.836 433.051 161.838C433.051 162.84 433.642 163.61 434.644 163.61Z" fill="#3C3E3E"/>
<path d="M428.853 163.304C428.853 164.412 428.674 165.024 428.305 165.467C427.936 165.92 427.313 166.426 426.069 166.426C424.835 166.426 423.98 165.783 423.833 165.677L424.307 164.971C424.571 165.203 425.352 165.604 426.1 165.604C426.849 165.604 427.271 165.308 427.471 165.055C427.672 164.813 427.851 164.338 427.851 163.652V163.378C427.493 163.906 426.923 164.296 426.069 164.296C424.793 164.296 423.664 163.357 423.664 161.828C423.664 160.161 424.793 159.254 426.079 159.254C426.891 159.254 427.482 159.613 427.83 160.13H427.851V159.349H428.853V163.304ZM426.29 163.473C427.292 163.473 427.883 162.724 427.883 161.796C427.883 160.794 427.292 160.067 426.29 160.067C425.288 160.067 424.698 160.805 424.698 161.796C424.698 162.724 425.288 163.473 426.29 163.473Z" fill="#3C3E3E"/>
<path d="M418.296 159.349H419.308L419.298 160.204C419.572 159.613 420.215 159.254 420.859 159.254C422.283 159.254 422.652 160.193 422.652 161.395V164.359H421.639V161.564C421.639 160.72 421.492 160.088 420.595 160.088C419.656 160.088 419.308 160.879 419.308 161.838V164.359H418.296V159.349Z" fill="#3C3E3E"/>
<path d="M415.687 157.704C415.687 157.345 415.961 157.082 416.351 157.082C416.731 157.082 417.005 157.345 417.005 157.704C417.005 158.063 416.731 158.326 416.351 158.326C415.961 158.326 415.687 158.063 415.687 157.704ZM415.845 159.349H416.857V164.359H415.845V159.349Z" fill="#3C3E3E"/>
<path d="M414.964 164.306C414.701 164.422 414.395 164.475 414.047 164.475C413.52 164.475 413.193 164.275 412.982 163.958C412.771 163.642 412.729 163.252 412.729 162.461V160.172H411.99V159.36H412.729V157.862H413.741V159.36H414.943V160.172H413.741V162.44C413.741 162.862 413.741 163.157 413.868 163.357C413.952 163.526 414.1 163.61 414.384 163.61C414.68 163.61 414.901 163.494 414.901 163.494L414.964 164.306Z" fill="#3C3E3E"/>
<path d="M408.161 162.988V162.998C408.583 163.441 409.173 163.716 409.637 163.716C410.102 163.716 410.597 163.547 410.597 162.998C410.597 162.503 410.007 162.345 409.469 162.165L409.247 162.091C408.572 161.87 407.992 161.501 407.992 160.699C407.992 159.771 408.794 159.265 409.68 159.265C410.566 159.265 411.072 159.581 411.388 159.919L410.966 160.541C410.671 160.235 410.186 160.003 409.701 160.003C409.216 160.003 408.899 160.214 408.899 160.625C408.899 161.037 409.384 161.216 409.88 161.374L410.555 161.617C411.114 161.849 411.536 162.239 411.536 162.893C411.536 163.979 410.639 164.475 409.627 164.475C408.783 164.475 408.098 164.127 407.676 163.579L408.161 162.988Z" fill="#3C3E3E"/>
<path d="M405.552 157.704C405.552 157.345 405.826 157.082 406.216 157.082C406.596 157.082 406.87 157.345 406.87 157.704C406.87 158.063 406.596 158.326 406.216 158.326C405.826 158.326 405.552 158.063 405.552 157.704ZM405.71 159.349H406.722V164.359H405.71V159.349Z" fill="#3C3E3E"/>
<path d="M401.231 157.082H402.254V163.494H404.817V164.359H401.231V157.082Z" fill="#3C3E3E"/>
<g clip-path="url(#clip6_6290_205464)">
<rect width="24.4101" height="9.1538" transform="translate(438.755 188.973)" fill="#BED73C"/>
</g>
<path d="M443.332 189.355H458.588C460.905 189.355 462.784 191.233 462.784 193.55C462.784 195.867 460.905 197.746 458.588 197.746H443.332C441.015 197.746 439.136 195.867 439.136 193.55C439.136 191.233 441.015 189.355 443.332 189.355Z" stroke="#004357" stroke-width="0.762817"/>
<g clip-path="url(#clip7_6290_205464)">
<rect width="24.4101" height="9.1538" transform="translate(466.216 188.973)" fill="#BED73C"/>
</g>
<path d="M470.793 189.355H486.049C488.366 189.355 490.245 191.233 490.245 193.55C490.245 195.867 488.366 197.746 486.049 197.746H470.793C468.476 197.746 466.597 195.867 466.597 193.55C466.597 191.233 468.476 189.355 470.793 189.355Z" stroke="#004357" stroke-width="0.762817"/>
<g clip-path="url(#clip8_6290_205464)">
<rect width="24.4101" height="9.1538" transform="translate(493.678 188.973)" fill="#BED73C"/>
</g>
<path d="M498.255 189.355H513.511C515.828 189.355 517.706 191.233 517.706 193.55C517.706 195.867 515.828 197.746 513.511 197.746H498.255C495.938 197.746 494.059 195.867 494.059 193.55C494.059 191.233 495.938 189.355 498.255 189.355Z" stroke="#004357" stroke-width="0.762817"/>
<g clip-path="url(#clip9_6290_205464)">
<rect width="24.4101" height="9.1538" transform="translate(521.139 188.973)" fill="#BED73C"/>
</g>
<path d="M525.716 189.355H540.972C543.289 189.355 545.167 191.233 545.167 193.55C545.167 195.867 543.289 197.746 540.972 197.746H525.716C523.398 197.746 521.52 195.867 521.52 193.55C521.52 191.233 523.398 189.355 525.716 189.355Z" stroke="#004357" stroke-width="0.762817"/>
<g clip-path="url(#clip10_6290_205464)">
<rect width="9.1538" height="9.1538" transform="translate(548.601 188.973)" fill="#BED73C"/>
</g>
<path d="M553.177 189.355H568.434C570.751 189.355 572.629 191.233 572.629 193.55C572.629 195.867 570.751 197.746 568.434 197.746H553.177C550.86 197.746 548.982 195.867 548.982 193.55C548.982 191.233 550.86 189.355 553.177 189.355Z" stroke="#004357" stroke-width="0.762817"/>
<g clip-path="url(#clip11_6290_205464)">
</g>
<path d="M580.638 189.355H595.895C598.212 189.355 600.09 191.233 600.09 193.55C600.09 195.867 598.212 197.746 595.895 197.746H580.638C578.321 197.746 576.443 195.867 576.443 193.55C576.443 191.233 578.321 189.355 580.638 189.355Z" stroke="#004357" stroke-width="0.762817"/>
</g>
<defs>
<clipPath id="clip0_6290_205464">
<path d="M75.2256 95.3584C75.2256 93.3469 76.8562 91.7163 78.8677 91.7163H307.13C309.142 91.7163 310.772 93.3469 310.772 95.3584V120.594C310.772 122.605 309.142 124.236 307.13 124.236H78.8677C76.8562 124.236 75.2256 122.605 75.2256 120.594V95.3584Z" fill="white"/>
</clipPath>
<clipPath id="clip1_6290_205464">
<path d="M80.499 127.878C80.499 125.866 82.1296 124.236 84.1411 124.236H312.404C314.415 124.236 316.046 125.866 316.046 127.878V153.992C316.046 156.004 314.415 157.634 312.404 157.634H84.1411C82.1296 157.634 80.499 156.004 80.499 153.992V127.878Z" fill="white"/>
</clipPath>
<clipPath id="clip2_6290_205464">
<path d="M75.2256 161.276C75.2256 159.265 76.8562 157.634 78.8677 157.634H307.13C309.142 157.634 310.772 159.265 310.772 161.276V186.512C310.772 188.523 309.142 190.154 307.13 190.154H78.8677C76.8562 190.154 75.2256 188.523 75.2256 186.512V161.276Z" fill="white"/>
</clipPath>
<clipPath id="clip3_6290_205464">
<path d="M80.499 193.796C80.499 191.784 82.1296 190.154 84.1411 190.154H312.404C314.415 190.154 316.046 191.784 316.046 193.796V219.91C316.046 221.922 314.415 223.552 312.404 223.552H84.1411C82.1296 223.552 80.499 221.922 80.499 219.91V193.796Z" fill="white"/>
</clipPath>
<clipPath id="clip4_6290_205464">
<rect width="49.2188" height="49.2188" fill="white" transform="translate(250.678 215.899)"/>
</clipPath>
<clipPath id="clip5_6290_205464">
<path d="M389.975 136.084C389.975 133.757 391.862 131.87 394.189 131.87H645.037C647.365 131.87 649.252 133.757 649.252 136.084V204.459C649.252 206.787 647.365 208.674 645.037 208.674H394.189C391.862 208.674 389.975 206.787 389.975 204.459V136.084Z" fill="white"/>
</clipPath>
<clipPath id="clip6_6290_205464">
<path d="M438.755 193.55C438.755 191.023 440.804 188.973 443.332 188.973H458.588C461.116 188.973 463.165 191.023 463.165 193.55V193.55C463.165 196.078 461.116 198.127 458.588 198.127H443.332C440.804 198.127 438.755 196.078 438.755 193.55V193.55Z" fill="white"/>
</clipPath>
<clipPath id="clip7_6290_205464">
<path d="M466.216 193.55C466.216 191.023 468.265 188.973 470.793 188.973H486.049C488.577 188.973 490.626 191.023 490.626 193.55V193.55C490.626 196.078 488.577 198.127 486.049 198.127H470.793C468.265 198.127 466.216 196.078 466.216 193.55V193.55Z" fill="white"/>
</clipPath>
<clipPath id="clip8_6290_205464">
<path d="M493.678 193.55C493.678 191.023 495.727 188.973 498.255 188.973H513.511C516.039 188.973 518.088 191.023 518.088 193.55V193.55C518.088 196.078 516.039 198.127 513.511 198.127H498.255C495.727 198.127 493.678 196.078 493.678 193.55V193.55Z" fill="white"/>
</clipPath>
<clipPath id="clip9_6290_205464">
<path d="M521.139 193.55C521.139 191.023 523.188 188.973 525.716 188.973H540.972C543.5 188.973 545.549 191.023 545.549 193.55V193.55C545.549 196.078 543.5 198.127 540.972 198.127H525.716C523.188 198.127 521.139 196.078 521.139 193.55V193.55Z" fill="white"/>
</clipPath>
<clipPath id="clip10_6290_205464">
<path d="M548.601 193.55C548.601 191.023 550.65 188.973 553.177 188.973H568.434C570.962 188.973 573.011 191.023 573.011 193.55V193.55C573.011 196.078 570.962 198.127 568.434 198.127H553.177C550.65 198.127 548.601 196.078 548.601 193.55V193.55Z" fill="white"/>
</clipPath>
<clipPath id="clip11_6290_205464">
<path d="M576.062 193.55C576.062 191.023 578.111 188.973 580.638 188.973H595.895C598.423 188.973 600.472 191.023 600.472 193.55V193.55C600.472 196.078 598.423 198.127 595.895 198.127H580.638C578.111 198.127 576.062 196.078 576.062 193.55V193.55Z" fill="white"/>
</clipPath>
</defs>
</svg>
