<svg width="1000" height="205" viewBox="0 0 1000 205" fill="none" xmlns="http://www.w3.org/2000/svg">
<path d="M138.449 101.22C137.884 101.22 137.426 101.678 137.426 102.243C137.426 102.808 137.884 103.266 138.449 103.266V101.22ZM171.914 30.3207C172.314 29.9211 172.314 29.2732 171.914 28.8737L165.403 22.3622C165.003 21.9626 164.356 21.9626 163.956 22.3622C163.556 22.7618 163.556 23.4096 163.956 23.8092L169.744 29.5972L163.956 35.3851C163.556 35.7847 163.556 36.4326 163.956 36.8321C164.356 37.2317 165.003 37.2317 165.403 36.8321L171.914 30.3207ZM140.576 103.266C141.141 103.266 141.599 102.808 141.599 102.243C141.599 101.678 141.141 101.22 140.576 101.22V103.266ZM144.829 101.22C144.264 101.22 143.806 101.678 143.806 102.243C143.806 102.808 144.264 103.266 144.829 103.266V101.22ZM148.752 103.091C149.306 102.981 149.667 102.443 149.557 101.889C149.447 101.334 148.909 100.974 148.355 101.083L148.752 103.091ZM150.935 100.014C150.465 100.328 150.339 100.964 150.654 101.433C150.968 101.903 151.604 102.029 152.073 101.714L150.935 100.014ZM154.613 99.1747C154.927 98.7051 154.801 98.0696 154.332 97.7553C153.862 97.4409 153.227 97.5667 152.912 98.0363L154.613 99.1747ZM153.982 95.4564C153.872 96.0108 154.233 96.5491 154.787 96.6587C155.341 96.7684 155.88 96.4079 155.989 95.8536L153.982 95.4564ZM156.165 92.0477C156.165 91.4826 155.706 91.0245 155.141 91.0245C154.576 91.0245 154.118 91.4826 154.118 92.0477H156.165ZM154.118 88.0281C154.118 88.5932 154.576 89.0513 155.141 89.0513C155.706 89.0513 156.165 88.5932 156.165 88.0281H154.118ZM156.165 84.0084C156.165 83.4433 155.706 82.9853 155.141 82.9853C154.576 82.9853 154.118 83.4433 154.118 84.0084H156.165ZM154.118 79.9888C154.118 80.5539 154.576 81.012 155.141 81.012C155.706 81.012 156.165 80.5539 156.165 79.9888H154.118ZM156.165 75.9692C156.165 75.4041 155.706 74.946 155.141 74.946C154.576 74.946 154.118 75.4041 154.118 75.9692H156.165ZM154.118 71.9495C154.118 72.5146 154.576 72.9727 155.141 72.9727C155.706 72.9727 156.165 72.5146 156.165 71.9495H154.118ZM156.165 67.9299C156.165 67.3648 155.706 66.9067 155.141 66.9067C154.576 66.9067 154.118 67.3648 154.118 67.9299H156.165ZM154.118 63.9103C154.118 64.4753 154.576 64.9334 155.141 64.9334C155.706 64.9334 156.165 64.4753 156.165 63.9103H154.118ZM156.165 59.8906C156.165 59.3255 155.706 58.8674 155.141 58.8674C154.576 58.8674 154.118 59.3255 154.118 59.8906H156.165ZM154.118 55.871C154.118 56.4361 154.576 56.8942 155.141 56.8942C155.706 56.8942 156.165 56.4361 156.165 55.871H154.118ZM156.165 51.8513C156.165 51.2863 155.706 50.8282 155.141 50.8282C154.576 50.8282 154.118 51.2863 154.118 51.8513H156.165ZM154.118 47.8317C154.118 48.3968 154.576 48.8549 155.141 48.8549C155.706 48.8549 156.165 48.3968 156.165 47.8317H154.118ZM156.165 43.8121C156.165 43.247 155.706 42.7889 155.141 42.7889C154.576 42.7889 154.118 43.247 154.118 43.8121H156.165ZM154.118 39.7924C154.118 40.3575 154.576 40.8156 155.141 40.8156C155.706 40.8156 156.165 40.3575 156.165 39.7924H154.118ZM156.301 36.3837C156.411 35.8293 156.05 35.2911 155.496 35.1814C154.941 35.0717 154.403 35.4322 154.293 35.9866L156.301 36.3837ZM155.67 32.6654C155.355 33.135 155.481 33.7705 155.951 34.0849C156.42 34.3993 157.056 34.2734 157.37 33.8039L155.67 32.6654ZM159.348 31.8261C159.818 31.5117 159.943 30.8762 159.629 30.4067C159.315 29.9371 158.679 29.8113 158.21 30.1257L159.348 31.8261ZM161.531 28.7492C160.976 28.8589 160.616 29.3972 160.726 29.9515C160.835 30.5059 161.374 30.8664 161.928 30.7567L161.531 28.7492ZM165.293 30.6203C165.858 30.6203 166.316 30.1623 166.316 29.5972C166.316 29.0321 165.858 28.574 165.293 28.574V30.6203ZM169.225 28.574C168.66 28.574 168.202 29.0321 168.202 29.5972C168.202 30.1623 168.66 30.6203 169.225 30.6203V28.574ZM138.449 103.266H140.576V101.22H138.449V103.266ZM144.829 103.266H146.956V101.22H144.829V103.266ZM146.956 103.266C147.57 103.266 148.17 103.206 148.752 103.091L148.355 101.083C147.903 101.173 147.436 101.22 146.956 101.22V103.266ZM152.073 101.714C153.077 101.042 153.941 100.178 154.613 99.1747L152.912 98.0363C152.389 98.8178 151.716 99.4908 150.935 100.014L152.073 101.714ZM155.989 95.8536C156.104 95.2719 156.165 94.6712 156.165 94.0575H154.118C154.118 94.5372 154.071 95.0048 153.982 95.4564L155.989 95.8536ZM156.165 94.0575V92.0477H154.118V94.0575H156.165ZM156.165 88.0281V84.0084H154.118V88.0281H156.165ZM156.165 79.9888V75.9692H154.118V79.9888H156.165ZM156.165 71.9495V67.9299H154.118V71.9495H156.165ZM156.165 63.9103V59.8906H154.118V63.9103H156.165ZM156.165 55.871V51.8513H154.118V55.871H156.165ZM156.165 47.8317V43.8121H154.118V47.8317H156.165ZM156.165 39.7924V37.7826H154.118V39.7924H156.165ZM156.165 37.7826C156.165 37.303 156.212 36.8353 156.301 36.3837L154.293 35.9866C154.178 36.5683 154.118 37.1689 154.118 37.7826H156.165ZM157.37 33.8039C157.894 33.0224 158.567 32.3493 159.348 31.8261L158.21 30.1257C157.206 30.7977 156.342 31.6617 155.67 32.6654L157.37 33.8039ZM161.928 30.7567C162.38 30.6674 162.847 30.6203 163.327 30.6203V28.574C162.713 28.574 162.112 28.6342 161.531 28.7492L161.928 30.7567ZM163.327 30.6203H165.293V28.574H163.327V30.6203ZM169.225 30.6203H171.191V28.574H169.225V30.6203Z" fill="#BED73C"/>
<path d="M138.449 103.266C137.884 103.266 137.426 102.808 137.426 102.243C137.426 101.678 137.884 101.22 138.449 101.22V103.266ZM171.914 174.165C172.314 174.565 172.314 175.213 171.914 175.612L165.403 182.124C165.003 182.523 164.356 182.523 163.956 182.124C163.556 181.724 163.556 181.076 163.956 180.677L169.744 174.889L163.956 169.101C163.556 168.701 163.556 168.053 163.956 167.654C164.356 167.254 165.003 167.254 165.403 167.654L171.914 174.165ZM140.576 101.22C141.141 101.22 141.599 101.678 141.599 102.243C141.599 102.808 141.141 103.266 140.576 103.266V101.22ZM144.829 103.266C144.264 103.266 143.806 102.808 143.806 102.243C143.806 101.678 144.264 101.22 144.829 101.22V103.266ZM148.752 101.395C149.306 101.505 149.667 102.043 149.557 102.597C149.447 103.152 148.909 103.512 148.355 103.402L148.752 101.395ZM150.935 104.472C150.465 104.157 150.339 103.522 150.654 103.052C150.968 102.583 151.604 102.457 152.073 102.771L150.935 104.472ZM154.613 105.311C154.927 105.781 154.801 106.416 154.332 106.731C153.862 107.045 153.227 106.919 152.912 106.45L154.613 105.311ZM153.982 109.029C153.872 108.475 154.233 107.937 154.787 107.827C155.341 107.717 155.88 108.078 155.989 108.632L153.982 109.029ZM156.165 112.438C156.165 113.003 155.706 113.461 155.141 113.461C154.576 113.461 154.118 113.003 154.118 112.438H156.165ZM154.118 116.458C154.118 115.893 154.576 115.435 155.141 115.435C155.706 115.435 156.165 115.893 156.165 116.458H154.118ZM156.165 120.477C156.165 121.042 155.706 121.501 155.141 121.501C154.576 121.501 154.118 121.042 154.118 120.477H156.165ZM154.118 124.497C154.118 123.932 154.576 123.474 155.141 123.474C155.706 123.474 156.165 123.932 156.165 124.497H154.118ZM156.165 128.517C156.165 129.082 155.706 129.54 155.141 129.54C154.576 129.54 154.118 129.082 154.118 128.517H156.165ZM154.118 132.536C154.118 131.971 154.576 131.513 155.141 131.513C155.706 131.513 156.165 131.971 156.165 132.536H154.118ZM156.165 136.556C156.165 137.121 155.706 137.579 155.141 137.579C154.576 137.579 154.118 137.121 154.118 136.556H156.165ZM154.118 140.576C154.118 140.01 154.576 139.552 155.141 139.552C155.706 139.552 156.165 140.01 156.165 140.576H154.118ZM156.165 144.595C156.165 145.16 155.706 145.618 155.141 145.618C154.576 145.618 154.118 145.16 154.118 144.595H156.165ZM154.118 148.615C154.118 148.05 154.576 147.592 155.141 147.592C155.706 147.592 156.165 148.05 156.165 148.615H154.118ZM156.165 152.634C156.165 153.2 155.706 153.658 155.141 153.658C154.576 153.658 154.118 153.2 154.118 152.634H156.165ZM154.118 156.654C154.118 156.089 154.576 155.631 155.141 155.631C155.706 155.631 156.165 156.089 156.165 156.654H154.118ZM156.165 160.674C156.165 161.239 155.706 161.697 155.141 161.697C154.576 161.697 154.118 161.239 154.118 160.674H156.165ZM154.118 164.693C154.118 164.128 154.576 163.67 155.141 163.67C155.706 163.67 156.165 164.128 156.165 164.693H154.118ZM156.301 168.102C156.411 168.656 156.05 169.195 155.496 169.304C154.941 169.414 154.403 169.054 154.293 168.499L156.301 168.102ZM155.67 171.82C155.355 171.351 155.481 170.715 155.951 170.401C156.42 170.087 157.056 170.212 157.37 170.682L155.67 171.82ZM159.348 172.66C159.818 172.974 159.943 173.61 159.629 174.079C159.315 174.549 158.679 174.675 158.21 174.36L159.348 172.66ZM161.531 175.737C160.976 175.627 160.616 175.089 160.726 174.534C160.835 173.98 161.374 173.619 161.928 173.729L161.531 175.737ZM165.293 173.865C165.858 173.865 166.316 174.324 166.316 174.889C166.316 175.454 165.858 175.912 165.293 175.912V173.865ZM169.225 175.912C168.66 175.912 168.202 175.454 168.202 174.889C168.202 174.324 168.66 173.865 169.225 173.865V175.912ZM138.449 101.22H140.576V103.266H138.449V101.22ZM144.829 101.22H146.956V103.266H144.829V101.22ZM146.956 101.22C147.57 101.22 148.17 101.28 148.752 101.395L148.355 103.402C147.903 103.313 147.436 103.266 146.956 103.266V101.22ZM152.073 102.771C153.077 103.443 153.941 104.307 154.613 105.311L152.912 106.45C152.389 105.668 151.716 104.995 150.935 104.472L152.073 102.771ZM155.989 108.632C156.104 109.214 156.165 109.815 156.165 110.428H154.118C154.118 109.949 154.071 109.481 153.982 109.029L155.989 108.632ZM156.165 110.428V112.438H154.118V110.428H156.165ZM156.165 116.458V120.477H154.118V116.458H156.165ZM156.165 124.497V128.517H154.118V124.497H156.165ZM156.165 132.536V136.556H154.118V132.536H156.165ZM156.165 140.576V144.595H154.118V140.576H156.165ZM156.165 148.615V152.634H154.118V148.615H156.165ZM156.165 156.654V160.674H154.118V156.654H156.165ZM156.165 164.693V166.703H154.118V164.693H156.165ZM156.165 166.703C156.165 167.183 156.212 167.651 156.301 168.102L154.293 168.499C154.178 167.918 154.118 167.317 154.118 166.703H156.165ZM157.37 170.682C157.894 171.463 158.567 172.137 159.348 172.66L158.21 174.36C157.206 173.688 156.342 172.824 155.67 171.82L157.37 170.682ZM161.928 173.729C162.38 173.818 162.847 173.865 163.327 173.865V175.912C162.713 175.912 162.112 175.852 161.531 175.737L161.928 173.729ZM163.327 173.865H165.293V175.912H163.327V173.865ZM169.225 173.865H171.191V175.912H169.225V173.865Z" fill="#BED73C"/>
<g clip-path="url(#clip0_6279_120737)">
<path d="M71.18 67.2892H83.8645C84.3094 67.2892 84.6783 66.9203 84.6783 66.4754C84.6783 66.0305 84.3094 65.6616 83.8645 65.6616H71.18C70.7351 65.6616 70.3662 66.0305 70.3662 66.4754C70.3662 66.9203 70.7351 67.2892 71.18 67.2892Z" fill="#004357"/>
<path d="M71.18 71.9987H83.8645C84.3094 71.9987 84.6783 71.6298 84.6783 71.1849C84.6783 70.74 84.3094 70.3711 83.8645 70.3711H71.18C70.7351 70.3711 70.3662 70.74 70.3662 71.1849C70.3662 71.6298 70.7351 71.9987 71.18 71.9987Z" fill="#004357"/>
<path d="M83.8651 75.0693H74.4359C73.991 75.0693 73.6221 75.4383 73.6221 75.8831C73.6221 76.328 73.991 76.6969 74.4359 76.6969H83.8651C84.31 76.6969 84.6789 76.328 84.6789 75.8831C84.6789 75.4383 84.3209 75.0693 83.8651 75.0693Z" fill="#004357"/>
<path d="M71.18 62.591H79.5242C79.9691 62.591 80.338 62.2221 80.338 61.7772C80.338 61.3323 79.9691 60.9634 79.5242 60.9634H71.18C70.7351 60.9634 70.3662 61.3323 70.3662 61.7772C70.3662 62.2221 70.7351 62.591 71.18 62.591Z" fill="#004357"/>
<path d="M83.3226 62.591H83.8651C84.31 62.591 84.6789 62.2221 84.6789 61.7772C84.6789 61.3323 84.31 60.9634 83.8651 60.9634H83.3226C82.8777 60.9634 82.5088 61.3323 82.5088 61.7772C82.5088 62.2221 82.8777 62.591 83.3226 62.591Z" fill="#004357"/>
<path d="M49.4681 67.2892H62.1526C62.5974 67.2892 62.9664 66.9203 62.9664 66.4754C62.9664 66.0305 62.5974 65.6616 62.1526 65.6616H49.4681C49.0232 65.6616 48.6543 66.0305 48.6543 66.4754C48.6543 66.9203 49.0124 67.2892 49.4681 67.2892Z" fill="#004357"/>
<path d="M49.4681 71.9987H62.1526C62.5974 71.9987 62.9664 71.6298 62.9664 71.1849C62.9664 70.74 62.5974 70.3711 62.1526 70.3711H49.4681C49.0232 70.3711 48.6543 70.74 48.6543 71.1849C48.6543 71.6298 49.0124 71.9987 49.4681 71.9987Z" fill="#004357"/>
<path d="M49.4681 76.6969H58.8974C59.3422 76.6969 59.7112 76.328 59.7112 75.8831C59.7112 75.4383 59.3422 75.0693 58.8974 75.0693H49.4681C49.0232 75.0693 48.6543 75.4383 48.6543 75.8831C48.6543 76.328 49.0124 76.6969 49.4681 76.6969Z" fill="#004357"/>
<path d="M53.8079 62.591H62.1521C62.597 62.591 62.9659 62.2221 62.9659 61.7772C62.9659 61.3323 62.597 60.9634 62.1521 60.9634H53.8079C53.3631 60.9634 52.9941 61.3323 52.9941 61.7772C52.9941 62.2221 53.3522 62.591 53.8079 62.591Z" fill="#004357"/>
<path d="M49.4681 62.591H50.0106C50.4555 62.591 50.8244 62.2221 50.8244 61.7772C50.8244 61.3323 50.4555 60.9634 50.0106 60.9634H49.4681C49.0232 60.9634 48.6543 61.3323 48.6543 61.7772C48.6543 62.2221 49.0124 62.591 49.4681 62.591Z" fill="#004357"/>
<path d="M93.6304 59.922H89.2033V56.2327C89.2033 55.7879 88.8344 55.4189 88.3895 55.4189H73.1769C70.3448 55.4189 67.8817 57.0357 66.6665 59.3903C65.4512 57.0357 62.9881 55.4189 60.156 55.4189H44.9434C44.4985 55.4189 44.1296 55.7879 44.1296 56.2327V59.922H39.7025C39.2576 59.922 38.8887 60.2909 38.8887 60.7358V84.4446C38.8887 86.6906 40.7116 88.5136 42.9577 88.5136H54.0362C53.9603 89.0778 53.9169 89.6637 53.9169 90.2497C53.9169 97.2809 59.6352 102.999 66.6665 102.999C69.1621 102.999 71.495 102.283 73.459 101.035L82.5302 110.106C83.1161 110.692 83.8757 110.975 84.6352 110.975C85.3948 110.975 86.1651 110.682 86.7402 110.106C87.9013 108.945 87.9013 107.047 86.7402 105.886L77.6257 96.7601C78.765 94.8504 79.416 92.626 79.416 90.2497C79.416 89.6637 79.3726 89.0778 79.2967 88.5136H90.3752C92.6213 88.5136 94.4442 86.6906 94.4442 84.4446V60.7358C94.4442 60.2909 94.0753 59.922 93.6304 59.922ZM73.1769 57.0465H87.5757V78.1729C87.5757 79.5183 86.4798 80.6143 85.1343 80.6143H76.1608C75.7919 80.6143 75.423 80.6251 75.054 80.6577C73.0033 78.8564 70.3665 77.7063 67.4803 77.5218V62.7432C67.4803 59.6073 70.041 57.0465 73.1769 57.0465ZM45.7572 57.0465H60.156C63.2919 57.0465 65.8526 59.6073 65.8526 62.7432V77.5218C62.9664 77.7063 60.3296 78.8564 58.2789 80.6577C57.9099 80.6251 57.541 80.6143 57.1721 80.6143H48.1986C46.8531 80.6143 45.7572 79.5183 45.7572 78.1729V57.0465ZM42.9577 86.886C41.6122 86.886 40.5163 85.79 40.5163 84.4446V61.5496H44.1296V78.1729C44.1296 80.4189 45.9525 82.2419 48.1986 82.2419H56.7489C55.653 83.5873 54.8392 85.1716 54.3618 86.886H42.9577ZM85.6009 107.036C86.1326 107.567 86.1326 108.425 85.6009 108.956C85.0692 109.488 84.212 109.488 83.6803 108.956L74.7936 100.07C75.4881 99.4945 76.1283 98.8434 76.6925 98.1273L85.6009 107.036ZM66.6665 101.372C60.5358 101.372 55.5445 96.3803 55.5445 90.2497C55.5445 84.119 60.5358 79.1277 66.6665 79.1277C72.7971 79.1277 77.7884 84.119 77.7884 90.2497C77.7884 96.3803 72.7971 101.372 66.6665 101.372ZM92.8166 84.4446C92.8166 85.79 91.7207 86.886 90.3752 86.886H78.9603C78.4937 85.1607 77.6691 83.5873 76.5731 82.2419H85.1235C87.3696 82.2419 89.1925 80.4189 89.1925 78.1729V61.5496H92.8166V84.4446Z" fill="#004357"/>
<path d="M66.6662 80.7549C61.4362 80.7549 57.1719 85.0192 57.1719 90.2492C57.1719 95.4793 61.4362 99.7436 66.6662 99.7436C71.8963 99.7436 76.1606 95.4793 76.1606 90.2492C76.1606 85.0192 71.8963 80.7549 66.6662 80.7549ZM70.5182 88.524L66.2539 93.0813C66.102 93.244 65.885 93.3417 65.6571 93.3417C65.4293 93.3417 65.2122 93.244 65.0603 93.0813L62.8142 90.6833C62.5104 90.3577 62.5213 89.8369 62.8576 89.5331C63.1832 89.2293 63.704 89.2401 64.0078 89.5765L65.6571 91.3452L69.3247 87.4281C69.6285 87.1025 70.1493 87.0808 70.4748 87.3847C70.8003 87.6885 70.822 88.1985 70.5182 88.524Z" fill="#087084"/>
</g>
<path d="M332.854 22.1624C332.288 22.1624 331.83 22.6205 331.83 23.1855C331.83 23.7506 332.288 24.2087 332.854 24.2087V22.1624ZM349.948 23.909C350.347 23.5095 350.347 22.8616 349.948 22.462L343.436 15.9506C343.037 15.551 342.389 15.551 341.989 15.9506C341.59 16.3501 341.59 16.998 341.989 17.3976L347.777 23.1855L341.989 28.9735C341.59 29.3731 341.59 30.0209 341.989 30.4205C342.389 30.8201 343.037 30.8201 343.436 30.4205L349.948 23.909ZM334.9 24.2087C335.465 24.2087 335.923 23.7506 335.923 23.1855C335.923 22.6205 335.465 22.1624 334.9 22.1624V24.2087ZM338.993 22.1624C338.428 22.1624 337.969 22.6205 337.969 23.1855C337.969 23.7506 338.428 24.2087 338.993 24.2087V22.1624ZM343.085 24.2087C343.65 24.2087 344.108 23.7506 344.108 23.1855C344.108 22.6205 343.65 22.1624 343.085 22.1624V24.2087ZM347.178 22.1624C346.613 22.1624 346.155 22.6205 346.155 23.1855C346.155 23.7506 346.613 24.2087 347.178 24.2087V22.1624ZM332.854 24.2087H334.9V22.1624H332.854V24.2087ZM338.993 24.2087H343.085V22.1624H338.993V24.2087ZM347.178 24.2087H349.224V22.1624H347.178V24.2087Z" fill="#BED73C"/>
<path d="M509.863 22.1624C509.298 22.1624 508.84 22.6205 508.84 23.1855C508.84 23.7506 509.298 24.2087 509.863 24.2087V22.1624ZM526.958 23.909C527.357 23.5095 527.357 22.8616 526.958 22.462L520.446 15.9506C520.047 15.551 519.399 15.551 518.999 15.9506C518.6 16.3501 518.6 16.998 518.999 17.3976L524.787 23.1855L518.999 28.9735C518.6 29.3731 518.6 30.0209 518.999 30.4205C519.399 30.8201 520.047 30.8201 520.446 30.4205L526.958 23.909ZM511.91 24.2087C512.475 24.2087 512.933 23.7506 512.933 23.1855C512.933 22.6205 512.475 22.1624 511.91 22.1624V24.2087ZM516.002 22.1624C515.437 22.1624 514.979 22.6205 514.979 23.1855C514.979 23.7506 515.437 24.2087 516.002 24.2087V22.1624ZM520.095 24.2087C520.66 24.2087 521.118 23.7506 521.118 23.1855C521.118 22.6205 520.66 22.1624 520.095 22.1624V24.2087ZM524.188 22.1624C523.623 22.1624 523.165 22.6205 523.165 23.1855C523.165 23.7506 523.623 24.2087 524.188 24.2087V22.1624ZM509.863 24.2087H511.91V22.1624H509.863V24.2087ZM516.002 24.2087H520.095V22.1624H516.002V24.2087ZM524.188 24.2087H526.234V22.1624H524.188V24.2087Z" fill="#BED73C"/>
<path d="M686.874 22.1624C686.309 22.1624 685.851 22.6205 685.851 23.1855C685.851 23.7506 686.309 24.2087 686.874 24.2087V22.1624ZM703.968 23.909C704.368 23.5095 704.368 22.8616 703.968 22.462L697.457 15.9506C697.057 15.551 696.41 15.551 696.01 15.9506C695.61 16.3501 695.61 16.998 696.01 17.3976L701.798 23.1855L696.01 28.9735C695.61 29.3731 695.61 30.0209 696.01 30.4205C696.41 30.8201 697.057 30.8201 697.457 30.4205L703.968 23.909ZM688.92 24.2087C689.485 24.2087 689.944 23.7506 689.944 23.1855C689.944 22.6205 689.485 22.1624 688.92 22.1624V24.2087ZM693.013 22.1624C692.448 22.1624 691.99 22.6205 691.99 23.1855C691.99 23.7506 692.448 24.2087 693.013 24.2087V22.1624ZM697.106 24.2087C697.671 24.2087 698.129 23.7506 698.129 23.1855C698.129 22.6205 697.671 22.1624 697.106 22.1624V24.2087ZM701.199 22.1624C700.633 22.1624 700.175 22.6205 700.175 23.1855C700.175 23.7506 700.633 24.2087 701.199 24.2087V22.1624ZM686.874 24.2087H688.92V22.1624H686.874V24.2087ZM693.013 24.2087H697.106V22.1624H693.013V24.2087ZM701.199 24.2087H703.245V22.1624H701.199V24.2087Z" fill="#BED73C"/>
<path d="M332.854 172.778C332.288 172.778 331.83 173.236 331.83 173.801C331.83 174.366 332.288 174.824 332.854 174.824V172.778ZM349.948 174.524C350.347 174.125 350.347 173.477 349.948 173.077L343.436 166.566C343.037 166.166 342.389 166.166 341.989 166.566C341.59 166.965 341.59 167.613 341.989 168.013L347.777 173.801L341.989 179.589C341.59 179.988 341.59 180.636 341.989 181.036C342.389 181.435 343.037 181.435 343.436 181.036L349.948 174.524ZM334.9 174.824C335.465 174.824 335.923 174.366 335.923 173.801C335.923 173.236 335.465 172.778 334.9 172.778V174.824ZM338.993 172.778C338.428 172.778 337.969 173.236 337.969 173.801C337.969 174.366 338.428 174.824 338.993 174.824V172.778ZM343.085 174.824C343.65 174.824 344.108 174.366 344.108 173.801C344.108 173.236 343.65 172.778 343.085 172.778V174.824ZM347.178 172.778C346.613 172.778 346.155 173.236 346.155 173.801C346.155 174.366 346.613 174.824 347.178 174.824V172.778ZM332.854 174.824H334.9V172.778H332.854V174.824ZM338.993 174.824H343.085V172.778H338.993V174.824ZM347.178 174.824H349.224V172.778H347.178V174.824Z" fill="#BED73C"/>
<path d="M509.863 172.778C509.298 172.778 508.84 173.236 508.84 173.801C508.84 174.366 509.298 174.824 509.863 174.824V172.778ZM526.958 174.524C527.357 174.125 527.357 173.477 526.958 173.077L520.446 166.566C520.047 166.166 519.399 166.166 518.999 166.566C518.6 166.965 518.6 167.613 518.999 168.013L524.787 173.801L518.999 179.589C518.6 179.988 518.6 180.636 518.999 181.036C519.399 181.435 520.047 181.435 520.446 181.036L526.958 174.524ZM511.91 174.824C512.475 174.824 512.933 174.366 512.933 173.801C512.933 173.236 512.475 172.778 511.91 172.778V174.824ZM516.002 172.778C515.437 172.778 514.979 173.236 514.979 173.801C514.979 174.366 515.437 174.824 516.002 174.824V172.778ZM520.095 174.824C520.66 174.824 521.118 174.366 521.118 173.801C521.118 173.236 520.66 172.778 520.095 172.778V174.824ZM524.188 172.778C523.623 172.778 523.165 173.236 523.165 173.801C523.165 174.366 523.623 174.824 524.188 174.824V172.778ZM509.863 174.824H511.91V172.778H509.863V174.824ZM516.002 174.824H520.095V172.778H516.002V174.824ZM524.188 174.824H526.234V172.778H524.188V174.824Z" fill="#BED73C"/>
<path d="M686.874 172.778C686.309 172.778 685.851 173.236 685.851 173.801C685.851 174.366 686.309 174.824 686.874 174.824V172.778ZM703.968 174.524C704.368 174.125 704.368 173.477 703.968 173.077L697.457 166.566C697.057 166.166 696.41 166.166 696.01 166.566C695.61 166.965 695.61 167.613 696.01 168.013L701.798 173.801L696.01 179.589C695.61 179.988 695.61 180.636 696.01 181.036C696.41 181.435 697.057 181.435 697.457 181.036L703.968 174.524ZM688.92 174.824C689.485 174.824 689.944 174.366 689.944 173.801C689.944 173.236 689.485 172.778 688.92 172.778V174.824ZM693.013 172.778C692.448 172.778 691.99 173.236 691.99 173.801C691.99 174.366 692.448 174.824 693.013 174.824V172.778ZM697.106 174.824C697.671 174.824 698.129 174.366 698.129 173.801C698.129 173.236 697.671 172.778 697.106 172.778V174.824ZM701.199 172.778C700.633 172.778 700.175 173.236 700.175 173.801C700.175 174.366 700.633 174.824 701.199 174.824V172.778ZM686.874 174.824H688.92V172.778H686.874V174.824ZM693.013 174.824H697.106V172.778H693.013V174.824ZM701.199 174.824H703.245V172.778H701.199V174.824Z" fill="#BED73C"/>
<path d="M784.287 58.6207C783.887 58.2212 783.24 58.2212 782.84 58.6207L776.329 65.1322C775.929 65.5318 775.929 66.1796 776.329 66.5792C776.728 66.9788 777.376 66.9788 777.775 66.5792L783.563 60.7912L789.351 66.5792C789.751 66.9788 790.399 66.9788 790.798 66.5792C791.198 66.1796 791.198 65.5318 790.798 65.1322L784.287 58.6207ZM782.54 61.4497C782.54 62.0148 782.998 62.4729 783.563 62.4729C784.129 62.4729 784.587 62.0148 784.587 61.4497L782.54 61.4497ZM784.587 65.6607C784.587 65.0956 784.129 64.6375 783.563 64.6375C782.998 64.6375 782.54 65.0956 782.54 65.6607L784.587 65.6607ZM782.54 69.8716C782.54 70.4367 782.998 70.8948 783.563 70.8948C784.129 70.8948 784.587 70.4367 784.587 69.8716L782.54 69.8716ZM784.587 74.0826C784.587 73.5175 784.129 73.0594 783.563 73.0594C782.998 73.0594 782.54 73.5175 782.54 74.0826L784.587 74.0826ZM782.54 78.2935C782.54 78.8586 782.998 79.3167 783.563 79.3167C784.129 79.3167 784.587 78.8586 784.587 78.2935L782.54 78.2935ZM784.587 82.5045C784.587 81.9394 784.129 81.4813 783.563 81.4813C782.998 81.4813 782.54 81.9394 782.54 82.5045L784.587 82.5045ZM782.54 86.7154C782.54 87.2805 782.998 87.7386 783.563 87.7386C784.129 87.7386 784.587 87.2805 784.587 86.7154L782.54 86.7154ZM784.587 90.9264C784.587 90.3613 784.129 89.9032 783.563 89.9032C782.998 89.9032 782.54 90.3613 782.54 90.9264L784.587 90.9264ZM782.54 95.1374C782.54 95.7024 782.998 96.1605 783.563 96.1605C784.129 96.1605 784.587 95.7024 784.587 95.1374L782.54 95.1374ZM784.587 99.3483C784.587 98.7832 784.129 98.3251 783.563 98.3251C782.998 98.3251 782.54 98.7832 782.54 99.3483L784.587 99.3483ZM782.54 103.559C782.54 104.124 782.998 104.582 783.563 104.582C784.129 104.582 784.587 104.124 784.587 103.559L782.54 103.559ZM784.587 107.77C784.587 107.205 784.129 106.747 783.563 106.747C782.998 106.747 782.54 107.205 782.54 107.77L784.587 107.77ZM782.54 111.981C782.54 112.546 782.998 113.004 783.563 113.004C784.129 113.004 784.587 112.546 784.587 111.981L782.54 111.981ZM784.587 116.192C784.587 115.627 784.129 115.169 783.563 115.169C782.998 115.169 782.54 115.627 782.54 116.192L784.587 116.192ZM782.54 120.403C782.54 120.968 782.998 121.426 783.563 121.426C784.129 121.426 784.587 120.968 784.587 120.403L782.54 120.403ZM784.587 124.614C784.587 124.049 784.129 123.591 783.563 123.591C782.998 123.591 782.54 124.049 782.54 124.614L784.587 124.614ZM782.54 128.825C782.54 129.39 782.998 129.848 783.563 129.848C784.129 129.848 784.587 129.39 784.587 128.825L782.54 128.825ZM784.587 133.036C784.587 132.471 784.129 132.013 783.563 132.013C782.998 132.013 782.54 132.471 782.54 133.036L784.587 133.036ZM782.54 59.3442L782.54 61.4497L784.587 61.4497L784.587 59.3442L782.54 59.3442ZM782.54 65.6607L782.54 69.8716L784.587 69.8716L784.587 65.6607L782.54 65.6607ZM782.54 74.0826L782.54 78.2935L784.587 78.2935L784.587 74.0826L782.54 74.0826ZM782.54 82.5045L782.54 86.7154L784.587 86.7154L784.587 82.5045L782.54 82.5045ZM782.54 90.9264L782.54 95.1374L784.587 95.1374L784.587 90.9264L782.54 90.9264ZM782.54 99.3483L782.54 103.559L784.587 103.559L784.587 99.3483L782.54 99.3483ZM782.54 107.77L782.54 111.981L784.587 111.981L784.587 107.77L782.54 107.77ZM782.54 116.192L782.54 120.403L784.587 120.403L784.587 116.192L782.54 116.192ZM782.54 124.614L782.54 128.825L784.587 128.825L784.587 124.614L782.54 124.614ZM782.54 133.036L782.54 135.141L784.587 135.141L784.587 133.036L782.54 133.036Z" fill="#BED73C"/>
<path d="M838.048 65.0728C838.048 64.5077 838.506 64.0496 839.071 64.0496C839.636 64.0496 840.094 64.5077 840.094 65.0728L838.048 65.0728ZM854.725 101.58C855.125 101.98 855.125 102.628 854.725 103.027L848.214 109.539C847.814 109.938 847.166 109.938 846.767 109.539C846.367 109.139 846.367 108.491 846.767 108.092L852.555 102.304L846.767 96.5159C846.367 96.1164 846.367 95.4685 846.767 95.069C847.166 94.6694 847.814 94.6694 848.214 95.069L854.725 101.58ZM840.094 66.8881C840.094 67.4532 839.636 67.9113 839.071 67.9113C838.506 67.9113 838.048 67.4532 838.048 66.8881L840.094 66.8881ZM838.048 70.5188C838.048 69.9537 838.506 69.4956 839.071 69.4956C839.636 69.4956 840.094 69.9537 840.094 70.5188L838.048 70.5188ZM840.094 74.1495C840.094 74.7146 839.636 75.1727 839.071 75.1727C838.506 75.1727 838.048 74.7146 838.048 74.1495L840.094 74.1495ZM838.048 77.7803C838.048 77.2152 838.506 76.7571 839.071 76.7571C839.636 76.7571 840.094 77.2152 840.094 77.7803L838.048 77.7803ZM840.094 81.411C840.094 81.9761 839.636 82.4342 839.071 82.4342C838.506 82.4342 838.048 81.9761 838.048 81.411L840.094 81.411ZM838.048 85.0417C838.048 84.4766 838.506 84.0185 839.071 84.0185C839.636 84.0185 840.094 84.4766 840.094 85.0417L838.048 85.0417ZM840.094 88.6724C840.094 89.2375 839.636 89.6956 839.071 89.6956C838.506 89.6956 838.048 89.2375 838.048 88.6724L840.094 88.6724ZM838.048 92.3031C838.048 91.7381 838.506 91.28 839.071 91.28C839.636 91.28 840.094 91.7381 840.094 92.3031L838.048 92.3031ZM840.231 95.5174C840.34 96.0718 839.98 96.61 839.426 96.7197C838.871 96.8294 838.333 96.4689 838.223 95.9145L840.231 95.5174ZM839.6 99.2357C839.285 98.7661 839.411 98.1306 839.881 97.8162C840.35 97.5019 840.986 97.6277 841.3 98.0972L839.6 99.2357ZM843.278 100.075C843.748 100.389 843.873 101.025 843.559 101.494C843.245 101.964 842.609 102.09 842.14 101.775L843.278 100.075ZM845.461 103.152C844.906 103.042 844.546 102.504 844.656 101.95C844.765 101.395 845.303 101.035 845.858 101.144L845.461 103.152ZM848.943 101.281C849.508 101.281 849.966 101.739 849.966 102.304C849.966 102.869 849.508 103.327 848.943 103.327L848.943 101.281ZM852.315 103.327C851.75 103.327 851.292 102.869 851.292 102.304C851.292 101.739 851.75 101.281 852.315 101.281L852.315 103.327ZM840.094 65.0728L840.094 66.8881L838.048 66.8881L838.048 65.0728L840.094 65.0728ZM840.094 70.5188L840.094 74.1495L838.048 74.1495L838.048 70.5188L840.094 70.5188ZM840.094 77.7803L840.094 81.411L838.048 81.411L838.048 77.7803L840.094 77.7803ZM840.094 85.0417L840.094 88.6724L838.048 88.6724L838.048 85.0417L840.094 85.0417ZM840.094 92.3031L840.094 94.1185L838.048 94.1185L838.048 92.3031L840.094 92.3031ZM840.094 94.1185C840.094 94.5981 840.141 95.0658 840.231 95.5174L838.223 95.9145C838.108 95.3328 838.048 94.7322 838.048 94.1185L840.094 94.1185ZM841.3 98.0972C841.823 98.8787 842.496 99.5518 843.278 100.075L842.14 101.775C841.136 101.103 840.272 100.239 839.6 99.2357L841.3 98.0972ZM845.858 101.144C846.309 101.234 846.777 101.281 847.257 101.281L847.257 103.327C846.643 103.327 846.042 103.267 845.461 103.152L845.858 101.144ZM847.257 101.281L848.943 101.281L848.943 103.327L847.257 103.327L847.257 101.281ZM852.315 101.281L854.002 101.281L854.002 103.327L852.315 103.327L852.315 101.281Z" fill="#BED73C"/>
<g clip-path="url(#clip1_6279_120737)">
<path d="M942.078 64.3377L933.398 55.6572C933.246 55.5053 933.039 55.4185 932.822 55.4185H904.611C904.166 55.4185 903.797 55.7874 903.797 56.2323V110.16C903.797 110.605 904.166 110.974 904.611 110.974H941.503C941.948 110.974 942.317 110.605 942.317 110.16V64.9128C942.317 64.6958 942.23 64.4896 942.078 64.3377ZM933.636 58.1962L939.539 64.099H933.636V58.1962ZM905.424 109.346V57.0461H932.009V64.9128C932.009 65.3577 932.378 65.7266 932.822 65.7266H940.689V109.346H905.424Z" fill="#004357"/>
<path d="M937.162 68.439H908.951C908.506 68.439 908.137 68.8079 908.137 69.2528V73.593C908.137 74.0379 908.506 74.4068 908.951 74.4068H937.162C937.607 74.4068 937.976 74.0379 937.976 73.593V69.2528C937.976 68.8079 937.607 68.439 937.162 68.439ZM936.349 72.7792H909.764V70.0666H936.349V72.7792Z" fill="#004357"/>
<path d="M908.951 87.4278H917.631C918.076 87.4278 918.445 87.0589 918.445 86.614V77.9334C918.445 77.4886 918.076 77.1196 917.631 77.1196H908.951C908.506 77.1196 908.137 77.4886 908.137 77.9334V86.614C908.137 87.0589 908.506 87.4278 908.951 87.4278ZM909.764 78.7472H916.817V85.8002H909.764V78.7472Z" fill="#004357"/>
<path d="M937.163 77.1196H925.227C924.782 77.1196 924.413 77.4886 924.413 77.9334C924.413 78.3783 924.782 78.7472 925.227 78.7472H937.163C937.608 78.7472 937.976 78.3783 937.976 77.9334C937.976 77.4886 937.608 77.1196 937.163 77.1196Z" fill="#004357"/>
<path d="M921.972 78.7472H922.515C922.959 78.7472 923.328 78.3783 923.328 77.9334C923.328 77.4886 922.959 77.1196 922.515 77.1196H921.972C921.527 77.1196 921.158 77.4886 921.158 77.9334C921.158 78.3783 921.527 78.7472 921.972 78.7472Z" fill="#004357"/>
<path d="M937.163 81.46H921.972C921.527 81.46 921.158 81.8289 921.158 82.2738C921.158 82.7186 921.527 83.0876 921.972 83.0876H937.163C937.608 83.0876 937.977 82.7186 937.977 82.2738C937.977 81.8289 937.608 81.46 937.163 81.46Z" fill="#004357"/>
<path d="M937.163 85.8003H921.972C921.527 85.8003 921.158 86.1692 921.158 86.6141C921.158 87.059 921.527 87.4279 921.972 87.4279H937.163C937.608 87.4279 937.977 87.059 937.977 86.6141C937.977 86.1692 937.608 85.8003 937.163 85.8003Z" fill="#004357"/>
<path d="M937.163 90.1406H915.461C915.016 90.1406 914.647 90.5095 914.647 90.9544C914.647 91.3993 915.016 91.7682 915.461 91.7682H937.163C937.608 91.7682 937.976 91.3993 937.976 90.9544C937.976 90.5095 937.608 90.1406 937.163 90.1406Z" fill="#004357"/>
<path d="M908.951 91.7682H912.748C913.193 91.7682 913.562 91.3993 913.562 90.9544C913.562 90.5095 913.193 90.1406 912.748 90.1406H908.951C908.506 90.1406 908.137 90.5095 908.137 90.9544C908.137 91.3993 908.506 91.7682 908.951 91.7682Z" fill="#004357"/>
<path d="M937.162 94.481H908.951C908.506 94.481 908.137 94.8499 908.137 95.2948C908.137 95.7396 908.506 96.1086 908.951 96.1086H937.162C937.607 96.1086 937.976 95.7396 937.976 95.2948C937.976 94.8499 937.607 94.481 937.162 94.481Z" fill="#004357"/>
<path d="M937.162 98.4956H928.482C928.037 98.4956 927.668 98.8645 927.668 99.3094V105.82C927.668 106.265 928.037 106.634 928.482 106.634H937.162C937.607 106.634 937.976 106.265 937.976 105.82V99.3094C937.976 98.8645 937.607 98.4956 937.162 98.4956ZM936.349 105.006H929.296V100.123H936.349V105.006Z" fill="#004357"/>
<path d="M921.971 98.4956H908.951C908.506 98.4956 908.137 98.8645 908.137 99.3094V105.82C908.137 106.265 908.506 106.634 908.951 106.634H921.971C922.416 106.634 922.785 106.265 922.785 105.82V99.3094C922.785 98.8645 922.416 98.4956 921.971 98.4956ZM921.158 105.006H909.764V100.123H921.158V105.006Z" fill="#004357"/>
<path d="M956.369 64.8911H955.012V63.231H948.502V87.645H955.012V66.5187H956.369C957.117 66.5187 957.725 67.1264 957.725 67.8751V78.7257C957.725 79.1706 958.094 79.5396 958.539 79.5396C958.984 79.5396 959.353 79.1706 959.353 78.7257V67.8751C959.353 66.2366 958.018 64.8911 956.369 64.8911Z" fill="#087084"/>
<path d="M954.198 57.8599C954.198 56.5144 953.102 55.4185 951.757 55.4185C950.411 55.4185 949.315 56.5144 949.315 57.8599V61.6034H954.198V57.8599Z" fill="#087084"/>
<path d="M949.315 105.277C949.315 107.198 949.956 109.108 951.106 110.648C951.258 110.854 951.496 110.974 951.757 110.974C952.017 110.974 952.256 110.854 952.408 110.648C953.558 109.108 954.198 107.198 954.198 105.277V89.2725H949.315V105.277Z" fill="#087084"/>
<path d="M944.647 86.473C938.965 86.473 934.335 91.1031 934.335 96.7844C934.335 102.466 938.965 107.096 944.647 107.096C950.328 107.096 954.958 102.466 954.958 96.7844C954.958 91.1031 950.328 86.473 944.647 86.473Z" fill="#087084" stroke="#F3F4F6" stroke-width="1.63399"/>
</g>
<defs>
<clipPath id="clip0_6279_120737">
<rect width="55.5556" height="55.5556" fill="white" transform="translate(38.8887 55.4185)"/>
</clipPath>
<clipPath id="clip1_6279_120737">
<rect width="55.5556" height="55.5556" fill="white" transform="translate(903.796 55.4185)"/>
</clipPath>
</defs>
</svg>
