<svg width="1001" height="205" viewBox="0 0 1001 205" fill="none" xmlns="http://www.w3.org/2000/svg">
<path d="M139.449 101.22C138.884 101.22 138.426 101.678 138.426 102.243C138.426 102.808 138.884 103.266 139.449 103.266V101.22ZM172.914 30.3207C173.314 29.9211 173.314 29.2732 172.914 28.8737L166.403 22.3622C166.003 21.9626 165.356 21.9626 164.956 22.3622C164.556 22.7618 164.556 23.4096 164.956 23.8092L170.744 29.5972L164.956 35.3851C164.556 35.7847 164.556 36.4326 164.956 36.8321C165.356 37.2317 166.003 37.2317 166.403 36.8321L172.914 30.3207ZM141.576 103.266C142.141 103.266 142.599 102.808 142.599 102.243C142.599 101.678 142.141 101.22 141.576 101.22V103.266ZM145.829 101.22C145.264 101.22 144.806 101.678 144.806 102.243C144.806 102.808 145.264 103.266 145.829 103.266V101.22ZM149.752 103.091C150.306 102.981 150.667 102.443 150.557 101.889C150.447 101.334 149.909 100.974 149.355 101.083L149.752 103.091ZM151.935 100.014C151.465 100.328 151.339 100.964 151.654 101.433C151.968 101.903 152.604 102.029 153.073 101.714L151.935 100.014ZM155.613 99.1747C155.927 98.7051 155.801 98.0696 155.332 97.7553C154.862 97.4409 154.227 97.5667 153.912 98.0363L155.613 99.1747ZM154.982 95.4564C154.872 96.0108 155.233 96.5491 155.787 96.6587C156.341 96.7684 156.88 96.4079 156.989 95.8536L154.982 95.4564ZM157.165 92.0477C157.165 91.4826 156.706 91.0245 156.141 91.0245C155.576 91.0245 155.118 91.4826 155.118 92.0477H157.165ZM155.118 88.0281C155.118 88.5932 155.576 89.0513 156.141 89.0513C156.706 89.0513 157.165 88.5932 157.165 88.0281H155.118ZM157.165 84.0084C157.165 83.4433 156.706 82.9853 156.141 82.9853C155.576 82.9853 155.118 83.4433 155.118 84.0084H157.165ZM155.118 79.9888C155.118 80.5539 155.576 81.012 156.141 81.012C156.706 81.012 157.165 80.5539 157.165 79.9888H155.118ZM157.165 75.9692C157.165 75.4041 156.706 74.946 156.141 74.946C155.576 74.946 155.118 75.4041 155.118 75.9692H157.165ZM155.118 71.9495C155.118 72.5146 155.576 72.9727 156.141 72.9727C156.706 72.9727 157.165 72.5146 157.165 71.9495H155.118ZM157.165 67.9299C157.165 67.3648 156.706 66.9067 156.141 66.9067C155.576 66.9067 155.118 67.3648 155.118 67.9299H157.165ZM155.118 63.9103C155.118 64.4753 155.576 64.9334 156.141 64.9334C156.706 64.9334 157.165 64.4753 157.165 63.9103H155.118ZM157.165 59.8906C157.165 59.3255 156.706 58.8674 156.141 58.8674C155.576 58.8674 155.118 59.3255 155.118 59.8906H157.165ZM155.118 55.871C155.118 56.4361 155.576 56.8942 156.141 56.8942C156.706 56.8942 157.165 56.4361 157.165 55.871H155.118ZM157.165 51.8513C157.165 51.2863 156.706 50.8282 156.141 50.8282C155.576 50.8282 155.118 51.2863 155.118 51.8513H157.165ZM155.118 47.8317C155.118 48.3968 155.576 48.8549 156.141 48.8549C156.706 48.8549 157.165 48.3968 157.165 47.8317H155.118ZM157.165 43.8121C157.165 43.247 156.706 42.7889 156.141 42.7889C155.576 42.7889 155.118 43.247 155.118 43.8121H157.165ZM155.118 39.7924C155.118 40.3575 155.576 40.8156 156.141 40.8156C156.706 40.8156 157.165 40.3575 157.165 39.7924H155.118ZM157.301 36.3837C157.411 35.8293 157.05 35.2911 156.496 35.1814C155.941 35.0717 155.403 35.4322 155.293 35.9866L157.301 36.3837ZM156.67 32.6654C156.355 33.135 156.481 33.7705 156.951 34.0849C157.42 34.3993 158.056 34.2734 158.37 33.8039L156.67 32.6654ZM160.348 31.8261C160.818 31.5117 160.943 30.8762 160.629 30.4067C160.315 29.9371 159.679 29.8113 159.21 30.1257L160.348 31.8261ZM162.531 28.7492C161.976 28.8589 161.616 29.3972 161.726 29.9515C161.835 30.5059 162.374 30.8664 162.928 30.7567L162.531 28.7492ZM166.293 30.6203C166.858 30.6203 167.316 30.1623 167.316 29.5972C167.316 29.0321 166.858 28.574 166.293 28.574V30.6203ZM170.225 28.574C169.66 28.574 169.202 29.0321 169.202 29.5972C169.202 30.1623 169.66 30.6203 170.225 30.6203V28.574ZM139.449 103.266H141.576V101.22H139.449V103.266ZM145.829 103.266H147.956V101.22H145.829V103.266ZM147.956 103.266C148.57 103.266 149.17 103.206 149.752 103.091L149.355 101.083C148.903 101.173 148.436 101.22 147.956 101.22V103.266ZM153.073 101.714C154.077 101.042 154.941 100.178 155.613 99.1747L153.912 98.0363C153.389 98.8178 152.716 99.4908 151.935 100.014L153.073 101.714ZM156.989 95.8536C157.104 95.2719 157.165 94.6712 157.165 94.0575H155.118C155.118 94.5372 155.071 95.0048 154.982 95.4564L156.989 95.8536ZM157.165 94.0575V92.0477H155.118V94.0575H157.165ZM157.165 88.0281V84.0084H155.118V88.0281H157.165ZM157.165 79.9888V75.9692H155.118V79.9888H157.165ZM157.165 71.9495V67.9299H155.118V71.9495H157.165ZM157.165 63.9103V59.8906H155.118V63.9103H157.165ZM157.165 55.871V51.8513H155.118V55.871H157.165ZM157.165 47.8317V43.8121H155.118V47.8317H157.165ZM157.165 39.7924V37.7826H155.118V39.7924H157.165ZM157.165 37.7826C157.165 37.303 157.212 36.8353 157.301 36.3837L155.293 35.9866C155.178 36.5683 155.118 37.1689 155.118 37.7826H157.165ZM158.37 33.8039C158.894 33.0224 159.567 32.3493 160.348 31.8261L159.21 30.1257C158.206 30.7977 157.342 31.6617 156.67 32.6654L158.37 33.8039ZM162.928 30.7567C163.38 30.6674 163.847 30.6203 164.327 30.6203V28.574C163.713 28.574 163.112 28.6342 162.531 28.7492L162.928 30.7567ZM164.327 30.6203H166.293V28.574H164.327V30.6203ZM170.225 30.6203H172.191V28.574H170.225V30.6203Z" fill="#BED73C"/>
<path d="M139.449 103.266C138.884 103.266 138.426 102.808 138.426 102.243C138.426 101.678 138.884 101.22 139.449 101.22V103.266ZM172.914 174.165C173.314 174.565 173.314 175.213 172.914 175.612L166.403 182.124C166.003 182.523 165.356 182.523 164.956 182.124C164.556 181.724 164.556 181.076 164.956 180.677L170.744 174.889L164.956 169.101C164.556 168.701 164.556 168.053 164.956 167.654C165.356 167.254 166.003 167.254 166.403 167.654L172.914 174.165ZM141.576 101.22C142.141 101.22 142.599 101.678 142.599 102.243C142.599 102.808 142.141 103.266 141.576 103.266V101.22ZM145.829 103.266C145.264 103.266 144.806 102.808 144.806 102.243C144.806 101.678 145.264 101.22 145.829 101.22V103.266ZM149.752 101.395C150.306 101.505 150.667 102.043 150.557 102.597C150.447 103.152 149.909 103.512 149.355 103.402L149.752 101.395ZM151.935 104.472C151.465 104.157 151.339 103.522 151.654 103.052C151.968 102.583 152.604 102.457 153.073 102.771L151.935 104.472ZM155.613 105.311C155.927 105.781 155.801 106.416 155.332 106.731C154.862 107.045 154.227 106.919 153.912 106.45L155.613 105.311ZM154.982 109.029C154.872 108.475 155.233 107.937 155.787 107.827C156.341 107.717 156.88 108.078 156.989 108.632L154.982 109.029ZM157.165 112.438C157.165 113.003 156.706 113.461 156.141 113.461C155.576 113.461 155.118 113.003 155.118 112.438H157.165ZM155.118 116.458C155.118 115.893 155.576 115.435 156.141 115.435C156.706 115.435 157.165 115.893 157.165 116.458H155.118ZM157.165 120.477C157.165 121.042 156.706 121.501 156.141 121.501C155.576 121.501 155.118 121.042 155.118 120.477H157.165ZM155.118 124.497C155.118 123.932 155.576 123.474 156.141 123.474C156.706 123.474 157.165 123.932 157.165 124.497H155.118ZM157.165 128.517C157.165 129.082 156.706 129.54 156.141 129.54C155.576 129.54 155.118 129.082 155.118 128.517H157.165ZM155.118 132.536C155.118 131.971 155.576 131.513 156.141 131.513C156.706 131.513 157.165 131.971 157.165 132.536H155.118ZM157.165 136.556C157.165 137.121 156.706 137.579 156.141 137.579C155.576 137.579 155.118 137.121 155.118 136.556H157.165ZM155.118 140.576C155.118 140.01 155.576 139.552 156.141 139.552C156.706 139.552 157.165 140.01 157.165 140.576H155.118ZM157.165 144.595C157.165 145.16 156.706 145.618 156.141 145.618C155.576 145.618 155.118 145.16 155.118 144.595H157.165ZM155.118 148.615C155.118 148.05 155.576 147.592 156.141 147.592C156.706 147.592 157.165 148.05 157.165 148.615H155.118ZM157.165 152.634C157.165 153.2 156.706 153.658 156.141 153.658C155.576 153.658 155.118 153.2 155.118 152.634H157.165ZM155.118 156.654C155.118 156.089 155.576 155.631 156.141 155.631C156.706 155.631 157.165 156.089 157.165 156.654H155.118ZM157.165 160.674C157.165 161.239 156.706 161.697 156.141 161.697C155.576 161.697 155.118 161.239 155.118 160.674H157.165ZM155.118 164.693C155.118 164.128 155.576 163.67 156.141 163.67C156.706 163.67 157.165 164.128 157.165 164.693H155.118ZM157.301 168.102C157.411 168.656 157.05 169.195 156.496 169.304C155.941 169.414 155.403 169.054 155.293 168.499L157.301 168.102ZM156.67 171.82C156.355 171.351 156.481 170.715 156.951 170.401C157.42 170.087 158.056 170.212 158.37 170.682L156.67 171.82ZM160.348 172.66C160.818 172.974 160.943 173.61 160.629 174.079C160.315 174.549 159.679 174.675 159.21 174.36L160.348 172.66ZM162.531 175.737C161.976 175.627 161.616 175.089 161.726 174.534C161.835 173.98 162.374 173.619 162.928 173.729L162.531 175.737ZM166.293 173.865C166.858 173.865 167.316 174.324 167.316 174.889C167.316 175.454 166.858 175.912 166.293 175.912V173.865ZM170.225 175.912C169.66 175.912 169.202 175.454 169.202 174.889C169.202 174.324 169.66 173.865 170.225 173.865V175.912ZM139.449 101.22H141.576V103.266H139.449V101.22ZM145.829 101.22H147.956V103.266H145.829V101.22ZM147.956 101.22C148.57 101.22 149.17 101.28 149.752 101.395L149.355 103.402C148.903 103.313 148.436 103.266 147.956 103.266V101.22ZM153.073 102.771C154.077 103.443 154.941 104.307 155.613 105.311L153.912 106.45C153.389 105.668 152.716 104.995 151.935 104.472L153.073 102.771ZM156.989 108.632C157.104 109.214 157.165 109.815 157.165 110.428H155.118C155.118 109.949 155.071 109.481 154.982 109.029L156.989 108.632ZM157.165 110.428V112.438H155.118V110.428H157.165ZM157.165 116.458V120.477H155.118V116.458H157.165ZM157.165 124.497V128.517H155.118V124.497H157.165ZM157.165 132.536V136.556H155.118V132.536H157.165ZM157.165 140.576V144.595H155.118V140.576H157.165ZM157.165 148.615V152.634H155.118V148.615H157.165ZM157.165 156.654V160.674H155.118V156.654H157.165ZM157.165 164.693V166.703H155.118V164.693H157.165ZM157.165 166.703C157.165 167.183 157.212 167.651 157.301 168.102L155.293 168.499C155.178 167.918 155.118 167.317 155.118 166.703H157.165ZM158.37 170.682C158.894 171.463 159.567 172.137 160.348 172.66L159.21 174.36C158.206 173.688 157.342 172.824 156.67 171.82L158.37 170.682ZM162.928 173.729C163.38 173.818 163.847 173.865 164.327 173.865V175.912C163.713 175.912 163.112 175.852 162.531 175.737L162.928 173.729ZM164.327 173.865H166.293V175.912H164.327V173.865ZM170.225 173.865H172.191V175.912H170.225V173.865Z" fill="#BED73C"/>
<rect x="0.907227" y="35.5762" width="133.333" height="133.333" rx="66.6665" fill="#F3F4F6"/>
<g clip-path="url(#clip0_6289_198673)">
<path d="M72.18 67.2892H84.8645C85.3094 67.2892 85.6783 66.9203 85.6783 66.4754C85.6783 66.0305 85.3094 65.6616 84.8645 65.6616H72.18C71.7351 65.6616 71.3662 66.0305 71.3662 66.4754C71.3662 66.9203 71.7351 67.2892 72.18 67.2892Z" fill="#004357"/>
<path d="M72.18 71.9987H84.8645C85.3094 71.9987 85.6783 71.6298 85.6783 71.1849C85.6783 70.74 85.3094 70.3711 84.8645 70.3711H72.18C71.7351 70.3711 71.3662 70.74 71.3662 71.1849C71.3662 71.6298 71.7351 71.9987 72.18 71.9987Z" fill="#004357"/>
<path d="M84.8651 75.0693H75.4359C74.991 75.0693 74.6221 75.4383 74.6221 75.8831C74.6221 76.328 74.991 76.6969 75.4359 76.6969H84.8651C85.31 76.6969 85.6789 76.328 85.6789 75.8831C85.6789 75.4383 85.3209 75.0693 84.8651 75.0693Z" fill="#004357"/>
<path d="M72.18 62.591H80.5242C80.9691 62.591 81.338 62.2221 81.338 61.7772C81.338 61.3323 80.9691 60.9634 80.5242 60.9634H72.18C71.7351 60.9634 71.3662 61.3323 71.3662 61.7772C71.3662 62.2221 71.7351 62.591 72.18 62.591Z" fill="#004357"/>
<path d="M84.3226 62.591H84.8651C85.31 62.591 85.6789 62.2221 85.6789 61.7772C85.6789 61.3323 85.31 60.9634 84.8651 60.9634H84.3226C83.8777 60.9634 83.5088 61.3323 83.5088 61.7772C83.5088 62.2221 83.8777 62.591 84.3226 62.591Z" fill="#004357"/>
<path d="M50.4681 67.2892H63.1526C63.5974 67.2892 63.9664 66.9203 63.9664 66.4754C63.9664 66.0305 63.5974 65.6616 63.1526 65.6616H50.4681C50.0232 65.6616 49.6543 66.0305 49.6543 66.4754C49.6543 66.9203 50.0124 67.2892 50.4681 67.2892Z" fill="#004357"/>
<path d="M50.4681 71.9987H63.1526C63.5974 71.9987 63.9664 71.6298 63.9664 71.1849C63.9664 70.74 63.5974 70.3711 63.1526 70.3711H50.4681C50.0232 70.3711 49.6543 70.74 49.6543 71.1849C49.6543 71.6298 50.0124 71.9987 50.4681 71.9987Z" fill="#004357"/>
<path d="M50.4681 76.6969H59.8974C60.3422 76.6969 60.7112 76.328 60.7112 75.8831C60.7112 75.4383 60.3422 75.0693 59.8974 75.0693H50.4681C50.0232 75.0693 49.6543 75.4383 49.6543 75.8831C49.6543 76.328 50.0124 76.6969 50.4681 76.6969Z" fill="#004357"/>
<path d="M54.8079 62.591H63.1521C63.597 62.591 63.9659 62.2221 63.9659 61.7772C63.9659 61.3323 63.597 60.9634 63.1521 60.9634H54.8079C54.3631 60.9634 53.9941 61.3323 53.9941 61.7772C53.9941 62.2221 54.3522 62.591 54.8079 62.591Z" fill="#004357"/>
<path d="M50.4681 62.591H51.0106C51.4555 62.591 51.8244 62.2221 51.8244 61.7772C51.8244 61.3323 51.4555 60.9634 51.0106 60.9634H50.4681C50.0232 60.9634 49.6543 61.3323 49.6543 61.7772C49.6543 62.2221 50.0124 62.591 50.4681 62.591Z" fill="#004357"/>
<path d="M94.6304 59.922H90.2033V56.2327C90.2033 55.7879 89.8344 55.4189 89.3895 55.4189H74.1769C71.3448 55.4189 68.8817 57.0357 67.6665 59.3903C66.4512 57.0357 63.9881 55.4189 61.156 55.4189H45.9434C45.4985 55.4189 45.1296 55.7879 45.1296 56.2327V59.922H40.7025C40.2576 59.922 39.8887 60.2909 39.8887 60.7358V84.4446C39.8887 86.6906 41.7116 88.5136 43.9577 88.5136H55.0362C54.9603 89.0778 54.9169 89.6637 54.9169 90.2497C54.9169 97.2809 60.6352 102.999 67.6665 102.999C70.1621 102.999 72.495 102.283 74.459 101.035L83.5302 110.106C84.1161 110.692 84.8757 110.975 85.6352 110.975C86.3948 110.975 87.1651 110.682 87.7402 110.106C88.9013 108.945 88.9013 107.047 87.7402 105.886L78.6257 96.7601C79.765 94.8504 80.416 92.626 80.416 90.2497C80.416 89.6637 80.3726 89.0778 80.2967 88.5136H91.3752C93.6213 88.5136 95.4442 86.6906 95.4442 84.4446V60.7358C95.4442 60.2909 95.0753 59.922 94.6304 59.922ZM74.1769 57.0465H88.5757V78.1729C88.5757 79.5183 87.4798 80.6143 86.1343 80.6143H77.1608C76.7919 80.6143 76.423 80.6251 76.054 80.6577C74.0033 78.8564 71.3665 77.7063 68.4803 77.5218V62.7432C68.4803 59.6073 71.041 57.0465 74.1769 57.0465ZM46.7572 57.0465H61.156C64.2919 57.0465 66.8526 59.6073 66.8526 62.7432V77.5218C63.9664 77.7063 61.3296 78.8564 59.2789 80.6577C58.9099 80.6251 58.541 80.6143 58.1721 80.6143H49.1986C47.8531 80.6143 46.7572 79.5183 46.7572 78.1729V57.0465ZM43.9577 86.886C42.6122 86.886 41.5163 85.79 41.5163 84.4446V61.5496H45.1296V78.1729C45.1296 80.4189 46.9525 82.2419 49.1986 82.2419H57.7489C56.653 83.5873 55.8392 85.1716 55.3618 86.886H43.9577ZM86.6009 107.036C87.1326 107.567 87.1326 108.425 86.6009 108.956C86.0692 109.488 85.212 109.488 84.6803 108.956L75.7936 100.07C76.4881 99.4945 77.1283 98.8434 77.6925 98.1273L86.6009 107.036ZM67.6665 101.372C61.5358 101.372 56.5445 96.3803 56.5445 90.2497C56.5445 84.119 61.5358 79.1277 67.6665 79.1277C73.7971 79.1277 78.7884 84.119 78.7884 90.2497C78.7884 96.3803 73.7971 101.372 67.6665 101.372ZM93.8166 84.4446C93.8166 85.79 92.7207 86.886 91.3752 86.886H79.9603C79.4937 85.1607 78.6691 83.5873 77.5731 82.2419H86.1235C88.3696 82.2419 90.1925 80.4189 90.1925 78.1729V61.5496H93.8166V84.4446Z" fill="#004357"/>
<path d="M67.6662 80.7549C62.4362 80.7549 58.1719 85.0192 58.1719 90.2492C58.1719 95.4793 62.4362 99.7436 67.6662 99.7436C72.8963 99.7436 77.1606 95.4793 77.1606 90.2492C77.1606 85.0192 72.8963 80.7549 67.6662 80.7549ZM71.5182 88.524L67.2539 93.0813C67.102 93.244 66.885 93.3417 66.6571 93.3417C66.4293 93.3417 66.2122 93.244 66.0603 93.0813L63.8142 90.6833C63.5104 90.3577 63.5213 89.8369 63.8576 89.5331C64.1832 89.2293 64.704 89.2401 65.0078 89.5765L66.6571 91.3452L70.3247 87.4281C70.6285 87.1025 71.1493 87.0808 71.4748 87.3847C71.8003 87.6885 71.822 88.1985 71.5182 88.524Z" fill="#087084"/>
</g>
<rect x="177.307" width="152.454" height="55.252" rx="8.88889" fill="#F3F4F6"/>
<rect x="177.307" y="139" width="152.454" height="55.252" rx="8.88889" fill="#F3F4F6"/>
<path d="M333.854 22.1624C333.288 22.1624 332.83 22.6205 332.83 23.1855C332.83 23.7506 333.288 24.2087 333.854 24.2087V22.1624ZM350.948 23.909C351.347 23.5095 351.347 22.8616 350.948 22.462L344.436 15.9506C344.037 15.551 343.389 15.551 342.989 15.9506C342.59 16.3501 342.59 16.998 342.989 17.3976L348.777 23.1855L342.989 28.9735C342.59 29.3731 342.59 30.0209 342.989 30.4205C343.389 30.8201 344.037 30.8201 344.436 30.4205L350.948 23.909ZM335.9 24.2087C336.465 24.2087 336.923 23.7506 336.923 23.1855C336.923 22.6205 336.465 22.1624 335.9 22.1624V24.2087ZM339.993 22.1624C339.428 22.1624 338.969 22.6205 338.969 23.1855C338.969 23.7506 339.428 24.2087 339.993 24.2087V22.1624ZM344.085 24.2087C344.65 24.2087 345.108 23.7506 345.108 23.1855C345.108 22.6205 344.65 22.1624 344.085 22.1624V24.2087ZM348.178 22.1624C347.613 22.1624 347.155 22.6205 347.155 23.1855C347.155 23.7506 347.613 24.2087 348.178 24.2087V22.1624ZM333.854 24.2087H335.9V22.1624H333.854V24.2087ZM339.993 24.2087H344.085V22.1624H339.993V24.2087ZM348.178 24.2087H350.224V22.1624H348.178V24.2087Z" fill="#BED73C"/>
<path d="M510.863 22.1624C510.298 22.1624 509.84 22.6205 509.84 23.1855C509.84 23.7506 510.298 24.2087 510.863 24.2087V22.1624ZM527.958 23.909C528.357 23.5095 528.357 22.8616 527.958 22.462L521.446 15.9506C521.047 15.551 520.399 15.551 519.999 15.9506C519.6 16.3501 519.6 16.998 519.999 17.3976L525.787 23.1855L519.999 28.9735C519.6 29.3731 519.6 30.0209 519.999 30.4205C520.399 30.8201 521.047 30.8201 521.446 30.4205L527.958 23.909ZM512.91 24.2087C513.475 24.2087 513.933 23.7506 513.933 23.1855C513.933 22.6205 513.475 22.1624 512.91 22.1624V24.2087ZM517.002 22.1624C516.437 22.1624 515.979 22.6205 515.979 23.1855C515.979 23.7506 516.437 24.2087 517.002 24.2087V22.1624ZM521.095 24.2087C521.66 24.2087 522.118 23.7506 522.118 23.1855C522.118 22.6205 521.66 22.1624 521.095 22.1624V24.2087ZM525.188 22.1624C524.623 22.1624 524.165 22.6205 524.165 23.1855C524.165 23.7506 524.623 24.2087 525.188 24.2087V22.1624ZM510.863 24.2087H512.91V22.1624H510.863V24.2087ZM517.002 24.2087H521.095V22.1624H517.002V24.2087ZM525.188 24.2087H527.234V22.1624H525.188V24.2087Z" fill="#BED73C"/>
<path d="M687.874 22.1624C687.309 22.1624 686.851 22.6205 686.851 23.1855C686.851 23.7506 687.309 24.2087 687.874 24.2087V22.1624ZM704.968 23.909C705.368 23.5095 705.368 22.8616 704.968 22.462L698.457 15.9506C698.057 15.551 697.41 15.551 697.01 15.9506C696.61 16.3501 696.61 16.998 697.01 17.3976L702.798 23.1855L697.01 28.9735C696.61 29.3731 696.61 30.0209 697.01 30.4205C697.41 30.8201 698.057 30.8201 698.457 30.4205L704.968 23.909ZM689.92 24.2087C690.485 24.2087 690.944 23.7506 690.944 23.1855C690.944 22.6205 690.485 22.1624 689.92 22.1624V24.2087ZM694.013 22.1624C693.448 22.1624 692.99 22.6205 692.99 23.1855C692.99 23.7506 693.448 24.2087 694.013 24.2087V22.1624ZM698.106 24.2087C698.671 24.2087 699.129 23.7506 699.129 23.1855C699.129 22.6205 698.671 22.1624 698.106 22.1624V24.2087ZM702.199 22.1624C701.633 22.1624 701.175 22.6205 701.175 23.1855C701.175 23.7506 701.633 24.2087 702.199 24.2087V22.1624ZM687.874 24.2087H689.92V22.1624H687.874V24.2087ZM694.013 24.2087H698.106V22.1624H694.013V24.2087ZM702.199 24.2087H704.245V22.1624H702.199V24.2087Z" fill="#BED73C"/>
<rect x="354.307" width="152.454" height="46.3711" rx="8.88889" fill="#F3F4F6"/>
<rect x="531.307" width="152.454" height="46.3711" rx="8.88889" fill="#F3F4F6"/>
<path d="M333.854 172.778C333.288 172.778 332.83 173.236 332.83 173.801C332.83 174.366 333.288 174.824 333.854 174.824V172.778ZM350.948 174.524C351.347 174.125 351.347 173.477 350.948 173.077L344.436 166.566C344.037 166.166 343.389 166.166 342.989 166.566C342.59 166.965 342.59 167.613 342.989 168.013L348.777 173.801L342.989 179.589C342.59 179.988 342.59 180.636 342.989 181.036C343.389 181.435 344.037 181.435 344.436 181.036L350.948 174.524ZM335.9 174.824C336.465 174.824 336.923 174.366 336.923 173.801C336.923 173.236 336.465 172.778 335.9 172.778V174.824ZM339.993 172.778C339.428 172.778 338.969 173.236 338.969 173.801C338.969 174.366 339.428 174.824 339.993 174.824V172.778ZM344.085 174.824C344.65 174.824 345.108 174.366 345.108 173.801C345.108 173.236 344.65 172.778 344.085 172.778V174.824ZM348.178 172.778C347.613 172.778 347.155 173.236 347.155 173.801C347.155 174.366 347.613 174.824 348.178 174.824V172.778ZM333.854 174.824H335.9V172.778H333.854V174.824ZM339.993 174.824H344.085V172.778H339.993V174.824ZM348.178 174.824H350.224V172.778H348.178V174.824Z" fill="#BED73C"/>
<path d="M510.863 172.778C510.298 172.778 509.84 173.236 509.84 173.801C509.84 174.366 510.298 174.824 510.863 174.824V172.778ZM527.958 174.524C528.357 174.125 528.357 173.477 527.958 173.077L521.446 166.566C521.047 166.166 520.399 166.166 519.999 166.566C519.6 166.965 519.6 167.613 519.999 168.013L525.787 173.801L519.999 179.589C519.6 179.988 519.6 180.636 519.999 181.036C520.399 181.435 521.047 181.435 521.446 181.036L527.958 174.524ZM512.91 174.824C513.475 174.824 513.933 174.366 513.933 173.801C513.933 173.236 513.475 172.778 512.91 172.778V174.824ZM517.002 172.778C516.437 172.778 515.979 173.236 515.979 173.801C515.979 174.366 516.437 174.824 517.002 174.824V172.778ZM521.095 174.824C521.66 174.824 522.118 174.366 522.118 173.801C522.118 173.236 521.66 172.778 521.095 172.778V174.824ZM525.188 172.778C524.623 172.778 524.165 173.236 524.165 173.801C524.165 174.366 524.623 174.824 525.188 174.824V172.778ZM510.863 174.824H512.91V172.778H510.863V174.824ZM517.002 174.824H521.095V172.778H517.002V174.824ZM525.188 174.824H527.234V172.778H525.188V174.824Z" fill="#BED73C"/>
<path d="M687.874 172.778C687.309 172.778 686.851 173.236 686.851 173.801C686.851 174.366 687.309 174.824 687.874 174.824V172.778ZM704.968 174.524C705.368 174.125 705.368 173.477 704.968 173.077L698.457 166.566C698.057 166.166 697.41 166.166 697.01 166.566C696.61 166.965 696.61 167.613 697.01 168.013L702.798 173.801L697.01 179.589C696.61 179.988 696.61 180.636 697.01 181.036C697.41 181.435 698.057 181.435 698.457 181.036L704.968 174.524ZM689.92 174.824C690.485 174.824 690.944 174.366 690.944 173.801C690.944 173.236 690.485 172.778 689.92 172.778V174.824ZM694.013 172.778C693.448 172.778 692.99 173.236 692.99 173.801C692.99 174.366 693.448 174.824 694.013 174.824V172.778ZM698.106 174.824C698.671 174.824 699.129 174.366 699.129 173.801C699.129 173.236 698.671 172.778 698.106 172.778V174.824ZM702.199 172.778C701.633 172.778 701.175 173.236 701.175 173.801C701.175 174.366 701.633 174.824 702.199 174.824V172.778ZM687.874 174.824H689.92V172.778H687.874V174.824ZM694.013 174.824H698.106V172.778H694.013V174.824ZM702.199 174.824H704.245V172.778H702.199V174.824Z" fill="#BED73C"/>
<rect x="354.307" y="143" width="152.454" height="61.4863" rx="8.88889" fill="#F3F4F6"/>
<rect x="531.307" y="151" width="152.454" height="46.3711" rx="8.88889" fill="#F3F4F6"/>
<path d="M785.287 58.6207C784.887 58.2212 784.24 58.2212 783.84 58.6207L777.329 65.1322C776.929 65.5318 776.929 66.1796 777.329 66.5792C777.728 66.9788 778.376 66.9788 778.775 66.5792L784.563 60.7912L790.351 66.5792C790.751 66.9788 791.399 66.9788 791.798 66.5792C792.198 66.1796 792.198 65.5318 791.798 65.1322L785.287 58.6207ZM783.54 61.4497C783.54 62.0148 783.998 62.4729 784.563 62.4729C785.129 62.4729 785.587 62.0148 785.587 61.4497L783.54 61.4497ZM785.587 65.6607C785.587 65.0956 785.129 64.6375 784.563 64.6375C783.998 64.6375 783.54 65.0956 783.54 65.6607L785.587 65.6607ZM783.54 69.8716C783.54 70.4367 783.998 70.8948 784.563 70.8948C785.129 70.8948 785.587 70.4367 785.587 69.8716L783.54 69.8716ZM785.587 74.0826C785.587 73.5175 785.129 73.0594 784.563 73.0594C783.998 73.0594 783.54 73.5175 783.54 74.0826L785.587 74.0826ZM783.54 78.2935C783.54 78.8586 783.998 79.3167 784.563 79.3167C785.129 79.3167 785.587 78.8586 785.587 78.2935L783.54 78.2935ZM785.587 82.5045C785.587 81.9394 785.129 81.4813 784.563 81.4813C783.998 81.4813 783.54 81.9394 783.54 82.5045L785.587 82.5045ZM783.54 86.7154C783.54 87.2805 783.998 87.7386 784.563 87.7386C785.129 87.7386 785.587 87.2805 785.587 86.7154L783.54 86.7154ZM785.587 90.9264C785.587 90.3613 785.129 89.9032 784.563 89.9032C783.998 89.9032 783.54 90.3613 783.54 90.9264L785.587 90.9264ZM783.54 95.1374C783.54 95.7024 783.998 96.1605 784.563 96.1605C785.129 96.1605 785.587 95.7024 785.587 95.1374L783.54 95.1374ZM785.587 99.3483C785.587 98.7832 785.129 98.3251 784.563 98.3251C783.998 98.3251 783.54 98.7832 783.54 99.3483L785.587 99.3483ZM783.54 103.559C783.54 104.124 783.998 104.582 784.563 104.582C785.129 104.582 785.587 104.124 785.587 103.559L783.54 103.559ZM785.587 107.77C785.587 107.205 785.129 106.747 784.563 106.747C783.998 106.747 783.54 107.205 783.54 107.77L785.587 107.77ZM783.54 111.981C783.54 112.546 783.998 113.004 784.563 113.004C785.129 113.004 785.587 112.546 785.587 111.981L783.54 111.981ZM785.587 116.192C785.587 115.627 785.129 115.169 784.563 115.169C783.998 115.169 783.54 115.627 783.54 116.192L785.587 116.192ZM783.54 120.403C783.54 120.968 783.998 121.426 784.563 121.426C785.129 121.426 785.587 120.968 785.587 120.403L783.54 120.403ZM785.587 124.614C785.587 124.049 785.129 123.591 784.563 123.591C783.998 123.591 783.54 124.049 783.54 124.614L785.587 124.614ZM783.54 128.825C783.54 129.39 783.998 129.848 784.563 129.848C785.129 129.848 785.587 129.39 785.587 128.825L783.54 128.825ZM785.587 133.036C785.587 132.471 785.129 132.013 784.563 132.013C783.998 132.013 783.54 132.471 783.54 133.036L785.587 133.036ZM783.54 59.3442L783.54 61.4497L785.587 61.4497L785.587 59.3442L783.54 59.3442ZM783.54 65.6607L783.54 69.8716L785.587 69.8716L785.587 65.6607L783.54 65.6607ZM783.54 74.0826L783.54 78.2935L785.587 78.2935L785.587 74.0826L783.54 74.0826ZM783.54 82.5045L783.54 86.7154L785.587 86.7154L785.587 82.5045L783.54 82.5045ZM783.54 90.9264L783.54 95.1374L785.587 95.1374L785.587 90.9264L783.54 90.9264ZM783.54 99.3483L783.54 103.559L785.587 103.559L785.587 99.3483L783.54 99.3483ZM783.54 107.77L783.54 111.981L785.587 111.981L785.587 107.77L783.54 107.77ZM783.54 116.192L783.54 120.403L785.587 120.403L785.587 116.192L783.54 116.192ZM783.54 124.614L783.54 128.825L785.587 128.825L785.587 124.614L783.54 124.614ZM783.54 133.036L783.54 135.141L785.587 135.141L785.587 133.036L783.54 133.036Z" fill="#BED73C"/>
<rect x="708.307" width="152.454" height="55.4863" rx="8.88889" fill="#F3F4F6"/>
<rect x="708.307" y="139" width="152.454" height="55.4863" rx="8.88889" fill="#F3F4F6"/>
<path d="M839.048 65.0728C839.048 64.5077 839.506 64.0496 840.071 64.0496C840.636 64.0496 841.094 64.5077 841.094 65.0728L839.048 65.0728ZM855.725 101.58C856.125 101.98 856.125 102.628 855.725 103.027L849.214 109.539C848.814 109.938 848.166 109.938 847.767 109.539C847.367 109.139 847.367 108.491 847.767 108.092L853.555 102.304L847.767 96.5159C847.367 96.1164 847.367 95.4685 847.767 95.069C848.166 94.6694 848.814 94.6694 849.214 95.069L855.725 101.58ZM841.094 66.8881C841.094 67.4532 840.636 67.9113 840.071 67.9113C839.506 67.9113 839.048 67.4532 839.048 66.8881L841.094 66.8881ZM839.048 70.5188C839.048 69.9537 839.506 69.4956 840.071 69.4956C840.636 69.4956 841.094 69.9537 841.094 70.5188L839.048 70.5188ZM841.094 74.1495C841.094 74.7146 840.636 75.1727 840.071 75.1727C839.506 75.1727 839.048 74.7146 839.048 74.1495L841.094 74.1495ZM839.048 77.7803C839.048 77.2152 839.506 76.7571 840.071 76.7571C840.636 76.7571 841.094 77.2152 841.094 77.7803L839.048 77.7803ZM841.094 81.411C841.094 81.9761 840.636 82.4342 840.071 82.4342C839.506 82.4342 839.048 81.9761 839.048 81.411L841.094 81.411ZM839.048 85.0417C839.048 84.4766 839.506 84.0185 840.071 84.0185C840.636 84.0185 841.094 84.4766 841.094 85.0417L839.048 85.0417ZM841.094 88.6724C841.094 89.2375 840.636 89.6956 840.071 89.6956C839.506 89.6956 839.048 89.2375 839.048 88.6724L841.094 88.6724ZM839.048 92.3031C839.048 91.7381 839.506 91.28 840.071 91.28C840.636 91.28 841.094 91.7381 841.094 92.3031L839.048 92.3031ZM841.231 95.5174C841.34 96.0718 840.98 96.61 840.426 96.7197C839.871 96.8294 839.333 96.4689 839.223 95.9145L841.231 95.5174ZM840.6 99.2357C840.285 98.7661 840.411 98.1306 840.881 97.8162C841.35 97.5019 841.986 97.6277 842.3 98.0972L840.6 99.2357ZM844.278 100.075C844.748 100.389 844.873 101.025 844.559 101.494C844.245 101.964 843.609 102.09 843.14 101.775L844.278 100.075ZM846.461 103.152C845.906 103.042 845.546 102.504 845.656 101.95C845.765 101.395 846.303 101.035 846.858 101.144L846.461 103.152ZM849.943 101.281C850.508 101.281 850.966 101.739 850.966 102.304C850.966 102.869 850.508 103.327 849.943 103.327L849.943 101.281ZM853.315 103.327C852.75 103.327 852.292 102.869 852.292 102.304C852.292 101.739 852.75 101.281 853.315 101.281L853.315 103.327ZM841.094 65.0728L841.094 66.8881L839.048 66.8881L839.048 65.0728L841.094 65.0728ZM841.094 70.5188L841.094 74.1495L839.048 74.1495L839.048 70.5188L841.094 70.5188ZM841.094 77.7803L841.094 81.411L839.048 81.411L839.048 77.7803L841.094 77.7803ZM841.094 85.0417L841.094 88.6724L839.048 88.6724L839.048 85.0417L841.094 85.0417ZM841.094 92.3031L841.094 94.1185L839.048 94.1185L839.048 92.3031L841.094 92.3031ZM841.094 94.1185C841.094 94.5981 841.141 95.0658 841.231 95.5174L839.223 95.9145C839.108 95.3328 839.048 94.7322 839.048 94.1185L841.094 94.1185ZM842.3 98.0972C842.823 98.8787 843.496 99.5518 844.278 100.075L843.14 101.775C842.136 101.103 841.272 100.239 840.6 99.2357L842.3 98.0972ZM846.858 101.144C847.309 101.234 847.777 101.281 848.257 101.281L848.257 103.327C847.643 103.327 847.042 103.267 846.461 103.152L846.858 101.144ZM848.257 101.281L849.943 101.281L849.943 103.327L848.257 103.327L848.257 101.281ZM853.315 101.281L855.002 101.281L855.002 103.327L853.315 103.327L853.315 101.281Z" fill="#BED73C"/>
<rect x="865.907" y="35.5762" width="133.333" height="133.333" rx="66.6665" fill="#F3F4F6"/>
<g clip-path="url(#clip1_6289_198673)">
<path d="M943.078 64.3377L934.398 55.6572C934.246 55.5053 934.039 55.4185 933.822 55.4185H905.611C905.166 55.4185 904.797 55.7874 904.797 56.2323V110.16C904.797 110.605 905.166 110.974 905.611 110.974H942.503C942.948 110.974 943.317 110.605 943.317 110.16V64.9128C943.317 64.6958 943.23 64.4896 943.078 64.3377ZM934.636 58.1962L940.539 64.099H934.636V58.1962ZM906.424 109.346V57.0461H933.009V64.9128C933.009 65.3577 933.378 65.7266 933.822 65.7266H941.689V109.346H906.424Z" fill="#004357"/>
<path d="M938.162 68.439H909.951C909.506 68.439 909.137 68.8079 909.137 69.2528V73.593C909.137 74.0379 909.506 74.4068 909.951 74.4068H938.162C938.607 74.4068 938.976 74.0379 938.976 73.593V69.2528C938.976 68.8079 938.607 68.439 938.162 68.439ZM937.349 72.7792H910.764V70.0666H937.349V72.7792Z" fill="#004357"/>
<path d="M909.951 87.4278H918.631C919.076 87.4278 919.445 87.0589 919.445 86.614V77.9334C919.445 77.4886 919.076 77.1196 918.631 77.1196H909.951C909.506 77.1196 909.137 77.4886 909.137 77.9334V86.614C909.137 87.0589 909.506 87.4278 909.951 87.4278ZM910.764 78.7472H917.817V85.8002H910.764V78.7472Z" fill="#004357"/>
<path d="M938.163 77.1196H926.227C925.782 77.1196 925.413 77.4886 925.413 77.9334C925.413 78.3783 925.782 78.7472 926.227 78.7472H938.163C938.608 78.7472 938.976 78.3783 938.976 77.9334C938.976 77.4886 938.608 77.1196 938.163 77.1196Z" fill="#004357"/>
<path d="M922.972 78.7472H923.515C923.959 78.7472 924.328 78.3783 924.328 77.9334C924.328 77.4886 923.959 77.1196 923.515 77.1196H922.972C922.527 77.1196 922.158 77.4886 922.158 77.9334C922.158 78.3783 922.527 78.7472 922.972 78.7472Z" fill="#004357"/>
<path d="M938.163 81.46H922.972C922.527 81.46 922.158 81.8289 922.158 82.2738C922.158 82.7186 922.527 83.0876 922.972 83.0876H938.163C938.608 83.0876 938.977 82.7186 938.977 82.2738C938.977 81.8289 938.608 81.46 938.163 81.46Z" fill="#004357"/>
<path d="M938.163 85.8003H922.972C922.527 85.8003 922.158 86.1692 922.158 86.6141C922.158 87.059 922.527 87.4279 922.972 87.4279H938.163C938.608 87.4279 938.977 87.059 938.977 86.6141C938.977 86.1692 938.608 85.8003 938.163 85.8003Z" fill="#004357"/>
<path d="M938.163 90.1406H916.461C916.016 90.1406 915.647 90.5095 915.647 90.9544C915.647 91.3993 916.016 91.7682 916.461 91.7682H938.163C938.608 91.7682 938.976 91.3993 938.976 90.9544C938.976 90.5095 938.608 90.1406 938.163 90.1406Z" fill="#004357"/>
<path d="M909.951 91.7682H913.748C914.193 91.7682 914.562 91.3993 914.562 90.9544C914.562 90.5095 914.193 90.1406 913.748 90.1406H909.951C909.506 90.1406 909.137 90.5095 909.137 90.9544C909.137 91.3993 909.506 91.7682 909.951 91.7682Z" fill="#004357"/>
<path d="M938.162 94.481H909.951C909.506 94.481 909.137 94.8499 909.137 95.2948C909.137 95.7396 909.506 96.1086 909.951 96.1086H938.162C938.607 96.1086 938.976 95.7396 938.976 95.2948C938.976 94.8499 938.607 94.481 938.162 94.481Z" fill="#004357"/>
<path d="M938.162 98.4956H929.482C929.037 98.4956 928.668 98.8645 928.668 99.3094V105.82C928.668 106.265 929.037 106.634 929.482 106.634H938.162C938.607 106.634 938.976 106.265 938.976 105.82V99.3094C938.976 98.8645 938.607 98.4956 938.162 98.4956ZM937.349 105.006H930.296V100.123H937.349V105.006Z" fill="#004357"/>
<path d="M922.971 98.4956H909.951C909.506 98.4956 909.137 98.8645 909.137 99.3094V105.82C909.137 106.265 909.506 106.634 909.951 106.634H922.971C923.416 106.634 923.785 106.265 923.785 105.82V99.3094C923.785 98.8645 923.416 98.4956 922.971 98.4956ZM922.158 105.006H910.764V100.123H922.158V105.006Z" fill="#004357"/>
<path d="M957.369 64.8911H956.012V63.231H949.502V87.645H956.012V66.5187H957.369C958.117 66.5187 958.725 67.1264 958.725 67.8751V78.7257C958.725 79.1706 959.094 79.5396 959.539 79.5396C959.984 79.5396 960.353 79.1706 960.353 78.7257V67.8751C960.353 66.2366 959.018 64.8911 957.369 64.8911Z" fill="#087084"/>
<path d="M955.198 57.8599C955.198 56.5144 954.102 55.4185 952.757 55.4185C951.411 55.4185 950.315 56.5144 950.315 57.8599V61.6034H955.198V57.8599Z" fill="#087084"/>
<path d="M950.315 105.277C950.315 107.198 950.956 109.108 952.106 110.648C952.258 110.854 952.496 110.974 952.757 110.974C953.017 110.974 953.256 110.854 953.408 110.648C954.558 109.108 955.198 107.198 955.198 105.277V89.2725H950.315V105.277Z" fill="#087084"/>
<path d="M945.647 86.473C939.965 86.473 935.335 91.1031 935.335 96.7844C935.335 102.466 939.965 107.096 945.647 107.096C951.328 107.096 955.958 102.466 955.958 96.7844C955.958 91.1031 951.328 86.473 945.647 86.473Z" fill="#087084" stroke="#F3F4F6" stroke-width="1.63399"/>
</g>
<defs>
<clipPath id="clip0_6289_198673">
<rect width="55.5556" height="55.5556" fill="white" transform="translate(39.8887 55.4185)"/>
</clipPath>
<clipPath id="clip1_6289_198673">
<rect width="55.5556" height="55.5556" fill="white" transform="translate(904.796 55.4185)"/>
</clipPath>
</defs>
</svg>
