<svg width="320" height="587" viewBox="0 0 320 587" fill="none" xmlns="http://www.w3.org/2000/svg">
<path d="M159.079 125.432C159.079 124.924 159.491 124.512 160 124.512C160.508 124.512 160.921 124.924 160.921 125.432H159.079ZM68.9724 155.551C68.6128 155.911 68.0298 155.911 67.6701 155.551L61.8098 149.691C61.4502 149.331 61.4502 148.748 61.8098 148.388C62.1694 148.029 62.7525 148.029 63.1121 148.388L68.3213 153.598L73.5305 148.388C73.8901 148.029 74.4731 148.029 74.8328 148.388C75.1924 148.748 75.1924 149.331 74.8328 149.691L68.9724 155.551ZM160.921 127.346C160.921 127.855 160.508 128.267 160 128.267C159.491 128.267 159.079 127.855 159.079 127.346H160.921ZM159.079 131.174C159.079 130.666 159.491 130.254 160 130.254C160.508 130.254 160.921 130.666 160.921 131.174H159.079ZM160.763 134.705C160.664 135.204 160.18 135.528 159.681 135.43C159.182 135.331 158.858 134.846 158.956 134.347L160.763 134.705ZM157.994 136.669C158.277 136.247 158.849 136.133 159.271 136.416C159.694 136.699 159.807 137.271 159.524 137.694L157.994 136.669ZM157.238 139.98C156.816 140.263 156.244 140.149 155.961 139.727C155.678 139.304 155.791 138.732 156.214 138.449L157.238 139.98ZM153.892 139.412C154.391 139.313 154.875 139.637 154.974 140.136C155.073 140.635 154.748 141.12 154.249 141.218L153.892 139.412ZM150.709 141.376C150.201 141.376 149.788 140.964 149.788 140.455C149.788 139.947 150.201 139.534 150.709 139.534V141.376ZM146.862 139.534C147.371 139.534 147.783 139.947 147.783 140.455C147.783 140.964 147.371 141.376 146.862 141.376V139.534ZM143.015 141.376C142.506 141.376 142.094 140.964 142.094 140.455C142.094 139.947 142.506 139.534 143.015 139.534V141.376ZM139.168 139.534C139.676 139.534 140.088 139.947 140.088 140.455C140.088 140.964 139.676 141.376 139.168 141.376V139.534ZM135.32 141.376C134.812 141.376 134.4 140.964 134.4 140.455C134.4 139.947 134.812 139.534 135.32 139.534V141.376ZM131.473 139.534C131.982 139.534 132.394 139.947 132.394 140.455C132.394 140.964 131.982 141.376 131.473 141.376V139.534ZM127.626 141.376C127.117 141.376 126.705 140.964 126.705 140.455C126.705 139.947 127.117 139.534 127.626 139.534V141.376ZM123.779 139.534C124.287 139.534 124.7 139.947 124.7 140.455C124.7 140.964 124.287 141.376 123.779 141.376V139.534ZM119.931 141.376C119.423 141.376 119.011 140.964 119.011 140.455C119.011 139.947 119.423 139.534 119.931 139.534V141.376ZM116.084 139.534C116.593 139.534 117.005 139.947 117.005 140.455C117.005 140.964 116.593 141.376 116.084 141.376V139.534ZM112.237 141.376C111.728 141.376 111.316 140.964 111.316 140.455C111.316 139.947 111.728 139.534 112.237 139.534V141.376ZM108.39 139.534C108.898 139.534 109.311 139.947 109.311 140.455C109.311 140.964 108.898 141.376 108.39 141.376V139.534ZM104.542 141.376C104.034 141.376 103.622 140.964 103.622 140.455C103.622 139.947 104.034 139.534 104.542 139.534V141.376ZM100.695 139.534C101.204 139.534 101.616 139.947 101.616 140.455C101.616 140.964 101.204 141.376 100.695 141.376V139.534ZM96.848 141.376C96.3394 141.376 95.9272 140.964 95.9272 140.455C95.9272 139.947 96.3394 139.534 96.848 139.534V141.376ZM93.0008 139.534C93.5094 139.534 93.9216 139.947 93.9216 140.455C93.9216 140.964 93.5094 141.376 93.0008 141.376V139.534ZM89.1535 141.376C88.645 141.376 88.2327 140.964 88.2327 140.455C88.2327 139.947 88.645 139.534 89.1535 139.534V141.376ZM85.3063 139.534C85.8149 139.534 86.2272 139.947 86.2272 140.455C86.2272 140.964 85.8149 141.376 85.3063 141.376V139.534ZM81.4591 141.376C80.9505 141.376 80.5382 140.964 80.5382 140.455C80.5382 139.947 80.9505 139.534 81.4591 139.534V141.376ZM77.6118 139.534C78.1204 139.534 78.5327 139.947 78.5327 140.455C78.5327 140.964 78.1204 141.376 77.6118 141.376V139.534ZM74.4292 141.499C73.9303 141.598 73.4458 141.273 73.3471 140.774C73.2484 140.275 73.5728 139.791 74.0717 139.692L74.4292 141.499ZM71.0827 140.931C71.5053 140.648 72.0773 140.761 72.3602 141.184C72.6432 141.606 72.5299 142.178 72.1073 142.461L71.0827 140.931ZM70.3273 144.241C70.0444 144.664 69.4725 144.777 69.0498 144.494C68.6272 144.211 68.514 143.639 68.7969 143.217L70.3273 144.241ZM67.5582 146.206C67.6569 145.707 68.1413 145.382 68.6402 145.481C69.1391 145.58 69.4636 146.064 69.3649 146.563L67.5582 146.206ZM69.2422 149.592C69.2422 150.1 68.8299 150.513 68.3213 150.513C67.8127 150.513 67.4004 150.1 67.4004 149.592H69.2422ZM67.4004 153.131C67.4004 152.622 67.8127 152.21 68.3213 152.21C68.8299 152.21 69.2422 152.622 69.2422 153.131H67.4004ZM160.921 125.432V127.346H159.079V125.432H160.921ZM160.921 131.174V133.088H159.079V131.174H160.921ZM160.921 133.088C160.921 133.641 160.867 134.181 160.763 134.705L158.956 134.347C159.037 133.941 159.079 133.52 159.079 133.088H160.921ZM159.524 137.694C158.919 138.597 158.142 139.375 157.238 139.98L156.214 138.449C156.917 137.978 157.523 137.373 157.994 136.669L159.524 137.694ZM154.249 141.218C153.726 141.322 153.185 141.376 152.633 141.376V139.534C153.065 139.534 153.486 139.492 153.892 139.412L154.249 141.218ZM152.633 141.376H150.709V139.534H152.633V141.376ZM146.862 141.376H143.015V139.534H146.862V141.376ZM139.168 141.376H135.32V139.534H139.168V141.376ZM131.473 141.376H127.626V139.534H131.473V141.376ZM123.779 141.376H119.931V139.534H123.779V141.376ZM116.084 141.376H112.237V139.534H116.084V141.376ZM108.39 141.376H104.542V139.534H108.39V141.376ZM100.695 141.376H96.848V139.534H100.695V141.376ZM93.0008 141.376H89.1535V139.534H93.0008V141.376ZM85.3063 141.376H81.4591V139.534H85.3063V141.376ZM77.6118 141.376H75.6882V139.534H77.6118V141.376ZM75.6882 141.376C75.2565 141.376 74.8356 141.418 74.4292 141.499L74.0717 139.692C74.5953 139.589 75.1359 139.534 75.6882 139.534V141.376ZM72.1073 142.461C71.404 142.932 70.7982 143.538 70.3273 144.241L68.7969 143.217C69.4017 142.313 70.1793 141.536 71.0827 140.931L72.1073 142.461ZM69.3649 146.563C69.2845 146.97 69.2422 147.391 69.2422 147.822H67.4004C67.4004 147.27 67.4546 146.729 67.5582 146.206L69.3649 146.563ZM69.2422 147.822V149.592H67.4004V147.822H69.2422ZM69.2422 153.131V154.9H67.4004V153.131H69.2422Z" fill="#BED73C"/>
<path d="M160.921 125.432C160.921 124.924 160.509 124.512 160 124.512C159.492 124.512 159.079 124.924 159.079 125.432H160.921ZM251.028 155.551C251.387 155.911 251.97 155.911 252.33 155.551L258.19 149.691C258.55 149.331 258.55 148.748 258.19 148.388C257.831 148.029 257.248 148.029 256.888 148.388L251.679 153.598L246.47 148.388C246.11 148.029 245.527 148.029 245.167 148.388C244.808 148.748 244.808 149.331 245.167 149.691L251.028 155.551ZM159.079 127.346C159.079 127.855 159.492 128.267 160 128.267C160.509 128.267 160.921 127.855 160.921 127.346H159.079ZM160.921 131.174C160.921 130.666 160.509 130.254 160 130.254C159.492 130.254 159.079 130.666 159.079 131.174H160.921ZM159.237 134.705C159.336 135.204 159.82 135.528 160.319 135.43C160.818 135.331 161.142 134.846 161.044 134.347L159.237 134.705ZM162.006 136.669C161.723 136.247 161.151 136.133 160.729 136.416C160.306 136.699 160.193 137.271 160.476 137.694L162.006 136.669ZM162.762 139.98C163.184 140.263 163.756 140.149 164.039 139.727C164.322 139.304 164.209 138.732 163.786 138.449L162.762 139.98ZM166.108 139.412C165.609 139.313 165.125 139.637 165.026 140.136C164.927 140.635 165.252 141.12 165.751 141.218L166.108 139.412ZM169.291 141.376C169.799 141.376 170.212 140.964 170.212 140.455C170.212 139.947 169.799 139.534 169.291 139.534V141.376ZM173.138 139.534C172.629 139.534 172.217 139.947 172.217 140.455C172.217 140.964 172.629 141.376 173.138 141.376V139.534ZM176.985 141.376C177.494 141.376 177.906 140.964 177.906 140.455C177.906 139.947 177.494 139.534 176.985 139.534V141.376ZM180.832 139.534C180.324 139.534 179.912 139.947 179.912 140.455C179.912 140.964 180.324 141.376 180.832 141.376V139.534ZM184.68 141.376C185.188 141.376 185.6 140.964 185.6 140.455C185.6 139.947 185.188 139.534 184.68 139.534V141.376ZM188.527 139.534C188.018 139.534 187.606 139.947 187.606 140.455C187.606 140.964 188.018 141.376 188.527 141.376V139.534ZM192.374 141.376C192.883 141.376 193.295 140.964 193.295 140.455C193.295 139.947 192.883 139.534 192.374 139.534V141.376ZM196.221 139.534C195.713 139.534 195.3 139.947 195.3 140.455C195.3 140.964 195.713 141.376 196.221 141.376V139.534ZM200.069 141.376C200.577 141.376 200.989 140.964 200.989 140.455C200.989 139.947 200.577 139.534 200.069 139.534V141.376ZM203.916 139.534C203.407 139.534 202.995 139.947 202.995 140.455C202.995 140.964 203.407 141.376 203.916 141.376V139.534ZM207.763 141.376C208.272 141.376 208.684 140.964 208.684 140.455C208.684 139.947 208.272 139.534 207.763 139.534V141.376ZM211.61 139.534C211.102 139.534 210.689 139.947 210.689 140.455C210.689 140.964 211.102 141.376 211.61 141.376V139.534ZM215.458 141.376C215.966 141.376 216.378 140.964 216.378 140.455C216.378 139.947 215.966 139.534 215.458 139.534V141.376ZM219.305 139.534C218.796 139.534 218.384 139.947 218.384 140.455C218.384 140.964 218.796 141.376 219.305 141.376V139.534ZM223.152 141.376C223.661 141.376 224.073 140.964 224.073 140.455C224.073 139.947 223.661 139.534 223.152 139.534V141.376ZM226.999 139.534C226.491 139.534 226.078 139.947 226.078 140.455C226.078 140.964 226.491 141.376 226.999 141.376V139.534ZM230.846 141.376C231.355 141.376 231.767 140.964 231.767 140.455C231.767 139.947 231.355 139.534 230.846 139.534V141.376ZM234.694 139.534C234.185 139.534 233.773 139.947 233.773 140.455C233.773 140.964 234.185 141.376 234.694 141.376V139.534ZM238.541 141.376C239.05 141.376 239.462 140.964 239.462 140.455C239.462 139.947 239.05 139.534 238.541 139.534V141.376ZM242.388 139.534C241.88 139.534 241.467 139.947 241.467 140.455C241.467 140.964 241.88 141.376 242.388 141.376V139.534ZM245.571 141.499C246.07 141.598 246.554 141.273 246.653 140.774C246.752 140.275 246.427 139.791 245.928 139.692L245.571 141.499ZM248.917 140.931C248.495 140.648 247.923 140.761 247.64 141.184C247.357 141.606 247.47 142.178 247.893 142.461L248.917 140.931ZM249.673 144.241C249.956 144.664 250.528 144.777 250.95 144.494C251.373 144.211 251.486 143.639 251.203 143.217L249.673 144.241ZM252.442 146.206C252.343 145.707 251.859 145.382 251.36 145.481C250.861 145.58 250.536 146.064 250.635 146.563L252.442 146.206ZM250.758 149.592C250.758 150.1 251.17 150.513 251.679 150.513C252.187 150.513 252.6 150.1 252.6 149.592H250.758ZM252.6 153.131C252.6 152.622 252.187 152.21 251.679 152.21C251.17 152.21 250.758 152.622 250.758 153.131H252.6ZM159.079 125.432V127.346H160.921V125.432H159.079ZM159.079 131.174V133.088H160.921V131.174H159.079ZM159.079 133.088C159.079 133.641 159.133 134.181 159.237 134.705L161.044 134.347C160.963 133.941 160.921 133.52 160.921 133.088H159.079ZM160.476 137.694C161.081 138.597 161.858 139.375 162.762 139.98L163.786 138.449C163.083 137.978 162.477 137.373 162.006 136.669L160.476 137.694ZM165.751 141.218C166.274 141.322 166.815 141.376 167.367 141.376V139.534C166.935 139.534 166.514 139.492 166.108 139.412L165.751 141.218ZM167.367 141.376H169.291V139.534H167.367V141.376ZM173.138 141.376H176.985V139.534H173.138V141.376ZM180.832 141.376H184.68V139.534H180.832V141.376ZM188.527 141.376H192.374V139.534H188.527V141.376ZM196.221 141.376H200.069V139.534H196.221V141.376ZM203.916 141.376H207.763V139.534H203.916V141.376ZM211.61 141.376H215.458V139.534H211.61V141.376ZM219.305 141.376H223.152V139.534H219.305V141.376ZM226.999 141.376H230.846V139.534H226.999V141.376ZM234.694 141.376H238.541V139.534H234.694V141.376ZM242.388 141.376H244.312V139.534H242.388V141.376ZM244.312 141.376C244.743 141.376 245.164 141.418 245.571 141.499L245.928 139.692C245.405 139.589 244.864 139.534 244.312 139.534V141.376ZM247.893 142.461C248.596 142.932 249.202 143.538 249.673 144.241L251.203 143.217C250.598 142.313 249.821 141.536 248.917 140.931L247.893 142.461ZM250.635 146.563C250.716 146.97 250.758 147.391 250.758 147.822H252.6C252.6 147.27 252.545 146.729 252.442 146.206L250.635 146.563ZM250.758 147.822V149.592H252.6V147.822H250.758ZM250.758 153.131V154.9H252.6V153.131H250.758Z" fill="#BED73C"/>
<rect x="99" y="1.13867" width="121" height="121" rx="60.5" fill="#F3F4F6"/>
<g clip-path="url(#clip0_6289_198777)">
<path d="M164.062 29.67H175.479C175.879 29.67 176.211 29.338 176.211 28.9376C176.211 28.5372 175.879 28.2052 175.479 28.2052H164.062C163.662 28.2052 163.33 28.5372 163.33 28.9376C163.33 29.338 163.662 29.67 164.062 29.67Z" fill="#004357"/>
<path d="M164.062 33.9083H175.479C175.879 33.9083 176.211 33.5763 176.211 33.1759C176.211 32.7755 175.879 32.4435 175.479 32.4435H164.062C163.662 32.4435 163.33 32.7755 163.33 33.1759C163.33 33.5763 163.662 33.9083 164.062 33.9083Z" fill="#004357"/>
<path d="M175.479 36.672H166.992C166.592 36.672 166.26 37.004 166.26 37.4044C166.26 37.8048 166.592 38.1368 166.992 38.1368H175.479C175.879 38.1368 176.211 37.8048 176.211 37.4044C176.211 37.004 175.889 36.672 175.479 36.672Z" fill="#004357"/>
<path d="M164.062 25.4415H171.572C171.973 25.4415 172.305 25.1095 172.305 24.7091C172.305 24.3087 171.973 23.9767 171.572 23.9767H164.062C163.662 23.9767 163.33 24.3087 163.33 24.7091C163.33 25.1095 163.662 25.4415 164.062 25.4415Z" fill="#004357"/>
<path d="M174.99 25.4415H175.479C175.879 25.4415 176.211 25.1095 176.211 24.7091C176.211 24.3087 175.879 23.9767 175.479 23.9767H174.99C174.59 23.9767 174.258 24.3087 174.258 24.7091C174.258 25.1095 174.59 25.4415 174.99 25.4415Z" fill="#004357"/>
<path d="M144.521 29.67H155.937C156.338 29.67 156.67 29.338 156.67 28.9376C156.67 28.5372 156.338 28.2052 155.937 28.2052H144.521C144.121 28.2052 143.789 28.5372 143.789 28.9376C143.789 29.338 144.111 29.67 144.521 29.67Z" fill="#004357"/>
<path d="M144.521 33.9083H155.937C156.338 33.9083 156.67 33.5763 156.67 33.1759C156.67 32.7755 156.338 32.4435 155.937 32.4435H144.521C144.121 32.4435 143.789 32.7755 143.789 33.1759C143.789 33.5763 144.111 33.9083 144.521 33.9083Z" fill="#004357"/>
<path d="M144.521 38.1368H153.008C153.408 38.1368 153.74 37.8048 153.74 37.4044C153.74 37.004 153.408 36.672 153.008 36.672H144.521C144.121 36.672 143.789 37.004 143.789 37.4044C143.789 37.8048 144.111 38.1368 144.521 38.1368Z" fill="#004357"/>
<path d="M148.428 25.4415H155.937C156.338 25.4415 156.67 25.1095 156.67 24.7091C156.67 24.3087 156.338 23.9767 155.937 23.9767H148.428C148.027 23.9767 147.695 24.3087 147.695 24.7091C147.695 25.1095 148.018 25.4415 148.428 25.4415Z" fill="#004357"/>
<path d="M144.521 25.4415H145.01C145.41 25.4415 145.742 25.1095 145.742 24.7091C145.742 24.3087 145.41 23.9767 145.01 23.9767H144.521C144.121 23.9767 143.789 24.3087 143.789 24.7091C143.789 25.1095 144.111 25.4415 144.521 25.4415Z" fill="#004357"/>
<path d="M184.268 23.0391H180.283V19.7188C180.283 19.3184 179.951 18.9863 179.551 18.9863H165.859C163.311 18.9863 161.094 20.4414 160 22.5605C158.906 20.4414 156.689 18.9863 154.141 18.9863H140.449C140.049 18.9863 139.717 19.3184 139.717 19.7188V23.0391H135.732C135.332 23.0391 135 23.3711 135 23.7715V45.1094C135 47.1309 136.641 48.7715 138.662 48.7715H148.633C148.564 49.2793 148.525 49.8066 148.525 50.334C148.525 56.6621 153.672 61.8086 160 61.8086C162.246 61.8086 164.346 61.1641 166.113 60.041L174.277 68.2051C174.805 68.7324 175.488 68.9863 176.172 68.9863C176.855 68.9863 177.549 68.7227 178.066 68.2051C179.111 67.1602 179.111 65.4512 178.066 64.4063L169.863 56.1934C170.889 54.4746 171.475 52.4727 171.475 50.334C171.475 49.8066 171.436 49.2793 171.367 48.7715H181.338C183.359 48.7715 185 47.1309 185 45.1094V23.7715C185 23.3711 184.668 23.0391 184.268 23.0391ZM165.859 20.4512H178.818V39.4648C178.818 40.6758 177.832 41.6621 176.621 41.6621H168.545C168.213 41.6621 167.881 41.6719 167.549 41.7012C165.703 40.0801 163.33 39.0449 160.732 38.8789V25.5781C160.732 22.7559 163.037 20.4512 165.859 20.4512ZM141.182 20.4512H154.141C156.963 20.4512 159.268 22.7559 159.268 25.5781V38.8789C156.67 39.0449 154.297 40.0801 152.451 41.7012C152.119 41.6719 151.787 41.6621 151.455 41.6621H143.379C142.168 41.6621 141.182 40.6758 141.182 39.4648V20.4512ZM138.662 47.3066C137.451 47.3066 136.465 46.3203 136.465 45.1094V24.5039H139.717V39.4648C139.717 41.4863 141.357 43.127 143.379 43.127H151.074C150.088 44.3379 149.355 45.7637 148.926 47.3066H138.662ZM177.041 65.4414C177.52 65.9199 177.52 66.6914 177.041 67.1699C176.562 67.6484 175.791 67.6484 175.312 67.1699L167.314 59.1719C167.939 58.6543 168.516 58.0684 169.023 57.4238L177.041 65.4414ZM160 60.3438C154.482 60.3438 149.99 55.8516 149.99 50.334C149.99 44.8164 154.482 40.3242 160 40.3242C165.518 40.3242 170.01 44.8164 170.01 50.334C170.01 55.8516 165.518 60.3438 160 60.3438ZM183.535 45.1094C183.535 46.3203 182.549 47.3066 181.338 47.3066H171.064C170.645 45.7539 169.902 44.3379 168.916 43.127H176.611C178.633 43.127 180.273 41.4863 180.273 39.4648V24.5039H183.535V45.1094Z" fill="#004357"/>
<path d="M160 41.7892C155.293 41.7892 151.455 45.6271 151.455 50.3341C151.455 55.0411 155.293 58.879 160 58.879C164.707 58.879 168.545 55.0411 168.545 50.3341C168.545 45.6271 164.707 41.7892 160 41.7892ZM163.467 48.7814L159.629 52.8829C159.492 53.0294 159.297 53.1173 159.092 53.1173C158.887 53.1173 158.691 53.0294 158.555 52.8829L156.533 50.7247C156.26 50.4318 156.27 49.963 156.572 49.6896C156.865 49.4161 157.334 49.4259 157.607 49.7286L159.092 51.3204L162.393 47.795C162.666 47.5021 163.135 47.4825 163.428 47.756C163.721 48.0294 163.74 48.4884 163.467 48.7814Z" fill="#087084"/>
</g>
<rect y="158.171" width="154" height="50.5924" rx="8" fill="#F3F4F6"/>
<rect x="166" y="158.171" width="154" height="50.5924" rx="8" fill="#F3F4F6"/>
<path d="M77.9209 212.447C77.9209 211.938 77.5086 211.526 77 211.526C76.4914 211.526 76.0791 211.938 76.0791 212.447H77.9209ZM76.3489 227.832C76.7085 228.191 77.2915 228.191 77.6511 227.832L83.5115 221.971C83.8711 221.612 83.8711 221.029 83.5115 220.669C83.1519 220.309 82.5688 220.309 82.2092 220.669L77 225.878L71.7908 220.669C71.4312 220.309 70.8481 220.309 70.4885 220.669C70.1289 221.029 70.1289 221.612 70.4885 221.971L76.3489 227.832ZM76.0791 214.289C76.0791 214.797 76.4914 215.209 77 215.209C77.5086 215.209 77.9209 214.797 77.9209 214.289H76.0791ZM77.9209 217.972C77.9209 217.463 77.5086 217.051 77 217.051C76.4914 217.051 76.0791 217.463 76.0791 217.972H77.9209ZM76.0791 221.655C76.0791 222.164 76.4914 222.576 77 222.576C77.5086 222.576 77.9209 222.164 77.9209 221.655H76.0791ZM77.9209 225.339C77.9209 224.83 77.5086 224.418 77 224.418C76.4914 224.418 76.0791 224.83 76.0791 225.339H77.9209ZM76.0791 212.447V214.289H77.9209V212.447H76.0791ZM76.0791 217.972V221.655H77.9209V217.972H76.0791ZM76.0791 225.339V227.181H77.9209V225.339H76.0791Z" fill="#BED73C"/>
<path d="M77.9209 273.281C77.9209 272.773 77.5086 272.36 77 272.36C76.4914 272.36 76.0791 272.773 76.0791 273.281H77.9209ZM76.3489 288.666C76.7085 289.026 77.2915 289.026 77.6511 288.666L83.5115 282.806C83.8711 282.446 83.8711 281.863 83.5115 281.504C83.1519 281.144 82.5688 281.144 82.2092 281.504L77 286.713L71.7908 281.504C71.4312 281.144 70.8481 281.144 70.4885 281.504C70.1289 281.863 70.1289 282.446 70.4885 282.806L76.3489 288.666ZM76.0791 275.123C76.0791 275.632 76.4914 276.044 77 276.044C77.5086 276.044 77.9209 275.632 77.9209 275.123H76.0791ZM77.9209 278.806C77.9209 278.298 77.5086 277.886 77 277.886C76.4914 277.886 76.0791 278.298 76.0791 278.806H77.9209ZM76.0791 282.49C76.0791 282.998 76.4914 283.411 77 283.411C77.5086 283.411 77.9209 282.998 77.9209 282.49H76.0791ZM77.9209 286.173C77.9209 285.665 77.5086 285.252 77 285.252C76.4914 285.252 76.0791 285.665 76.0791 286.173H77.9209ZM76.0791 273.281V275.123H77.9209V273.281H76.0791ZM76.0791 278.806V282.49H77.9209V278.806H76.0791ZM76.0791 286.173V288.015H77.9209V286.173H76.0791Z" fill="#BED73C"/>
<path d="M77.9209 334.116C77.9209 333.607 77.5086 333.195 77 333.195C76.4914 333.195 76.0791 333.607 76.0791 334.116H77.9209ZM76.3489 349.501C76.7085 349.86 77.2915 349.86 77.6511 349.501L83.5115 343.64C83.8711 343.281 83.8711 342.698 83.5115 342.338C83.1519 341.978 82.5688 341.978 82.2092 342.338L77 347.547L71.7908 342.338C71.4312 341.978 70.8481 341.978 70.4885 342.338C70.1289 342.698 70.1289 343.281 70.4885 343.64L76.3489 349.501ZM76.0791 335.957C76.0791 336.466 76.4914 336.878 77 336.878C77.5086 336.878 77.9209 336.466 77.9209 335.957H76.0791ZM77.9209 339.641C77.9209 339.132 77.5086 338.72 77 338.72C76.4914 338.72 76.0791 339.132 76.0791 339.641H77.9209ZM76.0791 343.324C76.0791 343.833 76.4914 344.245 77 344.245C77.5086 344.245 77.9209 343.833 77.9209 343.324H76.0791ZM77.9209 347.008C77.9209 346.499 77.5086 346.087 77 346.087C76.4914 346.087 76.0791 346.499 76.0791 347.008H77.9209ZM76.0791 334.116V335.957H77.9209V334.116H76.0791ZM76.0791 339.641V343.324H77.9209V339.641H76.0791ZM76.0791 347.008V348.85H77.9209V347.008H76.0791Z" fill="#BED73C"/>
<rect y="230.171" width="154" height="39.4269" rx="8" fill="#F3F4F6"/>
<rect y="291.171" width="154" height="39.4269" rx="8" fill="#F3F4F6"/>
<path d="M243.921 212.447C243.921 211.938 243.509 211.526 243 211.526C242.491 211.526 242.079 211.938 242.079 212.447H243.921ZM242.349 227.832C242.708 228.191 243.292 228.191 243.651 227.832L249.511 221.971C249.871 221.612 249.871 221.029 249.511 220.669C249.152 220.309 248.569 220.309 248.209 220.669L243 225.878L237.791 220.669C237.431 220.309 236.848 220.309 236.489 220.669C236.129 221.029 236.129 221.612 236.489 221.971L242.349 227.832ZM242.079 214.289C242.079 214.797 242.491 215.209 243 215.209C243.509 215.209 243.921 214.797 243.921 214.289H242.079ZM243.921 217.972C243.921 217.463 243.509 217.051 243 217.051C242.491 217.051 242.079 217.463 242.079 217.972H243.921ZM242.079 221.655C242.079 222.164 242.491 222.576 243 222.576C243.509 222.576 243.921 222.164 243.921 221.655H242.079ZM243.921 225.339C243.921 224.83 243.509 224.418 243 224.418C242.491 224.418 242.079 224.83 242.079 225.339H243.921ZM242.079 212.447V214.289H243.921V212.447H242.079ZM242.079 217.972V221.655H243.921V217.972H242.079ZM242.079 225.339V227.181H243.921V225.339H242.079Z" fill="#BED73C"/>
<path d="M243.921 273.281C243.921 272.773 243.509 272.36 243 272.36C242.491 272.36 242.079 272.773 242.079 273.281H243.921ZM242.349 288.666C242.708 289.026 243.292 289.026 243.651 288.666L249.511 282.806C249.871 282.446 249.871 281.863 249.511 281.504C249.152 281.144 248.569 281.144 248.209 281.504L243 286.713L237.791 281.504C237.431 281.144 236.848 281.144 236.489 281.504C236.129 281.863 236.129 282.446 236.489 282.806L242.349 288.666ZM242.079 275.123C242.079 275.632 242.491 276.044 243 276.044C243.509 276.044 243.921 275.632 243.921 275.123H242.079ZM243.921 278.806C243.921 278.298 243.509 277.886 243 277.886C242.491 277.886 242.079 278.298 242.079 278.806H243.921ZM242.079 282.49C242.079 282.998 242.491 283.411 243 283.411C243.509 283.411 243.921 282.998 243.921 282.49H242.079ZM243.921 286.173C243.921 285.665 243.509 285.252 243 285.252C242.491 285.252 242.079 285.665 242.079 286.173H243.921ZM242.079 273.281V275.123H243.921V273.281H242.079ZM242.079 278.806V282.49H243.921V278.806H242.079ZM242.079 286.173V288.015H243.921V286.173H242.079Z" fill="#BED73C"/>
<path d="M244.875 334.116C244.875 333.607 244.463 333.195 243.954 333.195C243.446 333.195 243.033 333.607 243.033 334.116H244.875ZM243.303 399.564C243.663 399.923 244.246 399.923 244.605 399.564L250.466 393.703C250.825 393.344 250.825 392.761 250.466 392.401C250.106 392.041 249.523 392.041 249.163 392.401L243.954 397.61L238.745 392.401C238.385 392.041 237.802 392.041 237.443 392.401C237.083 392.761 237.083 393.344 237.443 393.703L243.303 399.564ZM243.033 335.916C243.033 336.424 243.446 336.836 243.954 336.836C244.463 336.836 244.875 336.424 244.875 335.916H243.033ZM244.875 339.515C244.875 339.007 244.463 338.595 243.954 338.595C243.446 338.595 243.033 339.007 243.033 339.515H244.875ZM243.033 343.115C243.033 343.624 243.446 344.036 243.954 344.036C244.463 344.036 244.875 343.624 244.875 343.115H243.033ZM244.875 346.715C244.875 346.207 244.463 345.794 243.954 345.794C243.446 345.794 243.033 346.207 243.033 346.715H244.875ZM243.033 350.315C243.033 350.824 243.446 351.236 243.954 351.236C244.463 351.236 244.875 350.824 244.875 350.315H243.033ZM244.875 353.915C244.875 353.406 244.463 352.994 243.954 352.994C243.446 352.994 243.033 353.406 243.033 353.915H244.875ZM243.033 357.515C243.033 358.023 243.446 358.435 243.954 358.435C244.463 358.435 244.875 358.023 244.875 357.515H243.033ZM244.875 361.114C244.875 360.606 244.463 360.194 243.954 360.194C243.446 360.194 243.033 360.606 243.033 361.114H244.875ZM243.033 364.714C243.033 365.223 243.446 365.635 243.954 365.635C244.463 365.635 244.875 365.223 244.875 364.714H243.033ZM244.875 368.314C244.875 367.805 244.463 367.393 243.954 367.393C243.446 367.393 243.033 367.805 243.033 368.314H244.875ZM243.033 371.914C243.033 372.422 243.446 372.835 243.954 372.835C244.463 372.835 244.875 372.422 244.875 371.914H243.033ZM244.875 375.514C244.875 375.005 244.463 374.593 243.954 374.593C243.446 374.593 243.033 375.005 243.033 375.514H244.875ZM243.033 379.114C243.033 379.622 243.446 380.034 243.954 380.034C244.463 380.034 244.875 379.622 244.875 379.114H243.033ZM244.875 382.713C244.875 382.205 244.463 381.793 243.954 381.793C243.446 381.793 243.033 382.205 243.033 382.713H244.875ZM243.033 386.313C243.033 386.822 243.446 387.234 243.954 387.234C244.463 387.234 244.875 386.822 244.875 386.313H243.033ZM244.875 389.913C244.875 389.404 244.463 388.992 243.954 388.992C243.446 388.992 243.033 389.404 243.033 389.913H244.875ZM243.033 393.513C243.033 394.021 243.446 394.434 243.954 394.434C244.463 394.434 244.875 394.021 244.875 393.513H243.033ZM244.875 397.113C244.875 396.604 244.463 396.192 243.954 396.192C243.446 396.192 243.033 396.604 243.033 397.113H244.875ZM243.033 334.116V335.916H244.875V334.116H243.033ZM243.033 339.515V343.115H244.875V339.515H243.033ZM243.033 346.715V350.315H244.875V346.715H243.033ZM243.033 353.915V357.515H244.875V353.915H243.033ZM243.033 361.114V364.714H244.875V361.114H243.033ZM243.033 368.314V371.914H244.875V368.314H243.033ZM243.033 375.514V379.114H244.875V375.514H243.033ZM243.033 382.713V386.313H244.875V382.713H243.033ZM243.033 389.913V393.513H244.875V389.913H243.033ZM243.033 397.113V398.913H244.875V397.113H243.033Z" fill="#BED73C"/>
<rect x="166" y="230.171" width="154" height="39.4269" rx="8" fill="#F3F4F6"/>
<rect x="166" y="291.171" width="154" height="39.4269" rx="8" fill="#F3F4F6"/>
<rect y="352.171" width="148" height="50.0886" rx="8" fill="#F3F4F6"/>
<path d="M243.316 399.733C243.675 400.092 244.258 400.092 244.618 399.733L250.478 393.872C250.838 393.513 250.838 392.93 250.478 392.57C250.119 392.21 249.536 392.21 249.176 392.57L243.967 397.779L238.758 392.57C238.398 392.21 237.815 392.21 237.455 392.57C237.096 392.93 237.096 393.513 237.455 393.872L243.316 399.733ZM153.818 378.454C154.326 378.454 154.739 378.042 154.739 377.533C154.739 377.024 154.326 376.612 153.818 376.612V378.454ZM157.453 376.612C156.944 376.612 156.532 377.024 156.532 377.533C156.532 378.042 156.944 378.454 157.453 378.454V376.612ZM161.088 378.454C161.596 378.454 162.008 378.042 162.008 377.533C162.008 377.024 161.596 376.612 161.088 376.612V378.454ZM164.722 376.612C164.214 376.612 163.801 377.024 163.801 377.533C163.801 378.042 164.214 378.454 164.722 378.454V376.612ZM168.357 378.454C168.866 378.454 169.278 378.042 169.278 377.533C169.278 377.024 168.866 376.612 168.357 376.612V378.454ZM171.992 376.612C171.483 376.612 171.071 377.024 171.071 377.533C171.071 378.042 171.483 378.454 171.992 378.454V376.612ZM175.627 378.454C176.135 378.454 176.548 378.042 176.548 377.533C176.548 377.024 176.135 376.612 175.627 376.612V378.454ZM179.262 376.612C178.753 376.612 178.341 377.024 178.341 377.533C178.341 378.042 178.753 378.454 179.262 378.454V376.612ZM182.897 378.454C183.405 378.454 183.817 378.042 183.817 377.533C183.817 377.024 183.405 376.612 182.897 376.612V378.454ZM186.531 376.612C186.023 376.612 185.61 377.024 185.61 377.533C185.61 378.042 186.023 378.454 186.531 378.454V376.612ZM190.166 378.454C190.675 378.454 191.087 378.042 191.087 377.533C191.087 377.024 190.675 376.612 190.166 376.612V378.454ZM193.801 376.612C193.292 376.612 192.88 377.024 192.88 377.533C192.88 378.042 193.292 378.454 193.801 378.454V376.612ZM197.436 378.454C197.944 378.454 198.357 378.042 198.357 377.533C198.357 377.024 197.944 376.612 197.436 376.612V378.454ZM201.071 376.612C200.562 376.612 200.15 377.024 200.15 377.533C200.15 378.042 200.562 378.454 201.071 378.454V376.612ZM204.706 378.454C205.214 378.454 205.626 378.042 205.626 377.533C205.626 377.024 205.214 376.612 204.706 376.612V378.454ZM208.34 376.612C207.832 376.612 207.419 377.024 207.419 377.533C207.419 378.042 207.832 378.454 208.34 378.454V376.612ZM211.975 378.454C212.484 378.454 212.896 378.042 212.896 377.533C212.896 377.024 212.484 376.612 211.975 376.612V378.454ZM215.61 376.612C215.101 376.612 214.689 377.024 214.689 377.533C214.689 378.042 215.101 378.454 215.61 378.454V376.612ZM219.245 378.454C219.753 378.454 220.166 378.042 220.166 377.533C220.166 377.024 219.753 376.612 219.245 376.612V378.454ZM222.88 376.612C222.371 376.612 221.959 377.024 221.959 377.533C221.959 378.042 222.371 378.454 222.88 378.454V376.612ZM226.515 378.454C227.023 378.454 227.435 378.042 227.435 377.533C227.435 377.024 227.023 376.612 226.515 376.612V378.454ZM230.149 376.612C229.641 376.612 229.229 377.024 229.229 377.533C229.229 378.042 229.641 378.454 230.149 378.454V376.612ZM233.415 378.548C233.919 378.613 234.381 378.258 234.447 377.753C234.513 377.249 234.158 376.787 233.653 376.721L233.415 378.548ZM236.913 377.593C236.443 377.398 235.904 377.621 235.71 378.091C235.515 378.561 235.738 379.099 236.208 379.294L236.913 377.593ZM238.711 380.742C239.114 381.052 239.692 380.977 240.002 380.573C240.312 380.17 240.237 379.592 239.833 379.282L238.711 380.742ZM242.218 381.666C241.908 381.263 241.33 381.187 240.926 381.497C240.523 381.807 240.448 382.385 240.757 382.789L242.218 381.666ZM242.206 385.292C242.4 385.762 242.939 385.985 243.409 385.79C243.879 385.595 244.102 385.057 243.907 384.587L242.206 385.292ZM244.778 387.847C244.713 387.342 244.251 386.987 243.746 387.053C243.242 387.118 242.886 387.58 242.952 388.085L244.778 387.847ZM243.046 391.92C243.046 392.429 243.458 392.841 243.967 392.841C244.475 392.841 244.888 392.429 244.888 391.92H243.046ZM244.888 396.694C244.888 396.186 244.475 395.773 243.967 395.773C243.458 395.773 243.046 396.186 243.046 396.694H244.888ZM152 378.454H153.818V376.612H152V378.454ZM157.453 378.454H161.088V376.612H157.453V378.454ZM164.722 378.454H168.357V376.612H164.722V378.454ZM171.992 378.454H175.627V376.612H171.992V378.454ZM179.262 378.454H182.897V376.612H179.262V378.454ZM186.531 378.454H190.166V376.612H186.531V378.454ZM193.801 378.454H197.436V376.612H193.801V378.454ZM201.071 378.454H204.706V376.612H201.071V378.454ZM208.34 378.454H211.975V376.612H208.34V378.454ZM215.61 378.454H219.245V376.612H215.61V378.454ZM222.88 378.454H226.515V376.612H222.88V378.454ZM230.149 378.454H231.967V376.612H230.149V378.454ZM231.967 378.454C232.458 378.454 232.941 378.486 233.415 378.548L233.653 376.721C233.101 376.649 232.538 376.612 231.967 376.612V378.454ZM236.208 379.294C237.108 379.667 237.948 380.156 238.711 380.742L239.833 379.282C238.944 378.599 237.964 378.029 236.913 377.593L236.208 379.294ZM240.757 382.789C241.343 383.551 241.832 384.392 242.206 385.292L243.907 384.587C243.471 383.536 242.901 382.555 242.218 381.666L240.757 382.789ZM242.952 388.085C243.014 388.558 243.046 389.042 243.046 389.533H244.888C244.888 388.962 244.851 388.399 244.778 387.847L242.952 388.085ZM243.046 389.533V391.92H244.888V389.533H243.046ZM243.046 396.694V399.081H244.888V396.694H243.046Z" fill="#BED73C"/>
<rect x="160" y="402.171" width="160" height="50.0886" rx="8" fill="#F3F4F6"/>
<path d="M243.709 459.584C243.709 459.075 243.297 458.663 242.788 458.663C242.28 458.663 241.867 459.075 241.867 459.584L243.709 459.584ZM189.976 521.544C189.616 521.903 189.616 522.486 189.976 522.846L195.836 528.706C196.196 529.066 196.779 529.066 197.138 528.706C197.498 528.347 197.498 527.764 197.138 527.404L191.929 522.195L197.138 516.986C197.498 516.626 197.498 516.043 197.138 515.683C196.779 515.324 196.196 515.324 195.836 515.683L189.976 521.544ZM241.867 461.557C241.867 462.065 242.28 462.477 242.788 462.477C243.297 462.477 243.709 462.065 243.709 461.557L241.867 461.557ZM243.709 465.503C243.709 464.994 243.297 464.582 242.788 464.582C242.28 464.582 241.867 464.994 241.867 465.503L243.709 465.503ZM241.867 469.449C241.867 469.957 242.28 470.369 242.788 470.369C243.297 470.369 243.709 469.957 243.709 469.449L241.867 469.449ZM243.709 473.395C243.709 472.886 243.297 472.474 242.788 472.474C242.28 472.474 241.867 472.886 241.867 473.395L243.709 473.395ZM241.867 477.341C241.867 477.849 242.28 478.262 242.788 478.262C243.297 478.262 243.709 477.849 243.709 477.341L241.867 477.341ZM243.709 481.287C243.709 480.778 243.297 480.366 242.788 480.366C242.28 480.366 241.867 480.778 241.867 481.287L243.709 481.287ZM241.867 485.233C241.867 485.741 242.28 486.154 242.788 486.154C243.297 486.154 243.709 485.741 243.709 485.233L241.867 485.233ZM243.709 489.179C243.709 488.67 243.297 488.258 242.788 488.258C242.28 488.258 241.867 488.67 241.867 489.179L243.709 489.179ZM241.867 493.125C241.867 493.633 242.28 494.046 242.788 494.046C243.297 494.046 243.709 493.633 243.709 493.125L241.867 493.125ZM243.709 497.071C243.709 496.562 243.297 496.15 242.788 496.15C242.28 496.15 241.867 496.562 241.867 497.071L243.709 497.071ZM241.867 501.017C241.867 501.525 242.28 501.938 242.788 501.938C243.297 501.938 243.709 501.525 243.709 501.017L241.867 501.017ZM243.709 504.963C243.709 504.454 243.297 504.042 242.788 504.042C242.28 504.042 241.867 504.454 241.867 504.963L243.709 504.963ZM241.867 508.909C241.867 509.418 242.28 509.83 242.788 509.83C243.297 509.83 243.709 509.418 243.709 508.909L241.867 508.909ZM243.709 512.855C243.709 512.346 243.297 511.934 242.788 511.934C242.28 511.934 241.867 512.346 241.867 512.855L243.709 512.855ZM241.745 516.087C241.646 516.586 241.97 517.07 242.469 517.169C242.968 517.268 243.453 516.943 243.551 516.444L241.745 516.087ZM242.312 519.433C242.595 519.011 242.482 518.439 242.06 518.156C241.637 517.873 241.065 517.986 240.782 518.409L242.312 519.433ZM239.002 520.189C238.579 520.472 238.466 521.044 238.749 521.466C239.032 521.889 239.604 522.002 240.027 521.719L239.002 520.189ZM237.038 522.958C237.537 522.859 237.861 522.375 237.762 521.876C237.664 521.377 237.179 521.053 236.68 521.151L237.038 522.958ZM233.555 521.274C233.046 521.274 232.634 521.686 232.634 522.195C232.634 522.703 233.046 523.116 233.555 523.116L233.555 521.274ZM229.822 523.116C230.33 523.116 230.743 522.703 230.743 522.195C230.743 521.686 230.33 521.274 229.822 521.274L229.822 523.116ZM226.089 521.274C225.58 521.274 225.168 521.686 225.168 522.195C225.168 522.703 225.58 523.116 226.089 523.116L226.089 521.274ZM222.356 523.116C222.865 523.116 223.277 522.703 223.277 522.195C223.277 521.686 222.865 521.274 222.356 521.274L222.356 523.116ZM218.623 521.274C218.115 521.274 217.702 521.686 217.702 522.195C217.702 522.703 218.115 523.116 218.623 523.116L218.623 521.274ZM214.89 523.116C215.399 523.116 215.811 522.703 215.811 522.195C215.811 521.686 215.399 521.274 214.89 521.274L214.89 523.116ZM211.158 521.274C210.649 521.274 210.237 521.686 210.237 522.195C210.237 522.703 210.649 523.116 211.158 523.116L211.158 521.274ZM207.425 523.116C207.933 523.116 208.345 522.703 208.345 522.195C208.345 521.686 207.933 521.274 207.425 521.274L207.425 523.116ZM203.692 521.274C203.183 521.274 202.771 521.686 202.771 522.195C202.771 522.703 203.183 523.116 203.692 523.116L203.692 521.274ZM199.959 523.116C200.467 523.116 200.88 522.703 200.88 522.195C200.88 521.686 200.467 521.274 199.959 521.274L199.959 523.116ZM196.226 521.274C195.717 521.274 195.305 521.686 195.305 522.195C195.305 522.703 195.717 523.116 196.226 523.116L196.226 521.274ZM192.493 523.116C193.002 523.116 193.414 522.703 193.414 522.195C193.414 521.686 193.002 521.274 192.493 521.274L192.493 523.116ZM241.867 459.584L241.867 461.557L243.709 461.557L243.709 459.584L241.867 459.584ZM241.867 465.503L241.867 469.449L243.709 469.449L243.709 465.503L241.867 465.503ZM241.867 473.395L241.867 477.341L243.709 477.341L243.709 473.395L241.867 473.395ZM241.867 481.287L241.867 485.233L243.709 485.233L243.709 481.287L241.867 481.287ZM241.867 489.179L241.867 493.125L243.709 493.125L243.709 489.179L241.867 489.179ZM241.867 497.071L241.867 501.017L243.709 501.017L243.709 497.071L241.867 497.071ZM241.867 504.963L241.867 508.909L243.709 508.909L243.709 504.963L241.867 504.963ZM241.867 512.855L241.867 514.828L243.709 514.828L243.709 512.855L241.867 512.855ZM241.867 514.828C241.867 515.26 241.825 515.681 241.745 516.087L243.551 516.444C243.655 515.921 243.709 515.38 243.709 514.828L241.867 514.828ZM240.782 518.409C240.311 519.112 239.705 519.718 239.002 520.189L240.027 521.719C240.93 521.114 241.708 520.337 242.312 519.433L240.782 518.409ZM236.68 521.151C236.274 521.232 235.853 521.274 235.421 521.274L235.421 523.116C235.974 523.116 236.514 523.062 237.038 522.958L236.68 521.151ZM235.421 521.274L233.555 521.274L233.555 523.116L235.421 523.116L235.421 521.274ZM229.822 521.274L226.089 521.274L226.089 523.116L229.822 523.116L229.822 521.274ZM222.356 521.274L218.623 521.274L218.623 523.116L222.356 523.116L222.356 521.274ZM214.89 521.274L211.158 521.274L211.158 523.116L214.89 523.116L214.89 521.274ZM207.425 521.274L203.692 521.274L203.692 523.116L207.425 523.116L207.425 521.274ZM199.959 521.274L196.226 521.274L196.226 523.116L199.959 523.116L199.959 521.274ZM192.493 521.274L190.627 521.274L190.627 523.116L192.493 523.116L192.493 521.274Z" fill="#BED73C"/>
<rect x="60" y="454.139" width="121" height="121" rx="60.5" fill="#F3F4F6"/>
<g clip-path="url(#clip1_6289_198777)">
<path d="M130.057 480.222L122.244 472.41C122.107 472.273 121.922 472.195 121.727 472.195H96.3359C95.9355 472.195 95.6035 472.527 95.6035 472.927V521.462C95.6035 521.863 95.9355 522.195 96.3359 522.195H129.539C129.939 522.195 130.271 521.863 130.271 521.462V480.74C130.271 480.544 130.193 480.359 130.057 480.222ZM122.459 474.695L127.771 480.007H122.459V474.695ZM97.0684 520.73V473.66H120.994V480.74C120.994 481.14 121.326 481.472 121.727 481.472H128.807V520.73H97.0684Z" fill="#004357"/>
<path d="M125.633 483.914H100.242C99.8418 483.914 99.5098 484.246 99.5098 484.646V488.552C99.5098 488.953 99.8418 489.285 100.242 489.285H125.633C126.033 489.285 126.365 488.953 126.365 488.552V484.646C126.365 484.246 126.033 483.914 125.633 483.914ZM124.9 487.82H100.975V485.379H124.9V487.82Z" fill="#004357"/>
<path d="M100.242 501.004H108.055C108.455 501.004 108.787 500.672 108.787 500.271V492.459C108.787 492.058 108.455 491.726 108.055 491.726H100.242C99.8418 491.726 99.5098 492.058 99.5098 492.459V500.271C99.5098 500.672 99.8418 501.004 100.242 501.004ZM100.975 493.191H107.322V499.539H100.975V493.191Z" fill="#004357"/>
<path d="M125.633 491.726H114.891C114.49 491.726 114.158 492.058 114.158 492.459C114.158 492.859 114.49 493.191 114.891 493.191H125.633C126.033 493.191 126.365 492.859 126.365 492.459C126.365 492.058 126.033 491.726 125.633 491.726Z" fill="#004357"/>
<path d="M111.961 493.191H112.449C112.85 493.191 113.182 492.859 113.182 492.459C113.182 492.058 112.85 491.726 112.449 491.726H111.961C111.561 491.726 111.229 492.058 111.229 492.459C111.229 492.859 111.561 493.191 111.961 493.191Z" fill="#004357"/>
<path d="M125.633 495.633H111.961C111.561 495.633 111.229 495.965 111.229 496.365C111.229 496.765 111.561 497.097 111.961 497.097H125.633C126.033 497.097 126.365 496.765 126.365 496.365C126.365 495.965 126.033 495.633 125.633 495.633Z" fill="#004357"/>
<path d="M125.633 499.539H111.961C111.561 499.539 111.229 499.871 111.229 500.271C111.229 500.672 111.561 501.004 111.961 501.004H125.633C126.033 501.004 126.365 500.672 126.365 500.271C126.365 499.871 126.033 499.539 125.633 499.539Z" fill="#004357"/>
<path d="M125.633 503.445H106.102C105.701 503.445 105.369 503.777 105.369 504.177C105.369 504.578 105.701 504.91 106.102 504.91H125.633C126.033 504.91 126.365 504.578 126.365 504.177C126.365 503.777 126.033 503.445 125.633 503.445Z" fill="#004357"/>
<path d="M100.242 504.91H103.66C104.061 504.91 104.393 504.578 104.393 504.177C104.393 503.777 104.061 503.445 103.66 503.445H100.242C99.8418 503.445 99.5098 503.777 99.5098 504.177C99.5098 504.578 99.8418 504.91 100.242 504.91Z" fill="#004357"/>
<path d="M125.633 507.351H100.242C99.8418 507.351 99.5098 507.683 99.5098 508.084C99.5098 508.484 99.8418 508.816 100.242 508.816H125.633C126.033 508.816 126.365 508.484 126.365 508.084C126.365 507.683 126.033 507.351 125.633 507.351Z" fill="#004357"/>
<path d="M125.633 510.965H117.82C117.42 510.965 117.088 511.297 117.088 511.697V517.556C117.088 517.957 117.42 518.289 117.82 518.289H125.633C126.033 518.289 126.365 517.957 126.365 517.556V511.697C126.365 511.297 126.033 510.965 125.633 510.965ZM124.9 516.824H118.553V512.429H124.9V516.824Z" fill="#004357"/>
<path d="M111.961 510.965H100.242C99.8418 510.965 99.5098 511.297 99.5098 511.697V517.556C99.5098 517.957 99.8418 518.289 100.242 518.289H111.961C112.361 518.289 112.693 517.957 112.693 517.556V511.697C112.693 511.297 112.361 510.965 111.961 510.965ZM111.229 516.824H100.975V512.429H111.229V516.824Z" fill="#004357"/>
<path d="M142.918 480.721H141.697V479.227H135.838V501.199H141.697V482.185H142.918C143.592 482.185 144.139 482.732 144.139 483.406V493.172C144.139 493.572 144.471 493.904 144.871 493.904C145.271 493.904 145.604 493.572 145.604 493.172V483.406C145.604 481.932 144.402 480.721 142.918 480.721Z" fill="#087084"/>
<path d="M140.965 474.393C140.965 473.182 139.979 472.195 138.768 472.195C137.557 472.195 136.57 473.182 136.57 474.393V477.762H140.965V474.393Z" fill="#087084"/>
<path d="M136.57 517.068C136.57 518.797 137.146 520.516 138.182 521.902C138.318 522.088 138.533 522.195 138.768 522.195C139.002 522.195 139.217 522.088 139.354 521.902C140.389 520.516 140.965 518.797 140.965 517.068V502.664H136.57V517.068Z" fill="#087084"/>
<path d="M132.368 500.144C127.255 500.144 123.088 504.311 123.088 509.424C123.088 514.538 127.255 518.705 132.368 518.705C137.481 518.705 141.648 514.538 141.648 509.424C141.648 504.311 137.481 500.144 132.368 500.144Z" fill="#087084" stroke="#F3F4F6" stroke-width="1.47059"/>
</g>
<defs>
<clipPath id="clip0_6289_198777">
<rect width="50" height="50" fill="white" transform="translate(135 18.9863)"/>
</clipPath>
<clipPath id="clip1_6289_198777">
<rect width="50" height="50" fill="white" transform="translate(95.6035 472.195)"/>
</clipPath>
</defs>
</svg>
