<svg width="420" height="770" viewBox="0 0 420 770" fill="none" xmlns="http://www.w3.org/2000/svg">
<path d="M208.791 164.059C208.791 163.391 209.332 162.85 210 162.85C210.668 162.85 211.209 163.391 211.209 164.059H208.791ZM90.5265 203.59C90.0545 204.062 89.2892 204.062 88.8172 203.59L81.1256 195.898C80.6536 195.426 80.6536 194.661 81.1256 194.189C81.5976 193.717 82.3628 193.717 82.8348 194.189L89.6719 201.026L96.5089 194.189C96.9809 193.717 97.7462 193.717 98.2182 194.189C98.6902 194.661 98.6902 195.426 98.2182 195.898L90.5265 203.59ZM211.209 166.571C211.209 167.238 210.668 167.78 210 167.78C209.332 167.78 208.791 167.238 208.791 166.571H211.209ZM208.791 171.595C208.791 170.928 209.332 170.387 210 170.387C210.668 170.387 211.209 170.928 211.209 171.595H208.791ZM211.002 176.229C210.872 176.884 210.236 177.31 209.581 177.18C208.927 177.051 208.501 176.415 208.63 175.76L211.002 176.229ZM207.367 178.807C207.738 178.253 208.489 178.104 209.044 178.475C209.598 178.847 209.747 179.597 209.376 180.152L207.367 178.807ZM206.376 183.152C205.821 183.524 205.07 183.375 204.699 182.82C204.328 182.266 204.476 181.515 205.031 181.144L206.376 183.152ZM201.983 182.407C202.638 182.277 203.274 182.703 203.404 183.358C203.533 184.013 203.107 184.649 202.453 184.778L201.983 182.407ZM197.806 184.985C197.139 184.985 196.598 184.444 196.598 183.776C196.598 183.109 197.139 182.568 197.806 182.568V184.985ZM192.757 182.568C193.424 182.568 193.965 183.109 193.965 183.776C193.965 184.444 193.424 184.985 192.757 184.985V182.568ZM187.707 184.985C187.04 184.985 186.499 184.444 186.499 183.776C186.499 183.109 187.04 182.568 187.707 182.568V184.985ZM182.658 182.568C183.325 182.568 183.866 183.109 183.866 183.776C183.866 184.444 183.325 184.985 182.658 184.985V182.568ZM177.608 184.985C176.941 184.985 176.4 184.444 176.4 183.776C176.4 183.109 176.941 182.568 177.608 182.568V184.985ZM172.559 182.568C173.226 182.568 173.767 183.109 173.767 183.776C173.767 184.444 173.226 184.985 172.559 184.985V182.568ZM167.509 184.985C166.842 184.985 166.301 184.444 166.301 183.776C166.301 183.109 166.842 182.568 167.509 182.568V184.985ZM162.46 182.568C163.127 182.568 163.668 183.109 163.668 183.776C163.668 184.444 163.127 184.985 162.46 184.985V182.568ZM157.41 184.985C156.743 184.985 156.202 184.444 156.202 183.776C156.202 183.109 156.743 182.568 157.41 182.568V184.985ZM152.361 182.568C153.028 182.568 153.569 183.109 153.569 183.776C153.569 184.444 153.028 184.985 152.361 184.985V182.568ZM147.311 184.985C146.644 184.985 146.103 184.444 146.103 183.776C146.103 183.109 146.644 182.568 147.311 182.568V184.985ZM142.262 182.568C142.929 182.568 143.47 183.109 143.47 183.776C143.47 184.444 142.929 184.985 142.262 184.985V182.568ZM137.212 184.985C136.545 184.985 136.004 184.444 136.004 183.776C136.004 183.109 136.545 182.568 137.212 182.568V184.985ZM132.163 182.568C132.83 182.568 133.371 183.109 133.371 183.776C133.371 184.444 132.83 184.985 132.163 184.985V182.568ZM127.113 184.985C126.446 184.985 125.905 184.444 125.905 183.776C125.905 183.109 126.446 182.568 127.113 182.568V184.985ZM122.064 182.568C122.731 182.568 123.272 183.109 123.272 183.776C123.272 184.444 122.731 184.985 122.064 184.985V182.568ZM117.014 184.985C116.347 184.985 115.806 184.444 115.806 183.776C115.806 183.109 116.347 182.568 117.014 182.568V184.985ZM111.965 182.568C112.632 182.568 113.173 183.109 113.173 183.776C113.173 184.444 112.632 184.985 111.965 184.985V182.568ZM106.915 184.985C106.248 184.985 105.707 184.444 105.707 183.776C105.707 183.109 106.248 182.568 106.915 182.568V184.985ZM101.866 182.568C102.533 182.568 103.074 183.109 103.074 183.776C103.074 184.444 102.533 184.985 101.866 184.985V182.568ZM97.6885 185.146C97.0336 185.276 96.3978 184.85 96.2682 184.195C96.1387 183.54 96.5645 182.904 97.2193 182.775L97.6885 185.146ZM93.2963 184.401C93.8509 184.029 94.6016 184.178 94.973 184.733C95.3443 185.287 95.1957 186.038 94.641 186.409L93.2963 184.401ZM92.3048 188.746C91.9335 189.3 91.1828 189.449 90.6281 189.078C90.0734 188.706 89.9248 187.956 90.2961 187.401L92.3048 188.746ZM88.6703 191.324C88.7998 190.669 89.4357 190.243 90.0905 190.373C90.7453 190.502 91.1711 191.138 91.0416 191.793L88.6703 191.324ZM90.8805 195.768C90.8805 196.435 90.3394 196.977 89.6719 196.977C89.0044 196.977 88.4632 196.435 88.4632 195.768H90.8805ZM88.4632 200.413C88.4632 199.745 89.0044 199.204 89.6719 199.204C90.3394 199.204 90.8805 199.745 90.8805 200.413H88.4632ZM211.209 164.059V166.571H208.791V164.059H211.209ZM211.209 171.595V174.107H208.791V171.595H211.209ZM211.209 174.107C211.209 174.832 211.138 175.542 211.002 176.229L208.63 175.76C208.736 175.226 208.791 174.674 208.791 174.107H211.209ZM209.376 180.152C208.582 181.338 207.561 182.358 206.376 183.152L205.031 181.144C205.954 180.525 206.749 179.73 207.367 178.807L209.376 180.152ZM202.453 184.778C201.765 184.914 201.056 184.985 200.331 184.985V182.568C200.898 182.568 201.45 182.512 201.983 182.407L202.453 184.778ZM200.331 184.985H197.806V182.568H200.331V184.985ZM192.757 184.985H187.707V182.568H192.757V184.985ZM182.658 184.985H177.608V182.568H182.658V184.985ZM172.559 184.985H167.509V182.568H172.559V184.985ZM162.46 184.985H157.41V182.568H162.46V184.985ZM152.361 184.985H147.311V182.568H152.361V184.985ZM142.262 184.985H137.212V182.568H142.262V184.985ZM132.163 184.985H127.113V182.568H132.163V184.985ZM122.064 184.985H117.014V182.568H122.064V184.985ZM111.965 184.985H106.915V182.568H111.965V184.985ZM101.866 184.985H99.3409V182.568H101.866V184.985ZM99.3409 184.985C98.7743 184.985 98.2219 185.041 97.6885 185.146L97.2193 182.775C97.9065 182.639 98.616 182.568 99.3409 182.568V184.985ZM94.641 186.409C93.7179 187.027 92.9228 187.822 92.3048 188.746L90.2961 187.401C91.09 186.215 92.1106 185.195 93.2963 184.401L94.641 186.409ZM91.0416 191.793C90.936 192.327 90.8805 192.879 90.8805 193.446H88.4632C88.4632 192.721 88.5343 192.011 88.6703 191.324L91.0416 191.793ZM90.8805 193.446V195.768H88.4632V193.446H90.8805ZM90.8805 200.413V202.735H88.4632V200.413H90.8805Z" fill="#BED73C"/>
<path d="M211.209 164.059C211.209 163.391 210.668 162.85 210 162.85C209.332 162.85 208.791 163.391 208.791 164.059H211.209ZM329.473 203.59C329.945 204.062 330.711 204.062 331.183 203.59L338.874 195.898C339.346 195.426 339.346 194.661 338.874 194.189C338.402 193.717 337.637 193.717 337.165 194.189L330.328 201.026L323.491 194.189C323.019 193.717 322.254 193.717 321.782 194.189C321.31 194.661 321.31 195.426 321.782 195.898L329.473 203.59ZM208.791 166.571C208.791 167.238 209.332 167.78 210 167.78C210.668 167.78 211.209 167.238 211.209 166.571H208.791ZM211.209 171.595C211.209 170.928 210.668 170.387 210 170.387C209.332 170.387 208.791 170.928 208.791 171.595H211.209ZM208.998 176.229C209.128 176.884 209.764 177.31 210.419 177.18C211.073 177.051 211.499 176.415 211.37 175.76L208.998 176.229ZM212.633 178.807C212.262 178.253 211.511 178.104 210.956 178.475C210.402 178.847 210.253 179.597 210.624 180.152L212.633 178.807ZM213.624 183.152C214.179 183.524 214.93 183.375 215.301 182.82C215.672 182.266 215.524 181.515 214.969 181.144L213.624 183.152ZM218.017 182.407C217.362 182.277 216.726 182.703 216.596 183.358C216.467 184.013 216.893 184.649 217.547 184.778L218.017 182.407ZM222.194 184.985C222.861 184.985 223.402 184.444 223.402 183.776C223.402 183.109 222.861 182.568 222.194 182.568V184.985ZM227.243 182.568C226.576 182.568 226.035 183.109 226.035 183.776C226.035 184.444 226.576 184.985 227.243 184.985V182.568ZM232.293 184.985C232.96 184.985 233.501 184.444 233.501 183.776C233.501 183.109 232.96 182.568 232.293 182.568V184.985ZM237.342 182.568C236.675 182.568 236.134 183.109 236.134 183.776C236.134 184.444 236.675 184.985 237.342 184.985V182.568ZM242.392 184.985C243.059 184.985 243.6 184.444 243.6 183.776C243.6 183.109 243.059 182.568 242.392 182.568V184.985ZM247.441 182.568C246.774 182.568 246.233 183.109 246.233 183.776C246.233 184.444 246.774 184.985 247.441 184.985V182.568ZM252.491 184.985C253.158 184.985 253.699 184.444 253.699 183.776C253.699 183.109 253.158 182.568 252.491 182.568V184.985ZM257.54 182.568C256.873 182.568 256.332 183.109 256.332 183.776C256.332 184.444 256.873 184.985 257.54 184.985V182.568ZM262.59 184.985C263.257 184.985 263.798 184.444 263.798 183.776C263.798 183.109 263.257 182.568 262.59 182.568V184.985ZM267.639 182.568C266.972 182.568 266.431 183.109 266.431 183.776C266.431 184.444 266.972 184.985 267.639 184.985V182.568ZM272.689 184.985C273.356 184.985 273.897 184.444 273.897 183.776C273.897 183.109 273.356 182.568 272.689 182.568V184.985ZM277.738 182.568C277.071 182.568 276.53 183.109 276.53 183.776C276.53 184.444 277.071 184.985 277.738 184.985V182.568ZM282.788 184.985C283.455 184.985 283.996 184.444 283.996 183.776C283.996 183.109 283.455 182.568 282.788 182.568V184.985ZM287.837 182.568C287.17 182.568 286.629 183.109 286.629 183.776C286.629 184.444 287.17 184.985 287.837 184.985V182.568ZM292.887 184.985C293.554 184.985 294.095 184.444 294.095 183.776C294.095 183.109 293.554 182.568 292.887 182.568V184.985ZM297.936 182.568C297.269 182.568 296.728 183.109 296.728 183.776C296.728 184.444 297.269 184.985 297.936 184.985V182.568ZM302.986 184.985C303.653 184.985 304.194 184.444 304.194 183.776C304.194 183.109 303.653 182.568 302.986 182.568V184.985ZM308.035 182.568C307.368 182.568 306.827 183.109 306.827 183.776C306.827 184.444 307.368 184.985 308.035 184.985V182.568ZM313.085 184.985C313.752 184.985 314.293 184.444 314.293 183.776C314.293 183.109 313.752 182.568 313.085 182.568V184.985ZM318.134 182.568C317.467 182.568 316.926 183.109 316.926 183.776C316.926 184.444 317.467 184.985 318.134 184.985V182.568ZM322.312 185.146C322.966 185.276 323.602 184.85 323.732 184.195C323.861 183.54 323.435 182.904 322.781 182.775L322.312 185.146ZM326.704 184.401C326.149 184.029 325.398 184.178 325.027 184.733C324.656 185.287 324.804 186.038 325.359 186.409L326.704 184.401ZM327.695 188.746C328.067 189.3 328.817 189.449 329.372 189.078C329.927 188.706 330.075 187.956 329.704 187.401L327.695 188.746ZM331.33 191.324C331.2 190.669 330.564 190.243 329.91 190.373C329.255 190.502 328.829 191.138 328.958 191.793L331.33 191.324ZM329.119 195.768C329.119 196.435 329.661 196.977 330.328 196.977C330.996 196.977 331.537 196.435 331.537 195.768H329.119ZM331.537 200.413C331.537 199.745 330.996 199.204 330.328 199.204C329.661 199.204 329.119 199.745 329.119 200.413H331.537ZM208.791 164.059V166.571H211.209V164.059H208.791ZM208.791 171.595V174.107H211.209V171.595H208.791ZM208.791 174.107C208.791 174.832 208.862 175.542 208.998 176.229L211.37 175.76C211.264 175.226 211.209 174.674 211.209 174.107H208.791ZM210.624 180.152C211.418 181.338 212.439 182.358 213.624 183.152L214.969 181.144C214.046 180.525 213.251 179.73 212.633 178.807L210.624 180.152ZM217.547 184.778C218.235 184.914 218.944 184.985 219.669 184.985V182.568C219.102 182.568 218.55 182.512 218.017 182.407L217.547 184.778ZM219.669 184.985H222.194V182.568H219.669V184.985ZM227.243 184.985H232.293V182.568H227.243V184.985ZM237.342 184.985H242.392V182.568H237.342V184.985ZM247.441 184.985H252.491V182.568H247.441V184.985ZM257.54 184.985H262.59V182.568H257.54V184.985ZM267.639 184.985H272.689V182.568H267.639V184.985ZM277.738 184.985H282.788V182.568H277.738V184.985ZM287.837 184.985H292.887V182.568H287.837V184.985ZM297.936 184.985H302.986V182.568H297.936V184.985ZM308.035 184.985H313.085V182.568H308.035V184.985ZM318.134 184.985H320.659V182.568H318.134V184.985ZM320.659 184.985C321.226 184.985 321.778 185.041 322.312 185.146L322.781 182.775C322.094 182.639 321.384 182.568 320.659 182.568V184.985ZM325.359 186.409C326.282 187.027 327.077 187.822 327.695 188.746L329.704 187.401C328.91 186.215 327.889 185.195 326.704 184.401L325.359 186.409ZM328.958 191.793C329.064 192.327 329.119 192.879 329.119 193.446H331.537C331.537 192.721 331.466 192.011 331.33 191.324L328.958 191.793ZM329.119 193.446V195.768H331.537V193.446H329.119ZM329.119 200.413V202.735H331.537V200.413H329.119Z" fill="#BED73C"/>
<g clip-path="url(#clip0_6279_121033)">
<path d="M215.332 38.0583H230.316C230.841 38.0583 231.277 37.6226 231.277 37.097C231.277 36.5715 230.841 36.1357 230.316 36.1357H215.332C214.807 36.1357 214.371 36.5715 214.371 37.097C214.371 37.6226 214.807 38.0583 215.332 38.0583Z" fill="#004357"/>
<path d="M215.332 43.6211H230.316C230.841 43.6211 231.277 43.1853 231.277 42.6598C231.277 42.1343 230.841 41.6985 230.316 41.6985H215.332C214.807 41.6985 214.371 42.1343 214.371 42.6598C214.371 43.1853 214.807 43.6211 215.332 43.6211Z" fill="#004357"/>
<path d="M230.315 47.2483H219.177C218.652 47.2483 218.216 47.6841 218.216 48.2096C218.216 48.7351 218.652 49.1709 219.177 49.1709H230.315C230.841 49.1709 231.277 48.7351 231.277 48.2096C231.277 47.6841 230.854 47.2483 230.315 47.2483Z" fill="#004357"/>
<path d="M215.332 32.5083H225.189C225.714 32.5083 226.15 32.0725 226.15 31.547C226.15 31.0215 225.714 30.5857 225.189 30.5857H215.332C214.807 30.5857 214.371 31.0215 214.371 31.547C214.371 32.0725 214.807 32.5083 215.332 32.5083Z" fill="#004357"/>
<path d="M229.674 32.5083H230.315C230.841 32.5083 231.276 32.0725 231.276 31.547C231.276 31.0215 230.841 30.5857 230.315 30.5857H229.674C229.149 30.5857 228.713 31.0215 228.713 31.547C228.713 32.0725 229.149 32.5083 229.674 32.5083Z" fill="#004357"/>
<path d="M189.684 38.0583H204.667C205.193 38.0583 205.629 37.6226 205.629 37.097C205.629 36.5715 205.193 36.1357 204.667 36.1357H189.684C189.158 36.1357 188.723 36.5715 188.723 37.097C188.723 37.6226 189.146 38.0583 189.684 38.0583Z" fill="#004357"/>
<path d="M189.684 43.6211H204.667C205.193 43.6211 205.629 43.1853 205.629 42.6598C205.629 42.1343 205.193 41.6985 204.667 41.6985H189.684C189.158 41.6985 188.723 42.1343 188.723 42.6598C188.723 43.1853 189.146 43.6211 189.684 43.6211Z" fill="#004357"/>
<path d="M189.684 49.1709H200.822C201.348 49.1709 201.784 48.7351 201.784 48.2096C201.784 47.6841 201.348 47.2483 200.822 47.2483H189.684C189.158 47.2483 188.723 47.6841 188.723 48.2096C188.723 48.7351 189.146 49.1709 189.684 49.1709Z" fill="#004357"/>
<path d="M194.811 32.5083H204.667C205.193 32.5083 205.629 32.0725 205.629 31.547C205.629 31.0215 205.193 30.5857 204.667 30.5857H194.811C194.285 30.5857 193.85 31.0215 193.85 31.547C193.85 32.0725 194.273 32.5083 194.811 32.5083Z" fill="#004357"/>
<path d="M189.684 32.5083H190.325C190.85 32.5083 191.286 32.0725 191.286 31.547C191.286 31.0215 190.85 30.5857 190.325 30.5857H189.684C189.158 30.5857 188.723 31.0215 188.723 31.547C188.723 32.0725 189.146 32.5083 189.684 32.5083Z" fill="#004357"/>
<path d="M241.851 29.3551H236.622V24.9972C236.622 24.4717 236.186 24.0359 235.66 24.0359H217.69C214.345 24.0359 211.436 25.9457 210 28.7271C208.564 25.9457 205.655 24.0359 202.31 24.0359H184.34C183.814 24.0359 183.378 24.4717 183.378 24.9972V29.3551H178.149C177.623 29.3551 177.188 29.7909 177.188 30.3164V58.3224C177.188 60.9756 179.341 63.1289 181.994 63.1289H195.081C194.991 63.7954 194.94 64.4875 194.94 65.1797C194.94 73.4854 201.694 80.2401 210 80.2401C212.948 80.2401 215.704 79.3942 218.024 77.9202L228.739 88.6355C229.431 89.3276 230.328 89.6609 231.226 89.6609C232.123 89.6609 233.033 89.3148 233.712 88.6355C235.084 87.264 235.084 85.021 233.712 83.6495L222.946 72.8701C224.291 70.6143 225.06 67.9867 225.06 65.1797C225.06 64.4875 225.009 63.7954 224.919 63.1289H238.006C240.659 63.1289 242.812 60.9756 242.812 58.3224V30.3164C242.812 29.7909 242.377 29.3551 241.851 29.3551ZM217.69 25.9585H234.699V50.9139C234.699 52.5033 233.405 53.7979 231.815 53.7979H221.215C220.779 53.7979 220.344 53.8107 219.908 53.8491C217.485 51.7214 214.371 50.3628 210.961 50.1449V32.6876C210.961 28.9834 213.986 25.9585 217.69 25.9585ZM185.301 25.9585H202.31C206.014 25.9585 209.039 28.9834 209.039 32.6876V50.1449C205.629 50.3628 202.515 51.7214 200.092 53.8491C199.656 53.8107 199.221 53.7979 198.785 53.7979H188.185C186.595 53.7979 185.301 52.5033 185.301 50.9139V25.9585ZM181.994 61.2063C180.405 61.2063 179.11 59.9117 179.11 58.3224V31.2777H183.378V50.9139C183.378 53.5671 185.532 55.7205 188.185 55.7205H198.285C196.99 57.3098 196.029 59.1812 195.465 61.2063H181.994ZM232.366 85.0082C232.994 85.6362 232.994 86.6488 232.366 87.2769C231.738 87.9049 230.726 87.9049 230.098 87.2769L219.6 76.7794C220.421 76.1001 221.177 75.3311 221.843 74.4851L232.366 85.0082ZM210 78.3175C202.758 78.3175 196.862 72.4215 196.862 65.1797C196.862 57.9379 202.758 52.0419 210 52.0419C217.242 52.0419 223.138 57.9379 223.138 65.1797C223.138 72.4215 217.242 78.3175 210 78.3175ZM240.89 58.3224C240.89 59.9117 239.595 61.2063 238.006 61.2063H224.522C223.971 59.1683 222.997 57.3098 221.702 55.7205H231.802C234.456 55.7205 236.609 53.5671 236.609 50.9139V31.2777H240.89V58.3224Z" fill="#004357"/>
<path d="M210 53.9646C203.822 53.9646 198.785 59.0018 198.785 65.1798C198.785 71.3578 203.822 76.395 210 76.395C216.178 76.395 221.216 71.3578 221.216 65.1798C221.216 59.0018 216.178 53.9646 210 53.9646ZM214.551 63.1418L209.513 68.5251C209.334 68.7174 209.078 68.8328 208.808 68.8328C208.539 68.8328 208.283 68.7174 208.103 68.5251L205.45 65.6925C205.091 65.308 205.104 64.6927 205.501 64.3339C205.886 63.975 206.501 63.9878 206.86 64.3851L208.808 66.4744L213.141 61.8473C213.5 61.4628 214.115 61.4371 214.499 61.796C214.884 62.1549 214.909 62.7573 214.551 63.1418Z" fill="#087084"/>
</g>
<path d="M102.271 278.265C102.271 277.598 101.73 277.057 101.062 277.057C100.395 277.057 99.8539 277.598 99.8539 278.265H102.271ZM100.208 298.458C100.68 298.93 101.445 298.93 101.917 298.458L109.609 290.766C110.081 290.294 110.081 289.529 109.609 289.057C109.137 288.585 108.372 288.585 107.9 289.057L101.062 295.894L94.2254 289.057C93.7534 288.585 92.9882 288.585 92.5162 289.057C92.0442 289.529 92.0442 290.294 92.5162 290.766L100.208 298.458ZM99.8539 280.682C99.8539 281.35 100.395 281.891 101.062 281.891C101.73 281.891 102.271 281.35 102.271 280.682H99.8539ZM102.271 285.517C102.271 284.849 101.73 284.308 101.062 284.308C100.395 284.308 99.8539 284.849 99.8539 285.517H102.271ZM99.8539 290.351C99.8539 291.019 100.395 291.56 101.062 291.56C101.73 291.56 102.271 291.019 102.271 290.351H99.8539ZM102.271 295.186C102.271 294.518 101.73 293.977 101.062 293.977C100.395 293.977 99.8539 294.518 99.8539 295.186H102.271ZM99.8539 278.265V280.682H102.271V278.265H99.8539ZM99.8539 285.517V290.351H102.271V285.517H99.8539ZM99.8539 295.186V297.603H102.271V295.186H99.8539Z" fill="#BED73C"/>
<path d="M102.271 358.61C102.271 357.943 101.73 357.402 101.062 357.402C100.395 357.402 99.8539 357.943 99.8539 358.61H102.271ZM100.208 378.803C100.68 379.275 101.445 379.275 101.917 378.803L109.609 371.111C110.081 370.639 110.081 369.874 109.609 369.402C109.137 368.93 108.372 368.93 107.9 369.402L101.062 376.239L94.2254 369.402C93.7534 368.93 92.9882 368.93 92.5162 369.402C92.0442 369.874 92.0442 370.639 92.5162 371.111L100.208 378.803ZM99.8539 361.028C99.8539 361.695 100.395 362.236 101.062 362.236C101.73 362.236 102.271 361.695 102.271 361.028H99.8539ZM102.271 365.862C102.271 365.195 101.73 364.654 101.062 364.654C100.395 364.654 99.8539 365.195 99.8539 365.862H102.271ZM99.8539 370.697C99.8539 371.364 100.395 371.905 101.062 371.905C101.73 371.905 102.271 371.364 102.271 370.697H99.8539ZM102.271 375.531C102.271 374.864 101.73 374.323 101.062 374.323C100.395 374.323 99.8539 374.864 99.8539 375.531H102.271ZM99.8539 358.61V361.028H102.271V358.61H99.8539ZM99.8539 365.862V370.697H102.271V365.862H99.8539ZM99.8539 375.531V377.948H102.271V375.531H99.8539Z" fill="#BED73C"/>
<path d="M102.271 438.956C102.271 438.288 101.73 437.747 101.062 437.747C100.395 437.747 99.8539 438.288 99.8539 438.956H102.271ZM100.208 459.148C100.68 459.62 101.445 459.62 101.917 459.148L109.609 451.457C110.081 450.985 110.081 450.219 109.609 449.747C109.137 449.275 108.372 449.275 107.9 449.747L101.062 456.585L94.2254 449.747C93.7534 449.275 92.9882 449.275 92.5162 449.747C92.0442 450.219 92.0442 450.985 92.5162 451.457L100.208 459.148ZM99.8539 441.373C99.8539 442.04 100.395 442.582 101.062 442.582C101.73 442.582 102.271 442.04 102.271 441.373H99.8539ZM102.271 446.207C102.271 445.54 101.73 444.999 101.062 444.999C100.395 444.999 99.8539 445.54 99.8539 446.207H102.271ZM99.8539 451.042C99.8539 451.71 100.395 452.251 101.062 452.251C101.73 452.251 102.271 451.71 102.271 451.042H99.8539ZM102.271 455.877C102.271 455.209 101.73 454.668 101.062 454.668C100.395 454.668 99.8539 455.209 99.8539 455.877H102.271ZM99.8539 438.956V441.373H102.271V438.956H99.8539ZM99.8539 446.207V451.042H102.271V446.207H99.8539ZM99.8539 455.877V458.294H102.271V455.877H99.8539Z" fill="#BED73C"/>
<path d="M320.146 278.265C320.146 277.598 319.605 277.057 318.938 277.057C318.27 277.057 317.729 277.598 317.729 278.265H320.146ZM318.083 298.458C318.555 298.93 319.32 298.93 319.792 298.458L327.484 290.766C327.956 290.294 327.956 289.529 327.484 289.057C327.012 288.585 326.247 288.585 325.775 289.057L318.938 295.894L312.1 289.057C311.628 288.585 310.863 288.585 310.391 289.057C309.919 289.529 309.919 290.294 310.391 290.766L318.083 298.458ZM317.729 280.682C317.729 281.35 318.27 281.891 318.938 281.891C319.605 281.891 320.146 281.35 320.146 280.682H317.729ZM320.146 285.517C320.146 284.849 319.605 284.308 318.938 284.308C318.27 284.308 317.729 284.849 317.729 285.517H320.146ZM317.729 290.351C317.729 291.019 318.27 291.56 318.938 291.56C319.605 291.56 320.146 291.019 320.146 290.351H317.729ZM320.146 295.186C320.146 294.518 319.605 293.977 318.938 293.977C318.27 293.977 317.729 294.518 317.729 295.186H320.146ZM317.729 278.265V280.682H320.146V278.265H317.729ZM317.729 285.517V290.351H320.146V285.517H317.729ZM317.729 295.186V297.603H320.146V295.186H317.729Z" fill="#BED73C"/>
<path d="M320.146 358.61C320.146 357.943 319.605 357.402 318.938 357.402C318.27 357.402 317.729 357.943 317.729 358.61H320.146ZM318.083 378.803C318.555 379.275 319.32 379.275 319.792 378.803L327.484 371.111C327.956 370.639 327.956 369.874 327.484 369.402C327.012 368.93 326.247 368.93 325.775 369.402L318.938 376.239L312.1 369.402C311.628 368.93 310.863 368.93 310.391 369.402C309.919 369.874 309.919 370.639 310.391 371.111L318.083 378.803ZM317.729 361.028C317.729 361.695 318.27 362.236 318.938 362.236C319.605 362.236 320.146 361.695 320.146 361.028H317.729ZM320.146 365.862C320.146 365.195 319.605 364.654 318.938 364.654C318.27 364.654 317.729 365.195 317.729 365.862H320.146ZM317.729 370.697C317.729 371.364 318.27 371.905 318.938 371.905C319.605 371.905 320.146 371.364 320.146 370.697H317.729ZM320.146 375.531C320.146 374.864 319.605 374.323 318.938 374.323C318.27 374.323 317.729 374.864 317.729 375.531H320.146ZM317.729 358.61V361.028H320.146V358.61H317.729ZM317.729 365.862V370.697H320.146V365.862H317.729ZM317.729 375.531V377.948H320.146V375.531H317.729Z" fill="#BED73C"/>
<path d="M321.398 438.955C321.398 438.288 320.857 437.747 320.189 437.747C319.522 437.747 318.981 438.288 318.981 438.955H321.398ZM319.335 524.856C319.807 525.328 320.572 525.328 321.044 524.856L328.736 517.164C329.208 516.692 329.208 515.927 328.736 515.455C328.264 514.983 327.499 514.983 327.027 515.455L320.189 522.292L313.352 515.455C312.88 514.983 312.115 514.983 311.643 515.455C311.171 515.927 311.171 516.692 311.643 517.164L319.335 524.856ZM318.981 441.318C318.981 441.985 319.522 442.526 320.189 442.526C320.857 442.526 321.398 441.985 321.398 441.318H318.981ZM321.398 446.042C321.398 445.375 320.857 444.834 320.189 444.834C319.522 444.834 318.981 445.375 318.981 446.042H321.398ZM318.981 450.767C318.981 451.435 319.522 451.976 320.189 451.976C320.857 451.976 321.398 451.435 321.398 450.767H318.981ZM321.398 455.492C321.398 454.825 320.857 454.283 320.189 454.283C319.522 454.283 318.981 454.825 318.981 455.492H321.398ZM318.981 460.217C318.981 460.884 319.522 461.425 320.189 461.425C320.857 461.425 321.398 460.884 321.398 460.217H318.981ZM321.398 464.942C321.398 464.274 320.857 463.733 320.189 463.733C319.522 463.733 318.981 464.274 318.981 464.942H321.398ZM318.981 469.666C318.981 470.334 319.522 470.875 320.189 470.875C320.857 470.875 321.398 470.334 321.398 469.666H318.981ZM321.398 474.391C321.398 473.724 320.857 473.182 320.189 473.182C319.522 473.182 318.981 473.724 318.981 474.391H321.398ZM318.981 479.116C318.981 479.783 319.522 480.325 320.189 480.325C320.857 480.325 321.398 479.783 321.398 479.116H318.981ZM321.398 483.841C321.398 483.173 320.857 482.632 320.189 482.632C319.522 482.632 318.981 483.173 318.981 483.841H321.398ZM318.981 488.565C318.981 489.233 319.522 489.774 320.189 489.774C320.857 489.774 321.398 489.233 321.398 488.565H318.981ZM321.398 493.29C321.398 492.623 320.857 492.082 320.189 492.082C319.522 492.082 318.981 492.623 318.981 493.29H321.398ZM318.981 498.015C318.981 498.682 319.522 499.224 320.189 499.224C320.857 499.224 321.398 498.682 321.398 498.015H318.981ZM321.398 502.74C321.398 502.072 320.857 501.531 320.189 501.531C319.522 501.531 318.981 502.072 318.981 502.74H321.398ZM318.981 507.465C318.981 508.132 319.522 508.673 320.189 508.673C320.857 508.673 321.398 508.132 321.398 507.465H318.981ZM321.398 512.189C321.398 511.522 320.857 510.981 320.189 510.981C319.522 510.981 318.981 511.522 318.981 512.189H321.398ZM318.981 516.914C318.981 517.582 319.522 518.123 320.189 518.123C320.857 518.123 321.398 517.582 321.398 516.914H318.981ZM321.398 521.639C321.398 520.971 320.857 520.43 320.189 520.43C319.522 520.43 318.981 520.971 318.981 521.639H321.398ZM318.981 438.955V441.318H321.398V438.955H318.981ZM318.981 446.042V450.767H321.398V446.042H318.981ZM318.981 455.492V460.217H321.398V455.492H318.981ZM318.981 464.942V469.666H321.398V464.942H318.981ZM318.981 474.391V479.116H321.398V474.391H318.981ZM318.981 483.841V488.565H321.398V483.841H318.981ZM318.981 493.29V498.015H321.398V493.29H318.981ZM318.981 502.74V507.465H321.398V502.74H318.981ZM318.981 512.189V516.914H321.398V512.189H318.981ZM318.981 521.639V524.001H321.398V521.639H318.981Z" fill="#BED73C"/>
<path d="M319.351 525.078C319.823 525.55 320.589 525.55 321.061 525.078L328.752 517.386C329.224 516.914 329.224 516.149 328.752 515.677C328.28 515.205 327.515 515.205 327.043 515.677L320.206 522.514L313.369 515.677C312.897 515.205 312.132 515.205 311.66 515.677C311.188 516.149 311.188 516.914 311.66 517.386L319.351 525.078ZM201.886 497.149C202.553 497.149 203.094 496.608 203.094 495.941C203.094 495.273 202.553 494.732 201.886 494.732V497.149ZM206.656 494.732C205.989 494.732 205.448 495.273 205.448 495.941C205.448 496.608 205.989 497.149 206.656 497.149V494.732ZM211.427 497.149C212.094 497.149 212.636 496.608 212.636 495.941C212.636 495.273 212.094 494.732 211.427 494.732V497.149ZM216.198 494.732C215.53 494.732 214.989 495.273 214.989 495.941C214.989 496.608 215.53 497.149 216.198 497.149V494.732ZM220.968 497.149C221.636 497.149 222.177 496.608 222.177 495.941C222.177 495.273 221.636 494.732 220.968 494.732V497.149ZM225.739 494.732C225.072 494.732 224.531 495.273 224.531 495.941C224.531 496.608 225.072 497.149 225.739 497.149V494.732ZM230.51 497.149C231.177 497.149 231.719 496.608 231.719 495.941C231.719 495.273 231.177 494.732 230.51 494.732V497.149ZM235.281 494.732C234.613 494.732 234.072 495.273 234.072 495.941C234.072 496.608 234.613 497.149 235.281 497.149V494.732ZM240.051 497.149C240.719 497.149 241.26 496.608 241.26 495.941C241.26 495.273 240.719 494.732 240.051 494.732V497.149ZM244.822 494.732C244.155 494.732 243.613 495.273 243.613 495.941C243.613 496.608 244.155 497.149 244.822 497.149V494.732ZM249.593 497.149C250.26 497.149 250.801 496.608 250.801 495.941C250.801 495.273 250.26 494.732 249.593 494.732V497.149ZM254.363 494.732C253.696 494.732 253.155 495.273 253.155 495.941C253.155 496.608 253.696 497.149 254.363 497.149V494.732ZM259.134 497.149C259.802 497.149 260.343 496.608 260.343 495.941C260.343 495.273 259.802 494.732 259.134 494.732V497.149ZM263.905 494.732C263.237 494.732 262.696 495.273 262.696 495.941C262.696 496.608 263.237 497.149 263.905 497.149V494.732ZM268.676 497.149C269.343 497.149 269.884 496.608 269.884 495.941C269.884 495.273 269.343 494.732 268.676 494.732V497.149ZM273.446 494.732C272.779 494.732 272.238 495.273 272.238 495.941C272.238 496.608 272.779 497.149 273.446 497.149V494.732ZM278.217 497.149C278.885 497.149 279.426 496.608 279.426 495.941C279.426 495.273 278.885 494.732 278.217 494.732V497.149ZM282.988 494.732C282.32 494.732 281.779 495.273 281.779 495.941C281.779 496.608 282.32 497.149 282.988 497.149V494.732ZM287.759 497.149C288.426 497.149 288.967 496.608 288.967 495.941C288.967 495.273 288.426 494.732 287.759 494.732V497.149ZM292.529 494.732C291.862 494.732 291.321 495.273 291.321 495.941C291.321 496.608 291.862 497.149 292.529 497.149V494.732ZM297.3 497.149C297.967 497.149 298.509 496.608 298.509 495.941C298.509 495.273 297.967 494.732 297.3 494.732V497.149ZM302.071 494.732C301.403 494.732 300.862 495.273 300.862 495.941C300.862 496.608 301.403 497.149 302.071 497.149V494.732ZM306.357 497.272C307.019 497.358 307.625 496.892 307.712 496.23C307.798 495.568 307.331 494.962 306.669 494.875L306.357 497.272ZM310.948 496.019C310.331 495.764 309.624 496.056 309.369 496.673C309.113 497.289 309.405 497.996 310.022 498.252L310.948 496.019ZM313.308 500.153C313.837 500.56 314.596 500.46 315.003 499.931C315.409 499.402 315.31 498.643 314.781 498.236L313.308 500.153ZM317.91 501.366C317.504 500.836 316.745 500.737 316.216 501.144C315.686 501.551 315.587 502.309 315.994 502.839L317.91 501.366ZM317.894 506.125C318.15 506.741 318.857 507.034 319.474 506.778C320.091 506.522 320.383 505.815 320.127 505.199L317.894 506.125ZM321.271 509.477C321.185 508.815 320.579 508.349 319.917 508.435C319.255 508.521 318.788 509.128 318.874 509.79L321.271 509.477ZM318.997 514.824C318.997 515.491 319.539 516.032 320.206 516.032C320.874 516.032 321.415 515.491 321.415 514.824H318.997ZM321.415 521.09C321.415 520.422 320.874 519.881 320.206 519.881C319.539 519.881 318.997 520.422 318.997 521.09H321.415ZM199.5 497.149H201.886V494.732H199.5V497.149ZM206.656 497.149H211.427V494.732H206.656V497.149ZM216.198 497.149H220.968V494.732H216.198V497.149ZM225.739 497.149H230.51V494.732H225.739V497.149ZM235.281 497.149H240.051V494.732H235.281V497.149ZM244.822 497.149H249.593V494.732H244.822V497.149ZM254.363 497.149H259.134V494.732H254.363V497.149ZM263.905 497.149H268.676V494.732H263.905V497.149ZM273.446 497.149H278.217V494.732H273.446V497.149ZM282.988 497.149H287.759V494.732H282.988V497.149ZM292.529 497.149H297.3V494.732H292.529V497.149ZM302.071 497.149H304.456V494.732H302.071V497.149ZM304.456 497.149C305.101 497.149 305.735 497.191 306.357 497.272L306.669 494.875C305.945 494.781 305.206 494.732 304.456 494.732V497.149ZM310.022 498.252C311.204 498.742 312.307 499.384 313.308 500.153L314.781 498.236C313.614 497.34 312.327 496.591 310.948 496.019L310.022 498.252ZM315.994 502.839C316.763 503.84 317.405 504.943 317.894 506.125L320.127 505.199C319.555 503.819 318.807 502.532 317.91 501.366L315.994 502.839ZM318.874 509.79C318.956 510.411 318.997 511.046 318.997 511.691L321.415 511.691C321.415 510.941 321.366 510.202 321.271 509.477L318.874 509.79ZM318.997 511.691V514.824H321.415V511.691L318.997 511.691ZM318.997 521.09V524.223H321.415V521.09H318.997Z" fill="#BED73C"/>
<path d="M319.869 603.632C319.869 602.965 319.328 602.424 318.66 602.424C317.993 602.424 317.452 602.965 317.452 603.632L319.869 603.632ZM249.344 684.955C248.872 685.427 248.872 686.192 249.344 686.664L257.035 694.356C257.507 694.828 258.273 694.828 258.745 694.356C259.217 693.884 259.217 693.119 258.745 692.647L251.908 685.81L258.745 678.973C259.217 678.501 259.217 677.735 258.745 677.263C258.273 676.791 257.507 676.791 257.035 677.263L249.344 684.955ZM317.452 606.222C317.452 606.889 317.993 607.43 318.66 607.43C319.328 607.43 319.869 606.889 319.869 606.222L317.452 606.222ZM319.869 611.401C319.869 610.733 319.328 610.192 318.66 610.192C317.993 610.192 317.452 610.733 317.452 611.401L319.869 611.401ZM317.452 616.58C317.452 617.248 317.993 617.789 318.66 617.789C319.328 617.789 319.869 617.248 319.869 616.58L317.452 616.58ZM319.869 621.759C319.869 621.092 319.328 620.551 318.66 620.551C317.993 620.551 317.452 621.092 317.452 621.759L319.869 621.759ZM317.452 626.938C317.452 627.606 317.993 628.147 318.66 628.147C319.328 628.147 319.869 627.606 319.869 626.938L317.452 626.938ZM319.869 632.118C319.869 631.45 319.328 630.909 318.66 630.909C317.993 630.909 317.452 631.45 317.452 632.118L319.869 632.118ZM317.452 637.297C317.452 637.964 317.993 638.505 318.66 638.505C319.328 638.505 319.869 637.964 319.869 637.297L317.452 637.297ZM319.869 642.476C319.869 641.808 319.328 641.267 318.66 641.267C317.993 641.267 317.452 641.808 317.452 642.476L319.869 642.476ZM317.452 647.655C317.452 648.323 317.993 648.864 318.66 648.864C319.328 648.864 319.869 648.323 319.869 647.655L317.452 647.655ZM319.869 652.834C319.869 652.167 319.328 651.626 318.66 651.626C317.993 651.626 317.452 652.167 317.452 652.834L319.869 652.834ZM317.452 658.013C317.452 658.681 317.993 659.222 318.66 659.222C319.328 659.222 319.869 658.681 319.869 658.013L317.452 658.013ZM319.869 663.193C319.869 662.525 319.328 661.984 318.66 661.984C317.993 661.984 317.452 662.525 317.452 663.193L319.869 663.193ZM317.452 668.372C317.452 669.039 317.993 669.58 318.66 669.58C319.328 669.58 319.869 669.039 319.869 668.372L317.452 668.372ZM319.869 673.551C319.869 672.883 319.328 672.342 318.66 672.342C317.993 672.342 317.452 672.883 317.452 673.551L319.869 673.551ZM317.29 677.793C317.161 678.448 317.587 679.084 318.242 679.213C318.896 679.343 319.532 678.917 319.662 678.262L317.29 677.793ZM318.036 682.185C318.407 681.631 318.259 680.88 317.704 680.508C317.149 680.137 316.399 680.286 316.027 680.84L318.036 682.185ZM313.691 683.177C313.136 683.548 312.988 684.299 313.359 684.853C313.73 685.408 314.481 685.557 315.036 685.185L313.691 683.177ZM311.113 686.811C311.768 686.682 312.193 686.046 312.064 685.391C311.934 684.736 311.298 684.31 310.644 684.44L311.113 686.811ZM306.541 684.601C305.874 684.601 305.333 685.142 305.333 685.81C305.333 686.477 305.874 687.018 306.541 687.018L306.541 684.601ZM301.642 687.018C302.31 687.018 302.851 686.477 302.851 685.81C302.851 685.142 302.31 684.601 301.642 684.601L301.642 687.018ZM296.743 684.601C296.075 684.601 295.534 685.142 295.534 685.81C295.534 686.477 296.075 687.018 296.743 687.018L296.743 684.601ZM291.843 687.018C292.511 687.018 293.052 686.477 293.052 685.81C293.052 685.142 292.511 684.601 291.843 684.601L291.843 687.018ZM286.944 684.601C286.276 684.601 285.735 685.142 285.735 685.81C285.735 686.477 286.276 687.018 286.944 687.018L286.944 684.601ZM282.044 687.018C282.712 687.018 283.253 686.477 283.253 685.81C283.253 685.142 282.712 684.601 282.044 684.601L282.044 687.018ZM277.145 684.601C276.478 684.601 275.936 685.142 275.936 685.81C275.936 686.477 276.478 687.018 277.145 687.018L277.145 684.601ZM272.246 687.018C272.913 687.018 273.454 686.477 273.454 685.81C273.454 685.142 272.913 684.601 272.246 684.601L272.246 687.018ZM267.346 684.601C266.679 684.601 266.138 685.142 266.138 685.81C266.138 686.477 266.679 687.018 267.346 687.018L267.346 684.601ZM262.447 687.018C263.114 687.018 263.655 686.477 263.655 685.81C263.655 685.142 263.114 684.601 262.447 684.601L262.447 687.018ZM257.547 684.601C256.88 684.601 256.339 685.142 256.339 685.81C256.339 686.477 256.88 687.018 257.547 687.018L257.547 684.601ZM252.648 687.018C253.316 687.018 253.857 686.477 253.857 685.81C253.857 685.142 253.316 684.601 252.648 684.601L252.648 687.018ZM317.452 603.632L317.452 606.222L319.869 606.222L319.869 603.632L317.452 603.632ZM317.452 611.401L317.452 616.58L319.869 616.58L319.869 611.401L317.452 611.401ZM317.452 621.759L317.452 626.938L319.869 626.938L319.869 621.759L317.452 621.759ZM317.452 632.118L317.452 637.297L319.869 637.297L319.869 632.118L317.452 632.118ZM317.452 642.476L317.452 647.655L319.869 647.655L319.869 642.476L317.452 642.476ZM317.452 652.834L317.452 658.013L319.869 658.013L319.869 652.834L317.452 652.834ZM317.452 663.193L317.452 668.372L319.869 668.372L319.869 663.193L317.452 663.193ZM317.452 673.551L317.452 676.141L319.869 676.141L319.869 673.551L317.452 673.551ZM317.452 676.141C317.452 676.707 317.396 677.26 317.29 677.793L319.662 678.262C319.798 677.575 319.869 676.865 319.869 676.141L317.452 676.141ZM316.027 680.84C315.409 681.764 314.614 682.559 313.691 683.177L315.036 685.185C316.221 684.392 317.242 683.371 318.036 682.185L316.027 680.84ZM310.644 684.44C310.11 684.545 309.558 684.601 308.991 684.601L308.991 687.018C309.716 687.018 310.426 686.947 311.113 686.811L310.644 684.44ZM308.991 684.601L306.541 684.601L306.541 687.018L308.991 687.018L308.991 684.601ZM301.642 684.601L296.743 684.601L296.743 687.018L301.642 687.018L301.642 684.601ZM291.843 684.601L286.944 684.601L286.944 687.018L291.843 687.018L291.843 684.601ZM282.044 684.601L277.145 684.601L277.145 687.018L282.044 687.018L282.044 684.601ZM272.246 684.601L267.346 684.601L267.346 687.018L272.246 687.018L272.246 684.601ZM262.447 684.601L257.547 684.601L257.547 687.018L262.447 687.018L262.447 684.601ZM252.648 684.601L250.198 684.601L250.198 687.018L252.648 687.018L252.648 684.601Z" fill="#BED73C"/>
<g clip-path="url(#clip1_6279_121033)">
<path d="M170.7 630.408L160.446 620.154C160.267 619.975 160.023 619.872 159.767 619.872H126.442C125.916 619.872 125.48 620.308 125.48 620.833V684.536C125.48 685.061 125.916 685.497 126.442 685.497H170.021C170.546 685.497 170.982 685.061 170.982 684.536V631.087C170.982 630.831 170.88 630.588 170.7 630.408ZM160.728 623.153L167.701 630.126H160.728V623.153ZM127.403 683.575V621.795H158.806V631.087C158.806 631.613 159.241 632.049 159.767 632.049H169.06V683.575H127.403Z" fill="#004357"/>
<path d="M164.894 635.253H131.569C131.043 635.253 130.607 635.689 130.607 636.215V641.342C130.607 641.867 131.043 642.303 131.569 642.303H164.894C165.419 642.303 165.855 641.867 165.855 641.342V636.215C165.855 635.689 165.419 635.253 164.894 635.253ZM163.933 640.38H132.53V637.176H163.933V640.38Z" fill="#004357"/>
<path d="M131.569 657.684H141.823C142.348 657.684 142.784 657.248 142.784 656.722V646.469C142.784 645.943 142.348 645.507 141.823 645.507H131.569C131.043 645.507 130.607 645.943 130.607 646.469V656.722C130.607 657.248 131.043 657.684 131.569 657.684ZM132.53 647.43H140.861V655.761H132.53V647.43Z" fill="#004357"/>
<path d="M164.894 645.507H150.795C150.27 645.507 149.834 645.943 149.834 646.469C149.834 646.994 150.27 647.43 150.795 647.43H164.894C165.42 647.43 165.856 646.994 165.856 646.469C165.856 645.943 165.42 645.507 164.894 645.507Z" fill="#004357"/>
<path d="M146.95 647.43H147.59C148.116 647.43 148.552 646.994 148.552 646.469C148.552 645.943 148.116 645.507 147.59 645.507H146.95C146.424 645.507 145.988 645.943 145.988 646.469C145.988 646.994 146.424 647.43 146.95 647.43Z" fill="#004357"/>
<path d="M164.894 650.634H146.95C146.424 650.634 145.988 651.07 145.988 651.595C145.988 652.121 146.424 652.557 146.95 652.557H164.894C165.419 652.557 165.855 652.121 165.855 651.595C165.855 651.07 165.419 650.634 164.894 650.634Z" fill="#004357"/>
<path d="M164.894 655.761H146.95C146.424 655.761 145.988 656.197 145.988 656.722C145.988 657.248 146.424 657.684 146.95 657.684H164.894C165.419 657.684 165.855 657.248 165.855 656.722C165.855 656.197 165.419 655.761 164.894 655.761Z" fill="#004357"/>
<path d="M164.894 660.888H139.259C138.734 660.888 138.298 661.324 138.298 661.849C138.298 662.375 138.734 662.811 139.259 662.811H164.894C165.419 662.811 165.855 662.375 165.855 661.849C165.855 661.324 165.419 660.888 164.894 660.888Z" fill="#004357"/>
<path d="M131.569 662.811H136.055C136.58 662.811 137.016 662.375 137.016 661.849C137.016 661.324 136.58 660.888 136.055 660.888H131.569C131.043 660.888 130.607 661.324 130.607 661.849C130.607 662.375 131.043 662.811 131.569 662.811Z" fill="#004357"/>
<path d="M164.894 666.015H131.569C131.043 666.015 130.607 666.451 130.607 666.976C130.607 667.502 131.043 667.938 131.569 667.938H164.894C165.419 667.938 165.855 667.502 165.855 666.976C165.855 666.451 165.419 666.015 164.894 666.015Z" fill="#004357"/>
<path d="M164.894 670.757H154.64C154.115 670.757 153.679 671.193 153.679 671.719V679.409C153.679 679.935 154.115 680.37 154.64 680.37H164.894C165.419 680.37 165.855 679.935 165.855 679.409V671.719C165.855 671.193 165.419 670.757 164.894 670.757ZM163.933 678.448H155.601V672.68H163.933V678.448Z" fill="#004357"/>
<path d="M146.95 670.757H131.569C131.043 670.757 130.607 671.193 130.607 671.719V679.409C130.607 679.935 131.043 680.37 131.569 680.37H146.95C147.475 680.37 147.911 679.935 147.911 679.409V671.719C147.911 671.193 147.475 670.757 146.95 670.757ZM145.988 678.448H132.53V672.68H145.988V678.448Z" fill="#004357"/>
<path d="M187.581 631.062H185.979V629.101H178.288V657.94H185.979V632.985H187.581C188.465 632.985 189.183 633.703 189.183 634.587V647.404C189.183 647.93 189.619 648.366 190.144 648.366C190.67 648.366 191.105 647.93 191.105 647.404V634.587C191.105 632.651 189.529 631.062 187.581 631.062Z" fill="#087084"/>
<path d="M185.017 622.756C185.017 621.167 183.722 619.873 182.133 619.873C180.544 619.873 179.249 621.167 179.249 622.756V627.178H185.017V622.756Z" fill="#087084"/>
<path d="M179.249 678.768C179.249 681.037 180.005 683.293 181.364 685.113C181.543 685.357 181.825 685.498 182.133 685.498C182.441 685.498 182.723 685.357 182.902 685.113C184.261 683.293 185.017 681.037 185.017 678.768V659.863H179.249V678.768Z" fill="#087084"/>
<path d="M173.734 656.556C167.023 656.556 161.553 662.025 161.553 668.736C161.553 675.447 167.023 680.916 173.734 680.916C180.445 680.916 185.914 675.447 185.914 668.736C185.914 662.025 180.445 656.556 173.734 656.556Z" fill="#087084" stroke="#F3F4F6" stroke-width="1.93015"/>
</g>
<defs>
<clipPath id="clip0_6279_121033">
<rect width="65.625" height="65.625" fill="white" transform="translate(177.188 24.0359)"/>
</clipPath>
<clipPath id="clip1_6279_121033">
<rect width="65.625" height="65.625" fill="white" transform="translate(125.479 619.872)"/>
</clipPath>
</defs>
</svg>
