<svg width="640" height="1172" viewBox="0 0 640 1172" fill="none" xmlns="http://www.w3.org/2000/svg">
<path d="M318.158 249.962C318.158 248.945 318.983 248.121 320 248.121C321.017 248.121 321.841 248.945 321.841 249.962H318.158ZM137.945 310.2C137.226 310.919 136.06 310.919 135.34 310.2L123.62 298.479C122.9 297.76 122.9 296.594 123.62 295.875C124.339 295.155 125.505 295.155 126.224 295.875L136.643 306.293L147.061 295.875C147.78 295.155 148.946 295.155 149.666 295.875C150.385 296.594 150.385 297.76 149.666 298.479L137.945 310.2ZM321.841 253.79C321.841 254.808 321.017 255.632 320 255.632C318.983 255.632 318.158 254.808 318.158 253.79H321.841ZM318.158 261.446C318.158 260.429 318.983 259.605 320 259.605C321.017 259.605 321.841 260.429 321.841 261.446H318.158ZM321.526 268.507C321.329 269.505 320.36 270.154 319.362 269.957C318.364 269.759 317.715 268.79 317.913 267.793L321.526 268.507ZM315.988 272.436C316.553 271.591 317.697 271.365 318.543 271.93C319.388 272.496 319.614 273.64 319.048 274.485L315.988 272.436ZM314.477 279.057C313.632 279.623 312.488 279.396 311.922 278.551C311.356 277.706 311.582 276.562 312.428 275.996L314.477 279.057ZM307.784 277.921C308.782 277.724 309.751 278.373 309.948 279.37C310.146 280.368 309.497 281.337 308.499 281.535L307.784 277.921ZM301.419 281.85C300.402 281.85 299.577 281.025 299.577 280.008C299.577 278.991 300.402 278.167 301.419 278.167V281.85ZM293.724 278.167C294.741 278.167 295.566 278.991 295.566 280.008C295.566 281.025 294.741 281.85 293.724 281.85V278.167ZM286.03 281.85C285.013 281.85 284.188 281.025 284.188 280.008C284.188 278.991 285.013 278.167 286.03 278.167V281.85ZM278.335 278.167C279.352 278.167 280.177 278.991 280.177 280.008C280.177 281.025 279.352 281.85 278.335 281.85V278.167ZM270.641 281.85C269.624 281.85 268.799 281.025 268.799 280.008C268.799 278.991 269.624 278.167 270.641 278.167V281.85ZM262.946 278.167C263.963 278.167 264.788 278.991 264.788 280.008C264.788 281.025 263.963 281.85 262.946 281.85V278.167ZM255.252 281.85C254.235 281.85 253.41 281.025 253.41 280.008C253.41 278.991 254.235 278.167 255.252 278.167V281.85ZM247.557 278.167C248.575 278.167 249.399 278.991 249.399 280.008C249.399 281.025 248.575 281.85 247.557 281.85V278.167ZM239.863 281.85C238.846 281.85 238.021 281.025 238.021 280.008C238.021 278.991 238.846 278.167 239.863 278.167V281.85ZM232.168 278.167C233.186 278.167 234.01 278.991 234.01 280.008C234.01 281.025 233.186 281.85 232.168 281.85V278.167ZM224.474 281.85C223.457 281.85 222.632 281.025 222.632 280.008C222.632 278.991 223.457 278.167 224.474 278.167V281.85ZM216.779 278.167C217.797 278.167 218.621 278.991 218.621 280.008C218.621 281.025 217.797 281.85 216.779 281.85V278.167ZM209.085 281.85C208.068 281.85 207.243 281.025 207.243 280.008C207.243 278.991 208.068 278.167 209.085 278.167V281.85ZM201.391 278.167C202.408 278.167 203.232 278.991 203.232 280.008C203.232 281.025 202.408 281.85 201.391 281.85V278.167ZM193.696 281.85C192.679 281.85 191.854 281.025 191.854 280.008C191.854 278.991 192.679 278.167 193.696 278.167V281.85ZM186.002 278.167C187.019 278.167 187.843 278.991 187.843 280.008C187.843 281.025 187.019 281.85 186.002 281.85V278.167ZM178.307 281.85C177.29 281.85 176.465 281.025 176.465 280.008C176.465 278.991 177.29 278.167 178.307 278.167V281.85ZM170.613 278.167C171.63 278.167 172.454 278.991 172.454 280.008C172.454 281.025 171.63 281.85 170.613 281.85V278.167ZM162.918 281.85C161.901 281.85 161.076 281.025 161.076 280.008C161.076 278.991 161.901 278.167 162.918 278.167V281.85ZM155.224 278.167C156.241 278.167 157.065 278.991 157.065 280.008C157.065 281.025 156.241 281.85 155.224 281.85V278.167ZM148.858 282.095C147.861 282.293 146.892 281.644 146.694 280.646C146.497 279.648 147.146 278.679 148.143 278.482L148.858 282.095ZM142.165 280.96C143.011 280.394 144.155 280.62 144.72 281.465C145.286 282.311 145.06 283.455 144.215 284.02L142.165 280.96ZM140.655 287.58C140.089 288.426 138.945 288.652 138.1 288.086C137.254 287.52 137.028 286.376 137.594 285.531L140.655 287.58ZM135.116 291.509C135.314 290.511 136.283 289.862 137.28 290.06C138.278 290.257 138.927 291.226 138.73 292.224L135.116 291.509ZM138.484 298.281C138.484 299.298 137.66 300.123 136.643 300.123C135.625 300.123 134.801 299.298 134.801 298.281H138.484ZM134.801 305.359C134.801 304.342 135.625 303.517 136.643 303.517C137.66 303.517 138.484 304.342 138.484 305.359H134.801ZM321.841 249.962V253.79H318.158V249.962H321.841ZM321.841 261.446V265.274H318.158V261.446H321.841ZM321.841 265.274C321.841 266.379 321.733 267.46 321.526 268.507L317.913 267.793C318.073 266.98 318.158 266.138 318.158 265.274H321.841ZM319.048 274.485C317.839 276.292 316.284 277.847 314.477 279.057L312.428 275.996C313.834 275.054 315.046 273.843 315.988 272.436L319.048 274.485ZM308.499 281.535C307.452 281.742 306.371 281.85 305.266 281.85V278.167C306.129 278.167 306.971 278.082 307.784 277.921L308.499 281.535ZM305.266 281.85H301.419V278.167H305.266V281.85ZM293.724 281.85H286.03V278.167H293.724V281.85ZM278.335 281.85H270.641V278.167H278.335V281.85ZM262.946 281.85H255.252V278.167H262.946V281.85ZM247.557 281.85H239.863V278.167H247.557V281.85ZM232.168 281.85H224.474V278.167H232.168V281.85ZM216.779 281.85H209.085V278.167H216.779V281.85ZM201.391 281.85H193.696V278.167H201.391V281.85ZM186.002 281.85H178.307V278.167H186.002V281.85ZM170.613 281.85H162.918V278.167H170.613V281.85ZM155.224 281.85H151.376V278.167H155.224V281.85ZM151.376 281.85C150.513 281.85 149.671 281.935 148.858 282.095L148.143 278.482C149.191 278.275 150.272 278.167 151.376 278.167V281.85ZM144.215 284.02C142.808 284.962 141.596 286.174 140.655 287.58L137.594 285.531C138.803 283.724 140.359 282.169 142.165 280.96L144.215 284.02ZM138.73 292.224C138.569 293.037 138.484 293.879 138.484 294.742H134.801C134.801 293.637 134.909 292.556 135.116 291.509L138.73 292.224ZM138.484 294.742V298.281H134.801V294.742H138.484ZM138.484 305.359V308.898H134.801V305.359H138.484Z" fill="#BED73C"/>
<path d="M321.841 249.962C321.841 248.945 321.016 248.121 319.999 248.121C318.982 248.121 318.158 248.945 318.158 249.962H321.841ZM502.054 310.2C502.773 310.919 503.94 310.919 504.659 310.2L516.379 298.479C517.099 297.76 517.099 296.594 516.379 295.875C515.66 295.155 514.494 295.155 513.775 295.875L503.356 306.293L492.938 295.875C492.219 295.155 491.053 295.155 490.333 295.875C489.614 296.594 489.614 297.76 490.333 298.479L502.054 310.2ZM318.158 253.79C318.158 254.808 318.982 255.632 319.999 255.632C321.016 255.632 321.841 254.808 321.841 253.79H318.158ZM321.841 261.446C321.841 260.429 321.016 259.605 319.999 259.605C318.982 259.605 318.158 260.429 318.158 261.446H321.841ZM318.473 268.507C318.67 269.505 319.639 270.154 320.637 269.957C321.635 269.759 322.284 268.79 322.086 267.793L318.473 268.507ZM324.011 272.436C323.446 271.591 322.302 271.365 321.456 271.93C320.611 272.496 320.385 273.64 320.951 274.485L324.011 272.436ZM325.522 279.057C326.367 279.623 327.511 279.396 328.077 278.551C328.643 277.706 328.417 276.562 327.571 275.996L325.522 279.057ZM332.215 277.921C331.217 277.724 330.248 278.373 330.051 279.37C329.854 280.368 330.502 281.337 331.5 281.535L332.215 277.921ZM338.58 281.85C339.597 281.85 340.422 281.025 340.422 280.008C340.422 278.991 339.597 278.167 338.58 278.167V281.85ZM346.275 278.167C345.258 278.167 344.433 278.991 344.433 280.008C344.433 281.025 345.258 281.85 346.275 281.85V278.167ZM353.969 281.85C354.986 281.85 355.811 281.025 355.811 280.008C355.811 278.991 354.986 278.167 353.969 278.167V281.85ZM361.664 278.167C360.647 278.167 359.822 278.991 359.822 280.008C359.822 281.025 360.647 281.85 361.664 281.85V278.167ZM369.358 281.85C370.375 281.85 371.2 281.025 371.2 280.008C371.2 278.991 370.375 278.167 369.358 278.167V281.85ZM377.053 278.167C376.036 278.167 375.211 278.991 375.211 280.008C375.211 281.025 376.036 281.85 377.053 281.85V278.167ZM384.747 281.85C385.764 281.85 386.589 281.025 386.589 280.008C386.589 278.991 385.764 278.167 384.747 278.167V281.85ZM392.442 278.167C391.425 278.167 390.6 278.991 390.6 280.008C390.6 281.025 391.425 281.85 392.442 281.85V278.167ZM400.136 281.85C401.153 281.85 401.978 281.025 401.978 280.008C401.978 278.991 401.153 278.167 400.136 278.167V281.85ZM407.831 278.167C406.813 278.167 405.989 278.991 405.989 280.008C405.989 281.025 406.813 281.85 407.831 281.85V278.167ZM415.525 281.85C416.542 281.85 417.367 281.025 417.367 280.008C417.367 278.991 416.542 278.167 415.525 278.167V281.85ZM423.22 278.167C422.202 278.167 421.378 278.991 421.378 280.008C421.378 281.025 422.202 281.85 423.22 281.85V278.167ZM430.914 281.85C431.931 281.85 432.756 281.025 432.756 280.008C432.756 278.991 431.931 278.167 430.914 278.167V281.85ZM438.609 278.167C437.591 278.167 436.767 278.991 436.767 280.008C436.767 281.025 437.591 281.85 438.609 281.85V278.167ZM446.303 281.85C447.32 281.85 448.145 281.025 448.145 280.008C448.145 278.991 447.32 278.167 446.303 278.167V281.85ZM453.997 278.167C452.98 278.167 452.156 278.991 452.156 280.008C452.156 281.025 452.98 281.85 453.997 281.85V278.167ZM461.692 281.85C462.709 281.85 463.534 281.025 463.534 280.008C463.534 278.991 462.709 278.167 461.692 278.167V281.85ZM469.386 278.167C468.369 278.167 467.545 278.991 467.545 280.008C467.545 281.025 468.369 281.85 469.386 281.85V278.167ZM477.081 281.85C478.098 281.85 478.923 281.025 478.923 280.008C478.923 278.991 478.098 278.167 477.081 278.167V281.85ZM484.775 278.167C483.758 278.167 482.934 278.991 482.934 280.008C482.934 281.025 483.758 281.85 484.775 281.85V278.167ZM491.141 282.095C492.139 282.293 493.107 281.644 493.305 280.646C493.502 279.648 492.853 278.679 491.856 278.482L491.141 282.095ZM497.834 280.96C496.988 280.394 495.844 280.62 495.279 281.465C494.713 282.311 494.939 283.455 495.784 284.02L497.834 280.96ZM499.344 287.58C499.91 288.426 501.054 288.652 501.899 288.086C502.745 287.52 502.971 286.376 502.405 285.531L499.344 287.58ZM504.883 291.509C504.685 290.511 503.716 289.862 502.719 290.06C501.721 290.257 501.072 291.226 501.269 292.224L504.883 291.509ZM501.515 298.281C501.515 299.298 502.339 300.123 503.356 300.123C504.374 300.123 505.198 299.298 505.198 298.281H501.515ZM505.198 305.359C505.198 304.342 504.374 303.517 503.356 303.517C502.339 303.517 501.515 304.342 501.515 305.359H505.198ZM318.158 249.962V253.79H321.841V249.962H318.158ZM318.158 261.446V265.274H321.841V261.446H318.158ZM318.158 265.274C318.158 266.379 318.266 267.46 318.473 268.507L322.086 267.793C321.926 266.98 321.841 266.138 321.841 265.274H318.158ZM320.951 274.485C322.16 276.292 323.715 277.847 325.522 279.057L327.571 275.996C326.165 275.054 324.953 273.843 324.011 272.436L320.951 274.485ZM331.5 281.535C332.547 281.742 333.628 281.85 334.733 281.85V278.167C333.87 278.167 333.028 278.082 332.215 277.921L331.5 281.535ZM334.733 281.85H338.58V278.167H334.733V281.85ZM346.275 281.85H353.969V278.167H346.275V281.85ZM361.664 281.85H369.358V278.167H361.664V281.85ZM377.053 281.85H384.747V278.167H377.053V281.85ZM392.442 281.85H400.136V278.167H392.442V281.85ZM407.831 281.85H415.525V278.167H407.831V281.85ZM423.22 281.85H430.914V278.167H423.22V281.85ZM438.609 281.85H446.303V278.167H438.609V281.85ZM453.997 281.85H461.692V278.167H453.997V281.85ZM469.386 281.85H477.081V278.167H469.386V281.85ZM484.775 281.85H488.623V278.167H484.775V281.85ZM488.623 281.85C489.486 281.85 490.328 281.935 491.141 282.095L491.856 278.482C490.808 278.275 489.727 278.167 488.623 278.167V281.85ZM495.784 284.02C497.191 284.962 498.403 286.174 499.344 287.58L502.405 285.531C501.196 283.724 499.64 282.169 497.834 280.96L495.784 284.02ZM501.269 292.224C501.43 293.037 501.515 293.879 501.515 294.742H505.198C505.198 293.637 505.09 292.556 504.883 291.509L501.269 292.224ZM501.515 294.742V298.281H505.198V294.742H501.515ZM501.515 305.359V308.898H505.198V305.359H501.515Z" fill="#BED73C"/>
<rect x="200" y="1.13867" width="239.614" height="239.615" rx="119.807" fill="#F3F4F6"/>
<g clip-path="url(#clip0_6289_198888)">
<path d="M328.125 57.4377H350.957C351.758 57.4377 352.422 56.7737 352.422 55.9729C352.422 55.1721 351.758 54.5081 350.957 54.5081H328.125C327.324 54.5081 326.66 55.1721 326.66 55.9729C326.66 56.7737 327.324 57.4377 328.125 57.4377Z" fill="#004357"/>
<path d="M328.125 65.9143H350.957C351.758 65.9143 352.422 65.2502 352.422 64.4495C352.422 63.6487 351.758 62.9846 350.957 62.9846H328.125C327.324 62.9846 326.66 63.6487 326.66 64.4495C326.66 65.2502 327.324 65.9143 328.125 65.9143Z" fill="#004357"/>
<path d="M350.957 71.4417H333.984C333.184 71.4417 332.52 72.1057 332.52 72.9065C332.52 73.7073 333.184 74.3713 333.984 74.3713H350.957C351.758 74.3713 352.422 73.7073 352.422 72.9065C352.422 72.1057 351.777 71.4417 350.957 71.4417Z" fill="#004357"/>
<path d="M328.125 48.9807H343.145C343.945 48.9807 344.609 48.3167 344.609 47.5159C344.609 46.7151 343.945 46.051 343.145 46.051H328.125C327.324 46.051 326.66 46.7151 326.66 47.5159C326.66 48.3167 327.324 48.9807 328.125 48.9807Z" fill="#004357"/>
<path d="M349.98 48.9807H350.957C351.758 48.9807 352.422 48.3167 352.422 47.5159C352.422 46.7151 351.758 46.051 350.957 46.051H349.98C349.18 46.051 348.516 46.7151 348.516 47.5159C348.516 48.3167 349.18 48.9807 349.98 48.9807Z" fill="#004357"/>
<path d="M289.043 57.4377H311.875C312.676 57.4377 313.34 56.7737 313.34 55.9729C313.34 55.1721 312.676 54.5081 311.875 54.5081H289.043C288.242 54.5081 287.578 55.1721 287.578 55.9729C287.578 56.7737 288.223 57.4377 289.043 57.4377Z" fill="#004357"/>
<path d="M289.043 65.9143H311.875C312.676 65.9143 313.34 65.2502 313.34 64.4495C313.34 63.6487 312.676 62.9846 311.875 62.9846H289.043C288.242 62.9846 287.578 63.6487 287.578 64.4495C287.578 65.2502 288.223 65.9143 289.043 65.9143Z" fill="#004357"/>
<path d="M289.043 74.3713H306.016C306.816 74.3713 307.48 73.7073 307.48 72.9065C307.48 72.1057 306.816 71.4417 306.016 71.4417H289.043C288.242 71.4417 287.578 72.1057 287.578 72.9065C287.578 73.7073 288.223 74.3713 289.043 74.3713Z" fill="#004357"/>
<path d="M296.855 48.9807H311.875C312.676 48.9807 313.34 48.3167 313.34 47.5159C313.34 46.7151 312.676 46.051 311.875 46.051H296.855C296.055 46.051 295.391 46.7151 295.391 47.5159C295.391 48.3167 296.035 48.9807 296.855 48.9807Z" fill="#004357"/>
<path d="M289.043 48.9807H290.02C290.82 48.9807 291.484 48.3167 291.484 47.5159C291.484 46.7151 290.82 46.051 290.02 46.051H289.043C288.242 46.051 287.578 46.7151 287.578 47.5159C287.578 48.3167 288.223 48.9807 289.043 48.9807Z" fill="#004357"/>
<path d="M368.535 44.1758H360.566V37.5352C360.566 36.7344 359.902 36.0703 359.102 36.0703H331.719C326.621 36.0703 322.187 38.9805 320 43.2187C317.813 38.9805 313.379 36.0703 308.281 36.0703H280.898C280.098 36.0703 279.434 36.7344 279.434 37.5352V44.1758H271.465C270.664 44.1758 270 44.8398 270 45.6406V88.3164C270 92.3594 273.281 95.6406 277.324 95.6406H297.266C297.129 96.6562 297.051 97.7109 297.051 98.7656C297.051 111.422 307.344 121.715 320 121.715C324.492 121.715 328.691 120.426 332.227 118.18L348.555 134.508C349.609 135.563 350.977 136.07 352.344 136.07C353.711 136.07 355.098 135.543 356.133 134.508C358.223 132.418 358.223 129 356.133 126.91L339.727 110.484C341.777 107.047 342.949 103.043 342.949 98.7656C342.949 97.7109 342.871 96.6562 342.734 95.6406H362.676C366.719 95.6406 370 92.3594 370 88.3164V45.6406C370 44.8398 369.336 44.1758 368.535 44.1758ZM331.719 39H357.637V77.0273C357.637 79.4492 355.664 81.4219 353.242 81.4219H337.09C336.426 81.4219 335.762 81.4414 335.098 81.5C331.406 78.2578 326.66 76.1875 321.465 75.8555V49.2539C321.465 43.6094 326.074 39 331.719 39ZM282.363 39H308.281C313.926 39 318.535 43.6094 318.535 49.2539V75.8555C313.34 76.1875 308.594 78.2578 304.902 81.5C304.238 81.4414 303.574 81.4219 302.91 81.4219H286.758C284.336 81.4219 282.363 79.4492 282.363 77.0273V39ZM277.324 92.7109C274.902 92.7109 272.93 90.7383 272.93 88.3164V47.1055H279.434V77.0273C279.434 81.0703 282.715 84.3516 286.758 84.3516H302.148C300.176 86.7734 298.711 89.625 297.852 92.7109H277.324ZM354.082 128.98C355.039 129.938 355.039 131.48 354.082 132.437C353.125 133.395 351.582 133.395 350.625 132.437L334.629 116.441C335.879 115.406 337.031 114.234 338.047 112.945L354.082 128.98ZM320 118.785C308.965 118.785 299.98 109.801 299.98 98.7656C299.98 87.7305 308.965 78.7461 320 78.7461C331.035 78.7461 340.02 87.7305 340.02 98.7656C340.02 109.801 331.035 118.785 320 118.785ZM367.07 88.3164C367.07 90.7383 365.098 92.7109 362.676 92.7109H342.129C341.289 89.6055 339.805 86.7734 337.832 84.3516H353.223C357.266 84.3516 360.547 81.0703 360.547 77.0273V47.1055H367.07V88.3164Z" fill="#004357"/>
<path d="M320 81.676C310.586 81.676 302.91 89.3518 302.91 98.7659C302.91 108.18 310.586 115.856 320 115.856C329.414 115.856 337.09 108.18 337.09 98.7659C337.09 89.3518 329.414 81.676 320 81.676ZM326.934 95.6604L319.258 103.864C318.984 104.156 318.594 104.332 318.184 104.332C317.773 104.332 317.383 104.156 317.109 103.864L313.066 99.5471C312.52 98.9612 312.539 98.0237 313.145 97.4768C313.73 96.9299 314.668 96.9495 315.215 97.5549L318.184 100.739L324.785 93.6877C325.332 93.1018 326.27 93.0627 326.855 93.6096C327.441 94.1565 327.48 95.0745 326.934 95.6604Z" fill="#087084"/>
</g>
<rect y="317.171" width="308" height="99.4531" rx="16" fill="#F3F4F6"/>
<rect x="332" y="317.171" width="308" height="99.4531" rx="16" fill="#F3F4F6"/>
<path d="M155.842 423.991C155.842 422.974 155.017 422.149 154 422.149C152.983 422.149 152.158 422.974 152.158 423.991H155.842ZM152.698 454.761C153.417 455.48 154.583 455.48 155.302 454.761L167.023 443.04C167.742 442.321 167.742 441.155 167.023 440.436C166.304 439.716 165.138 439.716 164.418 440.436L154 450.854L143.582 440.436C142.862 439.716 141.696 439.716 140.977 440.436C140.258 441.155 140.258 442.321 140.977 443.04L152.698 454.761ZM152.158 427.674C152.158 428.692 152.983 429.516 154 429.516C155.017 429.516 155.842 428.692 155.842 427.674H152.158ZM155.842 435.041C155.842 434.024 155.017 433.2 154 433.2C152.983 433.2 152.158 434.024 152.158 435.041H155.842ZM152.158 442.408C152.158 443.425 152.983 444.25 154 444.25C155.017 444.25 155.842 443.425 155.842 442.408H152.158ZM155.842 449.775C155.842 448.758 155.017 447.933 154 447.933C152.983 447.933 152.158 448.758 152.158 449.775H155.842ZM152.158 423.991V427.674H155.842V423.991H152.158ZM152.158 435.041V442.408H155.842V435.041H152.158ZM152.158 449.775V453.459H155.842V449.775H152.158Z" fill="#BED73C"/>
<path d="M155.842 545.66C155.842 544.643 155.017 543.818 154 543.818C152.983 543.818 152.158 544.643 152.158 545.66H155.842ZM152.698 576.43C153.417 577.149 154.583 577.149 155.302 576.43L167.023 564.709C167.742 563.99 167.742 562.824 167.023 562.105C166.304 561.385 165.138 561.385 164.418 562.105L154 572.523L143.582 562.105C142.862 561.385 141.696 561.385 140.977 562.105C140.258 562.824 140.258 563.99 140.977 564.709L152.698 576.43ZM152.158 549.343C152.158 550.361 152.983 551.185 154 551.185C155.017 551.185 155.842 550.361 155.842 549.343H152.158ZM155.842 556.71C155.842 555.693 155.017 554.869 154 554.869C152.983 554.869 152.158 555.693 152.158 556.71H155.842ZM152.158 564.077C152.158 565.094 152.983 565.919 154 565.919C155.017 565.919 155.842 565.094 155.842 564.077H152.158ZM155.842 571.444C155.842 570.427 155.017 569.602 154 569.602C152.983 569.602 152.158 570.427 152.158 571.444H155.842ZM152.158 545.66V549.343H155.842V545.66H152.158ZM152.158 556.71V564.077H155.842V556.71H152.158ZM152.158 571.444V575.127H155.842V571.444H152.158Z" fill="#BED73C"/>
<path d="M155.842 667.329C155.842 666.312 155.017 665.487 154 665.487C152.983 665.487 152.158 666.312 152.158 667.329H155.842ZM152.698 698.099C153.417 698.818 154.583 698.818 155.302 698.099L167.023 686.378C167.742 685.659 167.742 684.493 167.023 683.773C166.304 683.054 165.138 683.054 164.418 683.773L154 694.192L143.582 683.773C142.862 683.054 141.696 683.054 140.977 683.773C140.258 684.493 140.258 685.659 140.977 686.378L152.698 698.099ZM152.158 671.012C152.158 672.029 152.983 672.854 154 672.854C155.017 672.854 155.842 672.029 155.842 671.012H152.158ZM155.842 678.379C155.842 677.362 155.017 676.537 154 676.537C152.983 676.537 152.158 677.362 152.158 678.379H155.842ZM152.158 685.746C152.158 686.763 152.983 687.588 154 687.588C155.017 687.588 155.842 686.763 155.842 685.746H152.158ZM155.842 693.113C155.842 692.096 155.017 691.271 154 691.271C152.983 691.271 152.158 692.096 152.158 693.113H155.842ZM152.158 667.329V671.012H155.842V667.329H152.158ZM152.158 678.379V685.746H155.842V678.379H152.158ZM152.158 693.113V696.796H155.842V693.113H152.158Z" fill="#BED73C"/>
<rect y="461.171" width="308" height="77.1221" rx="16" fill="#F3F4F6"/>
<rect y="583.171" width="308" height="77.1221" rx="16" fill="#F3F4F6"/>
<path d="M487.842 423.991C487.842 422.974 487.017 422.149 486 422.149C484.983 422.149 484.158 422.974 484.158 423.991H487.842ZM484.698 454.761C485.417 455.48 486.583 455.48 487.302 454.761L499.023 443.04C499.742 442.321 499.742 441.155 499.023 440.436C498.304 439.716 497.138 439.716 496.418 440.436L486 450.854L475.582 440.436C474.862 439.716 473.696 439.716 472.977 440.436C472.258 441.155 472.258 442.321 472.977 443.04L484.698 454.761ZM484.158 427.674C484.158 428.692 484.983 429.516 486 429.516C487.017 429.516 487.842 428.692 487.842 427.674H484.158ZM487.842 435.041C487.842 434.024 487.017 433.2 486 433.2C484.983 433.2 484.158 434.024 484.158 435.041H487.842ZM484.158 442.408C484.158 443.425 484.983 444.25 486 444.25C487.017 444.25 487.842 443.425 487.842 442.408H484.158ZM487.842 449.775C487.842 448.758 487.017 447.933 486 447.933C484.983 447.933 484.158 448.758 484.158 449.775H487.842ZM484.158 423.991V427.674H487.842V423.991H484.158ZM484.158 435.041V442.408H487.842V435.041H484.158ZM484.158 449.775V453.459H487.842V449.775H484.158Z" fill="#BED73C"/>
<path d="M487.842 545.66C487.842 544.643 487.017 543.818 486 543.818C484.983 543.818 484.158 544.643 484.158 545.66H487.842ZM484.698 576.43C485.417 577.149 486.583 577.149 487.302 576.43L499.023 564.709C499.742 563.99 499.742 562.824 499.023 562.105C498.304 561.385 497.138 561.385 496.418 562.105L486 572.523L475.582 562.105C474.862 561.385 473.696 561.385 472.977 562.105C472.258 562.824 472.258 563.99 472.977 564.709L484.698 576.43ZM484.158 549.343C484.158 550.361 484.983 551.185 486 551.185C487.017 551.185 487.842 550.361 487.842 549.343H484.158ZM487.842 556.71C487.842 555.693 487.017 554.869 486 554.869C484.983 554.869 484.158 555.693 484.158 556.71H487.842ZM484.158 564.077C484.158 565.094 484.983 565.919 486 565.919C487.017 565.919 487.842 565.094 487.842 564.077H484.158ZM487.842 571.444C487.842 570.427 487.017 569.602 486 569.602C484.983 569.602 484.158 570.427 484.158 571.444H487.842ZM484.158 545.66V549.343H487.842V545.66H484.158ZM484.158 556.71V564.077H487.842V556.71H484.158ZM484.158 571.444V575.127H487.842V571.444H484.158Z" fill="#BED73C"/>
<path d="M489.75 667.328C489.75 666.311 488.925 665.487 487.908 665.487C486.891 665.487 486.066 666.311 486.066 667.328H489.75ZM486.606 798.224C487.325 798.944 488.491 798.944 489.21 798.224L500.931 786.504C501.65 785.785 501.65 784.618 500.931 783.899C500.212 783.18 499.046 783.18 498.327 783.899L487.908 794.318L477.49 783.899C476.771 783.18 475.604 783.18 474.885 783.899C474.166 784.618 474.166 785.785 474.885 786.504L486.606 798.224ZM486.066 670.928C486.066 671.945 486.891 672.77 487.908 672.77C488.925 672.77 489.75 671.945 489.75 670.928H486.066ZM489.75 678.128C489.75 677.111 488.925 676.286 487.908 676.286C486.891 676.286 486.066 677.111 486.066 678.128H489.75ZM486.066 685.327C486.066 686.345 486.891 687.169 487.908 687.169C488.925 687.169 489.75 686.345 489.75 685.327H486.066ZM489.75 692.527C489.75 691.51 488.925 690.685 487.908 690.685C486.891 690.685 486.066 691.51 486.066 692.527H489.75ZM486.066 699.727C486.066 700.744 486.891 701.569 487.908 701.569C488.925 701.569 489.75 700.744 489.75 699.727H486.066ZM489.75 706.926C489.75 705.909 488.925 705.085 487.908 705.085C486.891 705.085 486.066 705.909 486.066 706.926H489.75ZM486.066 714.126C486.066 715.143 486.891 715.968 487.908 715.968C488.925 715.968 489.75 715.143 489.75 714.126H486.066ZM489.75 721.326C489.75 720.309 488.925 719.484 487.908 719.484C486.891 719.484 486.066 720.309 486.066 721.326H489.75ZM486.066 728.525C486.066 729.543 486.891 730.367 487.908 730.367C488.925 730.367 489.75 729.543 489.75 728.525H486.066ZM489.75 735.725C489.75 734.708 488.925 733.883 487.908 733.883C486.891 733.883 486.066 734.708 486.066 735.725H489.75ZM486.066 742.925C486.066 743.942 486.891 744.766 487.908 744.766C488.925 744.766 489.75 743.942 489.75 742.925H486.066ZM489.75 750.124C489.75 749.107 488.925 748.283 487.908 748.283C486.891 748.283 486.066 749.107 486.066 750.124H489.75ZM486.066 757.324C486.066 758.341 486.891 759.166 487.908 759.166C488.925 759.166 489.75 758.341 489.75 757.324H486.066ZM489.75 764.524C489.75 763.507 488.925 762.682 487.908 762.682C486.891 762.682 486.066 763.507 486.066 764.524H489.75ZM486.066 771.723C486.066 772.74 486.891 773.565 487.908 773.565C488.925 773.565 489.75 772.74 489.75 771.723H486.066ZM489.75 778.923C489.75 777.906 488.925 777.081 487.908 777.081C486.891 777.081 486.066 777.906 486.066 778.923H489.75ZM486.066 786.123C486.066 787.14 486.891 787.964 487.908 787.964C488.925 787.964 489.75 787.14 489.75 786.123H486.066ZM489.75 793.322C489.75 792.305 488.925 791.481 487.908 791.481C486.891 791.481 486.066 792.305 486.066 793.322H489.75ZM486.066 667.328V670.928H489.75V667.328H486.066ZM486.066 678.128V685.327H489.75V678.128H486.066ZM486.066 692.527V699.727H489.75V692.527H486.066ZM486.066 706.926V714.126H489.75V706.926H486.066ZM486.066 721.326V728.525H489.75V721.326H486.066ZM486.066 735.725V742.925H489.75V735.725H486.066ZM486.066 750.124V757.324H489.75V750.124H486.066ZM486.066 764.524V771.723H489.75V764.524H486.066ZM486.066 778.923V786.123H489.75V778.923H486.066ZM486.066 793.322V796.922H489.75V793.322H486.066Z" fill="#BED73C"/>
<rect x="332" y="461.171" width="308" height="77.1221" rx="16" fill="#F3F4F6"/>
<rect x="332" y="583.171" width="308" height="77.1221" rx="16" fill="#F3F4F6"/>
<rect y="704.171" width="296" height="99.4456" rx="16" fill="#F3F4F6"/>
<path d="M486.631 798.562C487.351 799.281 488.517 799.281 489.236 798.562L500.957 786.841C501.676 786.122 501.676 784.956 500.957 784.237C500.237 783.518 499.071 783.518 498.352 784.237L487.934 794.655L477.515 784.237C476.796 783.518 475.63 783.518 474.911 784.237C474.191 784.956 474.191 786.122 474.911 786.841L486.631 798.562ZM307.636 756.005C308.653 756.005 309.477 755.18 309.477 754.163C309.477 753.146 308.653 752.321 307.636 752.321V756.005ZM314.905 752.321C313.888 752.321 313.064 753.146 313.064 754.163C313.064 755.18 313.888 756.005 314.905 756.005V752.321ZM322.175 756.005C323.192 756.005 324.017 755.18 324.017 754.163C324.017 753.146 323.192 752.321 322.175 752.321V756.005ZM329.445 752.321C328.428 752.321 327.603 753.146 327.603 754.163C327.603 755.18 328.428 756.005 329.445 756.005V752.321ZM336.714 756.005C337.732 756.005 338.556 755.18 338.556 754.163C338.556 753.146 337.732 752.321 336.714 752.321V756.005ZM343.984 752.321C342.967 752.321 342.142 753.146 342.142 754.163C342.142 755.18 342.967 756.005 343.984 756.005V752.321ZM351.254 756.005C352.271 756.005 353.095 755.18 353.095 754.163C353.095 753.146 352.271 752.321 351.254 752.321V756.005ZM358.523 752.321C357.506 752.321 356.682 753.146 356.682 754.163C356.682 755.18 357.506 756.005 358.523 756.005V752.321ZM365.793 756.005C366.81 756.005 367.635 755.18 367.635 754.163C367.635 753.146 366.81 752.321 365.793 752.321V756.005ZM373.063 752.321C372.046 752.321 371.221 753.146 371.221 754.163C371.221 755.18 372.046 756.005 373.063 756.005V752.321ZM380.332 756.005C381.35 756.005 382.174 755.18 382.174 754.163C382.174 753.146 381.35 752.321 380.332 752.321V756.005ZM387.602 752.321C386.585 752.321 385.76 753.146 385.76 754.163C385.76 755.18 386.585 756.005 387.602 756.005V752.321ZM394.872 756.005C395.889 756.005 396.713 755.18 396.713 754.163C396.713 753.146 395.889 752.321 394.872 752.321V756.005ZM402.141 752.321C401.124 752.321 400.3 753.146 400.3 754.163C400.3 755.18 401.124 756.005 402.141 756.005V752.321ZM409.411 756.005C410.428 756.005 411.253 755.18 411.253 754.163C411.253 753.146 410.428 752.321 409.411 752.321V756.005ZM416.681 752.321C415.664 752.321 414.839 753.146 414.839 754.163C414.839 755.18 415.664 756.005 416.681 756.005V752.321ZM423.95 756.005C424.968 756.005 425.792 755.18 425.792 754.163C425.792 753.146 424.968 752.321 423.95 752.321V756.005ZM431.22 752.321C430.203 752.321 429.378 753.146 429.378 754.163C429.378 755.18 430.203 756.005 431.22 756.005V752.321ZM438.49 756.005C439.507 756.005 440.331 755.18 440.331 754.163C440.331 753.146 439.507 752.321 438.49 752.321V756.005ZM445.759 752.321C444.742 752.321 443.918 753.146 443.918 754.163C443.918 755.18 444.742 756.005 445.759 756.005V752.321ZM453.029 756.005C454.046 756.005 454.871 755.18 454.871 754.163C454.871 753.146 454.046 752.321 453.029 752.321V756.005ZM460.299 752.321C459.282 752.321 458.457 753.146 458.457 754.163C458.457 755.18 459.282 756.005 460.299 756.005V752.321ZM466.83 756.192C467.839 756.324 468.763 755.613 468.894 754.604C469.026 753.595 468.315 752.671 467.306 752.539L466.83 756.192ZM473.826 754.283C472.886 753.893 471.809 754.339 471.419 755.278C471.03 756.218 471.475 757.296 472.415 757.685L473.826 754.283ZM477.422 760.582C478.229 761.201 479.385 761.05 480.005 760.243C480.625 759.437 480.473 758.281 479.667 757.661L477.422 760.582ZM484.436 762.43C483.816 761.623 482.659 761.472 481.853 762.092C481.046 762.711 480.895 763.868 481.515 764.674L484.436 762.43ZM484.411 769.681C484.801 770.621 485.878 771.067 486.818 770.677C487.758 770.288 488.203 769.21 487.814 768.27L484.411 769.681ZM489.557 774.79C489.425 773.781 488.501 773.07 487.493 773.202C486.484 773.334 485.773 774.258 485.904 775.266L489.557 774.79ZM486.092 782.937C486.092 783.954 486.916 784.779 487.934 784.779C488.951 784.779 489.775 783.954 489.775 782.937H486.092ZM489.775 792.486C489.775 791.468 488.951 790.644 487.934 790.644C486.916 790.644 486.092 791.468 486.092 792.486H489.775ZM304.001 756.005H307.636V752.321H304.001V756.005ZM314.905 756.005H322.175V752.321H314.905V756.005ZM329.445 756.005H336.714V752.321H329.445V756.005ZM343.984 756.005H351.254V752.321H343.984V756.005ZM358.523 756.005H365.793V752.321H358.523V756.005ZM373.063 756.005H380.332V752.321H373.063V756.005ZM387.602 756.005H394.872V752.321H387.602V756.005ZM402.141 756.005H409.411V752.321H402.141V756.005ZM416.681 756.005H423.95V752.321H416.681V756.005ZM431.22 756.005H438.49V752.321H431.22V756.005ZM445.759 756.005H453.029V752.321H445.759V756.005ZM460.299 756.005H463.934V752.321H460.299V756.005ZM463.934 756.005C464.916 756.005 465.883 756.068 466.83 756.192L467.306 752.539C466.202 752.395 465.076 752.321 463.934 752.321V756.005ZM472.415 757.685C474.215 758.432 475.897 759.409 477.422 760.582L479.667 757.661C477.889 756.295 475.928 755.154 473.826 754.283L472.415 757.685ZM481.515 764.674C482.687 766.2 483.665 767.881 484.411 769.681L487.814 768.27C486.942 766.169 485.802 764.207 484.436 762.43L481.515 764.674ZM485.904 775.266C486.028 776.214 486.092 777.18 486.092 778.163H489.775C489.775 777.021 489.701 775.895 489.557 774.79L485.904 775.266ZM486.092 778.163V782.937H489.775V778.163H486.092ZM486.092 792.486V797.26H489.775V792.486H486.092Z" fill="#BED73C"/>
<rect x="320" y="804.171" width="320" height="99.4456" rx="16" fill="#F3F4F6"/>
<path d="M487.419 918.265C487.419 917.247 486.594 916.423 485.577 916.423C484.56 916.423 483.735 917.247 483.735 918.265L487.419 918.265ZM379.952 1042.19C379.233 1042.9 379.233 1044.07 379.952 1044.79L391.673 1056.51C392.392 1057.23 393.558 1057.23 394.277 1056.51C394.997 1055.79 394.997 1054.62 394.277 1053.91L383.859 1043.49L394.277 1033.07C394.997 1032.35 394.997 1031.18 394.277 1030.46C393.558 1029.75 392.392 1029.75 391.673 1030.46L379.952 1042.19ZM483.735 922.211C483.735 923.228 484.56 924.052 485.577 924.052C486.594 924.052 487.419 923.228 487.419 922.211L483.735 922.211ZM487.419 930.103C487.419 929.086 486.594 928.261 485.577 928.261C484.56 928.261 483.735 929.086 483.735 930.103L487.419 930.103ZM483.735 937.995C483.735 939.012 484.56 939.837 485.577 939.837C486.594 939.837 487.419 939.012 487.419 937.995L483.735 937.995ZM487.419 945.887C487.419 944.87 486.594 944.045 485.577 944.045C484.56 944.045 483.735 944.87 483.735 945.887L487.419 945.887ZM483.735 953.779C483.735 954.796 484.56 955.621 485.577 955.621C486.594 955.621 487.419 954.796 487.419 953.779L483.735 953.779ZM487.419 961.671C487.419 960.654 486.594 959.829 485.577 959.829C484.56 959.829 483.735 960.654 483.735 961.671L487.419 961.671ZM483.735 969.563C483.735 970.58 484.56 971.405 485.577 971.405C486.594 971.405 487.419 970.58 487.419 969.563L483.735 969.563ZM487.419 977.455C487.419 976.438 486.594 975.613 485.577 975.613C484.56 975.613 483.735 976.438 483.735 977.455L487.419 977.455ZM483.735 985.347C483.735 986.364 484.56 987.189 485.577 987.189C486.594 987.189 487.419 986.364 487.419 985.347L483.735 985.347ZM487.419 993.239C487.419 992.222 486.594 991.398 485.577 991.398C484.56 991.398 483.735 992.222 483.735 993.239L487.419 993.239ZM483.735 1001.13C483.735 1002.15 484.56 1002.97 485.577 1002.97C486.594 1002.97 487.419 1002.15 487.419 1001.13L483.735 1001.13ZM487.419 1009.02C487.419 1008.01 486.594 1007.18 485.577 1007.18C484.56 1007.18 483.735 1008.01 483.735 1009.02L487.419 1009.02ZM483.735 1016.92C483.735 1017.93 484.56 1018.76 485.577 1018.76C486.594 1018.76 487.419 1017.93 487.419 1016.92L483.735 1016.92ZM487.419 1024.81C487.419 1023.79 486.594 1022.97 485.577 1022.97C484.56 1022.97 483.735 1023.79 483.735 1024.81L487.419 1024.81ZM483.49 1031.27C483.293 1032.27 483.941 1033.24 484.939 1033.44C485.937 1033.63 486.906 1032.98 487.103 1031.99L483.49 1031.27ZM484.626 1037.96C485.192 1037.12 484.965 1035.98 484.12 1035.41C483.275 1034.84 482.131 1035.07 481.565 1035.92L484.626 1037.96ZM478.005 1039.48C477.16 1040.04 476.933 1041.18 477.499 1042.03C478.065 1042.88 479.209 1043.1 480.054 1042.54L478.005 1039.48ZM474.076 1045.01C475.074 1044.82 475.723 1043.85 475.526 1042.85C475.328 1041.85 474.359 1041.2 473.361 1041.4L474.076 1045.01ZM467.11 1041.65C466.093 1041.65 465.269 1042.47 465.269 1043.49C465.269 1044.5 466.093 1045.33 467.11 1045.33L467.11 1041.65ZM459.645 1045.33C460.662 1045.33 461.486 1044.5 461.486 1043.49C461.486 1042.47 460.662 1041.65 459.645 1041.65L459.645 1045.33ZM452.179 1041.65C451.162 1041.65 450.337 1042.47 450.337 1043.49C450.337 1044.5 451.162 1045.33 452.179 1045.33L452.179 1041.65ZM444.713 1045.33C445.73 1045.33 446.555 1044.5 446.555 1043.49C446.555 1042.47 445.73 1041.65 444.713 1041.65L444.713 1045.33ZM437.247 1041.65C436.23 1041.65 435.406 1042.47 435.406 1043.49C435.406 1044.5 436.23 1045.33 437.247 1045.33L437.247 1041.65ZM429.782 1045.33C430.799 1045.33 431.623 1044.5 431.623 1043.49C431.623 1042.47 430.799 1041.65 429.782 1041.65L429.782 1045.33ZM422.316 1041.65C421.299 1041.65 420.474 1042.47 420.474 1043.49C420.474 1044.5 421.299 1045.33 422.316 1045.33L422.316 1041.65ZM414.85 1045.33C415.867 1045.33 416.692 1044.5 416.692 1043.49C416.692 1042.47 415.867 1041.65 414.85 1041.65L414.85 1045.33ZM407.384 1041.65C406.367 1041.65 405.543 1042.47 405.543 1043.49C405.543 1044.5 406.367 1045.33 407.384 1045.33L407.384 1041.65ZM399.919 1045.33C400.936 1045.33 401.76 1044.5 401.76 1043.49C401.76 1042.47 400.936 1041.65 399.919 1041.65L399.919 1045.33ZM392.453 1041.65C391.436 1041.65 390.611 1042.47 390.611 1043.49C390.611 1044.5 391.436 1045.33 392.453 1045.33L392.453 1041.65ZM384.987 1045.33C386.004 1045.33 386.829 1044.5 386.829 1043.49C386.829 1042.47 386.004 1041.65 384.987 1041.65L384.987 1045.33ZM483.735 918.265L483.735 922.211L487.419 922.211L487.419 918.265L483.735 918.265ZM483.735 930.103L483.735 937.995L487.419 937.995L487.419 930.103L483.735 930.103ZM483.735 945.887L483.735 953.779L487.419 953.779L487.419 945.887L483.735 945.887ZM483.735 961.671L483.735 969.563L487.419 969.563L487.419 961.671L483.735 961.671ZM483.735 977.455L483.735 985.347L487.419 985.347L487.419 977.455L483.735 977.455ZM483.735 993.239L483.735 1001.13L487.419 1001.13L487.419 993.239L483.735 993.239ZM483.735 1009.02L483.735 1016.92L487.419 1016.92L487.419 1009.02L483.735 1009.02ZM483.735 1024.81L483.735 1028.75L487.419 1028.75L487.419 1024.81L483.735 1024.81ZM483.735 1028.75C483.735 1029.62 483.651 1030.46 483.49 1031.27L487.103 1031.99C487.311 1030.94 487.419 1029.86 487.419 1028.75L483.735 1028.75ZM481.565 1035.92C480.623 1037.32 479.412 1038.53 478.005 1039.48L480.054 1042.54C481.861 1041.33 483.416 1039.77 484.626 1037.96L481.565 1035.92ZM473.361 1041.4C472.548 1041.56 471.707 1041.65 470.843 1041.65L470.843 1045.33C471.948 1045.33 473.029 1045.22 474.076 1045.01L473.361 1041.4ZM470.843 1041.65L467.11 1041.65L467.11 1045.33L470.843 1045.33L470.843 1041.65ZM459.645 1041.65L452.179 1041.65L452.179 1045.33L459.645 1045.33L459.645 1041.65ZM444.713 1041.65L437.247 1041.65L437.247 1045.33L444.713 1045.33L444.713 1041.65ZM429.782 1041.65L422.316 1041.65L422.316 1045.33L429.782 1045.33L429.782 1041.65ZM414.85 1041.65L407.384 1041.65L407.384 1045.33L414.85 1045.33L414.85 1041.65ZM399.919 1041.65L392.453 1041.65L392.453 1045.33L399.919 1045.33L399.919 1041.65ZM384.987 1041.65L381.254 1041.65L381.254 1045.33L384.987 1045.33L384.987 1041.65Z" fill="#BED73C"/>
<rect x="121" y="907.139" width="239.614" height="239.615" rx="119.807" fill="#F3F4F6"/>
<g clip-path="url(#clip1_6289_198888)">
<path d="M260.114 958.542L244.489 942.917C244.216 942.644 243.845 942.488 243.454 942.488H192.673C191.872 942.488 191.208 943.152 191.208 943.952V1041.02C191.208 1041.82 191.872 1042.49 192.673 1042.49H259.079C259.88 1042.49 260.544 1041.82 260.544 1041.02V959.577C260.544 959.187 260.388 958.816 260.114 958.542ZM244.919 947.488L255.544 958.113H244.919V947.488ZM194.138 1039.56V945.417H241.989V959.577C241.989 960.378 242.653 961.042 243.454 961.042H257.614V1039.56H194.138Z" fill="#004357"/>
<path d="M251.267 965.925H200.485C199.685 965.925 199.021 966.589 199.021 967.39V975.203C199.021 976.003 199.685 976.667 200.485 976.667H251.267C252.067 976.667 252.731 976.003 252.731 975.203V967.39C252.731 966.589 252.067 965.925 251.267 965.925ZM249.802 973.738H201.95V968.855H249.802V973.738Z" fill="#004357"/>
<path d="M200.485 1000.1H216.11C216.911 1000.1 217.575 999.441 217.575 998.64V983.015C217.575 982.214 216.911 981.55 216.11 981.55H200.485C199.685 981.55 199.021 982.214 199.021 983.015V998.64C199.021 999.441 199.685 1000.1 200.485 1000.1ZM201.95 984.48H214.646V997.175H201.95V984.48Z" fill="#004357"/>
<path d="M251.267 981.55H229.782C228.981 981.55 228.317 982.214 228.317 983.015C228.317 983.816 228.981 984.48 229.782 984.48H251.267C252.067 984.48 252.731 983.816 252.731 983.015C252.731 982.214 252.067 981.55 251.267 981.55Z" fill="#004357"/>
<path d="M223.923 984.48H224.899C225.7 984.48 226.364 983.816 226.364 983.015C226.364 982.214 225.7 981.55 224.899 981.55H223.923C223.122 981.55 222.458 982.214 222.458 983.015C222.458 983.816 223.122 984.48 223.923 984.48Z" fill="#004357"/>
<path d="M251.267 989.363H223.923C223.122 989.363 222.458 990.027 222.458 990.828C222.458 991.628 223.122 992.292 223.923 992.292H251.267C252.067 992.292 252.731 991.628 252.731 990.828C252.731 990.027 252.067 989.363 251.267 989.363Z" fill="#004357"/>
<path d="M251.267 997.175H223.923C223.122 997.175 222.458 997.839 222.458 998.64C222.458 999.441 223.122 1000.1 223.923 1000.1H251.267C252.067 1000.1 252.731 999.441 252.731 998.64C252.731 997.839 252.067 997.175 251.267 997.175Z" fill="#004357"/>
<path d="M251.267 1004.99H212.204C211.403 1004.99 210.739 1005.65 210.739 1006.45C210.739 1007.25 211.403 1007.92 212.204 1007.92H251.267C252.067 1007.92 252.731 1007.25 252.731 1006.45C252.731 1005.65 252.067 1004.99 251.267 1004.99Z" fill="#004357"/>
<path d="M200.485 1007.92H207.321C208.122 1007.92 208.786 1007.25 208.786 1006.45C208.786 1005.65 208.122 1004.99 207.321 1004.99H200.485C199.685 1004.99 199.021 1005.65 199.021 1006.45C199.021 1007.25 199.685 1007.92 200.485 1007.92Z" fill="#004357"/>
<path d="M251.267 1012.8H200.485C199.685 1012.8 199.021 1013.46 199.021 1014.27C199.021 1015.07 199.685 1015.73 200.485 1015.73H251.267C252.067 1015.73 252.731 1015.07 252.731 1014.27C252.731 1013.46 252.067 1012.8 251.267 1012.8Z" fill="#004357"/>
<path d="M251.267 1020.03H235.642C234.841 1020.03 234.177 1020.69 234.177 1021.49V1033.21C234.177 1034.01 234.841 1034.68 235.642 1034.68H251.267C252.067 1034.68 252.731 1034.01 252.731 1033.21V1021.49C252.731 1020.69 252.067 1020.03 251.267 1020.03ZM249.802 1031.75H237.106V1022.96H249.802V1031.75Z" fill="#004357"/>
<path d="M223.923 1020.03H200.485C199.685 1020.03 199.021 1020.69 199.021 1021.49V1033.21C199.021 1034.01 199.685 1034.68 200.485 1034.68H223.923C224.724 1034.68 225.388 1034.01 225.388 1033.21V1021.49C225.388 1020.69 224.724 1020.03 223.923 1020.03ZM222.458 1031.75H201.95V1022.96H222.458V1031.75Z" fill="#004357"/>
<path d="M285.837 959.539H283.396V956.551H271.677V1000.5H283.396V962.469H285.837C287.185 962.469 288.278 963.563 288.278 964.91V984.441C288.278 985.242 288.942 985.906 289.743 985.906C290.544 985.906 291.208 985.242 291.208 984.441V964.91C291.208 961.961 288.806 959.539 285.837 959.539Z" fill="#087084"/>
<path d="M281.931 946.883C281.931 944.461 279.958 942.488 277.536 942.488C275.114 942.488 273.142 944.461 273.142 946.883V953.621H281.931V946.883Z" fill="#087084"/>
<path d="M273.142 1032.23C273.142 1035.69 274.294 1039.13 276.364 1041.9C276.638 1042.27 277.067 1042.49 277.536 1042.49C278.005 1042.49 278.435 1042.27 278.708 1041.9C280.778 1039.13 281.931 1035.69 281.931 1032.23V1003.43H273.142V1032.23Z" fill="#087084"/>
<path d="M264.737 998.386C254.511 998.386 246.177 1006.72 246.177 1016.95C246.177 1027.17 254.511 1035.51 264.737 1035.51C274.964 1035.51 283.298 1027.17 283.298 1016.95C283.298 1006.72 274.964 998.386 264.737 998.386Z" fill="#087084" stroke="#F3F4F6" stroke-width="2.94118"/>
</g>
<defs>
<clipPath id="clip0_6289_198888">
<rect width="100" height="100" fill="white" transform="translate(270 36.0703)"/>
</clipPath>
<clipPath id="clip1_6289_198888">
<rect width="100" height="100" fill="white" transform="translate(191.208 942.488)"/>
</clipPath>
</defs>
</svg>
