<svg width="720" height="148" viewBox="0 0 720 148" fill="none" xmlns="http://www.w3.org/2000/svg">
<path d="M99.6836 73.402C99.2767 73.402 98.9469 73.7319 98.9469 74.1387C98.9469 74.5456 99.2767 74.8754 99.6836 74.8754V73.402ZM123.779 22.3547C124.066 22.067 124.066 21.6005 123.779 21.3128L119.09 16.6246C118.803 16.3369 118.336 16.3369 118.048 16.6246C117.761 16.9123 117.761 17.3787 118.048 17.6664L122.216 21.8337L118.048 26.0011C117.761 26.2888 117.761 26.7552 118.048 27.0429C118.336 27.3306 118.803 27.3306 119.09 27.0429L123.779 22.3547ZM101.215 74.8754C101.622 74.8754 101.951 74.5456 101.951 74.1387C101.951 73.7319 101.622 73.402 101.215 73.402V74.8754ZM104.277 73.402C103.87 73.402 103.541 73.7319 103.541 74.1387C103.541 74.5456 103.87 74.8754 104.277 74.8754V73.402ZM107.102 74.7492C107.501 74.6703 107.76 74.2827 107.681 73.8836C107.602 73.4844 107.215 73.2249 106.816 73.3039L107.102 74.7492ZM108.673 72.5339C108.335 72.7602 108.244 73.2178 108.471 73.5559C108.697 73.894 109.155 73.9846 109.493 73.7582L108.673 72.5339ZM111.321 71.9296C111.548 71.5915 111.457 71.1339 111.119 70.9076C110.781 70.6812 110.323 70.7718 110.097 71.1099L111.321 71.9296ZM110.867 69.2524C110.788 69.6515 111.048 70.0391 111.447 70.1181C111.846 70.197 112.233 69.9375 112.312 69.5384L110.867 69.2524ZM112.439 66.7981C112.439 66.3913 112.109 66.0614 111.702 66.0614C111.295 66.0614 110.965 66.3913 110.965 66.7981H112.439ZM110.965 63.904C110.965 64.3109 111.295 64.6407 111.702 64.6407C112.109 64.6407 112.439 64.3109 112.439 63.904H110.965ZM112.439 61.0099C112.439 60.603 112.109 60.2732 111.702 60.2732C111.295 60.2732 110.965 60.603 110.965 61.0099H112.439ZM110.965 58.1157C110.965 58.5226 111.295 58.8524 111.702 58.8524C112.109 58.8524 112.439 58.5226 112.439 58.1157H110.965ZM112.439 55.2216C112.439 54.8147 112.109 54.4849 111.702 54.4849C111.295 54.4849 110.965 54.8147 110.965 55.2216H112.439ZM110.965 52.3274C110.965 52.7343 111.295 53.0641 111.702 53.0641C112.109 53.0641 112.439 52.7343 112.439 52.3274H110.965ZM112.439 49.4333C112.439 49.0264 112.109 48.6966 111.702 48.6966C111.295 48.6966 110.965 49.0264 110.965 49.4333H112.439ZM110.965 46.5392C110.965 46.946 111.295 47.2759 111.702 47.2759C112.109 47.2759 112.439 46.946 112.439 46.5392H110.965ZM112.439 43.645C112.439 43.2382 112.109 42.9083 111.702 42.9083C111.295 42.9083 110.965 43.2382 110.965 43.645H112.439ZM110.965 40.7509C110.965 41.1577 111.295 41.4876 111.702 41.4876C112.109 41.4876 112.439 41.1577 112.439 40.7509H110.965ZM112.439 37.8567C112.439 37.4499 112.109 37.1201 111.702 37.1201C111.295 37.1201 110.965 37.4499 110.965 37.8567H112.439ZM110.965 34.9626C110.965 35.3695 111.295 35.6993 111.702 35.6993C112.109 35.6993 112.439 35.3695 112.439 34.9626H110.965ZM112.439 32.0685C112.439 31.6616 112.109 31.3318 111.702 31.3318C111.295 31.3318 110.965 31.6616 110.965 32.0685H112.439ZM110.965 29.1743C110.965 29.5812 111.295 29.911 111.702 29.911C112.109 29.911 112.439 29.5812 112.439 29.1743H110.965ZM112.537 26.72C112.616 26.3209 112.356 25.9333 111.957 25.8544C111.558 25.7754 111.17 26.035 111.091 26.4341L112.537 26.72ZM112.082 24.0429C111.856 24.381 111.947 24.8386 112.285 25.0649C112.623 25.2912 113.08 25.2007 113.307 24.8626L112.082 24.0429ZM114.731 23.4386C115.069 23.2122 115.159 22.7547 114.933 22.4166C114.707 22.0785 114.249 21.9879 113.911 22.2142L114.731 23.4386ZM116.302 21.2232C115.903 21.3022 115.644 21.6898 115.723 22.0889C115.802 22.488 116.189 22.7476 116.588 22.6686L116.302 21.2232ZM119.011 22.5704C119.418 22.5704 119.748 22.2406 119.748 21.8337C119.748 21.4269 119.418 21.0971 119.011 21.0971V22.5704ZM121.842 21.0971C121.435 21.0971 121.105 21.4269 121.105 21.8337C121.105 22.2406 121.435 22.5704 121.842 22.5704V21.0971ZM99.6836 74.8754H101.215V73.402H99.6836V74.8754ZM104.277 74.8754H105.808V73.402H104.277V74.8754ZM105.808 74.8754C106.25 74.8754 106.683 74.8321 107.102 74.7492L106.816 73.3039C106.49 73.3682 106.154 73.402 105.808 73.402V74.8754ZM109.493 73.7582C110.216 73.2744 110.838 72.6523 111.321 71.9296L110.097 71.1099C109.72 71.6726 109.236 72.1572 108.673 72.5339L109.493 73.7582ZM112.312 69.5384C112.395 69.1195 112.439 68.6871 112.439 68.2452H110.965C110.965 68.5905 110.931 68.9273 110.867 69.2524L112.312 69.5384ZM112.439 68.2452V66.7981H110.965V68.2452H112.439ZM112.439 63.904V61.0099H110.965V63.904H112.439ZM112.439 58.1157V55.2216H110.965V58.1157H112.439ZM112.439 52.3274V49.4333H110.965V52.3274H112.439ZM112.439 46.5392V43.645H110.965V46.5392H112.439ZM112.439 40.7509V37.8567H110.965V40.7509H112.439ZM112.439 34.9626V32.0685H110.965V34.9626H112.439ZM112.439 29.1743V27.7273H110.965V29.1743H112.439ZM112.439 27.7273C112.439 27.3819 112.472 27.0452 112.537 26.72L111.091 26.4341C111.009 26.8529 110.965 27.2854 110.965 27.7273H112.439ZM113.307 24.8626C113.683 24.2999 114.168 23.8153 114.731 23.4386L113.911 22.2142C113.188 22.6981 112.566 23.3202 112.082 24.0429L113.307 24.8626ZM116.588 22.6686C116.913 22.6043 117.25 22.5704 117.595 22.5704V21.0971C117.154 21.0971 116.721 21.1404 116.302 21.2232L116.588 22.6686ZM117.595 22.5704H119.011V21.0971H117.595V22.5704ZM121.842 22.5704H123.258V21.0971H121.842V22.5704Z" fill="#BED73C"/>
<path d="M99.6836 74.8753C99.2767 74.8753 98.9469 74.5455 98.9469 74.1386C98.9469 73.7318 99.2767 73.4019 99.6836 73.4019V74.8753ZM123.779 125.923C124.066 126.21 124.066 126.677 123.779 126.965L119.09 131.653C118.803 131.94 118.336 131.94 118.048 131.653C117.761 131.365 117.761 130.899 118.048 130.611L122.216 126.444L118.048 122.276C117.761 121.989 117.761 121.522 118.048 121.234C118.336 120.947 118.803 120.947 119.09 121.234L123.779 125.923ZM101.215 73.4019C101.622 73.4019 101.951 73.7318 101.951 74.1386C101.951 74.5455 101.622 74.8753 101.215 74.8753V73.4019ZM104.277 74.8753C103.87 74.8753 103.541 74.5455 103.541 74.1386C103.541 73.7318 103.87 73.4019 104.277 73.4019V74.8753ZM107.102 73.5281C107.501 73.6071 107.76 73.9946 107.681 74.3938C107.602 74.7929 107.215 75.0524 106.816 74.9735L107.102 73.5281ZM108.673 75.7435C108.335 75.5171 108.244 75.0596 108.471 74.7215C108.697 74.3834 109.155 74.2928 109.493 74.5191L108.673 75.7435ZM111.321 76.3478C111.548 76.6859 111.457 77.1434 111.119 77.3698C110.781 77.5961 110.323 77.5055 110.097 77.1675L111.321 76.3478ZM110.867 79.0249C110.788 78.6258 111.048 78.2382 111.447 78.1593C111.846 78.0803 112.233 78.3399 112.312 78.739L110.867 79.0249ZM112.439 81.4792C112.439 81.8861 112.109 82.2159 111.702 82.2159C111.295 82.2159 110.965 81.8861 110.965 81.4792H112.439ZM110.965 84.3734C110.965 83.9665 111.295 83.6367 111.702 83.6367C112.109 83.6367 112.439 83.9665 112.439 84.3734H110.965ZM112.439 87.2675C112.439 87.6744 112.109 88.0042 111.702 88.0042C111.295 88.0042 110.965 87.6744 110.965 87.2675H112.439ZM110.965 90.1616C110.965 89.7548 111.295 89.4249 111.702 89.4249C112.109 89.4249 112.439 89.7548 112.439 90.1616H110.965ZM112.439 93.0558C112.439 93.4626 112.109 93.7925 111.702 93.7925C111.295 93.7925 110.965 93.4626 110.965 93.0558H112.439ZM110.965 95.9499C110.965 95.543 111.295 95.2132 111.702 95.2132C112.109 95.2132 112.439 95.543 112.439 95.9499H110.965ZM112.439 98.844C112.439 99.2509 112.109 99.5807 111.702 99.5807C111.295 99.5807 110.965 99.2509 110.965 98.844H112.439ZM110.965 101.738C110.965 101.331 111.295 101.001 111.702 101.001C112.109 101.001 112.439 101.331 112.439 101.738H110.965ZM112.439 104.632C112.439 105.039 112.109 105.369 111.702 105.369C111.295 105.369 110.965 105.039 110.965 104.632H112.439ZM110.965 107.526C110.965 107.12 111.295 106.79 111.702 106.79C112.109 106.79 112.439 107.12 112.439 107.526H110.965ZM112.439 110.421C112.439 110.827 112.109 111.157 111.702 111.157C111.295 111.157 110.965 110.827 110.965 110.421H112.439ZM110.965 113.315C110.965 112.908 111.295 112.578 111.702 112.578C112.109 112.578 112.439 112.908 112.439 113.315H110.965ZM112.439 116.209C112.439 116.616 112.109 116.946 111.702 116.946C111.295 116.946 110.965 116.616 110.965 116.209H112.439ZM110.965 119.103C110.965 118.696 111.295 118.366 111.702 118.366C112.109 118.366 112.439 118.696 112.439 119.103H110.965ZM112.537 121.557C112.616 121.956 112.356 122.344 111.957 122.423C111.558 122.502 111.17 122.242 111.091 121.843L112.537 121.557ZM112.082 124.234C111.856 123.896 111.947 123.439 112.285 123.212C112.623 122.986 113.08 123.077 113.307 123.415L112.082 124.234ZM114.731 124.839C115.069 125.065 115.159 125.523 114.933 125.861C114.707 126.199 114.249 126.289 113.911 126.063L114.731 124.839ZM116.302 127.054C115.903 126.975 115.644 126.588 115.723 126.188C115.802 125.789 116.189 125.53 116.588 125.609L116.302 127.054ZM119.011 125.707C119.418 125.707 119.748 126.037 119.748 126.444C119.748 126.85 119.418 127.18 119.011 127.18V125.707ZM121.842 127.18C121.435 127.18 121.105 126.85 121.105 126.444C121.105 126.037 121.435 125.707 121.842 125.707V127.18ZM99.6836 73.4019H101.215V74.8753H99.6836V73.4019ZM104.277 73.4019H105.808V74.8753H104.277V73.4019ZM105.808 73.4019C106.25 73.4019 106.683 73.4453 107.102 73.5281L106.816 74.9735C106.49 74.9092 106.154 74.8753 105.808 74.8753V73.4019ZM109.493 74.5191C110.216 75.003 110.838 75.6251 111.321 76.3478L110.097 77.1675C109.72 76.6048 109.236 76.1202 108.673 75.7435L109.493 74.5191ZM112.312 78.739C112.395 79.1578 112.439 79.5903 112.439 80.0321H110.965C110.965 79.6868 110.931 79.3501 110.867 79.0249L112.312 78.739ZM112.439 80.0321V81.4792H110.965V80.0321H112.439ZM112.439 84.3734V87.2675H110.965V84.3734H112.439ZM112.439 90.1616V93.0558H110.965V90.1616H112.439ZM112.439 95.9499V98.844H110.965V95.9499H112.439ZM112.439 101.738V104.632H110.965V101.738H112.439ZM112.439 107.526V110.421H110.965V107.526H112.439ZM112.439 113.315V116.209H110.965V113.315H112.439ZM112.439 119.103V120.55H110.965V119.103H112.439ZM112.439 120.55C112.439 120.895 112.472 121.232 112.537 121.557L111.091 121.843C111.009 121.424 110.965 120.992 110.965 120.55H112.439ZM113.307 123.415C113.683 123.977 114.168 124.462 114.731 124.839L113.911 126.063C113.188 125.579 112.566 124.957 112.082 124.234L113.307 123.415ZM116.588 125.609C116.913 125.673 117.25 125.707 117.595 125.707V127.18C117.154 127.18 116.721 127.137 116.302 127.054L116.588 125.609ZM117.595 125.707H119.011V127.18H117.595V125.707ZM121.842 125.707H123.258V127.18H121.842V125.707Z" fill="#BED73C"/>
<rect y="26.1387" width="96" height="96.0004" rx="48" fill="#F3F4F6"/>
<g clip-path="url(#clip0_6289_198569)">
<path d="M51.25 49.2124H60.3828C60.7031 49.2124 60.9687 48.9468 60.9687 48.6265C60.9687 48.3062 60.7031 48.0405 60.3828 48.0405H51.25C50.9297 48.0405 50.6641 48.3062 50.6641 48.6265C50.6641 48.9468 50.9297 49.2124 51.25 49.2124Z" fill="#004357"/>
<path d="M51.25 52.603H60.3828C60.7031 52.603 60.9687 52.3374 60.9687 52.0171C60.9687 51.6968 60.7031 51.4312 60.3828 51.4312H51.25C50.9297 51.4312 50.6641 51.6968 50.6641 52.0171C50.6641 52.3374 50.9297 52.603 51.25 52.603Z" fill="#004357"/>
<path d="M60.3828 54.814H53.5937C53.2734 54.814 53.0078 55.0796 53.0078 55.3999C53.0078 55.7202 53.2734 55.9858 53.5937 55.9858H60.3828C60.7031 55.9858 60.9687 55.7202 60.9687 55.3999C60.9687 55.0796 60.7109 54.814 60.3828 54.814Z" fill="#004357"/>
<path d="M51.25 45.8296H57.2578C57.5781 45.8296 57.8437 45.564 57.8437 45.2437C57.8437 44.9233 57.5781 44.6577 57.2578 44.6577H51.25C50.9297 44.6577 50.6641 44.9233 50.6641 45.2437C50.6641 45.564 50.9297 45.8296 51.25 45.8296Z" fill="#004357"/>
<path d="M59.9922 45.8296H60.3828C60.7031 45.8296 60.9688 45.564 60.9688 45.2437C60.9688 44.9233 60.7031 44.6577 60.3828 44.6577H59.9922C59.6719 44.6577 59.4062 44.9233 59.4062 45.2437C59.4062 45.564 59.6719 45.8296 59.9922 45.8296Z" fill="#004357"/>
<path d="M35.6172 49.2124H44.75C45.0703 49.2124 45.3359 48.9468 45.3359 48.6265C45.3359 48.3062 45.0703 48.0405 44.75 48.0405H35.6172C35.2969 48.0405 35.0312 48.3062 35.0312 48.6265C35.0312 48.9468 35.2891 49.2124 35.6172 49.2124Z" fill="#004357"/>
<path d="M35.6172 52.603H44.75C45.0703 52.603 45.3359 52.3374 45.3359 52.0171C45.3359 51.6968 45.0703 51.4312 44.75 51.4312H35.6172C35.2969 51.4312 35.0312 51.6968 35.0312 52.0171C35.0312 52.3374 35.2891 52.603 35.6172 52.603Z" fill="#004357"/>
<path d="M35.6172 55.9858H42.4062C42.7266 55.9858 42.9922 55.7202 42.9922 55.3999C42.9922 55.0796 42.7266 54.814 42.4062 54.814H35.6172C35.2969 54.814 35.0312 55.0796 35.0312 55.3999C35.0312 55.7202 35.2891 55.9858 35.6172 55.9858Z" fill="#004357"/>
<path d="M38.7422 45.8296H44.75C45.0703 45.8296 45.3359 45.564 45.3359 45.2437C45.3359 44.9233 45.0703 44.6577 44.75 44.6577H38.7422C38.4219 44.6577 38.1562 44.9233 38.1562 45.2437C38.1562 45.564 38.4141 45.8296 38.7422 45.8296Z" fill="#004357"/>
<path d="M35.6172 45.8296H36.0078C36.3281 45.8296 36.5938 45.564 36.5938 45.2437C36.5938 44.9233 36.3281 44.6577 36.0078 44.6577H35.6172C35.2969 44.6577 35.0312 44.9233 35.0312 45.2437C35.0312 45.564 35.2891 45.8296 35.6172 45.8296Z" fill="#004357"/>
<path d="M67.4141 43.9075H64.2266V41.2512C64.2266 40.9309 63.9609 40.6653 63.6406 40.6653H52.6875C50.6484 40.6653 48.875 41.8293 48 43.5247C47.125 41.8293 45.3516 40.6653 43.3125 40.6653H32.3594C32.0391 40.6653 31.7734 40.9309 31.7734 41.2512V43.9075H28.5859C28.2656 43.9075 28 44.1731 28 44.4934V61.5637C28 63.1809 29.3125 64.4934 30.9297 64.4934H38.9063C38.8516 64.8997 38.8203 65.3215 38.8203 65.7434C38.8203 70.8059 42.9375 74.9231 48 74.9231C49.7969 74.9231 51.4766 74.4075 52.8906 73.509L59.4219 80.0403C59.8438 80.4622 60.3906 80.6653 60.9375 80.6653C61.4844 80.6653 62.0391 80.4543 62.4531 80.0403C63.2891 79.2043 63.2891 77.8372 62.4531 77.0012L55.8906 70.4309C56.7109 69.0559 57.1797 67.4543 57.1797 65.7434C57.1797 65.3215 57.1484 64.8997 57.0937 64.4934H65.0703C66.6875 64.4934 68 63.1809 68 61.5637V44.4934C68 44.1731 67.7344 43.9075 67.4141 43.9075ZM52.6875 41.8372H63.0547V57.0481C63.0547 58.0168 62.2656 58.8059 61.2969 58.8059H54.8359C54.5703 58.8059 54.3047 58.8137 54.0391 58.8372C52.5625 57.5403 50.6641 56.7122 48.5859 56.5793V45.9387C48.5859 43.6809 50.4297 41.8372 52.6875 41.8372ZM32.9453 41.8372H43.3125C45.5703 41.8372 47.4141 43.6809 47.4141 45.9387V56.5793C45.3359 56.7122 43.4375 57.5403 41.9609 58.8372C41.6953 58.8137 41.4297 58.8059 41.1641 58.8059H34.7031C33.7344 58.8059 32.9453 58.0168 32.9453 57.0481V41.8372ZM30.9297 63.3215C29.9609 63.3215 29.1719 62.5325 29.1719 61.5637V45.0793H31.7734V57.0481C31.7734 58.6653 33.0859 59.9778 34.7031 59.9778H40.8594C40.0703 60.9465 39.4844 62.0872 39.1406 63.3215H30.9297ZM61.6328 77.8293C62.0156 78.2122 62.0156 78.8293 61.6328 79.2122C61.25 79.595 60.6328 79.595 60.25 79.2122L53.8516 72.8137C54.3516 72.3997 54.8125 71.9309 55.2187 71.4153L61.6328 77.8293ZM48 73.7512C43.5859 73.7512 39.9922 70.1575 39.9922 65.7434C39.9922 61.3293 43.5859 57.7356 48 57.7356C52.4141 57.7356 56.0078 61.3293 56.0078 65.7434C56.0078 70.1575 52.4141 73.7512 48 73.7512ZM66.8281 61.5637C66.8281 62.5325 66.0391 63.3215 65.0703 63.3215H56.8516C56.5156 62.0793 55.9219 60.9465 55.1328 59.9778H61.2891C62.9063 59.9778 64.2188 58.6653 64.2188 57.0481V45.0793H66.8281V61.5637Z" fill="#004357"/>
<path d="M48 58.9077C44.2344 58.9077 41.1641 61.978 41.1641 65.7437C41.1641 69.5093 44.2344 72.5796 48 72.5796C51.7656 72.5796 54.8359 69.5093 54.8359 65.7437C54.8359 61.978 51.7656 58.9077 48 58.9077ZM50.7734 64.5015L47.7031 67.7827C47.5937 67.8999 47.4375 67.9702 47.2734 67.9702C47.1094 67.9702 46.9531 67.8999 46.8437 67.7827L45.2266 66.0562C45.0078 65.8218 45.0156 65.4468 45.2578 65.228C45.4922 65.0093 45.8672 65.0171 46.0859 65.2593L47.2734 66.5327L49.9141 63.7124C50.1328 63.478 50.5078 63.4624 50.7422 63.6812C50.9766 63.8999 50.9922 64.2671 50.7734 64.5015Z" fill="#087084"/>
</g>
<rect x="126.676" y="0.486084" width="110.032" height="39.8188" rx="6.4" fill="#F3F4F6"/>
<rect x="126.676" y="100.486" width="110.032" height="39.8188" rx="6.4" fill="#F3F4F6"/>
<path d="M239.655 16.6805C239.248 16.6805 238.919 17.0104 238.919 17.4172C238.919 17.8241 239.248 18.1539 239.655 18.1539V16.6805ZM251.963 17.9382C252.251 17.6505 252.251 17.184 251.963 16.8963L247.275 12.2081C246.987 11.9204 246.521 11.9204 246.233 12.2081C245.945 12.4957 245.945 12.9622 246.233 13.2499L250.4 17.4172L246.233 21.5846C245.945 21.8723 245.945 22.3387 246.233 22.6264C246.521 22.9141 246.987 22.9141 247.275 22.6264L251.963 17.9382ZM241.129 18.1539C241.536 18.1539 241.865 17.8241 241.865 17.4172C241.865 17.0104 241.536 16.6805 241.129 16.6805V18.1539ZM244.075 16.6805C243.669 16.6805 243.339 17.0104 243.339 17.4172C243.339 17.8241 243.669 18.1539 244.075 18.1539V16.6805ZM247.022 18.1539C247.429 18.1539 247.759 17.8241 247.759 17.4172C247.759 17.0104 247.429 16.6805 247.022 16.6805V18.1539ZM249.969 16.6805C249.562 16.6805 249.232 17.0104 249.232 17.4172C249.232 17.8241 249.562 18.1539 249.969 18.1539V16.6805ZM239.655 18.1539H241.129V16.6805H239.655V18.1539ZM244.075 18.1539H247.022V16.6805H244.075V18.1539ZM249.969 18.1539H251.442V16.6805H249.969V18.1539Z" fill="#BED73C"/>
<path d="M367.103 16.6805C366.696 16.6805 366.366 17.0104 366.366 17.4172C366.366 17.8241 366.696 18.1539 367.103 18.1539V16.6805ZM379.41 17.9382C379.698 17.6505 379.698 17.184 379.41 16.8963L374.722 12.2081C374.435 11.9204 373.968 11.9204 373.68 12.2081C373.393 12.4957 373.393 12.9622 373.68 13.2499L377.848 17.4172L373.68 21.5846C373.393 21.8723 373.393 22.3387 373.68 22.6264C373.968 22.9141 374.435 22.9141 374.722 22.6264L379.41 17.9382ZM368.576 18.1539C368.983 18.1539 369.313 17.8241 369.313 17.4172C369.313 17.0104 368.983 16.6805 368.576 16.6805V18.1539ZM371.523 16.6805C371.116 16.6805 370.786 17.0104 370.786 17.4172C370.786 17.8241 371.116 18.1539 371.523 18.1539V16.6805ZM374.469 18.1539C374.876 18.1539 375.206 17.8241 375.206 17.4172C375.206 17.0104 374.876 16.6805 374.469 16.6805V18.1539ZM377.416 16.6805C377.009 16.6805 376.68 17.0104 376.68 17.4172C376.68 17.8241 377.009 18.1539 377.416 18.1539V16.6805ZM367.103 18.1539H368.576V16.6805H367.103V18.1539ZM371.523 18.1539H374.469V16.6805H371.523V18.1539ZM377.416 18.1539H378.89V16.6805H377.416V18.1539Z" fill="#BED73C"/>
<path d="M494.55 16.6805C494.143 16.6805 493.813 17.0104 493.813 17.4172C493.813 17.8241 494.143 18.1539 494.55 18.1539V16.6805ZM506.858 17.9382C507.145 17.6505 507.145 17.184 506.858 16.8963L502.169 12.2081C501.882 11.9204 501.415 11.9204 501.128 12.2081C500.84 12.4957 500.84 12.9622 501.128 13.2499L505.295 17.4172L501.128 21.5846C500.84 21.8723 500.84 22.3387 501.128 22.6264C501.415 22.9141 501.882 22.9141 502.169 22.6264L506.858 17.9382ZM496.023 18.1539C496.43 18.1539 496.76 17.8241 496.76 17.4172C496.76 17.0104 496.43 16.6805 496.023 16.6805V18.1539ZM498.97 16.6805C498.563 16.6805 498.233 17.0104 498.233 17.4172C498.233 17.8241 498.563 18.1539 498.97 18.1539V16.6805ZM501.917 18.1539C502.324 18.1539 502.653 17.8241 502.653 17.4172C502.653 17.0104 502.324 16.6805 501.917 16.6805V18.1539ZM504.863 16.6805C504.457 16.6805 504.127 17.0104 504.127 17.4172C504.127 17.8241 504.457 18.1539 504.863 18.1539V16.6805ZM494.55 18.1539H496.023V16.6805H494.55V18.1539ZM498.97 18.1539H501.917V16.6805H498.97V18.1539ZM504.863 18.1539H506.337V16.6805H504.863V18.1539Z" fill="#BED73C"/>
<rect x="254.389" y="0.486084" width="110.032" height="33.8247" rx="6.4" fill="#F3F4F6"/>
<rect x="381.389" y="0.486084" width="110.032" height="33.8247" rx="6.4" fill="#F3F4F6"/>
<path d="M239.655 124.623C239.248 124.623 238.919 124.953 238.919 125.36C238.919 125.767 239.248 126.097 239.655 126.097V124.623ZM251.963 125.881C252.251 125.593 252.251 125.127 251.963 124.839L247.275 120.151C246.987 119.863 246.521 119.863 246.233 120.151C245.945 120.439 245.945 120.905 246.233 121.193L250.4 125.36L246.233 129.527C245.945 129.815 245.945 130.282 246.233 130.569C246.521 130.857 246.987 130.857 247.275 130.569L251.963 125.881ZM241.129 126.097C241.536 126.097 241.865 125.767 241.865 125.36C241.865 124.953 241.536 124.623 241.129 124.623V126.097ZM244.075 124.623C243.669 124.623 243.339 124.953 243.339 125.36C243.339 125.767 243.669 126.097 244.075 126.097V124.623ZM247.022 126.097C247.429 126.097 247.759 125.767 247.759 125.36C247.759 124.953 247.429 124.623 247.022 124.623V126.097ZM249.969 124.623C249.562 124.623 249.232 124.953 249.232 125.36C249.232 125.767 249.562 126.097 249.969 126.097V124.623ZM239.655 126.097H241.129V124.623H239.655V126.097ZM244.075 126.097H247.022V124.623H244.075V126.097ZM249.969 126.097H251.442V124.623H249.969V126.097Z" fill="#BED73C"/>
<path d="M367.103 124.623C366.696 124.623 366.366 124.953 366.366 125.36C366.366 125.767 366.696 126.097 367.103 126.097V124.623ZM379.41 125.881C379.698 125.593 379.698 125.127 379.41 124.839L374.722 120.151C374.435 119.863 373.968 119.863 373.68 120.151C373.393 120.439 373.393 120.905 373.68 121.193L377.848 125.36L373.68 129.527C373.393 129.815 373.393 130.282 373.68 130.569C373.968 130.857 374.435 130.857 374.722 130.569L379.41 125.881ZM368.576 126.097C368.983 126.097 369.313 125.767 369.313 125.36C369.313 124.953 368.983 124.623 368.576 124.623V126.097ZM371.523 124.623C371.116 124.623 370.786 124.953 370.786 125.36C370.786 125.767 371.116 126.097 371.523 126.097V124.623ZM374.469 126.097C374.876 126.097 375.206 125.767 375.206 125.36C375.206 124.953 374.876 124.623 374.469 124.623V126.097ZM377.416 124.623C377.009 124.623 376.68 124.953 376.68 125.36C376.68 125.767 377.009 126.097 377.416 126.097V124.623ZM367.103 126.097H368.576V124.623H367.103V126.097ZM371.523 126.097H374.469V124.623H371.523V126.097ZM377.416 126.097H378.89V124.623H377.416V126.097Z" fill="#BED73C"/>
<path d="M494.55 124.623C494.143 124.623 493.813 124.953 493.813 125.36C493.813 125.767 494.143 126.097 494.55 126.097V124.623ZM506.858 125.881C507.145 125.593 507.145 125.127 506.858 124.839L502.169 120.151C501.882 119.863 501.415 119.863 501.128 120.151C500.84 120.439 500.84 120.905 501.128 121.193L505.295 125.36L501.128 129.527C500.84 129.815 500.84 130.282 501.128 130.569C501.415 130.857 501.882 130.857 502.169 130.569L506.858 125.881ZM496.023 126.097C496.43 126.097 496.76 125.767 496.76 125.36C496.76 124.953 496.43 124.623 496.023 124.623V126.097ZM498.97 124.623C498.563 124.623 498.233 124.953 498.233 125.36C498.233 125.767 498.563 126.097 498.97 126.097V124.623ZM501.917 126.097C502.324 126.097 502.653 125.767 502.653 125.36C502.653 124.953 502.324 124.623 501.917 124.623V126.097ZM504.863 124.623C504.457 124.623 504.127 124.953 504.127 125.36C504.127 125.767 504.457 126.097 504.863 126.097V124.623ZM494.55 126.097H496.023V124.623H494.55V126.097ZM498.97 126.097H501.917V124.623H498.97V126.097ZM504.863 126.097H506.337V124.623H504.863V126.097Z" fill="#BED73C"/>
<rect x="254.389" y="102.486" width="110.032" height="45.2676" rx="6.4" fill="#F3F4F6"/>
<rect x="381.389" y="108.486" width="110.032" height="33.8247" rx="6.4" fill="#F3F4F6"/>
<path d="M564.687 42.7308C564.399 42.4431 563.933 42.4431 563.645 42.7308L558.957 47.4191C558.669 47.7068 558.669 48.1732 558.957 48.4609C559.245 48.7486 559.711 48.7486 559.999 48.4609L564.166 44.2935L568.333 48.4609C568.621 48.7486 569.088 48.7486 569.375 48.4609C569.663 48.1732 569.663 47.7068 569.375 47.4191L564.687 42.7308ZM563.429 44.7677C563.429 45.1745 563.759 45.5043 564.166 45.5043C564.573 45.5043 564.903 45.1745 564.903 44.7677L563.429 44.7677ZM564.903 47.7995C564.903 47.3927 564.573 47.0629 564.166 47.0629C563.759 47.0629 563.429 47.3927 563.429 47.7995L564.903 47.7995ZM563.429 50.8314C563.429 51.2383 563.759 51.5681 564.166 51.5681C564.573 51.5681 564.903 51.2383 564.903 50.8314L563.429 50.8314ZM564.903 53.8633C564.903 53.4565 564.573 53.1266 564.166 53.1266C563.759 53.1266 563.429 53.4565 563.429 53.8633L564.903 53.8633ZM563.429 56.8952C563.429 57.3021 563.759 57.6319 564.166 57.6319C564.573 57.6319 564.903 57.3021 564.903 56.8952L563.429 56.8952ZM564.903 59.9271C564.903 59.5202 564.573 59.1904 564.166 59.1904C563.759 59.1904 563.429 59.5202 563.429 59.9271L564.903 59.9271ZM563.429 62.959C563.429 63.3658 563.759 63.6957 564.166 63.6957C564.573 63.6957 564.903 63.3658 564.903 62.959L563.429 62.959ZM564.903 65.9909C564.903 65.584 564.573 65.2542 564.166 65.2542C563.759 65.2542 563.429 65.584 563.429 65.9909L564.903 65.9909ZM563.429 69.0228C563.429 69.4296 563.759 69.7594 564.166 69.7594C564.573 69.7594 564.903 69.4296 564.903 69.0228L563.429 69.0228ZM564.903 72.0546C564.903 71.6478 564.573 71.3179 564.166 71.3179C563.759 71.3179 563.429 71.6478 563.429 72.0546L564.903 72.0546ZM563.429 75.0865C563.429 75.4934 563.759 75.8232 564.166 75.8232C564.573 75.8232 564.903 75.4934 564.903 75.0865L563.429 75.0865ZM564.903 78.1184C564.903 77.7116 564.573 77.3817 564.166 77.3817C563.759 77.3817 563.429 77.7116 563.429 78.1184L564.903 78.1184ZM563.429 81.1503C563.429 81.5572 563.759 81.887 564.166 81.887C564.573 81.887 564.903 81.5572 564.903 81.1503L563.429 81.1503ZM564.903 84.1822C564.903 83.7753 564.573 83.4455 564.166 83.4455C563.759 83.4455 563.429 83.7753 563.429 84.1822L564.903 84.1822ZM563.429 87.2141C563.429 87.6209 563.759 87.9508 564.166 87.9508C564.573 87.9508 564.903 87.6209 564.903 87.2141L563.429 87.2141ZM564.903 90.246C564.903 89.8391 564.573 89.5093 564.166 89.5093C563.759 89.5093 563.429 89.8391 563.429 90.246L564.903 90.246ZM563.429 93.2778C563.429 93.6847 563.759 94.0145 564.166 94.0145C564.573 94.0145 564.903 93.6847 564.903 93.2778L563.429 93.2778ZM564.903 96.3097C564.903 95.9029 564.573 95.573 564.166 95.573C563.759 95.573 563.429 95.9029 563.429 96.3097L564.903 96.3097ZM563.429 43.2517L563.429 44.7677L564.903 44.7677L564.903 43.2517L563.429 43.2517ZM563.429 47.7995L563.429 50.8314L564.903 50.8314L564.903 47.7995L563.429 47.7995ZM563.429 53.8633L563.429 56.8952L564.903 56.8952L564.903 53.8633L563.429 53.8633ZM563.429 59.9271L563.429 62.959L564.903 62.959L564.903 59.9271L563.429 59.9271ZM563.429 65.9909L563.429 69.0228L564.903 69.0228L564.903 65.9909L563.429 65.9909ZM563.429 72.0546L563.429 75.0865L564.903 75.0865L564.903 72.0546L563.429 72.0546ZM563.429 78.1184L563.429 81.1503L564.903 81.1503L564.903 78.1184L563.429 78.1184ZM563.429 84.1822L563.429 87.2141L564.903 87.2141L564.903 84.1822L563.429 84.1822ZM563.429 90.246L563.429 93.2778L564.903 93.2778L564.903 90.246L563.429 90.246ZM563.429 96.3097L563.429 97.8257L564.903 97.8257L564.903 96.3097L563.429 96.3097Z" fill="#BED73C"/>
<rect x="509.389" y="0.486084" width="110.032" height="39.8188" rx="6.4" fill="#F3F4F6"/>
<rect x="509.389" y="100.486" width="110.032" height="39.8188" rx="6.4" fill="#F3F4F6"/>
<path d="M603.395 47.376C603.395 46.9691 603.725 46.6393 604.132 46.6393C604.539 46.6393 604.869 46.9691 604.869 47.376L603.395 47.376ZM615.403 73.6615C615.69 73.9492 615.69 74.4156 615.403 74.7033L610.714 79.3916C610.427 79.6793 609.96 79.6793 609.673 79.3916C609.385 79.1039 609.385 78.6375 609.673 78.3498L613.84 74.1824L609.673 70.0151C609.385 69.7274 609.385 69.2609 609.673 68.9732C609.96 68.6855 610.427 68.6855 610.714 68.9732L615.403 73.6615ZM604.869 48.683C604.869 49.0899 604.539 49.4197 604.132 49.4197C603.725 49.4197 603.395 49.0899 603.395 48.683L604.869 48.683ZM603.395 51.2972C603.395 50.8903 603.725 50.5605 604.132 50.5605C604.539 50.5605 604.869 50.8903 604.869 51.2972L603.395 51.2972ZM604.869 53.9113C604.869 54.3181 604.539 54.648 604.132 54.648C603.725 54.648 603.395 54.3181 603.395 53.9113L604.869 53.9113ZM603.395 56.5254C603.395 56.1185 603.725 55.7887 604.132 55.7887C604.539 55.7887 604.869 56.1185 604.869 56.5254L603.395 56.5254ZM604.869 59.1395C604.869 59.5464 604.539 59.8762 604.132 59.8762C603.725 59.8762 603.395 59.5464 603.395 59.1395L604.869 59.1395ZM603.395 61.7536C603.395 61.3468 603.725 61.0169 604.132 61.0169C604.539 61.0169 604.869 61.3468 604.869 61.7536L603.395 61.7536ZM604.869 64.3677C604.869 64.7746 604.539 65.1044 604.132 65.1044C603.725 65.1044 603.395 64.7746 603.395 64.3677L604.869 64.3677ZM603.395 66.9819C603.395 66.575 603.725 66.2452 604.132 66.2452C604.539 66.2452 604.869 66.575 604.869 66.9819L603.395 66.9819ZM604.967 69.2961C605.046 69.6953 604.786 70.0828 604.387 70.1618C603.988 70.2407 603.6 69.9812 603.521 69.5821L604.967 69.2961ZM604.512 71.9733C604.286 71.6352 604.377 71.1776 604.715 70.9513C605.053 70.7249 605.51 70.8155 605.737 71.1536L604.512 71.9733ZM607.161 72.5776C607.499 72.8039 607.589 73.2615 607.363 73.5996C607.137 73.9377 606.679 74.0283 606.341 73.8019L607.161 72.5776ZM608.732 74.7929C608.333 74.714 608.074 74.3264 608.152 73.9273C608.231 73.5281 608.619 73.2686 609.018 73.3476L608.732 74.7929ZM611.239 73.4457C611.646 73.4457 611.976 73.7756 611.976 74.1824C611.976 74.5893 611.646 74.9191 611.239 74.9191L611.239 73.4457ZM613.668 74.9191C613.261 74.9191 612.931 74.5893 612.931 74.1824C612.931 73.7756 613.261 73.4457 613.668 73.4457L613.668 74.9191ZM604.869 47.376L604.869 48.683L603.395 48.683L603.395 47.376L604.869 47.376ZM604.869 51.2972L604.869 53.9113L603.395 53.9113L603.395 51.2972L604.869 51.2972ZM604.869 56.5254L604.869 59.1395L603.395 59.1395L603.395 56.5254L604.869 56.5254ZM604.869 61.7536L604.869 64.3677L603.395 64.3677L603.395 61.7536L604.869 61.7536ZM604.869 66.9819L604.869 68.2889L603.395 68.2889L603.395 66.9819L604.869 66.9819ZM604.869 68.2889C604.869 68.6343 604.902 68.971 604.967 69.2961L603.521 69.5821C603.438 69.1632 603.395 68.7308 603.395 68.2889L604.869 68.2889ZM605.737 71.1536C606.113 71.7163 606.598 72.2009 607.161 72.5776L606.341 73.8019C605.618 73.3181 604.996 72.696 604.512 71.9733L605.737 71.1536ZM609.018 73.3476C609.343 73.4119 609.68 73.4457 610.025 73.4457L610.025 74.9191C609.583 74.9191 609.151 74.8758 608.732 74.7929L609.018 73.3476ZM610.025 73.4457L611.239 73.4457L611.239 74.9191L610.025 74.9191L610.025 73.4457ZM613.668 73.4457L614.882 73.4457L614.882 74.9191L613.668 74.9191L613.668 73.4457Z" fill="#BED73C"/>
<rect x="623" y="26.1387" width="96" height="96.0004" rx="48" fill="#F3F4F6"/>
<g clip-path="url(#clip1_6289_198569)">
<path d="M678.296 47.0872L672.046 40.8372C671.937 40.7278 671.788 40.6653 671.632 40.6653H651.319C650.999 40.6653 650.733 40.9309 650.733 41.2512V80.0793C650.733 80.3997 650.999 80.6653 651.319 80.6653H677.882C678.202 80.6653 678.468 80.3997 678.468 80.0793V47.5012C678.468 47.345 678.405 47.1965 678.296 47.0872ZM672.218 42.6653L676.468 46.9153H672.218V42.6653ZM651.905 79.4934V41.8372H671.046V47.5012C671.046 47.8215 671.312 48.0872 671.632 48.0872H677.296V79.4934H651.905Z" fill="#004357"/>
<path d="M674.757 50.0405H654.444C654.124 50.0405 653.858 50.3062 653.858 50.6265V53.7515C653.858 54.0718 654.124 54.3374 654.444 54.3374H674.757C675.077 54.3374 675.343 54.0718 675.343 53.7515V50.6265C675.343 50.3062 675.077 50.0405 674.757 50.0405ZM674.171 53.1655H655.03V51.2124H674.171V53.1655Z" fill="#004357"/>
<path d="M654.444 63.7124H660.694C661.015 63.7124 661.28 63.4468 661.28 63.1265V56.8765C661.28 56.5562 661.015 56.2905 660.694 56.2905H654.444C654.124 56.2905 653.858 56.5562 653.858 56.8765V63.1265C653.858 63.4468 654.124 63.7124 654.444 63.7124ZM655.03 57.4624H660.108V62.5405H655.03V57.4624Z" fill="#004357"/>
<path d="M674.757 56.2905H666.163C665.843 56.2905 665.577 56.5562 665.577 56.8765C665.577 57.1968 665.843 57.4624 666.163 57.4624H674.757C675.077 57.4624 675.343 57.1968 675.343 56.8765C675.343 56.5562 675.077 56.2905 674.757 56.2905Z" fill="#004357"/>
<path d="M663.819 57.4624H664.21C664.53 57.4624 664.796 57.1968 664.796 56.8765C664.796 56.5562 664.53 56.2905 664.21 56.2905H663.819C663.499 56.2905 663.233 56.5562 663.233 56.8765C663.233 57.1968 663.499 57.4624 663.819 57.4624Z" fill="#004357"/>
<path d="M674.757 59.4155H663.819C663.499 59.4155 663.233 59.6812 663.233 60.0015C663.233 60.3218 663.499 60.5874 663.819 60.5874H674.757C675.077 60.5874 675.343 60.3218 675.343 60.0015C675.343 59.6812 675.077 59.4155 674.757 59.4155Z" fill="#004357"/>
<path d="M674.757 62.5405H663.819C663.499 62.5405 663.233 62.8062 663.233 63.1265C663.233 63.4468 663.499 63.7124 663.819 63.7124H674.757C675.077 63.7124 675.343 63.4468 675.343 63.1265C675.343 62.8062 675.077 62.5405 674.757 62.5405Z" fill="#004357"/>
<path d="M674.757 65.6655H659.132C658.812 65.6655 658.546 65.9312 658.546 66.2515C658.546 66.5718 658.812 66.8374 659.132 66.8374H674.757C675.077 66.8374 675.343 66.5718 675.343 66.2515C675.343 65.9312 675.077 65.6655 674.757 65.6655Z" fill="#004357"/>
<path d="M654.444 66.8374H657.179C657.499 66.8374 657.765 66.5718 657.765 66.2515C657.765 65.9312 657.499 65.6655 657.179 65.6655H654.444C654.124 65.6655 653.858 65.9312 653.858 66.2515C653.858 66.5718 654.124 66.8374 654.444 66.8374Z" fill="#004357"/>
<path d="M674.757 68.7905H654.444C654.124 68.7905 653.858 69.0562 653.858 69.3765C653.858 69.6968 654.124 69.9624 654.444 69.9624H674.757C675.077 69.9624 675.343 69.6968 675.343 69.3765C675.343 69.0562 675.077 68.7905 674.757 68.7905Z" fill="#004357"/>
<path d="M674.757 71.6812H668.507C668.187 71.6812 667.921 71.9468 667.921 72.2671V76.9546C667.921 77.2749 668.187 77.5405 668.507 77.5405H674.757C675.077 77.5405 675.343 77.2749 675.343 76.9546V72.2671C675.343 71.9468 675.077 71.6812 674.757 71.6812ZM674.171 76.3687H669.093V72.853H674.171V76.3687Z" fill="#004357"/>
<path d="M663.819 71.6812H654.444C654.124 71.6812 653.858 71.9468 653.858 72.2671V76.9546C653.858 77.2749 654.124 77.5405 654.444 77.5405H663.819C664.14 77.5405 664.405 77.2749 664.405 76.9546V72.2671C664.405 71.9468 664.14 71.6812 663.819 71.6812ZM663.233 76.3687H655.03V72.853H663.233V76.3687Z" fill="#004357"/>
<path d="M688.585 47.4856H687.608V46.2903H682.921V63.8684H687.608V48.6575H688.585C689.124 48.6575 689.562 49.095 689.562 49.634V57.4465C689.562 57.7668 689.827 58.0325 690.147 58.0325C690.468 58.0325 690.733 57.7668 690.733 57.4465V49.634C690.733 48.4543 689.772 47.4856 688.585 47.4856Z" fill="#087084"/>
<path d="M687.022 42.4231C687.022 41.4543 686.233 40.6653 685.265 40.6653C684.296 40.6653 683.507 41.4543 683.507 42.4231V45.1184H687.022V42.4231Z" fill="#087084"/>
<path d="M683.507 76.5637C683.507 77.9465 683.968 79.3215 684.796 80.4309C684.905 80.5793 685.077 80.6653 685.265 80.6653C685.452 80.6653 685.624 80.5793 685.733 80.4309C686.562 79.3215 687.022 77.9465 687.022 76.5637V65.0403H683.507V76.5637Z" fill="#087084"/>
<path d="M680.146 63.0248C676.055 63.0248 672.721 66.3585 672.721 70.449C672.721 74.5395 676.055 77.8731 680.146 77.8731C684.236 77.8731 687.57 74.5395 687.57 70.449C687.57 66.3585 684.236 63.0248 680.146 63.0248Z" fill="#087084" stroke="#F3F4F6" stroke-width="1.17647"/>
</g>
<defs>
<clipPath id="clip0_6289_198569">
<rect width="40" height="40" fill="white" transform="translate(28 40.6653)"/>
</clipPath>
<clipPath id="clip1_6289_198569">
<rect width="40" height="40" fill="white" transform="translate(650.733 40.6653)"/>
</clipPath>
</defs>
</svg>
