<svg width="900" height="185" viewBox="0 0 900 185" fill="none" xmlns="http://www.w3.org/2000/svg">
<path d="M124.604 91.5839C124.096 91.5839 123.684 91.9962 123.684 92.5048C123.684 93.0133 124.096 93.4256 124.604 93.4256V91.5839ZM154.723 27.7747C155.083 27.4151 155.083 26.832 154.723 26.4724L148.863 20.6121C148.503 20.2524 147.92 20.2524 147.561 20.6121C147.201 20.9717 147.201 21.5547 147.561 21.9144L152.77 27.1235L147.561 32.3327C147.201 32.6923 147.201 33.2754 147.561 33.635C147.92 33.9946 148.503 33.9946 148.863 33.635L154.723 27.7747ZM126.519 93.4256C127.027 93.4256 127.439 93.0133 127.439 92.5048C127.439 91.9962 127.027 91.5839 126.519 91.5839V93.4256ZM130.347 91.5839C129.838 91.5839 129.426 91.9962 129.426 92.5048C129.426 93.0133 129.838 93.4256 130.347 93.4256V91.5839ZM133.877 93.2679C134.376 93.1692 134.7 92.6847 134.602 92.1858C134.503 91.6869 134.018 91.3625 133.52 91.4612L133.877 93.2679ZM135.841 90.4987C135.419 90.7816 135.306 91.3536 135.588 91.7762C135.871 92.1988 136.443 92.3121 136.866 92.0291L135.841 90.4987ZM139.152 89.7433C139.435 89.3207 139.322 88.7487 138.899 88.4658C138.476 88.1829 137.904 88.2961 137.621 88.7187L139.152 89.7433ZM138.584 86.3969C138.485 86.8958 138.81 87.3803 139.309 87.479C139.807 87.5777 140.292 87.2532 140.391 86.7543L138.584 86.3969ZM140.548 83.329C140.548 82.8204 140.136 82.4082 139.627 82.4082C139.119 82.4082 138.707 82.8204 138.707 83.329H140.548ZM138.707 79.7113C138.707 80.2199 139.119 80.6322 139.627 80.6322C140.136 80.6322 140.548 80.2199 140.548 79.7113H138.707ZM140.548 76.0937C140.548 75.5851 140.136 75.1728 139.627 75.1728C139.119 75.1728 138.707 75.5851 138.707 76.0937H140.548ZM138.707 72.476C138.707 72.9846 139.119 73.3969 139.627 73.3969C140.136 73.3969 140.548 72.9846 140.548 72.476H138.707ZM140.548 68.8583C140.548 68.3498 140.136 67.9375 139.627 67.9375C139.119 67.9375 138.707 68.3498 138.707 68.8583H140.548ZM138.707 65.2407C138.707 65.7492 139.119 66.1615 139.627 66.1615C140.136 66.1615 140.548 65.7492 140.548 65.2407H138.707ZM140.548 61.623C140.548 61.1144 140.136 60.7021 139.627 60.7021C139.119 60.7021 138.707 61.1144 138.707 61.623H140.548ZM138.707 58.0053C138.707 58.5139 139.119 58.9262 139.627 58.9262C140.136 58.9262 140.548 58.5139 140.548 58.0053H138.707ZM140.548 54.3876C140.548 53.8791 140.136 53.4668 139.627 53.4668C139.119 53.4668 138.707 53.8791 138.707 54.3876H140.548ZM138.707 50.77C138.707 51.2785 139.119 51.6908 139.627 51.6908C140.136 51.6908 140.548 51.2785 140.548 50.77H138.707ZM140.548 47.1523C140.548 46.6437 140.136 46.2314 139.627 46.2314C139.119 46.2314 138.707 46.6437 138.707 47.1523H140.548ZM138.707 43.5346C138.707 44.0432 139.119 44.4555 139.627 44.4555C140.136 44.4555 140.548 44.0432 140.548 43.5346H138.707ZM140.548 39.9169C140.548 39.4084 140.136 38.9961 139.627 38.9961C139.119 38.9961 138.707 39.4084 138.707 39.9169H140.548ZM138.707 36.2993C138.707 36.8079 139.119 37.2201 139.627 37.2201C140.136 37.2201 140.548 36.8079 140.548 36.2993H138.707ZM140.671 33.2314C140.77 32.7325 140.445 32.248 139.946 32.1493C139.447 32.0506 138.963 32.3751 138.864 32.874L140.671 33.2314ZM140.103 29.885C139.82 30.3076 139.933 30.8795 140.356 31.1625C140.779 31.4454 141.351 31.3322 141.633 30.9096L140.103 29.885ZM143.413 29.1296C143.836 28.8467 143.949 28.2747 143.666 27.8521C143.383 27.4295 142.811 27.3162 142.389 27.5992L143.413 29.1296ZM145.378 26.3604C144.879 26.4591 144.555 26.9436 144.653 27.4425C144.752 27.9414 145.236 28.2658 145.735 28.1671L145.378 26.3604ZM148.764 28.0444C149.272 28.0444 149.685 27.6321 149.685 27.1235C149.685 26.615 149.272 26.2027 148.764 26.2027V28.0444ZM152.303 26.2027C151.794 26.2027 151.382 26.615 151.382 27.1235C151.382 27.6321 151.794 28.0444 152.303 28.0444V26.2027ZM124.604 93.4256H126.519V91.5839H124.604V93.4256ZM130.347 93.4256H132.261V91.5839H130.347V93.4256ZM132.261 93.4256C132.813 93.4256 133.353 93.3715 133.877 93.2679L133.52 91.4612C133.113 91.5416 132.692 91.5839 132.261 91.5839V93.4256ZM136.866 92.0291C137.769 91.4243 138.547 90.6467 139.152 89.7433L137.621 88.7187C137.151 89.4221 136.545 90.0278 135.841 90.4987L136.866 92.0291ZM140.391 86.7543C140.494 86.2308 140.548 85.6902 140.548 85.1379H138.707C138.707 85.5695 138.664 85.9904 138.584 86.3969L140.391 86.7543ZM140.548 85.1379V83.329H138.707V85.1379H140.548ZM140.548 79.7113V76.0937H138.707V79.7113H140.548ZM140.548 72.476V68.8583H138.707V72.476H140.548ZM140.548 65.2407V61.623H138.707V65.2407H140.548ZM140.548 58.0053V54.3876H138.707V58.0053H140.548ZM140.548 50.77V47.1523H138.707V50.77H140.548ZM140.548 43.5346V39.9169H138.707V43.5346H140.548ZM140.548 36.2993V34.4904H138.707V36.2993H140.548ZM140.548 34.4904C140.548 34.0588 140.591 33.6379 140.671 33.2314L138.864 32.874C138.761 33.3975 138.707 33.9381 138.707 34.4904H140.548ZM141.633 30.9096C142.104 30.2062 142.71 29.6005 143.413 29.1296L142.389 27.5992C141.485 28.204 140.708 28.9816 140.103 29.885L141.633 30.9096ZM145.735 28.1671C146.142 28.0867 146.563 28.0444 146.994 28.0444V26.2027C146.442 26.2027 145.901 26.2568 145.378 26.3604L145.735 28.1671ZM146.994 28.0444H148.764V26.2027H146.994V28.0444ZM152.303 28.0444H154.072V26.2027H152.303V28.0444Z" fill="#BED73C"/>
<path d="M124.604 93.4254C124.096 93.4254 123.684 93.0131 123.684 92.5045C123.684 91.9959 124.096 91.5837 124.604 91.5837V93.4254ZM154.723 157.235C155.083 157.594 155.083 158.177 154.723 158.537L148.863 164.397C148.503 164.757 147.92 164.757 147.561 164.397C147.201 164.038 147.201 163.455 147.561 163.095L152.77 157.886L147.561 152.677C147.201 152.317 147.201 151.734 147.561 151.374C147.92 151.015 148.503 151.015 148.863 151.374L154.723 157.235ZM126.519 91.5837C127.027 91.5837 127.439 91.9959 127.439 92.5045C127.439 93.0131 127.027 93.4254 126.519 93.4254V91.5837ZM130.347 93.4254C129.838 93.4254 129.426 93.0131 129.426 92.5045C129.426 91.9959 129.838 91.5837 130.347 91.5837V93.4254ZM133.877 91.7414C134.376 91.8401 134.7 92.3245 134.602 92.8235C134.503 93.3224 134.018 93.6468 133.52 93.5481L133.877 91.7414ZM135.841 94.5106C135.419 94.2276 135.306 93.6557 135.588 93.2331C135.871 92.8105 136.443 92.6972 136.866 92.9802L135.841 94.5106ZM139.152 95.266C139.435 95.6886 139.322 96.2605 138.899 96.5435C138.476 96.8264 137.904 96.7132 137.621 96.2905L139.152 95.266ZM138.584 98.6124C138.485 98.1135 138.81 97.629 139.309 97.5303C139.807 97.4316 140.292 97.7561 140.391 98.255L138.584 98.6124ZM140.548 101.68C140.548 102.189 140.136 102.601 139.627 102.601C139.119 102.601 138.707 102.189 138.707 101.68H140.548ZM138.707 105.298C138.707 104.789 139.119 104.377 139.627 104.377C140.136 104.377 140.548 104.789 140.548 105.298H138.707ZM140.548 108.916C140.548 109.424 140.136 109.836 139.627 109.836C139.119 109.836 138.707 109.424 138.707 108.916H140.548ZM138.707 112.533C138.707 112.025 139.119 111.612 139.627 111.612C140.136 111.612 140.548 112.025 140.548 112.533H138.707ZM140.548 116.151C140.548 116.66 140.136 117.072 139.627 117.072C139.119 117.072 138.707 116.66 138.707 116.151H140.548ZM138.707 119.769C138.707 119.26 139.119 118.848 139.627 118.848C140.136 118.848 140.548 119.26 140.548 119.769H138.707ZM140.548 123.386C140.548 123.895 140.136 124.307 139.627 124.307C139.119 124.307 138.707 123.895 138.707 123.386H140.548ZM138.707 127.004C138.707 126.495 139.119 126.083 139.627 126.083C140.136 126.083 140.548 126.495 140.548 127.004H138.707ZM140.548 130.622C140.548 131.13 140.136 131.543 139.627 131.543C139.119 131.543 138.707 131.13 138.707 130.622H140.548ZM138.707 134.239C138.707 133.731 139.119 133.318 139.627 133.318C140.136 133.318 140.548 133.731 140.548 134.239H138.707ZM140.548 137.857C140.548 138.366 140.136 138.778 139.627 138.778C139.119 138.778 138.707 138.366 138.707 137.857H140.548ZM138.707 141.475C138.707 140.966 139.119 140.554 139.627 140.554C140.136 140.554 140.548 140.966 140.548 141.475H138.707ZM140.548 145.092C140.548 145.601 140.136 146.013 139.627 146.013C139.119 146.013 138.707 145.601 138.707 145.092H140.548ZM138.707 148.71C138.707 148.201 139.119 147.789 139.627 147.789C140.136 147.789 140.548 148.201 140.548 148.71H138.707ZM140.671 151.778C140.77 152.277 140.445 152.761 139.946 152.86C139.447 152.959 138.963 152.634 138.864 152.135L140.671 151.778ZM140.103 155.124C139.82 154.702 139.933 154.13 140.356 153.847C140.779 153.564 141.351 153.677 141.633 154.1L140.103 155.124ZM143.413 155.88C143.836 156.163 143.949 156.735 143.666 157.157C143.383 157.58 142.811 157.693 142.389 157.41L143.413 155.88ZM145.378 158.649C144.879 158.55 144.555 158.066 144.653 157.567C144.752 157.068 145.236 156.743 145.735 156.842L145.378 158.649ZM148.764 156.965C149.272 156.965 149.685 157.377 149.685 157.886C149.685 158.394 149.272 158.807 148.764 158.807V156.965ZM152.303 158.807C151.794 158.807 151.382 158.394 151.382 157.886C151.382 157.377 151.794 156.965 152.303 156.965V158.807ZM124.604 91.5837H126.519V93.4254H124.604V91.5837ZM130.347 91.5837H132.261V93.4254H130.347V91.5837ZM132.261 91.5837C132.813 91.5837 133.353 91.6378 133.877 91.7414L133.52 93.5481C133.113 93.4677 132.692 93.4254 132.261 93.4254V91.5837ZM136.866 92.9802C137.769 93.585 138.547 94.3626 139.152 95.266L137.621 96.2905C137.151 95.5872 136.545 94.9814 135.841 94.5106L136.866 92.9802ZM140.391 98.255C140.494 98.7785 140.548 99.3191 140.548 99.8714H138.707C138.707 99.4397 138.664 99.0189 138.584 98.6124L140.391 98.255ZM140.548 99.8714V101.68H138.707V99.8714H140.548ZM140.548 105.298V108.916H138.707V105.298H140.548ZM140.548 112.533V116.151H138.707V112.533H140.548ZM140.548 119.769V123.386H138.707V119.769H140.548ZM140.548 127.004V130.622H138.707V127.004H140.548ZM140.548 134.239V137.857H138.707V134.239H140.548ZM140.548 141.475V145.092H138.707V141.475H140.548ZM140.548 148.71V150.519H138.707V148.71H140.548ZM140.548 150.519C140.548 150.951 140.591 151.371 140.671 151.778L138.864 152.135C138.761 151.612 138.707 151.071 138.707 150.519H140.548ZM141.633 154.1C142.104 154.803 142.71 155.409 143.413 155.88L142.389 157.41C141.485 156.805 140.708 156.028 140.103 155.124L141.633 154.1ZM145.735 156.842C146.142 156.923 146.563 156.965 146.994 156.965V158.807C146.442 158.807 145.901 158.752 145.378 158.649L145.735 156.842ZM146.994 156.965H148.764V158.807H146.994V156.965ZM152.303 156.965H154.072V158.807H152.303V156.965Z" fill="#BED73C"/>
<g clip-path="url(#clip0_6279_120549)">
<path d="M64.0625 61.3469H75.4785C75.8789 61.3469 76.2109 61.0149 76.2109 60.6145C76.2109 60.2141 75.8789 59.8821 75.4785 59.8821H64.0625C63.6621 59.8821 63.3301 60.2141 63.3301 60.6145C63.3301 61.0149 63.6621 61.3469 64.0625 61.3469Z" fill="#004357"/>
<path d="M64.0625 65.5852H75.4785C75.8789 65.5852 76.2109 65.2532 76.2109 64.8528C76.2109 64.4524 75.8789 64.1204 75.4785 64.1204H64.0625C63.6621 64.1204 63.3301 64.4524 63.3301 64.8528C63.3301 65.2532 63.6621 65.5852 64.0625 65.5852Z" fill="#004357"/>
<path d="M75.4785 68.3489H66.9922C66.5918 68.3489 66.2598 68.6809 66.2598 69.0813C66.2598 69.4817 66.5918 69.8137 66.9922 69.8137H75.4785C75.8789 69.8137 76.2109 69.4817 76.2109 69.0813C76.2109 68.6809 75.8887 68.3489 75.4785 68.3489Z" fill="#004357"/>
<path d="M64.0625 57.1184H71.5723C71.9727 57.1184 72.3047 56.7864 72.3047 56.386C72.3047 55.9856 71.9727 55.6536 71.5723 55.6536H64.0625C63.6621 55.6536 63.3301 55.9856 63.3301 56.386C63.3301 56.7864 63.6621 57.1184 64.0625 57.1184Z" fill="#004357"/>
<path d="M74.9902 57.1184H75.4785C75.8789 57.1184 76.2109 56.7864 76.2109 56.386C76.2109 55.9856 75.8789 55.6536 75.4785 55.6536H74.9902C74.5898 55.6536 74.2578 55.9856 74.2578 56.386C74.2578 56.7864 74.5898 57.1184 74.9902 57.1184Z" fill="#004357"/>
<path d="M44.5215 61.3469H55.9375C56.3379 61.3469 56.6699 61.0149 56.6699 60.6145C56.6699 60.2141 56.3379 59.8821 55.9375 59.8821H44.5215C44.1211 59.8821 43.7891 60.2141 43.7891 60.6145C43.7891 61.0149 44.1113 61.3469 44.5215 61.3469Z" fill="#004357"/>
<path d="M44.5215 65.5852H55.9375C56.3379 65.5852 56.6699 65.2532 56.6699 64.8528C56.6699 64.4524 56.3379 64.1204 55.9375 64.1204H44.5215C44.1211 64.1204 43.7891 64.4524 43.7891 64.8528C43.7891 65.2532 44.1113 65.5852 44.5215 65.5852Z" fill="#004357"/>
<path d="M44.5215 69.8137H53.0078C53.4082 69.8137 53.7402 69.4817 53.7402 69.0813C53.7402 68.6809 53.4082 68.3489 53.0078 68.3489H44.5215C44.1211 68.3489 43.7891 68.6809 43.7891 69.0813C43.7891 69.4817 44.1113 69.8137 44.5215 69.8137Z" fill="#004357"/>
<path d="M48.4277 57.1184H55.9375C56.3379 57.1184 56.6699 56.7864 56.6699 56.386C56.6699 55.9856 56.3379 55.6536 55.9375 55.6536H48.4277C48.0273 55.6536 47.6953 55.9856 47.6953 56.386C47.6953 56.7864 48.0176 57.1184 48.4277 57.1184Z" fill="#004357"/>
<path d="M44.5215 57.1184H45.0098C45.4102 57.1184 45.7422 56.7864 45.7422 56.386C45.7422 55.9856 45.4102 55.6536 45.0098 55.6536H44.5215C44.1211 55.6536 43.7891 55.9856 43.7891 56.386C43.7891 56.7864 44.1113 57.1184 44.5215 57.1184Z" fill="#004357"/>
<path d="M84.2676 54.7158H80.2832V51.3955C80.2832 50.9951 79.9512 50.6631 79.5508 50.6631H65.8594C63.3105 50.6631 61.0937 52.1182 60 54.2373C58.9063 52.1182 56.6895 50.6631 54.1406 50.6631H40.4492C40.0488 50.6631 39.7168 50.9951 39.7168 51.3955V54.7158H35.7324C35.332 54.7158 35 55.0479 35 55.4482V76.7861C35 78.8076 36.6406 80.4482 38.6621 80.4482H48.6328C48.5645 80.9561 48.5254 81.4834 48.5254 82.0107C48.5254 88.3389 53.6719 93.4854 60 93.4854C62.2461 93.4854 64.3457 92.8408 66.1133 91.7178L74.2773 99.8818C74.8047 100.409 75.4883 100.663 76.1719 100.663C76.8555 100.663 77.5488 100.399 78.0664 99.8818C79.1113 98.8369 79.1113 97.1279 78.0664 96.083L69.8633 87.8701C70.8887 86.1514 71.4746 84.1494 71.4746 82.0107C71.4746 81.4834 71.4355 80.9561 71.3672 80.4482H81.3379C83.3594 80.4482 85 78.8076 85 76.7861V55.4482C85 55.0479 84.668 54.7158 84.2676 54.7158ZM65.8594 52.1279H78.8184V71.1416C78.8184 72.3525 77.832 73.3389 76.6211 73.3389H68.5449C68.2129 73.3389 67.8809 73.3486 67.5488 73.3779C65.7031 71.7568 63.3301 70.7217 60.7324 70.5557V57.2549C60.7324 54.4326 63.0371 52.1279 65.8594 52.1279ZM41.1816 52.1279H54.1406C56.9629 52.1279 59.2676 54.4326 59.2676 57.2549V70.5557C56.6699 70.7217 54.2969 71.7568 52.4512 73.3779C52.1191 73.3486 51.7871 73.3389 51.4551 73.3389H43.3789C42.168 73.3389 41.1816 72.3525 41.1816 71.1416V52.1279ZM38.6621 78.9834C37.4512 78.9834 36.4648 77.9971 36.4648 76.7861V56.1807H39.7168V71.1416C39.7168 73.1631 41.3574 74.8037 43.3789 74.8037H51.0742C50.0879 76.0146 49.3555 77.4404 48.9258 78.9834H38.6621ZM77.041 97.1182C77.5195 97.5967 77.5195 98.3682 77.041 98.8467C76.5625 99.3252 75.791 99.3252 75.3125 98.8467L67.3145 90.8486C67.9395 90.3311 68.5156 89.7451 69.0234 89.1006L77.041 97.1182ZM60 92.0205C54.4824 92.0205 49.9902 87.5283 49.9902 82.0107C49.9902 76.4932 54.4824 72.001 60 72.001C65.5176 72.001 70.0098 76.4932 70.0098 82.0107C70.0098 87.5283 65.5176 92.0205 60 92.0205ZM83.5352 76.7861C83.5352 77.9971 82.5488 78.9834 81.3379 78.9834H71.0645C70.6445 77.4307 69.9023 76.0146 68.916 74.8037H76.6113C78.6328 74.8037 80.2734 73.1631 80.2734 71.1416V56.1807H83.5352V76.7861Z" fill="#004357"/>
<path d="M60 73.4661C55.293 73.4661 51.4551 77.304 51.4551 82.011C51.4551 86.718 55.293 90.5559 60 90.5559C64.707 90.5559 68.5449 86.718 68.5449 82.011C68.5449 77.304 64.707 73.4661 60 73.4661ZM63.4668 80.4583L59.6289 84.5598C59.4922 84.7063 59.2969 84.7942 59.0918 84.7942C58.8867 84.7942 58.6914 84.7063 58.5547 84.5598L56.5332 82.4016C56.2598 82.1086 56.2695 81.6399 56.5723 81.3665C56.8652 81.093 57.334 81.1028 57.6074 81.4055L59.0918 82.9973L62.3926 79.4719C62.666 79.179 63.1348 79.1594 63.4277 79.4329C63.7207 79.7063 63.7402 80.1653 63.4668 80.4583Z" fill="#087084"/>
</g>
<path d="M299.567 19.9322C299.059 19.9322 298.647 20.3444 298.647 20.853C298.647 21.3616 299.059 21.7739 299.567 21.7739V19.9322ZM314.952 21.5042C315.312 21.1446 315.312 20.5615 314.952 20.2019L309.092 14.3415C308.732 13.9819 308.149 13.9819 307.79 14.3415C307.43 14.7012 307.43 15.2842 307.79 15.6438L312.999 20.853L307.79 26.0622C307.43 26.4218 307.43 27.0049 307.79 27.3645C308.149 27.7241 308.732 27.7241 309.092 27.3645L314.952 21.5042ZM301.409 21.7739C301.918 21.7739 302.33 21.3616 302.33 20.853C302.33 20.3444 301.918 19.9322 301.409 19.9322V21.7739ZM305.093 19.9322C304.584 19.9322 304.172 20.3444 304.172 20.853C304.172 21.3616 304.584 21.7739 305.093 21.7739V19.9322ZM308.776 21.7739C309.285 21.7739 309.697 21.3616 309.697 20.853C309.697 20.3444 309.285 19.9322 308.776 19.9322V21.7739ZM312.459 19.9322C311.951 19.9322 311.539 20.3444 311.539 20.853C311.539 21.3616 311.951 21.7739 312.459 21.7739V19.9322ZM299.567 21.7739H301.409V19.9322H299.567V21.7739ZM305.093 21.7739H308.776V19.9322H305.093V21.7739ZM312.459 21.7739H314.301V19.9322H312.459V21.7739Z" fill="#BED73C"/>
<path d="M458.877 19.9322C458.368 19.9322 457.956 20.3444 457.956 20.853C457.956 21.3616 458.368 21.7739 458.877 21.7739V19.9322ZM474.262 21.5042C474.622 21.1446 474.622 20.5615 474.262 20.2019L468.402 14.3415C468.042 13.9819 467.459 13.9819 467.099 14.3415C466.74 14.7012 466.74 15.2842 467.099 15.6438L472.308 20.853L467.099 26.0622C466.74 26.4218 466.74 27.0049 467.099 27.3645C467.459 27.7241 468.042 27.7241 468.402 27.3645L474.262 21.5042ZM460.719 21.7739C461.227 21.7739 461.64 21.3616 461.64 20.853C461.64 20.3444 461.227 19.9322 460.719 19.9322V21.7739ZM464.402 19.9322C463.894 19.9322 463.481 20.3444 463.481 20.853C463.481 21.3616 463.894 21.7739 464.402 21.7739V19.9322ZM468.086 21.7739C468.594 21.7739 469.006 21.3616 469.006 20.853C469.006 20.3444 468.594 19.9322 468.086 19.9322V21.7739ZM471.769 19.9322C471.26 19.9322 470.848 20.3444 470.848 20.853C470.848 21.3616 471.26 21.7739 471.769 21.7739V19.9322ZM458.877 21.7739H460.719V19.9322H458.877V21.7739ZM464.402 21.7739H468.086V19.9322H464.402V21.7739ZM471.769 21.7739H473.611V19.9322H471.769V21.7739Z" fill="#BED73C"/>
<path d="M618.186 19.9322C617.677 19.9322 617.265 20.3444 617.265 20.853C617.265 21.3616 617.677 21.7739 618.186 21.7739V19.9322ZM633.57 21.5042C633.93 21.1446 633.93 20.5615 633.57 20.2019L627.71 14.3415C627.351 13.9819 626.767 13.9819 626.408 14.3415C626.048 14.7012 626.048 15.2842 626.408 15.6438L631.617 20.853L626.408 26.0622C626.048 26.4218 626.048 27.0049 626.408 27.3645C626.767 27.7241 627.351 27.7241 627.71 27.3645L633.57 21.5042ZM620.027 21.7739C620.536 21.7739 620.948 21.3616 620.948 20.853C620.948 20.3444 620.536 19.9322 620.027 19.9322V21.7739ZM623.711 19.9322C623.202 19.9322 622.79 20.3444 622.79 20.853C622.79 21.3616 623.202 21.7739 623.711 21.7739V19.9322ZM627.394 21.7739C627.903 21.7739 628.315 21.3616 628.315 20.853C628.315 20.3444 627.903 19.9322 627.394 19.9322V21.7739ZM631.078 19.9322C630.569 19.9322 630.157 20.3444 630.157 20.853C630.157 21.3616 630.569 21.7739 631.078 21.7739V19.9322ZM618.186 21.7739H620.027V19.9322H618.186V21.7739ZM623.711 21.7739H627.394V19.9322H623.711V21.7739ZM631.078 21.7739H632.919V19.9322H631.078V21.7739Z" fill="#BED73C"/>
<path d="M299.567 156.736C299.059 156.736 298.647 157.148 298.647 157.657C298.647 158.165 299.059 158.578 299.567 158.578V156.736ZM314.952 158.308C315.312 157.948 315.312 157.365 314.952 157.006L309.092 151.145C308.732 150.786 308.149 150.786 307.79 151.145C307.43 151.505 307.43 152.088 307.79 152.448L312.999 157.657L307.79 162.866C307.43 163.226 307.43 163.809 307.79 164.168C308.149 164.528 308.732 164.528 309.092 164.168L314.952 158.308ZM301.409 158.578C301.918 158.578 302.33 158.165 302.33 157.657C302.33 157.148 301.918 156.736 301.409 156.736V158.578ZM305.093 156.736C304.584 156.736 304.172 157.148 304.172 157.657C304.172 158.165 304.584 158.578 305.093 158.578V156.736ZM308.776 158.578C309.285 158.578 309.697 158.165 309.697 157.657C309.697 157.148 309.285 156.736 308.776 156.736V158.578ZM312.459 156.736C311.951 156.736 311.539 157.148 311.539 157.657C311.539 158.165 311.951 158.578 312.459 158.578V156.736ZM299.567 158.578H301.409V156.736H299.567V158.578ZM305.093 158.578H308.776V156.736H305.093V158.578ZM312.459 158.578H314.301V156.736H312.459V158.578Z" fill="#BED73C"/>
<path d="M458.877 156.736C458.368 156.736 457.956 157.148 457.956 157.657C457.956 158.165 458.368 158.578 458.877 158.578V156.736ZM474.262 158.308C474.622 157.948 474.622 157.365 474.262 157.006L468.402 151.145C468.042 150.786 467.459 150.786 467.099 151.145C466.74 151.505 466.74 152.088 467.099 152.448L472.308 157.657L467.099 162.866C466.74 163.226 466.74 163.809 467.099 164.168C467.459 164.528 468.042 164.528 468.402 164.168L474.262 158.308ZM460.719 158.578C461.227 158.578 461.64 158.165 461.64 157.657C461.64 157.148 461.227 156.736 460.719 156.736V158.578ZM464.402 156.736C463.894 156.736 463.481 157.148 463.481 157.657C463.481 158.165 463.894 158.578 464.402 158.578V156.736ZM468.086 158.578C468.594 158.578 469.006 158.165 469.006 157.657C469.006 157.148 468.594 156.736 468.086 156.736V158.578ZM471.769 156.736C471.26 156.736 470.848 157.148 470.848 157.657C470.848 158.165 471.26 158.578 471.769 158.578V156.736ZM458.877 158.578H460.719V156.736H458.877V158.578ZM464.402 158.578H468.086V156.736H464.402V158.578ZM471.769 158.578H473.611V156.736H471.769V158.578Z" fill="#BED73C"/>
<path d="M618.186 156.736C617.677 156.736 617.265 157.148 617.265 157.657C617.265 158.165 617.677 158.578 618.186 158.578V156.736ZM633.57 158.308C633.93 157.948 633.93 157.365 633.57 157.006L627.71 151.145C627.351 150.786 626.767 150.786 626.408 151.145C626.048 151.505 626.048 152.088 626.408 152.448L631.617 157.657L626.408 162.866C626.048 163.226 626.048 163.809 626.408 164.168C626.767 164.528 627.351 164.528 627.71 164.168L633.57 158.308ZM620.027 158.578C620.536 158.578 620.948 158.165 620.948 157.657C620.948 157.148 620.536 156.736 620.027 156.736V158.578ZM623.711 156.736C623.202 156.736 622.79 157.148 622.79 157.657C622.79 158.165 623.202 158.578 623.711 158.578V156.736ZM627.394 158.578C627.903 158.578 628.315 158.165 628.315 157.657C628.315 157.148 627.903 156.736 627.394 156.736V158.578ZM631.078 156.736C630.569 156.736 630.157 157.148 630.157 157.657C630.157 158.165 630.569 158.578 631.078 158.578V156.736ZM618.186 158.578H620.027V156.736H618.186V158.578ZM623.711 158.578H627.394V156.736H623.711V158.578ZM631.078 158.578H632.919V156.736H631.078V158.578Z" fill="#BED73C"/>
<path d="M705.859 53.2448C705.5 52.8852 704.916 52.8852 704.557 53.2448L698.697 59.1052C698.337 59.4648 698.337 60.0479 698.697 60.4075C699.056 60.7671 699.639 60.7671 699.999 60.4075L705.208 55.1983L710.417 60.4075C710.777 60.7671 711.36 60.7671 711.719 60.4075C712.079 60.0479 712.079 59.4648 711.719 59.1052L705.859 53.2448ZM704.287 55.7909C704.287 56.2995 704.699 56.7118 705.208 56.7118C705.717 56.7118 706.129 56.2995 706.129 55.7909L704.287 55.7909ZM706.129 59.5808C706.129 59.0722 705.717 58.6599 705.208 58.6599C704.699 58.6599 704.287 59.0722 704.287 59.5808L706.129 59.5808ZM704.287 63.3706C704.287 63.8792 704.699 64.2915 705.208 64.2915C705.717 64.2915 706.129 63.8792 706.129 63.3706L704.287 63.3706ZM706.129 67.1605C706.129 66.6519 705.717 66.2396 705.208 66.2396C704.699 66.2396 704.287 66.6519 704.287 67.1605L706.129 67.1605ZM704.287 70.9504C704.287 71.4589 704.699 71.8712 705.208 71.8712C705.717 71.8712 706.129 71.4589 706.129 70.9504L704.287 70.9504ZM706.129 74.7402C706.129 74.2316 705.717 73.8194 705.208 73.8194C704.699 73.8194 704.287 74.2316 704.287 74.7402L706.129 74.7402ZM704.287 78.5301C704.287 79.0387 704.699 79.4509 705.208 79.4509C705.717 79.4509 706.129 79.0387 706.129 78.5301L704.287 78.5301ZM706.129 82.3199C706.129 81.8114 705.717 81.3991 705.208 81.3991C704.699 81.3991 704.287 81.8114 704.287 82.3199L706.129 82.3199ZM704.287 86.1098C704.287 86.6184 704.699 87.0307 705.208 87.0307C705.717 87.0307 706.129 86.6184 706.129 86.1098L704.287 86.1098ZM706.129 89.8997C706.129 89.3911 705.717 88.9788 705.208 88.9788C704.699 88.9788 704.287 89.3911 704.287 89.8997L706.129 89.8997ZM704.287 93.6895C704.287 94.1981 704.699 94.6104 705.208 94.6104C705.717 94.6104 706.129 94.1981 706.129 93.6895L704.287 93.6895ZM706.129 97.4794C706.129 96.9708 705.717 96.5585 705.208 96.5585C704.699 96.5585 704.287 96.9708 704.287 97.4794L706.129 97.4794ZM704.287 101.269C704.287 101.778 704.699 102.19 705.208 102.19C705.717 102.19 706.129 101.778 706.129 101.269L704.287 101.269ZM706.129 105.059C706.129 104.551 705.717 104.138 705.208 104.138C704.699 104.138 704.287 104.551 704.287 105.059L706.129 105.059ZM704.287 108.849C704.287 109.358 704.699 109.77 705.208 109.77C705.717 109.77 706.129 109.358 706.129 108.849L704.287 108.849ZM706.129 112.639C706.129 112.13 705.717 111.718 705.208 111.718C704.699 111.718 704.287 112.13 704.287 112.639L706.129 112.639ZM704.287 116.429C704.287 116.937 704.699 117.35 705.208 117.35C705.717 117.35 706.129 116.937 706.129 116.429L704.287 116.429ZM706.129 120.219C706.129 119.71 705.717 119.298 705.208 119.298C704.699 119.298 704.287 119.71 704.287 120.219L706.129 120.219ZM704.287 53.896L704.287 55.7909L706.129 55.7909L706.129 53.896L704.287 53.896ZM704.287 59.5808L704.287 63.3706L706.129 63.3706L706.129 59.5808L704.287 59.5808ZM704.287 67.1605L704.287 70.9504L706.129 70.9504L706.129 67.1605L704.287 67.1605ZM704.287 74.7402L704.287 78.5301L706.129 78.5301L706.129 74.7402L704.287 74.7402ZM704.287 82.3199L704.287 86.1098L706.129 86.1098L706.129 82.3199L704.287 82.3199ZM704.287 89.8997L704.287 93.6895L706.129 93.6895L706.129 89.8997L704.287 89.8997ZM704.287 97.4794L704.287 101.269L706.129 101.269L706.129 97.4794L704.287 97.4794ZM704.287 105.059L704.287 108.849L706.129 108.849L706.129 105.059L704.287 105.059ZM704.287 112.639L704.287 116.429L706.129 116.429L706.129 112.639L704.287 112.639ZM704.287 120.219L704.287 122.113L706.129 122.113L706.129 120.219L704.287 120.219Z" fill="#BED73C"/>
<path d="M754.243 59.0515C754.243 58.5429 754.655 58.1307 755.164 58.1307C755.673 58.1307 756.085 58.5429 756.085 59.0515L754.243 59.0515ZM769.253 91.9084C769.612 92.268 769.612 92.8511 769.253 93.2107L763.392 99.071C763.033 99.4307 762.45 99.4307 762.09 99.071C761.73 98.7114 761.73 98.1284 762.09 97.7688L767.299 92.5596L762.09 87.3504C761.73 86.9908 761.73 86.4077 762.09 86.0481C762.45 85.6885 763.033 85.6885 763.392 86.0481L769.253 91.9084ZM756.085 60.6853C756.085 61.1939 755.673 61.6062 755.164 61.6062C754.655 61.6062 754.243 61.1939 754.243 60.6853L756.085 60.6853ZM754.243 63.953C754.243 63.4444 754.655 63.0321 755.164 63.0321C755.673 63.0321 756.085 63.4444 756.085 63.953L754.243 63.953ZM756.085 67.2206C756.085 67.7292 755.673 68.1415 755.164 68.1415C754.655 68.1415 754.243 67.7292 754.243 67.2206L756.085 67.2206ZM754.243 70.4883C754.243 69.9797 754.655 69.5674 755.164 69.5674C755.673 69.5674 756.085 69.9797 756.085 70.4883L754.243 70.4883ZM756.085 73.7559C756.085 74.2645 755.673 74.6768 755.164 74.6768C754.655 74.6768 754.243 74.2645 754.243 73.7559L756.085 73.7559ZM754.243 77.0236C754.243 76.515 754.655 76.1027 755.164 76.1027C755.673 76.1027 756.085 76.515 756.085 77.0236L754.243 77.0236ZM756.085 80.2912C756.085 80.7998 755.673 81.2121 755.164 81.2121C754.655 81.2121 754.243 80.7998 754.243 80.2912L756.085 80.2912ZM754.243 83.5589C754.243 83.0503 754.655 82.638 755.164 82.638C755.673 82.638 756.085 83.0503 756.085 83.5589L754.243 83.5589ZM756.208 86.4517C756.306 86.9506 755.982 87.4351 755.483 87.5338C754.984 87.6325 754.5 87.308 754.401 86.8091L756.208 86.4517ZM755.64 89.7981C755.357 89.3755 755.47 88.8036 755.893 88.5206C756.315 88.2377 756.887 88.3509 757.17 88.7735L755.64 89.7981ZM758.95 90.5535C759.373 90.8365 759.486 91.4084 759.203 91.831C758.92 92.2536 758.348 92.3669 757.926 92.0839L758.95 90.5535ZM760.915 93.3227C760.416 93.224 760.091 92.7395 760.19 92.2406C760.289 91.7417 760.773 91.4173 761.272 91.516L760.915 93.3227ZM764.049 91.6387C764.557 91.6387 764.969 92.051 764.969 92.5596C764.969 93.0681 764.557 93.4804 764.049 93.4804L764.049 91.6387ZM767.084 93.4804C766.575 93.4804 766.163 93.0681 766.163 92.5596C766.163 92.051 766.575 91.6387 767.084 91.6387L767.084 93.4804ZM756.085 59.0515L756.085 60.6853L754.243 60.6853L754.243 59.0515L756.085 59.0515ZM756.085 63.953L756.085 67.2206L754.243 67.2206L754.243 63.953L756.085 63.953ZM756.085 70.4883L756.085 73.7559L754.243 73.7559L754.243 70.4883L756.085 70.4883ZM756.085 77.0236L756.085 80.2912L754.243 80.2912L754.243 77.0236L756.085 77.0236ZM756.085 83.5589L756.085 85.1927L754.243 85.1927L754.243 83.5589L756.085 83.5589ZM756.085 85.1927C756.085 85.6244 756.127 86.0452 756.208 86.4517L754.401 86.8091C754.297 86.2856 754.243 85.745 754.243 85.1927L756.085 85.1927ZM757.17 88.7735C757.641 89.4769 758.247 90.0826 758.95 90.5535L757.926 92.0839C757.022 91.4791 756.245 90.7015 755.64 89.7981L757.17 88.7735ZM761.272 91.516C761.678 91.5964 762.099 91.6387 762.531 91.6387L762.531 93.4804C761.979 93.4804 761.438 93.4263 760.915 93.3227L761.272 91.516ZM762.531 91.6387L764.049 91.6387L764.049 93.4804L762.531 93.4804L762.531 91.6387ZM767.084 91.6387L768.601 91.6387L768.601 93.4804L767.084 93.4804L767.084 91.6387Z" fill="#BED73C"/>
<g clip-path="url(#clip1_6279_120549)">
<path d="M847.869 58.6904L840.057 50.8779C839.92 50.7412 839.734 50.6631 839.539 50.6631H814.148C813.748 50.6631 813.416 50.9951 813.416 51.3955V99.9307C813.416 100.331 813.748 100.663 814.148 100.663H847.352C847.752 100.663 848.084 100.331 848.084 99.9307V59.208C848.084 59.0127 848.006 58.8271 847.869 58.6904ZM840.271 53.1631L845.584 58.4756H840.271V53.1631ZM814.881 99.1982V52.1279H838.807V59.208C838.807 59.6084 839.139 59.9404 839.539 59.9404H846.619V99.1982H814.881Z" fill="#004357"/>
<path d="M843.445 62.3821H818.055C817.654 62.3821 817.322 62.7141 817.322 63.1145V67.0208C817.322 67.4211 817.654 67.7532 818.055 67.7532H843.445C843.846 67.7532 844.178 67.4211 844.178 67.0208V63.1145C844.178 62.7141 843.846 62.3821 843.445 62.3821ZM842.713 66.2883H818.787V63.8469H842.713V66.2883Z" fill="#004357"/>
<path d="M818.055 79.4719H825.867C826.268 79.4719 826.6 79.1399 826.6 78.7395V70.927C826.6 70.5266 826.268 70.1946 825.867 70.1946H818.055C817.654 70.1946 817.322 70.5266 817.322 70.927V78.7395C817.322 79.1399 817.654 79.4719 818.055 79.4719ZM818.787 71.6594H825.135V78.0071H818.787V71.6594Z" fill="#004357"/>
<path d="M843.445 70.1946H832.703C832.303 70.1946 831.971 70.5266 831.971 70.927C831.971 71.3274 832.303 71.6594 832.703 71.6594H843.445C843.846 71.6594 844.178 71.3274 844.178 70.927C844.178 70.5266 843.846 70.1946 843.445 70.1946Z" fill="#004357"/>
<path d="M829.773 71.6594H830.262C830.662 71.6594 830.994 71.3274 830.994 70.927C830.994 70.5266 830.662 70.1946 830.262 70.1946H829.773C829.373 70.1946 829.041 70.5266 829.041 70.927C829.041 71.3274 829.373 71.6594 829.773 71.6594Z" fill="#004357"/>
<path d="M843.445 74.1008H829.773C829.373 74.1008 829.041 74.4329 829.041 74.8333C829.041 75.2336 829.373 75.5657 829.773 75.5657H843.445C843.846 75.5657 844.178 75.2336 844.178 74.8333C844.178 74.4329 843.846 74.1008 843.445 74.1008Z" fill="#004357"/>
<path d="M843.445 78.0071H829.773C829.373 78.0071 829.041 78.3391 829.041 78.7395C829.041 79.1399 829.373 79.4719 829.773 79.4719H843.445C843.846 79.4719 844.178 79.1399 844.178 78.7395C844.178 78.3391 843.846 78.0071 843.445 78.0071Z" fill="#004357"/>
<path d="M843.445 81.9133H823.914C823.514 81.9133 823.182 82.2454 823.182 82.6458C823.182 83.0461 823.514 83.3782 823.914 83.3782H843.445C843.846 83.3782 844.178 83.0461 844.178 82.6458C844.178 82.2454 843.846 81.9133 843.445 81.9133Z" fill="#004357"/>
<path d="M818.055 83.3782H821.473C821.873 83.3782 822.205 83.0461 822.205 82.6458C822.205 82.2454 821.873 81.9133 821.473 81.9133H818.055C817.654 81.9133 817.322 82.2454 817.322 82.6458C817.322 83.0461 817.654 83.3782 818.055 83.3782Z" fill="#004357"/>
<path d="M843.445 85.8196H818.055C817.654 85.8196 817.322 86.1516 817.322 86.552C817.322 86.9524 817.654 87.2844 818.055 87.2844H843.445C843.846 87.2844 844.178 86.9524 844.178 86.552C844.178 86.1516 843.846 85.8196 843.445 85.8196Z" fill="#004357"/>
<path d="M843.445 89.4329H835.633C835.232 89.4329 834.9 89.7649 834.9 90.1653V96.0247C834.9 96.425 835.232 96.7571 835.633 96.7571H843.445C843.846 96.7571 844.178 96.425 844.178 96.0247V90.1653C844.178 89.7649 843.846 89.4329 843.445 89.4329ZM842.713 95.2922H836.365V90.8977H842.713V95.2922Z" fill="#004357"/>
<path d="M829.773 89.4329H818.055C817.654 89.4329 817.322 89.7649 817.322 90.1653V96.0247C817.322 96.425 817.654 96.7571 818.055 96.7571H829.773C830.174 96.7571 830.506 96.425 830.506 96.0247V90.1653C830.506 89.7649 830.174 89.4329 829.773 89.4329ZM829.041 95.2922H818.787V90.8977H829.041V95.2922Z" fill="#004357"/>
<path d="M860.73 59.189H859.51V57.6948H853.65V79.6675H859.51V60.6538H860.73C861.404 60.6538 861.951 61.2007 861.951 61.8745V71.6401C861.951 72.0405 862.283 72.3726 862.684 72.3726C863.084 72.3726 863.416 72.0405 863.416 71.6401V61.8745C863.416 60.3999 862.215 59.189 860.73 59.189Z" fill="#087084"/>
<path d="M858.777 52.8608C858.777 51.6499 857.791 50.6636 856.58 50.6636C855.369 50.6636 854.383 51.6499 854.383 52.8608V56.23H858.777V52.8608Z" fill="#087084"/>
<path d="M854.383 95.5366C854.383 97.2651 854.959 98.9839 855.994 100.371C856.131 100.556 856.346 100.664 856.58 100.664C856.814 100.664 857.029 100.556 857.166 100.371C858.201 98.9839 858.777 97.2651 858.777 95.5366V81.1323H854.383V95.5366Z" fill="#087084"/>
<path d="M850.181 78.6124C845.068 78.6124 840.9 82.7795 840.9 87.8926C840.9 93.0057 845.068 97.1728 850.181 97.1728C855.294 97.1728 859.461 93.0057 859.461 87.8926C859.461 82.7795 855.294 78.6124 850.181 78.6124Z" fill="#087084" stroke="#F3F4F6" stroke-width="1.47059"/>
</g>
<defs>
<clipPath id="clip0_6279_120549">
<rect width="50" height="50" fill="white" transform="translate(35 50.6631)"/>
</clipPath>
<clipPath id="clip1_6279_120549">
<rect width="50" height="50" fill="white" transform="translate(813.416 50.6631)"/>
</clipPath>
</defs>
</svg>
