<svg width="321" height="533" viewBox="0 0 321 533" fill="none" xmlns="http://www.w3.org/2000/svg">
<path d="M105.667 55C105.667 24.6243 130.291 0 160.667 0V0C191.042 0 215.667 24.6243 215.667 55V55C215.667 85.3757 191.042 110 160.667 110V110C130.291 110 105.667 85.3757 105.667 55V55Z" fill="#F3F4F6"/>
<mask id="mask0_6220_76307" style="mask-type:alpha" maskUnits="userSpaceOnUse" x="105" y="0" width="111" height="110">
<rect x="105.667" width="110" height="110" rx="55" fill="#D9D9D9"/>
</mask>
<g mask="url(#mask0_6220_76307)">
<path d="M149.802 19.5938H127.646C127.445 19.5938 127.254 19.6743 127.113 19.8153L119.056 27.8719C118.915 28.0129 118.834 28.2043 118.834 28.4057V64.3585C118.834 65.8892 120.073 67.1279 121.604 67.1279H138.865C139.278 67.1279 139.621 66.7855 139.621 66.3726C139.621 65.9597 139.278 65.6173 138.865 65.6173H121.604C120.909 65.6173 120.345 65.0533 120.345 64.3585V29.161H125.632C127.163 29.161 128.402 27.9223 128.402 26.3915V21.1044H149.802C150.497 21.1044 151.061 21.6683 151.061 22.3632V45.2139C151.061 45.6268 151.403 45.9692 151.816 45.9692C152.229 45.9692 152.572 45.6268 152.572 45.2139V22.3632C152.572 20.8325 151.333 19.5938 149.802 19.5938ZM125.632 27.6504H121.413L126.891 22.1719V26.3915C126.891 27.0864 126.327 27.6504 125.632 27.6504Z" fill="#004357"/>
<path d="M136.71 46.3315C137.123 46.3315 137.465 45.9891 137.465 45.5762V42.5549C137.465 42.142 137.123 41.7996 136.71 41.7996H124.373V39.8862C124.373 39.4733 124.031 39.1309 123.618 39.1309C123.205 39.1309 122.863 39.4733 122.863 39.8862V62.3541C122.863 62.767 123.205 63.1094 123.618 63.1094C124.031 63.1094 124.373 62.767 124.373 62.3541V60.4407H130.668C131.081 60.4407 131.423 60.0983 131.423 59.6854V56.6641C131.423 56.2512 131.081 55.9088 130.668 55.9088H124.373V53.3911H133.689C134.102 53.3911 134.444 53.0487 134.444 52.6358V49.6146C134.444 49.2017 134.102 48.8593 133.689 48.8593H124.373V46.3416H136.71V46.3315ZM135.955 43.3102V44.8209H124.373V43.3102H135.955ZM129.912 57.4094V58.92H124.373V57.4094H129.912ZM132.934 50.3598V51.8704H124.373V50.3598H132.934Z" fill="#004357"/>
<path d="M145.774 29.6646H143.568C142.873 29.6646 142.309 29.1006 142.309 28.4057C142.309 27.7108 142.873 27.1469 143.568 27.1469H147.163C147.576 27.1469 147.919 26.8044 147.919 26.3915C147.919 25.9786 147.576 25.6362 147.163 25.6362H146.72V24.3774C146.72 23.9645 146.378 23.6221 145.965 23.6221C145.552 23.6221 145.21 23.9645 145.21 24.3774V25.6362H144.122V24.3774C144.122 23.9645 143.78 23.6221 143.367 23.6221C142.954 23.6221 142.611 23.9645 142.611 24.3774V25.8074C141.554 26.2002 140.789 27.2173 140.789 28.4057C140.789 29.9365 142.027 31.1752 143.558 31.1752H145.764C146.458 31.1752 147.022 31.7391 147.022 32.434C147.022 33.1289 146.458 33.6929 145.764 33.6929H142.168C141.755 33.6929 141.413 34.0353 141.413 34.4482C141.413 34.8611 141.755 35.2035 142.168 35.2035H142.611V36.4623C142.611 36.8752 142.954 37.2177 143.367 37.2177C143.78 37.2177 144.122 36.8752 144.122 36.4623V35.2035H145.21V36.4623C145.21 36.8752 145.552 37.2177 145.965 37.2177C146.378 37.2177 146.72 36.8752 146.72 36.4623V35.0323C147.778 34.6395 148.543 33.6224 148.543 32.434C148.543 30.9033 147.304 29.6646 145.774 29.6646Z" fill="#004357"/>
<path d="M123.618 36.6034H133.689C134.102 36.6034 134.444 36.261 134.444 35.8481C134.444 35.4352 134.102 35.0928 133.689 35.0928H123.618C123.205 35.0928 122.863 35.4352 122.863 35.8481C122.863 36.261 123.195 36.6034 123.618 36.6034Z" fill="#004357"/>
<path d="M136.71 32.0715H123.618C123.205 32.0715 122.863 32.4139 122.863 32.8268C122.863 33.2397 123.205 33.5822 123.618 33.5822H136.71C137.123 33.5822 137.465 33.2397 137.465 32.8268C137.465 32.4139 137.123 32.0715 136.71 32.0715Z" fill="#004357"/>
<path d="M115.098 28.8391V25.556C115.098 24.3072 114.081 23.29 112.832 23.29C111.583 23.29 110.566 24.3072 110.566 25.556V28.829C110.153 28.829 109.811 29.1714 109.811 29.5843V31.8502H108.804C107.837 31.8502 107.042 32.6458 107.042 33.6126V40.6622C107.042 41.0751 107.384 41.4175 107.797 41.4175C108.21 41.4175 108.552 41.0751 108.552 40.6622V33.6126C108.552 33.4716 108.663 33.3608 108.804 33.3608H109.811V48.7188C109.811 49.0511 110.022 49.3231 110.315 49.4338V60.1794C110.315 62.5964 110.959 64.9832 112.178 67.0779C112.309 67.3095 112.56 67.4505 112.832 67.4505C113.104 67.4505 113.346 67.3095 113.487 67.0779C114.705 64.9832 115.35 62.5964 115.35 60.1794V49.4338C115.642 49.3331 115.853 49.0511 115.853 48.7188V29.5843C115.853 29.1714 115.511 28.8391 115.098 28.8391ZM111.322 47.9736V30.3497H114.343V47.9736H111.322ZM112.077 25.556C112.077 25.1431 112.419 24.8007 112.832 24.8007C113.245 24.8007 113.588 25.1431 113.588 25.556V28.829H112.077V25.556ZM112.832 65.0335C112.168 63.5027 111.825 61.8511 111.825 60.1794V49.4842H113.839V60.1794C113.839 61.8511 113.497 63.5027 112.832 65.0335Z" fill="#004357"/>
<path d="M158.111 49.9166L149.047 46.6234C148.876 46.563 148.694 46.563 148.533 46.6234L139.47 49.9166C139.167 50.0274 138.976 50.3094 138.976 50.6216V58.5271C138.976 64.3984 142.934 69.5748 148.594 71.1257C148.654 71.1458 148.725 71.1559 148.795 71.1559C148.866 71.1559 148.926 71.1458 148.997 71.1257C154.646 69.5849 158.604 64.4085 158.604 58.5372V50.6316C158.604 50.3094 158.403 50.0274 158.111 49.9166ZM153.347 56.6238L147.899 62.1627C147.758 62.3037 147.566 62.3842 147.365 62.3842C147.164 62.3842 146.972 62.3037 146.831 62.1627L144.223 59.5141C143.931 59.2119 143.931 58.7386 144.233 58.4466C144.535 58.1545 145.008 58.1545 145.301 58.4566L147.365 60.5614L152.28 55.5663C152.572 55.2642 153.055 55.2642 153.347 55.5562C153.639 55.8483 153.649 56.3317 153.347 56.6238Z" fill="#087084"/>
</g>
<path d="M187.761 85.8534V40.9286C187.761 39.966 188.542 39.1855 189.504 39.1855C190.467 39.1855 191.247 39.966 191.247 40.9286V85.8534C191.247 86.8161 190.467 87.5965 189.504 87.5965C188.542 87.5965 187.761 86.8161 187.761 85.8534Z" fill="white" stroke="#004357" stroke-width="1.375"/>
<rect x="153.603" y="42.9053" width="71.8036" height="23.283" rx="2.49418" fill="white"/>
<rect x="153.603" y="42.9053" width="71.8036" height="23.283" rx="2.49418" stroke="#004357" stroke-width="1.375"/>
<path d="M217.114 50.6437H218.606L218.472 56.1225H217.236L217.114 50.6437ZM216.958 57.6259C216.958 57.1025 217.325 56.7907 217.86 56.7907C218.372 56.7907 218.751 57.1025 218.751 57.6259C218.751 58.1381 218.372 58.4499 217.86 58.4499C217.325 58.4499 216.958 58.1381 216.958 57.6259Z" fill="#004357"/>
<path d="M210.388 50.6437H215.132V51.8464H211.836V53.7506H214.943V54.9421H211.836V57.1248H215.221V58.3274H210.388V50.6437Z" fill="#004357"/>
<path d="M203.896 50.6437H208.64V51.8464H205.344V53.7506H208.451V54.9421H205.344V57.1248H208.729V58.3274H203.896V50.6437Z" fill="#004357"/>
<path d="M199.572 50.6437C200.385 50.6437 201.031 50.8219 201.509 51.1893C201.988 51.5568 202.333 52.147 202.333 52.882C202.333 53.5613 202.144 54.0401 201.832 54.3742C201.532 54.6971 201.131 54.8976 200.674 55.0312L202.745 58.3274H201.053L199.238 55.2094H198.547V58.3274H197.1V50.6437H199.572ZM199.293 54.0735C199.761 54.0735 200.117 54.0401 200.396 53.8285C200.685 53.617 200.841 53.3608 200.841 52.9265C200.841 52.5034 200.685 52.225 200.396 52.0245C200.117 51.8129 199.761 51.7795 199.293 51.7795H198.536V54.0735H199.293Z" fill="#004357"/>
<path d="M191 50.6437H195.532V51.8575H192.447V54.0178H195.354V55.2094H192.447V58.3274H191V50.6437Z" fill="#004357"/>
<path d="M183.53 51.8129H181.414V50.6437H187.071V51.8129H184.966V58.3274H183.53V51.8129Z" fill="#004357"/>
<path d="M177.389 50.6437C178.012 50.6437 178.591 50.6994 179.093 50.9443C179.694 51.2339 180.084 51.7016 180.084 52.4811C180.084 53.5167 179.393 54.0624 178.892 54.2628V54.2851C179.883 54.5078 180.54 55.1537 180.54 56.1893C180.54 56.9689 180.15 57.5702 179.627 57.9043C179.148 58.2049 178.469 58.3274 177.734 58.3274H174.928V50.6437H177.389ZM177.277 53.8508C177.678 53.8508 177.957 53.8063 178.191 53.6615C178.458 53.4945 178.614 53.2272 178.614 52.8152C178.614 52.4588 178.491 52.2138 178.28 52.0468C178.046 51.8686 177.723 51.7795 177.344 51.7795H176.375V53.8508H177.277ZM177.623 57.1916C177.99 57.1916 178.346 57.1804 178.614 57.0023C178.903 56.813 179.07 56.4677 179.07 56.0669C179.07 55.6437 178.881 55.3542 178.591 55.1537C178.302 54.9533 178.001 54.9087 177.556 54.9087H176.375V57.1916H177.623Z" fill="#004357"/>
<path d="M168.436 50.6437H173.179V51.8464H169.883V53.7506H172.99V54.9421H169.883V57.1248H173.269V58.3274H168.436V50.6437Z" fill="#004357"/>
<path d="M162.719 50.6437C164.056 50.6437 165.047 51.078 165.637 51.6125C166.238 52.1359 166.862 53.0156 166.862 54.4744C166.862 55.9444 166.238 56.8464 165.637 57.3697C165.047 57.8931 164.056 58.3274 162.719 58.3274H160.258V50.6437H162.719ZM162.775 57.1025C163.61 57.1025 164.223 56.8241 164.601 56.4677C164.969 56.1114 165.37 55.5212 165.37 54.4856C165.37 53.4611 164.969 52.8374 164.601 52.4811C164.223 52.1359 163.61 51.8575 162.775 51.8575H161.706V57.1025H162.775Z" fill="#004357"/>
<path d="M178.185 76.9569L177.798 77.3051L178.27 77.5242C182.211 79.3538 184.88 83.292 184.88 87.7885C184.88 90.0615 183.151 91.791 180.878 91.791H166.39C164.117 91.791 162.388 90.0615 162.388 87.7885C162.388 83.292 165.057 79.3538 168.998 77.5242L169.47 77.3051L169.083 76.9569C167.696 75.7084 166.734 73.9138 166.734 71.852C166.734 67.9853 169.767 64.9519 173.634 64.9519C177.501 64.9519 180.534 67.9853 180.534 71.852C180.534 73.9138 179.572 75.7084 178.185 76.9569ZM173.634 67.1619C170.981 67.1619 168.944 69.1992 168.944 71.852C168.944 74.5048 170.981 76.5421 173.634 76.5421C176.287 76.5421 178.324 74.5048 178.324 71.852C178.324 69.1992 176.287 67.1619 173.634 67.1619ZM166.39 89.581H180.878C181.391 89.581 181.845 89.4086 182.171 89.0819C182.498 88.7552 182.67 88.3012 182.67 87.7885C182.67 82.8177 178.605 78.7521 173.634 78.7521C168.663 78.7521 164.598 82.8177 164.598 87.7885C164.598 88.3012 164.77 88.7552 165.097 89.0819C165.424 89.4086 165.878 89.581 166.39 89.581Z" fill="#004357" stroke="#F3F4F6" stroke-width="0.6875"/>
<path d="M132.79 72.6936V73.1912C132.79 76.2287 135.252 78.6912 138.29 78.6912H159.882" stroke="#BED73C" stroke-width="1.375" stroke-linecap="round" stroke-linejoin="round" stroke-dasharray="2.75 2.75"/>
<path d="M171.809 38.687V32.8184C171.809 29.7808 169.347 27.3184 166.309 27.3184H156.165" stroke="#BED73C" stroke-width="1.375" stroke-linecap="round" stroke-linejoin="round" stroke-dasharray="2.75 2.75"/>
<path d="M105.667 238C105.667 207.624 130.291 183 160.667 183V183C191.042 183 215.667 207.624 215.667 238V238C215.667 268.376 191.042 293 160.667 293V293C130.291 293 105.667 268.376 105.667 238V238Z" fill="#F3F4F6"/>
<path d="M185.565 259.039L185.028 259.522L185.7 259.787C191.49 262.068 195.527 267.682 195.527 274.355V281.577C195.527 284.399 193.38 286.546 190.558 286.546H168.894C166.072 286.546 163.925 284.399 163.925 281.577V274.355C163.925 267.682 167.962 262.068 173.752 259.787L174.386 259.537L173.904 259.055C172.168 257.32 171.146 255.263 171.146 252.692C171.146 247.883 174.918 244.112 179.726 244.112C184.534 244.112 188.306 247.883 188.306 252.692C188.306 255.276 187.274 257.501 185.565 259.039ZM179.726 246.829C176.41 246.829 173.863 249.376 173.863 252.692C173.863 256.007 176.41 258.554 179.726 258.554C183.042 258.554 185.589 256.007 185.589 252.692C185.589 249.376 183.042 246.829 179.726 246.829ZM190.558 283.829C191.201 283.829 191.772 283.613 192.183 283.202C192.594 282.791 192.81 282.22 192.81 281.577V274.355C192.81 267.068 187.013 261.271 179.726 261.271C172.438 261.271 166.642 267.068 166.642 274.355V281.577C166.642 282.22 166.858 282.791 167.269 283.202C167.68 283.613 168.251 283.829 168.894 283.829H190.558Z" fill="#004357" stroke="#F3F4F6" stroke-width="0.89375"/>
<path d="M174.31 276.608H176.116C176.556 276.608 176.888 276.753 177.108 276.973C177.329 277.194 177.474 277.526 177.474 277.966C177.474 278.406 177.329 278.738 177.108 278.959C176.888 279.18 176.556 279.325 176.116 279.325H174.31C173.87 279.325 173.538 279.18 173.317 278.959C173.096 278.738 172.952 278.406 172.952 277.966C172.952 277.526 173.096 277.194 173.317 276.973C173.538 276.753 173.87 276.608 174.31 276.608Z" fill="#004357" stroke="#F3F4F6" stroke-width="0.89375"/>
<path d="M183.337 276.608H185.142C185.582 276.608 185.914 276.753 186.135 276.973C186.356 277.194 186.5 277.526 186.5 277.966C186.5 278.406 186.356 278.738 186.135 278.959C185.914 279.18 185.582 279.325 185.142 279.325H183.337C182.897 279.325 182.565 279.18 182.344 278.959C182.123 278.738 181.978 278.406 181.978 277.966C181.978 277.526 182.123 277.194 182.344 276.973C182.565 276.753 182.897 276.608 183.337 276.608Z" fill="#004357" stroke="#F3F4F6" stroke-width="0.89375"/>
<mask id="mask1_6220_76307" style="mask-type:alpha" maskUnits="userSpaceOnUse" x="105" y="183" width="111" height="110">
<rect x="105.438" y="183" width="110" height="110" rx="55" fill="#D9D9D9"/>
</mask>
<g mask="url(#mask1_6220_76307)">
<path d="M206.023 203.304H181.16C177.944 203.304 175.333 205.914 175.333 209.131V221.562C175.333 224.779 177.944 227.39 181.16 227.39H183.103V230.73C183.103 232.828 184.812 234.538 186.91 234.538C187.92 234.538 188.868 234.149 189.582 233.434L193.296 229.72H190.484C189.847 229.72 189.318 229.192 189.318 228.555C189.318 227.918 189.847 227.39 190.484 227.39H206.023C209.24 227.39 211.85 224.779 211.85 221.562V209.131C211.85 205.914 209.24 203.304 206.023 203.304ZM182.714 211.073H184.268C184.905 211.073 185.434 211.602 185.434 212.239C185.434 212.876 184.905 213.404 184.268 213.404H182.714C182.077 213.404 181.549 212.876 181.549 212.239C181.549 211.602 182.077 211.073 182.714 211.073ZM204.469 219.62H182.714C182.077 219.62 181.549 219.092 181.549 218.454C181.549 217.817 182.077 217.289 182.714 217.289H204.469C205.106 217.289 205.635 217.817 205.635 218.454C205.635 219.092 205.106 219.62 204.469 219.62ZM204.469 213.404H188.93C188.293 213.404 187.764 212.876 187.764 212.239C187.764 211.602 188.293 211.073 188.93 211.073H204.469C205.106 211.073 205.635 211.602 205.635 212.239C205.635 212.876 205.106 213.404 204.469 213.404Z" fill="#087084"/>
</g>
<path fill-rule="evenodd" clip-rule="evenodd" d="M146.202 207.406H101.514C97.1216 207.406 93.5566 210.971 93.5566 215.364V232.34C93.5566 236.732 97.1216 240.297 101.514 240.297H143.21L146.202 243.289L149.385 246.472L151.465 248.551C152.441 249.528 153.735 250.058 155.114 250.058C157.979 250.058 160.313 247.724 160.313 244.859V240.297H173.966C178.358 240.297 181.923 236.732 181.923 232.34V215.364C181.923 210.971 178.358 207.406 173.966 207.406H149.385H146.202ZM178.74 232.34V215.364C178.74 212.732 176.597 210.589 173.966 210.589H101.514C98.8828 210.589 96.7396 212.732 96.7396 215.364V232.34C96.7396 234.971 98.8828 237.114 101.514 237.114H151.295C152.165 237.114 152.886 237.835 152.886 238.705C152.886 239.575 152.165 240.297 151.295 240.297H147.709L153.714 246.302C154.075 246.663 154.584 246.875 155.114 246.875C156.218 246.875 157.13 245.963 157.13 244.859V238.705C157.13 237.835 157.852 237.114 158.722 237.114H173.966C176.597 237.114 178.74 234.971 178.74 232.34Z" fill="#004357"/>
<path d="M178.74 215.364V232.34C178.74 234.971 176.597 237.114 173.966 237.114H158.722C157.852 237.114 157.13 237.835 157.13 238.705V244.859C157.13 245.963 156.218 246.875 155.114 246.875C154.584 246.875 154.075 246.663 153.714 246.302L147.709 240.297H151.295C152.165 240.297 152.886 239.575 152.886 238.705C152.886 237.835 152.165 237.114 151.295 237.114H101.514C98.8828 237.114 96.7396 234.971 96.7396 232.34V215.364C96.7396 212.732 98.8828 210.589 101.514 210.589H173.966C176.597 210.589 178.74 212.732 178.74 215.364Z" fill="#F3F4F6"/>
<path d="M147.709 239.781H146.464L147.344 240.662L153.349 246.667C153.808 247.126 154.449 247.391 155.114 247.391C156.503 247.391 157.646 246.247 157.646 244.859V238.705C157.646 238.12 158.137 237.63 158.722 237.63H173.966C176.882 237.63 179.256 235.256 179.256 232.34V215.364C179.256 212.448 176.882 210.074 173.966 210.074H101.514C98.598 210.074 96.224 212.448 96.224 215.364V232.34C96.224 235.256 98.598 237.63 101.514 237.63H151.295C151.88 237.63 152.371 238.12 152.371 238.705C152.371 239.291 151.88 239.781 151.295 239.781H147.709ZM178.225 215.364V232.34C178.225 234.686 176.312 236.598 173.966 236.598H158.722C157.567 236.598 156.615 237.551 156.615 238.705V244.859C156.615 245.678 155.933 246.359 155.114 246.359C154.719 246.359 154.341 246.2 154.079 245.938L148.954 240.813H151.295C152.45 240.813 153.402 239.86 153.402 238.705C153.402 237.551 152.45 236.598 151.295 236.598H101.514C99.1676 236.598 97.2552 234.686 97.2552 232.34V215.364C97.2552 213.017 99.1676 211.105 101.514 211.105H173.966C176.312 211.105 178.225 213.017 178.225 215.364ZM143.575 239.932L143.424 239.781H143.21H101.514C97.4063 239.781 94.0723 236.447 94.0723 232.34V215.364C94.0723 211.256 97.4063 207.922 101.514 207.922H146.202H149.385H173.966C178.074 207.922 181.408 211.256 181.408 215.364V232.34C181.408 236.447 178.074 239.781 173.966 239.781H160.313H159.798V240.297V244.859C159.798 247.439 157.694 249.542 155.114 249.542C153.871 249.542 152.708 249.065 151.829 248.187L149.75 246.107L146.567 242.924L143.575 239.932Z" stroke="#F3F4F6" stroke-width="1.03125"/>
<path d="M172.463 219.732C173.231 219.732 173.899 219.888 174.389 220.3C174.891 220.712 175.191 221.258 175.191 222.037C175.191 222.817 174.891 223.374 174.389 223.786C173.899 224.198 173.231 224.387 172.463 224.387H171.45V227.416H169.991V219.732H172.463ZM172.285 223.251C172.73 223.251 173.031 223.14 173.276 222.962C173.521 222.783 173.699 222.472 173.699 222.037C173.699 221.614 173.487 221.302 173.242 221.124C172.997 220.946 172.697 220.868 172.251 220.868H171.438V223.251H172.285Z" fill="#004357"/>
<path d="M164.554 219.732H165.991V226.213H168.674V227.416H164.554V219.732Z" fill="#004357"/>
<path d="M158.062 219.732H162.806V220.935H159.51V222.839H162.617V224.031H159.51V226.213H162.895V227.416H158.062V219.732Z" fill="#004357"/>
<path d="M149.602 227.416V219.732H151.05V222.806H154.635V219.732H156.072V227.416H154.635V224.019H151.05V227.416H149.602Z" fill="#004357"/>
<path d="M141.347 227.55C139.131 227.55 137.327 226.057 137.327 223.585C137.327 221.113 139.131 219.621 141.347 219.621C143.574 219.621 145.367 221.113 145.367 223.585C145.367 226.057 143.574 227.55 141.347 227.55ZM141.347 226.28C142.772 226.28 143.875 225.244 143.875 223.574C143.875 221.904 142.772 220.879 141.347 220.879C139.921 220.879 138.819 221.904 138.819 223.574C138.819 225.244 139.932 226.28 141.347 226.28Z" fill="#004357"/>
<path d="M132.922 220.901H130.806V219.732H136.463V220.901H134.358V227.416H132.922V220.901Z" fill="#004357"/>
<path d="M122.363 219.732H127.107V220.935H123.81V222.839H126.917V224.031H123.81V226.213H127.196V227.416H122.363V219.732Z" fill="#004357"/>
<path d="M118.039 219.732C118.851 219.732 119.497 219.91 119.976 220.278C120.455 220.645 120.8 221.236 120.8 221.97C120.8 222.65 120.611 223.129 120.299 223.463C119.998 223.786 119.598 223.986 119.141 224.12L121.212 227.416H119.52L117.704 224.298H117.014V227.416H115.566V219.732H118.039ZM117.76 223.162C118.228 223.162 118.584 223.129 118.863 222.917C119.152 222.705 119.308 222.449 119.308 222.015C119.308 221.592 119.152 221.313 118.863 221.113C118.584 220.901 118.228 220.868 117.76 220.868H117.003V223.162H117.76Z" fill="#004357"/>
<path d="M109.075 219.732H113.819V220.935H110.522V222.839H113.629V224.031H110.522V226.213H113.908V227.416H109.075V219.732Z" fill="#004357"/>
<path d="M100.614 227.416V219.732H102.062V222.806H105.648V219.732H107.084V227.416H105.648V224.019H102.062V227.416H100.614Z" fill="#004357"/>
<path d="M132.837 242.286V265.687C132.837 268.725 135.299 271.187 138.337 271.187H160.58" stroke="#BED73C" stroke-width="1.375" stroke-linecap="round" stroke-linejoin="round" stroke-dasharray="2.75 2.75"/>
<path d="M201.775 229.791V250.946C201.775 253.984 199.313 256.446 196.275 256.446H192.832" stroke="#BED73C" stroke-width="1.375" stroke-linecap="round" stroke-linejoin="round" stroke-dasharray="2.75 2.75"/>
<path d="M105.667 421C105.667 390.624 130.291 366 160.667 366V366C191.042 366 215.667 390.624 215.667 421V421C215.667 451.376 191.042 476 160.667 476V476C130.291 476 105.667 451.376 105.667 421V421Z" fill="#F3F4F6"/>
<g clip-path="url(#clip0_6220_76307)">
<path d="M201.457 441.276C201.87 441.276 202.213 440.934 202.213 440.521V438.255H204.479C204.891 438.255 205.234 437.913 205.234 437.5V436.462L207.016 437.329C207.117 437.379 207.228 437.399 207.349 437.399C207.49 437.399 207.631 437.359 207.752 437.288C207.973 437.147 208.104 436.906 208.104 436.644V432.615C208.104 432.323 207.943 432.062 207.681 431.931L193.904 425.274C193.532 425.093 193.078 425.254 192.897 425.626C192.716 425.999 192.877 426.452 193.25 426.633L206.603 433.079V435.425L192.071 428.406C191.699 428.225 191.245 428.386 191.064 428.758C190.883 429.131 191.044 429.584 191.417 429.765L203.733 435.717V436.734H160.932V435.717L173.249 429.765C173.622 429.584 173.783 429.131 173.601 428.758C173.42 428.386 172.967 428.225 172.594 428.406L158.052 435.435V433.089L171.406 426.643C171.779 426.462 171.94 426.009 171.758 425.636C171.577 425.264 171.124 425.103 170.751 425.284L156.964 431.931C156.703 432.062 156.542 432.323 156.542 432.615V436.644C156.542 436.906 156.672 437.147 156.894 437.288C157.015 437.369 157.156 437.399 157.297 437.399C157.408 437.399 157.518 437.379 157.629 437.329L159.412 436.462V437.5C159.412 437.913 159.754 438.255 160.167 438.255H162.433V440.521C162.433 440.934 162.775 441.276 163.188 441.276H164.447V452.707H163.188C162.775 452.707 162.433 453.049 162.433 453.462V455.728H160.167C159.754 455.728 159.412 456.07 159.412 456.483V458.749H157.297C156.884 458.749 156.542 459.092 156.542 459.504V462.526C156.542 462.939 156.884 463.281 157.297 463.281H207.349C207.762 463.281 208.104 462.939 208.104 462.526V459.504C208.104 459.092 207.762 458.749 207.349 458.749H205.234V456.483C205.234 456.07 204.891 455.728 204.479 455.728H202.213V453.462C202.213 453.049 201.87 452.707 201.457 452.707H200.198V441.276H201.457ZM200.702 439.766H194.156V438.255H200.702V439.766ZM193.401 452.707C192.988 452.707 192.645 453.049 192.645 453.462V455.728H187.106V453.462C187.106 453.049 186.764 452.707 186.351 452.707H185.092V441.276H186.351C186.764 441.276 187.106 440.934 187.106 440.521V438.255H192.645V440.521C192.645 440.934 192.988 441.276 193.401 441.276H194.659V452.707H193.401ZM171.245 452.707H169.986V441.276H171.245C171.658 441.276 172 440.934 172 440.521V438.255H177.539V440.521C177.539 440.934 177.882 441.276 178.294 441.276H179.553V452.707H178.294C177.882 452.707 177.539 453.049 177.539 453.462V455.728H172V453.462C172 453.049 171.658 452.707 171.245 452.707ZM181.064 452.707V441.276H183.582V452.707H181.064ZM179.05 439.766V438.255H185.596V439.766H179.05ZM179.05 454.217H185.596V455.728H179.05V454.217ZM163.944 438.255H170.49V439.766H163.944V438.255ZM165.958 441.276H168.475V452.707H165.958V441.276ZM163.944 454.217H170.49V455.728H163.944V454.217ZM206.593 461.77H158.052V460.26H206.593V461.77ZM203.723 458.749H160.922V457.239H203.723V458.749ZM200.702 455.728H194.156V454.217H200.702V455.728ZM198.688 452.707H196.17V441.276H198.688V452.707Z" fill="#004357"/>
<path d="M182.322 411.719C176.904 411.719 172.503 416.12 172.503 421.538C172.503 426.956 176.904 431.357 182.322 431.357C187.741 431.357 192.141 426.956 192.141 421.538C192.141 416.12 187.741 411.719 182.322 411.719ZM184.236 425.737V426.906C184.236 427.359 183.843 427.711 183.39 427.651C183.007 427.6 182.725 427.258 182.725 426.875V425.919H181.92V426.906C181.92 427.359 181.527 427.711 181.074 427.651C180.691 427.6 180.409 427.258 180.409 426.875V425.919H180.137C179.754 425.919 179.402 425.637 179.362 425.254C179.301 424.791 179.664 424.408 180.107 424.408H183.289C183.742 424.408 184.165 424.126 184.296 423.693C184.528 422.968 183.984 422.293 183.289 422.293H181.376C180.248 422.293 179.08 421.397 178.848 420.299C178.566 418.98 179.301 417.781 180.409 417.338V416.2C180.409 415.818 180.691 415.465 181.074 415.425C181.537 415.364 181.92 415.727 181.92 416.17V417.157H182.725V416.2C182.725 415.818 183.007 415.465 183.39 415.425C183.853 415.364 184.236 415.727 184.236 416.17V417.157H184.508C184.891 417.157 185.243 417.439 185.283 417.822C185.344 418.285 184.981 418.668 184.538 418.668H181.356C180.902 418.668 180.479 418.95 180.349 419.383C180.117 420.108 180.661 420.782 181.356 420.782H183.269C184.397 420.782 185.565 421.679 185.797 422.776C186.079 424.096 185.344 425.294 184.236 425.737Z" fill="#087084"/>
</g>
<path d="M203.012 425.199V399.262C203.012 396.225 200.549 393.762 197.512 393.762H197.128" stroke="#BED73C" stroke-width="1.375" stroke-linecap="round" stroke-linejoin="round" stroke-dasharray="2.75 2.75"/>
<path d="M160.895 446.091L143.354 446.091C140.317 446.091 137.854 443.628 137.854 440.591L137.854 429.424" stroke="#BED73C" stroke-width="1.375" stroke-linecap="round" stroke-linejoin="round" stroke-dasharray="2.75 2.75"/>
<mask id="mask2_6220_76307" style="mask-type:alpha" maskUnits="userSpaceOnUse" x="105" y="366" width="111" height="110">
<rect x="105.896" y="366" width="110" height="110" rx="55" fill="#D9D9D9"/>
</mask>
<g mask="url(#mask2_6220_76307)">
<path d="M165.107 380.345L155.731 380.345C152.694 380.345 150.231 382.807 150.231 385.845L150.231 389.983" stroke="#BED73C" stroke-width="1.375" stroke-linecap="round" stroke-linejoin="round" stroke-dasharray="2.75 2.75"/>
<path d="M149.303 392.826H147.339V388.546C147.339 387.015 146.101 385.776 144.57 385.776H103.28C101.749 385.776 100.51 387.015 100.51 388.546V412.716C100.51 414.247 101.749 415.485 103.28 415.485H105.244V419.765C105.244 421.296 106.482 422.535 108.013 422.535H110.744H112.254H149.303C150.834 422.535 152.073 421.296 152.073 419.765V399.149V397.638V395.595C152.073 394.065 150.834 392.826 149.303 392.826ZM102.021 412.716V388.546C102.021 387.851 102.585 387.287 103.28 387.287H144.57C145.265 387.287 145.829 387.851 145.829 388.546V412.716C145.829 413.411 145.265 413.975 144.57 413.975H103.28C102.585 413.975 102.021 413.411 102.021 412.716ZM150.562 419.765C150.562 420.46 149.998 421.024 149.303 421.024H108.013C107.318 421.024 106.754 420.46 106.754 419.765V415.485H144.57C146.101 415.485 147.339 414.247 147.339 412.716V394.337H149.303C149.998 394.337 150.562 394.901 150.562 395.595V419.765Z" fill="#004357"/>
<path d="M110.744 424.578C110.744 426.109 111.982 427.347 113.513 427.347H154.803C156.334 427.347 157.573 426.109 157.573 424.578V400.408C157.573 398.877 156.334 397.638 154.803 397.638H152.073V399.149H154.803C155.498 399.149 156.062 399.713 156.062 400.408V424.578C156.062 425.273 155.498 425.837 154.803 425.837H113.513C112.818 425.837 112.254 425.273 112.254 424.578V422.535H110.744V424.578Z" fill="#004357"/>
<path d="M143.06 393.833H142.052C140.804 393.833 139.786 392.816 139.786 391.567V390.56C139.786 390.147 139.444 389.805 139.031 389.805C138.618 389.805 138.276 390.147 138.276 390.56V391.567C138.276 393.652 139.968 395.344 142.052 395.344H143.06C143.472 395.344 143.815 395.001 143.815 394.588C143.815 394.175 143.472 393.833 143.06 393.833Z" fill="#004357"/>
<path d="M143.06 405.918H142.052C139.968 405.918 138.276 407.61 138.276 409.695V410.702C138.276 411.115 138.618 411.457 139.031 411.457C139.444 411.457 139.786 411.115 139.786 410.702V409.695C139.786 408.446 140.804 407.429 142.052 407.429H143.06C143.472 407.429 143.815 407.086 143.815 406.673C143.815 406.26 143.472 405.918 143.06 405.918Z" fill="#004357"/>
<path d="M108.819 389.805C108.406 389.805 108.063 390.147 108.063 390.56V391.567C108.063 392.816 107.046 393.833 105.798 393.833H104.79C104.378 393.833 104.035 394.175 104.035 394.588C104.035 395.001 104.378 395.344 104.79 395.344H105.798C107.882 395.344 109.574 393.652 109.574 391.567V390.56C109.574 390.147 109.232 389.805 108.819 389.805Z" fill="#004357"/>
<path d="M105.798 405.918H104.79C104.378 405.918 104.035 406.26 104.035 406.673C104.035 407.086 104.378 407.429 104.79 407.429H105.798C107.046 407.429 108.063 408.446 108.063 409.695V410.702C108.063 411.115 108.406 411.457 108.819 411.457C109.232 411.457 109.574 411.115 109.574 410.702V409.695C109.574 407.61 107.882 405.918 105.798 405.918Z" fill="#004357"/>
<path d="M138.074 417.499H135.557C135.144 417.499 134.801 417.841 134.801 418.254C134.801 418.667 135.144 419.01 135.557 419.01H138.074C138.487 419.01 138.83 418.667 138.83 418.254C138.83 417.841 138.487 417.499 138.074 417.499Z" fill="#004357"/>
<path d="M129.565 417.499H127.047C126.634 417.499 126.292 417.841 126.292 418.254C126.292 418.667 126.634 419.01 127.047 419.01H129.565C129.977 419.01 130.32 418.667 130.32 418.254C130.32 417.841 129.977 417.499 129.565 417.499Z" fill="#004357"/>
<path d="M121.055 417.499H118.537C118.124 417.499 117.782 417.841 117.782 418.254C117.782 418.667 118.124 419.01 118.537 419.01H121.055C121.468 419.01 121.81 418.667 121.81 418.254C121.81 417.841 121.468 417.499 121.055 417.499Z" fill="#004357"/>
<path d="M112.545 417.499H110.027C109.614 417.499 109.272 417.841 109.272 418.254C109.272 418.667 109.614 419.01 110.027 419.01H112.545C112.958 419.01 113.3 418.667 113.3 418.254C113.3 417.841 112.958 417.499 112.545 417.499Z" fill="#004357"/>
<path d="M146.584 417.499H144.066C143.653 417.499 143.311 417.841 143.311 418.254C143.311 418.667 143.653 419.01 144.066 419.01H146.584C146.997 419.01 147.339 418.667 147.339 418.254C147.339 417.841 146.997 417.499 146.584 417.499Z" fill="#004357"/>
<path d="M123.925 390.812C118.507 390.812 114.106 395.213 114.106 400.632C114.106 406.05 118.507 410.451 123.925 410.451C129.343 410.451 133.744 406.05 133.744 400.632C133.744 395.213 129.343 390.812 123.925 390.812ZM125.838 404.902V406.17C125.838 406.583 125.496 406.926 125.083 406.926C124.67 406.926 124.328 406.583 124.328 406.17V405.083H123.532V406.17C123.532 406.583 123.19 406.926 122.777 406.926C122.364 406.926 122.022 406.583 122.022 406.17V405.083H121.719C121.307 405.083 120.964 404.74 120.964 404.328C120.964 403.915 121.307 403.572 121.719 403.572H124.912C125.486 403.572 125.949 403.079 125.949 402.485C125.949 401.89 125.486 401.397 124.912 401.397H122.948C121.548 401.397 120.4 400.229 120.4 398.799C120.4 397.701 121.075 396.754 122.012 396.382V395.093C122.012 394.68 122.354 394.337 122.767 394.337C123.18 394.337 123.522 394.68 123.522 395.093V396.18H124.318V395.093C124.318 394.68 124.66 394.337 125.073 394.337C125.486 394.337 125.828 394.68 125.828 395.093V396.18H126.13C126.543 396.18 126.886 396.523 126.886 396.936C126.886 397.348 126.543 397.691 126.13 397.691H122.938C122.364 397.691 121.901 398.184 121.901 398.779C121.901 399.383 122.364 399.866 122.938 399.866H124.902C126.302 399.866 127.45 401.034 127.45 402.464C127.45 403.572 126.775 404.519 125.838 404.902Z" fill="#087084"/>
<path d="M197.911 384.172C197.911 376.403 191.587 370.079 183.818 370.079C176.05 370.079 169.726 376.403 169.726 384.172C169.726 391.94 176.05 398.264 183.818 398.264C191.587 398.264 197.911 391.94 197.911 384.172Z" fill="#087084"/>
<path d="M190.427 380.928L182.53 388.957C182.325 389.161 182.048 389.278 181.756 389.278C181.464 389.278 181.187 389.161 180.982 388.957L177.201 385.117C176.778 384.679 176.778 383.993 177.216 383.57C177.654 383.146 178.34 383.146 178.763 383.584L181.756 386.635L188.88 379.395C189.303 378.957 190.004 378.957 190.427 379.38C190.851 379.804 190.865 380.504 190.427 380.928Z" fill="#F3F4F6"/>
</g>
<defs>
<clipPath id="clip0_6220_76307">
<rect width="51.5625" height="51.5625" fill="white" transform="translate(156.542 411.719)"/>
</clipPath>
</defs>
</svg>
