<svg width="421" height="472" viewBox="0 0 421 472" fill="none" xmlns="http://www.w3.org/2000/svg">
<path d="M22.6665 80C22.6665 35.8172 58.4837 0 102.667 0V0C146.849 0 182.667 35.8172 182.667 80V80C182.667 124.183 146.849 160 102.667 160V160C58.4837 160 22.6665 124.183 22.6665 80V80Z" fill="#F3F4F6"/>
<mask id="mask0_6222_77640" style="mask-type:alpha" maskUnits="userSpaceOnUse" x="22" y="0" width="161" height="160">
<rect x="22.6665" width="160" height="160" rx="80" fill="#D9D9D9"/>
</mask>
<g mask="url(#mask0_6222_77640)">
<path d="M86.8638 28.5H54.6372C54.3442 28.5 54.0659 28.6172 53.8608 28.8223L42.1421 40.541C41.937 40.7461 41.8198 41.0244 41.8198 41.3174V93.6123C41.8198 95.8389 43.6216 97.6406 45.8481 97.6406H70.9556C71.5562 97.6406 72.0542 97.1426 72.0542 96.542C72.0542 95.9414 71.5562 95.4434 70.9556 95.4434H45.8481C44.8374 95.4434 44.0171 94.623 44.0171 93.6123V42.416H51.7075C53.9341 42.416 55.7358 40.6143 55.7358 38.3877V30.6973H86.8638C87.8745 30.6973 88.6948 31.5176 88.6948 32.5283V65.7656C88.6948 66.3662 89.1929 66.8643 89.7935 66.8643C90.394 66.8643 90.8921 66.3662 90.8921 65.7656V32.5283C90.8921 30.3018 89.0903 28.5 86.8638 28.5ZM51.7075 40.2188H45.5698L53.5386 32.25V38.3877C53.5386 39.3984 52.7183 40.2188 51.7075 40.2188Z" fill="#004357"/>
<path d="M67.8208 67.3916C68.4214 67.3916 68.9194 66.8936 68.9194 66.293V61.8984C68.9194 61.2979 68.4214 60.7998 67.8208 60.7998H49.8765V58.0166C49.8765 57.416 49.3784 56.918 48.7778 56.918C48.1772 56.918 47.6792 57.416 47.6792 58.0166V90.6973C47.6792 91.2979 48.1772 91.7959 48.7778 91.7959C49.3784 91.7959 49.8765 91.2979 49.8765 90.6973V87.9141H59.0317C59.6323 87.9141 60.1304 87.416 60.1304 86.8154V82.4209C60.1304 81.8203 59.6323 81.3223 59.0317 81.3223H49.8765V77.6602H63.4263C64.0269 77.6602 64.5249 77.1621 64.5249 76.5615V72.167C64.5249 71.5664 64.0269 71.0684 63.4263 71.0684H49.8765V67.4063H67.8208V67.3916ZM66.7222 62.9971V65.1943H49.8765V62.9971H66.7222ZM57.9331 83.5049V85.7021H49.8765V83.5049H57.9331ZM62.3276 73.251V75.4482H49.8765V73.251H62.3276Z" fill="#004357"/>
<path d="M81.0044 43.1484H77.7964C76.7856 43.1484 75.9653 42.3281 75.9653 41.3174C75.9653 40.3066 76.7856 39.4863 77.7964 39.4863H83.0259C83.6265 39.4863 84.1245 38.9883 84.1245 38.3877C84.1245 37.7871 83.6265 37.2891 83.0259 37.2891H82.3813V35.458C82.3813 34.8574 81.8833 34.3594 81.2827 34.3594C80.6821 34.3594 80.1841 34.8574 80.1841 35.458V37.2891H78.6021V35.458C78.6021 34.8574 78.104 34.3594 77.5034 34.3594C76.9028 34.3594 76.4048 34.8574 76.4048 35.458V37.5381C74.8667 38.1094 73.7534 39.5889 73.7534 41.3174C73.7534 43.5439 75.5552 45.3457 77.7817 45.3457H80.9897C82.0005 45.3457 82.8208 46.166 82.8208 47.1768C82.8208 48.1875 82.0005 49.0078 80.9897 49.0078H75.7603C75.1597 49.0078 74.6616 49.5059 74.6616 50.1064C74.6616 50.707 75.1597 51.2051 75.7603 51.2051H76.4048V53.0361C76.4048 53.6367 76.9028 54.1348 77.5034 54.1348C78.104 54.1348 78.6021 53.6367 78.6021 53.0361V51.2051H80.1841V53.0361C80.1841 53.6367 80.6821 54.1348 81.2827 54.1348C81.8833 54.1348 82.3813 53.6367 82.3813 53.0361V50.9561C83.9194 50.3848 85.0327 48.9053 85.0327 47.1768C85.0327 44.9502 83.231 43.1484 81.0044 43.1484Z" fill="#004357"/>
<path d="M48.7778 53.2412H63.4263C64.0269 53.2412 64.5249 52.7432 64.5249 52.1426C64.5249 51.542 64.0269 51.0439 63.4263 51.0439H48.7778C48.1772 51.0439 47.6792 51.542 47.6792 52.1426C47.6792 52.7432 48.1626 53.2412 48.7778 53.2412Z" fill="#004357"/>
<path d="M67.8208 46.6494H48.7778C48.1772 46.6494 47.6792 47.1475 47.6792 47.748C47.6792 48.3486 48.1772 48.8467 48.7778 48.8467H67.8208C68.4214 48.8467 68.9194 48.3486 68.9194 47.748C68.9194 47.1475 68.4214 46.6494 67.8208 46.6494Z" fill="#004357"/>
<path d="M36.3853 41.9473V37.1719C36.3853 35.3555 34.9058 33.876 33.0894 33.876C31.2729 33.876 29.7935 35.3555 29.7935 37.1719V41.9326C29.1929 41.9326 28.6948 42.4307 28.6948 43.0312V46.3271H27.23C25.8237 46.3271 24.6665 47.4844 24.6665 48.8906V59.1445C24.6665 59.7451 25.1646 60.2432 25.7651 60.2432C26.3657 60.2432 26.8638 59.7451 26.8638 59.1445V48.8906C26.8638 48.6855 27.0249 48.5244 27.23 48.5244H28.6948V70.8633C28.6948 71.3467 29.0024 71.7422 29.4272 71.9033V87.5332C29.4272 91.0488 30.3647 94.5205 32.1372 97.5674C32.3276 97.9043 32.6938 98.1094 33.0894 98.1094C33.4849 98.1094 33.8364 97.9043 34.0415 97.5674C35.814 94.5205 36.7515 91.0488 36.7515 87.5332V71.9033C37.1763 71.7568 37.4839 71.3467 37.4839 70.8633V43.0312C37.4839 42.4307 36.9858 41.9473 36.3853 41.9473ZM30.8921 69.7793V44.1445H35.2866V69.7793H30.8921ZM31.9907 37.1719C31.9907 36.5713 32.4888 36.0732 33.0894 36.0732C33.6899 36.0732 34.188 36.5713 34.188 37.1719V41.9326H31.9907V37.1719ZM33.0894 94.5938C32.1226 92.3672 31.6245 89.9648 31.6245 87.5332V71.9766H34.5542V87.5332C34.5542 89.9648 34.0562 92.3672 33.0894 94.5938Z" fill="#004357"/>
<path d="M98.9487 72.6064L85.7651 67.8164C85.5161 67.7285 85.2524 67.7285 85.0181 67.8164L71.8345 72.6064C71.395 72.7676 71.1167 73.1777 71.1167 73.6318V85.1309C71.1167 93.6709 76.8735 101.2 85.106 103.456C85.1938 103.485 85.2964 103.5 85.3989 103.5C85.5015 103.5 85.5894 103.485 85.6919 103.456C93.9097 101.215 99.6665 93.6855 99.6665 85.1455V73.6465C99.6665 73.1777 99.3735 72.7676 98.9487 72.6064ZM92.02 82.3623L84.0952 90.4189C83.8901 90.624 83.6118 90.7412 83.3188 90.7412C83.0259 90.7412 82.7476 90.624 82.5425 90.4189L78.7485 86.5664C78.3237 86.127 78.3237 85.4385 78.7632 85.0137C79.2026 84.5889 79.8911 84.5889 80.3159 85.0283L83.3188 88.0898L90.4673 80.8242C90.8921 80.3848 91.5952 80.3848 92.02 80.8096C92.4448 81.2344 92.4595 81.9375 92.02 82.3623Z" fill="#087084"/>
</g>
<path d="M142.077 124.879V59.5334C142.077 58.1332 143.212 56.998 144.613 56.998C146.013 56.998 147.148 58.1332 147.148 59.5334V124.879C147.148 126.279 146.013 127.414 144.613 127.414C143.212 127.414 142.077 126.279 142.077 124.879Z" fill="white" stroke="#004357" stroke-width="2"/>
<rect x="92.3916" y="62.4089" width="104.442" height="33.8662" rx="7" fill="white"/>
<rect x="92.3916" y="62.4089" width="104.442" height="33.8662" rx="7" stroke="#004357" stroke-width="2"/>
<path d="M184.771 73.6648H186.942L186.747 81.634H184.949L184.771 73.6648ZM184.544 83.8207C184.544 83.0594 185.079 82.6059 185.856 82.6059C186.602 82.6059 187.152 83.0594 187.152 83.8207C187.152 84.5658 186.602 85.0193 185.856 85.0193C185.079 85.0193 184.544 84.5658 184.544 83.8207Z" fill="#004357"/>
<path d="M174.988 73.6648H181.888V75.4141H177.094V78.1839H181.613V79.9171H177.094V83.0918H182.018V84.8412H174.988V73.6648Z" fill="#004357"/>
<path d="M165.545 73.6648H172.446V75.4141H167.651V78.1839H172.17V79.9171H167.651V83.0918H172.575V84.8412H165.545V73.6648Z" fill="#004357"/>
<path d="M159.256 73.6648C160.438 73.6648 161.377 73.924 162.074 74.4585C162.77 74.993 163.273 75.8515 163.273 76.9205C163.273 77.9086 162.997 78.6051 162.544 79.091C162.106 79.5607 161.523 79.8523 160.859 80.0467L163.872 84.8412H161.41L158.77 80.3058H157.765V84.8412H155.66V73.6648H159.256ZM158.851 78.6537C159.531 78.6537 160.049 78.6051 160.454 78.2973C160.875 77.9896 161.102 77.617 161.102 76.9853C161.102 76.3698 160.875 75.9649 160.454 75.6733C160.049 75.3655 159.531 75.317 158.851 75.317H157.749V78.6537H158.851Z" fill="#004357"/>
<path d="M146.787 73.6648H153.379V75.4303H148.892V78.5727H153.12V80.3058H148.892V84.8412H146.787V73.6648Z" fill="#004357"/>
<path d="M135.922 75.3655H132.844V73.6648H141.073V75.3655H138.011V84.8412H135.922V75.3655Z" fill="#004357"/>
<path d="M126.989 73.6648C127.896 73.6648 128.739 73.7458 129.468 74.1021C130.342 74.5233 130.909 75.2036 130.909 76.3374C130.909 77.8438 129.905 78.6375 129.176 78.929V78.9614C130.618 79.2854 131.573 80.2248 131.573 81.7312C131.573 82.8651 131.006 83.7397 130.245 84.2257C129.549 84.663 128.561 84.8412 127.491 84.8412H123.41V73.6648H126.989ZM126.827 78.3297C127.41 78.3297 127.815 78.2649 128.156 78.0544C128.544 77.8114 128.771 77.4226 128.771 76.8233C128.771 76.305 128.593 75.9487 128.285 75.7057C127.945 75.4465 127.475 75.317 126.925 75.317H125.515V78.3297H126.827ZM127.329 83.189C127.864 83.189 128.382 83.1728 128.771 82.9136C129.192 82.6383 129.435 82.1362 129.435 81.553C129.435 80.9375 129.16 80.5164 128.739 80.2248C128.318 79.9333 127.88 79.8685 127.232 79.8685H125.515V83.189H127.329Z" fill="#004357"/>
<path d="M113.967 73.6648H120.867V75.4141H116.072V78.1839H120.592V79.9171H116.072V83.0918H120.997V84.8412H113.967V73.6648Z" fill="#004357"/>
<path d="M105.652 73.6648C107.596 73.6648 109.037 74.2965 109.896 75.074C110.77 75.8353 111.677 77.1149 111.677 79.2368C111.677 81.3749 110.77 82.6869 109.896 83.4482C109.037 84.2095 107.596 84.8412 105.652 84.8412H102.072V73.6648H105.652ZM105.733 83.0594C106.948 83.0594 107.839 82.6545 108.389 82.1362C108.924 81.6178 109.507 80.7594 109.507 79.253C109.507 77.7628 108.924 76.8557 108.389 76.3374C107.839 75.8353 106.948 75.4303 105.733 75.4303H104.178V83.0594H105.733Z" fill="#004357"/>
<path d="M128.148 111.937L127.585 112.444L128.272 112.763C134.004 115.424 137.887 121.152 137.887 127.692C137.887 130.999 135.371 133.514 132.065 133.514H110.992C107.686 133.514 105.17 130.999 105.17 127.692C105.17 121.152 109.053 115.424 114.785 112.763L115.471 112.444L114.909 111.937C112.891 110.121 111.492 107.511 111.492 104.512C111.492 98.8878 115.904 94.4756 121.528 94.4756C127.153 94.4756 131.565 98.8878 131.565 104.512C131.565 107.511 130.166 110.121 128.148 111.937ZM121.528 97.6902C117.67 97.6902 114.706 100.654 114.706 104.512C114.706 108.371 117.67 111.334 121.528 111.334C125.387 111.334 128.35 108.371 128.35 104.512C128.35 100.654 125.387 97.6902 121.528 97.6902ZM110.992 130.3H132.065C132.811 130.3 133.471 130.049 133.946 129.574C134.421 129.099 134.672 128.438 134.672 127.692C134.672 120.462 128.759 114.549 121.528 114.549C114.298 114.549 108.385 120.462 108.385 127.692C108.385 128.438 108.635 129.099 109.11 129.574C109.586 130.049 110.246 130.3 110.992 130.3Z" fill="#004357" stroke="#F3F4F6"/>
<path d="M62.1182 105.736V106.46C62.1182 110.878 65.6999 114.46 70.1182 114.46H101.526" stroke="#BED73C" stroke-width="2" stroke-linecap="round" stroke-linejoin="round" stroke-dasharray="4 4"/>
<path d="M118.874 56.2725V47.7363C118.874 43.318 115.292 39.7363 110.874 39.7363H96.1185" stroke="#BED73C" stroke-width="2" stroke-linecap="round" stroke-linejoin="round" stroke-dasharray="4 4"/>
<path d="M239.167 80C239.167 35.8172 274.984 0 319.167 0V0C363.349 0 399.167 35.8172 399.167 80V80C399.167 124.183 363.349 160 319.167 160V160C274.984 160 239.167 124.183 239.167 80V80Z" fill="#F3F4F6"/>
<path d="M355.382 110.602L354.602 111.305L355.579 111.69C364 115.007 369.872 123.173 369.872 132.88V143.384C369.872 147.489 366.75 150.612 362.645 150.612H331.134C327.029 150.612 323.906 147.489 323.906 143.384V132.88C323.906 123.173 329.778 115.007 338.199 111.69L339.122 111.327L338.421 110.626C335.896 108.102 334.41 105.109 334.41 101.369C334.41 94.3758 339.896 88.8897 346.889 88.8897C353.883 88.8897 359.369 94.3758 359.369 101.369C359.369 105.128 357.868 108.365 355.382 110.602ZM346.889 92.8416C342.066 92.8416 338.361 96.5463 338.361 101.369C338.361 106.192 342.066 109.897 346.889 109.897C351.712 109.897 355.417 106.192 355.417 101.369C355.417 96.5463 351.712 92.8416 346.889 92.8416ZM362.645 146.66C363.58 146.66 364.41 146.345 365.008 145.748C365.606 145.15 365.921 144.32 365.921 143.384V132.88C365.921 122.28 357.489 113.849 346.889 113.849C336.289 113.849 327.858 122.28 327.858 132.88V143.384C327.858 144.32 328.172 145.15 328.77 145.748C329.368 146.345 330.198 146.66 331.134 146.66H362.645Z" fill="#004357" stroke="#F3F4F6" stroke-width="1.3"/>
<path d="M339.011 136.156H341.637C342.277 136.156 342.76 136.367 343.081 136.688C343.403 137.009 343.613 137.492 343.613 138.132C343.613 138.772 343.403 139.255 343.081 139.576C342.76 139.898 342.277 140.108 341.637 140.108H339.011C338.371 140.108 337.888 139.898 337.567 139.576C337.246 139.255 337.035 138.772 337.035 138.132C337.035 137.492 337.246 137.009 337.567 136.688C337.888 136.367 338.371 136.156 339.011 136.156Z" fill="#004357" stroke="#F3F4F6" stroke-width="1.3"/>
<path d="M352.141 136.156H354.767C355.407 136.156 355.89 136.367 356.211 136.688C356.532 137.009 356.743 137.492 356.743 138.132C356.743 138.772 356.532 139.255 356.211 139.576C355.89 139.898 355.407 140.108 354.767 140.108H352.141C351.501 140.108 351.018 139.898 350.697 139.576C350.376 139.255 350.165 138.772 350.165 138.132C350.165 137.492 350.376 137.009 350.697 136.688C351.018 136.367 351.501 136.156 352.141 136.156Z" fill="#004357" stroke="#F3F4F6" stroke-width="1.3"/>
<mask id="mask1_6222_77640" style="mask-type:alpha" maskUnits="userSpaceOnUse" x="238" y="0" width="161" height="160">
<rect x="238.833" width="160" height="160" rx="80" fill="#D9D9D9"/>
</mask>
<g mask="url(#mask1_6222_77640)">
<path d="M385.139 29.5322H348.975C344.296 29.5322 340.499 33.3295 340.499 38.0082V56.0902C340.499 60.7689 344.296 64.5662 348.975 64.5662H351.8V69.4257C351.8 72.4771 354.287 74.9633 357.338 74.9633C358.807 74.9633 360.186 74.3983 361.226 73.3585L366.628 67.9565H362.536C361.61 67.9565 360.841 67.1881 360.841 66.2614C360.841 65.3346 361.61 64.5662 362.536 64.5662H385.139C389.818 64.5662 393.615 60.7689 393.615 56.0902V38.0082C393.615 33.3295 389.818 29.5322 385.139 29.5322ZM351.235 40.8335H353.495C354.422 40.8335 355.191 41.602 355.191 42.5287C355.191 43.4554 354.422 44.2239 353.495 44.2239H351.235C350.309 44.2239 349.54 43.4554 349.54 42.5287C349.54 41.602 350.309 40.8335 351.235 40.8335ZM382.879 53.2649H351.235C350.309 53.2649 349.54 52.4964 349.54 51.5697C349.54 50.643 350.309 49.8745 351.235 49.8745H382.879C383.805 49.8745 384.574 50.643 384.574 51.5697C384.574 52.4964 383.805 53.2649 382.879 53.2649ZM382.879 44.2239H360.276C359.35 44.2239 358.581 43.4554 358.581 42.5287C358.581 41.602 359.35 40.8335 360.276 40.8335H382.879C383.805 40.8335 384.574 41.602 384.574 42.5287C384.574 43.4554 383.805 44.2239 382.879 44.2239Z" fill="#087084"/>
</g>
<path fill-rule="evenodd" clip-rule="evenodd" d="M298.128 35.4995H233.127C226.738 35.4995 221.552 40.6849 221.552 47.074V71.7661C221.552 78.1552 226.738 83.3406 233.127 83.3406H293.776L298.128 87.6926L302.757 92.3223L305.782 95.3471C307.202 96.7669 309.085 97.5385 311.091 97.5385C315.258 97.5385 318.653 94.1434 318.653 89.9766V83.3406H338.511C344.9 83.3406 350.085 78.1552 350.085 71.7661V47.074C350.085 40.6849 344.9 35.4995 338.511 35.4995H302.757H298.128ZM345.456 71.7661V47.074C345.456 43.2467 342.338 40.1293 338.511 40.1293H233.127C229.299 40.1293 226.182 43.2467 226.182 47.074V71.7661C226.182 75.5934 229.299 78.7108 233.127 78.7108H305.535C306.801 78.7108 307.85 79.7602 307.85 81.0257C307.85 82.2911 306.801 83.3406 305.535 83.3406H300.319L309.054 92.0754C309.578 92.6001 310.319 92.9088 311.091 92.9088C312.696 92.9088 314.023 91.5816 314.023 89.9766V81.0257C314.023 79.7602 315.072 78.7108 316.338 78.7108H338.511C342.338 78.7108 345.456 75.5934 345.456 71.7661Z" fill="#004357"/>
<path d="M345.456 47.074V71.7661C345.456 75.5934 342.338 78.7108 338.511 78.7108H316.338C315.072 78.7108 314.023 79.7602 314.023 81.0257V89.9766C314.023 91.5816 312.696 92.9088 311.091 92.9088C310.319 92.9088 309.578 92.6001 309.054 92.0754L300.319 83.3406H305.535C306.801 83.3406 307.85 82.2911 307.85 81.0257C307.85 79.7602 306.801 78.7108 305.535 78.7108H233.127C229.299 78.7108 226.182 75.5934 226.182 71.7661V47.074C226.182 43.2467 229.299 40.1293 233.127 40.1293H338.511C342.338 40.1293 345.456 43.2467 345.456 47.074Z" fill="#F3F4F6"/>
<path d="M300.319 82.5906H298.508L299.789 83.8709L308.523 92.6057C309.191 93.2731 310.123 93.6588 311.091 93.6588C313.11 93.6588 314.773 91.9958 314.773 89.9766V81.0257C314.773 80.1744 315.487 79.4608 316.338 79.4608H338.511C342.753 79.4608 346.206 76.0076 346.206 71.7661V47.074C346.206 42.8325 342.753 39.3793 338.511 39.3793H233.127C228.885 39.3793 225.432 42.8325 225.432 47.074V71.7661C225.432 76.0076 228.885 79.4608 233.127 79.4608H305.535C306.386 79.4608 307.1 80.1744 307.1 81.0257C307.1 81.8769 306.386 82.5906 305.535 82.5906H300.319ZM344.706 47.074V71.7661C344.706 75.1792 341.924 77.9608 338.511 77.9608H316.338C314.658 77.9608 313.273 79.346 313.273 81.0257V89.9766C313.273 91.1674 312.282 92.1588 311.091 92.1588C310.515 92.1588 309.966 91.9271 309.584 91.5451L302.13 84.0906H305.535C307.215 84.0906 308.6 82.7054 308.6 81.0257C308.6 79.346 307.215 77.9608 305.535 77.9608H233.127C229.714 77.9608 226.932 75.1792 226.932 71.7661V47.074C226.932 43.6609 229.714 40.8793 233.127 40.8793H338.511C341.924 40.8793 344.706 43.6609 344.706 47.074ZM294.306 82.8102L294.086 82.5906H293.776H233.127C227.152 82.5906 222.302 77.741 222.302 71.7661V47.074C222.302 41.0991 227.152 36.2495 233.127 36.2495H298.128H302.757H338.511C344.486 36.2495 349.335 41.0991 349.335 47.074V71.7661C349.335 77.741 344.486 82.5906 338.511 82.5906H318.653H317.903V83.3406V89.9766C317.903 93.7292 314.843 96.7885 311.091 96.7885C309.282 96.7885 307.59 96.0945 306.312 94.8168L303.288 91.792L298.658 87.1622L294.306 82.8102Z" stroke="#F3F4F6" stroke-width="1.5"/>
<rect x="225.436" y="39.4634" width="120.668" height="39.9521" rx="8" fill="white"/>
<path d="M336.053 53.8826C337.171 53.8826 338.142 54.1093 338.855 54.7086C339.584 55.308 340.021 56.1016 340.021 57.2355C340.021 58.3693 339.584 59.1792 338.855 59.7785C338.142 60.3778 337.171 60.6532 336.053 60.6532H334.579V65.0589H332.457V53.8826H336.053ZM335.794 59.001C336.442 59.001 336.879 58.839 337.235 58.5799C337.592 58.3207 337.851 57.8672 337.851 57.2355C337.851 56.62 337.543 56.1664 337.187 55.9073C336.83 55.6481 336.393 55.5347 335.745 55.5347H334.563V59.001H335.794Z" fill="#004357"/>
<path d="M324.549 53.8826H326.638V63.3096H330.542V65.0589H324.549V53.8826Z" fill="#004357"/>
<path d="M315.106 53.8826H322.007V55.6319H317.212V58.4017H321.731V60.1349H317.212V63.3096H322.136V65.0589H315.106V53.8826Z" fill="#004357"/>
<path d="M302.8 65.0589V53.8826H304.906V58.3531H310.122V53.8826H312.211V65.0589H310.122V60.1187H304.906V65.0589H302.8Z" fill="#004357"/>
<path d="M290.792 65.2534C287.569 65.2534 284.945 63.0829 284.945 59.4871C284.945 55.8912 287.569 53.7207 290.792 53.7207C294.032 53.7207 296.64 55.8912 296.64 59.4871C296.64 63.0829 294.032 65.2534 290.792 65.2534ZM290.792 63.4069C292.865 63.4069 294.469 61.9005 294.469 59.4709C294.469 57.0412 292.865 55.551 290.792 55.551C288.719 55.551 287.115 57.0412 287.115 59.4709C287.115 61.9005 288.735 63.4069 290.792 63.4069Z" fill="#004357"/>
<path d="M278.538 55.5833H275.461V53.8826H283.689V55.5833H280.628V65.0589H278.538V55.5833Z" fill="#004357"/>
<path d="M263.18 53.8826H270.08V55.6319H265.285V58.4017H269.805V60.1349H265.285V63.3096H270.209V65.0589H263.18V53.8826Z" fill="#004357"/>
<path d="M256.89 53.8826C258.072 53.8826 259.012 54.1417 259.708 54.6763C260.405 55.2108 260.907 56.0693 260.907 57.1383C260.907 58.1264 260.631 58.8228 260.178 59.3088C259.741 59.7785 259.157 60.0701 258.493 60.2644L261.506 65.0589H259.044L256.404 60.5236H255.4V65.0589H253.294V53.8826H256.89ZM256.485 58.8714C257.165 58.8714 257.684 58.8228 258.088 58.5151C258.51 58.2073 258.736 57.8348 258.736 57.2031C258.736 56.5876 258.51 56.1826 258.088 55.8911C257.684 55.5833 257.165 55.5347 256.485 55.5347H255.383V58.8714H256.485Z" fill="#004357"/>
<path d="M243.851 53.8826H250.751V55.6319H245.957V58.4017H250.476V60.1349H245.957V63.3096H250.881V65.0589H243.851V53.8826Z" fill="#004357"/>
<path d="M231.545 65.0589V53.8826H233.651V58.3531H238.867V53.8826H240.956V65.0589H238.867V60.1187H233.651V65.0589H231.545Z" fill="#004357"/>
<path d="M278.688 86.2344V120.272C278.688 124.691 282.269 128.272 286.687 128.272H319.041" stroke="#BED73C" stroke-width="2" stroke-linecap="round" stroke-linejoin="round" stroke-dasharray="4 4"/>
<path d="M378.961 68.0596V98.8311C378.961 103.249 375.38 106.831 370.961 106.831H365.953" stroke="#BED73C" stroke-width="2" stroke-linecap="round" stroke-linejoin="round" stroke-dasharray="4 4"/>
<path d="M130.667 324C130.667 279.817 166.484 244 210.667 244V244C254.849 244 290.667 279.817 290.667 324V324C290.667 368.183 254.849 404 210.667 404V404C166.484 404 130.667 368.183 130.667 324V324Z" fill="#F3F4F6"/>
<g clip-path="url(#clip0_6222_77640)">
<path d="M269.999 353.493C270.6 353.493 271.098 352.995 271.098 352.395V349.099H274.394C274.994 349.099 275.492 348.601 275.492 348V346.491L278.085 347.751C278.231 347.824 278.393 347.854 278.568 347.854C278.773 347.854 278.979 347.795 279.154 347.692C279.477 347.487 279.667 347.136 279.667 346.755V340.896C279.667 340.471 279.433 340.09 279.052 339.899L259.013 330.217C258.471 329.953 257.812 330.188 257.548 330.729C257.284 331.271 257.519 331.931 258.061 332.194L277.484 341.569V344.982L256.347 334.772C255.805 334.509 255.146 334.743 254.882 335.285C254.618 335.827 254.853 336.486 255.395 336.75L273.31 345.407V346.887H211.054V345.407L228.969 336.75C229.511 336.486 229.745 335.827 229.481 335.285C229.218 334.743 228.559 334.509 228.017 334.772L206.864 344.997V341.584L226.288 332.209C226.83 331.945 227.064 331.286 226.801 330.744C226.537 330.202 225.878 329.968 225.336 330.231L205.282 339.899C204.901 340.09 204.667 340.471 204.667 340.896V346.755C204.667 347.136 204.857 347.487 205.18 347.692C205.355 347.81 205.561 347.854 205.766 347.854C205.927 347.854 206.088 347.824 206.249 347.751L208.842 346.491V348C208.842 348.601 209.34 349.099 209.94 349.099H213.236V352.395C213.236 352.995 213.734 353.493 214.335 353.493H216.166V370.119H214.335C213.734 370.119 213.236 370.617 213.236 371.218V374.514H209.94C209.34 374.514 208.842 375.012 208.842 375.612V378.908H205.766C205.165 378.908 204.667 379.406 204.667 380.007V384.401C204.667 385.002 205.165 385.5 205.766 385.5H278.568C279.169 385.5 279.667 385.002 279.667 384.401V380.007C279.667 379.406 279.169 378.908 278.568 378.908H275.492V375.612C275.492 375.012 274.994 374.514 274.394 374.514H271.098V371.218C271.098 370.617 270.6 370.119 269.999 370.119H268.168V353.493H269.999ZM268.9 351.296H259.379V349.099H268.9V351.296ZM258.28 370.119C257.68 370.119 257.182 370.617 257.182 371.218V374.514H249.125V371.218C249.125 370.617 248.627 370.119 248.026 370.119H246.195V353.493H248.026C248.627 353.493 249.125 352.995 249.125 352.395V349.099H257.182V352.395C257.182 352.995 257.68 353.493 258.28 353.493H260.111V370.119H258.28ZM226.054 370.119H224.223V353.493H226.054C226.654 353.493 227.152 352.995 227.152 352.395V349.099H235.209V352.395C235.209 352.995 235.707 353.493 236.308 353.493H238.139V370.119H236.308C235.707 370.119 235.209 370.617 235.209 371.218V374.514H227.152V371.218C227.152 370.617 226.654 370.119 226.054 370.119ZM240.336 370.119V353.493H243.998V370.119H240.336ZM237.406 351.296V349.099H246.928V351.296H237.406ZM237.406 372.316H246.928V374.514H237.406V372.316ZM215.434 349.099H224.955V351.296H215.434V349.099ZM218.363 353.493H222.025V370.119H218.363V353.493ZM215.434 372.316H224.955V374.514H215.434V372.316ZM277.47 383.303H206.864V381.105H277.47V383.303ZM273.295 378.908H211.039V376.711H273.295V378.908ZM268.9 374.514H259.379V372.316H268.9V374.514ZM265.971 370.119H262.309V353.493H265.971V370.119Z" fill="#004357"/>
<path d="M242.167 310.5C234.286 310.5 227.885 316.901 227.885 324.782C227.885 332.663 234.286 339.064 242.167 339.064C250.048 339.064 256.449 332.663 256.449 324.782C256.449 316.901 250.048 310.5 242.167 310.5ZM244.95 330.891V332.59C244.95 333.249 244.379 333.762 243.72 333.674C243.163 333.601 242.753 333.103 242.753 332.546V331.154H241.581V332.59C241.581 333.249 241.01 333.762 240.351 333.674C239.794 333.601 239.384 333.103 239.384 332.546V331.154H238.988C238.432 331.154 237.919 330.744 237.86 330.187C237.772 329.514 238.3 328.957 238.944 328.957H243.573C244.232 328.957 244.848 328.547 245.038 327.917C245.375 326.862 244.584 325.881 243.573 325.881H240.79C239.149 325.881 237.45 324.577 237.113 322.98C236.703 321.062 237.772 319.318 239.384 318.674V317.019C239.384 316.462 239.794 315.949 240.351 315.891C241.024 315.803 241.581 316.33 241.581 316.975V318.41H242.753V317.019C242.753 316.462 243.163 315.949 243.72 315.891C244.394 315.803 244.95 316.33 244.95 316.975V318.41H245.346C245.902 318.41 246.415 318.82 246.474 319.377C246.562 320.051 246.034 320.607 245.39 320.607H240.761C240.102 320.607 239.486 321.018 239.296 321.647C238.959 322.702 239.75 323.684 240.761 323.684H243.544C245.185 323.684 246.884 324.987 247.221 326.584C247.631 328.503 246.562 330.246 244.95 330.891Z" fill="#087084"/>
</g>
<path d="M272.259 330.108V292.382C272.259 287.964 268.678 284.382 264.259 284.382H263.701" stroke="#BED73C" stroke-width="2" stroke-linecap="round" stroke-linejoin="round" stroke-dasharray="4 4"/>
<path d="M211 360.495L185.486 360.495C181.068 360.495 177.486 356.913 177.486 352.495L177.486 336.252" stroke="#BED73C" stroke-width="2" stroke-linecap="round" stroke-linejoin="round" stroke-dasharray="4 4"/>
<mask id="mask2_6222_77640" style="mask-type:alpha" maskUnits="userSpaceOnUse" x="131" y="244" width="160" height="160">
<rect x="131" y="244" width="160" height="160" rx="80" fill="#D9D9D9"/>
</mask>
<g mask="url(#mask2_6222_77640)">
<path d="M217.126 264.865L203.488 264.865C199.07 264.865 195.488 268.447 195.488 272.865L195.488 278.884" stroke="#BED73C" stroke-width="2" stroke-linecap="round" stroke-linejoin="round" stroke-dasharray="4 4"/>
<path d="M194.139 283.021H191.282V276.795C191.282 274.568 189.48 272.767 187.254 272.767H127.195C124.969 272.767 123.167 274.568 123.167 276.795V311.951C123.167 314.178 124.969 315.979 127.195 315.979H130.052V322.205C130.052 324.432 131.854 326.233 134.08 326.233H138.052H140.249H194.139C196.365 326.233 198.167 324.432 198.167 322.205V292.218V290.021V287.049C198.167 284.822 196.365 283.021 194.139 283.021ZM125.364 311.951V276.795C125.364 275.784 126.185 274.964 127.195 274.964H187.254C188.265 274.964 189.085 275.784 189.085 276.795V311.951C189.085 312.962 188.265 313.782 187.254 313.782H127.195C126.185 313.782 125.364 312.962 125.364 311.951ZM195.97 322.205C195.97 323.216 195.149 324.036 194.139 324.036H134.08C133.069 324.036 132.249 323.216 132.249 322.205V315.979H187.254C189.48 315.979 191.282 314.178 191.282 311.951V285.218H194.139C195.149 285.218 195.97 286.038 195.97 287.049V322.205Z" fill="#004357"/>
<path d="M138.052 329.205C138.052 331.432 139.854 333.233 142.08 333.233H202.139C204.365 333.233 206.167 331.432 206.167 329.205V294.049C206.167 291.822 204.365 290.021 202.139 290.021H198.167V292.218H202.139C203.149 292.218 203.97 293.038 203.97 294.049V329.205C203.97 330.216 203.149 331.036 202.139 331.036H142.08C141.069 331.036 140.249 330.216 140.249 329.205V326.233H138.052V329.205Z" fill="#004357"/>
<path d="M185.057 284.485H183.592C181.775 284.485 180.296 283.006 180.296 281.189V279.725C180.296 279.124 179.798 278.626 179.197 278.626C178.597 278.626 178.099 279.124 178.099 279.725V281.189C178.099 284.222 180.56 286.683 183.592 286.683H185.057C185.657 286.683 186.155 286.185 186.155 285.584C186.155 284.983 185.657 284.485 185.057 284.485Z" fill="#004357"/>
<path d="M185.057 302.063H183.592C180.56 302.063 178.099 304.524 178.099 307.557V309.021C178.099 309.622 178.597 310.12 179.197 310.12C179.798 310.12 180.296 309.622 180.296 309.021V307.557C180.296 305.74 181.775 304.261 183.592 304.261H185.057C185.657 304.261 186.155 303.763 186.155 303.162C186.155 302.562 185.657 302.063 185.057 302.063Z" fill="#004357"/>
<path d="M135.252 278.626C134.651 278.626 134.153 279.124 134.153 279.725V281.189C134.153 283.006 132.674 284.485 130.857 284.485H129.393C128.792 284.485 128.294 284.983 128.294 285.584C128.294 286.185 128.792 286.683 129.393 286.683H130.857C133.89 286.683 136.351 284.222 136.351 281.189V279.725C136.351 279.124 135.853 278.626 135.252 278.626Z" fill="#004357"/>
<path d="M130.857 302.063H129.393C128.792 302.063 128.294 302.562 128.294 303.162C128.294 303.763 128.792 304.261 129.393 304.261H130.857C132.674 304.261 134.153 305.74 134.153 307.557V309.021C134.153 309.622 134.651 310.12 135.252 310.12C135.853 310.12 136.351 309.622 136.351 309.021V307.557C136.351 304.524 133.89 302.063 130.857 302.063Z" fill="#004357"/>
<path d="M177.806 318.909H174.144C173.543 318.909 173.045 319.407 173.045 320.008C173.045 320.608 173.543 321.106 174.144 321.106H177.806C178.406 321.106 178.904 320.608 178.904 320.008C178.904 319.407 178.406 318.909 177.806 318.909Z" fill="#004357"/>
<path d="M165.428 318.909H161.766C161.165 318.909 160.667 319.407 160.667 320.008C160.667 320.608 161.165 321.106 161.766 321.106H165.428C166.028 321.106 166.526 320.608 166.526 320.008C166.526 319.407 166.028 318.909 165.428 318.909Z" fill="#004357"/>
<path d="M153.05 318.909H149.388C148.787 318.909 148.289 319.407 148.289 320.008C148.289 320.608 148.787 321.106 149.388 321.106H153.05C153.65 321.106 154.148 320.608 154.148 320.008C154.148 319.407 153.65 318.909 153.05 318.909Z" fill="#004357"/>
<path d="M140.672 318.909H137.01C136.409 318.909 135.911 319.407 135.911 320.008C135.911 320.608 136.409 321.106 137.01 321.106H140.672C141.272 321.106 141.771 320.608 141.771 320.008C141.771 319.407 141.272 318.909 140.672 318.909Z" fill="#004357"/>
<path d="M190.184 318.909H186.521C185.921 318.909 185.423 319.407 185.423 320.008C185.423 320.608 185.921 321.106 186.521 321.106H190.184C190.784 321.106 191.282 320.608 191.282 320.008C191.282 319.407 190.784 318.909 190.184 318.909Z" fill="#004357"/>
<path d="M157.225 280.091C149.344 280.091 142.942 286.492 142.942 294.373C142.942 302.254 149.344 308.655 157.225 308.655C165.105 308.655 171.507 302.254 171.507 294.373C171.507 286.492 165.105 280.091 157.225 280.091ZM160.008 300.584V302.43C160.008 303.03 159.51 303.528 158.909 303.528C158.309 303.528 157.811 303.03 157.811 302.43V300.848H156.653V302.43C156.653 303.03 156.155 303.528 155.555 303.528C154.954 303.528 154.456 303.03 154.456 302.43V300.848H154.017C153.416 300.848 152.918 300.35 152.918 299.749C152.918 299.148 153.416 298.65 154.017 298.65H158.66C159.495 298.65 160.169 297.933 160.169 297.068C160.169 296.204 159.495 295.486 158.66 295.486H155.804C153.768 295.486 152.098 293.787 152.098 291.707C152.098 290.11 153.079 288.733 154.441 288.191V286.316C154.441 285.716 154.939 285.218 155.54 285.218C156.141 285.218 156.639 285.716 156.639 286.316V287.898H157.796V286.316C157.796 285.716 158.294 285.218 158.895 285.218C159.495 285.218 159.993 285.716 159.993 286.316V287.898H160.433C161.033 287.898 161.531 288.396 161.531 288.997C161.531 289.598 161.033 290.096 160.433 290.096H155.789C154.954 290.096 154.28 290.813 154.28 291.678C154.28 292.557 154.954 293.26 155.789 293.26H158.646C160.682 293.26 162.352 294.959 162.352 297.039C162.352 298.65 161.37 300.027 160.008 300.584Z" fill="#087084"/>
<path d="M264.839 270.431C264.839 259.131 255.641 249.932 244.341 249.932C233.041 249.932 223.843 259.131 223.843 270.431C223.843 281.73 233.041 290.929 244.341 290.929C255.641 290.929 264.839 281.73 264.839 270.431Z" fill="#087084"/>
<path d="M253.955 265.713L242.468 277.392C242.171 277.689 241.767 277.859 241.342 277.859C240.918 277.859 240.514 277.689 240.217 277.392L234.718 271.807C234.102 271.17 234.102 270.172 234.739 269.556C235.376 268.941 236.374 268.941 236.99 269.578L241.342 274.015L251.704 263.483C252.32 262.846 253.339 262.846 253.955 263.462C254.571 264.078 254.592 265.097 253.955 265.713Z" fill="#F3F4F6"/>
</g>
<defs>
<clipPath id="clip0_6222_77640">
<rect width="75" height="75" fill="white" transform="translate(204.667 310.5)"/>
</clipPath>
</defs>
</svg>
