<svg width="641" height="228" viewBox="0 0 641 228" fill="none" xmlns="http://www.w3.org/2000/svg">
<path d="M22 80C22 35.8172 57.8172 0 102 0V0C146.183 0 182 35.8172 182 80V80C182 124.183 146.183 160 102 160V160C57.8172 160 22 124.183 22 80V80Z" fill="#F3F4F6"/>
<mask id="mask0_6220_76117" style="mask-type:alpha" maskUnits="userSpaceOnUse" x="22" y="0" width="160" height="160">
<rect x="22" width="160" height="160" rx="80" fill="#D9D9D9"/>
</mask>
<g mask="url(#mask0_6220_76117)">
<path d="M86.1973 28.5H53.9707C53.6777 28.5 53.3994 28.6172 53.1943 28.8223L41.4756 40.541C41.2705 40.7461 41.1533 41.0244 41.1533 41.3174V93.6123C41.1533 95.8389 42.9551 97.6406 45.1816 97.6406H70.2891C70.8896 97.6406 71.3877 97.1426 71.3877 96.542C71.3877 95.9414 70.8896 95.4434 70.2891 95.4434H45.1816C44.1709 95.4434 43.3506 94.623 43.3506 93.6123V42.416H51.041C53.2676 42.416 55.0693 40.6143 55.0693 38.3877V30.6973H86.1973C87.208 30.6973 88.0283 31.5176 88.0283 32.5283V65.7656C88.0283 66.3662 88.5264 66.8643 89.127 66.8643C89.7275 66.8643 90.2256 66.3662 90.2256 65.7656V32.5283C90.2256 30.3018 88.4238 28.5 86.1973 28.5ZM51.041 40.2188H44.9033L52.8721 32.25V38.3877C52.8721 39.3984 52.0518 40.2188 51.041 40.2188Z" fill="#004357"/>
<path d="M67.1543 67.3916C67.7549 67.3916 68.2529 66.8936 68.2529 66.293V61.8984C68.2529 61.2979 67.7549 60.7998 67.1543 60.7998H49.21V58.0166C49.21 57.416 48.7119 56.918 48.1113 56.918C47.5107 56.918 47.0127 57.416 47.0127 58.0166V90.6973C47.0127 91.2979 47.5107 91.7959 48.1113 91.7959C48.7119 91.7959 49.21 91.2979 49.21 90.6973V87.9141H58.3652C58.9658 87.9141 59.4639 87.416 59.4639 86.8154V82.4209C59.4639 81.8203 58.9658 81.3223 58.3652 81.3223H49.21V77.6602H62.7598C63.3604 77.6602 63.8584 77.1621 63.8584 76.5615V72.167C63.8584 71.5664 63.3604 71.0684 62.7598 71.0684H49.21V67.4063H67.1543V67.3916ZM66.0557 62.9971V65.1943H49.21V62.9971H66.0557ZM57.2666 83.5049V85.7021H49.21V83.5049H57.2666ZM61.6611 73.251V75.4482H49.21V73.251H61.6611Z" fill="#004357"/>
<path d="M80.3379 43.1484H77.1299C76.1191 43.1484 75.2988 42.3281 75.2988 41.3174C75.2988 40.3066 76.1191 39.4863 77.1299 39.4863H82.3594C82.96 39.4863 83.458 38.9883 83.458 38.3877C83.458 37.7871 82.96 37.2891 82.3594 37.2891H81.7148V35.458C81.7148 34.8574 81.2168 34.3594 80.6162 34.3594C80.0156 34.3594 79.5176 34.8574 79.5176 35.458V37.2891H77.9355V35.458C77.9355 34.8574 77.4375 34.3594 76.8369 34.3594C76.2363 34.3594 75.7383 34.8574 75.7383 35.458V37.5381C74.2002 38.1094 73.0869 39.5889 73.0869 41.3174C73.0869 43.5439 74.8887 45.3457 77.1152 45.3457H80.3232C81.334 45.3457 82.1543 46.166 82.1543 47.1768C82.1543 48.1875 81.334 49.0078 80.3232 49.0078H75.0937C74.4932 49.0078 73.9951 49.5059 73.9951 50.1064C73.9951 50.707 74.4932 51.2051 75.0937 51.2051H75.7383V53.0361C75.7383 53.6367 76.2363 54.1348 76.8369 54.1348C77.4375 54.1348 77.9355 53.6367 77.9355 53.0361V51.2051H79.5176V53.0361C79.5176 53.6367 80.0156 54.1348 80.6162 54.1348C81.2168 54.1348 81.7148 53.6367 81.7148 53.0361V50.9561C83.2529 50.3848 84.3662 48.9053 84.3662 47.1768C84.3662 44.9502 82.5645 43.1484 80.3379 43.1484Z" fill="#004357"/>
<path d="M48.1113 53.2412H62.7598C63.3604 53.2412 63.8584 52.7432 63.8584 52.1426C63.8584 51.542 63.3604 51.0439 62.7598 51.0439H48.1113C47.5107 51.0439 47.0127 51.542 47.0127 52.1426C47.0127 52.7432 47.4961 53.2412 48.1113 53.2412Z" fill="#004357"/>
<path d="M67.1543 46.6494H48.1113C47.5107 46.6494 47.0127 47.1475 47.0127 47.748C47.0127 48.3486 47.5107 48.8467 48.1113 48.8467H67.1543C67.7549 48.8467 68.2529 48.3486 68.2529 47.748C68.2529 47.1475 67.7549 46.6494 67.1543 46.6494Z" fill="#004357"/>
<path d="M35.7188 41.9473V37.1719C35.7188 35.3555 34.2393 33.876 32.4229 33.876C30.6064 33.876 29.127 35.3555 29.127 37.1719V41.9326C28.5264 41.9326 28.0283 42.4307 28.0283 43.0312V46.3271H26.5635C25.1572 46.3271 24 47.4844 24 48.8906V59.1445C24 59.7451 24.498 60.2432 25.0986 60.2432C25.6992 60.2432 26.1973 59.7451 26.1973 59.1445V48.8906C26.1973 48.6855 26.3584 48.5244 26.5635 48.5244H28.0283V70.8633C28.0283 71.3467 28.3359 71.7422 28.7607 71.9033V87.5332C28.7607 91.0488 29.6982 94.5205 31.4707 97.5674C31.6611 97.9043 32.0273 98.1094 32.4229 98.1094C32.8184 98.1094 33.1699 97.9043 33.375 97.5674C35.1475 94.5205 36.085 91.0488 36.085 87.5332V71.9033C36.5098 71.7568 36.8174 71.3467 36.8174 70.8633V43.0312C36.8174 42.4307 36.3193 41.9473 35.7188 41.9473ZM30.2256 69.7793V44.1445H34.6201V69.7793H30.2256ZM31.3242 37.1719C31.3242 36.5713 31.8223 36.0732 32.4229 36.0732C33.0234 36.0732 33.5215 36.5713 33.5215 37.1719V41.9326H31.3242V37.1719ZM32.4229 94.5938C31.4561 92.3672 30.958 89.9648 30.958 87.5332V71.9766H33.8877V87.5332C33.8877 89.9648 33.3896 92.3672 32.4229 94.5938Z" fill="#004357"/>
<path d="M98.2822 72.6064L85.0986 67.8164C84.8496 67.7285 84.5859 67.7285 84.3516 67.8164L71.168 72.6064C70.7285 72.7676 70.4502 73.1777 70.4502 73.6318V85.1309C70.4502 93.6709 76.207 101.2 84.4395 103.456C84.5273 103.485 84.6299 103.5 84.7324 103.5C84.835 103.5 84.9229 103.485 85.0254 103.456C93.2432 101.215 99 93.6855 99 85.1455V73.6465C99 73.1777 98.707 72.7676 98.2822 72.6064ZM91.3535 82.3623L83.4287 90.4189C83.2236 90.624 82.9453 90.7412 82.6523 90.7412C82.3594 90.7412 82.0811 90.624 81.876 90.4189L78.082 86.5664C77.6572 86.127 77.6572 85.4385 78.0967 85.0137C78.5361 84.5889 79.2246 84.5889 79.6494 85.0283L82.6523 88.0898L89.8008 80.8242C90.2256 80.3848 90.9287 80.3848 91.3535 80.8096C91.7783 81.2344 91.793 81.9375 91.3535 82.3623Z" fill="#087084"/>
</g>
<path d="M141.411 124.879V59.5334C141.411 58.1332 142.546 56.998 143.946 56.998C145.346 56.998 146.481 58.1332 146.481 59.5334V124.879C146.481 126.279 145.346 127.414 143.946 127.414C142.546 127.414 141.411 126.279 141.411 124.879Z" fill="white" stroke="#004357" stroke-width="2"/>
<rect x="91.7251" y="62.4089" width="104.442" height="33.8662" rx="7" fill="white"/>
<rect x="91.7251" y="62.4089" width="104.442" height="33.8662" rx="7" stroke="#004357" stroke-width="2"/>
<path d="M184.105 73.6648H186.275L186.081 81.634H184.283L184.105 73.6648ZM183.878 83.8207C183.878 83.0594 184.412 82.6059 185.19 82.6059C185.935 82.6059 186.486 83.0594 186.486 83.8207C186.486 84.5658 185.935 85.0193 185.19 85.0193C184.412 85.0193 183.878 84.5658 183.878 83.8207Z" fill="#004357"/>
<path d="M174.322 73.6648H181.222V75.4141H176.427V78.1839H180.947V79.9171H176.427V83.0918H181.352V84.8412H174.322V73.6648Z" fill="#004357"/>
<path d="M164.879 73.6648H171.779V75.4141H166.985V78.1839H171.504V79.9171H166.985V83.0918H171.909V84.8412H164.879V73.6648Z" fill="#004357"/>
<path d="M158.589 73.6648C159.771 73.6648 160.711 73.924 161.407 74.4585C162.104 74.993 162.606 75.8515 162.606 76.9205C162.606 77.9086 162.331 78.6051 161.877 79.091C161.44 79.5607 160.857 79.8523 160.193 80.0467L163.205 84.8412H160.743L158.103 80.3058H157.099V84.8412H154.993V73.6648H158.589ZM158.184 78.6537C158.864 78.6537 159.383 78.6051 159.788 78.2973C160.209 77.9896 160.436 77.617 160.436 76.9853C160.436 76.3698 160.209 75.9649 159.788 75.6733C159.383 75.3655 158.864 75.317 158.184 75.317H157.083V78.6537H158.184Z" fill="#004357"/>
<path d="M146.12 73.6648H152.713V75.4303H148.226V78.5727H152.453V80.3058H148.226V84.8412H146.12V73.6648Z" fill="#004357"/>
<path d="M135.255 75.3655H132.178V73.6648H140.406V75.3655H137.345V84.8412H135.255V75.3655Z" fill="#004357"/>
<path d="M126.323 73.6648C127.23 73.6648 128.072 73.7458 128.801 74.1021C129.676 74.5233 130.243 75.2036 130.243 76.3374C130.243 77.8438 129.238 78.6375 128.51 78.929V78.9614C129.951 79.2854 130.907 80.2248 130.907 81.7312C130.907 82.8651 130.34 83.7397 129.579 84.2257C128.882 84.663 127.894 84.8412 126.825 84.8412H122.743V73.6648H126.323ZM126.161 78.3297C126.744 78.3297 127.149 78.2649 127.489 78.0544C127.878 77.8114 128.105 77.4226 128.105 76.8233C128.105 76.305 127.926 75.9487 127.619 75.7057C127.279 75.4465 126.809 75.317 126.258 75.317H124.849V78.3297H126.161ZM126.663 83.189C127.198 83.189 127.716 83.1728 128.105 82.9136C128.526 82.6383 128.769 82.1362 128.769 81.553C128.769 80.9375 128.493 80.5164 128.072 80.2248C127.651 79.9333 127.214 79.8685 126.566 79.8685H124.849V83.189H126.663Z" fill="#004357"/>
<path d="M113.3 73.6648H120.2V75.4141H115.406V78.1839H119.925V79.9171H115.406V83.0918H120.33V84.8412H113.3V73.6648Z" fill="#004357"/>
<path d="M104.985 73.6648C106.929 73.6648 108.371 74.2965 109.229 75.074C110.104 75.8353 111.011 77.1149 111.011 79.2368C111.011 81.3749 110.104 82.6869 109.229 83.4482C108.371 84.2095 106.929 84.8412 104.985 84.8412H101.406V73.6648H104.985ZM105.066 83.0594C106.281 83.0594 107.172 82.6545 107.723 82.1362C108.257 81.6178 108.84 80.7594 108.84 79.253C108.84 77.7628 108.257 76.8557 107.723 76.3374C107.172 75.8353 106.281 75.4303 105.066 75.4303H103.511V83.0594H105.066Z" fill="#004357"/>
<path d="M127.481 111.937L126.919 112.444L127.605 112.763C133.337 115.424 137.22 121.152 137.22 127.692C137.22 130.999 134.705 133.514 131.398 133.514H110.325C107.019 133.514 104.503 130.999 104.503 127.692C104.503 121.152 108.387 115.424 114.118 112.763L114.805 112.444L114.242 111.937C112.224 110.121 110.825 107.511 110.825 104.512C110.825 98.8878 115.238 94.4756 120.862 94.4756C126.486 94.4756 130.898 98.8878 130.898 104.512C130.898 107.511 129.499 110.121 127.481 111.937ZM120.862 97.6902C117.003 97.6902 114.04 100.654 114.04 104.512C114.04 108.371 117.003 111.334 120.862 111.334C124.72 111.334 127.684 108.371 127.684 104.512C127.684 100.654 124.72 97.6902 120.862 97.6902ZM110.325 130.3H131.398C132.144 130.3 132.804 130.049 133.28 129.574C133.755 129.099 134.006 128.438 134.006 127.692C134.006 120.462 128.092 114.549 120.862 114.549C113.632 114.549 107.718 120.462 107.718 127.692C107.718 128.438 107.969 129.099 108.444 129.574C108.919 130.049 109.58 130.3 110.325 130.3Z" fill="#004357" stroke="#F3F4F6"/>
<path d="M61.4521 105.736V106.46C61.4521 110.878 65.0339 114.46 69.4521 114.46H100.86" stroke="#BED73C" stroke-width="2" stroke-linecap="round" stroke-linejoin="round" stroke-dasharray="4 4"/>
<path d="M118.208 56.2725V47.7363C118.208 43.318 114.626 39.7363 110.208 39.7363H95.452" stroke="#BED73C" stroke-width="2" stroke-linecap="round" stroke-linejoin="round" stroke-dasharray="4 4"/>
<path d="M240.667 80C240.667 35.8172 276.484 0 320.667 0V0C364.849 0 400.667 35.8172 400.667 80V80C400.667 124.183 364.849 160 320.667 160V160C276.484 160 240.667 124.183 240.667 80V80Z" fill="#F3F4F6"/>
<path d="M356.882 110.602L356.102 111.305L357.079 111.69C365.5 115.007 371.372 123.173 371.372 132.88V143.384C371.372 147.489 368.25 150.612 364.145 150.612H332.634C328.529 150.612 325.406 147.489 325.406 143.384V132.88C325.406 123.173 331.278 115.007 339.699 111.69L340.622 111.327L339.921 110.626C337.396 108.102 335.91 105.109 335.91 101.369C335.91 94.3758 341.396 88.8897 348.389 88.8897C355.383 88.8897 360.869 94.3758 360.869 101.369C360.869 105.128 359.368 108.365 356.882 110.602ZM348.389 92.8416C343.566 92.8416 339.861 96.5463 339.861 101.369C339.861 106.192 343.566 109.897 348.389 109.897C353.212 109.897 356.917 106.192 356.917 101.369C356.917 96.5463 353.212 92.8416 348.389 92.8416ZM364.145 146.66C365.08 146.66 365.91 146.345 366.508 145.748C367.106 145.15 367.421 144.32 367.421 143.384V132.88C367.421 122.28 358.989 113.849 348.389 113.849C337.789 113.849 329.358 122.28 329.358 132.88V143.384C329.358 144.32 329.672 145.15 330.27 145.748C330.868 146.345 331.698 146.66 332.634 146.66H364.145Z" fill="#004357" stroke="#F3F4F6" stroke-width="1.3"/>
<path d="M340.511 136.156H343.137C343.777 136.156 344.26 136.367 344.581 136.688C344.903 137.009 345.113 137.492 345.113 138.132C345.113 138.772 344.903 139.255 344.581 139.576C344.26 139.898 343.777 140.108 343.137 140.108H340.511C339.871 140.108 339.388 139.898 339.067 139.576C338.746 139.255 338.535 138.772 338.535 138.132C338.535 137.492 338.746 137.009 339.067 136.688C339.388 136.367 339.871 136.156 340.511 136.156Z" fill="#004357" stroke="#F3F4F6" stroke-width="1.3"/>
<path d="M353.641 136.156H356.267C356.907 136.156 357.39 136.367 357.711 136.688C358.032 137.009 358.243 137.492 358.243 138.132C358.243 138.772 358.032 139.255 357.711 139.576C357.39 139.898 356.907 140.108 356.267 140.108H353.641C353.001 140.108 352.518 139.898 352.197 139.576C351.876 139.255 351.665 138.772 351.665 138.132C351.665 137.492 351.876 137.009 352.197 136.688C352.518 136.367 353.001 136.156 353.641 136.156Z" fill="#004357" stroke="#F3F4F6" stroke-width="1.3"/>
<mask id="mask1_6220_76117" style="mask-type:alpha" maskUnits="userSpaceOnUse" x="240" y="0" width="161" height="160">
<rect x="240.333" width="160" height="160" rx="80" fill="#D9D9D9"/>
</mask>
<g mask="url(#mask1_6220_76117)">
<path d="M386.639 29.5322H350.475C345.796 29.5322 341.999 33.3295 341.999 38.0082V56.0902C341.999 60.7689 345.796 64.5662 350.475 64.5662H353.3V69.4257C353.3 72.4771 355.787 74.9633 358.838 74.9633C360.307 74.9633 361.686 74.3983 362.726 73.3585L368.128 67.9565H364.036C363.11 67.9565 362.341 67.1881 362.341 66.2614C362.341 65.3346 363.11 64.5662 364.036 64.5662H386.639C391.318 64.5662 395.115 60.7689 395.115 56.0902V38.0082C395.115 33.3295 391.318 29.5322 386.639 29.5322ZM352.735 40.8335H354.995C355.922 40.8335 356.691 41.602 356.691 42.5287C356.691 43.4554 355.922 44.2239 354.995 44.2239H352.735C351.809 44.2239 351.04 43.4554 351.04 42.5287C351.04 41.602 351.809 40.8335 352.735 40.8335ZM384.379 53.2649H352.735C351.809 53.2649 351.04 52.4964 351.04 51.5697C351.04 50.643 351.809 49.8745 352.735 49.8745H384.379C385.305 49.8745 386.074 50.643 386.074 51.5697C386.074 52.4964 385.305 53.2649 384.379 53.2649ZM384.379 44.2239H361.776C360.85 44.2239 360.081 43.4554 360.081 42.5287C360.081 41.602 360.85 40.8335 361.776 40.8335H384.379C385.305 40.8335 386.074 41.602 386.074 42.5287C386.074 43.4554 385.305 44.2239 384.379 44.2239Z" fill="#087084"/>
</g>
<path fill-rule="evenodd" clip-rule="evenodd" d="M299.628 35.4995H234.627C228.238 35.4995 223.052 40.6849 223.052 47.074V71.7661C223.052 78.1552 228.238 83.3406 234.627 83.3406H295.276L299.628 87.6926L304.257 92.3223L307.282 95.3471C308.702 96.7669 310.585 97.5385 312.591 97.5385C316.758 97.5385 320.153 94.1434 320.153 89.9766V83.3406H340.011C346.4 83.3406 351.585 78.1552 351.585 71.7661V47.074C351.585 40.6849 346.4 35.4995 340.011 35.4995H304.257H299.628ZM346.956 71.7661V47.074C346.956 43.2467 343.838 40.1293 340.011 40.1293H234.627C230.799 40.1293 227.682 43.2467 227.682 47.074V71.7661C227.682 75.5934 230.799 78.7108 234.627 78.7108H307.035C308.301 78.7108 309.35 79.7602 309.35 81.0257C309.35 82.2911 308.301 83.3406 307.035 83.3406H301.819L310.554 92.0754C311.078 92.6001 311.819 92.9088 312.591 92.9088C314.196 92.9088 315.523 91.5816 315.523 89.9766V81.0257C315.523 79.7602 316.572 78.7108 317.838 78.7108H340.011C343.838 78.7108 346.956 75.5934 346.956 71.7661Z" fill="#004357"/>
<path d="M346.956 47.074V71.7661C346.956 75.5934 343.838 78.7108 340.011 78.7108H317.838C316.572 78.7108 315.523 79.7602 315.523 81.0257V89.9766C315.523 91.5816 314.196 92.9088 312.591 92.9088C311.819 92.9088 311.078 92.6001 310.554 92.0754L301.819 83.3406H307.035C308.301 83.3406 309.35 82.2911 309.35 81.0257C309.35 79.7602 308.301 78.7108 307.035 78.7108H234.627C230.799 78.7108 227.682 75.5934 227.682 71.7661V47.074C227.682 43.2467 230.799 40.1293 234.627 40.1293H340.011C343.838 40.1293 346.956 43.2467 346.956 47.074Z" fill="#F3F4F6"/>
<path d="M301.819 82.5906H300.008L301.289 83.8709L310.023 92.6057C310.691 93.2731 311.623 93.6588 312.591 93.6588C314.61 93.6588 316.273 91.9958 316.273 89.9766V81.0257C316.273 80.1744 316.987 79.4608 317.838 79.4608H340.011C344.253 79.4608 347.706 76.0076 347.706 71.7661V47.074C347.706 42.8325 344.253 39.3793 340.011 39.3793H234.627C230.385 39.3793 226.932 42.8325 226.932 47.074V71.7661C226.932 76.0076 230.385 79.4608 234.627 79.4608H307.035C307.886 79.4608 308.6 80.1744 308.6 81.0257C308.6 81.8769 307.886 82.5906 307.035 82.5906H301.819ZM346.206 47.074V71.7661C346.206 75.1792 343.424 77.9608 340.011 77.9608H317.838C316.158 77.9608 314.773 79.346 314.773 81.0257V89.9766C314.773 91.1674 313.782 92.1588 312.591 92.1588C312.015 92.1588 311.466 91.9271 311.084 91.5451L303.63 84.0906H307.035C308.715 84.0906 310.1 82.7054 310.1 81.0257C310.1 79.346 308.715 77.9608 307.035 77.9608H234.627C231.214 77.9608 228.432 75.1792 228.432 71.7661V47.074C228.432 43.6609 231.214 40.8793 234.627 40.8793H340.011C343.424 40.8793 346.206 43.6609 346.206 47.074ZM295.806 82.8102L295.586 82.5906H295.276H234.627C228.652 82.5906 223.802 77.741 223.802 71.7661V47.074C223.802 41.0991 228.652 36.2495 234.627 36.2495H299.628H304.257H340.011C345.986 36.2495 350.835 41.0991 350.835 47.074V71.7661C350.835 77.741 345.986 82.5906 340.011 82.5906H320.153H319.403V83.3406V89.9766C319.403 93.7292 316.343 96.7885 312.591 96.7885C310.782 96.7885 309.09 96.0945 307.812 94.8168L304.788 91.792L300.158 87.1622L295.806 82.8102Z" stroke="#F3F4F6" stroke-width="1.5"/>
<rect x="226.936" y="39.4634" width="120.668" height="39.9521" rx="8" fill="white"/>
<path d="M337.553 53.8826C338.671 53.8826 339.642 54.1093 340.355 54.7086C341.084 55.308 341.521 56.1016 341.521 57.2355C341.521 58.3693 341.084 59.1792 340.355 59.7785C339.642 60.3778 338.671 60.6532 337.553 60.6532H336.079V65.0589H333.957V53.8826H337.553ZM337.294 59.001C337.942 59.001 338.379 58.839 338.735 58.5799C339.092 58.3207 339.351 57.8672 339.351 57.2355C339.351 56.62 339.043 56.1664 338.687 55.9073C338.33 55.6481 337.893 55.5347 337.245 55.5347H336.063V59.001H337.294Z" fill="#004357"/>
<path d="M326.049 53.8826H328.138V63.3096H332.042V65.0589H326.049V53.8826Z" fill="#004357"/>
<path d="M316.606 53.8826H323.507V55.6319H318.712V58.4017H323.231V60.1349H318.712V63.3096H323.636V65.0589H316.606V53.8826Z" fill="#004357"/>
<path d="M304.3 65.0589V53.8826H306.406V58.3531H311.622V53.8826H313.711V65.0589H311.622V60.1187H306.406V65.0589H304.3Z" fill="#004357"/>
<path d="M292.292 65.2534C289.069 65.2534 286.445 63.0829 286.445 59.4871C286.445 55.8912 289.069 53.7207 292.292 53.7207C295.532 53.7207 298.14 55.8912 298.14 59.4871C298.14 63.0829 295.532 65.2534 292.292 65.2534ZM292.292 63.4069C294.365 63.4069 295.969 61.9005 295.969 59.4709C295.969 57.0412 294.365 55.551 292.292 55.551C290.219 55.551 288.615 57.0412 288.615 59.4709C288.615 61.9005 290.235 63.4069 292.292 63.4069Z" fill="#004357"/>
<path d="M280.038 55.5833H276.961V53.8826H285.189V55.5833H282.128V65.0589H280.038V55.5833Z" fill="#004357"/>
<path d="M264.68 53.8826H271.58V55.6319H266.785V58.4017H271.305V60.1349H266.785V63.3096H271.709V65.0589H264.68V53.8826Z" fill="#004357"/>
<path d="M258.39 53.8826C259.572 53.8826 260.512 54.1417 261.208 54.6763C261.905 55.2108 262.407 56.0693 262.407 57.1383C262.407 58.1264 262.131 58.8228 261.678 59.3088C261.241 59.7785 260.657 60.0701 259.993 60.2644L263.006 65.0589H260.544L257.904 60.5236H256.9V65.0589H254.794V53.8826H258.39ZM257.985 58.8714C258.665 58.8714 259.184 58.8228 259.588 58.5151C260.01 58.2073 260.236 57.8348 260.236 57.2031C260.236 56.5876 260.01 56.1826 259.588 55.8911C259.184 55.5833 258.665 55.5347 257.985 55.5347H256.883V58.8714H257.985Z" fill="#004357"/>
<path d="M245.351 53.8826H252.251V55.6319H247.457V58.4017H251.976V60.1349H247.457V63.3096H252.381V65.0589H245.351V53.8826Z" fill="#004357"/>
<path d="M233.045 65.0589V53.8826H235.151V58.3531H240.367V53.8826H242.456V65.0589H240.367V60.1187H235.151V65.0589H233.045Z" fill="#004357"/>
<path d="M280.188 86.2344V120.272C280.188 124.691 283.769 128.272 288.187 128.272H320.541" stroke="#BED73C" stroke-width="2" stroke-linecap="round" stroke-linejoin="round" stroke-dasharray="4 4"/>
<path d="M380.461 68.0596V98.8311C380.461 103.249 376.88 106.831 372.461 106.831H367.453" stroke="#BED73C" stroke-width="2" stroke-linecap="round" stroke-linejoin="round" stroke-dasharray="4 4"/>
<path d="M459.333 80C459.333 35.8172 495.151 0 539.333 0V0C583.516 0 619.333 35.8172 619.333 80V80C619.333 124.183 583.516 160 539.333 160V160C495.151 160 459.333 124.183 459.333 80V80Z" fill="#F3F4F6"/>
<g clip-path="url(#clip0_6220_76117)">
<path d="M598.666 109.493C599.267 109.493 599.765 108.995 599.765 108.394V105.099H603.061C603.661 105.099 604.159 104.6 604.159 104V102.491L606.752 103.751C606.898 103.824 607.06 103.853 607.235 103.853C607.44 103.853 607.646 103.795 607.821 103.692C608.144 103.487 608.334 103.136 608.334 102.755V96.8954C608.334 96.4706 608.1 96.0897 607.719 95.8993L587.68 86.2167C587.138 85.953 586.479 86.1874 586.215 86.7294C585.951 87.2714 586.186 87.9305 586.728 88.1942L606.151 97.5692V100.982L585.014 90.7723C584.472 90.5087 583.812 90.743 583.549 91.285C583.285 91.827 583.52 92.4862 584.062 92.7499L601.977 101.407V102.887H539.721V101.407L557.636 92.7499C558.178 92.4862 558.412 91.827 558.148 91.285C557.885 90.743 557.226 90.5087 556.684 90.7723L535.531 100.997V97.5839L554.955 88.2089C555.497 87.9452 555.731 87.286 555.468 86.744C555.204 86.202 554.545 85.9677 554.003 86.2313L533.949 95.8993C533.568 96.0897 533.334 96.4706 533.334 96.8954V102.755C533.334 103.136 533.524 103.487 533.847 103.692C534.022 103.809 534.228 103.853 534.433 103.853C534.594 103.853 534.755 103.824 534.916 103.751L537.509 102.491V104C537.509 104.6 538.007 105.099 538.607 105.099H541.903V108.394C541.903 108.995 542.401 109.493 543.002 109.493H544.833V126.119H543.002C542.401 126.119 541.903 126.617 541.903 127.218V130.514H538.607C538.007 130.514 537.509 131.012 537.509 131.612V134.908H534.433C533.832 134.908 533.334 135.406 533.334 136.007V140.401C533.334 141.002 533.832 141.5 534.433 141.5H607.235C607.836 141.5 608.334 141.002 608.334 140.401V136.007C608.334 135.406 607.836 134.908 607.235 134.908H604.159V131.612C604.159 131.012 603.661 130.514 603.061 130.514H599.765V127.218C599.765 126.617 599.267 126.119 598.666 126.119H596.835V109.493H598.666ZM597.567 107.296H588.046V105.099H597.567V107.296ZM586.947 126.119C586.347 126.119 585.849 126.617 585.849 127.218V130.514H577.792V127.218C577.792 126.617 577.294 126.119 576.693 126.119H574.862V109.493H576.693C577.294 109.493 577.792 108.995 577.792 108.394V105.099H585.849V108.394C585.849 108.995 586.347 109.493 586.947 109.493H588.778V126.119H586.947ZM554.721 126.119H552.89V109.493H554.721C555.321 109.493 555.819 108.995 555.819 108.394V105.099H563.876V108.394C563.876 108.995 564.374 109.493 564.975 109.493H566.806V126.119H564.975C564.374 126.119 563.876 126.617 563.876 127.218V130.514H555.819V127.218C555.819 126.617 555.321 126.119 554.721 126.119ZM569.003 126.119V109.493H572.665V126.119H569.003ZM566.073 107.296V105.099H575.595V107.296H566.073ZM566.073 128.316H575.595V130.514H566.073V128.316ZM544.101 105.099H553.622V107.296H544.101V105.099ZM547.03 109.493H550.692V126.119H547.03V109.493ZM544.101 128.316H553.622V130.514H544.101V128.316ZM606.137 139.303H535.531V137.105H606.137V139.303ZM601.962 134.908H539.706V132.711H601.962V134.908ZM597.567 130.514H588.046V128.316H597.567V130.514ZM594.638 126.119H590.976V109.493H594.638V126.119Z" fill="#004357"/>
<path d="M570.834 66.5C562.953 66.5 556.552 72.9014 556.552 80.7822C556.552 88.6631 562.953 95.0645 570.834 95.0645C578.715 95.0645 585.116 88.6631 585.116 80.7822C585.116 72.9014 578.715 66.5 570.834 66.5ZM573.617 86.8906V88.5898C573.617 89.249 573.046 89.7617 572.387 89.6738C571.83 89.6006 571.42 89.1025 571.42 88.5459V87.1543H570.248V88.5898C570.248 89.249 569.677 89.7617 569.018 89.6738C568.461 89.6006 568.051 89.1025 568.051 88.5459V87.1543H567.655C567.099 87.1543 566.586 86.7441 566.527 86.1875C566.439 85.5137 566.967 84.957 567.611 84.957H572.24C572.899 84.957 573.515 84.5469 573.705 83.917C574.042 82.8623 573.251 81.8809 572.24 81.8809H569.457C567.816 81.8809 566.117 80.5771 565.78 78.9805C565.37 77.0615 566.439 75.3184 568.051 74.6738V73.0186C568.051 72.4619 568.461 71.9492 569.018 71.8906C569.691 71.8027 570.248 72.3301 570.248 72.9746V74.4102H571.42V73.0186C571.42 72.4619 571.83 71.9492 572.387 71.8906C573.061 71.8027 573.617 72.3301 573.617 72.9746V74.4102H574.013C574.569 74.4102 575.082 74.8203 575.141 75.377C575.229 76.0508 574.701 76.6074 574.057 76.6074H569.428C568.769 76.6074 568.153 77.0176 567.963 77.6475C567.626 78.7021 568.417 79.6836 569.428 79.6836H572.211C573.852 79.6836 575.551 80.9873 575.888 82.584C576.298 84.5029 575.229 86.2461 573.617 86.8906Z" fill="#087084"/>
</g>
<path d="M600.926 86.1084V48.3818C600.926 43.9636 597.345 40.3818 592.926 40.3818H592.368" stroke="#BED73C" stroke-width="2" stroke-linecap="round" stroke-linejoin="round" stroke-dasharray="4 4"/>
<path d="M539.667 116.495L514.153 116.495C509.735 116.495 506.153 112.913 506.153 108.495L506.153 92.252" stroke="#BED73C" stroke-width="2" stroke-linecap="round" stroke-linejoin="round" stroke-dasharray="4 4"/>
<mask id="mask2_6220_76117" style="mask-type:alpha" maskUnits="userSpaceOnUse" x="459" y="0" width="161" height="160">
<rect x="459.667" width="160" height="160" rx="80" fill="#D9D9D9"/>
</mask>
<g mask="url(#mask2_6220_76117)">
<path d="M545.793 20.8652L532.155 20.8652C527.737 20.8652 524.155 24.447 524.155 28.8652L524.155 34.8838" stroke="#BED73C" stroke-width="2" stroke-linecap="round" stroke-linejoin="round" stroke-dasharray="4 4"/>
<path d="M522.806 39.0205H519.949V32.7949C519.949 30.5684 518.147 28.7666 515.921 28.7666H455.862C453.636 28.7666 451.834 30.5684 451.834 32.7949V67.9512C451.834 70.1777 453.636 71.9795 455.862 71.9795H458.719V78.2051C458.719 80.4316 460.521 82.2334 462.747 82.2334H466.719H468.916H522.806C525.032 82.2334 526.834 80.4316 526.834 78.2051V48.2178V46.0205V43.0488C526.834 40.8223 525.032 39.0205 522.806 39.0205ZM454.031 67.9512V32.7949C454.031 31.7842 454.852 30.9639 455.862 30.9639H515.921C516.932 30.9639 517.752 31.7842 517.752 32.7949V67.9512C517.752 68.9619 516.932 69.7822 515.921 69.7822H455.862C454.852 69.7822 454.031 68.9619 454.031 67.9512ZM524.637 78.2051C524.637 79.2158 523.816 80.0361 522.806 80.0361H462.747C461.736 80.0361 460.916 79.2158 460.916 78.2051V71.9795H515.921C518.147 71.9795 519.949 70.1777 519.949 67.9512V41.2178H522.806C523.816 41.2178 524.637 42.0381 524.637 43.0488V78.2051Z" fill="#004357"/>
<path d="M466.719 85.2051C466.719 87.4316 468.521 89.2334 470.747 89.2334H530.806C533.032 89.2334 534.834 87.4316 534.834 85.2051V50.0488C534.834 47.8223 533.032 46.0205 530.806 46.0205H526.834V48.2178H530.806C531.816 48.2178 532.637 49.0381 532.637 50.0488V85.2051C532.637 86.2158 531.816 87.0361 530.806 87.0361H470.747C469.736 87.0361 468.916 86.2158 468.916 85.2051V82.2334H466.719V85.2051Z" fill="#004357"/>
<path d="M513.724 40.4854H512.259C510.442 40.4854 508.963 39.0059 508.963 37.1895V35.7246C508.963 35.124 508.465 34.626 507.864 34.626C507.264 34.626 506.766 35.124 506.766 35.7246V37.1895C506.766 40.2217 509.227 42.6826 512.259 42.6826H513.724C514.324 42.6826 514.822 42.1846 514.822 41.584C514.822 40.9834 514.324 40.4854 513.724 40.4854Z" fill="#004357"/>
<path d="M513.724 58.0635H512.259C509.227 58.0635 506.766 60.5244 506.766 63.5566V65.0215C506.766 65.6221 507.264 66.1201 507.864 66.1201C508.465 66.1201 508.963 65.6221 508.963 65.0215V63.5566C508.963 61.7402 510.442 60.2607 512.259 60.2607H513.724C514.324 60.2607 514.822 59.7627 514.822 59.1621C514.822 58.5615 514.324 58.0635 513.724 58.0635Z" fill="#004357"/>
<path d="M463.919 34.626C463.318 34.626 462.82 35.124 462.82 35.7246V37.1895C462.82 39.0059 461.341 40.4854 459.524 40.4854H458.06C457.459 40.4854 456.961 40.9834 456.961 41.584C456.961 42.1846 457.459 42.6826 458.06 42.6826H459.524C462.557 42.6826 465.018 40.2217 465.018 37.1895V35.7246C465.018 35.124 464.52 34.626 463.919 34.626Z" fill="#004357"/>
<path d="M459.524 58.0635H458.06C457.459 58.0635 456.961 58.5615 456.961 59.1621C456.961 59.7627 457.459 60.2607 458.06 60.2607H459.524C461.341 60.2607 462.82 61.7402 462.82 63.5566V65.0215C462.82 65.6221 463.318 66.1201 463.919 66.1201C464.52 66.1201 465.018 65.6221 465.018 65.0215V63.5566C465.018 60.5244 462.557 58.0635 459.524 58.0635Z" fill="#004357"/>
<path d="M506.473 74.9092H502.811C502.21 74.9092 501.712 75.4072 501.712 76.0078C501.712 76.6084 502.21 77.1064 502.811 77.1064H506.473C507.073 77.1064 507.571 76.6084 507.571 76.0078C507.571 75.4072 507.073 74.9092 506.473 74.9092Z" fill="#004357"/>
<path d="M494.095 74.9092H490.433C489.832 74.9092 489.334 75.4072 489.334 76.0078C489.334 76.6084 489.832 77.1064 490.433 77.1064H494.095C494.695 77.1064 495.193 76.6084 495.193 76.0078C495.193 75.4072 494.695 74.9092 494.095 74.9092Z" fill="#004357"/>
<path d="M481.717 74.9092H478.055C477.454 74.9092 476.956 75.4072 476.956 76.0078C476.956 76.6084 477.454 77.1064 478.055 77.1064H481.717C482.317 77.1064 482.815 76.6084 482.815 76.0078C482.815 75.4072 482.317 74.9092 481.717 74.9092Z" fill="#004357"/>
<path d="M469.339 74.9092H465.677C465.076 74.9092 464.578 75.4072 464.578 76.0078C464.578 76.6084 465.076 77.1064 465.677 77.1064H469.339C469.939 77.1064 470.438 76.6084 470.438 76.0078C470.438 75.4072 469.939 74.9092 469.339 74.9092Z" fill="#004357"/>
<path d="M518.851 74.9092H515.188C514.588 74.9092 514.09 75.4072 514.09 76.0078C514.09 76.6084 514.588 77.1064 515.188 77.1064H518.851C519.451 77.1064 519.949 76.6084 519.949 76.0078C519.949 75.4072 519.451 74.9092 518.851 74.9092Z" fill="#004357"/>
<path d="M485.892 36.0908C478.011 36.0908 471.609 42.4922 471.609 50.373C471.609 58.2539 478.011 64.6553 485.892 64.6553C493.772 64.6553 500.174 58.2539 500.174 50.373C500.174 42.4922 493.772 36.0908 485.892 36.0908ZM488.675 56.584V58.4297C488.675 59.0303 488.177 59.5283 487.576 59.5283C486.976 59.5283 486.478 59.0303 486.478 58.4297V56.8477H485.32V58.4297C485.32 59.0303 484.822 59.5283 484.222 59.5283C483.621 59.5283 483.123 59.0303 483.123 58.4297V56.8477H482.684C482.083 56.8477 481.585 56.3496 481.585 55.749C481.585 55.1484 482.083 54.6504 482.684 54.6504H487.327C488.162 54.6504 488.836 53.9326 488.836 53.0684C488.836 52.2041 488.162 51.4863 487.327 51.4863H484.471C482.435 51.4863 480.765 49.7871 480.765 47.707C480.765 46.1104 481.746 44.7334 483.108 44.1914V42.3164C483.108 41.7158 483.606 41.2178 484.207 41.2178C484.808 41.2178 485.306 41.7158 485.306 42.3164V43.8984H486.463V42.3164C486.463 41.7158 486.961 41.2178 487.562 41.2178C488.162 41.2178 488.66 41.7158 488.66 42.3164V43.8984H489.1C489.7 43.8984 490.198 44.3965 490.198 44.9971C490.198 45.5977 489.7 46.0957 489.1 46.0957H484.456C483.621 46.0957 482.947 46.8135 482.947 47.6777C482.947 48.5566 483.621 49.2598 484.456 49.2598H487.312C489.349 49.2598 491.019 50.959 491.019 53.0391C491.019 54.6504 490.037 56.0273 488.675 56.584Z" fill="#087084"/>
<path d="M593.506 26.4307C593.506 15.131 584.308 5.93237 573.008 5.93237C561.708 5.93237 552.51 15.131 552.51 26.4307C552.51 37.7303 561.708 46.929 573.008 46.929C584.308 46.929 593.506 37.7303 593.506 26.4307Z" fill="#087084"/>
<path d="M582.622 21.7131L571.135 33.3916C570.838 33.6889 570.434 33.8588 570.009 33.8588C569.585 33.8588 569.181 33.6889 568.884 33.3916L563.385 27.8072C562.769 27.1702 562.769 26.1722 563.406 25.5564C564.043 24.9407 565.041 24.9407 565.657 25.5777L570.009 30.0155L580.371 19.4836C580.987 18.8466 582.006 18.8466 582.622 19.4624C583.238 20.0782 583.259 21.0974 582.622 21.7131Z" fill="#F3F4F6"/>
</g>
<defs>
<clipPath id="clip0_6220_76117">
<rect width="75" height="75" fill="white" transform="translate(533.334 66.5)"/>
</clipPath>
</defs>
</svg>
