<svg width="721" height="241" viewBox="0 0 721 241" fill="none" xmlns="http://www.w3.org/2000/svg">
<path d="M35.333 80C35.333 35.8172 71.1502 0 115.333 0V0C159.516 0 195.333 35.8172 195.333 80V80C195.333 124.183 159.516 160 115.333 160V160C71.1502 160 35.333 124.183 35.333 80V80Z" fill="#F3F4F6"/>
<mask id="mask0_6220_76022" style="mask-type:alpha" maskUnits="userSpaceOnUse" x="35" y="0" width="161" height="160">
<rect x="35.333" width="160" height="160" rx="80" fill="#D9D9D9"/>
</mask>
<g mask="url(#mask0_6220_76022)">
<path d="M99.5303 28.5H67.3037C67.0107 28.5 66.7324 28.6172 66.5273 28.8223L54.8086 40.541C54.6035 40.7461 54.4863 41.0244 54.4863 41.3174V93.6123C54.4863 95.8389 56.2881 97.6406 58.5146 97.6406H83.6221C84.2227 97.6406 84.7207 97.1426 84.7207 96.542C84.7207 95.9414 84.2227 95.4434 83.6221 95.4434H58.5146C57.5039 95.4434 56.6836 94.623 56.6836 93.6123V42.416H64.374C66.6006 42.416 68.4023 40.6143 68.4023 38.3877V30.6973H99.5303C100.541 30.6973 101.361 31.5176 101.361 32.5283V65.7656C101.361 66.3662 101.859 66.8643 102.46 66.8643C103.061 66.8643 103.559 66.3662 103.559 65.7656V32.5283C103.559 30.3018 101.757 28.5 99.5303 28.5ZM64.374 40.2188H58.2363L66.2051 32.25V38.3877C66.2051 39.3984 65.3848 40.2188 64.374 40.2188Z" fill="#004357"/>
<path d="M80.4873 67.3916C81.0879 67.3916 81.5859 66.8936 81.5859 66.293V61.8984C81.5859 61.2979 81.0879 60.7998 80.4873 60.7998H62.543V58.0166C62.543 57.416 62.0449 56.918 61.4443 56.918C60.8438 56.918 60.3457 57.416 60.3457 58.0166V90.6973C60.3457 91.2979 60.8438 91.7959 61.4443 91.7959C62.0449 91.7959 62.543 91.2979 62.543 90.6973V87.9141H71.6982C72.2988 87.9141 72.7969 87.416 72.7969 86.8154V82.4209C72.7969 81.8203 72.2988 81.3223 71.6982 81.3223H62.543V77.6602H76.0928C76.6934 77.6602 77.1914 77.1621 77.1914 76.5615V72.167C77.1914 71.5664 76.6934 71.0684 76.0928 71.0684H62.543V67.4063H80.4873V67.3916ZM79.3887 62.9971V65.1943H62.543V62.9971H79.3887ZM70.5996 83.5049V85.7021H62.543V83.5049H70.5996ZM74.9941 73.251V75.4482H62.543V73.251H74.9941Z" fill="#004357"/>
<path d="M93.6709 43.1484H90.4629C89.4521 43.1484 88.6318 42.3281 88.6318 41.3174C88.6318 40.3066 89.4521 39.4863 90.4629 39.4863H95.6924C96.293 39.4863 96.791 38.9883 96.791 38.3877C96.791 37.7871 96.293 37.2891 95.6924 37.2891H95.0479V35.458C95.0479 34.8574 94.5498 34.3594 93.9492 34.3594C93.3486 34.3594 92.8506 34.8574 92.8506 35.458V37.2891H91.2686V35.458C91.2686 34.8574 90.7705 34.3594 90.1699 34.3594C89.5693 34.3594 89.0713 34.8574 89.0713 35.458V37.5381C87.5332 38.1094 86.4199 39.5889 86.4199 41.3174C86.4199 43.5439 88.2217 45.3457 90.4482 45.3457H93.6562C94.667 45.3457 95.4873 46.166 95.4873 47.1768C95.4873 48.1875 94.667 49.0078 93.6562 49.0078H88.4268C87.8262 49.0078 87.3281 49.5059 87.3281 50.1064C87.3281 50.707 87.8262 51.2051 88.4268 51.2051H89.0713V53.0361C89.0713 53.6367 89.5693 54.1348 90.1699 54.1348C90.7705 54.1348 91.2686 53.6367 91.2686 53.0361V51.2051H92.8506V53.0361C92.8506 53.6367 93.3486 54.1348 93.9492 54.1348C94.5498 54.1348 95.0479 53.6367 95.0479 53.0361V50.9561C96.5859 50.3848 97.6992 48.9053 97.6992 47.1768C97.6992 44.9502 95.8975 43.1484 93.6709 43.1484Z" fill="#004357"/>
<path d="M61.4443 53.2412H76.0928C76.6934 53.2412 77.1914 52.7432 77.1914 52.1426C77.1914 51.542 76.6934 51.0439 76.0928 51.0439H61.4443C60.8438 51.0439 60.3457 51.542 60.3457 52.1426C60.3457 52.7432 60.8291 53.2412 61.4443 53.2412Z" fill="#004357"/>
<path d="M80.4873 46.6494H61.4443C60.8438 46.6494 60.3457 47.1475 60.3457 47.748C60.3457 48.3486 60.8438 48.8467 61.4443 48.8467H80.4873C81.0879 48.8467 81.5859 48.3486 81.5859 47.748C81.5859 47.1475 81.0879 46.6494 80.4873 46.6494Z" fill="#004357"/>
<path d="M49.0518 41.9473V37.1719C49.0518 35.3555 47.5723 33.876 45.7559 33.876C43.9395 33.876 42.46 35.3555 42.46 37.1719V41.9326C41.8594 41.9326 41.3613 42.4307 41.3613 43.0312V46.3271H39.8965C38.4902 46.3271 37.333 47.4844 37.333 48.8906V59.1445C37.333 59.7451 37.8311 60.2432 38.4316 60.2432C39.0322 60.2432 39.5303 59.7451 39.5303 59.1445V48.8906C39.5303 48.6855 39.6914 48.5244 39.8965 48.5244H41.3613V70.8633C41.3613 71.3467 41.6689 71.7422 42.0938 71.9033V87.5332C42.0938 91.0488 43.0312 94.5205 44.8037 97.5674C44.9941 97.9043 45.3604 98.1094 45.7559 98.1094C46.1514 98.1094 46.5029 97.9043 46.708 97.5674C48.4805 94.5205 49.418 91.0488 49.418 87.5332V71.9033C49.8428 71.7568 50.1504 71.3467 50.1504 70.8633V43.0312C50.1504 42.4307 49.6523 41.9473 49.0518 41.9473ZM43.5586 69.7793V44.1445H47.9531V69.7793H43.5586ZM44.6572 37.1719C44.6572 36.5713 45.1553 36.0732 45.7559 36.0732C46.3564 36.0732 46.8545 36.5713 46.8545 37.1719V41.9326H44.6572V37.1719ZM45.7559 94.5938C44.7891 92.3672 44.291 89.9648 44.291 87.5332V71.9766H47.2207V87.5332C47.2207 89.9648 46.7227 92.3672 45.7559 94.5938Z" fill="#004357"/>
<path d="M111.615 72.6064L98.4316 67.8164C98.1826 67.7285 97.9189 67.7285 97.6846 67.8164L84.501 72.6064C84.0615 72.7676 83.7832 73.1777 83.7832 73.6318V85.1309C83.7832 93.6709 89.54 101.2 97.7725 103.456C97.8604 103.485 97.9629 103.5 98.0654 103.5C98.168 103.5 98.2559 103.485 98.3584 103.456C106.576 101.215 112.333 93.6855 112.333 85.1455V73.6465C112.333 73.1777 112.04 72.7676 111.615 72.6064ZM104.687 82.3623L96.7617 90.4189C96.5566 90.624 96.2783 90.7412 95.9853 90.7412C95.6924 90.7412 95.4141 90.624 95.209 90.4189L91.415 86.5664C90.9902 86.127 90.9902 85.4385 91.4297 85.0137C91.8691 84.5889 92.5576 84.5889 92.9824 85.0283L95.9853 88.0898L103.134 80.8242C103.559 80.3848 104.262 80.3848 104.687 80.8096C105.111 81.2344 105.126 81.9375 104.687 82.3623Z" fill="#087084"/>
</g>
<path d="M154.744 124.879V59.5334C154.744 58.1332 155.879 56.998 157.279 56.998C158.679 56.998 159.814 58.1332 159.814 59.5334V124.879C159.814 126.279 158.679 127.414 157.279 127.414C155.879 127.414 154.744 126.279 154.744 124.879Z" fill="white" stroke="#004357" stroke-width="2"/>
<rect x="105.058" y="62.4089" width="104.442" height="33.8662" rx="7" fill="white"/>
<rect x="105.058" y="62.4089" width="104.442" height="33.8662" rx="7" stroke="#004357" stroke-width="2"/>
<path d="M197.438 73.6648H199.608L199.414 81.634H197.616L197.438 73.6648ZM197.211 83.8207C197.211 83.0594 197.745 82.6059 198.523 82.6059C199.268 82.6059 199.819 83.0594 199.819 83.8207C199.819 84.5658 199.268 85.0193 198.523 85.0193C197.745 85.0193 197.211 84.5658 197.211 83.8207Z" fill="#004357"/>
<path d="M187.655 73.6648H194.555V75.4141H189.76V78.1839H194.28V79.9171H189.76V83.0918H194.685V84.8412H187.655V73.6648Z" fill="#004357"/>
<path d="M178.212 73.6648H185.112V75.4141H180.318V78.1839H184.837V79.9171H180.318V83.0918H185.242V84.8412H178.212V73.6648Z" fill="#004357"/>
<path d="M171.922 73.6648C173.104 73.6648 174.044 73.924 174.74 74.4585C175.437 74.993 175.939 75.8515 175.939 76.9205C175.939 77.9086 175.664 78.6051 175.21 79.091C174.773 79.5607 174.19 79.8523 173.526 80.0467L176.538 84.8412H174.076L171.436 80.3058H170.432V84.8412H168.326V73.6648H171.922ZM171.517 78.6537C172.197 78.6537 172.716 78.6051 173.121 78.2973C173.542 77.9896 173.769 77.617 173.769 76.9853C173.769 76.3698 173.542 75.9649 173.121 75.6733C172.716 75.3655 172.197 75.317 171.517 75.317H170.416V78.6537H171.517Z" fill="#004357"/>
<path d="M159.453 73.6648H166.046V75.4303H161.559V78.5727H165.786V80.3058H161.559V84.8412H159.453V73.6648Z" fill="#004357"/>
<path d="M148.588 75.3655H145.511V73.6648H153.739V75.3655H150.678V84.8412H148.588V75.3655Z" fill="#004357"/>
<path d="M139.656 73.6648C140.563 73.6648 141.405 73.7458 142.134 74.1021C143.009 74.5233 143.576 75.2036 143.576 76.3374C143.576 77.8438 142.571 78.6375 141.843 78.929V78.9614C143.284 79.2854 144.24 80.2248 144.24 81.7312C144.24 82.8651 143.673 83.7397 142.912 84.2257C142.215 84.663 141.227 84.8412 140.158 84.8412H136.076V73.6648H139.656ZM139.494 78.3297C140.077 78.3297 140.482 78.2649 140.822 78.0544C141.211 77.8114 141.438 77.4226 141.438 76.8233C141.438 76.305 141.259 75.9487 140.952 75.7057C140.612 75.4465 140.142 75.317 139.591 75.317H138.182V78.3297H139.494ZM139.996 83.189C140.531 83.189 141.049 83.1728 141.438 82.9136C141.859 82.6383 142.102 82.1362 142.102 81.553C142.102 80.9375 141.826 80.5164 141.405 80.2248C140.984 79.9333 140.547 79.8685 139.899 79.8685H138.182V83.189H139.996Z" fill="#004357"/>
<path d="M126.633 73.6648H133.533V75.4141H128.739V78.1839H133.258V79.9171H128.739V83.0918H133.663V84.8412H126.633V73.6648Z" fill="#004357"/>
<path d="M118.318 73.6648C120.262 73.6648 121.704 74.2965 122.562 75.074C123.437 75.8353 124.344 77.1149 124.344 79.2368C124.344 81.3749 123.437 82.6869 122.562 83.4482C121.704 84.2095 120.262 84.8412 118.318 84.8412H114.739V73.6648H118.318ZM118.399 83.0594C119.614 83.0594 120.505 82.6545 121.056 82.1362C121.59 81.6178 122.173 80.7594 122.173 79.253C122.173 77.7628 121.59 76.8557 121.056 76.3374C120.505 75.8353 119.614 75.4303 118.399 75.4303H116.844V83.0594H118.399Z" fill="#004357"/>
<path d="M140.814 111.937L140.252 112.444L140.938 112.763C146.67 115.424 150.553 121.152 150.553 127.692C150.553 130.999 148.038 133.514 144.731 133.514H123.658C120.352 133.514 117.836 130.999 117.836 127.692C117.836 121.152 121.72 115.424 127.451 112.763L128.138 112.444L127.575 111.937C125.557 110.121 124.158 107.511 124.158 104.512C124.158 98.8878 128.571 94.4756 134.195 94.4756C139.819 94.4756 144.231 98.8878 144.231 104.512C144.231 107.511 142.832 110.121 140.814 111.937ZM134.195 97.6902C130.336 97.6902 127.373 100.654 127.373 104.512C127.373 108.371 130.336 111.334 134.195 111.334C138.053 111.334 141.017 108.371 141.017 104.512C141.017 100.654 138.053 97.6902 134.195 97.6902ZM123.658 130.3H144.731C145.477 130.3 146.138 130.049 146.613 129.574C147.088 129.099 147.339 128.438 147.339 127.692C147.339 120.462 141.425 114.549 134.195 114.549C126.965 114.549 121.051 120.462 121.051 127.692C121.051 128.438 121.302 129.099 121.777 129.574C122.252 130.049 122.913 130.3 123.658 130.3Z" fill="#004357" stroke="#F3F4F6"/>
<path d="M74.7852 105.736V106.46C74.7852 110.878 78.3669 114.46 82.7852 114.46H114.193" stroke="#BED73C" stroke-width="2" stroke-linecap="round" stroke-linejoin="round" stroke-dasharray="4 4"/>
<path d="M131.541 56.2725V47.7363C131.541 43.318 127.959 39.7363 123.541 39.7363H108.785" stroke="#BED73C" stroke-width="2" stroke-linecap="round" stroke-linejoin="round" stroke-dasharray="4 4"/>
<path d="M280.667 80C280.667 35.8172 316.484 0 360.667 0V0C404.849 0 440.667 35.8172 440.667 80V80C440.667 124.183 404.849 160 360.667 160V160C316.484 160 280.667 124.183 280.667 80V80Z" fill="#F3F4F6"/>
<path d="M396.882 110.602L396.102 111.305L397.079 111.69C405.5 115.007 411.372 123.173 411.372 132.88V143.384C411.372 147.489 408.25 150.612 404.145 150.612H372.634C368.529 150.612 365.406 147.489 365.406 143.384V132.88C365.406 123.173 371.278 115.007 379.699 111.69L380.622 111.327L379.921 110.626C377.396 108.102 375.91 105.109 375.91 101.369C375.91 94.3758 381.396 88.8897 388.389 88.8897C395.383 88.8897 400.869 94.3758 400.869 101.369C400.869 105.128 399.368 108.365 396.882 110.602ZM388.389 92.8416C383.566 92.8416 379.861 96.5463 379.861 101.369C379.861 106.192 383.566 109.897 388.389 109.897C393.212 109.897 396.917 106.192 396.917 101.369C396.917 96.5463 393.212 92.8416 388.389 92.8416ZM404.145 146.66C405.08 146.66 405.91 146.345 406.508 145.748C407.106 145.15 407.421 144.32 407.421 143.384V132.88C407.421 122.28 398.989 113.849 388.389 113.849C377.789 113.849 369.358 122.28 369.358 132.88V143.384C369.358 144.32 369.672 145.15 370.27 145.748C370.868 146.345 371.698 146.66 372.634 146.66H404.145Z" fill="#004357" stroke="#F3F4F6" stroke-width="1.3"/>
<path d="M380.511 136.156H383.137C383.777 136.156 384.26 136.367 384.581 136.688C384.903 137.009 385.113 137.492 385.113 138.132C385.113 138.772 384.903 139.255 384.581 139.576C384.26 139.898 383.777 140.108 383.137 140.108H380.511C379.871 140.108 379.388 139.898 379.067 139.576C378.746 139.255 378.535 138.772 378.535 138.132C378.535 137.492 378.746 137.009 379.067 136.688C379.388 136.367 379.871 136.156 380.511 136.156Z" fill="#004357" stroke="#F3F4F6" stroke-width="1.3"/>
<path d="M393.641 136.156H396.267C396.907 136.156 397.39 136.367 397.711 136.688C398.032 137.009 398.243 137.492 398.243 138.132C398.243 138.772 398.032 139.255 397.711 139.576C397.39 139.898 396.907 140.108 396.267 140.108H393.641C393.001 140.108 392.518 139.898 392.197 139.576C391.876 139.255 391.665 138.772 391.665 138.132C391.665 137.492 391.876 137.009 392.197 136.688C392.518 136.367 393.001 136.156 393.641 136.156Z" fill="#004357" stroke="#F3F4F6" stroke-width="1.3"/>
<mask id="mask1_6220_76022" style="mask-type:alpha" maskUnits="userSpaceOnUse" x="280" y="0" width="161" height="160">
<rect x="280.333" width="160" height="160" rx="80" fill="#D9D9D9"/>
</mask>
<g mask="url(#mask1_6220_76022)">
<path d="M426.639 29.5322H390.475C385.796 29.5322 381.999 33.3295 381.999 38.0082V56.0902C381.999 60.7689 385.796 64.5662 390.475 64.5662H393.3V69.4257C393.3 72.4771 395.787 74.9633 398.838 74.9633C400.307 74.9633 401.686 74.3983 402.726 73.3585L408.128 67.9565H404.036C403.11 67.9565 402.341 67.1881 402.341 66.2614C402.341 65.3346 403.11 64.5662 404.036 64.5662H426.639C431.318 64.5662 435.115 60.7689 435.115 56.0902V38.0082C435.115 33.3295 431.318 29.5322 426.639 29.5322ZM392.735 40.8335H394.995C395.922 40.8335 396.691 41.602 396.691 42.5287C396.691 43.4554 395.922 44.2239 394.995 44.2239H392.735C391.809 44.2239 391.04 43.4554 391.04 42.5287C391.04 41.602 391.809 40.8335 392.735 40.8335ZM424.379 53.2649H392.735C391.809 53.2649 391.04 52.4964 391.04 51.5697C391.04 50.643 391.809 49.8745 392.735 49.8745H424.379C425.305 49.8745 426.074 50.643 426.074 51.5697C426.074 52.4964 425.305 53.2649 424.379 53.2649ZM424.379 44.2239H401.776C400.85 44.2239 400.081 43.4554 400.081 42.5287C400.081 41.602 400.85 40.8335 401.776 40.8335H424.379C425.305 40.8335 426.074 41.602 426.074 42.5287C426.074 43.4554 425.305 44.2239 424.379 44.2239Z" fill="#087084"/>
</g>
<path fill-rule="evenodd" clip-rule="evenodd" d="M339.628 35.4995H274.627C268.238 35.4995 263.052 40.6849 263.052 47.074V71.7661C263.052 78.1552 268.238 83.3406 274.627 83.3406H335.276L339.628 87.6926L344.257 92.3223L347.282 95.3471C348.702 96.7669 350.585 97.5385 352.591 97.5385C356.758 97.5385 360.153 94.1434 360.153 89.9766V83.3406H380.011C386.4 83.3406 391.585 78.1552 391.585 71.7661V47.074C391.585 40.6849 386.4 35.4995 380.011 35.4995H344.257H339.628ZM386.956 71.7661V47.074C386.956 43.2467 383.838 40.1293 380.011 40.1293H274.627C270.799 40.1293 267.682 43.2467 267.682 47.074V71.7661C267.682 75.5934 270.799 78.7108 274.627 78.7108H347.035C348.301 78.7108 349.35 79.7602 349.35 81.0257C349.35 82.2911 348.301 83.3406 347.035 83.3406H341.819L350.554 92.0754C351.078 92.6001 351.819 92.9088 352.591 92.9088C354.196 92.9088 355.523 91.5816 355.523 89.9766V81.0257C355.523 79.7602 356.572 78.7108 357.838 78.7108H380.011C383.838 78.7108 386.956 75.5934 386.956 71.7661Z" fill="#004357"/>
<path d="M386.956 47.074V71.7661C386.956 75.5934 383.838 78.7108 380.011 78.7108H357.838C356.572 78.7108 355.523 79.7602 355.523 81.0257V89.9766C355.523 91.5816 354.196 92.9088 352.591 92.9088C351.819 92.9088 351.078 92.6001 350.554 92.0754L341.819 83.3406H347.035C348.301 83.3406 349.35 82.2911 349.35 81.0257C349.35 79.7602 348.301 78.7108 347.035 78.7108H274.627C270.799 78.7108 267.682 75.5934 267.682 71.7661V47.074C267.682 43.2467 270.799 40.1293 274.627 40.1293H380.011C383.838 40.1293 386.956 43.2467 386.956 47.074Z" fill="#F3F4F6"/>
<path d="M341.819 82.5906H340.008L341.289 83.8709L350.023 92.6057C350.691 93.2731 351.623 93.6588 352.591 93.6588C354.61 93.6588 356.273 91.9958 356.273 89.9766V81.0257C356.273 80.1744 356.987 79.4608 357.838 79.4608H380.011C384.253 79.4608 387.706 76.0076 387.706 71.7661V47.074C387.706 42.8325 384.253 39.3793 380.011 39.3793H274.627C270.385 39.3793 266.932 42.8325 266.932 47.074V71.7661C266.932 76.0076 270.385 79.4608 274.627 79.4608H347.035C347.886 79.4608 348.6 80.1744 348.6 81.0257C348.6 81.8769 347.886 82.5906 347.035 82.5906H341.819ZM386.206 47.074V71.7661C386.206 75.1792 383.424 77.9608 380.011 77.9608H357.838C356.158 77.9608 354.773 79.346 354.773 81.0257V89.9766C354.773 91.1674 353.782 92.1588 352.591 92.1588C352.015 92.1588 351.466 91.9271 351.084 91.5451L343.63 84.0906H347.035C348.715 84.0906 350.1 82.7054 350.1 81.0257C350.1 79.346 348.715 77.9608 347.035 77.9608H274.627C271.214 77.9608 268.432 75.1792 268.432 71.7661V47.074C268.432 43.6609 271.214 40.8793 274.627 40.8793H380.011C383.424 40.8793 386.206 43.6609 386.206 47.074ZM335.806 82.8102L335.586 82.5906H335.276H274.627C268.652 82.5906 263.802 77.741 263.802 71.7661V47.074C263.802 41.0991 268.652 36.2495 274.627 36.2495H339.628H344.257H380.011C385.986 36.2495 390.835 41.0991 390.835 47.074V71.7661C390.835 77.741 385.986 82.5906 380.011 82.5906H360.153H359.403V83.3406V89.9766C359.403 93.7292 356.343 96.7885 352.591 96.7885C350.782 96.7885 349.09 96.0945 347.812 94.8168L344.788 91.792L340.158 87.1622L335.806 82.8102Z" stroke="#F3F4F6" stroke-width="1.5"/>
<rect x="266.936" y="39.4634" width="120.668" height="39.9521" rx="8" fill="white"/>
<path d="M377.553 53.8826C378.671 53.8826 379.642 54.1093 380.355 54.7086C381.084 55.308 381.521 56.1016 381.521 57.2355C381.521 58.3693 381.084 59.1792 380.355 59.7785C379.642 60.3778 378.671 60.6532 377.553 60.6532H376.079V65.0589H373.957V53.8826H377.553ZM377.294 59.001C377.942 59.001 378.379 58.839 378.735 58.5799C379.092 58.3207 379.351 57.8672 379.351 57.2355C379.351 56.62 379.043 56.1664 378.687 55.9073C378.33 55.6481 377.893 55.5347 377.245 55.5347H376.063V59.001H377.294Z" fill="#004357"/>
<path d="M366.049 53.8826H368.138V63.3096H372.042V65.0589H366.049V53.8826Z" fill="#004357"/>
<path d="M356.606 53.8826H363.507V55.6319H358.712V58.4017H363.231V60.1349H358.712V63.3096H363.636V65.0589H356.606V53.8826Z" fill="#004357"/>
<path d="M344.3 65.0589V53.8826H346.406V58.3531H351.622V53.8826H353.711V65.0589H351.622V60.1187H346.406V65.0589H344.3Z" fill="#004357"/>
<path d="M332.292 65.2534C329.069 65.2534 326.445 63.0829 326.445 59.4871C326.445 55.8912 329.069 53.7207 332.292 53.7207C335.532 53.7207 338.14 55.8912 338.14 59.4871C338.14 63.0829 335.532 65.2534 332.292 65.2534ZM332.292 63.4069C334.365 63.4069 335.969 61.9005 335.969 59.4709C335.969 57.0412 334.365 55.551 332.292 55.551C330.219 55.551 328.615 57.0412 328.615 59.4709C328.615 61.9005 330.235 63.4069 332.292 63.4069Z" fill="#004357"/>
<path d="M320.038 55.5833H316.961V53.8826H325.189V55.5833H322.128V65.0589H320.038V55.5833Z" fill="#004357"/>
<path d="M304.68 53.8826H311.58V55.6319H306.785V58.4017H311.305V60.1349H306.785V63.3096H311.709V65.0589H304.68V53.8826Z" fill="#004357"/>
<path d="M298.39 53.8826C299.572 53.8826 300.512 54.1417 301.208 54.6763C301.905 55.2108 302.407 56.0693 302.407 57.1383C302.407 58.1264 302.131 58.8228 301.678 59.3088C301.241 59.7785 300.657 60.0701 299.993 60.2644L303.006 65.0589H300.544L297.904 60.5236H296.9V65.0589H294.794V53.8826H298.39ZM297.985 58.8714C298.665 58.8714 299.184 58.8228 299.588 58.5151C300.01 58.2073 300.236 57.8348 300.236 57.2031C300.236 56.5876 300.01 56.1826 299.588 55.8911C299.184 55.5833 298.665 55.5347 297.985 55.5347H296.883V58.8714H297.985Z" fill="#004357"/>
<path d="M285.351 53.8826H292.251V55.6319H287.457V58.4017H291.976V60.1349H287.457V63.3096H292.381V65.0589H285.351V53.8826Z" fill="#004357"/>
<path d="M273.045 65.0589V53.8826H275.151V58.3531H280.367V53.8826H282.456V65.0589H280.367V60.1187H275.151V65.0589H273.045Z" fill="#004357"/>
<path d="M320.188 86.2344V120.272C320.188 124.691 323.769 128.272 328.187 128.272H360.541" stroke="#BED73C" stroke-width="2" stroke-linecap="round" stroke-linejoin="round" stroke-dasharray="4 4"/>
<path d="M420.461 68.0596V98.8311C420.461 103.249 416.88 106.831 412.461 106.831H407.453" stroke="#BED73C" stroke-width="2" stroke-linecap="round" stroke-linejoin="round" stroke-dasharray="4 4"/>
<path d="M526 80C526 35.8172 561.817 0 606 0V0C650.182 0 686 35.8172 686 80V80C686 124.183 650.182 160 606 160V160C561.817 160 526 124.183 526 80V80Z" fill="#F3F4F6"/>
<g clip-path="url(#clip0_6220_76022)">
<path d="M665.332 109.493C665.933 109.493 666.431 108.995 666.431 108.394V105.099H669.727C670.327 105.099 670.825 104.6 670.825 104V102.491L673.418 103.751C673.564 103.824 673.726 103.853 673.901 103.853C674.106 103.853 674.312 103.795 674.487 103.692C674.81 103.487 675 103.136 675 102.755V96.8954C675 96.4706 674.766 96.0897 674.385 95.8993L654.346 86.2167C653.804 85.953 653.145 86.1874 652.881 86.7294C652.617 87.2714 652.852 87.9305 653.394 88.1942L672.817 97.5692V100.982L651.68 90.7723C651.138 90.5087 650.479 90.743 650.215 91.285C649.951 91.827 650.186 92.4862 650.728 92.7499L668.643 101.407V102.887H606.387V101.407L624.302 92.7499C624.844 92.4862 625.078 91.827 624.814 91.285C624.551 90.743 623.892 90.5087 623.35 90.7723L602.197 100.997V97.5839L621.621 88.2089C622.163 87.9452 622.397 87.286 622.134 86.744C621.87 86.202 621.211 85.9677 620.669 86.2313L600.615 95.8993C600.234 96.0897 600 96.4706 600 96.8954V102.755C600 103.136 600.19 103.487 600.513 103.692C600.688 103.809 600.894 103.853 601.099 103.853C601.26 103.853 601.421 103.824 601.582 103.751L604.175 102.491V104C604.175 104.6 604.673 105.099 605.273 105.099H608.569V108.394C608.569 108.995 609.067 109.493 609.668 109.493H611.499V126.119H609.668C609.067 126.119 608.569 126.617 608.569 127.218V130.514H605.273C604.673 130.514 604.175 131.012 604.175 131.612V134.908H601.099C600.498 134.908 600 135.406 600 136.007V140.401C600 141.002 600.498 141.5 601.099 141.5H673.901C674.502 141.5 675 141.002 675 140.401V136.007C675 135.406 674.502 134.908 673.901 134.908H670.825V131.612C670.825 131.012 670.327 130.514 669.727 130.514H666.431V127.218C666.431 126.617 665.933 126.119 665.332 126.119H663.501V109.493H665.332ZM664.233 107.296H654.712V105.099H664.233V107.296ZM653.613 126.119C653.013 126.119 652.515 126.617 652.515 127.218V130.514H644.458V127.218C644.458 126.617 643.96 126.119 643.359 126.119H641.528V109.493H643.359C643.96 109.493 644.458 108.995 644.458 108.394V105.099H652.515V108.394C652.515 108.995 653.013 109.493 653.613 109.493H655.444V126.119H653.613ZM621.387 126.119H619.556V109.493H621.387C621.987 109.493 622.485 108.995 622.485 108.394V105.099H630.542V108.394C630.542 108.995 631.04 109.493 631.641 109.493H633.472V126.119H631.641C631.04 126.119 630.542 126.617 630.542 127.218V130.514H622.485V127.218C622.485 126.617 621.987 126.119 621.387 126.119ZM635.669 126.119V109.493H639.331V126.119H635.669ZM632.739 107.296V105.099H642.261V107.296H632.739ZM632.739 128.316H642.261V130.514H632.739V128.316ZM610.767 105.099H620.288V107.296H610.767V105.099ZM613.696 109.493H617.358V126.119H613.696V109.493ZM610.767 128.316H620.288V130.514H610.767V128.316ZM672.803 139.303H602.197V137.105H672.803V139.303ZM668.628 134.908H606.372V132.711H668.628V134.908ZM664.233 130.514H654.712V128.316H664.233V130.514ZM661.304 126.119H657.642V109.493H661.304V126.119Z" fill="#004357"/>
<path d="M637.5 66.5C629.619 66.5 623.218 72.9014 623.218 80.7822C623.218 88.6631 629.619 95.0645 637.5 95.0645C645.381 95.0645 651.782 88.6631 651.782 80.7822C651.782 72.9014 645.381 66.5 637.5 66.5ZM640.283 86.8906V88.5898C640.283 89.249 639.712 89.7617 639.053 89.6738C638.496 89.6006 638.086 89.1025 638.086 88.5459V87.1543H636.914V88.5898C636.914 89.249 636.343 89.7617 635.684 89.6738C635.127 89.6006 634.717 89.1025 634.717 88.5459V87.1543H634.321C633.765 87.1543 633.252 86.7441 633.193 86.1875C633.105 85.5137 633.633 84.957 634.277 84.957H638.906C639.565 84.957 640.181 84.5469 640.371 83.917C640.708 82.8623 639.917 81.8809 638.906 81.8809H636.123C634.482 81.8809 632.783 80.5771 632.446 78.9805C632.036 77.0615 633.105 75.3184 634.717 74.6738V73.0186C634.717 72.4619 635.127 71.9492 635.684 71.8906C636.357 71.8027 636.914 72.3301 636.914 72.9746V74.4102H638.086V73.0186C638.086 72.4619 638.496 71.9492 639.053 71.8906C639.727 71.8027 640.283 72.3301 640.283 72.9746V74.4102H640.679C641.235 74.4102 641.748 74.8203 641.807 75.377C641.895 76.0508 641.367 76.6074 640.723 76.6074H636.094C635.435 76.6074 634.819 77.0176 634.629 77.6475C634.292 78.7021 635.083 79.6836 636.094 79.6836H638.877C640.518 79.6836 642.217 80.9873 642.554 82.584C642.964 84.5029 641.895 86.2461 640.283 86.8906Z" fill="#087084"/>
</g>
<path d="M667.592 86.1084V48.3818C667.592 43.9636 664.011 40.3818 659.592 40.3818H659.034" stroke="#BED73C" stroke-width="2" stroke-linecap="round" stroke-linejoin="round" stroke-dasharray="4 4"/>
<path d="M606.333 116.495L580.819 116.495C576.401 116.495 572.819 112.913 572.819 108.495L572.819 92.252" stroke="#BED73C" stroke-width="2" stroke-linecap="round" stroke-linejoin="round" stroke-dasharray="4 4"/>
<mask id="mask2_6220_76022" style="mask-type:alpha" maskUnits="userSpaceOnUse" x="526" y="0" width="161" height="160">
<rect x="526.333" width="160" height="160" rx="80" fill="#D9D9D9"/>
</mask>
<g mask="url(#mask2_6220_76022)">
<path d="M612.459 20.8652L598.821 20.8652C594.403 20.8652 590.821 24.447 590.821 28.8652L590.821 34.8838" stroke="#BED73C" stroke-width="2" stroke-linecap="round" stroke-linejoin="round" stroke-dasharray="4 4"/>
<path d="M589.472 39.0205H586.615V32.7949C586.615 30.5684 584.813 28.7666 582.587 28.7666H522.528C520.302 28.7666 518.5 30.5684 518.5 32.7949V67.9512C518.5 70.1777 520.302 71.9795 522.528 71.9795H525.385V78.2051C525.385 80.4316 527.187 82.2334 529.413 82.2334H533.385H535.582H589.472C591.698 82.2334 593.5 80.4316 593.5 78.2051V48.2178V46.0205V43.0488C593.5 40.8223 591.698 39.0205 589.472 39.0205ZM520.697 67.9512V32.7949C520.697 31.7842 521.518 30.9639 522.528 30.9639H582.587C583.598 30.9639 584.418 31.7842 584.418 32.7949V67.9512C584.418 68.9619 583.598 69.7822 582.587 69.7822H522.528C521.518 69.7822 520.697 68.9619 520.697 67.9512ZM591.303 78.2051C591.303 79.2158 590.482 80.0361 589.472 80.0361H529.413C528.402 80.0361 527.582 79.2158 527.582 78.2051V71.9795H582.587C584.813 71.9795 586.615 70.1777 586.615 67.9512V41.2178H589.472C590.482 41.2178 591.303 42.0381 591.303 43.0488V78.2051Z" fill="#004357"/>
<path d="M533.385 85.2051C533.385 87.4316 535.187 89.2334 537.413 89.2334H597.472C599.698 89.2334 601.5 87.4316 601.5 85.2051V50.0488C601.5 47.8223 599.698 46.0205 597.472 46.0205H593.5V48.2178H597.472C598.482 48.2178 599.303 49.0381 599.303 50.0488V85.2051C599.303 86.2158 598.482 87.0361 597.472 87.0361H537.413C536.402 87.0361 535.582 86.2158 535.582 85.2051V82.2334H533.385V85.2051Z" fill="#004357"/>
<path d="M580.39 40.4854H578.925C577.108 40.4854 575.629 39.0059 575.629 37.1895V35.7246C575.629 35.124 575.131 34.626 574.53 34.626C573.93 34.626 573.432 35.124 573.432 35.7246V37.1895C573.432 40.2217 575.893 42.6826 578.925 42.6826H580.39C580.99 42.6826 581.488 42.1846 581.488 41.584C581.488 40.9834 580.99 40.4854 580.39 40.4854Z" fill="#004357"/>
<path d="M580.39 58.0635H578.925C575.893 58.0635 573.432 60.5244 573.432 63.5566V65.0215C573.432 65.6221 573.93 66.1201 574.53 66.1201C575.131 66.1201 575.629 65.6221 575.629 65.0215V63.5566C575.629 61.7402 577.108 60.2607 578.925 60.2607H580.39C580.99 60.2607 581.488 59.7627 581.488 59.1621C581.488 58.5615 580.99 58.0635 580.39 58.0635Z" fill="#004357"/>
<path d="M530.585 34.626C529.984 34.626 529.486 35.124 529.486 35.7246V37.1895C529.486 39.0059 528.007 40.4854 526.19 40.4854H524.726C524.125 40.4854 523.627 40.9834 523.627 41.584C523.627 42.1846 524.125 42.6826 524.726 42.6826H526.19C529.223 42.6826 531.684 40.2217 531.684 37.1895V35.7246C531.684 35.124 531.186 34.626 530.585 34.626Z" fill="#004357"/>
<path d="M526.19 58.0635H524.726C524.125 58.0635 523.627 58.5615 523.627 59.1621C523.627 59.7627 524.125 60.2607 524.726 60.2607H526.19C528.007 60.2607 529.486 61.7402 529.486 63.5566V65.0215C529.486 65.6221 529.984 66.1201 530.585 66.1201C531.186 66.1201 531.684 65.6221 531.684 65.0215V63.5566C531.684 60.5244 529.223 58.0635 526.19 58.0635Z" fill="#004357"/>
<path d="M573.139 74.9092H569.477C568.876 74.9092 568.378 75.4072 568.378 76.0078C568.378 76.6084 568.876 77.1064 569.477 77.1064H573.139C573.739 77.1064 574.237 76.6084 574.237 76.0078C574.237 75.4072 573.739 74.9092 573.139 74.9092Z" fill="#004357"/>
<path d="M560.761 74.9092H557.099C556.498 74.9092 556 75.4072 556 76.0078C556 76.6084 556.498 77.1064 557.099 77.1064H560.761C561.361 77.1064 561.859 76.6084 561.859 76.0078C561.859 75.4072 561.361 74.9092 560.761 74.9092Z" fill="#004357"/>
<path d="M548.383 74.9092H544.721C544.12 74.9092 543.622 75.4072 543.622 76.0078C543.622 76.6084 544.12 77.1064 544.721 77.1064H548.383C548.983 77.1064 549.481 76.6084 549.481 76.0078C549.481 75.4072 548.983 74.9092 548.383 74.9092Z" fill="#004357"/>
<path d="M536.005 74.9092H532.343C531.742 74.9092 531.244 75.4072 531.244 76.0078C531.244 76.6084 531.742 77.1064 532.343 77.1064H536.005C536.605 77.1064 537.104 76.6084 537.104 76.0078C537.104 75.4072 536.605 74.9092 536.005 74.9092Z" fill="#004357"/>
<path d="M585.517 74.9092H581.854C581.254 74.9092 580.756 75.4072 580.756 76.0078C580.756 76.6084 581.254 77.1064 581.854 77.1064H585.517C586.117 77.1064 586.615 76.6084 586.615 76.0078C586.615 75.4072 586.117 74.9092 585.517 74.9092Z" fill="#004357"/>
<path d="M552.558 36.0908C544.677 36.0908 538.275 42.4922 538.275 50.373C538.275 58.2539 544.677 64.6553 552.558 64.6553C560.438 64.6553 566.84 58.2539 566.84 50.373C566.84 42.4922 560.438 36.0908 552.558 36.0908ZM555.341 56.584V58.4297C555.341 59.0303 554.843 59.5283 554.242 59.5283C553.642 59.5283 553.144 59.0303 553.144 58.4297V56.8477H551.986V58.4297C551.986 59.0303 551.488 59.5283 550.888 59.5283C550.287 59.5283 549.789 59.0303 549.789 58.4297V56.8477H549.35C548.749 56.8477 548.251 56.3496 548.251 55.749C548.251 55.1484 548.749 54.6504 549.35 54.6504H553.993C554.828 54.6504 555.502 53.9326 555.502 53.0684C555.502 52.2041 554.828 51.4863 553.993 51.4863H551.137C549.101 51.4863 547.431 49.7871 547.431 47.707C547.431 46.1104 548.412 44.7334 549.774 44.1914V42.3164C549.774 41.7158 550.272 41.2178 550.873 41.2178C551.474 41.2178 551.972 41.7158 551.972 42.3164V43.8984H553.129V42.3164C553.129 41.7158 553.627 41.2178 554.228 41.2178C554.828 41.2178 555.326 41.7158 555.326 42.3164V43.8984H555.766C556.366 43.8984 556.864 44.3965 556.864 44.9971C556.864 45.5977 556.366 46.0957 555.766 46.0957H551.122C550.287 46.0957 549.613 46.8135 549.613 47.6777C549.613 48.5566 550.287 49.2598 551.122 49.2598H553.979C556.015 49.2598 557.685 50.959 557.685 53.0391C557.685 54.6504 556.703 56.0273 555.341 56.584Z" fill="#087084"/>
<path d="M660.172 26.4307C660.172 15.131 650.974 5.93237 639.674 5.93237C628.374 5.93237 619.176 15.131 619.176 26.4307C619.176 37.7303 628.374 46.929 639.674 46.929C650.974 46.929 660.172 37.7303 660.172 26.4307Z" fill="#087084"/>
<path d="M649.288 21.7131L637.801 33.3916C637.504 33.6889 637.1 33.8588 636.675 33.8588C636.251 33.8588 635.847 33.6889 635.55 33.3916L630.051 27.8072C629.435 27.1702 629.435 26.1722 630.072 25.5564C630.709 24.9407 631.707 24.9407 632.323 25.5777L636.675 30.0155L647.037 19.4836C647.653 18.8466 648.672 18.8466 649.288 19.4624C649.904 20.0782 649.925 21.0974 649.288 21.7131Z" fill="#F3F4F6"/>
</g>
<defs>
<clipPath id="clip0_6220_76022">
<rect width="75" height="75" fill="white" transform="translate(600 66.5)"/>
</clipPath>
</defs>
</svg>
