<svg width="901" height="241" viewBox="0 0 901 241" fill="none" xmlns="http://www.w3.org/2000/svg">
<path d="M65.333 80C65.333 35.8172 101.15 0 145.333 0V0C189.516 0 225.333 35.8172 225.333 80V80C225.333 124.183 189.516 160 145.333 160V160C101.15 160 65.333 124.183 65.333 80V80Z" fill="#F3F4F6"/>
<mask id="mask0_6222_77355" style="mask-type:alpha" maskUnits="userSpaceOnUse" x="65" y="0" width="161" height="160">
<rect x="65.333" width="160" height="160" rx="80" fill="#D9D9D9"/>
</mask>
<g mask="url(#mask0_6222_77355)">
<path d="M129.53 28.5H97.3037C97.0107 28.5 96.7324 28.6172 96.5273 28.8223L84.8086 40.541C84.6035 40.7461 84.4863 41.0244 84.4863 41.3174V93.6123C84.4863 95.8389 86.2881 97.6406 88.5146 97.6406H113.622C114.223 97.6406 114.721 97.1426 114.721 96.542C114.721 95.9414 114.223 95.4434 113.622 95.4434H88.5146C87.5039 95.4434 86.6836 94.623 86.6836 93.6123V42.416H94.374C96.6006 42.416 98.4023 40.6143 98.4023 38.3877V30.6973H129.53C130.541 30.6973 131.361 31.5176 131.361 32.5283V65.7656C131.361 66.3662 131.859 66.8643 132.46 66.8643C133.061 66.8643 133.559 66.3662 133.559 65.7656V32.5283C133.559 30.3018 131.757 28.5 129.53 28.5ZM94.374 40.2188H88.2363L96.2051 32.25V38.3877C96.2051 39.3984 95.3848 40.2188 94.374 40.2188Z" fill="#004357"/>
<path d="M110.487 67.3916C111.088 67.3916 111.586 66.8936 111.586 66.293V61.8984C111.586 61.2979 111.088 60.7998 110.487 60.7998H92.543V58.0166C92.543 57.416 92.0449 56.918 91.4443 56.918C90.8438 56.918 90.3457 57.416 90.3457 58.0166V90.6973C90.3457 91.2979 90.8438 91.7959 91.4443 91.7959C92.0449 91.7959 92.543 91.2979 92.543 90.6973V87.9141H101.698C102.299 87.9141 102.797 87.416 102.797 86.8154V82.4209C102.797 81.8203 102.299 81.3223 101.698 81.3223H92.543V77.6602H106.093C106.693 77.6602 107.191 77.1621 107.191 76.5615V72.167C107.191 71.5664 106.693 71.0684 106.093 71.0684H92.543V67.4063H110.487V67.3916ZM109.389 62.9971V65.1943H92.543V62.9971H109.389ZM100.6 83.5049V85.7021H92.543V83.5049H100.6ZM104.994 73.251V75.4482H92.543V73.251H104.994Z" fill="#004357"/>
<path d="M123.671 43.1484H120.463C119.452 43.1484 118.632 42.3281 118.632 41.3174C118.632 40.3066 119.452 39.4863 120.463 39.4863H125.692C126.293 39.4863 126.791 38.9883 126.791 38.3877C126.791 37.7871 126.293 37.2891 125.692 37.2891H125.048V35.458C125.048 34.8574 124.55 34.3594 123.949 34.3594C123.349 34.3594 122.851 34.8574 122.851 35.458V37.2891H121.269V35.458C121.269 34.8574 120.771 34.3594 120.17 34.3594C119.569 34.3594 119.071 34.8574 119.071 35.458V37.5381C117.533 38.1094 116.42 39.5889 116.42 41.3174C116.42 43.5439 118.222 45.3457 120.448 45.3457H123.656C124.667 45.3457 125.487 46.166 125.487 47.1768C125.487 48.1875 124.667 49.0078 123.656 49.0078H118.427C117.826 49.0078 117.328 49.5059 117.328 50.1064C117.328 50.707 117.826 51.2051 118.427 51.2051H119.071V53.0361C119.071 53.6367 119.569 54.1348 120.17 54.1348C120.771 54.1348 121.269 53.6367 121.269 53.0361V51.2051H122.851V53.0361C122.851 53.6367 123.349 54.1348 123.949 54.1348C124.55 54.1348 125.048 53.6367 125.048 53.0361V50.9561C126.586 50.3848 127.699 48.9053 127.699 47.1768C127.699 44.9502 125.897 43.1484 123.671 43.1484Z" fill="#004357"/>
<path d="M91.4443 53.2412H106.093C106.693 53.2412 107.191 52.7432 107.191 52.1426C107.191 51.542 106.693 51.0439 106.093 51.0439H91.4443C90.8438 51.0439 90.3457 51.542 90.3457 52.1426C90.3457 52.7432 90.8291 53.2412 91.4443 53.2412Z" fill="#004357"/>
<path d="M110.487 46.6494H91.4443C90.8438 46.6494 90.3457 47.1475 90.3457 47.748C90.3457 48.3486 90.8438 48.8467 91.4443 48.8467H110.487C111.088 48.8467 111.586 48.3486 111.586 47.748C111.586 47.1475 111.088 46.6494 110.487 46.6494Z" fill="#004357"/>
<path d="M79.0518 41.9473V37.1719C79.0518 35.3555 77.5723 33.876 75.7559 33.876C73.9395 33.876 72.46 35.3555 72.46 37.1719V41.9326C71.8594 41.9326 71.3613 42.4307 71.3613 43.0312V46.3271H69.8965C68.4902 46.3271 67.333 47.4844 67.333 48.8906V59.1445C67.333 59.7451 67.8311 60.2432 68.4316 60.2432C69.0322 60.2432 69.5303 59.7451 69.5303 59.1445V48.8906C69.5303 48.6855 69.6914 48.5244 69.8965 48.5244H71.3613V70.8633C71.3613 71.3467 71.6689 71.7422 72.0938 71.9033V87.5332C72.0938 91.0488 73.0312 94.5205 74.8037 97.5674C74.9941 97.9043 75.3604 98.1094 75.7559 98.1094C76.1514 98.1094 76.5029 97.9043 76.708 97.5674C78.4805 94.5205 79.418 91.0488 79.418 87.5332V71.9033C79.8428 71.7568 80.1504 71.3467 80.1504 70.8633V43.0312C80.1504 42.4307 79.6523 41.9473 79.0518 41.9473ZM73.5586 69.7793V44.1445H77.9531V69.7793H73.5586ZM74.6572 37.1719C74.6572 36.5713 75.1553 36.0732 75.7559 36.0732C76.3564 36.0732 76.8545 36.5713 76.8545 37.1719V41.9326H74.6572V37.1719ZM75.7559 94.5938C74.7891 92.3672 74.291 89.9648 74.291 87.5332V71.9766H77.2207V87.5332C77.2207 89.9648 76.7227 92.3672 75.7559 94.5938Z" fill="#004357"/>
<path d="M141.615 72.6064L128.432 67.8164C128.183 67.7285 127.919 67.7285 127.685 67.8164L114.501 72.6064C114.062 72.7676 113.783 73.1777 113.783 73.6318V85.1309C113.783 93.6709 119.54 101.2 127.772 103.456C127.86 103.485 127.963 103.5 128.065 103.5C128.168 103.5 128.256 103.485 128.358 103.456C136.576 101.215 142.333 93.6855 142.333 85.1455V73.6465C142.333 73.1777 142.04 72.7676 141.615 72.6064ZM134.687 82.3623L126.762 90.4189C126.557 90.624 126.278 90.7412 125.985 90.7412C125.692 90.7412 125.414 90.624 125.209 90.4189L121.415 86.5664C120.99 86.127 120.99 85.4385 121.43 85.0137C121.869 84.5889 122.558 84.5889 122.982 85.0283L125.985 88.0898L133.134 80.8242C133.559 80.3848 134.262 80.3848 134.687 80.8096C135.111 81.2344 135.126 81.9375 134.687 82.3623Z" fill="#087084"/>
</g>
<path d="M184.744 124.879V59.5334C184.744 58.1332 185.879 56.998 187.279 56.998C188.679 56.998 189.814 58.1332 189.814 59.5334V124.879C189.814 126.279 188.679 127.414 187.279 127.414C185.879 127.414 184.744 126.279 184.744 124.879Z" fill="white" stroke="#004357" stroke-width="2"/>
<rect x="135.058" y="62.4089" width="104.442" height="33.8662" rx="7" fill="white"/>
<rect x="135.058" y="62.4089" width="104.442" height="33.8662" rx="7" stroke="#004357" stroke-width="2"/>
<path d="M227.438 73.6648H229.608L229.414 81.634H227.616L227.438 73.6648ZM227.211 83.8207C227.211 83.0594 227.745 82.6059 228.523 82.6059C229.268 82.6059 229.819 83.0594 229.819 83.8207C229.819 84.5658 229.268 85.0193 228.523 85.0193C227.745 85.0193 227.211 84.5658 227.211 83.8207Z" fill="#004357"/>
<path d="M217.655 73.6648H224.555V75.4141H219.76V78.1839H224.28V79.9171H219.76V83.0918H224.685V84.8412H217.655V73.6648Z" fill="#004357"/>
<path d="M208.212 73.6648H215.112V75.4141H210.318V78.1839H214.837V79.9171H210.318V83.0918H215.242V84.8412H208.212V73.6648Z" fill="#004357"/>
<path d="M201.922 73.6648C203.104 73.6648 204.044 73.924 204.74 74.4585C205.437 74.993 205.939 75.8515 205.939 76.9205C205.939 77.9086 205.664 78.6051 205.21 79.091C204.773 79.5607 204.19 79.8523 203.526 80.0467L206.538 84.8412H204.076L201.436 80.3058H200.432V84.8412H198.326V73.6648H201.922ZM201.517 78.6537C202.197 78.6537 202.716 78.6051 203.121 78.2973C203.542 77.9896 203.769 77.617 203.769 76.9853C203.769 76.3698 203.542 75.9649 203.121 75.6733C202.716 75.3655 202.197 75.317 201.517 75.317H200.416V78.6537H201.517Z" fill="#004357"/>
<path d="M189.453 73.6648H196.046V75.4303H191.559V78.5727H195.786V80.3058H191.559V84.8412H189.453V73.6648Z" fill="#004357"/>
<path d="M178.588 75.3655H175.511V73.6648H183.739V75.3655H180.678V84.8412H178.588V75.3655Z" fill="#004357"/>
<path d="M169.656 73.6648C170.563 73.6648 171.405 73.7458 172.134 74.1021C173.009 74.5233 173.576 75.2036 173.576 76.3374C173.576 77.8438 172.571 78.6375 171.843 78.929V78.9614C173.284 79.2854 174.24 80.2248 174.24 81.7312C174.24 82.8651 173.673 83.7397 172.912 84.2257C172.215 84.663 171.227 84.8412 170.158 84.8412H166.076V73.6648H169.656ZM169.494 78.3297C170.077 78.3297 170.482 78.2649 170.822 78.0544C171.211 77.8114 171.438 77.4226 171.438 76.8233C171.438 76.305 171.259 75.9487 170.952 75.7057C170.612 75.4465 170.142 75.317 169.591 75.317H168.182V78.3297H169.494ZM169.996 83.189C170.531 83.189 171.049 83.1728 171.438 82.9136C171.859 82.6383 172.102 82.1362 172.102 81.553C172.102 80.9375 171.826 80.5164 171.405 80.2248C170.984 79.9333 170.547 79.8685 169.899 79.8685H168.182V83.189H169.996Z" fill="#004357"/>
<path d="M156.633 73.6648H163.533V75.4141H158.739V78.1839H163.258V79.9171H158.739V83.0918H163.663V84.8412H156.633V73.6648Z" fill="#004357"/>
<path d="M148.318 73.6648C150.262 73.6648 151.704 74.2965 152.562 75.074C153.437 75.8353 154.344 77.1149 154.344 79.2368C154.344 81.3749 153.437 82.6869 152.562 83.4482C151.704 84.2095 150.262 84.8412 148.318 84.8412H144.739V73.6648H148.318ZM148.399 83.0594C149.614 83.0594 150.505 82.6545 151.056 82.1362C151.59 81.6178 152.173 80.7594 152.173 79.253C152.173 77.7628 151.59 76.8557 151.056 76.3374C150.505 75.8353 149.614 75.4303 148.399 75.4303H146.844V83.0594H148.399Z" fill="#004357"/>
<path d="M170.814 111.937L170.252 112.444L170.938 112.763C176.67 115.424 180.553 121.152 180.553 127.692C180.553 130.999 178.038 133.514 174.731 133.514H153.658C150.352 133.514 147.836 130.999 147.836 127.692C147.836 121.152 151.72 115.424 157.451 112.763L158.138 112.444L157.575 111.937C155.557 110.121 154.158 107.511 154.158 104.512C154.158 98.8878 158.571 94.4756 164.195 94.4756C169.819 94.4756 174.231 98.8878 174.231 104.512C174.231 107.511 172.832 110.121 170.814 111.937ZM164.195 97.6902C160.336 97.6902 157.373 100.654 157.373 104.512C157.373 108.371 160.336 111.334 164.195 111.334C168.053 111.334 171.017 108.371 171.017 104.512C171.017 100.654 168.053 97.6902 164.195 97.6902ZM153.658 130.3H174.731C175.477 130.3 176.138 130.049 176.613 129.574C177.088 129.099 177.339 128.438 177.339 127.692C177.339 120.462 171.425 114.549 164.195 114.549C156.965 114.549 151.051 120.462 151.051 127.692C151.051 128.438 151.302 129.099 151.777 129.574C152.252 130.049 152.913 130.3 153.658 130.3Z" fill="#004357" stroke="#F3F4F6"/>
<path d="M104.785 105.736V106.46C104.785 110.878 108.367 114.46 112.785 114.46H144.193" stroke="#BED73C" stroke-width="2" stroke-linecap="round" stroke-linejoin="round" stroke-dasharray="4 4"/>
<path d="M161.541 56.2725V47.7363C161.541 43.318 157.959 39.7363 153.541 39.7363H138.785" stroke="#BED73C" stroke-width="2" stroke-linecap="round" stroke-linejoin="round" stroke-dasharray="4 4"/>
<path d="M370.667 80C370.667 35.8172 406.484 0 450.667 0V0C494.849 0 530.667 35.8172 530.667 80V80C530.667 124.183 494.849 160 450.667 160V160C406.484 160 370.667 124.183 370.667 80V80Z" fill="#F3F4F6"/>
<path d="M486.882 110.602L486.102 111.305L487.079 111.69C495.5 115.007 501.372 123.173 501.372 132.88V143.384C501.372 147.489 498.25 150.612 494.145 150.612H462.634C458.529 150.612 455.406 147.489 455.406 143.384V132.88C455.406 123.173 461.278 115.007 469.699 111.69L470.622 111.327L469.921 110.626C467.396 108.102 465.91 105.109 465.91 101.369C465.91 94.3758 471.396 88.8897 478.389 88.8897C485.383 88.8897 490.869 94.3758 490.869 101.369C490.869 105.128 489.368 108.365 486.882 110.602ZM478.389 92.8416C473.566 92.8416 469.861 96.5463 469.861 101.369C469.861 106.192 473.566 109.897 478.389 109.897C483.212 109.897 486.917 106.192 486.917 101.369C486.917 96.5463 483.212 92.8416 478.389 92.8416ZM494.145 146.66C495.08 146.66 495.91 146.345 496.508 145.748C497.106 145.15 497.421 144.32 497.421 143.384V132.88C497.421 122.28 488.989 113.849 478.389 113.849C467.789 113.849 459.358 122.28 459.358 132.88V143.384C459.358 144.32 459.672 145.15 460.27 145.748C460.868 146.345 461.698 146.66 462.634 146.66H494.145Z" fill="#004357" stroke="#F3F4F6" stroke-width="1.3"/>
<path d="M470.511 136.156H473.137C473.777 136.156 474.26 136.367 474.581 136.688C474.903 137.009 475.113 137.492 475.113 138.132C475.113 138.772 474.903 139.255 474.581 139.576C474.26 139.898 473.777 140.108 473.137 140.108H470.511C469.871 140.108 469.388 139.898 469.067 139.576C468.746 139.255 468.535 138.772 468.535 138.132C468.535 137.492 468.746 137.009 469.067 136.688C469.388 136.367 469.871 136.156 470.511 136.156Z" fill="#004357" stroke="#F3F4F6" stroke-width="1.3"/>
<path d="M483.641 136.156H486.267C486.907 136.156 487.39 136.367 487.711 136.688C488.032 137.009 488.243 137.492 488.243 138.132C488.243 138.772 488.032 139.255 487.711 139.576C487.39 139.898 486.907 140.108 486.267 140.108H483.641C483.001 140.108 482.518 139.898 482.197 139.576C481.876 139.255 481.665 138.772 481.665 138.132C481.665 137.492 481.876 137.009 482.197 136.688C482.518 136.367 483.001 136.156 483.641 136.156Z" fill="#004357" stroke="#F3F4F6" stroke-width="1.3"/>
<mask id="mask1_6222_77355" style="mask-type:alpha" maskUnits="userSpaceOnUse" x="370" y="0" width="161" height="160">
<rect x="370.333" width="160" height="160" rx="80" fill="#D9D9D9"/>
</mask>
<g mask="url(#mask1_6222_77355)">
<path d="M516.639 29.5322H480.475C475.796 29.5322 471.999 33.3295 471.999 38.0082V56.0902C471.999 60.7689 475.796 64.5662 480.475 64.5662H483.3V69.4257C483.3 72.4771 485.787 74.9633 488.838 74.9633C490.307 74.9633 491.686 74.3983 492.726 73.3585L498.128 67.9565H494.036C493.11 67.9565 492.341 67.1881 492.341 66.2614C492.341 65.3346 493.11 64.5662 494.036 64.5662H516.639C521.318 64.5662 525.115 60.7689 525.115 56.0902V38.0082C525.115 33.3295 521.318 29.5322 516.639 29.5322ZM482.735 40.8335H484.995C485.922 40.8335 486.691 41.602 486.691 42.5287C486.691 43.4554 485.922 44.2239 484.995 44.2239H482.735C481.809 44.2239 481.04 43.4554 481.04 42.5287C481.04 41.602 481.809 40.8335 482.735 40.8335ZM514.379 53.2649H482.735C481.809 53.2649 481.04 52.4964 481.04 51.5697C481.04 50.643 481.809 49.8745 482.735 49.8745H514.379C515.305 49.8745 516.074 50.643 516.074 51.5697C516.074 52.4964 515.305 53.2649 514.379 53.2649ZM514.379 44.2239H491.776C490.85 44.2239 490.081 43.4554 490.081 42.5287C490.081 41.602 490.85 40.8335 491.776 40.8335H514.379C515.305 40.8335 516.074 41.602 516.074 42.5287C516.074 43.4554 515.305 44.2239 514.379 44.2239Z" fill="#087084"/>
</g>
<path fill-rule="evenodd" clip-rule="evenodd" d="M429.628 35.4995H364.627C358.238 35.4995 353.052 40.6849 353.052 47.074V71.7661C353.052 78.1552 358.238 83.3406 364.627 83.3406H425.276L429.628 87.6926L434.257 92.3223L437.282 95.3471C438.702 96.7669 440.585 97.5385 442.591 97.5385C446.758 97.5385 450.153 94.1434 450.153 89.9766V83.3406H470.011C476.4 83.3406 481.585 78.1552 481.585 71.7661V47.074C481.585 40.6849 476.4 35.4995 470.011 35.4995H434.257H429.628ZM476.956 71.7661V47.074C476.956 43.2467 473.838 40.1293 470.011 40.1293H364.627C360.799 40.1293 357.682 43.2467 357.682 47.074V71.7661C357.682 75.5934 360.799 78.7108 364.627 78.7108H437.035C438.301 78.7108 439.35 79.7602 439.35 81.0257C439.35 82.2911 438.301 83.3406 437.035 83.3406H431.819L440.554 92.0754C441.078 92.6001 441.819 92.9088 442.591 92.9088C444.196 92.9088 445.523 91.5816 445.523 89.9766V81.0257C445.523 79.7602 446.572 78.7108 447.838 78.7108H470.011C473.838 78.7108 476.956 75.5934 476.956 71.7661Z" fill="#004357"/>
<path d="M476.956 47.074V71.7661C476.956 75.5934 473.838 78.7108 470.011 78.7108H447.838C446.572 78.7108 445.523 79.7602 445.523 81.0257V89.9766C445.523 91.5816 444.196 92.9088 442.591 92.9088C441.819 92.9088 441.078 92.6001 440.554 92.0754L431.819 83.3406H437.035C438.301 83.3406 439.35 82.2911 439.35 81.0257C439.35 79.7602 438.301 78.7108 437.035 78.7108H364.627C360.799 78.7108 357.682 75.5934 357.682 71.7661V47.074C357.682 43.2467 360.799 40.1293 364.627 40.1293H470.011C473.838 40.1293 476.956 43.2467 476.956 47.074Z" fill="#F3F4F6"/>
<path d="M431.819 82.5906H430.008L431.289 83.8709L440.023 92.6057C440.691 93.2731 441.623 93.6588 442.591 93.6588C444.61 93.6588 446.273 91.9958 446.273 89.9766V81.0257C446.273 80.1744 446.987 79.4608 447.838 79.4608H470.011C474.253 79.4608 477.706 76.0076 477.706 71.7661V47.074C477.706 42.8325 474.253 39.3793 470.011 39.3793H364.627C360.385 39.3793 356.932 42.8325 356.932 47.074V71.7661C356.932 76.0076 360.385 79.4608 364.627 79.4608H437.035C437.886 79.4608 438.6 80.1744 438.6 81.0257C438.6 81.8769 437.886 82.5906 437.035 82.5906H431.819ZM476.206 47.074V71.7661C476.206 75.1792 473.424 77.9608 470.011 77.9608H447.838C446.158 77.9608 444.773 79.346 444.773 81.0257V89.9766C444.773 91.1674 443.782 92.1588 442.591 92.1588C442.015 92.1588 441.466 91.9271 441.084 91.5451L433.63 84.0906H437.035C438.715 84.0906 440.1 82.7054 440.1 81.0257C440.1 79.346 438.715 77.9608 437.035 77.9608H364.627C361.214 77.9608 358.432 75.1792 358.432 71.7661V47.074C358.432 43.6609 361.214 40.8793 364.627 40.8793H470.011C473.424 40.8793 476.206 43.6609 476.206 47.074ZM425.806 82.8102L425.586 82.5906H425.276H364.627C358.652 82.5906 353.802 77.741 353.802 71.7661V47.074C353.802 41.0991 358.652 36.2495 364.627 36.2495H429.628H434.257H470.011C475.986 36.2495 480.835 41.0991 480.835 47.074V71.7661C480.835 77.741 475.986 82.5906 470.011 82.5906H450.153H449.403V83.3406V89.9766C449.403 93.7292 446.343 96.7885 442.591 96.7885C440.782 96.7885 439.09 96.0945 437.812 94.8168L434.788 91.792L430.158 87.1622L425.806 82.8102Z" stroke="#F3F4F6" stroke-width="1.5"/>
<rect x="356.936" y="39.4634" width="120.668" height="39.9521" rx="8" fill="white"/>
<path d="M467.553 53.8826C468.671 53.8826 469.642 54.1093 470.355 54.7086C471.084 55.308 471.521 56.1016 471.521 57.2355C471.521 58.3693 471.084 59.1792 470.355 59.7785C469.642 60.3778 468.671 60.6532 467.553 60.6532H466.079V65.0589H463.957V53.8826H467.553ZM467.294 59.001C467.942 59.001 468.379 58.839 468.735 58.5799C469.092 58.3207 469.351 57.8672 469.351 57.2355C469.351 56.62 469.043 56.1664 468.687 55.9073C468.33 55.6481 467.893 55.5347 467.245 55.5347H466.063V59.001H467.294Z" fill="#004357"/>
<path d="M456.049 53.8826H458.138V63.3096H462.042V65.0589H456.049V53.8826Z" fill="#004357"/>
<path d="M446.606 53.8826H453.507V55.6319H448.712V58.4017H453.231V60.1349H448.712V63.3096H453.636V65.0589H446.606V53.8826Z" fill="#004357"/>
<path d="M434.3 65.0589V53.8826H436.406V58.3531H441.622V53.8826H443.711V65.0589H441.622V60.1187H436.406V65.0589H434.3Z" fill="#004357"/>
<path d="M422.292 65.2534C419.069 65.2534 416.445 63.0829 416.445 59.4871C416.445 55.8912 419.069 53.7207 422.292 53.7207C425.532 53.7207 428.14 55.8912 428.14 59.4871C428.14 63.0829 425.532 65.2534 422.292 65.2534ZM422.292 63.4069C424.365 63.4069 425.969 61.9005 425.969 59.4709C425.969 57.0412 424.365 55.551 422.292 55.551C420.219 55.551 418.615 57.0412 418.615 59.4709C418.615 61.9005 420.235 63.4069 422.292 63.4069Z" fill="#004357"/>
<path d="M410.038 55.5833H406.961V53.8826H415.189V55.5833H412.128V65.0589H410.038V55.5833Z" fill="#004357"/>
<path d="M394.68 53.8826H401.58V55.6319H396.785V58.4017H401.305V60.1349H396.785V63.3096H401.709V65.0589H394.68V53.8826Z" fill="#004357"/>
<path d="M388.39 53.8826C389.572 53.8826 390.512 54.1417 391.208 54.6763C391.905 55.2108 392.407 56.0693 392.407 57.1383C392.407 58.1264 392.131 58.8228 391.678 59.3088C391.241 59.7785 390.657 60.0701 389.993 60.2644L393.006 65.0589H390.544L387.904 60.5236H386.9V65.0589H384.794V53.8826H388.39ZM387.985 58.8714C388.665 58.8714 389.184 58.8228 389.588 58.5151C390.01 58.2073 390.236 57.8348 390.236 57.2031C390.236 56.5876 390.01 56.1826 389.588 55.8911C389.184 55.5833 388.665 55.5347 387.985 55.5347H386.883V58.8714H387.985Z" fill="#004357"/>
<path d="M375.351 53.8826H382.251V55.6319H377.457V58.4017H381.976V60.1349H377.457V63.3096H382.381V65.0589H375.351V53.8826Z" fill="#004357"/>
<path d="M363.045 65.0589V53.8826H365.151V58.3531H370.367V53.8826H372.456V65.0589H370.367V60.1187H365.151V65.0589H363.045Z" fill="#004357"/>
<path d="M410.188 86.2344V120.272C410.188 124.691 413.769 128.272 418.187 128.272H450.541" stroke="#BED73C" stroke-width="2" stroke-linecap="round" stroke-linejoin="round" stroke-dasharray="4 4"/>
<path d="M510.461 68.0596V98.8311C510.461 103.249 506.88 106.831 502.461 106.831H497.453" stroke="#BED73C" stroke-width="2" stroke-linecap="round" stroke-linejoin="round" stroke-dasharray="4 4"/>
<path d="M676 80C676 35.8172 711.817 0 756 0V0C800.182 0 836 35.8172 836 80V80C836 124.183 800.182 160 756 160V160C711.817 160 676 124.183 676 80V80Z" fill="#F3F4F6"/>
<g clip-path="url(#clip0_6222_77355)">
<path d="M815.332 109.493C815.933 109.493 816.431 108.995 816.431 108.394V105.099H819.727C820.327 105.099 820.825 104.6 820.825 104V102.491L823.418 103.751C823.564 103.824 823.726 103.853 823.901 103.853C824.106 103.853 824.312 103.795 824.487 103.692C824.81 103.487 825 103.136 825 102.755V96.8954C825 96.4706 824.766 96.0897 824.385 95.8993L804.346 86.2167C803.804 85.953 803.145 86.1874 802.881 86.7294C802.617 87.2714 802.852 87.9305 803.394 88.1942L822.817 97.5692V100.982L801.68 90.7723C801.138 90.5087 800.479 90.743 800.215 91.285C799.951 91.827 800.186 92.4862 800.728 92.7499L818.643 101.407V102.887H756.387V101.407L774.302 92.7499C774.844 92.4862 775.078 91.827 774.814 91.285C774.551 90.743 773.892 90.5087 773.35 90.7723L752.197 100.997V97.5839L771.621 88.2089C772.163 87.9452 772.397 87.286 772.134 86.744C771.87 86.202 771.211 85.9677 770.669 86.2313L750.615 95.8993C750.234 96.0897 750 96.4706 750 96.8954V102.755C750 103.136 750.19 103.487 750.513 103.692C750.688 103.809 750.894 103.853 751.099 103.853C751.26 103.853 751.421 103.824 751.582 103.751L754.175 102.491V104C754.175 104.6 754.673 105.099 755.273 105.099H758.569V108.394C758.569 108.995 759.067 109.493 759.668 109.493H761.499V126.119H759.668C759.067 126.119 758.569 126.617 758.569 127.218V130.514H755.273C754.673 130.514 754.175 131.012 754.175 131.612V134.908H751.099C750.498 134.908 750 135.406 750 136.007V140.401C750 141.002 750.498 141.5 751.099 141.5H823.901C824.502 141.5 825 141.002 825 140.401V136.007C825 135.406 824.502 134.908 823.901 134.908H820.825V131.612C820.825 131.012 820.327 130.514 819.727 130.514H816.431V127.218C816.431 126.617 815.933 126.119 815.332 126.119H813.501V109.493H815.332ZM814.233 107.296H804.712V105.099H814.233V107.296ZM803.613 126.119C803.013 126.119 802.515 126.617 802.515 127.218V130.514H794.458V127.218C794.458 126.617 793.96 126.119 793.359 126.119H791.528V109.493H793.359C793.96 109.493 794.458 108.995 794.458 108.394V105.099H802.515V108.394C802.515 108.995 803.013 109.493 803.613 109.493H805.444V126.119H803.613ZM771.387 126.119H769.556V109.493H771.387C771.987 109.493 772.485 108.995 772.485 108.394V105.099H780.542V108.394C780.542 108.995 781.04 109.493 781.641 109.493H783.472V126.119H781.641C781.04 126.119 780.542 126.617 780.542 127.218V130.514H772.485V127.218C772.485 126.617 771.987 126.119 771.387 126.119ZM785.669 126.119V109.493H789.331V126.119H785.669ZM782.739 107.296V105.099H792.261V107.296H782.739ZM782.739 128.316H792.261V130.514H782.739V128.316ZM760.767 105.099H770.288V107.296H760.767V105.099ZM763.696 109.493H767.358V126.119H763.696V109.493ZM760.767 128.316H770.288V130.514H760.767V128.316ZM822.803 139.303H752.197V137.105H822.803V139.303ZM818.628 134.908H756.372V132.711H818.628V134.908ZM814.233 130.514H804.712V128.316H814.233V130.514ZM811.304 126.119H807.642V109.493H811.304V126.119Z" fill="#004357"/>
<path d="M787.5 66.5C779.619 66.5 773.218 72.9014 773.218 80.7822C773.218 88.6631 779.619 95.0645 787.5 95.0645C795.381 95.0645 801.782 88.6631 801.782 80.7822C801.782 72.9014 795.381 66.5 787.5 66.5ZM790.283 86.8906V88.5898C790.283 89.249 789.712 89.7617 789.053 89.6738C788.496 89.6006 788.086 89.1025 788.086 88.5459V87.1543H786.914V88.5898C786.914 89.249 786.343 89.7617 785.684 89.6738C785.127 89.6006 784.717 89.1025 784.717 88.5459V87.1543H784.321C783.765 87.1543 783.252 86.7441 783.193 86.1875C783.105 85.5137 783.633 84.957 784.277 84.957H788.906C789.565 84.957 790.181 84.5469 790.371 83.917C790.708 82.8623 789.917 81.8809 788.906 81.8809H786.123C784.482 81.8809 782.783 80.5771 782.446 78.9805C782.036 77.0615 783.105 75.3184 784.717 74.6738V73.0186C784.717 72.4619 785.127 71.9492 785.684 71.8906C786.357 71.8027 786.914 72.3301 786.914 72.9746V74.4102H788.086V73.0186C788.086 72.4619 788.496 71.9492 789.053 71.8906C789.727 71.8027 790.283 72.3301 790.283 72.9746V74.4102H790.679C791.235 74.4102 791.748 74.8203 791.807 75.377C791.895 76.0508 791.367 76.6074 790.723 76.6074H786.094C785.435 76.6074 784.819 77.0176 784.629 77.6475C784.292 78.7021 785.083 79.6836 786.094 79.6836H788.877C790.518 79.6836 792.217 80.9873 792.554 82.584C792.964 84.5029 791.895 86.2461 790.283 86.8906Z" fill="#087084"/>
</g>
<path d="M817.592 86.1084V48.3818C817.592 43.9636 814.011 40.3818 809.592 40.3818H809.034" stroke="#BED73C" stroke-width="2" stroke-linecap="round" stroke-linejoin="round" stroke-dasharray="4 4"/>
<path d="M756.333 116.495L730.819 116.495C726.401 116.495 722.819 112.913 722.819 108.495L722.819 92.252" stroke="#BED73C" stroke-width="2" stroke-linecap="round" stroke-linejoin="round" stroke-dasharray="4 4"/>
<mask id="mask2_6222_77355" style="mask-type:alpha" maskUnits="userSpaceOnUse" x="676" y="0" width="161" height="160">
<rect x="676.333" width="160" height="160" rx="80" fill="#D9D9D9"/>
</mask>
<g mask="url(#mask2_6222_77355)">
<path d="M762.459 20.8652L748.821 20.8652C744.403 20.8652 740.821 24.447 740.821 28.8652L740.821 34.8838" stroke="#BED73C" stroke-width="2" stroke-linecap="round" stroke-linejoin="round" stroke-dasharray="4 4"/>
<path d="M739.472 39.0205H736.615V32.7949C736.615 30.5684 734.813 28.7666 732.587 28.7666H672.528C670.302 28.7666 668.5 30.5684 668.5 32.7949V67.9512C668.5 70.1777 670.302 71.9795 672.528 71.9795H675.385V78.2051C675.385 80.4316 677.187 82.2334 679.413 82.2334H683.385H685.582H739.472C741.698 82.2334 743.5 80.4316 743.5 78.2051V48.2178V46.0205V43.0488C743.5 40.8223 741.698 39.0205 739.472 39.0205ZM670.697 67.9512V32.7949C670.697 31.7842 671.518 30.9639 672.528 30.9639H732.587C733.598 30.9639 734.418 31.7842 734.418 32.7949V67.9512C734.418 68.9619 733.598 69.7822 732.587 69.7822H672.528C671.518 69.7822 670.697 68.9619 670.697 67.9512ZM741.303 78.2051C741.303 79.2158 740.482 80.0361 739.472 80.0361H679.413C678.402 80.0361 677.582 79.2158 677.582 78.2051V71.9795H732.587C734.813 71.9795 736.615 70.1777 736.615 67.9512V41.2178H739.472C740.482 41.2178 741.303 42.0381 741.303 43.0488V78.2051Z" fill="#004357"/>
<path d="M683.385 85.2051C683.385 87.4316 685.187 89.2334 687.413 89.2334H747.472C749.698 89.2334 751.5 87.4316 751.5 85.2051V50.0488C751.5 47.8223 749.698 46.0205 747.472 46.0205H743.5V48.2178H747.472C748.482 48.2178 749.303 49.0381 749.303 50.0488V85.2051C749.303 86.2158 748.482 87.0361 747.472 87.0361H687.413C686.402 87.0361 685.582 86.2158 685.582 85.2051V82.2334H683.385V85.2051Z" fill="#004357"/>
<path d="M730.39 40.4854H728.925C727.108 40.4854 725.629 39.0059 725.629 37.1895V35.7246C725.629 35.124 725.131 34.626 724.53 34.626C723.93 34.626 723.432 35.124 723.432 35.7246V37.1895C723.432 40.2217 725.893 42.6826 728.925 42.6826H730.39C730.99 42.6826 731.488 42.1846 731.488 41.584C731.488 40.9834 730.99 40.4854 730.39 40.4854Z" fill="#004357"/>
<path d="M730.39 58.0635H728.925C725.893 58.0635 723.432 60.5244 723.432 63.5566V65.0215C723.432 65.6221 723.93 66.1201 724.53 66.1201C725.131 66.1201 725.629 65.6221 725.629 65.0215V63.5566C725.629 61.7402 727.108 60.2607 728.925 60.2607H730.39C730.99 60.2607 731.488 59.7627 731.488 59.1621C731.488 58.5615 730.99 58.0635 730.39 58.0635Z" fill="#004357"/>
<path d="M680.585 34.626C679.984 34.626 679.486 35.124 679.486 35.7246V37.1895C679.486 39.0059 678.007 40.4854 676.19 40.4854H674.726C674.125 40.4854 673.627 40.9834 673.627 41.584C673.627 42.1846 674.125 42.6826 674.726 42.6826H676.19C679.223 42.6826 681.684 40.2217 681.684 37.1895V35.7246C681.684 35.124 681.186 34.626 680.585 34.626Z" fill="#004357"/>
<path d="M676.19 58.0635H674.726C674.125 58.0635 673.627 58.5615 673.627 59.1621C673.627 59.7627 674.125 60.2607 674.726 60.2607H676.19C678.007 60.2607 679.486 61.7402 679.486 63.5566V65.0215C679.486 65.6221 679.984 66.1201 680.585 66.1201C681.186 66.1201 681.684 65.6221 681.684 65.0215V63.5566C681.684 60.5244 679.223 58.0635 676.19 58.0635Z" fill="#004357"/>
<path d="M723.139 74.9092H719.477C718.876 74.9092 718.378 75.4072 718.378 76.0078C718.378 76.6084 718.876 77.1064 719.477 77.1064H723.139C723.739 77.1064 724.237 76.6084 724.237 76.0078C724.237 75.4072 723.739 74.9092 723.139 74.9092Z" fill="#004357"/>
<path d="M710.761 74.9092H707.099C706.498 74.9092 706 75.4072 706 76.0078C706 76.6084 706.498 77.1064 707.099 77.1064H710.761C711.361 77.1064 711.859 76.6084 711.859 76.0078C711.859 75.4072 711.361 74.9092 710.761 74.9092Z" fill="#004357"/>
<path d="M698.383 74.9092H694.721C694.12 74.9092 693.622 75.4072 693.622 76.0078C693.622 76.6084 694.12 77.1064 694.721 77.1064H698.383C698.983 77.1064 699.481 76.6084 699.481 76.0078C699.481 75.4072 698.983 74.9092 698.383 74.9092Z" fill="#004357"/>
<path d="M686.005 74.9092H682.343C681.742 74.9092 681.244 75.4072 681.244 76.0078C681.244 76.6084 681.742 77.1064 682.343 77.1064H686.005C686.605 77.1064 687.104 76.6084 687.104 76.0078C687.104 75.4072 686.605 74.9092 686.005 74.9092Z" fill="#004357"/>
<path d="M735.517 74.9092H731.854C731.254 74.9092 730.756 75.4072 730.756 76.0078C730.756 76.6084 731.254 77.1064 731.854 77.1064H735.517C736.117 77.1064 736.615 76.6084 736.615 76.0078C736.615 75.4072 736.117 74.9092 735.517 74.9092Z" fill="#004357"/>
<path d="M702.558 36.0908C694.677 36.0908 688.275 42.4922 688.275 50.373C688.275 58.2539 694.677 64.6553 702.558 64.6553C710.438 64.6553 716.84 58.2539 716.84 50.373C716.84 42.4922 710.438 36.0908 702.558 36.0908ZM705.341 56.584V58.4297C705.341 59.0303 704.843 59.5283 704.242 59.5283C703.642 59.5283 703.144 59.0303 703.144 58.4297V56.8477H701.986V58.4297C701.986 59.0303 701.488 59.5283 700.888 59.5283C700.287 59.5283 699.789 59.0303 699.789 58.4297V56.8477H699.35C698.749 56.8477 698.251 56.3496 698.251 55.749C698.251 55.1484 698.749 54.6504 699.35 54.6504H703.993C704.828 54.6504 705.502 53.9326 705.502 53.0684C705.502 52.2041 704.828 51.4863 703.993 51.4863H701.137C699.101 51.4863 697.431 49.7871 697.431 47.707C697.431 46.1104 698.412 44.7334 699.774 44.1914V42.3164C699.774 41.7158 700.272 41.2178 700.873 41.2178C701.474 41.2178 701.972 41.7158 701.972 42.3164V43.8984H703.129V42.3164C703.129 41.7158 703.627 41.2178 704.228 41.2178C704.828 41.2178 705.326 41.7158 705.326 42.3164V43.8984H705.766C706.366 43.8984 706.864 44.3965 706.864 44.9971C706.864 45.5977 706.366 46.0957 705.766 46.0957H701.122C700.287 46.0957 699.613 46.8135 699.613 47.6777C699.613 48.5566 700.287 49.2598 701.122 49.2598H703.979C706.015 49.2598 707.685 50.959 707.685 53.0391C707.685 54.6504 706.703 56.0273 705.341 56.584Z" fill="#087084"/>
<path d="M810.172 26.4307C810.172 15.131 800.974 5.93237 789.674 5.93237C778.374 5.93237 769.176 15.131 769.176 26.4307C769.176 37.7303 778.374 46.929 789.674 46.929C800.974 46.929 810.172 37.7303 810.172 26.4307Z" fill="#087084"/>
<path d="M799.288 21.7131L787.801 33.3916C787.504 33.6889 787.1 33.8588 786.675 33.8588C786.251 33.8588 785.847 33.6889 785.55 33.3916L780.051 27.8072C779.435 27.1702 779.435 26.1722 780.072 25.5564C780.709 24.9407 781.707 24.9407 782.323 25.5777L786.675 30.0155L797.037 19.4836C797.653 18.8466 798.672 18.8466 799.288 19.4624C799.904 20.0782 799.925 21.0974 799.288 21.7131Z" fill="#F3F4F6"/>
</g>
<defs>
<clipPath id="clip0_6222_77355">
<rect width="75" height="75" fill="white" transform="translate(750 66.5)"/>
</clipPath>
</defs>
</svg>
