<svg width="321" height="456" viewBox="0 0 321 456" fill="none" xmlns="http://www.w3.org/2000/svg">
<path d="M48.3021 438.311L25.9337 438.311C22.6156 438.311 19.9258 435.621 19.9258 432.303V432.303" stroke="#BED73C" stroke-width="1.55053" stroke-linecap="round" stroke-linejoin="round" stroke-dasharray="3.1 3.1"/>
<path d="M18.96 52.2114L18.96 21.6054C18.96 18.2874 21.6498 15.5975 24.9679 15.5975V15.5975" stroke="#BED73C" stroke-width="1.55053" stroke-linecap="round" stroke-linejoin="round" stroke-dasharray="3.1 3.1"/>
<path d="M246.469 25.831V18.211C246.469 14.7857 243.692 12.0089 240.267 12.0089H238.852" stroke="#BED73C" stroke-width="1.55053" stroke-linecap="round" stroke-linejoin="round" stroke-dasharray="3.1 3.1"/>
<g opacity="0.3">
<path d="M40.1136 17.9452L37.6889 15.5205L36.8633 16.3404L40.1136 19.5907L47.091 12.6133L46.2711 11.7935L40.1136 17.9452Z" fill="white"/>
<path d="M76.9554 44.7848L74.5307 42.3601L73.7051 43.18L76.9554 46.4303L83.9328 39.4529L83.1129 38.6331L76.9554 44.7848Z" fill="white"/>
</g>
<path d="M61.8279 438.575C61.1883 438.575 60.665 439.098 60.665 439.738C60.665 440.378 61.1883 440.901 61.8279 440.901C62.4675 440.901 62.9908 440.378 62.9908 439.738C62.9908 439.098 62.4675 438.575 61.8279 438.575ZM68.8053 438.575C68.1657 438.575 67.6424 439.098 67.6424 439.738C67.6424 440.378 68.1657 440.901 68.8053 440.901C69.4449 440.901 69.9682 440.378 69.9682 439.738C69.9682 439.098 69.4449 438.575 68.8053 438.575ZM65.3166 438.575C64.677 438.575 64.1537 439.098 64.1537 439.738C64.1537 440.378 64.677 440.901 65.3166 440.901C65.9562 440.901 66.4795 440.378 66.4795 439.738C66.4795 439.098 65.9562 438.575 65.3166 438.575Z" fill="#3C3E3E"/>
<path d="M15.202 70.0498C14.5624 70.0498 14.0391 70.5731 14.0391 71.2127C14.0391 71.8523 14.5624 72.3756 15.202 72.3756C15.8416 72.3756 16.3649 71.8523 16.3649 71.2127C16.3649 70.5731 15.8416 70.0498 15.202 70.0498ZM22.1793 70.0498C21.5397 70.0498 21.0164 70.5731 21.0164 71.2127C21.0164 71.8523 21.5397 72.3756 22.1793 72.3756C22.8189 72.3756 23.3422 71.8523 23.3422 71.2127C23.3422 70.5731 22.8189 70.0498 22.1793 70.0498ZM18.6906 70.0498C18.0511 70.0498 17.5278 70.5731 17.5278 71.2127C17.5278 71.8523 18.0511 72.3756 18.6906 72.3756C19.3302 72.3756 19.8535 71.8523 19.8535 71.2127C19.8535 70.5731 19.3302 70.0498 18.6906 70.0498Z" fill="white"/>
<g clip-path="url(#clip0_6286_135026)">
<path d="M96.1799 131.488C97.1187 131.488 97.8834 130.723 97.8834 129.784V126.756C97.8834 125.817 97.1187 125.052 96.1799 125.052H90.7289C89.7901 125.052 89.0254 125.817 89.0254 126.756V129.784C89.0254 130.723 89.7901 131.488 90.7289 131.488H96.1799ZM90.7289 126.188H96.1799C96.4903 126.188 96.7478 126.445 96.7478 126.756V127.702H90.161V126.756C90.161 126.445 90.4184 126.188 90.7289 126.188ZM90.161 129.784V128.838H96.7478V129.784C96.7478 130.095 96.4903 130.352 96.1799 130.352H90.7289C90.4184 130.352 90.161 130.095 90.161 129.784Z" fill="#004357"/>
<path d="M102.615 135.652H100.912V123.16H102.615C102.82 123.16 103.009 123.046 103.107 122.872C103.206 122.69 103.206 122.478 103.1 122.296L100.829 118.511C100.723 118.337 100.541 118.238 100.344 118.238H90.7289C90.4185 118.238 90.1611 118.496 90.1611 118.806C90.1611 119.117 90.4185 119.374 90.7289 119.374H100.026L101.616 122.024H88.8362C88.5258 122.024 88.2684 122.281 88.2684 122.592C88.2684 122.902 88.5258 123.16 88.8362 123.16H99.7762V135.652H91.6753V134.327C91.6753 133.388 90.9107 132.623 89.9719 132.623H83.158C82.2192 132.623 81.4545 133.388 81.4545 134.327V135.652H64.9877C64.6773 135.652 64.4199 135.909 64.4199 136.219V138.491C64.4199 138.801 64.6773 139.058 64.9877 139.058H102.615C102.926 139.058 103.183 138.801 103.183 138.491V136.219C103.183 135.909 102.926 135.652 102.615 135.652ZM82.5902 134.327C82.5902 134.016 82.8476 133.759 83.158 133.759H89.9719C90.2823 133.759 90.5397 134.016 90.5397 134.327V135.652H82.5902V134.327ZM102.048 137.923H65.5556V136.787H102.048V137.923Z" fill="#004357"/>
<path d="M88.7075 117.156L76.9725 111.478C76.8136 111.402 76.6319 111.402 76.4804 111.478L64.7455 117.156C64.5411 117.254 64.4199 117.451 64.4199 117.671V119.208L76.4729 113.378C76.6319 113.302 76.8136 113.302 76.965 113.378L89.0179 119.208V117.671C89.0255 117.451 88.9043 117.254 88.7075 117.156Z" fill="#BED73C"/>
<path d="M81.4549 121.267H79.7514C79.441 121.267 79.1836 121.524 79.1836 121.835V126.188H81.4549V121.267Z" fill="#BED73C"/>
<path d="M66.3125 119.556V134.516H68.5838V126.377C68.5838 125.438 69.3484 124.674 70.2872 124.674H74.0727C75.0115 124.674 75.7762 125.438 75.7762 126.377V134.516H80.3187V133.948C80.3187 132.593 81.4241 131.488 82.7793 131.488H87.1326V119.556L76.7225 114.521L66.3125 119.556ZM78.0475 121.835C78.0475 120.896 78.8121 120.131 79.7509 120.131H84.2935C85.2323 120.131 85.997 120.896 85.997 121.835V127.891C85.997 128.83 85.2323 129.595 84.2935 129.595H79.7509C78.8121 129.595 78.0475 128.83 78.0475 127.891V121.835Z" fill="#BED73C"/>
<path d="M84.8611 121.835C84.8611 121.524 84.6037 121.267 84.2933 121.267H82.5898V126.188H84.8611V121.835Z" fill="#BED73C"/>
<path d="M79.7514 128.459H84.294C84.6044 128.459 84.8618 128.202 84.8618 127.891V127.323H79.1836V127.891C79.1836 128.202 79.441 128.459 79.7514 128.459Z" fill="#BED73C"/>
<path d="M74.073 125.809H70.2875C69.9771 125.809 69.7197 126.067 69.7197 126.377V134.516H74.6408V126.377C74.6408 126.067 74.3834 125.809 74.073 125.809ZM73.8837 130.92C73.8837 131.23 73.6263 131.488 73.3159 131.488C73.0055 131.488 72.7481 131.23 72.7481 130.92V129.406C72.7481 129.095 73.0055 128.838 73.3159 128.838C73.6263 128.838 73.8837 129.095 73.8837 129.406V130.92Z" fill="#BED73C"/>
</g>
<path d="M251.787 118.319V118.59H252.058H253.875C254.177 118.59 254.407 118.69 254.562 118.844C254.716 118.998 254.815 119.229 254.815 119.53V123.164C254.815 123.466 254.716 123.696 254.562 123.851C254.407 124.005 254.177 124.104 253.875 124.104H251.937H251.839L251.763 124.167L245.222 129.618L245.124 129.7V129.827V137.701C245.124 138.002 245.025 138.233 244.871 138.387C244.717 138.541 244.486 138.641 244.184 138.641H229.648C229.347 138.641 229.116 138.541 228.962 138.387C228.808 138.233 228.708 138.002 228.708 137.701V129.827V129.7L228.611 129.618L222.069 124.167L221.994 124.104H221.896H219.957C219.656 124.104 219.425 124.005 219.271 123.851C219.117 123.696 219.017 123.466 219.017 123.164V119.53C219.017 119.229 219.117 118.998 219.271 118.844C219.425 118.69 219.656 118.59 219.957 118.59H221.774H222.046V118.319V117.108C222.046 116.806 222.145 116.575 222.299 116.421C222.454 116.267 222.684 116.168 222.986 116.168C223.288 116.168 223.518 116.267 223.672 116.421C223.826 116.575 223.926 116.806 223.926 117.108V118.319V118.59H224.197H225.409H225.68V118.319V117.108C225.68 116.806 225.779 116.575 225.934 116.421C226.088 116.267 226.318 116.168 226.62 116.168C226.922 116.168 227.152 116.267 227.306 116.421C227.46 116.575 227.56 116.806 227.56 117.108V118.319V118.59H227.831H230.254C230.556 118.59 230.786 118.69 230.94 118.844C231.095 118.998 231.194 119.229 231.194 119.53C231.194 119.832 231.095 120.062 230.94 120.217C230.786 120.371 230.556 120.47 230.254 120.47H221.169H220.897V120.742V121.953V122.224H221.169H230.254C230.556 122.224 230.786 122.324 230.94 122.478C231.095 122.632 231.194 122.863 231.194 123.164C231.194 123.466 231.095 123.696 230.94 123.851C230.786 124.005 230.556 124.104 230.254 124.104H225.772H225.022L225.598 124.584L229.959 128.218L230.035 128.281H230.133H243.7H243.798L243.874 128.218L248.234 124.584L248.81 124.104H248.061H243.579C243.277 124.104 243.047 124.005 242.892 123.851C242.738 123.696 242.639 123.466 242.639 123.164C242.639 122.863 242.738 122.632 242.892 122.478C243.047 122.324 243.277 122.224 243.579 122.224H252.664H252.935V121.953V120.742V120.47H252.664H243.579C243.277 120.47 243.047 120.371 242.892 120.217C242.738 120.062 242.639 119.832 242.639 119.53C242.639 119.229 242.738 118.998 242.892 118.844C243.047 118.69 243.277 118.59 243.579 118.59H246.001H246.273V118.319V117.108C246.273 116.806 246.372 116.575 246.526 116.421C246.681 116.267 246.911 116.168 247.213 116.168C247.515 116.168 247.745 116.267 247.899 116.421C248.053 116.575 248.153 116.806 248.153 117.108V118.319V118.59H248.424H249.636H249.907V118.319V117.108C249.907 116.806 250.006 116.575 250.161 116.421C250.315 116.267 250.545 116.168 250.847 116.168C251.149 116.168 251.379 116.267 251.533 116.421C251.688 116.575 251.787 116.806 251.787 117.108V118.319ZM242.973 136.761H243.244V136.489V130.432V130.161H242.973H230.86H230.588V130.432V136.489V136.761H230.86H242.973Z" fill="#004357" stroke="white" stroke-width="0.542685"/>
<path d="M233.525 134.672H234.131C234.857 134.672 235.342 134.188 235.342 133.461C235.342 132.734 234.857 132.25 234.131 132.25H233.525C232.798 132.25 232.313 132.734 232.313 133.461C232.313 134.188 232.919 134.672 233.525 134.672Z" fill="#004357"/>
<path d="M239.581 134.672H240.187C240.914 134.672 241.398 134.188 241.398 133.461C241.398 132.734 240.914 132.25 240.187 132.25H239.581C238.855 132.25 238.37 132.734 238.37 133.461C238.37 134.188 238.976 134.672 239.581 134.672Z" fill="#004357"/>
<path d="M240.551 102.572H233.283C232.556 102.572 232.071 103.056 232.071 103.783C232.071 104.51 232.556 104.994 233.283 104.994H234.494V125.587H239.339V104.994H240.551C241.278 104.994 241.762 104.51 241.762 103.783C241.762 103.056 241.278 102.572 240.551 102.572Z" fill="#BED73C"/>
<path d="M250.847 107.417H249.635V106.206C249.635 105.479 249.151 104.994 248.424 104.994C247.697 104.994 247.213 105.479 247.213 106.206V107.417H246.001V106.206C246.001 105.479 245.517 104.994 244.79 104.994C244.063 104.994 243.579 105.479 243.579 106.206V107.417H241.762V112.262H250.847C251.574 112.262 252.058 111.778 252.058 111.051V108.628C252.058 107.902 251.574 107.417 250.847 107.417Z" fill="#BED73C"/>
<path d="M229.043 104.994C228.316 104.994 227.831 105.479 227.831 106.206V107.417H226.62V106.206C226.62 105.479 226.135 104.994 225.408 104.994C224.682 104.994 224.197 105.479 224.197 106.206V107.417H222.986C222.259 107.417 221.774 107.902 221.774 108.628V111.051C221.774 111.778 222.259 112.262 222.986 112.262H232.071V107.417H230.254V106.206C230.254 105.479 229.769 104.994 229.043 104.994Z" fill="#BED73C"/>
<g clip-path="url(#clip1_6286_135026)">
<path d="M101.093 235.23H99.2684L100.964 227.894C101.108 227.281 100.964 226.652 100.571 226.16C100.184 225.668 99.6015 225.388 98.9731 225.388C98.0192 225.388 97.1939 226.039 96.9819 226.97L95.0741 235.23H71.377L69.4691 226.97C69.2572 226.039 68.4319 225.388 67.478 225.388C66.8496 225.388 66.2666 225.668 65.8805 226.16C65.4868 226.652 65.3505 227.281 65.4868 227.894L67.1827 235.23H65.7367C64.7979 235.23 64.0332 235.995 64.0332 236.934V238.826C64.0332 239.137 64.2906 239.394 64.601 239.394H65.5171L67.2887 250.016C67.5764 251.758 69.0679 253.022 70.8395 253.022H95.9902C97.7542 253.022 99.2457 251.758 99.5409 250.016L101.313 239.394H102.229C102.539 239.394 102.796 239.137 102.796 238.826V236.934C102.796 235.995 102.032 235.23 101.093 235.23ZM98.0873 227.228C98.1857 226.811 98.5491 226.524 98.9731 226.524C99.2532 226.524 99.5106 226.645 99.6848 226.864C99.8589 227.084 99.9195 227.364 99.8589 227.637L98.1024 235.23H96.24L98.0873 227.228ZM66.5922 227.637C66.5316 227.364 66.5922 227.084 66.7663 226.864C66.9404 226.645 67.1979 226.524 67.478 226.524C67.902 226.524 68.2654 226.811 68.3638 227.228L70.2111 235.23H68.3486L66.5922 227.637ZM98.4204 249.827C98.2236 251.016 97.2015 251.886 95.9902 251.886H70.8395C69.6281 251.886 68.6136 251.023 68.4092 249.827L66.6679 239.394H100.154L98.4204 249.827ZM101.661 238.259H65.1688V236.934C65.1688 236.623 65.4263 236.366 65.7367 236.366H101.093C101.403 236.366 101.661 236.623 101.661 236.934V238.259Z" fill="#004357"/>
<path d="M83.3993 250.372H83.4371C84.3683 250.372 85.1254 249.615 85.1254 248.684V242.589C85.1254 241.658 84.3683 240.901 83.4371 240.901H83.3993C82.468 240.901 81.7109 241.658 81.7109 242.589V248.684C81.7109 249.615 82.468 250.372 83.3993 250.372ZM82.8466 242.597C82.8466 242.294 83.0964 242.044 83.3993 242.044H83.4371C83.7399 242.044 83.9898 242.294 83.9898 242.597V248.691C83.9898 248.994 83.7399 249.244 83.4371 249.244H83.3993C83.0964 249.244 82.8466 248.994 82.8466 248.691V242.597Z" fill="#004357"/>
<path d="M73.9814 248.987C74.1253 249.789 74.8218 250.372 75.6395 250.372C76.1391 250.372 76.6085 250.153 76.9341 249.766C77.2596 249.38 77.3883 248.881 77.2975 248.389L76.1921 242.294C76.0483 241.491 75.3518 240.908 74.5341 240.908C74.0344 240.908 73.565 241.128 73.2395 241.514C72.9139 241.9 72.7852 242.4 72.8761 242.892L73.9814 248.987ZM74.1101 242.241C74.1707 242.165 74.307 242.044 74.5341 242.044C74.7991 242.044 75.0262 242.233 75.0716 242.498L76.177 248.593C76.2148 248.813 76.1164 248.972 76.0559 249.04C75.9953 249.115 75.859 249.236 75.6319 249.236C75.3669 249.236 75.1398 249.047 75.0943 248.782L73.989 242.688C73.9511 242.468 74.0496 242.317 74.1101 242.241Z" fill="#004357"/>
<path d="M91.1906 250.372C92.0082 250.372 92.7047 249.789 92.8486 248.987L93.9539 242.892C94.0448 242.4 93.9085 241.893 93.5905 241.514C93.2726 241.136 92.7956 240.908 92.2959 240.908C91.4782 240.908 90.7817 241.491 90.6379 242.294L89.5325 248.389C89.4417 248.881 89.5779 249.388 89.8959 249.766C90.2139 250.145 90.6909 250.372 91.1906 250.372ZM90.6454 248.585L91.7508 242.491C91.7962 242.226 92.0234 242.037 92.2883 242.037C92.5155 242.037 92.6517 242.158 92.7123 242.233C92.7729 242.309 92.8713 242.46 92.8334 242.68L91.7281 248.775C91.6827 249.04 91.4555 249.229 91.1906 249.229C90.9634 249.229 90.8271 249.108 90.7666 249.032C90.706 248.964 90.6076 248.813 90.6454 248.585Z" fill="#004357"/>
<path d="M82.9829 229.219C81.8851 226.751 80.3709 225.388 78.7128 225.388C77.0548 225.388 75.5406 226.751 74.4428 229.219C73.822 230.612 73.3678 232.278 73.1104 234.095H84.3153C84.0579 232.278 83.6037 230.612 82.9829 229.219ZM77.6151 229.757H79.8863C80.1968 229.757 80.4542 230.014 80.4542 230.325C80.4542 230.635 80.1968 230.892 79.8863 230.892H77.6151C77.3047 230.892 77.0472 230.635 77.0472 230.325C77.0472 230.014 77.2971 229.757 77.6151 229.757ZM80.6434 233.921H76.858C76.5476 233.921 76.2901 233.663 76.2901 233.353C76.2901 233.043 76.5476 232.785 76.858 232.785H80.6434C80.9538 232.785 81.2113 233.043 81.2113 233.353C81.2113 233.663 80.9538 233.921 80.6434 233.921Z" fill="#BED73C"/>
<path d="M86.5793 233.519C86.2841 233.413 86.1326 233.088 86.2386 232.793C86.3446 232.497 86.6702 232.346 86.9654 232.452L90.5238 233.747C90.6903 233.807 90.8115 233.936 90.8645 234.095H93.8701C93.9761 233.08 94.0064 232.104 93.9458 231.203C93.7566 228.507 92.8026 226.706 91.243 226.145C89.691 225.577 87.8058 226.335 85.9282 228.28C85.4361 228.788 84.9667 229.363 84.5049 229.991C84.9364 231.233 85.262 232.618 85.4588 234.095H88.1541L86.5793 233.519ZM87.9875 230.203C88.0935 229.908 88.4191 229.757 88.7143 229.863L90.8493 230.642C91.1446 230.748 91.296 231.074 91.19 231.369C91.1067 231.596 90.8872 231.74 90.6601 231.74C90.5919 231.74 90.5314 231.733 90.4632 231.702L88.3282 230.923C88.0329 230.824 87.8815 230.499 87.9875 230.203Z" fill="#BED73C"/>
</g>
<g clip-path="url(#clip2_6286_135026)">
<path d="M255.343 247.651H254.51V244.434C254.51 242.867 253.238 241.595 251.671 241.595H246.901L244.865 237.529C244.251 236.303 243.017 235.538 241.647 235.538H226.202C224.552 235.538 223.113 236.658 222.712 238.263L221.879 241.595H221.387C219.82 241.595 218.548 242.867 218.548 244.434V247.651H217.715C217.405 247.651 217.147 247.909 217.147 248.219V250.49C217.147 250.801 217.405 251.058 217.715 251.058H221.622C221.894 252.769 223.386 254.087 225.173 254.087C226.959 254.087 228.451 252.769 228.723 251.058H243.464C243.737 252.769 245.228 254.087 247.015 254.087C248.802 254.087 250.293 252.769 250.566 251.058H255.343C255.653 251.058 255.911 250.801 255.911 250.49V248.219C255.911 247.909 255.653 247.651 255.343 247.651ZM250.725 247.651V246.705C250.725 246.183 251.149 245.759 251.671 245.759H253.374V247.651H250.725ZM253.374 244.434V244.623H251.671C250.52 244.623 249.589 245.554 249.589 246.705V247.651H237.097V242.73H251.671C252.61 242.73 253.374 243.495 253.374 244.434ZM235.961 242.73V247.651H225.74V242.73H235.961ZM228.648 241.595V236.673H235.961V241.595H228.648ZM243.85 238.036L245.629 241.595H237.097V236.673H241.647C242.586 236.673 243.426 237.196 243.85 238.036ZM223.81 238.536C224.082 237.438 225.067 236.673 226.195 236.673H227.505V241.595H223.045L223.81 238.536ZM219.684 244.434C219.684 243.495 220.448 242.73 221.387 242.73H224.605V247.651H219.684V244.434ZM225.173 252.951C224.014 252.951 223.038 252.141 222.78 251.058H227.565C227.308 252.141 226.331 252.951 225.173 252.951ZM247.015 252.951C245.856 252.951 244.88 252.141 244.622 251.058H249.407C249.15 252.141 248.173 252.951 247.015 252.951ZM254.775 249.923H218.283V248.787H254.775V249.923Z" fill="#004357"/>
<path d="M238.8 246.137C239.111 246.137 239.368 245.88 239.368 245.569V244.812C239.368 244.502 239.111 244.244 238.8 244.244C238.49 244.244 238.232 244.502 238.232 244.812V245.569C238.232 245.88 238.49 246.137 238.8 246.137Z" fill="#004357"/>
<path d="M234.258 246.137C234.569 246.137 234.826 245.88 234.826 245.569V244.812C234.826 244.502 234.569 244.244 234.258 244.244C233.948 244.244 233.69 244.502 233.69 244.812V245.569C233.69 245.88 233.948 246.137 234.258 246.137Z" fill="#004357"/>
<path d="M248.46 224.947C248.241 225.166 247.877 225.166 247.658 224.947L246.552 223.842L245.992 224.402L247.779 226.189C247.855 226.264 247.953 226.302 248.059 226.302C248.165 226.302 248.263 226.264 248.339 226.189L251.595 222.933L251.034 222.373L248.46 224.947Z" fill="#BED73C"/>
<path d="M255.547 217.929L249.006 215.362C248.869 215.309 248.726 215.309 248.589 215.362L242.048 217.929C241.828 218.012 241.685 218.224 241.685 218.459V222.948C241.685 225.144 242.336 227.264 243.577 229.073C244.811 230.89 246.545 232.268 248.589 233.071C248.657 233.094 248.726 233.109 248.794 233.109C248.862 233.109 248.938 233.094 248.998 233.071C251.042 232.268 252.776 230.89 254.01 229.073C255.244 227.256 255.903 225.144 255.903 222.948V218.459C255.91 218.224 255.767 218.02 255.547 217.929ZM252.806 223.335L249.15 226.991C248.862 227.279 248.476 227.438 248.067 227.438C247.658 227.438 247.272 227.279 246.984 226.991L244.796 224.803C244.69 224.697 244.63 224.554 244.63 224.402C244.63 224.251 244.69 224.107 244.796 224.001L246.159 222.638C246.379 222.418 246.742 222.418 246.962 222.638L248.067 223.743L250.641 221.169C250.861 220.95 251.224 220.95 251.444 221.169L252.806 222.532C252.912 222.638 252.973 222.782 252.973 222.933C252.973 223.085 252.912 223.229 252.806 223.335Z" fill="#BED73C"/>
</g>
<g clip-path="url(#clip3_6286_135026)">
<path d="M83.8023 333.787C76.186 333.787 69.9854 339.988 69.9854 347.604V351.011C69.9854 351.322 70.2428 351.579 70.5532 351.579H70.6213C70.7273 351.579 70.8333 351.549 70.9241 351.488L71.4768 351.14C72.726 350.353 74.3235 350.466 75.444 351.42L75.4667 351.443C75.5727 351.534 75.7014 351.579 75.8377 351.579H75.9513C76.0648 351.579 76.1784 351.541 76.2692 351.481L76.4509 351.352C77.6547 350.534 79.237 350.572 80.3878 351.458C80.4862 351.534 80.6074 351.571 80.7361 351.571H80.8572C80.9632 351.571 81.0768 351.541 81.1676 351.481L81.9702 350.958C82.008 350.936 82.0459 350.913 82.0837 350.89V356.576C82.0837 356.886 82.3411 357.144 82.6515 357.144C82.9619 357.144 83.2194 356.886 83.2194 356.576V350.474C83.5979 350.413 83.9765 350.413 84.355 350.474V356.576C84.355 356.886 84.6124 357.144 84.9228 357.144C85.2332 357.144 85.4906 356.886 85.4906 356.576V350.898C85.5285 350.92 85.5664 350.943 85.6042 350.966L86.4067 351.488C86.4976 351.549 86.6036 351.579 86.7171 351.579H86.8383C86.9594 351.579 87.0881 351.541 87.1865 351.466C88.3449 350.58 89.9272 350.534 91.1234 351.36L91.3051 351.488C91.396 351.556 91.5095 351.587 91.6231 351.587H91.7367C91.8729 351.587 92.0017 351.541 92.1076 351.45L92.1304 351.428C93.2584 350.474 94.8483 350.36 96.0975 351.148L96.6502 351.496C96.7411 351.556 96.8471 351.587 96.9531 351.587H97.0212C97.3316 351.587 97.589 351.329 97.589 351.019V347.612C97.6193 339.988 91.4187 333.787 83.8023 333.787ZM71.121 350.035V347.604C71.121 343.357 73.2181 339.594 76.4282 337.293C75.5651 342.078 75.3456 347.68 75.2926 349.966C73.9904 349.308 72.4308 349.315 71.121 350.035ZM76.4207 350.072C76.4736 347.718 76.7083 341.426 77.7456 336.467C78.7752 335.907 79.8881 335.483 81.0616 335.226C79.7594 340.003 79.979 347.271 80.1153 349.997C78.9342 349.489 77.5941 349.512 76.4207 350.072ZM83.8023 349.3C82.9544 349.3 82.1064 349.535 81.3645 350.012L81.2585 350.08C81.1222 347.453 80.8648 339.609 82.3033 335.006C82.7954 334.946 83.2951 334.915 83.8023 334.915C84.3096 334.915 84.8093 334.946 85.3014 335.006C86.7323 339.609 86.4824 347.453 86.3462 350.08L86.2402 350.012C85.4982 349.535 84.6503 349.3 83.8023 349.3ZM87.4894 349.989C87.6332 347.271 87.8528 340.003 86.543 335.218C87.7165 335.476 88.8294 335.9 89.8591 336.46C90.8887 341.419 91.1234 347.71 91.184 350.065C90.0105 349.512 88.6704 349.489 87.4894 349.989ZM96.4837 350.035C95.1739 349.315 93.6143 349.308 92.3121 349.966C92.2591 347.688 92.0395 342.085 91.1764 337.293C94.3865 339.594 96.4837 343.357 96.4837 347.604V350.035Z" fill="#004357"/>
<path d="M90.4878 359.331C89.5414 358.332 88.2846 357.787 86.937 357.787C85.7787 357.787 84.6884 358.196 83.8026 358.945C82.9168 358.196 81.8191 357.787 80.6683 357.787C79.3282 357.787 78.0639 358.339 77.1175 359.331C75.6942 360.838 75.3156 363.033 75.997 364.903H79.0708L80.4941 362.768C80.6077 362.602 80.797 362.503 81.0014 362.519C81.2058 362.534 81.3875 362.655 81.4708 362.837L83.2272 366.372L85.12 361.11C85.1957 360.898 85.4001 360.747 85.6272 360.739C85.8544 360.732 86.0664 360.853 86.1648 361.057L88.0197 364.903H91.6083C92.2821 363.033 91.9111 360.838 90.4878 359.331Z" fill="#BED73C"/>
<path d="M87.1489 365.721L85.7331 362.776L83.8479 368.008C83.7722 368.22 83.5754 368.371 83.3483 368.378C83.3407 368.378 83.3255 368.378 83.318 368.378C83.106 368.378 82.9091 368.257 82.8107 368.061L80.8877 364.222L79.8429 365.789C79.7369 365.948 79.5628 366.039 79.3735 366.039H76.5723C76.7313 366.281 76.913 366.508 77.1174 366.728L81.8189 371.687C82.3489 372.24 83.0454 372.55 83.8025 372.55C84.5596 372.55 85.2561 372.247 85.7861 371.687L90.4877 366.728C90.6921 366.508 90.8738 366.281 91.0328 366.039H87.6637C87.4441 366.039 87.2473 365.918 87.1489 365.721Z" fill="#BED73C"/>
</g>
<g clip-path="url(#clip4_6286_135026)">
<path d="M253.83 340.152H252.353V336.935C252.353 335.784 251.422 334.853 250.271 334.853H219.23C218.08 334.853 217.148 335.784 217.148 336.935V355.105C217.148 356.256 218.08 357.187 219.23 357.187H220.707V360.404C220.707 361.555 221.638 362.486 222.789 362.486H253.83C254.98 362.486 255.912 361.555 255.912 360.404V342.234C255.912 341.083 254.98 340.152 253.83 340.152ZM218.284 355.105V336.935C218.284 336.412 218.708 335.988 219.23 335.988H250.271C250.794 335.988 251.218 336.412 251.218 336.935V355.105C251.218 355.627 250.794 356.051 250.271 356.051H219.23C218.708 356.051 218.284 355.627 218.284 355.105ZM254.776 360.404C254.776 360.927 254.352 361.351 253.83 361.351H222.789C222.266 361.351 221.842 360.927 221.842 360.404V357.187H250.271C251.422 357.187 252.353 356.256 252.353 355.105V341.288H253.83C254.352 341.288 254.776 341.712 254.776 342.234V360.404Z" fill="#004357"/>
<path d="M249.135 340.909H248.378C247.439 340.909 246.675 340.144 246.675 339.206V338.449C246.675 338.138 246.417 337.881 246.107 337.881C245.796 337.881 245.539 338.138 245.539 338.449V339.206C245.539 340.773 246.811 342.045 248.378 342.045H249.135C249.446 342.045 249.703 341.787 249.703 341.477C249.703 341.167 249.446 340.909 249.135 340.909Z" fill="#004357"/>
<path d="M249.135 349.994H248.378C246.811 349.994 245.539 351.266 245.539 352.833V353.59C245.539 353.901 245.796 354.158 246.107 354.158C246.417 354.158 246.675 353.901 246.675 353.59V352.833C246.675 351.895 247.439 351.13 248.378 351.13H249.135C249.446 351.13 249.703 350.872 249.703 350.562C249.703 350.252 249.446 349.994 249.135 349.994Z" fill="#004357"/>
<path d="M223.394 337.881C223.084 337.881 222.826 338.138 222.826 338.449V339.206C222.826 340.144 222.062 340.909 221.123 340.909H220.366C220.055 340.909 219.798 341.167 219.798 341.477C219.798 341.787 220.055 342.045 220.366 342.045H221.123C222.69 342.045 223.962 340.773 223.962 339.206V338.449C223.962 338.138 223.704 337.881 223.394 337.881Z" fill="#004357"/>
<path d="M221.123 349.994H220.366C220.055 349.994 219.798 350.252 219.798 350.562C219.798 350.872 220.055 351.13 220.366 351.13H221.123C222.062 351.13 222.826 351.895 222.826 352.833V353.59C222.826 353.901 223.084 354.158 223.394 354.158C223.704 354.158 223.962 353.901 223.962 353.59V352.833C223.962 351.266 222.69 349.994 221.123 349.994Z" fill="#004357"/>
<path d="M245.388 358.701H243.496C243.185 358.701 242.928 358.958 242.928 359.269C242.928 359.579 243.185 359.837 243.496 359.837H245.388C245.699 359.837 245.956 359.579 245.956 359.269C245.956 358.958 245.699 358.701 245.388 358.701Z" fill="#004357"/>
<path d="M238.991 358.701H237.098C236.788 358.701 236.53 358.958 236.53 359.269C236.53 359.579 236.788 359.837 237.098 359.837H238.991C239.301 359.837 239.559 359.579 239.559 359.269C239.559 358.958 239.301 358.701 238.991 358.701Z" fill="#004357"/>
<path d="M232.593 358.701H230.701C230.39 358.701 230.133 358.958 230.133 359.269C230.133 359.579 230.39 359.837 230.701 359.837H232.593C232.904 359.837 233.161 359.579 233.161 359.269C233.161 358.958 232.904 358.701 232.593 358.701Z" fill="#004357"/>
<path d="M226.196 358.701H224.303C223.993 358.701 223.735 358.958 223.735 359.269C223.735 359.579 223.993 359.837 224.303 359.837H226.196C226.506 359.837 226.764 359.579 226.764 359.269C226.764 358.958 226.506 358.701 226.196 358.701Z" fill="#004357"/>
<path d="M251.786 358.701H249.893C249.583 358.701 249.325 358.958 249.325 359.269C249.325 359.579 249.583 359.837 249.893 359.837H251.786C252.096 359.837 252.354 359.579 252.354 359.269C252.354 358.958 252.096 358.701 251.786 358.701Z" fill="#004357"/>
<path d="M234.751 338.638C230.678 338.638 227.369 341.946 227.369 346.019C227.369 350.093 230.678 353.401 234.751 353.401C238.824 353.401 242.132 350.093 242.132 346.019C242.132 341.946 238.824 338.638 234.751 338.638ZM236.189 349.23V350.184C236.189 350.494 235.932 350.751 235.621 350.751C235.311 350.751 235.054 350.494 235.054 350.184V349.366H234.456V350.184C234.456 350.494 234.198 350.751 233.888 350.751C233.577 350.751 233.32 350.494 233.32 350.184V349.366H233.093C232.782 349.366 232.525 349.108 232.525 348.798C232.525 348.488 232.782 348.23 233.093 348.23H235.493C235.924 348.23 236.273 347.859 236.273 347.413C236.273 346.966 235.924 346.595 235.493 346.595H234.016C232.964 346.595 232.101 345.717 232.101 344.642C232.101 343.816 232.608 343.105 233.312 342.825V341.855C233.312 341.545 233.57 341.288 233.88 341.288C234.191 341.288 234.448 341.545 234.448 341.855V342.673H235.046V341.855C235.046 341.545 235.303 341.288 235.614 341.288C235.924 341.288 236.182 341.545 236.182 341.855V342.673H236.409C236.719 342.673 236.977 342.931 236.977 343.241C236.977 343.551 236.719 343.809 236.409 343.809H234.009C233.577 343.809 233.229 344.18 233.229 344.626C233.229 345.081 233.577 345.444 234.009 345.444H235.485C236.538 345.444 237.401 346.322 237.401 347.397C237.401 348.23 236.893 348.942 236.189 349.23Z" fill="#BED73C"/>
</g>
<defs>
<clipPath id="clip0_6286_135026">
<rect width="38.7632" height="38.7632" fill="white" transform="translate(64.4199 105.86)"/>
</clipPath>
<clipPath id="clip1_6286_135026">
<rect width="38.7632" height="38.7632" fill="white" transform="translate(64.0332 219.824)"/>
</clipPath>
<clipPath id="clip2_6286_135026">
<rect width="38.7632" height="38.7632" fill="white" transform="translate(217.147 215.324)"/>
</clipPath>
<clipPath id="clip3_6286_135026">
<rect width="38.7632" height="38.7632" fill="white" transform="translate(64.4209 333.788)"/>
</clipPath>
<clipPath id="clip4_6286_135026">
<rect width="38.7632" height="38.7632" fill="white" transform="translate(217.148 329.288)"/>
</clipPath>
</defs>
</svg>
