<svg width="421" height="598" viewBox="0 0 421 598" fill="none" xmlns="http://www.w3.org/2000/svg">
<path d="M63.1882 575.037L33.8297 575.036C29.4747 575.036 25.9443 571.506 25.9443 567.151V567.151" stroke="#BED73C" stroke-width="2.03507" stroke-linecap="round" stroke-linejoin="round" stroke-dasharray="4.07 4.07"/>
<path d="M24.6768 68.2808L24.6768 28.1105C24.6768 23.7555 28.2072 20.2251 32.5622 20.2251V20.2251" stroke="#BED73C" stroke-width="2.03507" stroke-linecap="round" stroke-linejoin="round" stroke-dasharray="4.07 4.07"/>
<path d="M323.282 33.6566V23.6554C323.282 19.1597 319.638 15.5151 315.142 15.5151H313.286" stroke="#BED73C" stroke-width="2.03507" stroke-linecap="round" stroke-linejoin="round" stroke-dasharray="4.07 4.07"/>
<g opacity="0.3">
<path d="M52.4428 23.3068L49.2604 20.1245L48.1768 21.2005L52.4428 25.4665L61.6006 16.3087L60.5245 15.2327L52.4428 23.3068Z" fill="white"/>
<path d="M100.798 58.5336L97.6159 55.3513L96.5322 56.4273L100.798 60.6933L109.956 51.5355L108.88 50.4595L100.798 58.5336Z" fill="white"/>
</g>
<path d="M80.9404 575.383C80.1009 575.383 79.4141 576.07 79.4141 576.91C79.4141 577.749 80.1009 578.436 80.9404 578.436C81.7798 578.436 82.4667 577.749 82.4667 576.91C82.4667 576.07 81.7798 575.383 80.9404 575.383ZM90.0982 575.383C89.2587 575.383 88.5719 576.07 88.5719 576.91C88.5719 577.749 89.2587 578.436 90.0982 578.436C90.9376 578.436 91.6245 577.749 91.6245 576.91C91.6245 576.07 90.9376 575.383 90.0982 575.383ZM85.5193 575.383C84.6798 575.383 83.993 576.07 83.993 576.91C83.993 577.749 84.6798 578.436 85.5193 578.436C86.3587 578.436 87.0456 577.749 87.0456 576.91C87.0456 576.07 86.3587 575.383 85.5193 575.383Z" fill="#3C3E3E"/>
<path d="M19.7441 91.6941C18.9046 91.6941 18.2178 92.3809 18.2178 93.2204C18.2178 94.0599 18.9046 94.7467 19.7441 94.7467C20.5835 94.7467 21.2704 94.0599 21.2704 93.2204C21.2704 92.3809 20.5835 91.6941 19.7441 91.6941ZM28.9019 91.6941C28.0624 91.6941 27.3756 92.3809 27.3756 93.2204C27.3756 94.0599 28.0624 94.7467 28.9019 94.7467C29.7414 94.7467 30.4282 94.0599 30.4282 93.2204C30.4282 92.3809 29.7414 91.6941 28.9019 91.6941ZM24.323 91.6941C23.4835 91.6941 22.7967 92.3809 22.7967 93.2204C22.7967 94.0599 23.4835 94.7467 24.323 94.7467C25.1624 94.7467 25.8493 94.0599 25.8493 93.2204C25.8493 92.3809 25.1624 91.6941 24.323 91.6941Z" fill="white"/>
<g clip-path="url(#clip0_6286_135230)">
<path d="M126.03 172.206C127.262 172.206 128.266 171.203 128.266 169.971V165.996C128.266 164.764 127.262 163.76 126.03 163.76H118.875C117.643 163.76 116.64 164.764 116.64 165.996V169.971C116.64 171.203 117.643 172.206 118.875 172.206H126.03ZM118.875 165.251H126.03C126.437 165.251 126.775 165.588 126.775 165.996V167.238H118.13V165.996C118.13 165.588 118.468 165.251 118.875 165.251ZM118.13 169.971V168.728H126.775V169.971C126.775 170.378 126.437 170.716 126.03 170.716H118.875C118.468 170.716 118.13 170.378 118.13 169.971Z" fill="#004357"/>
<path d="M134.476 177.671H132.24V161.276H134.476C134.744 161.276 134.993 161.127 135.122 160.898C135.251 160.66 135.251 160.381 135.112 160.143L132.131 155.174C131.992 154.946 131.754 154.817 131.495 154.817H118.875C118.468 154.817 118.13 155.155 118.13 155.562C118.13 155.969 118.468 156.307 118.875 156.307H131.078L133.165 159.785H116.391C115.984 159.785 115.646 160.123 115.646 160.53C115.646 160.938 115.984 161.276 116.391 161.276H130.75V177.671H120.117V175.932C120.117 174.7 119.114 173.697 117.882 173.697H108.938C107.706 173.697 106.703 174.7 106.703 175.932V177.671H85.09C84.6826 177.671 84.3447 178.009 84.3447 178.417V181.398C84.3447 181.805 84.6826 182.143 85.09 182.143H134.476C134.884 182.143 135.221 181.805 135.221 181.398V178.417C135.221 178.009 134.884 177.671 134.476 177.671ZM108.193 175.932C108.193 175.525 108.531 175.187 108.938 175.187H117.882C118.289 175.187 118.627 175.525 118.627 175.932V177.671H108.193V175.932ZM133.731 180.652H85.8353V179.162H133.731V180.652Z" fill="#004357"/>
<path d="M116.222 153.396L100.82 145.943C100.611 145.844 100.373 145.844 100.174 145.943L84.772 153.396C84.5037 153.525 84.3447 153.783 84.3447 154.072V156.089L100.164 148.437C100.373 148.338 100.611 148.338 100.81 148.437L116.63 156.089V154.072C116.64 153.783 116.481 153.525 116.222 153.396Z" fill="#BED73C"/>
<path d="M106.703 158.791H104.467C104.06 158.791 103.722 159.129 103.722 159.537V165.25H106.703V158.791Z" fill="#BED73C"/>
<path d="M86.8291 156.546V176.181H89.8102V165.499C89.8102 164.266 90.8138 163.263 92.046 163.263H97.0144C98.2466 163.263 99.2502 164.266 99.2502 165.499V176.181H105.212V175.435C105.212 173.657 106.663 172.206 108.442 172.206H114.155V156.546L100.492 149.938L86.8291 156.546ZM102.231 159.537C102.231 158.304 103.235 157.301 104.467 157.301H110.429C111.661 157.301 112.665 158.304 112.665 159.537V167.486C112.665 168.718 111.661 169.722 110.429 169.722H104.467C103.235 169.722 102.231 168.718 102.231 167.486V159.537Z" fill="#BED73C"/>
<path d="M111.174 159.537C111.174 159.129 110.837 158.792 110.429 158.792H108.193V165.25H111.174V159.537Z" fill="#BED73C"/>
<path d="M104.467 168.231H110.429C110.836 168.231 111.174 167.893 111.174 167.486V166.741H103.722V167.486C103.722 167.893 104.06 168.231 104.467 168.231Z" fill="#BED73C"/>
<path d="M97.0145 164.753H92.046C91.6386 164.753 91.3008 165.091 91.3008 165.499V176.181H97.7597V165.499C97.7597 165.091 97.4219 164.753 97.0145 164.753ZM96.7661 171.461C96.7661 171.868 96.4282 172.206 96.0208 172.206C95.6134 172.206 95.2755 171.868 95.2755 171.461V169.473C95.2755 169.066 95.6134 168.728 96.0208 168.728C96.4282 168.728 96.7661 169.066 96.7661 169.473V171.461Z" fill="#BED73C"/>
</g>
<path d="M330.262 154.828V155.184H330.618H333.003C333.399 155.184 333.701 155.315 333.903 155.517C334.106 155.72 334.236 156.022 334.236 156.418V161.188C334.236 161.584 334.106 161.886 333.903 162.089C333.701 162.291 333.399 162.422 333.003 162.422H330.459H330.33L330.231 162.504L321.645 169.659L321.517 169.765V169.932V180.267C321.517 180.663 321.387 180.965 321.184 181.167C320.982 181.37 320.679 181.5 320.283 181.5H301.205C300.809 181.5 300.506 181.37 300.304 181.167C300.101 180.965 299.971 180.663 299.971 180.267V169.932V169.765L299.843 169.659L291.257 162.504L291.158 162.422H291.029H288.485C288.089 162.422 287.787 162.291 287.585 162.089C287.382 161.886 287.252 161.584 287.252 161.188V156.418C287.252 156.022 287.382 155.72 287.585 155.517C287.787 155.315 288.089 155.184 288.485 155.184H290.87H291.226V154.828V153.238C291.226 152.842 291.357 152.54 291.559 152.337C291.762 152.135 292.064 152.005 292.46 152.005C292.856 152.005 293.159 152.135 293.361 152.337C293.563 152.54 293.694 152.842 293.694 153.238V154.828V155.184H294.05H295.64H295.996V154.828V153.238C295.996 152.842 296.127 152.54 296.329 152.337C296.531 152.135 296.834 152.005 297.23 152.005C297.626 152.005 297.928 152.135 298.131 152.337C298.333 152.54 298.464 152.842 298.464 153.238V154.828V155.184H298.82H302C302.396 155.184 302.698 155.315 302.9 155.517C303.103 155.72 303.233 156.022 303.233 156.418C303.233 156.814 303.103 157.117 302.9 157.319C302.698 157.521 302.396 157.652 302 157.652H290.075H289.719V158.008V159.598V159.954H290.075H302C302.396 159.954 302.698 160.085 302.9 160.287C303.103 160.489 303.233 160.792 303.233 161.188C303.233 161.584 303.103 161.886 302.9 162.089C302.698 162.291 302.396 162.422 302 162.422H296.117H295.133L295.889 163.051L301.613 167.821L301.712 167.904H301.841H319.647H319.776L319.875 167.821L325.599 163.051L326.355 162.422H325.371H319.488C319.092 162.422 318.79 162.291 318.588 162.089C318.385 161.886 318.255 161.584 318.255 161.188C318.255 160.792 318.385 160.489 318.588 160.287C318.79 160.085 319.092 159.954 319.488 159.954H331.413H331.769V159.598V158.008V157.652H331.413H319.488C319.092 157.652 318.79 157.521 318.588 157.319C318.385 157.117 318.255 156.814 318.255 156.418C318.255 156.022 318.385 155.72 318.588 155.517C318.79 155.315 319.092 155.184 319.488 155.184H322.668H323.024V154.828V153.238C323.024 152.842 323.155 152.54 323.357 152.337C323.56 152.135 323.862 152.005 324.258 152.005C324.654 152.005 324.957 152.135 325.159 152.337C325.361 152.54 325.492 152.842 325.492 153.238V154.828V155.184H325.848H327.438H327.794V154.828V153.238C327.794 152.842 327.925 152.54 328.127 152.337C328.329 152.135 328.632 152.005 329.028 152.005C329.424 152.005 329.726 152.135 329.929 152.337C330.131 152.54 330.262 152.842 330.262 153.238V154.828ZM318.693 179.033H319.05V178.677V170.727V170.371H318.693H302.794H302.438V170.727V178.677V179.033H302.794H318.693Z" fill="#004357" stroke="white" stroke-width="0.712274"/>
<path d="M306.293 176.292H307.088C308.042 176.292 308.678 175.656 308.678 174.702C308.678 173.748 308.042 173.112 307.088 173.112H306.293C305.339 173.112 304.703 173.748 304.703 174.702C304.703 175.656 305.498 176.292 306.293 176.292Z" fill="#004357"/>
<path d="M314.242 176.292H315.037C315.991 176.292 316.627 175.656 316.627 174.702C316.627 173.748 315.991 173.112 315.037 173.112H314.242C313.288 173.112 312.652 173.748 312.652 174.702C312.652 175.656 313.447 176.292 314.242 176.292Z" fill="#004357"/>
<path d="M315.514 134.16H305.975C305.021 134.16 304.385 134.796 304.385 135.75C304.385 136.704 305.021 137.34 305.975 137.34H307.565V164.368H313.924V137.34H315.514C316.468 137.34 317.104 136.704 317.104 135.75C317.104 134.796 316.468 134.16 315.514 134.16Z" fill="#BED73C"/>
<path d="M329.028 140.52H327.438V138.93C327.438 137.976 326.802 137.34 325.848 137.34C324.894 137.34 324.258 137.976 324.258 138.93V140.52H322.668V138.93C322.668 137.976 322.032 137.34 321.078 137.34C320.124 137.34 319.488 137.976 319.488 138.93V140.52H317.104V146.879H329.028C329.982 146.879 330.618 146.243 330.618 145.289V142.11C330.618 141.156 329.982 140.52 329.028 140.52Z" fill="#BED73C"/>
<path d="M300.41 137.34C299.456 137.34 298.82 137.976 298.82 138.93V140.52H297.23V138.93C297.23 137.976 296.594 137.34 295.64 137.34C294.686 137.34 294.05 137.976 294.05 138.93V140.52H292.46C291.506 140.52 290.87 141.156 290.87 142.11V145.289C290.87 146.243 291.506 146.879 292.46 146.879H304.384V140.52H301.999V138.93C301.999 137.976 301.363 137.34 300.41 137.34Z" fill="#BED73C"/>
<g clip-path="url(#clip1_6286_135230)">
<path d="M132.475 308.368H130.08L132.306 298.74C132.495 297.935 132.306 297.11 131.789 296.464C131.283 295.818 130.517 295.45 129.693 295.45C128.441 295.45 127.357 296.305 127.079 297.527L124.575 308.368H93.4727L90.9687 297.527C90.6904 296.305 89.6073 295.45 88.3553 295.45C87.5305 295.45 86.7654 295.818 86.2586 296.464C85.7419 297.11 85.563 297.935 85.7419 298.74L87.9677 308.368H86.0698C84.8376 308.368 83.834 309.372 83.834 310.604V313.088C83.834 313.496 84.1718 313.834 84.5792 313.834H85.7816L88.1068 327.775C88.4844 330.061 90.442 331.72 92.7672 331.72H125.777C128.093 331.72 130.05 330.061 130.438 327.775L132.763 313.834H133.965C134.373 313.834 134.711 313.496 134.711 313.088V310.604C134.711 309.372 133.707 308.368 132.475 308.368ZM128.53 297.865C128.659 297.319 129.136 296.941 129.693 296.941C130.06 296.941 130.398 297.1 130.627 297.388C130.855 297.676 130.935 298.044 130.855 298.402L128.55 308.368H126.105L128.53 297.865ZM87.1926 298.402C87.1131 298.044 87.1926 297.676 87.4212 297.388C87.6497 297.1 87.9876 296.941 88.3553 296.941C88.9117 296.941 89.3887 297.319 89.5179 297.865L91.9425 308.368H89.498L87.1926 298.402ZM128.967 327.527C128.709 329.087 127.367 330.229 125.777 330.229H92.7672C91.1773 330.229 89.8458 329.097 89.5775 327.527L87.292 313.834H131.243L128.967 327.527ZM133.22 312.343H85.3245V310.604C85.3245 310.197 85.6624 309.859 86.0698 309.859H132.475C132.882 309.859 133.22 310.197 133.22 310.604V312.343Z" fill="#004357"/>
<path d="M109.252 328.242H109.302C110.524 328.242 111.518 327.249 111.518 326.026V318.027C111.518 316.805 110.524 315.811 109.302 315.811H109.252C108.03 315.811 107.036 316.805 107.036 318.027V326.026C107.036 327.249 108.03 328.242 109.252 328.242ZM108.527 318.037C108.527 317.64 108.855 317.312 109.252 317.312H109.302C109.699 317.312 110.027 317.64 110.027 318.037V326.036C110.027 326.434 109.699 326.762 109.302 326.762H109.252C108.855 326.762 108.527 326.434 108.527 326.036V318.037Z" fill="#004357"/>
<path d="M96.8914 326.424C97.0802 327.477 97.9944 328.242 99.0676 328.242C99.7234 328.242 100.339 327.954 100.767 327.447C101.194 326.94 101.363 326.285 101.244 325.639L99.7929 317.639C99.6041 316.586 98.6899 315.821 97.6168 315.821C96.9609 315.821 96.3448 316.109 95.9176 316.616C95.4903 317.123 95.3214 317.779 95.4406 318.425L96.8914 326.424ZM97.0603 317.57C97.1398 317.471 97.3187 317.312 97.6168 317.312C97.9646 317.312 98.2627 317.56 98.3223 317.908L99.7731 325.907C99.8228 326.195 99.6936 326.404 99.6141 326.493C99.5346 326.593 99.3557 326.752 99.0576 326.752C98.7098 326.752 98.4117 326.503 98.3521 326.155L96.9013 318.156C96.8516 317.868 96.9808 317.669 97.0603 317.57Z" fill="#004357"/>
<path d="M119.478 328.242C120.551 328.242 121.465 327.477 121.654 326.424L123.105 318.425C123.224 317.779 123.045 317.113 122.628 316.616C122.211 316.119 121.585 315.821 120.929 315.821C119.856 315.821 118.941 316.586 118.753 317.639L117.302 325.639C117.183 326.285 117.362 326.95 117.779 327.447C118.196 327.944 118.822 328.242 119.478 328.242ZM118.763 325.897L120.213 317.898C120.273 317.55 120.571 317.302 120.919 317.302C121.217 317.302 121.396 317.461 121.475 317.56C121.555 317.659 121.684 317.858 121.634 318.146L120.184 326.145C120.124 326.493 119.826 326.742 119.478 326.742C119.18 326.742 119.001 326.583 118.922 326.483C118.842 326.394 118.713 326.195 118.763 325.897Z" fill="#004357"/>
<path d="M108.706 300.479C107.265 297.24 105.277 295.451 103.101 295.451C100.925 295.451 98.9378 297.24 97.4969 300.479C96.6821 302.307 96.0859 304.493 95.748 306.878H110.455C110.117 304.493 109.521 302.307 108.706 300.479ZM101.66 301.184H104.642C105.049 301.184 105.387 301.522 105.387 301.93C105.387 302.337 105.049 302.675 104.642 302.675H101.66C101.253 302.675 100.915 302.337 100.915 301.93C100.915 301.522 101.243 301.184 101.66 301.184ZM105.635 306.65H100.667C100.259 306.65 99.9215 306.312 99.9215 305.905C99.9215 305.497 100.259 305.159 100.667 305.159H105.635C106.043 305.159 106.38 305.497 106.38 305.905C106.38 306.312 106.043 306.65 105.635 306.65Z" fill="#BED73C"/>
<path d="M113.427 306.123C113.039 305.984 112.841 305.557 112.98 305.169C113.119 304.781 113.546 304.583 113.934 304.722L118.604 306.421C118.823 306.501 118.982 306.669 119.051 306.878H122.996C123.135 305.547 123.175 304.265 123.095 303.082C122.847 299.545 121.595 297.18 119.548 296.444C117.511 295.699 115.037 296.693 112.572 299.247C111.926 299.912 111.31 300.668 110.704 301.492C111.271 303.122 111.698 304.94 111.956 306.878H115.494L113.427 306.123ZM115.275 301.771C115.414 301.383 115.841 301.184 116.229 301.323L119.031 302.347C119.419 302.486 119.617 302.913 119.478 303.301C119.369 303.599 119.081 303.788 118.783 303.788C118.693 303.788 118.614 303.778 118.524 303.738L115.722 302.715C115.335 302.585 115.136 302.158 115.275 301.771Z" fill="#BED73C"/>
</g>
<g clip-path="url(#clip2_6286_135230)">
<path d="M334.928 324.578H333.835V320.355C333.835 318.298 332.166 316.628 330.109 316.628H323.849L321.176 311.292C320.371 309.682 318.751 308.679 316.953 308.679H296.681C294.515 308.679 292.627 310.149 292.1 312.256L291.007 316.628H290.362C288.305 316.628 286.635 318.298 286.635 320.355V324.578H285.542C285.135 324.578 284.797 324.916 284.797 325.323V328.304C284.797 328.711 285.135 329.049 285.542 329.049H290.67C291.027 331.295 292.985 333.024 295.33 333.024C297.675 333.024 299.633 331.295 299.99 329.049H319.337C319.695 331.295 321.653 333.024 323.998 333.024C326.343 333.024 328.3 331.295 328.658 329.049H334.928C335.336 329.049 335.674 328.711 335.674 328.304V325.323C335.674 324.916 335.336 324.578 334.928 324.578ZM328.867 324.578V323.336C328.867 322.65 329.423 322.093 330.109 322.093H332.345V324.578H328.867ZM332.345 320.355V320.603H330.109C328.599 320.603 327.376 321.825 327.376 323.336V324.578H310.981V318.119H330.109C331.341 318.119 332.345 319.122 332.345 320.355ZM309.49 318.119V324.578H296.075V318.119H309.49ZM299.891 316.628V310.169H309.49V316.628H299.891ZM319.844 311.958L322.179 316.628H310.981V310.169H316.953C318.185 310.169 319.288 310.855 319.844 311.958ZM293.541 312.614C293.899 311.173 295.191 310.169 296.671 310.169H298.391V316.628H292.538L293.541 312.614ZM288.126 320.355C288.126 319.122 289.129 318.119 290.362 318.119H294.585V324.578H288.126V320.355ZM295.33 331.533C293.81 331.533 292.528 330.47 292.19 329.049H298.47C298.132 330.47 296.85 331.533 295.33 331.533ZM323.998 331.533C322.477 331.533 321.196 330.47 320.858 329.049H327.138C326.8 330.47 325.518 331.533 323.998 331.533ZM334.183 327.559H286.287V326.068H334.183V327.559Z" fill="#004357"/>
<path d="M313.216 322.59C313.623 322.59 313.961 322.253 313.961 321.845V320.851C313.961 320.444 313.623 320.106 313.216 320.106C312.809 320.106 312.471 320.444 312.471 320.851V321.845C312.471 322.253 312.809 322.59 313.216 322.59Z" fill="#004357"/>
<path d="M307.255 322.59C307.662 322.59 308 322.253 308 321.845V320.851C308 320.444 307.662 320.106 307.255 320.106C306.848 320.106 306.51 320.444 306.51 320.851V321.845C306.51 322.253 306.848 322.59 307.255 322.59Z" fill="#004357"/>
<path d="M325.895 294.778C325.607 295.066 325.13 295.066 324.841 294.778L323.391 293.327L322.655 294.063L325 296.408C325.1 296.507 325.229 296.557 325.368 296.557C325.507 296.557 325.636 296.507 325.736 296.408L330.009 292.135L329.273 291.4L325.895 294.778Z" fill="#BED73C"/>
<path d="M335.196 285.567L326.611 282.198C326.432 282.129 326.243 282.129 326.064 282.198L317.479 285.567C317.191 285.676 317.002 285.955 317.002 286.263V292.155C317.002 295.037 317.857 297.819 319.486 300.194C321.106 302.579 323.381 304.387 326.064 305.441C326.154 305.471 326.243 305.49 326.333 305.49C326.422 305.49 326.521 305.471 326.601 305.441C329.284 304.387 331.559 302.579 333.179 300.194C334.799 297.809 335.663 295.037 335.663 292.155V286.263C335.673 285.955 335.485 285.686 335.196 285.567ZM331.599 292.662L326.8 297.461C326.422 297.839 325.915 298.048 325.379 298.048C324.842 298.048 324.335 297.839 323.958 297.461L321.086 294.59C320.947 294.451 320.867 294.262 320.867 294.063C320.867 293.864 320.947 293.675 321.086 293.536L322.875 291.748C323.163 291.46 323.64 291.46 323.928 291.748L325.379 293.199L328.757 289.82C329.045 289.532 329.522 289.532 329.811 289.82L331.599 291.609C331.738 291.748 331.818 291.937 331.818 292.135C331.818 292.334 331.738 292.523 331.599 292.662Z" fill="#BED73C"/>
</g>
<g clip-path="url(#clip3_6286_135230)">
<path d="M109.783 437.725C99.7867 437.725 91.6484 445.863 91.6484 455.859V460.331C91.6484 460.738 91.9863 461.076 92.3937 461.076H92.4831C92.6223 461.076 92.7614 461.036 92.8806 460.957L93.606 460.5C95.2456 459.466 97.3423 459.616 98.8129 460.868L98.8427 460.897C98.9818 461.017 99.1508 461.076 99.3296 461.076H99.4787C99.6277 461.076 99.7768 461.027 99.896 460.947L100.135 460.778C101.714 459.705 103.791 459.755 105.302 460.917C105.431 461.017 105.59 461.066 105.759 461.066H105.918C106.057 461.066 106.206 461.027 106.325 460.947L107.378 460.261C107.428 460.232 107.478 460.202 107.528 460.172V467.635C107.528 468.042 107.865 468.38 108.273 468.38C108.68 468.38 109.018 468.042 109.018 467.635V459.625C109.515 459.546 110.012 459.546 110.509 459.625V467.635C110.509 468.042 110.846 468.38 111.254 468.38C111.661 468.38 111.999 468.042 111.999 467.635V460.182C112.049 460.212 112.099 460.242 112.148 460.271L113.201 460.957C113.321 461.036 113.46 461.076 113.609 461.076H113.768C113.927 461.076 114.096 461.027 114.225 460.927C115.745 459.765 117.822 459.705 119.392 460.788L119.631 460.957C119.75 461.046 119.899 461.086 120.048 461.086H120.197C120.376 461.086 120.545 461.027 120.684 460.907L120.714 460.878C122.194 459.625 124.281 459.476 125.921 460.51L126.646 460.967C126.765 461.046 126.904 461.086 127.044 461.086H127.133C127.54 461.086 127.878 460.748 127.878 460.341V455.869C127.918 445.863 119.78 437.725 109.783 437.725ZM93.139 459.049V455.859C93.139 450.285 95.8915 445.346 100.105 442.325C98.9719 448.605 98.6837 455.959 98.6142 458.96C96.905 458.095 94.858 458.105 93.139 459.049ZM100.095 459.099C100.164 456.008 100.472 447.751 101.834 441.242C103.185 440.507 104.646 439.95 106.186 439.613C104.477 445.883 104.765 455.422 104.944 458.999C103.394 458.334 101.635 458.363 100.095 459.099ZM109.783 458.085C108.67 458.085 107.557 458.393 106.584 459.019L106.444 459.109C106.266 455.661 105.928 445.366 107.816 439.324C108.462 439.245 109.117 439.205 109.783 439.205C110.449 439.205 111.105 439.245 111.751 439.324C113.629 445.366 113.301 455.661 113.122 459.109L112.983 459.019C112.009 458.393 110.896 458.085 109.783 458.085ZM114.622 458.989C114.811 455.422 115.099 445.883 113.38 439.603C114.921 439.941 116.381 440.497 117.733 441.232C119.084 447.741 119.392 455.999 119.472 459.089C117.931 458.363 116.173 458.334 114.622 458.989ZM126.427 459.049C124.708 458.105 122.661 458.095 120.952 458.96C120.883 455.969 120.595 448.615 119.462 442.325C123.675 445.346 126.427 450.285 126.427 455.859V459.049Z" fill="#004357"/>
<path d="M118.557 471.251C117.315 469.939 115.666 469.224 113.897 469.224C112.377 469.224 110.946 469.76 109.783 470.744C108.621 469.76 107.18 469.224 105.669 469.224C103.911 469.224 102.251 469.949 101.009 471.251C99.1408 473.228 98.644 476.11 99.5383 478.564H103.573L105.441 475.762C105.59 475.544 105.838 475.414 106.107 475.434C106.375 475.454 106.613 475.613 106.723 475.852L109.028 480.492L111.512 473.586C111.612 473.308 111.88 473.109 112.178 473.099C112.476 473.089 112.754 473.248 112.884 473.516L115.318 478.564H120.028C120.912 476.11 120.426 473.228 118.557 471.251Z" fill="#BED73C"/>
<path d="M114.176 479.638L112.318 475.772L109.843 482.639C109.744 482.917 109.486 483.116 109.187 483.125C109.177 483.125 109.158 483.125 109.148 483.125C108.869 483.125 108.611 482.967 108.482 482.708L105.958 477.67L104.587 479.727C104.448 479.936 104.219 480.055 103.971 480.055H100.294C100.503 480.373 100.741 480.671 101.009 480.959L107.18 487.468C107.876 488.193 108.79 488.601 109.784 488.601C110.777 488.601 111.692 488.203 112.387 487.468L118.558 480.959C118.826 480.671 119.065 480.373 119.273 480.055H114.851C114.563 480.055 114.305 479.896 114.176 479.638Z" fill="#BED73C"/>
</g>
<g clip-path="url(#clip4_6286_135230)">
<path d="M332.941 445.985H331.003V441.762C331.003 440.251 329.781 439.029 328.271 439.029H287.53C286.019 439.029 284.797 440.251 284.797 441.762V465.61C284.797 467.12 286.019 468.343 287.53 468.343H289.467V472.566C289.467 474.076 290.689 475.298 292.2 475.298H332.941C334.451 475.298 335.674 474.076 335.674 472.566V448.717C335.674 447.207 334.451 445.985 332.941 445.985ZM286.287 465.61V441.762C286.287 441.076 286.844 440.519 287.53 440.519H328.271C328.956 440.519 329.513 441.076 329.513 441.762V465.61C329.513 466.296 328.956 466.852 328.271 466.852H287.53C286.844 466.852 286.287 466.296 286.287 465.61ZM334.183 472.566C334.183 473.251 333.627 473.808 332.941 473.808H292.2C291.514 473.808 290.958 473.251 290.958 472.566V468.343H328.271C329.781 468.343 331.003 467.12 331.003 465.61V447.475H332.941C333.627 447.475 334.183 448.032 334.183 448.717V472.566Z" fill="#004357"/>
<path d="M326.78 446.978H325.786C324.554 446.978 323.55 445.975 323.55 444.742V443.749C323.55 443.341 323.212 443.003 322.805 443.003C322.397 443.003 322.06 443.341 322.06 443.749V444.742C322.06 446.799 323.729 448.469 325.786 448.469H326.78C327.187 448.469 327.525 448.131 327.525 447.723C327.525 447.316 327.187 446.978 326.78 446.978Z" fill="#004357"/>
<path d="M326.78 458.902H325.786C323.729 458.902 322.06 460.572 322.06 462.629V463.622C322.06 464.03 322.397 464.368 322.805 464.368C323.212 464.368 323.55 464.03 323.55 463.622V462.629C323.55 461.397 324.554 460.393 325.786 460.393H326.78C327.187 460.393 327.525 460.055 327.525 459.648C327.525 459.24 327.187 458.902 326.78 458.902Z" fill="#004357"/>
<path d="M292.994 443.003C292.587 443.003 292.249 443.341 292.249 443.749V444.742C292.249 445.975 291.246 446.978 290.013 446.978H289.02C288.612 446.978 288.274 447.316 288.274 447.723C288.274 448.131 288.612 448.469 289.02 448.469H290.013C292.07 448.469 293.74 446.799 293.74 444.742V443.749C293.74 443.341 293.402 443.003 292.994 443.003Z" fill="#004357"/>
<path d="M290.013 458.902H289.02C288.612 458.902 288.274 459.24 288.274 459.648C288.274 460.055 288.612 460.393 289.02 460.393H290.013C291.246 460.393 292.249 461.397 292.249 462.629V463.622C292.249 464.03 292.587 464.368 292.994 464.368C293.402 464.368 293.74 464.03 293.74 463.622V462.629C293.74 460.572 292.07 458.902 290.013 458.902Z" fill="#004357"/>
<path d="M321.861 470.33H319.377C318.97 470.33 318.632 470.668 318.632 471.075C318.632 471.483 318.97 471.82 319.377 471.82H321.861C322.269 471.82 322.607 471.483 322.607 471.075C322.607 470.668 322.269 470.33 321.861 470.33Z" fill="#004357"/>
<path d="M313.465 470.33H310.981C310.573 470.33 310.235 470.668 310.235 471.075C310.235 471.483 310.573 471.82 310.981 471.82H313.465C313.872 471.82 314.21 471.483 314.21 471.075C314.21 470.668 313.872 470.33 313.465 470.33Z" fill="#004357"/>
<path d="M305.068 470.33H302.584C302.177 470.33 301.839 470.668 301.839 471.075C301.839 471.483 302.177 471.82 302.584 471.82H305.068C305.476 471.82 305.814 471.483 305.814 471.075C305.814 470.668 305.476 470.33 305.068 470.33Z" fill="#004357"/>
<path d="M296.672 470.33H294.188C293.78 470.33 293.442 470.668 293.442 471.075C293.442 471.483 293.78 471.82 294.188 471.82H296.672C297.079 471.82 297.417 471.483 297.417 471.075C297.417 470.668 297.079 470.33 296.672 470.33Z" fill="#004357"/>
<path d="M330.258 470.33H327.774C327.366 470.33 327.028 470.668 327.028 471.075C327.028 471.483 327.366 471.82 327.774 471.82H330.258C330.665 471.82 331.003 471.483 331.003 471.075C331.003 470.668 330.665 470.33 330.258 470.33Z" fill="#004357"/>
<path d="M307.9 443.997C302.554 443.997 298.212 448.34 298.212 453.686C298.212 459.032 302.554 463.374 307.9 463.374C313.246 463.374 317.589 459.032 317.589 453.686C317.589 448.34 313.246 443.997 307.9 443.997ZM309.788 457.899V459.151C309.788 459.558 309.451 459.896 309.043 459.896C308.636 459.896 308.298 459.558 308.298 459.151V458.078H307.513V459.151C307.513 459.558 307.175 459.896 306.768 459.896C306.36 459.896 306.022 459.558 306.022 459.151V458.078H305.724C305.317 458.078 304.979 457.74 304.979 457.332C304.979 456.925 305.317 456.587 305.724 456.587H308.874C309.441 456.587 309.898 456.1 309.898 455.514C309.898 454.928 309.441 454.441 308.874 454.441H306.936C305.555 454.441 304.422 453.288 304.422 451.877C304.422 450.794 305.088 449.86 306.012 449.492V448.22C306.012 447.813 306.35 447.475 306.758 447.475C307.165 447.475 307.503 447.813 307.503 448.22V449.294H308.288V448.22C308.288 447.813 308.626 447.475 309.033 447.475C309.441 447.475 309.778 447.813 309.778 448.22V449.294H310.077C310.484 449.294 310.822 449.631 310.822 450.039C310.822 450.446 310.484 450.784 310.077 450.784H306.927C306.36 450.784 305.903 451.271 305.903 451.857C305.903 452.453 306.36 452.93 306.927 452.93H308.864C310.245 452.93 311.378 454.083 311.378 455.494C311.378 456.587 310.712 457.521 309.788 457.899Z" fill="#BED73C"/>
</g>
<defs>
<clipPath id="clip0_6286_135230">
<rect width="50.8767" height="50.8767" fill="white" transform="translate(84.3438 138.571)"/>
</clipPath>
<clipPath id="clip1_6286_135230">
<rect width="50.8767" height="50.8767" fill="white" transform="translate(83.835 288.148)"/>
</clipPath>
<clipPath id="clip2_6286_135230">
<rect width="50.8767" height="50.8767" fill="white" transform="translate(284.798 282.148)"/>
</clipPath>
<clipPath id="clip3_6286_135230">
<rect width="50.8767" height="50.8767" fill="white" transform="translate(84.3438 437.726)"/>
</clipPath>
<clipPath id="clip4_6286_135230">
<rect width="50.8767" height="50.8767" fill="white" transform="translate(284.798 431.726)"/>
</clipPath>
</defs>
</svg>
