<svg width="641" height="392" viewBox="0 0 641 392" fill="none" xmlns="http://www.w3.org/2000/svg">
<path d="M150.535 370.139L124.888 370.139C121.084 370.139 118 367.055 118 363.25V363.25" stroke="#BED73C" stroke-width="1.77778" stroke-linecap="round" stroke-linejoin="round" stroke-dasharray="3.56 3.56"/>
<path d="M162.753 59.3047V24.2132C162.753 20.4088 165.837 17.3247 169.641 17.3247V17.3247" stroke="#BED73C" stroke-width="1.77778" stroke-linecap="round" stroke-linejoin="round" stroke-dasharray="3.56 3.56"/>
<path d="M423.606 29.0578V20.3211C423.606 16.3937 420.423 13.21 416.495 13.21H414.874" stroke="#BED73C" stroke-width="1.77778" stroke-linecap="round" stroke-linejoin="round" stroke-dasharray="3.56 3.56"/>
<g opacity="0.5">
<path d="M187.008 20.0165L184.228 17.2365L183.281 18.1765L187.008 21.9031L195.008 13.9031L194.068 12.9631L187.008 20.0165Z" fill="white"/>
<path d="M229.249 50.7901L226.469 48.0101L225.522 48.9501L229.249 52.6768L237.249 44.6768L236.309 43.7368L229.249 50.7901Z" fill="white"/>
</g>
<path d="M166.042 372.832C165.309 372.832 164.709 373.432 164.709 374.165C164.709 374.898 165.309 375.498 166.042 375.498C166.776 375.498 167.376 374.898 167.376 374.165C167.376 373.432 166.776 372.832 166.042 372.832ZM174.042 372.832C173.309 372.832 172.709 373.432 172.709 374.165C172.709 374.898 173.309 375.498 174.042 375.498C174.776 375.498 175.376 374.898 175.376 374.165C175.376 373.432 174.776 372.832 174.042 372.832ZM170.042 372.832C169.309 372.832 168.709 373.432 168.709 374.165C168.709 374.898 169.309 375.498 170.042 375.498C170.776 375.498 171.376 374.898 171.376 374.165C171.376 373.432 170.776 372.832 170.042 372.832Z" fill="#3C3E3E"/>
<path d="M67.4896 80.0566C66.7563 80.0566 66.1562 80.6566 66.1562 81.39C66.1562 82.1233 66.7563 82.7233 67.4896 82.7233C68.2229 82.7233 68.8229 82.1233 68.8229 81.39C68.8229 80.6566 68.2229 80.0566 67.4896 80.0566ZM75.4896 80.0566C74.7563 80.0566 74.1563 80.6566 74.1563 81.39C74.1563 82.1233 74.7563 82.7233 75.4896 82.7233C76.2229 82.7233 76.8229 82.1233 76.8229 81.39C76.8229 80.6566 76.2229 80.0566 75.4896 80.0566ZM71.4896 80.0566C70.7563 80.0566 70.1563 80.6566 70.1563 81.39C70.1563 82.1233 70.7563 82.7233 71.4896 82.7233C72.2229 82.7233 72.8229 82.1233 72.8229 81.39C72.8229 80.6566 72.2229 80.0566 71.4896 80.0566Z" fill="white"/>
<g clip-path="url(#clip0_6286_133124)">
<path d="M161.235 150.051C162.312 150.051 163.188 149.175 163.188 148.098V144.626C163.188 143.55 162.312 142.673 161.235 142.673H154.985C153.909 142.673 153.032 143.55 153.032 144.626V148.098C153.032 149.175 153.909 150.051 154.985 150.051H161.235ZM154.985 143.975H161.235C161.591 143.975 161.886 144.27 161.886 144.626V145.711H154.334V144.626C154.334 144.27 154.629 143.975 154.985 143.975ZM154.334 148.098V147.013H161.886V148.098C161.886 148.454 161.591 148.749 161.235 148.749H154.985C154.629 148.749 154.334 148.454 154.334 148.098Z" fill="#004357"/>
<path d="M168.614 154.826H166.661V140.503H168.614C168.848 140.503 169.065 140.373 169.178 140.173C169.291 139.965 169.291 139.721 169.169 139.513L166.565 135.173C166.444 134.973 166.235 134.86 166.01 134.86H154.985C154.629 134.86 154.334 135.155 154.334 135.511C154.334 135.867 154.629 136.162 154.985 136.162H165.645L167.468 139.201H152.815C152.459 139.201 152.164 139.496 152.164 139.852C152.164 140.208 152.459 140.503 152.815 140.503H165.359V154.826H156.07V153.307C156.07 152.23 155.194 151.353 154.117 151.353H146.305C145.228 151.353 144.352 152.23 144.352 153.307V154.826H125.471C125.115 154.826 124.82 155.121 124.82 155.477V158.081C124.82 158.437 125.115 158.732 125.471 158.732H168.614C168.97 158.732 169.265 158.437 169.265 158.081V155.477C169.265 155.121 168.97 154.826 168.614 154.826ZM145.654 153.307C145.654 152.951 145.949 152.655 146.305 152.655H154.117C154.473 152.655 154.768 152.951 154.768 153.307V154.826H145.654V153.307ZM167.963 157.43H126.122V156.128H167.963V157.43Z" fill="#004357"/>
<path d="M152.668 133.619L139.213 127.109C139.03 127.022 138.822 127.022 138.648 127.109L125.194 133.619C124.959 133.732 124.82 133.958 124.82 134.209V135.971L138.64 129.287C138.822 129.201 139.03 129.201 139.204 129.287L153.023 135.971V134.209C153.032 133.958 152.893 133.732 152.668 133.619Z" fill="#BED73C"/>
<path d="M144.351 138.333H142.398C142.042 138.333 141.747 138.628 141.747 138.984V143.975H144.351V138.333Z" fill="#BED73C"/>
<path d="M126.99 136.371V153.523H129.594V144.192C129.594 143.116 130.471 142.239 131.548 142.239H135.888C136.964 142.239 137.841 143.116 137.841 144.192V153.523H143.049V152.872C143.049 151.319 144.317 150.051 145.87 150.051H150.862V136.371L138.926 130.598L126.99 136.371ZM140.445 138.984C140.445 137.907 141.322 137.03 142.398 137.03H147.607C148.683 137.03 149.56 137.907 149.56 138.984V145.928C149.56 147.004 148.683 147.881 147.607 147.881H142.398C141.322 147.881 140.445 147.004 140.445 145.928V138.984Z" fill="#BED73C"/>
<path d="M148.257 138.984C148.257 138.628 147.962 138.333 147.606 138.333H145.653V143.975H148.257V138.984Z" fill="#BED73C"/>
<path d="M142.398 146.579H147.606C147.962 146.579 148.257 146.284 148.257 145.928V145.277H141.747V145.928C141.747 146.284 142.042 146.579 142.398 146.579Z" fill="#BED73C"/>
<path d="M135.888 143.541H131.548C131.192 143.541 130.896 143.836 130.896 144.192V153.523H136.539V144.192C136.539 143.836 136.244 143.541 135.888 143.541ZM135.671 149.4C135.671 149.756 135.376 150.051 135.02 150.051C134.664 150.051 134.369 149.756 134.369 149.4V147.664C134.369 147.308 134.664 147.013 135.02 147.013C135.376 147.013 135.671 147.308 135.671 147.664V149.4Z" fill="#BED73C"/>
</g>
<path d="M339.648 134.612V134.923H339.959H342.042C342.388 134.923 342.653 135.037 342.829 135.214C343.006 135.391 343.12 135.655 343.12 136.001V140.168C343.12 140.514 343.006 140.778 342.829 140.955C342.653 141.131 342.388 141.245 342.042 141.245H339.82H339.708L339.621 141.317L332.121 147.567L332.009 147.661V147.806V156.834C332.009 157.18 331.895 157.444 331.718 157.621C331.541 157.798 331.277 157.912 330.931 157.912H314.265C313.919 157.912 313.655 157.798 313.478 157.621C313.301 157.444 313.187 157.18 313.187 156.834V147.806V147.661L313.075 147.567L305.575 141.317L305.488 141.245H305.376H303.154C302.808 141.245 302.543 141.131 302.367 140.955C302.19 140.778 302.076 140.514 302.076 140.168V136.001C302.076 135.655 302.19 135.391 302.367 135.214C302.543 135.037 302.808 134.923 303.154 134.923H305.237H305.548V134.612V133.223C305.548 132.877 305.662 132.613 305.839 132.436C306.016 132.259 306.28 132.145 306.626 132.145C306.972 132.145 307.236 132.259 307.413 132.436C307.59 132.613 307.704 132.877 307.704 133.223V134.612V134.923H308.015H309.404H309.715V134.612V133.223C309.715 132.877 309.829 132.613 310.005 132.436C310.182 132.259 310.446 132.145 310.792 132.145C311.138 132.145 311.403 132.259 311.579 132.436C311.756 132.613 311.87 132.877 311.87 133.223V134.612V134.923H312.181H314.959C315.305 134.923 315.569 135.037 315.746 135.214C315.923 135.391 316.037 135.655 316.037 136.001C316.037 136.347 315.923 136.611 315.746 136.788C315.569 136.965 315.305 137.079 314.959 137.079H304.542H304.231V137.39V138.779V139.09H304.542H314.959C315.305 139.09 315.569 139.204 315.746 139.381C315.923 139.557 316.037 139.822 316.037 140.168C316.037 140.514 315.923 140.778 315.746 140.955C315.569 141.131 315.305 141.245 314.959 141.245H309.82H308.961L309.621 141.795L314.621 145.962L314.708 146.034H314.82H330.376H330.488L330.575 145.962L335.575 141.795L336.235 141.245H335.376H330.237C329.891 141.245 329.627 141.131 329.45 140.955C329.273 140.778 329.159 140.514 329.159 140.168C329.159 139.822 329.273 139.557 329.45 139.381C329.627 139.204 329.891 139.09 330.237 139.09H340.654H340.965V138.779V137.39V137.079H340.654H330.237C329.891 137.079 329.627 136.965 329.45 136.788C329.273 136.611 329.159 136.347 329.159 136.001C329.159 135.655 329.273 135.391 329.45 135.214C329.627 135.037 329.891 134.923 330.237 134.923H333.015H333.326V134.612V133.223C333.326 132.877 333.44 132.613 333.617 132.436C333.793 132.259 334.058 132.145 334.404 132.145C334.75 132.145 335.014 132.259 335.19 132.436C335.367 132.613 335.481 132.877 335.481 133.223V134.612V134.923H335.792H337.181H337.492V134.612V133.223C337.492 132.877 337.606 132.613 337.783 132.436C337.96 132.259 338.224 132.145 338.57 132.145C338.916 132.145 339.18 132.259 339.357 132.436C339.534 132.613 339.648 132.877 339.648 133.223V134.612ZM329.542 155.756H329.854V155.445V148.501V148.19H329.542H315.654H315.342V148.501V155.445V155.756H315.654H329.542Z" fill="#004357" stroke="white" stroke-width="0.622222"/>
<path d="M318.709 153.362H319.404C320.237 153.362 320.793 152.806 320.793 151.973C320.793 151.14 320.237 150.584 319.404 150.584H318.709C317.876 150.584 317.32 151.14 317.32 151.973C317.32 152.806 318.015 153.362 318.709 153.362Z" fill="#004357"/>
<path d="M325.654 153.362H326.348C327.181 153.362 327.737 152.806 327.737 151.973C327.737 151.14 327.181 150.584 326.348 150.584H325.654C324.82 150.584 324.265 151.14 324.265 151.973C324.265 152.806 324.959 153.362 325.654 153.362Z" fill="#004357"/>
<path d="M326.765 116.556H318.432C317.599 116.556 317.043 117.112 317.043 117.945C317.043 118.779 317.599 119.334 318.432 119.334H319.821V142.945H325.376V119.334H326.765C327.599 119.334 328.154 118.779 328.154 117.945C328.154 117.112 327.599 116.556 326.765 116.556Z" fill="#BED73C"/>
<path d="M338.571 122.112H337.182V120.723C337.182 119.89 336.627 119.334 335.793 119.334C334.96 119.334 334.404 119.89 334.404 120.723V122.112H333.015V120.723C333.015 119.89 332.46 119.334 331.627 119.334C330.793 119.334 330.238 119.89 330.238 120.723V122.112H328.154V127.668H338.571C339.404 127.668 339.96 127.112 339.96 126.279V123.501C339.96 122.668 339.404 122.112 338.571 122.112Z" fill="#BED73C"/>
<path d="M313.571 119.334C312.737 119.334 312.182 119.89 312.182 120.723V122.112H310.793V120.723C310.793 119.89 310.237 119.334 309.404 119.334C308.571 119.334 308.015 119.89 308.015 120.723V122.112H306.626C305.793 122.112 305.237 122.668 305.237 123.501V126.279C305.237 127.112 305.793 127.668 306.626 127.668H317.043V122.112H314.96V120.723C314.96 119.89 314.404 119.334 313.571 119.334Z" fill="#BED73C"/>
<g clip-path="url(#clip1_6286_133124)">
<path d="M517.979 138.332H515.887L517.831 129.921C517.996 129.218 517.831 128.497 517.38 127.933C516.937 127.369 516.269 127.048 515.548 127.048C514.454 127.048 513.508 127.794 513.265 128.862L511.078 138.332H483.907L481.72 128.862C481.477 127.794 480.531 127.048 479.437 127.048C478.716 127.048 478.048 127.369 477.605 127.933C477.154 128.497 476.998 129.218 477.154 129.921L479.098 138.332H477.44C476.364 138.332 475.487 139.209 475.487 140.285V142.456C475.487 142.811 475.782 143.107 476.138 143.107H477.189L479.22 155.285C479.55 157.282 481.26 158.732 483.291 158.732H512.128C514.15 158.732 515.861 157.282 516.199 155.285L518.23 143.107H519.281C519.637 143.107 519.932 142.811 519.932 142.456V140.285C519.932 139.209 519.055 138.332 517.979 138.332ZM514.532 129.157C514.645 128.68 515.062 128.35 515.548 128.35C515.869 128.35 516.164 128.489 516.364 128.74C516.564 128.992 516.633 129.313 516.564 129.626L514.55 138.332H512.414L514.532 129.157ZM478.421 129.626C478.352 129.313 478.421 128.992 478.621 128.74C478.821 128.489 479.116 128.35 479.437 128.35C479.923 128.35 480.34 128.68 480.453 129.157L482.571 138.332H480.435L478.421 129.626ZM514.914 155.068C514.689 156.431 513.517 157.43 512.128 157.43H483.291C481.902 157.43 480.739 156.44 480.505 155.068L478.508 143.107H516.902L514.914 155.068ZM518.63 141.805H476.789V140.285C476.789 139.93 477.085 139.634 477.44 139.634H517.979C518.335 139.634 518.63 139.93 518.63 140.285V141.805Z" fill="#004357"/>
<path d="M497.693 155.693H497.736C498.804 155.693 499.672 154.825 499.672 153.758V146.77C499.672 145.702 498.804 144.834 497.736 144.834H497.693C496.625 144.834 495.757 145.702 495.757 146.77V153.758C495.757 154.825 496.625 155.693 497.693 155.693ZM497.059 146.778C497.059 146.431 497.345 146.145 497.693 146.145H497.736C498.083 146.145 498.37 146.431 498.37 146.778V153.766C498.37 154.113 498.083 154.4 497.736 154.4H497.693C497.345 154.4 497.059 154.113 497.059 153.766V146.778Z" fill="#004357"/>
<path d="M486.894 154.105C487.059 155.025 487.857 155.693 488.795 155.693C489.368 155.693 489.906 155.442 490.279 154.999C490.652 154.556 490.8 153.983 490.696 153.419L489.428 146.431C489.263 145.511 488.465 144.843 487.527 144.843C486.954 144.843 486.416 145.095 486.043 145.537C485.67 145.98 485.522 146.553 485.626 147.117L486.894 154.105ZM487.041 146.371C487.111 146.284 487.267 146.145 487.527 146.145C487.831 146.145 488.092 146.362 488.144 146.666L489.411 153.654C489.454 153.905 489.342 154.088 489.272 154.166C489.203 154.252 489.046 154.391 488.786 154.391C488.482 154.391 488.222 154.174 488.17 153.871L486.902 146.883C486.859 146.631 486.972 146.457 487.041 146.371Z" fill="#004357"/>
<path d="M506.625 155.693C507.563 155.693 508.361 155.025 508.526 154.105L509.794 147.117C509.898 146.553 509.741 145.971 509.377 145.537C509.012 145.103 508.465 144.843 507.892 144.843C506.955 144.843 506.156 145.511 505.991 146.431L504.724 153.419C504.62 153.983 504.776 154.565 505.141 154.999C505.505 155.433 506.052 155.693 506.625 155.693ZM506 153.645L507.267 146.657C507.32 146.353 507.58 146.136 507.884 146.136C508.144 146.136 508.3 146.275 508.37 146.362C508.439 146.449 508.552 146.622 508.509 146.874L507.241 153.862C507.189 154.166 506.929 154.383 506.625 154.383C506.365 154.383 506.208 154.244 506.139 154.157C506.07 154.079 505.957 153.905 506 153.645Z" fill="#004357"/>
<path d="M497.215 131.44C495.956 128.61 494.22 127.048 492.319 127.048C490.418 127.048 488.682 128.61 487.423 131.44C486.711 133.037 486.191 134.947 485.896 137.03H498.743C498.448 134.947 497.927 133.037 497.215 131.44ZM491.06 132.056H493.665C494.021 132.056 494.316 132.351 494.316 132.707C494.316 133.063 494.021 133.358 493.665 133.358H491.06C490.705 133.358 490.409 133.063 490.409 132.707C490.409 132.351 490.696 132.056 491.06 132.056ZM494.533 136.831H490.192C489.836 136.831 489.541 136.535 489.541 136.18C489.541 135.824 489.836 135.529 490.192 135.529H494.533C494.889 135.529 495.184 135.824 495.184 136.18C495.184 136.535 494.889 136.831 494.533 136.831Z" fill="#BED73C"/>
<path d="M501.338 136.371C501 136.249 500.826 135.876 500.948 135.537C501.069 135.199 501.443 135.025 501.781 135.147L505.861 136.631C506.052 136.7 506.191 136.848 506.252 137.03H509.698C509.819 135.867 509.854 134.747 509.785 133.714C509.568 130.624 508.474 128.558 506.686 127.916C504.906 127.265 502.745 128.133 500.592 130.364C500.028 130.945 499.489 131.605 498.96 132.325C499.455 133.749 499.828 135.338 500.054 137.03H503.144L501.338 136.371ZM502.953 132.568C503.075 132.23 503.448 132.056 503.786 132.178L506.234 133.072C506.573 133.193 506.746 133.567 506.625 133.905C506.529 134.166 506.278 134.331 506.017 134.331C505.939 134.331 505.87 134.322 505.792 134.287L503.344 133.393C503.005 133.28 502.831 132.907 502.953 132.568Z" fill="#BED73C"/>
</g>
<g clip-path="url(#clip2_6286_133124)">
<path d="M168.614 282.901H167.659V279.211C167.659 277.414 166.201 275.956 164.404 275.956H158.935L156.6 271.295C155.897 269.888 154.482 269.012 152.911 269.012H135.202C133.31 269.012 131.661 270.296 131.201 272.137L130.246 275.956H129.681C127.885 275.956 126.426 277.414 126.426 279.211V282.901H125.471C125.115 282.901 124.82 283.196 124.82 283.552V286.156C124.82 286.512 125.115 286.807 125.471 286.807H129.951C130.263 288.769 131.973 290.279 134.022 290.279C136.07 290.279 137.78 288.769 138.093 286.807H154.994C155.306 288.769 157.016 290.279 159.065 290.279C161.114 290.279 162.824 288.769 163.136 286.807H168.614C168.97 286.807 169.265 286.512 169.265 286.156V283.552C169.265 283.196 168.97 282.901 168.614 282.901ZM163.319 282.901V281.816C163.319 281.217 163.805 280.73 164.404 280.73H166.357V282.901H163.319ZM166.357 279.211V279.428H164.404C163.084 279.428 162.016 280.496 162.016 281.816V282.901H147.694V277.258H164.404C165.48 277.258 166.357 278.135 166.357 279.211ZM146.391 277.258V282.901H134.673V277.258H146.391ZM138.006 275.956V270.314H146.391V275.956H138.006ZM155.437 271.876L157.477 275.956H147.694V270.314H152.911C153.987 270.314 154.951 270.913 155.437 271.876ZM132.459 272.449C132.772 271.191 133.9 270.314 135.194 270.314H136.695V275.956H131.582L132.459 272.449ZM127.728 279.211C127.728 278.135 128.605 277.258 129.681 277.258H133.371V282.901H127.728V279.211ZM134.022 288.977C132.694 288.977 131.574 288.048 131.279 286.807H136.765C136.47 288.048 135.35 288.977 134.022 288.977ZM159.065 288.977C157.737 288.977 156.617 288.048 156.322 286.807H161.808C161.513 288.048 160.393 288.977 159.065 288.977ZM167.963 285.505H126.122V284.203H167.963V285.505Z" fill="#004357"/>
<path d="M149.647 281.165C150.003 281.165 150.298 280.869 150.298 280.513V279.645C150.298 279.29 150.003 278.994 149.647 278.994C149.291 278.994 148.996 279.29 148.996 279.645V280.513C148.996 280.869 149.291 281.165 149.647 281.165Z" fill="#004357"/>
<path d="M144.438 281.165C144.794 281.165 145.089 280.869 145.089 280.513V279.645C145.089 279.29 144.794 278.994 144.438 278.994C144.082 278.994 143.787 279.29 143.787 279.645V280.513C143.787 280.869 144.082 281.165 144.438 281.165Z" fill="#004357"/>
<path d="M160.723 256.868C160.472 257.12 160.055 257.12 159.803 256.868L158.536 255.601L157.894 256.243L159.942 258.292C160.029 258.379 160.142 258.422 160.263 258.422C160.385 258.422 160.498 258.379 160.585 258.292L164.317 254.559L163.675 253.917L160.723 256.868Z" fill="#BED73C"/>
<path d="M168.848 248.821L161.348 245.879C161.192 245.818 161.027 245.818 160.871 245.879L153.371 248.821C153.119 248.917 152.954 249.16 152.954 249.429V254.576C152.954 257.094 153.701 259.524 155.124 261.599C156.539 263.682 158.527 265.262 160.871 266.182C160.949 266.208 161.027 266.226 161.105 266.226C161.183 266.226 161.27 266.208 161.34 266.182C163.683 265.262 165.671 263.682 167.086 261.599C168.501 259.516 169.256 257.094 169.256 254.576V249.429C169.265 249.16 169.1 248.925 168.848 248.821ZM165.706 255.019L161.513 259.212C161.183 259.542 160.741 259.724 160.272 259.724C159.803 259.724 159.36 259.542 159.03 259.212L156.522 256.703C156.4 256.582 156.331 256.417 156.331 256.243C156.331 256.07 156.4 255.905 156.522 255.783L158.084 254.221C158.336 253.969 158.753 253.969 159.004 254.221L160.272 255.488L163.223 252.537C163.475 252.285 163.892 252.285 164.143 252.537L165.706 254.099C165.827 254.221 165.897 254.386 165.897 254.559C165.897 254.733 165.827 254.898 165.706 255.019Z" fill="#BED73C"/>
</g>
<g clip-path="url(#clip3_6286_133124)">
<path d="M322.599 251.334C313.866 251.334 306.757 258.444 306.757 267.176V271.082C306.757 271.438 307.052 271.734 307.408 271.734H307.486C307.608 271.734 307.729 271.699 307.833 271.629L308.467 271.23C309.899 270.327 311.731 270.457 313.016 271.551L313.042 271.577C313.163 271.681 313.311 271.734 313.467 271.734H313.597C313.727 271.734 313.858 271.69 313.962 271.621L314.17 271.473C315.55 270.536 317.364 270.579 318.684 271.595C318.797 271.681 318.936 271.725 319.083 271.725H319.222C319.344 271.725 319.474 271.69 319.578 271.621L320.498 271.022C320.542 270.996 320.585 270.97 320.628 270.944V277.463C320.628 277.819 320.924 278.114 321.279 278.114C321.635 278.114 321.93 277.819 321.93 277.463V270.466C322.364 270.397 322.799 270.397 323.233 270.466V277.463C323.233 277.819 323.528 278.114 323.884 278.114C324.239 278.114 324.535 277.819 324.535 277.463V270.952C324.578 270.978 324.621 271.004 324.665 271.03L325.585 271.629C325.689 271.699 325.811 271.734 325.941 271.734H326.08C326.219 271.734 326.366 271.69 326.479 271.603C327.807 270.588 329.621 270.536 330.993 271.482L331.201 271.629C331.305 271.707 331.436 271.742 331.566 271.742H331.696C331.852 271.742 332 271.69 332.121 271.586L332.147 271.56C333.441 270.466 335.264 270.336 336.696 271.239L337.33 271.638C337.434 271.707 337.555 271.742 337.677 271.742H337.755C338.111 271.742 338.406 271.447 338.406 271.091V267.185C338.441 258.444 331.331 251.334 322.599 251.334ZM308.059 269.963V267.176C308.059 262.306 310.463 257.992 314.144 255.353C313.154 260.839 312.903 267.263 312.842 269.885C311.349 269.129 309.561 269.138 308.059 269.963ZM314.135 270.006C314.196 267.306 314.465 260.093 315.654 254.407C316.835 253.765 318.111 253.279 319.456 252.984C317.963 258.461 318.215 266.794 318.371 269.919C317.017 269.338 315.481 269.364 314.135 270.006ZM322.599 269.121C321.627 269.121 320.654 269.39 319.804 269.937L319.682 270.015C319.526 267.003 319.231 258.01 320.88 252.732C321.444 252.662 322.017 252.628 322.599 252.628C323.18 252.628 323.753 252.662 324.318 252.732C325.958 258.01 325.672 267.003 325.516 270.015L325.394 269.937C324.543 269.39 323.571 269.121 322.599 269.121ZM326.826 269.911C326.991 266.794 327.243 258.461 325.741 252.975C327.087 253.27 328.363 253.756 329.543 254.398C330.724 260.084 330.993 267.298 331.062 269.997C329.717 269.364 328.18 269.338 326.826 269.911ZM337.139 269.963C335.637 269.138 333.849 269.129 332.356 269.885C332.295 267.272 332.043 260.848 331.054 255.353C334.734 257.992 337.139 262.306 337.139 267.176V269.963Z" fill="#004357"/>
<path d="M330.263 280.622C329.178 279.477 327.737 278.852 326.192 278.852C324.864 278.852 323.614 279.32 322.598 280.18C321.583 279.32 320.324 278.852 319.005 278.852C317.468 278.852 316.019 279.485 314.933 280.622C313.302 282.35 312.867 284.867 313.649 287.011H317.173L318.805 284.563C318.935 284.372 319.152 284.26 319.387 284.277C319.621 284.294 319.829 284.433 319.925 284.641L321.939 288.695L324.109 282.662C324.196 282.419 324.43 282.246 324.69 282.237C324.951 282.228 325.194 282.367 325.307 282.602L327.433 287.011H331.548C332.321 284.867 331.895 282.35 330.263 280.622Z" fill="#BED73C"/>
<path d="M326.435 287.949L324.812 284.572L322.651 290.57C322.564 290.813 322.338 290.987 322.078 290.996C322.069 290.996 322.052 290.996 322.043 290.996C321.8 290.996 321.574 290.857 321.461 290.631L319.257 286.23L318.059 288.027C317.937 288.209 317.737 288.313 317.52 288.313H314.309C314.491 288.591 314.699 288.852 314.934 289.103L320.324 294.789C320.932 295.423 321.73 295.779 322.599 295.779C323.467 295.779 324.265 295.431 324.873 294.789L330.263 289.103C330.498 288.852 330.706 288.591 330.888 288.313H327.026C326.774 288.313 326.548 288.174 326.435 287.949Z" fill="#BED73C"/>
</g>
<g clip-path="url(#clip4_6286_133124)">
<path d="M517.545 258.291H515.852V254.602C515.852 253.282 514.784 252.214 513.465 252.214H477.874C476.555 252.214 475.487 253.282 475.487 254.602V275.435C475.487 276.754 476.555 277.822 477.874 277.822H479.567V281.511C479.567 282.831 480.635 283.898 481.954 283.898H517.545C518.864 283.898 519.932 282.831 519.932 281.511V260.678C519.932 259.358 518.864 258.291 517.545 258.291ZM476.789 275.435V254.602C476.789 254.003 477.275 253.516 477.874 253.516H513.465C514.064 253.516 514.55 254.003 514.55 254.602V275.435C514.55 276.034 514.064 276.52 513.465 276.52H477.874C477.275 276.52 476.789 276.034 476.789 275.435ZM518.63 281.511C518.63 282.11 518.144 282.596 517.545 282.596H481.954C481.355 282.596 480.869 282.11 480.869 281.511V277.822H513.465C514.784 277.822 515.852 276.754 515.852 275.435V259.593H517.545C518.144 259.593 518.63 260.079 518.63 260.678V281.511Z" fill="#004357"/>
<path d="M512.162 259.159H511.294C510.218 259.159 509.341 258.282 509.341 257.206V256.338C509.341 255.982 509.046 255.687 508.69 255.687C508.334 255.687 508.039 255.982 508.039 256.338V257.206C508.039 259.002 509.497 260.461 511.294 260.461H512.162C512.518 260.461 512.813 260.166 512.813 259.81C512.813 259.454 512.518 259.159 512.162 259.159Z" fill="#004357"/>
<path d="M512.162 269.575H511.294C509.497 269.575 508.039 271.034 508.039 272.831V273.699C508.039 274.055 508.334 274.35 508.69 274.35C509.046 274.35 509.341 274.055 509.341 273.699V272.831C509.341 271.754 510.218 270.878 511.294 270.878H512.162C512.518 270.878 512.813 270.582 512.813 270.226C512.813 269.871 512.518 269.575 512.162 269.575Z" fill="#004357"/>
<path d="M482.649 255.687C482.293 255.687 481.998 255.982 481.998 256.338V257.206C481.998 258.282 481.121 259.159 480.044 259.159H479.176C478.821 259.159 478.525 259.454 478.525 259.81C478.525 260.166 478.821 260.461 479.176 260.461H480.044C481.841 260.461 483.3 259.002 483.3 257.206V256.338C483.3 255.982 483.005 255.687 482.649 255.687Z" fill="#004357"/>
<path d="M480.044 269.575H479.176C478.821 269.575 478.525 269.871 478.525 270.226C478.525 270.582 478.821 270.878 479.176 270.878H480.044C481.121 270.878 481.998 271.754 481.998 272.831V273.699C481.998 274.055 482.293 274.35 482.649 274.35C483.005 274.35 483.3 274.055 483.3 273.699V272.831C483.3 271.034 481.841 269.575 480.044 269.575Z" fill="#004357"/>
<path d="M507.866 279.558H505.696C505.34 279.558 505.045 279.853 505.045 280.209C505.045 280.565 505.34 280.86 505.696 280.86H507.866C508.222 280.86 508.517 280.565 508.517 280.209C508.517 279.853 508.222 279.558 507.866 279.558Z" fill="#004357"/>
<path d="M500.531 279.558H498.361C498.005 279.558 497.71 279.853 497.71 280.209C497.71 280.565 498.005 280.86 498.361 280.86H500.531C500.887 280.86 501.182 280.565 501.182 280.209C501.182 279.853 500.887 279.558 500.531 279.558Z" fill="#004357"/>
<path d="M493.195 279.558H491.025C490.669 279.558 490.374 279.853 490.374 280.209C490.374 280.565 490.669 280.86 491.025 280.86H493.195C493.551 280.86 493.846 280.565 493.846 280.209C493.846 279.853 493.551 279.558 493.195 279.558Z" fill="#004357"/>
<path d="M485.86 279.558H483.69C483.334 279.558 483.039 279.853 483.039 280.209C483.039 280.565 483.334 280.86 483.69 280.86H485.86C486.216 280.86 486.511 280.565 486.511 280.209C486.511 279.853 486.216 279.558 485.86 279.558Z" fill="#004357"/>
<path d="M515.201 279.558H513.031C512.675 279.558 512.38 279.853 512.38 280.209C512.38 280.565 512.675 280.86 513.031 280.86H515.201C515.557 280.86 515.852 280.565 515.852 280.209C515.852 279.853 515.557 279.558 515.201 279.558Z" fill="#004357"/>
<path d="M495.67 256.555C490.999 256.555 487.206 260.348 487.206 265.018C487.206 269.688 490.999 273.482 495.67 273.482C500.34 273.482 504.133 269.688 504.133 265.018C504.133 260.348 500.34 256.555 495.67 256.555ZM497.319 268.699V269.793C497.319 270.148 497.024 270.444 496.668 270.444C496.312 270.444 496.017 270.148 496.017 269.793V268.855H495.331V269.793C495.331 270.148 495.036 270.444 494.68 270.444C494.324 270.444 494.029 270.148 494.029 269.793V268.855H493.769C493.413 268.855 493.118 268.56 493.118 268.204C493.118 267.848 493.413 267.553 493.769 267.553H496.52C497.015 267.553 497.414 267.128 497.414 266.615C497.414 266.103 497.015 265.678 496.52 265.678H494.828C493.621 265.678 492.631 264.671 492.631 263.438C492.631 262.492 493.213 261.676 494.02 261.355V260.244C494.02 259.888 494.315 259.593 494.671 259.593C495.027 259.593 495.322 259.888 495.322 260.244V261.181H496.008V260.244C496.008 259.888 496.303 259.593 496.659 259.593C497.015 259.593 497.31 259.888 497.31 260.244V261.181H497.571C497.927 261.181 498.222 261.477 498.222 261.832C498.222 262.188 497.927 262.484 497.571 262.484H494.819C494.324 262.484 493.925 262.909 493.925 263.421C493.925 263.942 494.324 264.359 494.819 264.359H496.512C497.718 264.359 498.708 265.365 498.708 266.598C498.708 267.553 498.126 268.369 497.319 268.699Z" fill="#BED73C"/>
</g>
<defs>
<clipPath id="clip0_6286_133124">
<rect width="44.4444" height="44.4444" fill="white" transform="translate(124.82 120.667)"/>
</clipPath>
<clipPath id="clip1_6286_133124">
<rect width="44.4444" height="44.4444" fill="white" transform="translate(475.487 120.667)"/>
</clipPath>
<clipPath id="clip2_6286_133124">
<rect width="44.4444" height="44.4444" fill="white" transform="translate(124.82 245.834)"/>
</clipPath>
<clipPath id="clip3_6286_133124">
<rect width="44.4444" height="44.4444" fill="white" transform="translate(300.376 251.334)"/>
</clipPath>
<clipPath id="clip4_6286_133124">
<rect width="44.4444" height="44.4444" fill="white" transform="translate(475.487 245.834)"/>
</clipPath>
</defs>
</svg>
