<svg width="721" height="441" viewBox="0 0 721 441" fill="none" xmlns="http://www.w3.org/2000/svg">
<path d="M169.268 416.406L140.416 416.406C136.136 416.406 132.666 412.937 132.666 408.657V408.657" stroke="#BED73C" stroke-width="2" stroke-linecap="round" stroke-linejoin="round" stroke-dasharray="4 4"/>
<path d="M183.014 66.7178V27.2397C183.014 22.9598 186.483 19.4902 190.763 19.4902V19.4902" stroke="#BED73C" stroke-width="2" stroke-linecap="round" stroke-linejoin="round" stroke-dasharray="4 4"/>
<path d="M476.474 32.6902V22.8613C476.474 18.443 472.892 14.8613 468.474 14.8613H466.649" stroke="#BED73C" stroke-width="2" stroke-linecap="round" stroke-linejoin="round" stroke-dasharray="4 4"/>
<g opacity="0.5">
<path d="M210.302 22.5185L207.174 19.391L206.109 20.4485L210.302 24.641L219.302 15.641L218.244 14.5835L210.302 22.5185Z" fill="white"/>
<path d="M257.823 57.1386L254.696 54.0111L253.631 55.0686L257.823 59.2611L266.823 50.2611L265.766 49.2036L257.823 57.1386Z" fill="white"/>
</g>
<path d="M186.714 419.436C185.889 419.436 185.214 420.111 185.214 420.936C185.214 421.761 185.889 422.436 186.714 422.436C187.539 422.436 188.214 421.761 188.214 420.936C188.214 420.111 187.539 419.436 186.714 419.436ZM195.714 419.436C194.889 419.436 194.214 420.111 194.214 420.936C194.214 421.761 194.889 422.436 195.714 422.436C196.539 422.436 197.214 421.761 197.214 420.936C197.214 420.111 196.539 419.436 195.714 419.436ZM191.214 419.436C190.389 419.436 189.714 420.111 189.714 420.936C189.714 421.761 190.389 422.436 191.214 422.436C192.039 422.436 192.714 421.761 192.714 420.936C192.714 420.111 192.039 419.436 191.214 419.436Z" fill="#3C3E3E"/>
<path d="M75.8418 90.0635C75.0168 90.0635 74.3418 90.7385 74.3418 91.5635C74.3418 92.3885 75.0168 93.0635 75.8418 93.0635C76.6668 93.0635 77.3418 92.3885 77.3418 91.5635C77.3418 90.7385 76.6668 90.0635 75.8418 90.0635ZM84.8418 90.0635C84.0168 90.0635 83.3418 90.7385 83.3418 91.5635C83.3418 92.3885 84.0168 93.0635 84.8418 93.0635C85.6668 93.0635 86.3418 92.3885 86.3418 91.5635C86.3418 90.7385 85.6668 90.0635 84.8418 90.0635ZM80.3418 90.0635C79.5168 90.0635 78.8418 90.7385 78.8418 91.5635C78.8418 92.3885 79.5168 93.0635 80.3418 93.0635C81.1668 93.0635 81.8418 92.3885 81.8418 91.5635C81.8418 90.7385 81.1668 90.0635 80.3418 90.0635Z" fill="white"/>
<g clip-path="url(#clip0_6286_132920)">
<path d="M181.306 168.87C182.517 168.87 183.503 167.884 183.503 166.673V162.767C183.503 161.556 182.517 160.569 181.306 160.569H174.274C173.063 160.569 172.077 161.556 172.077 162.767V166.673C172.077 167.884 173.063 168.87 174.274 168.87H181.306ZM174.274 162.034H181.306C181.706 162.034 182.038 162.366 182.038 162.767V163.987H173.542V162.767C173.542 162.366 173.874 162.034 174.274 162.034ZM173.542 166.673V165.452H182.038V166.673C182.038 167.073 181.706 167.405 181.306 167.405H174.274C173.874 167.405 173.542 167.073 173.542 166.673Z" fill="#004357"/>
<path d="M189.606 174.241H187.409V158.128H189.606C189.87 158.128 190.114 157.981 190.241 157.757C190.368 157.522 190.368 157.249 190.231 157.015L187.302 152.132C187.165 151.907 186.931 151.78 186.677 151.78H174.274C173.874 151.78 173.542 152.112 173.542 152.513C173.542 152.913 173.874 153.245 174.274 153.245H186.267L188.317 156.663H171.833C171.433 156.663 171.101 156.995 171.101 157.396C171.101 157.796 171.433 158.128 171.833 158.128H185.944V174.241H175.495V172.532C175.495 171.321 174.509 170.335 173.298 170.335H164.509C163.298 170.335 162.312 171.321 162.312 172.532V174.241H141.071C140.671 174.241 140.339 174.573 140.339 174.974V177.903C140.339 178.304 140.671 178.636 141.071 178.636H189.606C190.007 178.636 190.339 178.304 190.339 177.903V174.974C190.339 174.573 190.007 174.241 189.606 174.241ZM163.776 172.532C163.776 172.132 164.108 171.8 164.509 171.8H173.298C173.698 171.8 174.03 172.132 174.03 172.532V174.241H163.776V172.532ZM188.874 177.171H141.804V175.706H188.874V177.171Z" fill="#004357"/>
<path d="M171.667 150.384L156.53 143.06C156.325 142.962 156.091 142.962 155.896 143.06L140.759 150.384C140.495 150.511 140.339 150.765 140.339 151.048V153.03L155.886 145.511C156.091 145.413 156.325 145.413 156.521 145.511L172.067 153.03V151.048C172.077 150.765 171.921 150.511 171.667 150.384Z" fill="#BED73C"/>
<path d="M162.312 155.687H160.114C159.714 155.687 159.382 156.019 159.382 156.419V162.034H162.312V155.687Z" fill="#BED73C"/>
<path d="M142.78 153.479V172.776H145.71V162.278C145.71 161.067 146.696 160.081 147.907 160.081H152.79C154.001 160.081 154.987 161.067 154.987 162.278V172.776H160.847V172.044C160.847 170.296 162.272 168.87 164.021 168.87H169.636V153.479L156.208 146.985L142.78 153.479ZM157.917 156.419C157.917 155.208 158.903 154.222 160.114 154.222H165.974C167.185 154.222 168.171 155.208 168.171 156.419V164.231C168.171 165.442 167.185 166.429 165.974 166.429H160.114C158.903 166.429 157.917 165.442 157.917 164.231V156.419Z" fill="#BED73C"/>
<path d="M166.706 156.419C166.706 156.019 166.374 155.687 165.974 155.687H163.776V162.034H166.706V156.419Z" fill="#BED73C"/>
<path d="M160.114 164.964H165.974C166.374 164.964 166.706 164.632 166.706 164.231V163.499H159.382V164.231C159.382 164.632 159.714 164.964 160.114 164.964Z" fill="#BED73C"/>
<path d="M152.79 161.546H147.907C147.507 161.546 147.175 161.878 147.175 162.278V172.776H153.522V162.278C153.522 161.878 153.19 161.546 152.79 161.546ZM152.546 168.138C152.546 168.538 152.214 168.87 151.813 168.87C151.413 168.87 151.081 168.538 151.081 168.138V166.185C151.081 165.784 151.413 165.452 151.813 165.452C152.214 165.452 152.546 165.784 152.546 166.185V168.138Z" fill="#BED73C"/>
</g>
<path d="M382.02 151.688V152.038H382.37H384.714C385.103 152.038 385.4 152.167 385.599 152.366C385.798 152.565 385.926 152.862 385.926 153.251V157.938C385.926 158.328 385.798 158.625 385.599 158.824C385.4 159.023 385.103 159.151 384.714 159.151H382.214H382.087L381.99 159.232L373.552 166.263L373.426 166.368V166.532V176.688C373.426 177.078 373.298 177.375 373.099 177.574C372.9 177.773 372.603 177.901 372.214 177.901H353.464C353.075 177.901 352.778 177.773 352.579 177.574C352.38 177.375 352.251 177.078 352.251 176.688V166.532V166.368L352.125 166.263L343.688 159.232L343.591 159.151H343.464H340.964C340.575 159.151 340.278 159.023 340.079 158.824C339.88 158.625 339.751 158.328 339.751 157.938V153.251C339.751 152.862 339.88 152.565 340.079 152.366C340.278 152.167 340.575 152.038 340.964 152.038H343.308H343.658V151.688V150.126C343.658 149.737 343.786 149.44 343.985 149.241C344.184 149.042 344.481 148.913 344.87 148.913C345.259 148.913 345.556 149.042 345.755 149.241C345.954 149.44 346.083 149.737 346.083 150.126V151.688V152.038H346.433H347.995H348.345V151.688V150.126C348.345 149.737 348.473 149.44 348.672 149.241C348.871 149.042 349.168 148.913 349.558 148.913C349.947 148.913 350.244 149.042 350.443 149.241C350.642 149.44 350.77 149.737 350.77 150.126V151.688V152.038H351.12H354.245C354.634 152.038 354.931 152.167 355.13 152.366C355.329 152.565 355.458 152.862 355.458 153.251C355.458 153.64 355.329 153.937 355.13 154.136C354.931 154.335 354.634 154.463 354.245 154.463H342.526H342.176V154.813V156.376V156.726H342.526H354.245C354.634 156.726 354.931 156.854 355.13 157.053C355.329 157.252 355.458 157.549 355.458 157.938C355.458 158.328 355.329 158.625 355.13 158.824C354.931 159.023 354.634 159.151 354.245 159.151H348.464H347.497L348.24 159.77L353.865 164.457L353.962 164.538H354.089H371.589H371.716L371.813 164.457L377.438 159.77L378.181 159.151H377.214H371.433C371.043 159.151 370.746 159.023 370.547 158.824C370.348 158.625 370.22 158.328 370.22 157.938C370.22 157.549 370.348 157.252 370.547 157.053C370.746 156.854 371.043 156.726 371.433 156.726H383.151H383.501V156.376V154.813V154.463H383.151H371.433C371.043 154.463 370.746 154.335 370.547 154.136C370.348 153.937 370.22 153.64 370.22 153.251C370.22 152.862 370.348 152.565 370.547 152.366C370.746 152.167 371.043 152.038 371.433 152.038H374.558H374.908V151.688V150.126C374.908 149.737 375.036 149.44 375.235 149.241C375.434 149.042 375.731 148.913 376.12 148.913C376.509 148.913 376.806 149.042 377.005 149.241C377.204 149.44 377.333 149.737 377.333 150.126V151.688V152.038H377.683H379.245H379.595V151.688V150.126C379.595 149.737 379.723 149.44 379.922 149.241C380.121 149.042 380.418 148.913 380.808 148.913C381.197 148.913 381.494 149.042 381.693 149.241C381.892 149.44 382.02 149.737 382.02 150.126V151.688ZM370.651 175.476H371.001V175.126V167.313V166.963H370.651H355.026H354.676V167.313V175.126V175.476H355.026H370.651Z" fill="#004357" stroke="white" stroke-width="0.7"/>
<path d="M358.464 172.782H359.245C360.183 172.782 360.808 172.157 360.808 171.22C360.808 170.282 360.183 169.657 359.245 169.657H358.464C357.526 169.657 356.901 170.282 356.901 171.22C356.901 172.157 357.683 172.782 358.464 172.782Z" fill="#004357"/>
<path d="M366.276 172.782H367.058C367.995 172.782 368.62 172.157 368.62 171.22C368.62 170.282 367.995 169.657 367.058 169.657H366.276C365.339 169.657 364.714 170.282 364.714 171.22C364.714 172.157 365.495 172.782 366.276 172.782Z" fill="#004357"/>
<path d="M367.526 131.376H358.151C357.214 131.376 356.589 132.001 356.589 132.938C356.589 133.876 357.214 134.501 358.151 134.501H359.714V161.063H365.964V134.501H367.526C368.464 134.501 369.089 133.876 369.089 132.938C369.089 132.001 368.464 131.376 367.526 131.376Z" fill="#BED73C"/>
<path d="M380.808 137.626H379.245V136.063C379.245 135.126 378.62 134.501 377.683 134.501C376.745 134.501 376.12 135.126 376.12 136.063V137.626H374.558V136.063C374.558 135.126 373.933 134.501 372.995 134.501C372.058 134.501 371.433 135.126 371.433 136.063V137.626H369.089V143.876H380.808C381.745 143.876 382.37 143.251 382.37 142.313V139.188C382.37 138.251 381.745 137.626 380.808 137.626Z" fill="#BED73C"/>
<path d="M352.683 134.501C351.745 134.501 351.12 135.126 351.12 136.063V137.626H349.558V136.063C349.558 135.126 348.933 134.501 347.995 134.501C347.058 134.501 346.433 135.126 346.433 136.063V137.626H344.87C343.933 137.626 343.308 138.251 343.308 139.188V142.313C343.308 143.251 343.933 143.876 344.87 143.876H356.589V137.626H354.245V136.063C354.245 135.126 353.62 134.501 352.683 134.501Z" fill="#BED73C"/>
<g clip-path="url(#clip1_6286_132920)">
<path d="M582.642 155.687H580.288L582.476 146.224C582.661 145.433 582.476 144.622 581.968 143.987C581.47 143.353 580.718 142.991 579.907 142.991C578.677 142.991 577.612 143.831 577.339 145.032L574.878 155.687H544.312L541.851 145.032C541.577 143.831 540.513 142.991 539.282 142.991C538.472 142.991 537.72 143.353 537.222 143.987C536.714 144.622 536.538 145.433 536.714 146.224L538.901 155.687H537.036C535.825 155.687 534.839 156.673 534.839 157.884V160.325C534.839 160.726 535.171 161.058 535.571 161.058H536.753L539.038 174.759C539.409 177.005 541.333 178.636 543.618 178.636H576.06C578.335 178.636 580.259 177.005 580.64 174.759L582.925 161.058H584.106C584.507 161.058 584.839 160.726 584.839 160.325V157.884C584.839 156.673 583.853 155.687 582.642 155.687ZM578.765 145.364C578.892 144.827 579.36 144.456 579.907 144.456C580.269 144.456 580.601 144.612 580.825 144.896C581.05 145.179 581.128 145.54 581.05 145.892L578.784 155.687H576.382L578.765 145.364ZM538.14 145.892C538.062 145.54 538.14 145.179 538.364 144.896C538.589 144.612 538.921 144.456 539.282 144.456C539.829 144.456 540.298 144.827 540.425 145.364L542.808 155.687H540.405L538.14 145.892ZM579.194 174.515C578.94 176.048 577.622 177.171 576.06 177.171H543.618C542.056 177.171 540.747 176.058 540.483 174.515L538.237 161.058H581.431L579.194 174.515ZM583.374 159.593H536.304V157.884C536.304 157.483 536.636 157.151 537.036 157.151H582.642C583.042 157.151 583.374 157.483 583.374 157.884V159.593Z" fill="#004357"/>
<path d="M559.819 175.218H559.868C561.069 175.218 562.046 174.241 562.046 173.04V165.179C562.046 163.978 561.069 163.001 559.868 163.001H559.819C558.618 163.001 557.642 163.978 557.642 165.179V173.04C557.642 174.241 558.618 175.218 559.819 175.218ZM559.106 165.188C559.106 164.798 559.429 164.476 559.819 164.476H559.868C560.259 164.476 560.581 164.798 560.581 165.188V173.05C560.581 173.44 560.259 173.763 559.868 173.763H559.819C559.429 173.763 559.106 173.44 559.106 173.05V165.188Z" fill="#004357"/>
<path d="M547.67 173.431C547.856 174.466 548.754 175.218 549.809 175.218C550.454 175.218 551.059 174.935 551.479 174.437C551.899 173.938 552.065 173.294 551.948 172.659L550.522 164.798C550.336 163.763 549.438 163.011 548.383 163.011C547.739 163.011 547.133 163.294 546.713 163.792C546.293 164.29 546.127 164.935 546.245 165.569L547.67 173.431ZM547.836 164.729C547.915 164.632 548.09 164.476 548.383 164.476C548.725 164.476 549.018 164.72 549.077 165.062L550.502 172.923C550.551 173.206 550.424 173.411 550.346 173.499C550.268 173.597 550.092 173.753 549.799 173.753C549.458 173.753 549.165 173.509 549.106 173.167L547.68 165.306C547.631 165.022 547.758 164.827 547.836 164.729Z" fill="#004357"/>
<path d="M569.869 175.218C570.923 175.218 571.822 174.466 572.007 173.431L573.433 165.569C573.55 164.935 573.375 164.28 572.964 163.792C572.554 163.304 571.939 163.011 571.294 163.011C570.24 163.011 569.341 163.763 569.156 164.798L567.73 172.659C567.613 173.294 567.789 173.948 568.199 174.437C568.609 174.925 569.224 175.218 569.869 175.218ZM569.166 172.913L570.591 165.052C570.65 164.71 570.943 164.466 571.285 164.466C571.578 164.466 571.753 164.622 571.832 164.72C571.91 164.817 572.037 165.013 571.988 165.296L570.562 173.157C570.503 173.499 570.21 173.743 569.869 173.743C569.576 173.743 569.4 173.587 569.322 173.489C569.244 173.401 569.117 173.206 569.166 172.913Z" fill="#004357"/>
<path d="M559.282 147.933C557.866 144.749 555.913 142.991 553.774 142.991C551.636 142.991 549.683 144.749 548.267 147.933C547.466 149.729 546.88 151.878 546.548 154.222H561.001C560.669 151.878 560.083 149.729 559.282 147.933ZM552.358 148.626H555.288C555.688 148.626 556.021 148.958 556.021 149.358C556.021 149.759 555.688 150.091 555.288 150.091H552.358C551.958 150.091 551.626 149.759 551.626 149.358C551.626 148.958 551.948 148.626 552.358 148.626ZM556.265 153.997H551.382C550.981 153.997 550.649 153.665 550.649 153.265C550.649 152.864 550.981 152.532 551.382 152.532H556.265C556.665 152.532 556.997 152.864 556.997 153.265C556.997 153.665 556.665 153.997 556.265 153.997Z" fill="#BED73C"/>
<path d="M563.921 153.48C563.54 153.343 563.345 152.923 563.481 152.542C563.618 152.161 564.038 151.966 564.419 152.103L569.009 153.773C569.224 153.851 569.38 154.017 569.448 154.222H573.325C573.462 152.913 573.501 151.653 573.423 150.491C573.179 147.015 571.948 144.691 569.937 143.968C567.935 143.235 565.503 144.212 563.081 146.722C562.446 147.376 561.841 148.118 561.245 148.929C561.802 150.53 562.222 152.318 562.476 154.222H565.952L563.921 153.48ZM565.737 149.202C565.874 148.821 566.294 148.626 566.675 148.763L569.429 149.769C569.81 149.905 570.005 150.325 569.868 150.706C569.761 150.999 569.478 151.185 569.185 151.185C569.097 151.185 569.019 151.175 568.931 151.136L566.177 150.13C565.796 150.003 565.601 149.583 565.737 149.202Z" fill="#BED73C"/>
</g>
<g clip-path="url(#clip2_6286_132920)">
<path d="M189.606 318.513H188.532V314.363C188.532 312.341 186.892 310.701 184.87 310.701H178.718L176.091 305.457C175.3 303.875 173.708 302.888 171.94 302.888H152.019C149.89 302.888 148.034 304.333 147.517 306.404L146.442 310.701H145.808C143.786 310.701 142.146 312.341 142.146 314.363V318.513H141.071C140.671 318.513 140.339 318.845 140.339 319.246V322.175C140.339 322.576 140.671 322.908 141.071 322.908H146.11C146.462 325.115 148.386 326.814 150.69 326.814C152.995 326.814 154.919 325.115 155.271 322.908H174.284C174.636 325.115 176.56 326.814 178.864 326.814C181.169 326.814 183.093 325.115 183.444 322.908H189.606C190.007 322.908 190.339 322.576 190.339 322.175V319.246C190.339 318.845 190.007 318.513 189.606 318.513ZM183.649 318.513V317.292C183.649 316.619 184.196 316.072 184.87 316.072H187.067V318.513H183.649ZM187.067 314.363V314.607H184.87C183.386 314.607 182.185 315.808 182.185 317.292V318.513H166.071V312.166H184.87C186.081 312.166 187.067 313.152 187.067 314.363ZM164.606 312.166V318.513H151.423V312.166H164.606ZM155.173 310.701V304.353H164.606V310.701H155.173ZM174.782 306.111L177.077 310.701H166.071V304.353H171.94C173.151 304.353 174.235 305.027 174.782 306.111ZM148.933 306.755C149.284 305.339 150.554 304.353 152.009 304.353H153.698V310.701H147.946L148.933 306.755ZM143.61 314.363C143.61 313.152 144.597 312.166 145.808 312.166H149.958V318.513H143.61V314.363ZM150.69 325.349C149.196 325.349 147.937 324.304 147.604 322.908H153.776C153.444 324.304 152.185 325.349 150.69 325.349ZM178.864 325.349C177.37 325.349 176.11 324.304 175.778 322.908H181.95C181.618 324.304 180.358 325.349 178.864 325.349ZM188.874 321.443H141.804V319.978H188.874V321.443Z" fill="#004357"/>
<path d="M168.269 316.56C168.669 316.56 169.001 316.228 169.001 315.828V314.851C169.001 314.451 168.669 314.119 168.269 314.119C167.868 314.119 167.536 314.451 167.536 314.851V315.828C167.536 316.228 167.868 316.56 168.269 316.56Z" fill="#004357"/>
<path d="M162.409 316.56C162.81 316.56 163.142 316.228 163.142 315.828V314.851C163.142 314.451 162.81 314.119 162.409 314.119C162.009 314.119 161.677 314.451 161.677 314.851V315.828C161.677 316.228 162.009 316.56 162.409 316.56Z" fill="#004357"/>
<path d="M180.729 289.227C180.446 289.51 179.978 289.51 179.694 289.227L178.269 287.801L177.546 288.523L179.851 290.828C179.948 290.926 180.075 290.975 180.212 290.975C180.349 290.975 180.476 290.926 180.573 290.828L184.772 286.629L184.05 285.906L180.729 289.227Z" fill="#BED73C"/>
<path d="M189.87 280.174L181.433 276.863C181.257 276.795 181.071 276.795 180.896 276.863L172.458 280.174C172.175 280.281 171.989 280.555 171.989 280.857V286.648C171.989 289.48 172.829 292.215 174.431 294.549C176.022 296.893 178.259 298.67 180.896 299.705C180.983 299.734 181.071 299.754 181.159 299.754C181.247 299.754 181.345 299.734 181.423 299.705C184.06 298.67 186.296 296.893 187.888 294.549C189.479 292.205 190.329 289.48 190.329 286.648V280.857C190.339 280.555 190.153 280.291 189.87 280.174ZM186.335 287.146L181.618 291.863C181.247 292.234 180.749 292.439 180.222 292.439C179.694 292.439 179.196 292.234 178.825 291.863L176.003 289.041C175.866 288.904 175.788 288.719 175.788 288.523C175.788 288.328 175.866 288.143 176.003 288.006L177.761 286.248C178.044 285.965 178.513 285.965 178.796 286.248L180.222 287.674L183.542 284.354C183.825 284.07 184.294 284.07 184.577 284.354L186.335 286.111C186.472 286.248 186.55 286.434 186.55 286.629C186.55 286.824 186.472 287.01 186.335 287.146Z" fill="#BED73C"/>
</g>
<g clip-path="url(#clip3_6286_132920)">
<path d="M362.839 282.813C353.015 282.813 345.017 290.812 345.017 300.636V305.03C345.017 305.431 345.349 305.763 345.749 305.763H345.837C345.974 305.763 346.11 305.724 346.228 305.646L346.94 305.196C348.552 304.181 350.612 304.327 352.058 305.558L352.087 305.587C352.224 305.704 352.39 305.763 352.565 305.763H352.712C352.858 305.763 353.005 305.714 353.122 305.636L353.356 305.47C354.909 304.415 356.95 304.464 358.435 305.606C358.562 305.704 358.718 305.753 358.884 305.753H359.04C359.177 305.753 359.323 305.714 359.44 305.636L360.476 304.962C360.524 304.933 360.573 304.903 360.622 304.874V312.208C360.622 312.608 360.954 312.94 361.354 312.94C361.755 312.94 362.087 312.608 362.087 312.208V304.337C362.575 304.259 363.063 304.259 363.552 304.337V312.208C363.552 312.608 363.884 312.94 364.284 312.94C364.685 312.94 365.017 312.608 365.017 312.208V304.884C365.065 304.913 365.114 304.942 365.163 304.972L366.198 305.646C366.315 305.724 366.452 305.763 366.599 305.763H366.755C366.911 305.763 367.077 305.714 367.204 305.616C368.698 304.474 370.739 304.415 372.282 305.479L372.517 305.646C372.634 305.733 372.78 305.772 372.927 305.772H373.073C373.249 305.772 373.415 305.714 373.552 305.597L373.581 305.567C375.036 304.337 377.087 304.19 378.698 305.206L379.411 305.655C379.528 305.733 379.665 305.772 379.802 305.772H379.89C380.29 305.772 380.622 305.44 380.622 305.04V300.646C380.661 290.812 372.663 282.813 362.839 282.813ZM346.481 303.771V300.636C346.481 295.157 349.187 290.304 353.327 287.335C352.214 293.507 351.931 300.733 351.862 303.683C350.183 302.833 348.171 302.843 346.481 303.771ZM353.317 303.819C353.386 300.782 353.688 292.667 355.026 286.271C356.354 285.548 357.79 285.001 359.304 284.669C357.624 290.831 357.907 300.206 358.083 303.722C356.56 303.067 354.831 303.097 353.317 303.819ZM362.839 302.823C361.745 302.823 360.651 303.126 359.694 303.741L359.558 303.829C359.382 300.44 359.05 290.323 360.905 284.386C361.54 284.308 362.185 284.269 362.839 284.269C363.493 284.269 364.138 284.308 364.772 284.386C366.618 290.323 366.296 300.44 366.12 303.829L365.983 303.741C365.026 303.126 363.933 302.823 362.839 302.823ZM367.595 303.712C367.78 300.206 368.063 290.831 366.374 284.659C367.888 284.991 369.323 285.538 370.651 286.261C371.979 292.657 372.282 300.772 372.36 303.81C370.847 303.097 369.118 303.067 367.595 303.712ZM379.196 303.771C377.507 302.843 375.495 302.833 373.815 303.683C373.747 300.743 373.464 293.517 372.351 287.335C376.491 290.304 379.196 295.157 379.196 300.636V303.771Z" fill="#004357"/>
<path d="M371.462 315.763C370.241 314.474 368.62 313.771 366.881 313.771C365.387 313.771 363.981 314.298 362.838 315.265C361.696 314.298 360.28 313.771 358.796 313.771C357.067 313.771 355.436 314.483 354.215 315.763C352.379 317.706 351.891 320.538 352.77 322.95H356.735L358.571 320.196C358.717 319.981 358.962 319.854 359.225 319.874C359.489 319.894 359.723 320.05 359.831 320.284L362.096 324.845L364.538 318.058C364.635 317.784 364.899 317.589 365.192 317.579C365.485 317.569 365.758 317.726 365.885 317.989L368.278 322.95H372.907C373.776 320.538 373.297 317.706 371.462 315.763Z" fill="#BED73C"/>
<path d="M367.155 324.005L365.329 320.206L362.897 326.954C362.8 327.228 362.546 327.423 362.253 327.433C362.243 327.433 362.224 327.433 362.214 327.433C361.94 327.433 361.687 327.276 361.56 327.022L359.079 322.071L357.731 324.093C357.595 324.298 357.37 324.415 357.126 324.415H353.513C353.718 324.728 353.952 325.021 354.216 325.304L360.28 331.7C360.964 332.413 361.862 332.813 362.839 332.813C363.815 332.813 364.714 332.423 365.397 331.7L371.462 325.304C371.726 325.021 371.96 324.728 372.165 324.415H367.819C367.536 324.415 367.282 324.259 367.155 324.005Z" fill="#BED73C"/>
</g>
<g clip-path="url(#clip4_6286_132920)">
<path d="M582.153 290.827H580.249V286.677C580.249 285.192 579.048 283.991 577.563 283.991H537.524C536.04 283.991 534.839 285.192 534.839 286.677V310.114C534.839 311.599 536.04 312.8 537.524 312.8H539.429V316.95C539.429 318.435 540.63 319.636 542.114 319.636H582.153C583.638 319.636 584.839 318.435 584.839 316.95V293.513C584.839 292.028 583.638 290.827 582.153 290.827ZM536.304 310.114V286.677C536.304 286.003 536.851 285.456 537.524 285.456H577.563C578.237 285.456 578.784 286.003 578.784 286.677V310.114C578.784 310.788 578.237 311.335 577.563 311.335H537.524C536.851 311.335 536.304 310.788 536.304 310.114ZM583.374 316.95C583.374 317.624 582.827 318.171 582.153 318.171H542.114C541.44 318.171 540.894 317.624 540.894 316.95V312.8H577.563C579.048 312.8 580.249 311.599 580.249 310.114V292.292H582.153C582.827 292.292 583.374 292.839 583.374 293.513V316.95Z" fill="#004357"/>
<path d="M576.099 291.804H575.122C573.911 291.804 572.925 290.817 572.925 289.606V288.63C572.925 288.229 572.593 287.897 572.192 287.897C571.792 287.897 571.46 288.229 571.46 288.63V289.606C571.46 291.628 573.101 293.269 575.122 293.269H576.099C576.499 293.269 576.831 292.937 576.831 292.536C576.831 292.136 576.499 291.804 576.099 291.804Z" fill="#004357"/>
<path d="M576.099 303.522H575.122C573.101 303.522 571.46 305.163 571.46 307.185V308.161C571.46 308.562 571.792 308.894 572.192 308.894C572.593 308.894 572.925 308.562 572.925 308.161V307.185C572.925 305.974 573.911 304.987 575.122 304.987H576.099C576.499 304.987 576.831 304.655 576.831 304.255C576.831 303.854 576.499 303.522 576.099 303.522Z" fill="#004357"/>
<path d="M542.896 287.897C542.495 287.897 542.163 288.229 542.163 288.63V289.606C542.163 290.817 541.177 291.804 539.966 291.804H538.989C538.589 291.804 538.257 292.136 538.257 292.536C538.257 292.937 538.589 293.269 538.989 293.269H539.966C541.987 293.269 543.628 291.628 543.628 289.606V288.63C543.628 288.229 543.296 287.897 542.896 287.897Z" fill="#004357"/>
<path d="M539.966 303.522H538.989C538.589 303.522 538.257 303.854 538.257 304.255C538.257 304.655 538.589 304.987 538.989 304.987H539.966C541.177 304.987 542.163 305.974 542.163 307.185V308.161C542.163 308.562 542.495 308.894 542.896 308.894C543.296 308.894 543.628 308.562 543.628 308.161V307.185C543.628 305.163 541.987 303.522 539.966 303.522Z" fill="#004357"/>
<path d="M571.265 314.753H568.823C568.423 314.753 568.091 315.085 568.091 315.485C568.091 315.886 568.423 316.218 568.823 316.218H571.265C571.665 316.218 571.997 315.886 571.997 315.485C571.997 315.085 571.665 314.753 571.265 314.753Z" fill="#004357"/>
<path d="M563.013 314.753H560.571C560.171 314.753 559.839 315.085 559.839 315.485C559.839 315.886 560.171 316.218 560.571 316.218H563.013C563.413 316.218 563.745 315.886 563.745 315.485C563.745 315.085 563.413 314.753 563.013 314.753Z" fill="#004357"/>
<path d="M554.761 314.753H552.319C551.919 314.753 551.587 315.085 551.587 315.485C551.587 315.886 551.919 316.218 552.319 316.218H554.761C555.161 316.218 555.493 315.886 555.493 315.485C555.493 315.085 555.161 314.753 554.761 314.753Z" fill="#004357"/>
<path d="M546.509 314.753H544.067C543.667 314.753 543.335 315.085 543.335 315.485C543.335 315.886 543.667 316.218 544.067 316.218H546.509C546.909 316.218 547.241 315.886 547.241 315.485C547.241 315.085 546.909 314.753 546.509 314.753Z" fill="#004357"/>
<path d="M579.517 314.753H577.075C576.675 314.753 576.343 315.085 576.343 315.485C576.343 315.886 576.675 316.218 577.075 316.218H579.517C579.917 316.218 580.249 315.886 580.249 315.485C580.249 315.085 579.917 314.753 579.517 314.753Z" fill="#004357"/>
<path d="M557.544 288.874C552.29 288.874 548.022 293.142 548.022 298.396C548.022 303.649 552.29 307.917 557.544 307.917C562.798 307.917 567.065 303.649 567.065 298.396C567.065 293.142 562.798 288.874 557.544 288.874ZM559.399 302.536V303.767C559.399 304.167 559.067 304.499 558.667 304.499C558.267 304.499 557.935 304.167 557.935 303.767V302.712H557.163V303.767C557.163 304.167 556.831 304.499 556.431 304.499C556.03 304.499 555.698 304.167 555.698 303.767V302.712H555.405C555.005 302.712 554.673 302.38 554.673 301.979C554.673 301.579 555.005 301.247 555.405 301.247H558.501C559.058 301.247 559.507 300.769 559.507 300.192C559.507 299.616 559.058 299.138 558.501 299.138H556.597C555.239 299.138 554.126 298.005 554.126 296.618C554.126 295.554 554.78 294.636 555.688 294.274V293.024C555.688 292.624 556.021 292.292 556.421 292.292C556.821 292.292 557.153 292.624 557.153 293.024V294.079H557.925V293.024C557.925 292.624 558.257 292.292 558.657 292.292C559.058 292.292 559.39 292.624 559.39 293.024V294.079H559.683C560.083 294.079 560.415 294.411 560.415 294.812C560.415 295.212 560.083 295.544 559.683 295.544H556.587C556.03 295.544 555.581 296.022 555.581 296.599C555.581 297.185 556.03 297.653 556.587 297.653H558.491C559.849 297.653 560.962 298.786 560.962 300.173C560.962 301.247 560.308 302.165 559.399 302.536Z" fill="#BED73C"/>
</g>
<defs>
<clipPath id="clip0_6286_132920">
<rect width="50" height="50" fill="white" transform="translate(140.339 135.813)"/>
</clipPath>
<clipPath id="clip1_6286_132920">
<rect width="50" height="50" fill="white" transform="translate(534.839 135.813)"/>
</clipPath>
<clipPath id="clip2_6286_132920">
<rect width="50" height="50" fill="white" transform="translate(140.339 276.813)"/>
</clipPath>
<clipPath id="clip3_6286_132920">
<rect width="50" height="50" fill="white" transform="translate(337.839 282.813)"/>
</clipPath>
<clipPath id="clip4_6286_132920">
<rect width="50" height="50" fill="white" transform="translate(534.839 276.813)"/>
</clipPath>
</defs>
</svg>
