<svg width="901" height="441" viewBox="0 0 901 441" fill="none" xmlns="http://www.w3.org/2000/svg">
<path d="M259.268 416.406L230.416 416.406C226.136 416.406 222.666 412.937 222.666 408.657V408.657" stroke="#BED73C" stroke-width="2" stroke-linecap="round" stroke-linejoin="round" stroke-dasharray="4 4"/>
<path d="M273.014 66.7178V27.2397C273.014 22.9598 276.483 19.4902 280.763 19.4902V19.4902" stroke="#BED73C" stroke-width="2" stroke-linecap="round" stroke-linejoin="round" stroke-dasharray="4 4"/>
<path d="M566.474 32.6902V22.8613C566.474 18.443 562.892 14.8613 558.474 14.8613H556.649" stroke="#BED73C" stroke-width="2" stroke-linecap="round" stroke-linejoin="round" stroke-dasharray="4 4"/>
<g opacity="0.5">
<path d="M300.302 22.5185L297.174 19.391L296.109 20.4485L300.302 24.641L309.302 15.641L308.244 14.5835L300.302 22.5185Z" fill="white"/>
<path d="M347.823 57.1386L344.696 54.0111L343.631 55.0686L347.823 59.2611L356.823 50.2611L355.766 49.2036L347.823 57.1386Z" fill="white"/>
</g>
<path d="M276.714 419.436C275.889 419.436 275.214 420.111 275.214 420.936C275.214 421.761 275.889 422.436 276.714 422.436C277.539 422.436 278.214 421.761 278.214 420.936C278.214 420.111 277.539 419.436 276.714 419.436ZM285.714 419.436C284.889 419.436 284.214 420.111 284.214 420.936C284.214 421.761 284.889 422.436 285.714 422.436C286.539 422.436 287.214 421.761 287.214 420.936C287.214 420.111 286.539 419.436 285.714 419.436ZM281.214 419.436C280.389 419.436 279.714 420.111 279.714 420.936C279.714 421.761 280.389 422.436 281.214 422.436C282.039 422.436 282.714 421.761 282.714 420.936C282.714 420.111 282.039 419.436 281.214 419.436Z" fill="#3C3E3E"/>
<path d="M165.842 90.0635C165.017 90.0635 164.342 90.7385 164.342 91.5635C164.342 92.3885 165.017 93.0635 165.842 93.0635C166.667 93.0635 167.342 92.3885 167.342 91.5635C167.342 90.7385 166.667 90.0635 165.842 90.0635ZM174.842 90.0635C174.017 90.0635 173.342 90.7385 173.342 91.5635C173.342 92.3885 174.017 93.0635 174.842 93.0635C175.667 93.0635 176.342 92.3885 176.342 91.5635C176.342 90.7385 175.667 90.0635 174.842 90.0635ZM170.342 90.0635C169.517 90.0635 168.842 90.7385 168.842 91.5635C168.842 92.3885 169.517 93.0635 170.342 93.0635C171.167 93.0635 171.842 92.3885 171.842 91.5635C171.842 90.7385 171.167 90.0635 170.342 90.0635Z" fill="white"/>
<g clip-path="url(#clip0_6286_132716)">
<path d="M271.306 168.87C272.517 168.87 273.503 167.884 273.503 166.673V162.767C273.503 161.556 272.517 160.569 271.306 160.569H264.274C263.063 160.569 262.077 161.556 262.077 162.767V166.673C262.077 167.884 263.063 168.87 264.274 168.87H271.306ZM264.274 162.034H271.306C271.706 162.034 272.038 162.366 272.038 162.767V163.987H263.542V162.767C263.542 162.366 263.874 162.034 264.274 162.034ZM263.542 166.673V165.452H272.038V166.673C272.038 167.073 271.706 167.405 271.306 167.405H264.274C263.874 167.405 263.542 167.073 263.542 166.673Z" fill="#004357"/>
<path d="M279.606 174.241H277.409V158.128H279.606C279.87 158.128 280.114 157.981 280.241 157.757C280.368 157.522 280.368 157.249 280.231 157.015L277.302 152.132C277.165 151.907 276.931 151.78 276.677 151.78H264.274C263.874 151.78 263.542 152.112 263.542 152.513C263.542 152.913 263.874 153.245 264.274 153.245H276.267L278.317 156.663H261.833C261.433 156.663 261.101 156.995 261.101 157.396C261.101 157.796 261.433 158.128 261.833 158.128H275.944V174.241H265.495V172.532C265.495 171.321 264.509 170.335 263.298 170.335H254.509C253.298 170.335 252.312 171.321 252.312 172.532V174.241H231.071C230.671 174.241 230.339 174.573 230.339 174.974V177.903C230.339 178.304 230.671 178.636 231.071 178.636H279.606C280.007 178.636 280.339 178.304 280.339 177.903V174.974C280.339 174.573 280.007 174.241 279.606 174.241ZM253.776 172.532C253.776 172.132 254.108 171.8 254.509 171.8H263.298C263.698 171.8 264.03 172.132 264.03 172.532V174.241H253.776V172.532ZM278.874 177.171H231.804V175.706H278.874V177.171Z" fill="#004357"/>
<path d="M261.667 150.384L246.53 143.06C246.325 142.962 246.091 142.962 245.896 143.06L230.759 150.384C230.495 150.511 230.339 150.765 230.339 151.048V153.03L245.886 145.511C246.091 145.413 246.325 145.413 246.521 145.511L262.067 153.03V151.048C262.077 150.765 261.921 150.511 261.667 150.384Z" fill="#BED73C"/>
<path d="M252.312 155.687H250.114C249.714 155.687 249.382 156.019 249.382 156.419V162.034H252.312V155.687Z" fill="#BED73C"/>
<path d="M232.78 153.479V172.776H235.71V162.278C235.71 161.067 236.696 160.081 237.907 160.081H242.79C244.001 160.081 244.987 161.067 244.987 162.278V172.776H250.847V172.044C250.847 170.296 252.272 168.87 254.021 168.87H259.636V153.479L246.208 146.985L232.78 153.479ZM247.917 156.419C247.917 155.208 248.903 154.222 250.114 154.222H255.974C257.185 154.222 258.171 155.208 258.171 156.419V164.231C258.171 165.442 257.185 166.429 255.974 166.429H250.114C248.903 166.429 247.917 165.442 247.917 164.231V156.419Z" fill="#BED73C"/>
<path d="M256.706 156.419C256.706 156.019 256.374 155.687 255.974 155.687H253.776V162.034H256.706V156.419Z" fill="#BED73C"/>
<path d="M250.114 164.964H255.974C256.374 164.964 256.706 164.632 256.706 164.231V163.499H249.382V164.231C249.382 164.632 249.714 164.964 250.114 164.964Z" fill="#BED73C"/>
<path d="M242.79 161.546H237.907C237.507 161.546 237.175 161.878 237.175 162.278V172.776H243.522V162.278C243.522 161.878 243.19 161.546 242.79 161.546ZM242.546 168.138C242.546 168.538 242.214 168.87 241.813 168.87C241.413 168.87 241.081 168.538 241.081 168.138V166.185C241.081 165.784 241.413 165.452 241.813 165.452C242.214 165.452 242.546 165.784 242.546 166.185V168.138Z" fill="#BED73C"/>
</g>
<path d="M472.02 151.688V152.038H472.37H474.714C475.103 152.038 475.4 152.167 475.599 152.366C475.798 152.565 475.926 152.862 475.926 153.251V157.938C475.926 158.328 475.798 158.625 475.599 158.824C475.4 159.023 475.103 159.151 474.714 159.151H472.214H472.087L471.99 159.232L463.552 166.263L463.426 166.368V166.532V176.688C463.426 177.078 463.298 177.375 463.099 177.574C462.9 177.773 462.603 177.901 462.214 177.901H443.464C443.075 177.901 442.778 177.773 442.579 177.574C442.38 177.375 442.251 177.078 442.251 176.688V166.532V166.368L442.125 166.263L433.688 159.232L433.591 159.151H433.464H430.964C430.575 159.151 430.278 159.023 430.079 158.824C429.88 158.625 429.751 158.328 429.751 157.938V153.251C429.751 152.862 429.88 152.565 430.079 152.366C430.278 152.167 430.575 152.038 430.964 152.038H433.308H433.658V151.688V150.126C433.658 149.737 433.786 149.44 433.985 149.241C434.184 149.042 434.481 148.913 434.87 148.913C435.259 148.913 435.556 149.042 435.755 149.241C435.954 149.44 436.083 149.737 436.083 150.126V151.688V152.038H436.433H437.995H438.345V151.688V150.126C438.345 149.737 438.473 149.44 438.672 149.241C438.871 149.042 439.168 148.913 439.558 148.913C439.947 148.913 440.244 149.042 440.443 149.241C440.642 149.44 440.77 149.737 440.77 150.126V151.688V152.038H441.12H444.245C444.634 152.038 444.931 152.167 445.13 152.366C445.329 152.565 445.458 152.862 445.458 153.251C445.458 153.64 445.329 153.937 445.13 154.136C444.931 154.335 444.634 154.463 444.245 154.463H432.526H432.176V154.813V156.376V156.726H432.526H444.245C444.634 156.726 444.931 156.854 445.13 157.053C445.329 157.252 445.458 157.549 445.458 157.938C445.458 158.328 445.329 158.625 445.13 158.824C444.931 159.023 444.634 159.151 444.245 159.151H438.464H437.497L438.24 159.77L443.865 164.457L443.962 164.538H444.089H461.589H461.716L461.813 164.457L467.438 159.77L468.181 159.151H467.214H461.433C461.043 159.151 460.746 159.023 460.547 158.824C460.348 158.625 460.22 158.328 460.22 157.938C460.22 157.549 460.348 157.252 460.547 157.053C460.746 156.854 461.043 156.726 461.433 156.726H473.151H473.501V156.376V154.813V154.463H473.151H461.433C461.043 154.463 460.746 154.335 460.547 154.136C460.348 153.937 460.22 153.64 460.22 153.251C460.22 152.862 460.348 152.565 460.547 152.366C460.746 152.167 461.043 152.038 461.433 152.038H464.558H464.908V151.688V150.126C464.908 149.737 465.036 149.44 465.235 149.241C465.434 149.042 465.731 148.913 466.12 148.913C466.509 148.913 466.806 149.042 467.005 149.241C467.204 149.44 467.333 149.737 467.333 150.126V151.688V152.038H467.683H469.245H469.595V151.688V150.126C469.595 149.737 469.723 149.44 469.922 149.241C470.121 149.042 470.418 148.913 470.808 148.913C471.197 148.913 471.494 149.042 471.693 149.241C471.892 149.44 472.02 149.737 472.02 150.126V151.688ZM460.651 175.476H461.001V175.126V167.313V166.963H460.651H445.026H444.676V167.313V175.126V175.476H445.026H460.651Z" fill="#004357" stroke="white" stroke-width="0.7"/>
<path d="M448.464 172.782H449.245C450.183 172.782 450.808 172.157 450.808 171.22C450.808 170.282 450.183 169.657 449.245 169.657H448.464C447.526 169.657 446.901 170.282 446.901 171.22C446.901 172.157 447.683 172.782 448.464 172.782Z" fill="#004357"/>
<path d="M456.276 172.782H457.058C457.995 172.782 458.62 172.157 458.62 171.22C458.62 170.282 457.995 169.657 457.058 169.657H456.276C455.339 169.657 454.714 170.282 454.714 171.22C454.714 172.157 455.495 172.782 456.276 172.782Z" fill="#004357"/>
<path d="M457.526 131.376H448.151C447.214 131.376 446.589 132.001 446.589 132.938C446.589 133.876 447.214 134.501 448.151 134.501H449.714V161.063H455.964V134.501H457.526C458.464 134.501 459.089 133.876 459.089 132.938C459.089 132.001 458.464 131.376 457.526 131.376Z" fill="#BED73C"/>
<path d="M470.808 137.626H469.245V136.063C469.245 135.126 468.62 134.501 467.683 134.501C466.745 134.501 466.12 135.126 466.12 136.063V137.626H464.558V136.063C464.558 135.126 463.933 134.501 462.995 134.501C462.058 134.501 461.433 135.126 461.433 136.063V137.626H459.089V143.876H470.808C471.745 143.876 472.37 143.251 472.37 142.313V139.188C472.37 138.251 471.745 137.626 470.808 137.626Z" fill="#BED73C"/>
<path d="M442.683 134.501C441.745 134.501 441.12 135.126 441.12 136.063V137.626H439.558V136.063C439.558 135.126 438.933 134.501 437.995 134.501C437.058 134.501 436.433 135.126 436.433 136.063V137.626H434.87C433.933 137.626 433.308 138.251 433.308 139.188V142.313C433.308 143.251 433.933 143.876 434.87 143.876H446.589V137.626H444.245V136.063C444.245 135.126 443.62 134.501 442.683 134.501Z" fill="#BED73C"/>
<g clip-path="url(#clip1_6286_132716)">
<path d="M672.642 155.687H670.288L672.476 146.224C672.661 145.433 672.476 144.622 671.968 143.987C671.47 143.353 670.718 142.991 669.907 142.991C668.677 142.991 667.612 143.831 667.339 145.032L664.878 155.687H634.312L631.851 145.032C631.577 143.831 630.513 142.991 629.282 142.991C628.472 142.991 627.72 143.353 627.222 143.987C626.714 144.622 626.538 145.433 626.714 146.224L628.901 155.687H627.036C625.825 155.687 624.839 156.673 624.839 157.884V160.325C624.839 160.726 625.171 161.058 625.571 161.058H626.753L629.038 174.759C629.409 177.005 631.333 178.636 633.618 178.636H666.06C668.335 178.636 670.259 177.005 670.64 174.759L672.925 161.058H674.106C674.507 161.058 674.839 160.726 674.839 160.325V157.884C674.839 156.673 673.853 155.687 672.642 155.687ZM668.765 145.364C668.892 144.827 669.36 144.456 669.907 144.456C670.269 144.456 670.601 144.612 670.825 144.896C671.05 145.179 671.128 145.54 671.05 145.892L668.784 155.687H666.382L668.765 145.364ZM628.14 145.892C628.062 145.54 628.14 145.179 628.364 144.896C628.589 144.612 628.921 144.456 629.282 144.456C629.829 144.456 630.298 144.827 630.425 145.364L632.808 155.687H630.405L628.14 145.892ZM669.194 174.515C668.94 176.048 667.622 177.171 666.06 177.171H633.618C632.056 177.171 630.747 176.058 630.483 174.515L628.237 161.058H671.431L669.194 174.515ZM673.374 159.593H626.304V157.884C626.304 157.483 626.636 157.151 627.036 157.151H672.642C673.042 157.151 673.374 157.483 673.374 157.884V159.593Z" fill="#004357"/>
<path d="M649.819 175.218H649.868C651.069 175.218 652.046 174.241 652.046 173.04V165.179C652.046 163.978 651.069 163.001 649.868 163.001H649.819C648.618 163.001 647.642 163.978 647.642 165.179V173.04C647.642 174.241 648.618 175.218 649.819 175.218ZM649.106 165.188C649.106 164.798 649.429 164.476 649.819 164.476H649.868C650.259 164.476 650.581 164.798 650.581 165.188V173.05C650.581 173.44 650.259 173.763 649.868 173.763H649.819C649.429 173.763 649.106 173.44 649.106 173.05V165.188Z" fill="#004357"/>
<path d="M637.67 173.431C637.856 174.466 638.754 175.218 639.809 175.218C640.454 175.218 641.059 174.935 641.479 174.437C641.899 173.938 642.065 173.294 641.948 172.659L640.522 164.798C640.336 163.763 639.438 163.011 638.383 163.011C637.739 163.011 637.133 163.294 636.713 163.792C636.293 164.29 636.127 164.935 636.245 165.569L637.67 173.431ZM637.836 164.729C637.915 164.632 638.09 164.476 638.383 164.476C638.725 164.476 639.018 164.72 639.077 165.062L640.502 172.923C640.551 173.206 640.424 173.411 640.346 173.499C640.268 173.597 640.092 173.753 639.799 173.753C639.458 173.753 639.165 173.509 639.106 173.167L637.68 165.306C637.631 165.022 637.758 164.827 637.836 164.729Z" fill="#004357"/>
<path d="M659.869 175.218C660.923 175.218 661.822 174.466 662.007 173.431L663.433 165.569C663.55 164.935 663.375 164.28 662.964 163.792C662.554 163.304 661.939 163.011 661.294 163.011C660.24 163.011 659.341 163.763 659.156 164.798L657.73 172.659C657.613 173.294 657.789 173.948 658.199 174.437C658.609 174.925 659.224 175.218 659.869 175.218ZM659.166 172.913L660.591 165.052C660.65 164.71 660.943 164.466 661.285 164.466C661.578 164.466 661.753 164.622 661.832 164.72C661.91 164.817 662.037 165.013 661.988 165.296L660.562 173.157C660.503 173.499 660.21 173.743 659.869 173.743C659.576 173.743 659.4 173.587 659.322 173.489C659.244 173.401 659.117 173.206 659.166 172.913Z" fill="#004357"/>
<path d="M649.282 147.933C647.866 144.749 645.913 142.991 643.774 142.991C641.636 142.991 639.683 144.749 638.267 147.933C637.466 149.729 636.88 151.878 636.548 154.222H651.001C650.669 151.878 650.083 149.729 649.282 147.933ZM642.358 148.626H645.288C645.688 148.626 646.021 148.958 646.021 149.358C646.021 149.759 645.688 150.091 645.288 150.091H642.358C641.958 150.091 641.626 149.759 641.626 149.358C641.626 148.958 641.948 148.626 642.358 148.626ZM646.265 153.997H641.382C640.981 153.997 640.649 153.665 640.649 153.265C640.649 152.864 640.981 152.532 641.382 152.532H646.265C646.665 152.532 646.997 152.864 646.997 153.265C646.997 153.665 646.665 153.997 646.265 153.997Z" fill="#BED73C"/>
<path d="M653.921 153.48C653.54 153.343 653.345 152.923 653.481 152.542C653.618 152.161 654.038 151.966 654.419 152.103L659.009 153.773C659.224 153.851 659.38 154.017 659.448 154.222H663.325C663.462 152.913 663.501 151.653 663.423 150.491C663.179 147.015 661.948 144.691 659.937 143.968C657.935 143.235 655.503 144.212 653.081 146.722C652.446 147.376 651.841 148.118 651.245 148.929C651.802 150.53 652.222 152.318 652.476 154.222H655.952L653.921 153.48ZM655.737 149.202C655.874 148.821 656.294 148.626 656.675 148.763L659.429 149.769C659.81 149.905 660.005 150.325 659.868 150.706C659.761 150.999 659.478 151.185 659.185 151.185C659.097 151.185 659.019 151.175 658.931 151.136L656.177 150.13C655.796 150.003 655.601 149.583 655.737 149.202Z" fill="#BED73C"/>
</g>
<g clip-path="url(#clip2_6286_132716)">
<path d="M279.606 318.513H278.532V314.363C278.532 312.341 276.892 310.701 274.87 310.701H268.718L266.091 305.457C265.3 303.875 263.708 302.888 261.94 302.888H242.019C239.89 302.888 238.034 304.333 237.517 306.404L236.442 310.701H235.808C233.786 310.701 232.146 312.341 232.146 314.363V318.513H231.071C230.671 318.513 230.339 318.845 230.339 319.246V322.175C230.339 322.576 230.671 322.908 231.071 322.908H236.11C236.462 325.115 238.386 326.814 240.69 326.814C242.995 326.814 244.919 325.115 245.271 322.908H264.284C264.636 325.115 266.56 326.814 268.864 326.814C271.169 326.814 273.093 325.115 273.444 322.908H279.606C280.007 322.908 280.339 322.576 280.339 322.175V319.246C280.339 318.845 280.007 318.513 279.606 318.513ZM273.649 318.513V317.292C273.649 316.619 274.196 316.072 274.87 316.072H277.067V318.513H273.649ZM277.067 314.363V314.607H274.87C273.386 314.607 272.185 315.808 272.185 317.292V318.513H256.071V312.166H274.87C276.081 312.166 277.067 313.152 277.067 314.363ZM254.606 312.166V318.513H241.423V312.166H254.606ZM245.173 310.701V304.353H254.606V310.701H245.173ZM264.782 306.111L267.077 310.701H256.071V304.353H261.94C263.151 304.353 264.235 305.027 264.782 306.111ZM238.933 306.755C239.284 305.339 240.554 304.353 242.009 304.353H243.698V310.701H237.946L238.933 306.755ZM233.61 314.363C233.61 313.152 234.597 312.166 235.808 312.166H239.958V318.513H233.61V314.363ZM240.69 325.349C239.196 325.349 237.937 324.304 237.604 322.908H243.776C243.444 324.304 242.185 325.349 240.69 325.349ZM268.864 325.349C267.37 325.349 266.11 324.304 265.778 322.908H271.95C271.618 324.304 270.358 325.349 268.864 325.349ZM278.874 321.443H231.804V319.978H278.874V321.443Z" fill="#004357"/>
<path d="M258.269 316.56C258.669 316.56 259.001 316.228 259.001 315.828V314.851C259.001 314.451 258.669 314.119 258.269 314.119C257.868 314.119 257.536 314.451 257.536 314.851V315.828C257.536 316.228 257.868 316.56 258.269 316.56Z" fill="#004357"/>
<path d="M252.409 316.56C252.81 316.56 253.142 316.228 253.142 315.828V314.851C253.142 314.451 252.81 314.119 252.409 314.119C252.009 314.119 251.677 314.451 251.677 314.851V315.828C251.677 316.228 252.009 316.56 252.409 316.56Z" fill="#004357"/>
<path d="M270.729 289.227C270.446 289.51 269.978 289.51 269.694 289.227L268.269 287.801L267.546 288.523L269.851 290.828C269.948 290.926 270.075 290.975 270.212 290.975C270.349 290.975 270.476 290.926 270.573 290.828L274.772 286.629L274.05 285.906L270.729 289.227Z" fill="#BED73C"/>
<path d="M279.87 280.174L271.433 276.863C271.257 276.795 271.071 276.795 270.896 276.863L262.458 280.174C262.175 280.281 261.989 280.555 261.989 280.857V286.648C261.989 289.48 262.829 292.215 264.431 294.549C266.022 296.893 268.259 298.67 270.896 299.705C270.983 299.734 271.071 299.754 271.159 299.754C271.247 299.754 271.345 299.734 271.423 299.705C274.06 298.67 276.296 296.893 277.888 294.549C279.479 292.205 280.329 289.48 280.329 286.648V280.857C280.339 280.555 280.153 280.291 279.87 280.174ZM276.335 287.146L271.618 291.863C271.247 292.234 270.749 292.439 270.222 292.439C269.694 292.439 269.196 292.234 268.825 291.863L266.003 289.041C265.866 288.904 265.788 288.719 265.788 288.523C265.788 288.328 265.866 288.143 266.003 288.006L267.761 286.248C268.044 285.965 268.513 285.965 268.796 286.248L270.222 287.674L273.542 284.354C273.825 284.07 274.294 284.07 274.577 284.354L276.335 286.111C276.472 286.248 276.55 286.434 276.55 286.629C276.55 286.824 276.472 287.01 276.335 287.146Z" fill="#BED73C"/>
</g>
<g clip-path="url(#clip3_6286_132716)">
<path d="M452.839 282.813C443.015 282.813 435.017 290.812 435.017 300.636V305.03C435.017 305.431 435.349 305.763 435.749 305.763H435.837C435.974 305.763 436.11 305.724 436.228 305.646L436.94 305.196C438.552 304.181 440.612 304.327 442.058 305.558L442.087 305.587C442.224 305.704 442.39 305.763 442.565 305.763H442.712C442.858 305.763 443.005 305.714 443.122 305.636L443.356 305.47C444.909 304.415 446.95 304.464 448.435 305.606C448.562 305.704 448.718 305.753 448.884 305.753H449.04C449.177 305.753 449.323 305.714 449.44 305.636L450.476 304.962C450.524 304.933 450.573 304.903 450.622 304.874V312.208C450.622 312.608 450.954 312.94 451.354 312.94C451.755 312.94 452.087 312.608 452.087 312.208V304.337C452.575 304.259 453.063 304.259 453.552 304.337V312.208C453.552 312.608 453.884 312.94 454.284 312.94C454.685 312.94 455.017 312.608 455.017 312.208V304.884C455.065 304.913 455.114 304.942 455.163 304.972L456.198 305.646C456.315 305.724 456.452 305.763 456.599 305.763H456.755C456.911 305.763 457.077 305.714 457.204 305.616C458.698 304.474 460.739 304.415 462.282 305.479L462.517 305.646C462.634 305.733 462.78 305.772 462.927 305.772H463.073C463.249 305.772 463.415 305.714 463.552 305.597L463.581 305.567C465.036 304.337 467.087 304.19 468.698 305.206L469.411 305.655C469.528 305.733 469.665 305.772 469.802 305.772H469.89C470.29 305.772 470.622 305.44 470.622 305.04V300.646C470.661 290.812 462.663 282.813 452.839 282.813ZM436.481 303.771V300.636C436.481 295.157 439.187 290.304 443.327 287.335C442.214 293.507 441.931 300.733 441.862 303.683C440.183 302.833 438.171 302.843 436.481 303.771ZM443.317 303.819C443.386 300.782 443.688 292.667 445.026 286.271C446.354 285.548 447.79 285.001 449.304 284.669C447.624 290.831 447.907 300.206 448.083 303.722C446.56 303.067 444.831 303.097 443.317 303.819ZM452.839 302.823C451.745 302.823 450.651 303.126 449.694 303.741L449.558 303.829C449.382 300.44 449.05 290.323 450.905 284.386C451.54 284.308 452.185 284.269 452.839 284.269C453.493 284.269 454.138 284.308 454.772 284.386C456.618 290.323 456.296 300.44 456.12 303.829L455.983 303.741C455.026 303.126 453.933 302.823 452.839 302.823ZM457.595 303.712C457.78 300.206 458.063 290.831 456.374 284.659C457.888 284.991 459.323 285.538 460.651 286.261C461.979 292.657 462.282 300.772 462.36 303.81C460.847 303.097 459.118 303.067 457.595 303.712ZM469.196 303.771C467.507 302.843 465.495 302.833 463.815 303.683C463.747 300.743 463.464 293.517 462.351 287.335C466.491 290.304 469.196 295.157 469.196 300.636V303.771Z" fill="#004357"/>
<path d="M461.462 315.763C460.241 314.474 458.62 313.771 456.881 313.771C455.387 313.771 453.981 314.298 452.838 315.265C451.696 314.298 450.28 313.771 448.796 313.771C447.067 313.771 445.436 314.483 444.215 315.763C442.379 317.706 441.891 320.538 442.77 322.95H446.735L448.571 320.196C448.717 319.981 448.962 319.854 449.225 319.874C449.489 319.894 449.723 320.05 449.831 320.284L452.096 324.845L454.538 318.058C454.635 317.784 454.899 317.589 455.192 317.579C455.485 317.569 455.758 317.726 455.885 317.989L458.278 322.95H462.907C463.776 320.538 463.297 317.706 461.462 315.763Z" fill="#BED73C"/>
<path d="M457.155 324.005L455.329 320.206L452.897 326.954C452.8 327.228 452.546 327.423 452.253 327.433C452.243 327.433 452.224 327.433 452.214 327.433C451.94 327.433 451.687 327.276 451.56 327.022L449.079 322.071L447.731 324.093C447.595 324.298 447.37 324.415 447.126 324.415H443.513C443.718 324.728 443.952 325.021 444.216 325.304L450.28 331.7C450.964 332.413 451.862 332.813 452.839 332.813C453.815 332.813 454.714 332.423 455.397 331.7L461.462 325.304C461.726 325.021 461.96 324.728 462.165 324.415H457.819C457.536 324.415 457.282 324.259 457.155 324.005Z" fill="#BED73C"/>
</g>
<g clip-path="url(#clip4_6286_132716)">
<path d="M672.153 290.827H670.249V286.677C670.249 285.192 669.048 283.991 667.563 283.991H627.524C626.04 283.991 624.839 285.192 624.839 286.677V310.114C624.839 311.599 626.04 312.8 627.524 312.8H629.429V316.95C629.429 318.435 630.63 319.636 632.114 319.636H672.153C673.638 319.636 674.839 318.435 674.839 316.95V293.513C674.839 292.028 673.638 290.827 672.153 290.827ZM626.304 310.114V286.677C626.304 286.003 626.851 285.456 627.524 285.456H667.563C668.237 285.456 668.784 286.003 668.784 286.677V310.114C668.784 310.788 668.237 311.335 667.563 311.335H627.524C626.851 311.335 626.304 310.788 626.304 310.114ZM673.374 316.95C673.374 317.624 672.827 318.171 672.153 318.171H632.114C631.44 318.171 630.894 317.624 630.894 316.95V312.8H667.563C669.048 312.8 670.249 311.599 670.249 310.114V292.292H672.153C672.827 292.292 673.374 292.839 673.374 293.513V316.95Z" fill="#004357"/>
<path d="M666.099 291.804H665.122C663.911 291.804 662.925 290.817 662.925 289.606V288.63C662.925 288.229 662.593 287.897 662.192 287.897C661.792 287.897 661.46 288.229 661.46 288.63V289.606C661.46 291.628 663.101 293.269 665.122 293.269H666.099C666.499 293.269 666.831 292.937 666.831 292.536C666.831 292.136 666.499 291.804 666.099 291.804Z" fill="#004357"/>
<path d="M666.099 303.522H665.122C663.101 303.522 661.46 305.163 661.46 307.185V308.161C661.46 308.562 661.792 308.894 662.192 308.894C662.593 308.894 662.925 308.562 662.925 308.161V307.185C662.925 305.974 663.911 304.987 665.122 304.987H666.099C666.499 304.987 666.831 304.655 666.831 304.255C666.831 303.854 666.499 303.522 666.099 303.522Z" fill="#004357"/>
<path d="M632.896 287.897C632.495 287.897 632.163 288.229 632.163 288.63V289.606C632.163 290.817 631.177 291.804 629.966 291.804H628.989C628.589 291.804 628.257 292.136 628.257 292.536C628.257 292.937 628.589 293.269 628.989 293.269H629.966C631.987 293.269 633.628 291.628 633.628 289.606V288.63C633.628 288.229 633.296 287.897 632.896 287.897Z" fill="#004357"/>
<path d="M629.966 303.522H628.989C628.589 303.522 628.257 303.854 628.257 304.255C628.257 304.655 628.589 304.987 628.989 304.987H629.966C631.177 304.987 632.163 305.974 632.163 307.185V308.161C632.163 308.562 632.495 308.894 632.896 308.894C633.296 308.894 633.628 308.562 633.628 308.161V307.185C633.628 305.163 631.987 303.522 629.966 303.522Z" fill="#004357"/>
<path d="M661.265 314.753H658.823C658.423 314.753 658.091 315.085 658.091 315.485C658.091 315.886 658.423 316.218 658.823 316.218H661.265C661.665 316.218 661.997 315.886 661.997 315.485C661.997 315.085 661.665 314.753 661.265 314.753Z" fill="#004357"/>
<path d="M653.013 314.753H650.571C650.171 314.753 649.839 315.085 649.839 315.485C649.839 315.886 650.171 316.218 650.571 316.218H653.013C653.413 316.218 653.745 315.886 653.745 315.485C653.745 315.085 653.413 314.753 653.013 314.753Z" fill="#004357"/>
<path d="M644.761 314.753H642.319C641.919 314.753 641.587 315.085 641.587 315.485C641.587 315.886 641.919 316.218 642.319 316.218H644.761C645.161 316.218 645.493 315.886 645.493 315.485C645.493 315.085 645.161 314.753 644.761 314.753Z" fill="#004357"/>
<path d="M636.509 314.753H634.067C633.667 314.753 633.335 315.085 633.335 315.485C633.335 315.886 633.667 316.218 634.067 316.218H636.509C636.909 316.218 637.241 315.886 637.241 315.485C637.241 315.085 636.909 314.753 636.509 314.753Z" fill="#004357"/>
<path d="M669.517 314.753H667.075C666.675 314.753 666.343 315.085 666.343 315.485C666.343 315.886 666.675 316.218 667.075 316.218H669.517C669.917 316.218 670.249 315.886 670.249 315.485C670.249 315.085 669.917 314.753 669.517 314.753Z" fill="#004357"/>
<path d="M647.544 288.874C642.29 288.874 638.022 293.142 638.022 298.396C638.022 303.649 642.29 307.917 647.544 307.917C652.798 307.917 657.065 303.649 657.065 298.396C657.065 293.142 652.798 288.874 647.544 288.874ZM649.399 302.536V303.767C649.399 304.167 649.067 304.499 648.667 304.499C648.267 304.499 647.935 304.167 647.935 303.767V302.712H647.163V303.767C647.163 304.167 646.831 304.499 646.431 304.499C646.03 304.499 645.698 304.167 645.698 303.767V302.712H645.405C645.005 302.712 644.673 302.38 644.673 301.979C644.673 301.579 645.005 301.247 645.405 301.247H648.501C649.058 301.247 649.507 300.769 649.507 300.192C649.507 299.616 649.058 299.138 648.501 299.138H646.597C645.239 299.138 644.126 298.005 644.126 296.618C644.126 295.554 644.78 294.636 645.688 294.274V293.024C645.688 292.624 646.021 292.292 646.421 292.292C646.821 292.292 647.153 292.624 647.153 293.024V294.079H647.925V293.024C647.925 292.624 648.257 292.292 648.657 292.292C649.058 292.292 649.39 292.624 649.39 293.024V294.079H649.683C650.083 294.079 650.415 294.411 650.415 294.812C650.415 295.212 650.083 295.544 649.683 295.544H646.587C646.03 295.544 645.581 296.022 645.581 296.599C645.581 297.185 646.03 297.653 646.587 297.653H648.491C649.849 297.653 650.962 298.786 650.962 300.173C650.962 301.247 650.308 302.165 649.399 302.536Z" fill="#BED73C"/>
</g>
<defs>
<clipPath id="clip0_6286_132716">
<rect width="50" height="50" fill="white" transform="translate(230.339 135.813)"/>
</clipPath>
<clipPath id="clip1_6286_132716">
<rect width="50" height="50" fill="white" transform="translate(624.839 135.813)"/>
</clipPath>
<clipPath id="clip2_6286_132716">
<rect width="50" height="50" fill="white" transform="translate(230.339 276.813)"/>
</clipPath>
<clipPath id="clip3_6286_132716">
<rect width="50" height="50" fill="white" transform="translate(427.839 282.813)"/>
</clipPath>
<clipPath id="clip4_6286_132716">
<rect width="50" height="50" fill="white" transform="translate(624.839 276.813)"/>
</clipPath>
</defs>
</svg>
